<?xml version="1.0" encoding="UTF-8" standalone="no"?>
<!-- Created with Inkscape (http://www.inkscape.org/) -->

<svg
   xmlns:dc="http://purl.org/dc/elements/1.1/"
   xmlns:cc="http://creativecommons.org/ns#"
   xmlns:rdf="http://www.w3.org/1999/02/22-rdf-syntax-ns#"
   xmlns:svg="http://www.w3.org/2000/svg"
   xmlns="http://www.w3.org/2000/svg"
   xmlns:sodipodi="http://sodipodi.sourceforge.net/DTD/sodipodi-0.dtd"
   xmlns:inkscape="http://www.inkscape.org/namespaces/inkscape"
   id="svg3300"
   version="1.1"
   inkscape:version="0.48.4 r9939"
   width="681.94312"
   height="512.09161"
   xml:space="preserve"
   sodipodi:docname="fixation_times.svg"><metadata
     id="metadata3306"><rdf:RDF><cc:Work
         rdf:about=""><dc:format>image/svg+xml</dc:format><dc:type
           rdf:resource="http://purl.org/dc/dcmitype/StillImage" /><dc:title></dc:title></cc:Work></rdf:RDF></metadata><defs
     id="defs3304"><clipPath
       clipPathUnits="userSpaceOnUse"
       id="clipPath3318"><path
         d="m 72,43.2 446.4,0 0,345.6 -446.4,0 0,-345.6 z"
         id="path3320"
         inkscape:connector-curvature="0" /></clipPath><clipPath
       clipPathUnits="userSpaceOnUse"
       id="clipPath3328"><path
         d="m 72,43.2 446.4,0 0,345.6 -446.4,0 0,-345.6 z"
         id="path3330"
         inkscape:connector-curvature="0" /></clipPath><clipPath
       clipPathUnits="userSpaceOnUse"
       id="clipPath3338"><path
         d="m 72,43.2 446.4,0 0,345.6 -446.4,0 0,-345.6 z"
         id="path3340"
         inkscape:connector-curvature="0" /></clipPath><clipPath
       clipPathUnits="userSpaceOnUse"
       id="clipPath3348"><path
         d="m 72,43.2 446.4,0 0,345.6 -446.4,0 0,-345.6 z"
         id="path3350"
         inkscape:connector-curvature="0" /></clipPath><clipPath
       clipPathUnits="userSpaceOnUse"
       id="clipPath3358"><path
         d="m 72,43.2 446.4,0 0,345.6 -446.4,0 0,-345.6 z"
         id="path3360"
         inkscape:connector-curvature="0" /></clipPath><clipPath
       clipPathUnits="userSpaceOnUse"
       id="clipPath3368"><path
         d="m 72,43.2 446.4,0 0,345.6 -446.4,0 0,-345.6 z"
         id="path3370"
         inkscape:connector-curvature="0" /></clipPath></defs><sodipodi:namedview
     pagecolor="#ffffff"
     bordercolor="#666666"
     borderopacity="1"
     objecttolerance="10"
     gridtolerance="10"
     guidetolerance="10"
     inkscape:pageopacity="0"
     inkscape:pageshadow="2"
     inkscape:window-width="1280"
     inkscape:window-height="782"
     id="namedview3302"
     showgrid="false"
     fit-margin-top="0"
     fit-margin-left="0"
     fit-margin-right="0"
     fit-margin-bottom="0"
     inkscape:zoom="0.78829312"
     inkscape:cx="493.14262"
     inkscape:cy="209.31343"
     inkscape:window-x="0"
     inkscape:window-y="18"
     inkscape:window-maximized="0"
     inkscape:current-layer="g3308" /><g
     id="g3308"
     inkscape:groupmode="layer"
     inkscape:label="fixation_times"
     transform="matrix(1.25,0,0,-1.25,-6.3428182,501.01735)"><path
       d="m 5.0742546,-8.8594037 545.5544754,0 0,409.6732837 -545.5544754,0 0,-409.6732837 z"
       style="fill:#ffffff;fill-opacity:1;fill-rule:nonzero;stroke:none"
       id="path3310"
       inkscape:connector-curvature="0" /><path
       d="m 72,43.2 446.4,0 0,345.6 -446.4,0 0,-345.6 z"
       style="fill:#ffffff;fill-opacity:1;fill-rule:nonzero;stroke:none"
       id="path3312"
       inkscape:connector-curvature="0" /><path
       d="m 92.4228,388.8 0,-2.93013 0,-2.93013 0,-2.93014 0,-2.93013 0,-2.93013 6.8076,-2.93013 6.8076,-2.93013 0,-2.93014 0,-2.93013 0,-2.93013 6.8076,-2.93013 0,-2.93013 0,-2.93014 0,-2.93013 0,-2.93013 0,-2.93013 0,-2.93013 0,-2.93014 0,-2.93013 0,-2.93013 0,-2.93013 0,-2.93014 0,-2.93013 0,-2.93013 0,-2.93013 0,-2.93013 0,-2.93014 0,-2.93013 0,-2.93013 0,-2.93013 0,-2.93013 0,-2.93014 0,-2.93013 0,-2.93013 0,-2.93013 0,-2.93013 0,-2.93014 0,-2.93013 0,-2.93013 0,-2.93013 0,-2.93013 0,-2.93014 0,-2.93013 0,-2.93013 6.8076,-2.93013 0,-2.93013 0,-2.93014 0,-2.93013 0,-2.93013 0,-2.93013 0,-2.93013 0,-2.93014 0,-2.93013 0,-2.93013 0,-2.93013 0,-2.93013 0,-2.93014 0,-2.93013 0,-2.93013 0,-2.93013 0,-2.93014 0,-2.93013 0,-2.93013 0,-2.93013 6.8076,-2.93013 0,-2.93014 0,-2.93013 0,-2.93013 13.6152,-2.93013 0,-2.93013 0,-2.93014 0,-2.93013 0,-2.93013 0,-2.93013 0,-2.93013 0,-2.93014 0,-2.93013 6.8076,-2.93013 0,-2.93013 6.8076,-2.93013 0,-2.93014 0,-2.93013 0,-2.93013 0,-2.93013 6.8076,-2.93013 0,-2.93014 0,-2.93013 6.8076,-2.93013 6.8076,-2.93013 6.8076,-2.93013 0,-2.93014 0,-2.93013 6.8076,-2.93013 0,-2.93013 0,-2.93014 0,-2.93013 0,-2.93013 0,-2.93013 13.6152,-2.930133 0,-2.930132 0,-2.930132 0,-2.930132 6.8076,-2.930132 20.4228,-2.930132 0,-2.930133 13.6152,-2.930132 6.8076,-2.930132 20.4228,-2.930132 40.8456,-2.930132 34.038,-2.930132 0,-2.930132 47.6532,-2.930132"
       style="fill:none;stroke:#0000ff;stroke-width:2.4000001;stroke-linecap:butt;stroke-linejoin:round;stroke-miterlimit:10;stroke-opacity:1;stroke-dasharray:none"
       id="path3322"
       inkscape:connector-curvature="0" /><g
       id="g3324"><g
         id="g3326"
         clip-path="url(#clipPath3328)"><path
           d="m 72,112.32 446.4,0"
           style="fill:none;stroke:#0000ff;stroke-width:2;stroke-linecap:butt;stroke-linejoin:round;stroke-miterlimit:10;stroke-opacity:1;stroke-dasharray:6, 6;stroke-dashoffset:0"
           id="path3332"
           inkscape:connector-curvature="0" /></g></g><path
       d="m 92.4228,388.8 6.8076,-7.36364 6.8076,-7.36363 0,-7.36364 0,-7.36364 0,-7.36363 6.8076,-7.36364 0,-7.36363 0,-7.36364 0,-7.36364 0,-7.36363 0,-7.36364 0,-7.36364 6.8076,-7.36363 0,-7.36364 0,-7.36364 0,-7.36363 6.8076,-7.36364 0,-7.36363 0,-7.36364 0,-7.36364 20.4228,-7.36363 6.8076,-7.36364 0,-7.36364 0,-7.36363 0,-7.36364 27.2304,-7.36364 13.6152,-7.36363 0,-7.36364 0,-7.36363 0,-7.36364 0,-7.36364 6.8076,-7.36363 6.8076,-7.36364 20.4228,-7.36364 0,-7.36363 0,-7.36364 6.8076,-7.36364 34.038,-7.36363 6.8076,-7.36364 34.038,-7.363635 13.6152,-7.363636 68.076,-7.363636 0,-7.363637 L 514.494,64.8"
       style="fill:none;stroke:#008000;stroke-width:2.4000001;stroke-linecap:butt;stroke-linejoin:round;stroke-miterlimit:10;stroke-opacity:1;stroke-dasharray:none"
       id="path3342"
       inkscape:connector-curvature="0" /><g
       id="g3344"><g
         id="g3346"
         clip-path="url(#clipPath3348)"><path
           d="m 72,155.52 446.4,0"
           style="fill:none;stroke:#008000;stroke-width:2;stroke-linecap:butt;stroke-linejoin:round;stroke-miterlimit:10;stroke-opacity:1;stroke-dasharray:6, 6;stroke-dashoffset:0"
           id="path3352"
           inkscape:connector-curvature="0" /></g></g><path
       d="m 106.038,388.8 6.8076,-15.2 0,-15.2 0,-15.2 6.8076,-15.2 0,-15.2 27.2304,-15.2 6.8076,-15.2 0,-15.2 0,-15.2 0,-15.2 6.8076,-15.2 0,-15.2 27.2304,-15.2 0,-15.2 6.8076,-15.2 6.8076,-15.2 34.038,-15.2 217.8432,-15.2"
       style="fill:none;stroke:#ff0000;stroke-width:2.4000001;stroke-linecap:butt;stroke-linejoin:round;stroke-miterlimit:10;stroke-opacity:1;stroke-dasharray:none"
       id="path3362"
       inkscape:connector-curvature="0" /><g
       id="g3364"><g
         id="g3366"
         clip-path="url(#clipPath3368)"><path
           d="m 72,216 446.4,0"
           style="fill:none;stroke:#ff0000;stroke-width:2;stroke-linecap:butt;stroke-linejoin:round;stroke-miterlimit:10;stroke-opacity:1;stroke-dasharray:6, 6;stroke-dashoffset:0"
           id="path3372"
           inkscape:connector-curvature="0" /></g></g><path
       d="m 72,43.2 0,4"
       style="fill:#000000;fill-opacity:1;fill-rule:nonzero;stroke:#000000;stroke-width:0.5;stroke-linecap:butt;stroke-linejoin:round;stroke-miterlimit:10;stroke-opacity:1;stroke-dasharray:none"
       id="path3374"
       inkscape:connector-curvature="0" /><path
       d="m 72,388.8 0,-4"
       style="fill:#000000;fill-opacity:1;fill-rule:nonzero;stroke:#000000;stroke-width:0.5;stroke-linecap:butt;stroke-linejoin:round;stroke-miterlimit:10;stroke-opacity:1;stroke-dasharray:none"
       id="path3376"
       inkscape:connector-curvature="0" /><text
       transform="scale(1,-1)"
       id="text3378"
       x="67.887856"
       y="-24.440351"><tspan
         style="font-size:17.93275261px;font-variant:normal;font-weight:normal;writing-mode:lr-tb;fill:#000000;fill-opacity:1;fill-rule:nonzero;stroke:none;font-family:Computer Modern;-inkscape-font-specification:CMR17"
         x="67.887856"
         y="-24.440351"
         id="tspan3380">0</tspan></text>
<path
       d="m 183.6,43.2 0,4"
       style="fill:#000000;fill-opacity:1;fill-rule:nonzero;stroke:#000000;stroke-width:0.5;stroke-linecap:butt;stroke-linejoin:round;stroke-miterlimit:10;stroke-opacity:1;stroke-dasharray:none"
       id="path3382"
       inkscape:connector-curvature="0" /><path
       d="m 183.6,388.8 0,-4"
       style="fill:#000000;fill-opacity:1;fill-rule:nonzero;stroke:#000000;stroke-width:0.5;stroke-linecap:butt;stroke-linejoin:round;stroke-miterlimit:10;stroke-opacity:1;stroke-dasharray:none"
       id="path3384"
       inkscape:connector-curvature="0" /><text
       transform="scale(1,-1)"
       id="text3386"
       x="171.26357"
       y="-24.440351"><tspan
         style="font-size:17.93275261px;font-variant:normal;font-weight:normal;writing-mode:lr-tb;fill:#000000;fill-opacity:1;fill-rule:nonzero;stroke:none;font-family:Computer Modern;-inkscape-font-specification:CMR17"
         x="171.26357 179.47678 187.68997"
         y="-24.440351"
         sodipodi:role="line"
         id="tspan3388">500</tspan></text>
<path
       d="m 295.2,43.2 0,4"
       style="fill:#000000;fill-opacity:1;fill-rule:nonzero;stroke:#000000;stroke-width:0.5;stroke-linecap:butt;stroke-linejoin:round;stroke-miterlimit:10;stroke-opacity:1;stroke-dasharray:none"
       id="path3390"
       inkscape:connector-curvature="0" /><path
       d="m 295.2,388.8 0,-4"
       style="fill:#000000;fill-opacity:1;fill-rule:nonzero;stroke:#000000;stroke-width:0.5;stroke-linecap:butt;stroke-linejoin:round;stroke-miterlimit:10;stroke-opacity:1;stroke-dasharray:none"
       id="path3392"
       inkscape:connector-curvature="0" /><text
       transform="scale(1,-1)"
       id="text3394"
       x="278.75143"
       y="-24.440351"><tspan
         style="font-size:17.93275261px;font-variant:normal;font-weight:normal;writing-mode:lr-tb;fill:#000000;fill-opacity:1;fill-rule:nonzero;stroke:none;font-family:Computer Modern;-inkscape-font-specification:CMR17"
         x="278.75143 286.96463 295.17783 303.39102"
         y="-24.440351"
         sodipodi:role="line"
         id="tspan3396">1000</tspan></text>
<path
       d="m 406.8,43.2 0,4"
       style="fill:#000000;fill-opacity:1;fill-rule:nonzero;stroke:#000000;stroke-width:0.5;stroke-linecap:butt;stroke-linejoin:round;stroke-miterlimit:10;stroke-opacity:1;stroke-dasharray:none"
       id="path3398"
       inkscape:connector-curvature="0" /><path
       d="m 406.8,388.8 0,-4"
       style="fill:#000000;fill-opacity:1;fill-rule:nonzero;stroke:#000000;stroke-width:0.5;stroke-linecap:butt;stroke-linejoin:round;stroke-miterlimit:10;stroke-opacity:1;stroke-dasharray:none"
       id="path3400"
       inkscape:connector-curvature="0" /><text
       transform="scale(1,-1)"
       id="text3402"
       x="390.35144"
       y="-24.440351"><tspan
         style="font-size:17.93275261px;font-variant:normal;font-weight:normal;writing-mode:lr-tb;fill:#000000;fill-opacity:1;fill-rule:nonzero;stroke:none;font-family:Computer Modern;-inkscape-font-specification:CMR17"
         x="390.35144 398.56464 406.77783 414.99103"
         y="-24.440351"
         sodipodi:role="line"
         id="tspan3404">1500</tspan></text>
<path
       d="m 518.4,43.2 0,4"
       style="fill:#000000;fill-opacity:1;fill-rule:nonzero;stroke:#000000;stroke-width:0.5;stroke-linecap:butt;stroke-linejoin:round;stroke-miterlimit:10;stroke-opacity:1;stroke-dasharray:none"
       id="path3406"
       inkscape:connector-curvature="0" /><path
       d="m 518.4,388.8 0,-4"
       style="fill:#000000;fill-opacity:1;fill-rule:nonzero;stroke:#000000;stroke-width:0.5;stroke-linecap:butt;stroke-linejoin:round;stroke-miterlimit:10;stroke-opacity:1;stroke-dasharray:none"
       id="path3408"
       inkscape:connector-curvature="0" /><text
       transform="scale(1,-1)"
       id="text3410"
       x="501.95142"
       y="-24.440351"><tspan
         style="font-size:17.93275261px;font-variant:normal;font-weight:normal;writing-mode:lr-tb;fill:#000000;fill-opacity:1;fill-rule:nonzero;stroke:none;font-family:Computer Modern;-inkscape-font-specification:CMR17"
         x="501.95142 510.16464 518.37781 526.591"
         y="-24.440351"
         sodipodi:role="line"
         id="tspan3412">2000</tspan></text>
<g
       id="g4279"
       transform="translate(0,-3.2)"><text
         y="-2.0437117"
         x="198.41754"
         id="text3414"
         transform="scale(1,-1)"><tspan
           id="tspan3416"
           sodipodi:role="line"
           y="-2.0437117"
           x="198.41754 203.93684 208.34033 224.91817 241.51572 245.9192 256.97775 262.49704 273.55557 280.76837 290.23288 301.29141"
           style="font-size:19.92527962px;font-variant:normal;writing-mode:lr-tb;fill:#000000;fill-opacity:1;fill-rule:nonzero;stroke:none;font-family:Nimbus Sans L;-inkscape-font-specification:NimbusSanL-Regu">timeinterval</tspan></text>
<text
         y="-2.0437117"
         x="311.45187"
         id="text3418"
         transform="scale(1,-1)"><tspan
           id="tspan3420"
           y="-2.0437117"
           x="311.45187"
           style="font-size:19.92527962px;font-variant:normal;font-weight:normal;writing-mode:lr-tb;fill:#000000;fill-opacity:1;fill-rule:nonzero;stroke:none;font-family:Computer Modern;-inkscape-font-specification:CMR17">∆</tspan></text>
<text
         y="-2.0437117"
         x="326.83578"
         id="text3422"
         transform="scale(1,-1)"><tspan
           id="tspan3424"
           y="-2.0437117"
           x="326.83578"
           style="font-size:19.92527962px;font-style:italic;font-variant:normal;font-weight:normal;writing-mode:lr-tb;fill:#000000;fill-opacity:1;fill-rule:nonzero;stroke:none;font-family:Computer Modern;-inkscape-font-specification:CMMI12">t</tspan></text>
<text
         y="-2.0437117"
         x="339.4201"
         id="text3426"
         transform="scale(1,-1)"><tspan
           id="tspan3428"
           sodipodi:role="line"
           y="-2.0437117"
           x="339.4201 344.93939 355.99792 366.45883 376.42148 386.38409"
           style="font-size:19.92527962px;font-variant:normal;writing-mode:lr-tb;fill:#000000;fill-opacity:1;fill-rule:nonzero;stroke:none;font-family:Nimbus Sans L;-inkscape-font-specification:NimbusSanL-Regu">[days]</tspan></text>
</g><path
       d="m 72,43.2 4,0"
       style="fill:#000000;fill-opacity:1;fill-rule:nonzero;stroke:#000000;stroke-width:0.5;stroke-linecap:butt;stroke-linejoin:round;stroke-miterlimit:10;stroke-opacity:1;stroke-dasharray:none"
       id="path3430"
       inkscape:connector-curvature="0" /><path
       d="m 518.4,43.2 -4,0"
       style="fill:#000000;fill-opacity:1;fill-rule:nonzero;stroke:#000000;stroke-width:0.5;stroke-linecap:butt;stroke-linejoin:round;stroke-miterlimit:10;stroke-opacity:1;stroke-dasharray:none"
       id="path3432"
       inkscape:connector-curvature="0" /><text
       transform="scale(1,-1)"
       id="text3434"
       x="43.473938"
       y="-37.420177"><tspan
         style="font-size:17.93275261px;font-variant:normal;font-weight:normal;writing-mode:lr-tb;fill:#000000;fill-opacity:1;fill-rule:nonzero;stroke:none;font-family:Computer Modern;-inkscape-font-specification:CMR17"
         x="43.473938"
         y="-37.420177"
         id="tspan3436">0</tspan></text>
<text
       transform="scale(1,-1)"
       id="text3438"
       x="51.698223"
       y="-37.420177"><tspan
         style="font-size:17.93275261px;font-style:italic;font-variant:normal;font-weight:normal;writing-mode:lr-tb;fill:#000000;fill-opacity:1;fill-rule:nonzero;stroke:none;font-family:Computer Modern;-inkscape-font-specification:CMMI12"
         x="51.698223"
         y="-37.420177"
         id="tspan3440">.</tspan></text>
<text
       transform="scale(1,-1)"
       id="text3442"
       x="56.575714"
       y="-37.420177"><tspan
         style="font-size:17.93275261px;font-variant:normal;font-weight:normal;writing-mode:lr-tb;fill:#000000;fill-opacity:1;fill-rule:nonzero;stroke:none;font-family:Computer Modern;-inkscape-font-specification:CMR17"
         x="56.575714"
         y="-37.420177"
         id="tspan3444">0</tspan></text>
<path
       d="m 72,112.32 4,0"
       style="fill:#000000;fill-opacity:1;fill-rule:nonzero;stroke:#000000;stroke-width:0.5;stroke-linecap:butt;stroke-linejoin:round;stroke-miterlimit:10;stroke-opacity:1;stroke-dasharray:none"
       id="path3446"
       inkscape:connector-curvature="0" /><path
       d="m 518.4,112.32 -4,0"
       style="fill:#000000;fill-opacity:1;fill-rule:nonzero;stroke:#000000;stroke-width:0.5;stroke-linecap:butt;stroke-linejoin:round;stroke-miterlimit:10;stroke-opacity:1;stroke-dasharray:none"
       id="path3448"
       inkscape:connector-curvature="0" /><text
       transform="scale(1,-1)"
       id="text3450"
       x="43.473938"
       y="-106.54018"><tspan
         style="font-size:17.93275261px;font-variant:normal;font-weight:normal;writing-mode:lr-tb;fill:#000000;fill-opacity:1;fill-rule:nonzero;stroke:none;font-family:Computer Modern;-inkscape-font-specification:CMR17"
         x="43.473938"
         y="-106.54018"
         id="tspan3452">0</tspan></text>
<text
       transform="scale(1,-1)"
       id="text3454"
       x="51.698223"
       y="-106.54018"><tspan
         style="font-size:17.93275261px;font-style:italic;font-variant:normal;font-weight:normal;writing-mode:lr-tb;fill:#000000;fill-opacity:1;fill-rule:nonzero;stroke:none;font-family:Computer Modern;-inkscape-font-specification:CMMI12"
         x="51.698223"
         y="-106.54018"
         id="tspan3456">.</tspan></text>
<text
       transform="scale(1,-1)"
       id="text3458"
       x="56.575714"
       y="-106.54018"><tspan
         style="font-size:17.93275261px;font-variant:normal;font-weight:normal;writing-mode:lr-tb;fill:#000000;fill-opacity:1;fill-rule:nonzero;stroke:none;font-family:Computer Modern;-inkscape-font-specification:CMR17"
         x="56.575714"
         y="-106.54018"
         id="tspan3460">2</tspan></text>
<path
       d="m 72,181.44 4,0"
       style="fill:#000000;fill-opacity:1;fill-rule:nonzero;stroke:#000000;stroke-width:0.5;stroke-linecap:butt;stroke-linejoin:round;stroke-miterlimit:10;stroke-opacity:1;stroke-dasharray:none"
       id="path3462"
       inkscape:connector-curvature="0" /><path
       d="m 518.4,181.44 -4,0"
       style="fill:#000000;fill-opacity:1;fill-rule:nonzero;stroke:#000000;stroke-width:0.5;stroke-linecap:butt;stroke-linejoin:round;stroke-miterlimit:10;stroke-opacity:1;stroke-dasharray:none"
       id="path3464"
       inkscape:connector-curvature="0" /><text
       transform="scale(1,-1)"
       id="text3466"
       x="43.473938"
       y="-175.66019"><tspan
         style="font-size:17.93275261px;font-variant:normal;font-weight:normal;writing-mode:lr-tb;fill:#000000;fill-opacity:1;fill-rule:nonzero;stroke:none;font-family:Computer Modern;-inkscape-font-specification:CMR17"
         x="43.473938"
         y="-175.66019"
         id="tspan3468">0</tspan></text>
<text
       transform="scale(1,-1)"
       id="text3470"
       x="51.698223"
       y="-175.66019"><tspan
         style="font-size:17.93275261px;font-style:italic;font-variant:normal;font-weight:normal;writing-mode:lr-tb;fill:#000000;fill-opacity:1;fill-rule:nonzero;stroke:none;font-family:Computer Modern;-inkscape-font-specification:CMMI12"
         x="51.698223"
         y="-175.66019"
         id="tspan3472">.</tspan></text>
<text
       transform="scale(1,-1)"
       id="text3474"
       x="56.575714"
       y="-175.66019"><tspan
         style="font-size:17.93275261px;font-variant:normal;font-weight:normal;writing-mode:lr-tb;fill:#000000;fill-opacity:1;fill-rule:nonzero;stroke:none;font-family:Computer Modern;-inkscape-font-specification:CMR17"
         x="56.575714"
         y="-175.66019"
         id="tspan3476">4</tspan></text>
<path
       d="m 72,250.56 4,0"
       style="fill:#000000;fill-opacity:1;fill-rule:nonzero;stroke:#000000;stroke-width:0.5;stroke-linecap:butt;stroke-linejoin:round;stroke-miterlimit:10;stroke-opacity:1;stroke-dasharray:none"
       id="path3478"
       inkscape:connector-curvature="0" /><path
       d="m 518.4,250.56 -4,0"
       style="fill:#000000;fill-opacity:1;fill-rule:nonzero;stroke:#000000;stroke-width:0.5;stroke-linecap:butt;stroke-linejoin:round;stroke-miterlimit:10;stroke-opacity:1;stroke-dasharray:none"
       id="path3480"
       inkscape:connector-curvature="0" /><text
       transform="scale(1,-1)"
       id="text3482"
       x="43.473938"
       y="-244.78018"><tspan
         style="font-size:17.93275261px;font-variant:normal;font-weight:normal;writing-mode:lr-tb;fill:#000000;fill-opacity:1;fill-rule:nonzero;stroke:none;font-family:Computer Modern;-inkscape-font-specification:CMR17"
         x="43.473938"
         y="-244.78018"
         id="tspan3484">0</tspan></text>
<text
       transform="scale(1,-1)"
       id="text3486"
       x="51.698223"
       y="-244.78018"><tspan
         style="font-size:17.93275261px;font-style:italic;font-variant:normal;font-weight:normal;writing-mode:lr-tb;fill:#000000;fill-opacity:1;fill-rule:nonzero;stroke:none;font-family:Computer Modern;-inkscape-font-specification:CMMI12"
         x="51.698223"
         y="-244.78018"
         id="tspan3488">.</tspan></text>
<text
       transform="scale(1,-1)"
       id="text3490"
       x="56.575714"
       y="-244.78018"><tspan
         style="font-size:17.93275261px;font-variant:normal;font-weight:normal;writing-mode:lr-tb;fill:#000000;fill-opacity:1;fill-rule:nonzero;stroke:none;font-family:Computer Modern;-inkscape-font-specification:CMR17"
         x="56.575714"
         y="-244.78018"
         id="tspan3492">6</tspan></text>
<path
       d="m 72,319.68 4,0"
       style="fill:#000000;fill-opacity:1;fill-rule:nonzero;stroke:#000000;stroke-width:0.5;stroke-linecap:butt;stroke-linejoin:round;stroke-miterlimit:10;stroke-opacity:1;stroke-dasharray:none"
       id="path3494"
       inkscape:connector-curvature="0" /><path
       d="m 518.4,319.68 -4,0"
       style="fill:#000000;fill-opacity:1;fill-rule:nonzero;stroke:#000000;stroke-width:0.5;stroke-linecap:butt;stroke-linejoin:round;stroke-miterlimit:10;stroke-opacity:1;stroke-dasharray:none"
       id="path3496"
       inkscape:connector-curvature="0" /><text
       transform="scale(1,-1)"
       id="text3498"
       x="43.473938"
       y="-313.90018"><tspan
         style="font-size:17.93275261px;font-variant:normal;font-weight:normal;writing-mode:lr-tb;fill:#000000;fill-opacity:1;fill-rule:nonzero;stroke:none;font-family:Computer Modern;-inkscape-font-specification:CMR17"
         x="43.473938"
         y="-313.90018"
         id="tspan3500">0</tspan></text>
<text
       transform="scale(1,-1)"
       id="text3502"
       x="51.698223"
       y="-313.90018"><tspan
         style="font-size:17.93275261px;font-style:italic;font-variant:normal;font-weight:normal;writing-mode:lr-tb;fill:#000000;fill-opacity:1;fill-rule:nonzero;stroke:none;font-family:Computer Modern;-inkscape-font-specification:CMMI12"
         x="51.698223"
         y="-313.90018"
         id="tspan3504">.</tspan></text>
<text
       transform="scale(1,-1)"
       id="text3506"
       x="56.575714"
       y="-313.90018"><tspan
         style="font-size:17.93275261px;font-variant:normal;font-weight:normal;writing-mode:lr-tb;fill:#000000;fill-opacity:1;fill-rule:nonzero;stroke:none;font-family:Computer Modern;-inkscape-font-specification:CMR17"
         x="56.575714"
         y="-313.90018"
         id="tspan3508">8</tspan></text>
<path
       d="m 72,388.8 4,0"
       style="fill:#000000;fill-opacity:1;fill-rule:nonzero;stroke:#000000;stroke-width:0.5;stroke-linecap:butt;stroke-linejoin:round;stroke-miterlimit:10;stroke-opacity:1;stroke-dasharray:none"
       id="path3510"
       inkscape:connector-curvature="0" /><path
       d="m 518.4,388.8 -4,0"
       style="fill:#000000;fill-opacity:1;fill-rule:nonzero;stroke:#000000;stroke-width:0.5;stroke-linecap:butt;stroke-linejoin:round;stroke-miterlimit:10;stroke-opacity:1;stroke-dasharray:none"
       id="path3512"
       inkscape:connector-curvature="0" /><text
       transform="scale(1,-1)"
       id="text3514"
       x="43.473938"
       y="-383.02017"><tspan
         style="font-size:17.93275261px;font-variant:normal;font-weight:normal;writing-mode:lr-tb;fill:#000000;fill-opacity:1;fill-rule:nonzero;stroke:none;font-family:Computer Modern;-inkscape-font-specification:CMR17"
         x="43.473938"
         y="-383.02017"
         id="tspan3516">1</tspan></text>
<text
       transform="scale(1,-1)"
       id="text3518"
       x="51.698223"
       y="-383.02017"><tspan
         style="font-size:17.93275261px;font-style:italic;font-variant:normal;font-weight:normal;writing-mode:lr-tb;fill:#000000;fill-opacity:1;fill-rule:nonzero;stroke:none;font-family:Computer Modern;-inkscape-font-specification:CMMI12"
         x="51.698223"
         y="-383.02017"
         id="tspan3520">.</tspan></text>
<text
       transform="scale(1,-1)"
       id="text3522"
       x="56.575714"
       y="-383.02017"><tspan
         style="font-size:17.93275261px;font-variant:normal;font-weight:normal;writing-mode:lr-tb;fill:#000000;fill-opacity:1;fill-rule:nonzero;stroke:none;font-family:Computer Modern;-inkscape-font-specification:CMR17"
         x="56.575714"
         y="-383.02017"
         id="tspan3524">0</tspan></text>
<text
       transform="matrix(0,1,1,0,0,0)"
       id="text3526"
       x="77.726303"
       y="27.829966"><tspan
         style="font-size:19.92527962px;font-variant:normal;writing-mode:lr-tb;fill:#000000;fill-opacity:1;fill-rule:nonzero;stroke:none;font-family:Nimbus Sans L;-inkscape-font-specification:NimbusSanL-Regu"
         x="77.726303 83.245605 89.661575 100.7201 110.68274 116.20204 120.60553 131.66403 148.2616 159.32013 170.37845 180.34109 191.39963 198.61243 208.57507 212.97856 222.94121 227.3447 238.40321 255.00076 271.37939 282.43793 287.95721 299.01575 304.53506 308.93854 319.99707 331.0556"
         y="27.829966"
         sodipodi:role="line"
         id="tspan3528">fractionofsurvivingmutations</tspan></text>
<path
       d="m 72,388.8 446.4,0"
       style="fill:none;stroke:#000000;stroke-width:1.20000005;stroke-linecap:square;stroke-linejoin:round;stroke-miterlimit:10;stroke-opacity:1;stroke-dasharray:none"
       id="path3530"
       inkscape:connector-curvature="0" /><path
       d="m 518.4,43.2 0,345.6"
       style="fill:none;stroke:#000000;stroke-width:1.20000005;stroke-linecap:square;stroke-linejoin:round;stroke-miterlimit:10;stroke-opacity:1;stroke-dasharray:none"
       id="path3532"
       inkscape:connector-curvature="0" /><path
       d="m 72,43.2 446.4,0"
       style="fill:none;stroke:#000000;stroke-width:1.20000005;stroke-linecap:square;stroke-linejoin:round;stroke-miterlimit:10;stroke-opacity:1;stroke-dasharray:none"
       id="path3534"
       inkscape:connector-curvature="0" /><path
       d="m 72,43.2 0,345.6"
       style="fill:none;stroke:#000000;stroke-width:1.20000005;stroke-linecap:square;stroke-linejoin:round;stroke-miterlimit:10;stroke-opacity:1;stroke-dasharray:none"
       id="path3536"
       inkscape:connector-curvature="0" /><text
       style="font-size:25.60000038px;display:inline"
       id="text3869"
       x="11.35288"
       y="-377.02161"
       transform="scale(1,-1)"><tspan
         id="tspan3871"
         y="-377.02161"
         x="11.35288"
         style="font-size:25.60000038px;font-variant:normal;font-weight:normal;writing-mode:lr-tb;fill:#000000;fill-opacity:1;fill-rule:nonzero;stroke:none;font-family:Bitstream Vera Sans;-inkscape-font-specification:BitstreamVeraSans-Roman">A</tspan></text>
<g
       transform="matrix(1.278855,0,0,1.278855,-128.49178,-113.4022)"
       style="display:inline"
       id="g8217"><path
         d="m 352.754,385.496 144.574,0 0,-70.844 -144.574,0 0,70.844 z"
         style="fill:#ffffff;fill-opacity:1;fill-rule:nonzero;stroke:#000000;stroke-width:1;stroke-linecap:square;stroke-linejoin:round;stroke-miterlimit:4;stroke-opacity:1;stroke-dasharray:none"
         id="path3699"
         inkscape:connector-curvature="0" /><path
         d="m 362.832,351.66 20.16,0"
         style="fill:none;stroke:#008000;stroke-width:2;stroke-linecap:square;stroke-linejoin:round;stroke-miterlimit:4;stroke-opacity:1;stroke-dasharray:none"
         id="path3701"
         inkscape:connector-curvature="0" /><path
         d="m 399.738,346.617 c -0.117,0 -0.176,0.066 -0.176,0.191 l 1.231,4.895 c 0.039,0.164 0.062,0.293 0.07,0.387 0,0.152 -0.308,0.23 -0.933,0.23 -0.098,0 -0.149,0.063 -0.149,0.192 0.004,0.023 0.016,0.066 0.031,0.125 0.02,0.062 0.04,0.109 0.063,0.14 0.027,0.031 0.063,0.051 0.113,0.051 l 1.938,0.152 c 0.117,0 0.176,-0.058 0.176,-0.179 l -1.414,-5.645 c 0.761,0.25 1.46,0.645 2.097,1.184 0.641,0.539 1.184,1.175 1.625,1.906 0.445,0.73 0.766,1.492 0.961,2.277 0.039,0.137 0.109,0.25 0.227,0.332 0.109,0.086 0.238,0.125 0.379,0.125 0.125,0 0.23,-0.035 0.308,-0.109 0.082,-0.078 0.121,-0.176 0.121,-0.305 0,-0.152 -0.062,-0.386 -0.191,-0.703 -0.125,-0.316 -0.25,-0.601 -0.371,-0.851 -0.379,-0.754 -0.883,-1.446 -1.512,-2.075 -0.394,-0.39 -0.82,-0.742 -1.27,-1.047 -0.457,-0.3 -0.925,-0.562 -1.417,-0.777 -0.493,-0.211 -1.012,-0.379 -1.563,-0.496 l -0.344,0 z"
         style="fill:#000000;fill-opacity:1;fill-rule:nonzero;stroke:none"
         id="path3703"
         inkscape:connector-curvature="0" /><path
         d="m 408.469,342.723 c -0.824,0 -1.383,0.339 -1.68,1.015 -0.297,0.68 -0.445,1.488 -0.445,2.422 0,0.582 0.051,1.133 0.156,1.648 0.105,0.516 0.32,0.954 0.637,1.313 0.316,0.359 0.761,0.539 1.332,0.539 0.441,0 0.804,-0.109 1.086,-0.328 0.281,-0.215 0.5,-0.496 0.644,-0.836 0.149,-0.344 0.25,-0.711 0.305,-1.106 0.055,-0.39 0.082,-0.8 0.082,-1.23 0,-0.578 -0.055,-1.117 -0.16,-1.621 -0.106,-0.504 -0.321,-0.934 -0.629,-1.285 -0.317,-0.356 -0.754,-0.531 -1.328,-0.531 m 0,0.261 c 0.375,0 0.652,0.192 0.836,0.574 0.183,0.387 0.297,0.813 0.34,1.278 0.043,0.465 0.066,0.961 0.066,1.488 0,0.504 -0.023,0.969 -0.066,1.395 -0.043,0.429 -0.157,0.816 -0.34,1.16 -0.18,0.347 -0.461,0.519 -0.836,0.519 -0.379,0 -0.664,-0.175 -0.848,-0.523 -0.183,-0.348 -0.297,-0.735 -0.34,-1.16 -0.043,-0.422 -0.062,-0.887 -0.062,-1.391 0,-0.375 0.008,-0.726 0.027,-1.059 0.016,-0.332 0.066,-0.675 0.145,-1.027 0.078,-0.355 0.207,-0.652 0.382,-0.89 0.176,-0.243 0.407,-0.364 0.696,-0.364"
         style="fill:#000000;fill-opacity:1;fill-rule:nonzero;stroke:none"
         id="path3705"
         inkscape:connector-curvature="0" /><path
         d="m 416.758,348.531 c -0.078,0 -0.145,0.031 -0.196,0.09 -0.05,0.062 -0.082,0.129 -0.082,0.199 0,0.078 0.032,0.145 0.082,0.203 0.051,0.055 0.118,0.086 0.196,0.086 l 9.043,0 c 0.07,0 0.133,-0.031 0.179,-0.086 0.055,-0.058 0.082,-0.125 0.082,-0.203 0,-0.07 -0.027,-0.137 -0.082,-0.199 -0.046,-0.059 -0.109,-0.09 -0.179,-0.09 l -9.043,0 z m 0,2.801 c -0.078,0 -0.145,0.027 -0.196,0.082 -0.05,0.059 -0.082,0.125 -0.082,0.203 0,0.07 0.032,0.137 0.082,0.195 0.051,0.063 0.118,0.094 0.196,0.094 l 9.043,0 c 0.07,0 0.133,-0.031 0.179,-0.094 0.055,-0.058 0.082,-0.125 0.082,-0.195 0,-0.078 -0.027,-0.144 -0.082,-0.203 -0.046,-0.055 -0.109,-0.082 -0.179,-0.082 l -9.043,0 z"
         style="fill:#000000;fill-opacity:1;fill-rule:nonzero;stroke:none"
         id="path3707"
         inkscape:connector-curvature="0" /><path
         d="m 429.48,343.019 0,14.399 1.969,0 0,-0.574 -1.387,0 0,-13.25 1.387,0 0,-0.575 -1.969,0 z"
         style="fill:#000000;fill-opacity:1;fill-rule:nonzero;stroke:none"
         id="path3709"
         inkscape:connector-curvature="0" /><path
         d="m 435.367,346.301 c -1.179,0 -1.976,0.484 -2.398,1.453 -0.426,0.969 -0.637,2.121 -0.637,3.457 0,0.836 0.074,1.617 0.227,2.355 0.152,0.735 0.453,1.36 0.906,1.871 0.453,0.516 1.086,0.774 1.902,0.774 0.633,0 1.153,-0.156 1.555,-0.465 0.402,-0.309 0.711,-0.711 0.922,-1.199 0.211,-0.489 0.355,-1.016 0.429,-1.574 0.079,-0.563 0.118,-1.149 0.118,-1.762 0,-0.824 -0.075,-1.598 -0.227,-2.317 -0.152,-0.722 -0.453,-1.332 -0.898,-1.836 -0.446,-0.503 -1.078,-0.757 -1.899,-0.757 m 0,0.375 c 0.535,0 0.934,0.273 1.195,0.82 0.262,0.551 0.426,1.156 0.489,1.824 0.054,0.664 0.09,1.371 0.09,2.121 0,0.723 -0.036,1.387 -0.09,1.996 -0.063,0.614 -0.227,1.164 -0.485,1.657 -0.261,0.496 -0.66,0.742 -1.199,0.742 -0.543,0 -0.945,-0.246 -1.207,-0.746 -0.262,-0.496 -0.43,-1.047 -0.484,-1.657 -0.063,-0.605 -0.094,-1.269 -0.094,-1.992 0,-0.531 0.012,-1.035 0.039,-1.511 0.027,-0.473 0.094,-0.961 0.207,-1.465 0.11,-0.504 0.297,-0.93 0.547,-1.274 0.25,-0.343 0.582,-0.515 0.992,-0.515"
         style="fill:#000000;fill-opacity:1;fill-rule:nonzero;stroke:none"
         id="path3711"
         inkscape:connector-curvature="0" /><path
         d="m 440.18,347.414 c 0,0.215 0.078,0.402 0.238,0.555 0.156,0.156 0.344,0.23 0.555,0.23 0.129,0 0.257,-0.035 0.382,-0.105 0.125,-0.071 0.231,-0.168 0.301,-0.293 0.071,-0.125 0.106,-0.254 0.106,-0.387 0,-0.211 -0.078,-0.395 -0.235,-0.555 -0.156,-0.16 -0.339,-0.242 -0.554,-0.242 -0.211,0 -0.399,0.082 -0.555,0.242 -0.16,0.16 -0.238,0.344 -0.238,0.555"
         style="fill:#000000;fill-opacity:1;fill-rule:nonzero;stroke:none"
         id="path3713"
         inkscape:connector-curvature="0" /><path
         d="m 443.797,346.617 0,0.391 c 0,0.023 0.008,0.047 0.027,0.074 l 2.235,2.476 c 0.339,0.364 0.613,0.672 0.82,0.918 0.215,0.25 0.422,0.536 0.629,0.86 0.207,0.324 0.367,0.656 0.488,0.988 0.121,0.336 0.18,0.691 0.18,1.066 0,0.395 -0.071,0.77 -0.219,1.129 -0.145,0.36 -0.359,0.645 -0.648,0.86 -0.289,0.219 -0.637,0.324 -1.043,0.324 -0.418,0 -0.793,-0.125 -1.125,-0.375 -0.336,-0.254 -0.571,-0.574 -0.707,-0.973 0.039,0.008 0.089,0.012 0.156,0.012 0.215,0 0.398,-0.07 0.551,-0.219 0.152,-0.144 0.23,-0.332 0.23,-0.562 0,-0.219 -0.078,-0.406 -0.23,-0.559 -0.153,-0.152 -0.336,-0.226 -0.551,-0.226 -0.223,0 -0.414,0.078 -0.567,0.234 -0.152,0.156 -0.226,0.34 -0.226,0.551 0,0.363 0.066,0.699 0.203,1.015 0.137,0.317 0.332,0.598 0.586,0.844 0.258,0.246 0.547,0.438 0.867,0.567 0.32,0.132 0.66,0.199 1.02,0.199 0.55,0 1.062,-0.117 1.531,-0.348 0.476,-0.234 0.851,-0.562 1.125,-0.988 0.281,-0.422 0.418,-0.918 0.418,-1.485 0,-0.417 -0.09,-0.812 -0.274,-1.187 -0.183,-0.375 -0.418,-0.719 -0.707,-1.027 -0.281,-0.305 -0.648,-0.653 -1.093,-1.043 -0.446,-0.387 -0.743,-0.649 -0.879,-0.778 l -1.629,-1.57 1.383,0 c 0.679,0 1.246,0.008 1.707,0.016 0.457,0.015 0.699,0.031 0.726,0.054 0.11,0.121 0.227,0.567 0.344,1.332 l 0.422,0 -0.406,-2.57 -5.344,0 z"
         style="fill:#000000;fill-opacity:1;fill-rule:nonzero;stroke:none"
         id="path3715"
         inkscape:connector-curvature="0" /><path
         d="m 451.531,348.258 c 0.098,-0.282 0.25,-0.535 0.449,-0.77 0.208,-0.226 0.45,-0.406 0.727,-0.535 0.281,-0.129 0.57,-0.191 0.871,-0.191 0.692,0 1.168,0.269 1.434,0.808 0.261,0.535 0.39,1.192 0.39,1.961 0,0.332 -0.004,0.613 -0.015,0.84 -0.012,0.227 -0.043,0.445 -0.094,0.656 -0.09,0.336 -0.246,0.633 -0.469,0.887 -0.222,0.254 -0.496,0.379 -0.82,0.379 -0.32,0 -0.598,-0.051 -0.832,-0.149 -0.234,-0.097 -0.422,-0.211 -0.567,-0.343 -0.144,-0.129 -0.273,-0.27 -0.386,-0.414 -0.114,-0.145 -0.184,-0.223 -0.211,-0.231 l -0.16,0 c -0.024,0 -0.055,0.016 -0.09,0.043 -0.035,0.031 -0.055,0.059 -0.055,0.09 l 0,4.809 c 0,0.023 0.016,0.046 0.047,0.074 0.031,0.027 0.062,0.039 0.098,0.039 l 0.043,0 c 0.644,-0.313 1.332,-0.465 2.058,-0.465 0.711,0 1.399,0.152 2.059,0.465 l 0.043,0 c 0.035,0 0.062,-0.012 0.09,-0.035 0.031,-0.024 0.043,-0.051 0.043,-0.078 l 0,-0.133 c 0,-0.047 -0.008,-0.071 -0.028,-0.071 -0.328,-0.437 -0.738,-0.777 -1.234,-1.023 -0.496,-0.242 -1.008,-0.363 -1.535,-0.363 -0.387,0 -0.782,0.054 -1.184,0.16 l 0,-2.719 c 0.32,0.258 0.606,0.441 0.856,0.551 0.25,0.113 0.57,0.168 0.961,0.168 0.531,0 1.003,-0.153 1.418,-0.461 0.425,-0.305 0.746,-0.699 0.972,-1.192 0.223,-0.488 0.336,-0.988 0.336,-1.5 0,-0.574 -0.141,-1.109 -0.426,-1.601 -0.281,-0.492 -0.668,-0.887 -1.156,-1.176 -0.484,-0.289 -1.016,-0.437 -1.586,-0.437 -0.476,0 -0.91,0.121 -1.305,0.367 -0.398,0.242 -0.711,0.57 -0.937,0.984 -0.231,0.41 -0.34,0.852 -0.34,1.317 0,0.214 0.07,0.39 0.211,0.527 0.141,0.137 0.316,0.203 0.523,0.203 0.215,0 0.391,-0.07 0.536,-0.211 0.14,-0.137 0.214,-0.308 0.214,-0.519 0,-0.207 -0.074,-0.383 -0.214,-0.524 -0.145,-0.144 -0.321,-0.215 -0.536,-0.215 -0.031,0 -0.066,0.004 -0.109,0.008 -0.043,0.008 -0.074,0.016 -0.09,0.02"
         style="fill:#000000;fill-opacity:1;fill-rule:nonzero;stroke:none"
         id="path3717"
         inkscape:connector-curvature="0" /><path
         d="m 458.906,344.023 c 0,0.043 0.016,0.082 0.055,0.121 0.348,0.332 0.617,0.719 0.809,1.153 0.195,0.437 0.289,0.894 0.289,1.379 l 0,0.175 c -0.153,-0.156 -0.348,-0.234 -0.579,-0.234 -0.218,0 -0.406,0.078 -0.558,0.234 -0.156,0.153 -0.234,0.34 -0.234,0.563 0,0.223 0.078,0.41 0.234,0.562 0.152,0.149 0.34,0.223 0.558,0.223 0.344,0 0.59,-0.156 0.735,-0.473 0.14,-0.316 0.219,-0.668 0.219,-1.05 0,-0.536 -0.11,-1.043 -0.329,-1.524 -0.207,-0.48 -0.507,-0.914 -0.898,-1.297 -0.035,-0.019 -0.066,-0.027 -0.09,-0.027 -0.047,0 -0.094,0.02 -0.144,0.062 -0.043,0.043 -0.067,0.086 -0.067,0.133"
         style="fill:#000000;fill-opacity:1;fill-rule:nonzero;stroke:none"
         id="path3719"
         inkscape:connector-curvature="0" /><path
         d="m 465.352,346.301 c -1.176,0 -1.977,0.484 -2.403,1.453 -0.426,0.969 -0.637,2.121 -0.637,3.457 0,0.836 0.079,1.617 0.227,2.355 0.149,0.735 0.457,1.36 0.906,1.871 0.453,0.516 1.09,0.774 1.907,0.774 0.628,0 1.148,-0.156 1.55,-0.465 0.403,-0.309 0.711,-0.711 0.922,-1.199 0.211,-0.489 0.356,-1.016 0.434,-1.574 0.078,-0.563 0.117,-1.149 0.117,-1.762 0,-0.824 -0.078,-1.598 -0.23,-2.317 -0.153,-0.722 -0.45,-1.332 -0.895,-1.836 -0.445,-0.503 -1.078,-0.757 -1.898,-0.757 m 0,0.375 c 0.531,0 0.929,0.273 1.195,0.82 0.262,0.551 0.422,1.156 0.484,1.824 0.063,0.664 0.094,1.371 0.094,2.121 0,0.723 -0.031,1.387 -0.094,1.996 -0.062,0.614 -0.222,1.164 -0.484,1.657 -0.258,0.496 -0.656,0.742 -1.195,0.742 -0.543,0 -0.946,-0.246 -1.211,-0.746 -0.262,-0.496 -0.422,-1.047 -0.485,-1.657 -0.062,-0.605 -0.094,-1.269 -0.094,-1.992 0,-0.531 0.016,-1.035 0.04,-1.511 0.027,-0.473 0.097,-0.961 0.21,-1.465 0.114,-0.504 0.293,-0.93 0.543,-1.274 0.25,-0.343 0.583,-0.515 0.997,-0.515"
         style="fill:#000000;fill-opacity:1;fill-rule:nonzero;stroke:none"
         id="path3721"
         inkscape:connector-curvature="0" /><path
         d="m 470.16,347.414 c 0,0.215 0.082,0.402 0.238,0.555 0.161,0.156 0.344,0.23 0.559,0.23 0.129,0 0.258,-0.035 0.383,-0.105 0.129,-0.071 0.226,-0.168 0.297,-0.293 0.07,-0.125 0.105,-0.254 0.105,-0.387 0,-0.211 -0.078,-0.395 -0.234,-0.555 -0.153,-0.16 -0.34,-0.242 -0.551,-0.242 -0.215,0 -0.398,0.082 -0.559,0.242 -0.156,0.16 -0.238,0.344 -0.238,0.555"
         style="fill:#000000;fill-opacity:1;fill-rule:nonzero;stroke:none"
         id="path3723"
         inkscape:connector-curvature="0" /><path
         d="m 473.461,348.996 0,0.504 4.449,6.64 c 0.035,0.047 0.086,0.071 0.149,0.071 l 0.214,0 c 0.106,0 0.161,-0.055 0.161,-0.164 l 0,-6.547 1.414,0 0,-0.504 -1.414,0 0,-1.414 c 0,-0.195 0.14,-0.32 0.421,-0.375 0.282,-0.055 0.606,-0.082 0.977,-0.082 l 0,-0.508 -3.965,0 0,0.508 c 0.371,0 0.695,0.027 0.977,0.082 0.281,0.055 0.422,0.18 0.422,0.375 l 0,1.414 -3.805,0 z m 0.477,0.504 3.41,0 0,5.101 -3.41,-5.101 z"
         style="fill:#000000;fill-opacity:1;fill-rule:nonzero;stroke:none"
         id="path3725"
         inkscape:connector-curvature="0" /><path
         d="m 480.578,343.019 0,0.575 1.399,0 0,13.25 -1.399,0 0,0.574 1.977,0 0,-14.399 -1.977,0 z"
         style="fill:#000000;fill-opacity:1;fill-rule:nonzero;stroke:none"
         id="path3727"
         inkscape:connector-curvature="0" /><path
         d="m 362.832,329.031 20.16,0"
         style="fill:none;stroke:#0000ff;stroke-width:2;stroke-linecap:butt;stroke-linejoin:round;stroke-miterlimit:4;stroke-opacity:1;stroke-dasharray:none"
         id="path3735"
         inkscape:connector-curvature="0" /><path
         d="m 399.738,323.992 c -0.117,0 -0.176,0.063 -0.176,0.188 l 1.231,4.894 c 0.039,0.164 0.062,0.293 0.07,0.387 0,0.156 -0.308,0.234 -0.933,0.234 -0.098,0 -0.149,0.063 -0.149,0.188 0.004,0.023 0.016,0.066 0.031,0.129 0.02,0.058 0.04,0.105 0.063,0.136 0.027,0.035 0.063,0.051 0.113,0.051 l 1.938,0.156 c 0.117,0 0.176,-0.062 0.176,-0.183 l -1.414,-5.645 c 0.761,0.254 1.46,0.649 2.097,1.188 0.641,0.539 1.184,1.172 1.625,1.902 0.445,0.734 0.766,1.492 0.961,2.281 0.039,0.137 0.109,0.246 0.227,0.332 0.109,0.082 0.238,0.125 0.379,0.125 0.125,0 0.23,-0.039 0.308,-0.113 0.082,-0.074 0.121,-0.176 0.121,-0.301 0,-0.156 -0.062,-0.39 -0.191,-0.707 -0.125,-0.316 -0.25,-0.597 -0.371,-0.847 -0.379,-0.754 -0.883,-1.446 -1.512,-2.075 -0.394,-0.394 -0.82,-0.742 -1.27,-1.047 -0.457,-0.304 -0.925,-0.562 -1.417,-0.777 -0.493,-0.215 -1.012,-0.379 -1.563,-0.496 l -0.344,0 z"
         style="fill:#000000;fill-opacity:1;fill-rule:nonzero;stroke:none"
         id="path3737"
         inkscape:connector-curvature="0" /><path
         d="m 408.469,320.098 c -0.824,0 -1.383,0.335 -1.68,1.015 -0.297,0.676 -0.445,1.485 -0.445,2.422 0,0.582 0.051,1.133 0.156,1.645 0.105,0.515 0.32,0.953 0.637,1.312 0.316,0.359 0.761,0.539 1.332,0.539 0.441,0 0.804,-0.105 1.086,-0.324 0.281,-0.215 0.5,-0.496 0.644,-0.84 0.149,-0.344 0.25,-0.711 0.305,-1.102 0.055,-0.39 0.082,-0.804 0.082,-1.23 0,-0.578 -0.055,-1.121 -0.16,-1.625 -0.106,-0.504 -0.321,-0.93 -0.629,-1.285 -0.317,-0.352 -0.754,-0.527 -1.328,-0.527 m 0,0.261 c 0.375,0 0.652,0.192 0.836,0.574 0.183,0.383 0.297,0.809 0.34,1.274 0.043,0.469 0.066,0.965 0.066,1.488 0,0.504 -0.023,0.973 -0.066,1.399 -0.043,0.425 -0.157,0.812 -0.34,1.156 -0.18,0.348 -0.461,0.519 -0.836,0.519 -0.379,0 -0.664,-0.171 -0.848,-0.519 -0.183,-0.348 -0.297,-0.735 -0.34,-1.16 -0.043,-0.426 -0.062,-0.891 -0.062,-1.395 0,-0.375 0.008,-0.726 0.027,-1.058 0.016,-0.332 0.066,-0.672 0.145,-1.028 0.078,-0.351 0.207,-0.648 0.382,-0.89 0.176,-0.243 0.407,-0.36 0.696,-0.36"
         style="fill:#000000;fill-opacity:1;fill-rule:nonzero;stroke:none"
         id="path3739"
         inkscape:connector-curvature="0" /><path
         d="m 416.758,325.906 c -0.078,0 -0.145,0.027 -0.196,0.09 -0.05,0.059 -0.082,0.125 -0.082,0.195 0,0.082 0.032,0.149 0.082,0.203 0.051,0.059 0.118,0.086 0.196,0.086 l 9.043,0 c 0.07,0 0.133,-0.027 0.179,-0.086 0.055,-0.054 0.082,-0.121 0.082,-0.203 0,-0.07 -0.027,-0.136 -0.082,-0.195 -0.046,-0.063 -0.109,-0.09 -0.179,-0.09 l -9.043,0 z m 0,2.797 c -0.078,0 -0.145,0.027 -0.196,0.082 -0.05,0.059 -0.082,0.125 -0.082,0.207 0,0.07 0.032,0.137 0.082,0.195 0.051,0.063 0.118,0.094 0.196,0.094 l 9.043,0 c 0.07,0 0.133,-0.031 0.179,-0.094 0.055,-0.058 0.082,-0.125 0.082,-0.195 0,-0.082 -0.027,-0.148 -0.082,-0.207 -0.046,-0.055 -0.109,-0.082 -0.179,-0.082 l -9.043,0 z"
         style="fill:#000000;fill-opacity:1;fill-rule:nonzero;stroke:none"
         id="path3741"
         inkscape:connector-curvature="0" /><path
         d="m 429.48,320.39 0,14.403 1.969,0 0,-0.578 -1.387,0 0,-13.246 1.387,0 0,-0.579 -1.969,0 z"
         style="fill:#000000;fill-opacity:1;fill-rule:nonzero;stroke:none"
         id="path3743"
         inkscape:connector-curvature="0" /><path
         d="m 435.367,323.676 c -1.179,0 -1.976,0.484 -2.398,1.449 -0.426,0.969 -0.637,2.121 -0.637,3.461 0,0.832 0.074,1.617 0.227,2.351 0.152,0.739 0.453,1.364 0.906,1.875 0.453,0.516 1.086,0.77 1.902,0.77 0.633,0 1.153,-0.152 1.555,-0.465 0.402,-0.309 0.711,-0.707 0.922,-1.199 0.211,-0.488 0.355,-1.012 0.429,-1.574 0.079,-0.559 0.118,-1.145 0.118,-1.758 0,-0.828 -0.075,-1.598 -0.227,-2.321 -0.152,-0.718 -0.453,-1.332 -0.898,-1.835 -0.446,-0.504 -1.078,-0.754 -1.899,-0.754 m 0,0.371 c 0.535,0 0.934,0.273 1.195,0.824 0.262,0.547 0.426,1.156 0.489,1.82 0.054,0.668 0.09,1.375 0.09,2.125 0,0.723 -0.036,1.387 -0.09,1.996 -0.063,0.61 -0.227,1.161 -0.485,1.657 -0.261,0.492 -0.66,0.742 -1.199,0.742 -0.543,0 -0.945,-0.25 -1.207,-0.746 -0.262,-0.5 -0.43,-1.051 -0.484,-1.657 -0.063,-0.605 -0.094,-1.269 -0.094,-1.992 0,-0.535 0.012,-1.039 0.039,-1.511 0.027,-0.477 0.094,-0.965 0.207,-1.469 0.11,-0.504 0.297,-0.926 0.547,-1.274 0.25,-0.343 0.582,-0.515 0.992,-0.515"
         style="fill:#000000;fill-opacity:1;fill-rule:nonzero;stroke:none"
         id="path3745"
         inkscape:connector-curvature="0" /><path
         d="m 440.18,324.785 c 0,0.219 0.078,0.402 0.238,0.559 0.156,0.152 0.344,0.23 0.555,0.23 0.129,0 0.257,-0.035 0.382,-0.105 0.125,-0.071 0.231,-0.168 0.301,-0.297 0.071,-0.125 0.106,-0.254 0.106,-0.387 0,-0.207 -0.078,-0.395 -0.235,-0.555 -0.156,-0.16 -0.339,-0.238 -0.554,-0.238 -0.211,0 -0.399,0.078 -0.555,0.238 -0.16,0.16 -0.238,0.348 -0.238,0.555"
         style="fill:#000000;fill-opacity:1;fill-rule:nonzero;stroke:none"
         id="path3747"
         inkscape:connector-curvature="0" /><path
         d="m 444.414,323.992 0,0.508 c 1.199,0 1.801,0.152 1.801,0.453 l 0,7.562 c -0.496,-0.242 -1.125,-0.359 -1.887,-0.359 l 0,0.504 c 1.18,0 2.067,0.309 2.668,0.922 l 0.203,0 c 0.031,0 0.063,-0.012 0.094,-0.039 0.031,-0.024 0.047,-0.055 0.047,-0.086 l 0,-8.504 c 0,-0.301 0.598,-0.453 1.801,-0.453 l 0,-0.508 -4.727,0 z"
         style="fill:#000000;fill-opacity:1;fill-rule:nonzero;stroke:none"
         id="path3749"
         inkscape:connector-curvature="0" /><path
         d="m 451.531,325.629 c 0.098,-0.281 0.25,-0.535 0.449,-0.766 0.208,-0.23 0.45,-0.41 0.727,-0.539 0.281,-0.125 0.57,-0.191 0.871,-0.191 0.692,0 1.168,0.269 1.434,0.808 0.261,0.539 0.39,1.192 0.39,1.961 0,0.336 -0.004,0.613 -0.015,0.84 -0.012,0.231 -0.043,0.449 -0.094,0.656 -0.09,0.34 -0.246,0.633 -0.469,0.887 -0.222,0.254 -0.496,0.383 -0.82,0.383 -0.32,0 -0.598,-0.051 -0.832,-0.149 -0.234,-0.097 -0.422,-0.214 -0.567,-0.347 -0.144,-0.129 -0.273,-0.266 -0.386,-0.414 -0.114,-0.145 -0.184,-0.223 -0.211,-0.231 l -0.16,0 c -0.024,0 -0.055,0.016 -0.09,0.047 -0.035,0.027 -0.055,0.059 -0.055,0.086 l 0,4.813 c 0,0.019 0.016,0.046 0.047,0.07 0.031,0.027 0.062,0.039 0.098,0.039 l 0.043,0 c 0.644,-0.309 1.332,-0.465 2.058,-0.465 0.711,0 1.399,0.156 2.059,0.465 l 0.043,0 c 0.035,0 0.062,-0.012 0.09,-0.035 0.031,-0.024 0.043,-0.047 0.043,-0.074 l 0,-0.137 c 0,-0.047 -0.008,-0.071 -0.028,-0.071 -0.328,-0.437 -0.738,-0.777 -1.234,-1.019 -0.496,-0.242 -1.008,-0.367 -1.535,-0.367 -0.387,0 -0.782,0.054 -1.184,0.164 l 0,-2.723 c 0.32,0.262 0.606,0.445 0.856,0.555 0.25,0.109 0.57,0.164 0.961,0.164 0.531,0 1.003,-0.152 1.418,-0.457 0.425,-0.305 0.746,-0.703 0.972,-1.195 0.223,-0.489 0.336,-0.989 0.336,-1.497 0,-0.578 -0.141,-1.113 -0.426,-1.605 -0.281,-0.492 -0.668,-0.883 -1.156,-1.176 -0.484,-0.289 -1.016,-0.433 -1.586,-0.433 -0.476,0 -0.91,0.121 -1.305,0.363 -0.398,0.246 -0.711,0.574 -0.937,0.984 -0.231,0.414 -0.34,0.852 -0.34,1.317 0,0.218 0.07,0.394 0.211,0.527 0.141,0.137 0.316,0.203 0.523,0.203 0.215,0 0.391,-0.066 0.536,-0.207 0.14,-0.137 0.214,-0.312 0.214,-0.523 0,-0.207 -0.074,-0.379 -0.214,-0.524 -0.145,-0.14 -0.321,-0.215 -0.536,-0.215 -0.031,0 -0.066,0.004 -0.109,0.012 -0.043,0.008 -0.074,0.012 -0.09,0.016"
         style="fill:#000000;fill-opacity:1;fill-rule:nonzero;stroke:none"
         id="path3751"
         inkscape:connector-curvature="0" /><path
         d="m 458.906,321.398 c 0,0.043 0.016,0.082 0.055,0.117 0.348,0.336 0.617,0.719 0.809,1.157 0.195,0.433 0.289,0.894 0.289,1.375 l 0,0.176 c -0.153,-0.153 -0.348,-0.231 -0.579,-0.231 -0.218,0 -0.406,0.078 -0.558,0.231 -0.156,0.156 -0.234,0.343 -0.234,0.562 0,0.227 0.078,0.414 0.234,0.563 0.152,0.152 0.34,0.226 0.558,0.226 0.344,0 0.59,-0.16 0.735,-0.476 0.14,-0.317 0.219,-0.665 0.219,-1.051 0,-0.532 -0.11,-1.039 -0.329,-1.52 -0.207,-0.48 -0.507,-0.914 -0.898,-1.297 -0.035,-0.019 -0.066,-0.031 -0.09,-0.031 -0.047,0 -0.094,0.024 -0.144,0.066 -0.043,0.043 -0.067,0.086 -0.067,0.133"
         style="fill:#000000;fill-opacity:1;fill-rule:nonzero;stroke:none"
         id="path3753"
         inkscape:connector-curvature="0" /><path
         d="m 465.352,323.676 c -1.176,0 -1.977,0.484 -2.403,1.449 -0.426,0.969 -0.637,2.121 -0.637,3.461 0,0.832 0.079,1.617 0.227,2.351 0.149,0.739 0.457,1.364 0.906,1.875 0.453,0.516 1.09,0.77 1.907,0.77 0.628,0 1.148,-0.152 1.55,-0.465 0.403,-0.309 0.711,-0.707 0.922,-1.199 0.211,-0.488 0.356,-1.012 0.434,-1.574 0.078,-0.559 0.117,-1.145 0.117,-1.758 0,-0.828 -0.078,-1.598 -0.23,-2.321 -0.153,-0.718 -0.45,-1.332 -0.895,-1.835 -0.445,-0.504 -1.078,-0.754 -1.898,-0.754 m 0,0.371 c 0.531,0 0.929,0.273 1.195,0.824 0.262,0.547 0.422,1.156 0.484,1.82 0.063,0.668 0.094,1.375 0.094,2.125 0,0.723 -0.031,1.387 -0.094,1.996 -0.062,0.61 -0.222,1.161 -0.484,1.657 -0.258,0.492 -0.656,0.742 -1.195,0.742 -0.543,0 -0.946,-0.25 -1.211,-0.746 -0.262,-0.5 -0.422,-1.051 -0.485,-1.657 -0.062,-0.605 -0.094,-1.269 -0.094,-1.992 0,-0.535 0.016,-1.039 0.04,-1.511 0.027,-0.477 0.097,-0.965 0.21,-1.469 0.114,-0.504 0.293,-0.926 0.543,-1.274 0.25,-0.343 0.583,-0.515 0.997,-0.515"
         style="fill:#000000;fill-opacity:1;fill-rule:nonzero;stroke:none"
         id="path3755"
         inkscape:connector-curvature="0" /><path
         d="m 470.16,324.785 c 0,0.219 0.082,0.402 0.238,0.559 0.161,0.152 0.344,0.23 0.559,0.23 0.129,0 0.258,-0.035 0.383,-0.105 0.129,-0.071 0.226,-0.168 0.297,-0.297 0.07,-0.125 0.105,-0.254 0.105,-0.387 0,-0.207 -0.078,-0.395 -0.234,-0.555 -0.153,-0.16 -0.34,-0.238 -0.551,-0.238 -0.215,0 -0.398,0.078 -0.559,0.238 -0.156,0.16 -0.238,0.348 -0.238,0.555"
         style="fill:#000000;fill-opacity:1;fill-rule:nonzero;stroke:none"
         id="path3757"
         inkscape:connector-curvature="0" /><path
         d="m 473.777,323.992 0,0.387 c 0,0.023 0.012,0.051 0.028,0.078 l 2.238,2.473 c 0.336,0.367 0.609,0.671 0.82,0.921 0.211,0.25 0.418,0.536 0.625,0.86 0.207,0.324 0.367,0.652 0.492,0.988 0.118,0.332 0.18,0.688 0.18,1.063 0,0.394 -0.074,0.773 -0.222,1.128 -0.141,0.36 -0.36,0.649 -0.649,0.864 -0.285,0.215 -0.633,0.324 -1.043,0.324 -0.418,0 -0.793,-0.125 -1.125,-0.379 -0.332,-0.25 -0.566,-0.574 -0.703,-0.973 0.035,0.012 0.09,0.016 0.156,0.016 0.215,0 0.399,-0.074 0.551,-0.219 0.152,-0.144 0.227,-0.332 0.227,-0.562 0,-0.223 -0.075,-0.406 -0.227,-0.563 -0.152,-0.148 -0.336,-0.226 -0.551,-0.226 -0.226,0 -0.414,0.078 -0.57,0.234 -0.149,0.156 -0.227,0.344 -0.227,0.555 0,0.359 0.071,0.699 0.203,1.015 0.137,0.317 0.332,0.598 0.586,0.844 0.258,0.246 0.547,0.434 0.868,0.567 0.32,0.132 0.664,0.195 1.023,0.195 0.547,0 1.059,-0.113 1.531,-0.348 0.473,-0.23 0.848,-0.558 1.125,-0.984 0.278,-0.422 0.418,-0.918 0.418,-1.488 0,-0.418 -0.093,-0.813 -0.277,-1.188 -0.184,-0.375 -0.418,-0.715 -0.703,-1.023 -0.285,-0.305 -0.649,-0.653 -1.098,-1.043 -0.445,-0.391 -0.734,-0.649 -0.875,-0.782 l -1.633,-1.566 1.383,0 c 0.68,0 1.25,0.004 1.707,0.016 0.457,0.011 0.695,0.031 0.727,0.054 0.113,0.121 0.226,0.563 0.343,1.328 l 0.426,0 -0.41,-2.566 -5.344,0 z"
         style="fill:#000000;fill-opacity:1;fill-rule:nonzero;stroke:none"
         id="path3759"
         inkscape:connector-curvature="0" /><path
         d="m 481.512,325.629 c 0.093,-0.281 0.25,-0.535 0.453,-0.766 0.207,-0.23 0.445,-0.41 0.723,-0.539 0.281,-0.125 0.57,-0.191 0.871,-0.191 0.695,0 1.171,0.269 1.433,0.808 0.262,0.539 0.395,1.192 0.395,1.961 0,0.336 -0.008,0.613 -0.02,0.84 -0.012,0.231 -0.039,0.449 -0.094,0.656 -0.089,0.34 -0.246,0.633 -0.468,0.887 -0.223,0.254 -0.493,0.383 -0.817,0.383 -0.324,0 -0.601,-0.051 -0.836,-0.149 -0.23,-0.097 -0.422,-0.214 -0.566,-0.347 -0.148,-0.129 -0.27,-0.266 -0.383,-0.414 -0.113,-0.145 -0.183,-0.223 -0.211,-0.231 l -0.164,0 c -0.023,0 -0.055,0.016 -0.09,0.047 -0.035,0.027 -0.05,0.059 -0.05,0.086 l 0,4.813 c 0,0.019 0.015,0.046 0.042,0.07 0.036,0.027 0.067,0.039 0.098,0.039 l 0.043,0 c 0.649,-0.309 1.332,-0.465 2.059,-0.465 0.715,0 1.398,0.156 2.062,0.465 l 0.043,0 c 0.031,0 0.063,-0.012 0.09,-0.035 0.027,-0.024 0.043,-0.047 0.043,-0.074 l 0,-0.137 c 0,-0.047 -0.012,-0.071 -0.027,-0.071 -0.329,-0.437 -0.743,-0.777 -1.235,-1.019 -0.496,-0.242 -1.008,-0.367 -1.539,-0.367 -0.387,0 -0.777,0.054 -1.179,0.164 l 0,-2.723 c 0.32,0.262 0.605,0.445 0.855,0.555 0.25,0.109 0.57,0.164 0.961,0.164 0.527,0 1.004,-0.152 1.422,-0.457 0.418,-0.305 0.742,-0.703 0.965,-1.195 0.226,-0.489 0.339,-0.989 0.339,-1.497 0,-0.578 -0.144,-1.113 -0.425,-1.605 -0.285,-0.492 -0.668,-0.883 -1.157,-1.176 -0.488,-0.289 -1.019,-0.433 -1.589,-0.433 -0.473,0 -0.911,0.121 -1.305,0.363 -0.399,0.246 -0.707,0.574 -0.938,0.984 -0.226,0.414 -0.339,0.852 -0.339,1.317 0,0.218 0.07,0.394 0.211,0.527 0.14,0.137 0.316,0.203 0.527,0.203 0.215,0 0.39,-0.066 0.531,-0.207 0.145,-0.137 0.215,-0.312 0.215,-0.523 0,-0.207 -0.07,-0.379 -0.215,-0.524 -0.141,-0.14 -0.316,-0.215 -0.531,-0.215 -0.031,0 -0.07,0.004 -0.11,0.012 -0.043,0.008 -0.074,0.012 -0.093,0.016"
         style="fill:#000000;fill-opacity:1;fill-rule:nonzero;stroke:none"
         id="path3761"
         inkscape:connector-curvature="0" /><path
         d="m 487.777,320.39 0,0.579 1.399,0 0,13.246 -1.399,0 0,0.578 1.977,0 0,-14.403 -1.977,0 z"
         style="fill:#000000;fill-opacity:1;fill-rule:nonzero;stroke:none"
         id="path3763"
         inkscape:connector-curvature="0" /><path
         d="m 399.738,369.246 c -0.117,0 -0.176,0.062 -0.176,0.187 l 1.231,4.895 c 0.039,0.164 0.062,0.293 0.07,0.387 0,0.156 -0.308,0.234 -0.933,0.234 -0.098,0 -0.149,0.063 -0.149,0.191 0.004,0.02 0.016,0.063 0.031,0.125 0.02,0.063 0.04,0.106 0.063,0.141 0.027,0.031 0.063,0.047 0.113,0.047 l 1.938,0.156 c 0.117,0 0.176,-0.062 0.176,-0.183 l -1.414,-5.645 c 0.761,0.254 1.46,0.649 2.097,1.188 0.641,0.539 1.184,1.171 1.625,1.906 0.445,0.73 0.766,1.488 0.961,2.277 0.039,0.137 0.109,0.246 0.227,0.332 0.109,0.082 0.238,0.125 0.379,0.125 0.125,0 0.23,-0.039 0.308,-0.113 0.082,-0.074 0.121,-0.176 0.121,-0.301 0,-0.156 -0.062,-0.39 -0.191,-0.707 -0.125,-0.316 -0.25,-0.598 -0.371,-0.848 -0.379,-0.753 -0.883,-1.445 -1.512,-2.074 -0.394,-0.394 -0.82,-0.742 -1.27,-1.047 -0.457,-0.304 -0.925,-0.562 -1.417,-0.777 -0.493,-0.215 -1.012,-0.379 -1.563,-0.496 l -0.344,0 z"
         style="fill:#000000;fill-opacity:1;fill-rule:nonzero;stroke:none"
         id="path3765"
         inkscape:connector-curvature="0" /><path
         d="m 408.469,365.351 c -0.824,0 -1.383,0.336 -1.68,1.016 -0.297,0.676 -0.445,1.484 -0.445,2.422 0,0.582 0.051,1.133 0.156,1.644 0.105,0.516 0.32,0.954 0.637,1.313 0.316,0.359 0.761,0.539 1.332,0.539 0.441,0 0.804,-0.105 1.086,-0.324 0.281,-0.215 0.5,-0.496 0.644,-0.84 0.149,-0.344 0.25,-0.711 0.305,-1.102 0.055,-0.39 0.082,-0.804 0.082,-1.23 0,-0.578 -0.055,-1.121 -0.16,-1.625 -0.106,-0.504 -0.321,-0.93 -0.629,-1.285 -0.317,-0.352 -0.754,-0.528 -1.328,-0.528 m 0,0.262 c 0.375,0 0.652,0.192 0.836,0.574 0.183,0.383 0.297,0.809 0.34,1.274 0.043,0.469 0.066,0.965 0.066,1.488 0,0.504 -0.023,0.973 -0.066,1.399 -0.043,0.425 -0.157,0.812 -0.34,1.156 -0.18,0.347 -0.461,0.523 -0.836,0.523 -0.379,0 -0.664,-0.176 -0.848,-0.523 -0.183,-0.348 -0.297,-0.735 -0.34,-1.16 -0.043,-0.426 -0.062,-0.891 -0.062,-1.395 0,-0.375 0.008,-0.726 0.027,-1.059 0.016,-0.332 0.066,-0.671 0.145,-1.027 0.078,-0.351 0.207,-0.648 0.382,-0.89 0.176,-0.243 0.407,-0.36 0.696,-0.36"
         style="fill:#000000;fill-opacity:1;fill-rule:nonzero;stroke:none"
         id="path3767"
         inkscape:connector-curvature="0" /><path
         d="m 416.758,371.16 c -0.078,0 -0.145,0.027 -0.196,0.09 -0.05,0.058 -0.082,0.125 -0.082,0.195 0,0.082 0.032,0.149 0.082,0.203 0.051,0.059 0.118,0.086 0.196,0.086 l 9.043,0 c 0.07,0 0.133,-0.027 0.179,-0.086 0.055,-0.054 0.082,-0.121 0.082,-0.203 0,-0.07 -0.027,-0.137 -0.082,-0.195 -0.046,-0.063 -0.109,-0.09 -0.179,-0.09 l -9.043,0 z m 0,2.797 c -0.078,0 -0.145,0.027 -0.196,0.082 -0.05,0.059 -0.082,0.129 -0.082,0.207 0,0.07 0.032,0.137 0.082,0.195 0.051,0.063 0.118,0.094 0.196,0.094 l 9.043,0 c 0.07,0 0.133,-0.031 0.179,-0.094 0.055,-0.058 0.082,-0.125 0.082,-0.195 0,-0.078 -0.027,-0.148 -0.082,-0.207 -0.046,-0.055 -0.109,-0.082 -0.179,-0.082 l -9.043,0 z"
         style="fill:#000000;fill-opacity:1;fill-rule:nonzero;stroke:none"
         id="path3769"
         inkscape:connector-curvature="0" /><path
         d="m 429.48,365.644 0,14.403 1.969,0 0,-0.578 -1.387,0 0,-13.246 1.387,0 0,-0.579 -1.969,0 z"
         style="fill:#000000;fill-opacity:1;fill-rule:nonzero;stroke:none"
         id="path3771"
         inkscape:connector-curvature="0" /><path
         d="m 435.367,368.93 c -1.179,0 -1.976,0.484 -2.398,1.449 -0.426,0.969 -0.637,2.121 -0.637,3.461 0,0.832 0.074,1.617 0.227,2.351 0.152,0.739 0.453,1.364 0.906,1.875 0.453,0.516 1.086,0.77 1.902,0.77 0.633,0 1.153,-0.153 1.555,-0.465 0.402,-0.309 0.711,-0.707 0.922,-1.199 0.211,-0.489 0.355,-1.012 0.429,-1.574 0.079,-0.559 0.118,-1.145 0.118,-1.758 0,-0.828 -0.075,-1.598 -0.227,-2.321 -0.152,-0.718 -0.453,-1.332 -0.898,-1.836 -0.446,-0.503 -1.078,-0.753 -1.899,-0.753 m 0,0.371 c 0.535,0 0.934,0.273 1.195,0.824 0.262,0.547 0.426,1.156 0.489,1.82 0.054,0.668 0.09,1.375 0.09,2.125 0,0.723 -0.036,1.387 -0.09,1.996 -0.063,0.61 -0.227,1.16 -0.485,1.657 -0.261,0.496 -0.66,0.742 -1.199,0.742 -0.543,0 -0.945,-0.25 -1.207,-0.746 -0.262,-0.496 -0.43,-1.051 -0.484,-1.657 -0.063,-0.605 -0.094,-1.269 -0.094,-1.992 0,-0.535 0.012,-1.039 0.039,-1.512 0.027,-0.472 0.094,-0.964 0.207,-1.468 0.11,-0.504 0.297,-0.926 0.547,-1.274 0.25,-0.343 0.582,-0.515 0.992,-0.515"
         style="fill:#000000;fill-opacity:1;fill-rule:nonzero;stroke:none"
         id="path3773"
         inkscape:connector-curvature="0" /><path
         d="m 440.18,370.039 c 0,0.219 0.078,0.402 0.238,0.559 0.156,0.152 0.344,0.23 0.555,0.23 0.129,0 0.257,-0.035 0.382,-0.105 0.125,-0.071 0.231,-0.168 0.301,-0.297 0.071,-0.125 0.106,-0.254 0.106,-0.387 0,-0.207 -0.078,-0.395 -0.235,-0.555 -0.156,-0.16 -0.339,-0.238 -0.554,-0.238 -0.211,0 -0.399,0.078 -0.555,0.238 -0.16,0.16 -0.238,0.348 -0.238,0.555"
         style="fill:#000000;fill-opacity:1;fill-rule:nonzero;stroke:none"
         id="path3775"
         inkscape:connector-curvature="0" /><path
         d="m 443.48,371.621 0,0.508 4.45,6.636 c 0.031,0.047 0.082,0.071 0.148,0.071 l 0.211,0 c 0.109,0 0.164,-0.051 0.164,-0.16 l 0,-6.547 1.41,0 0,-0.508 -1.41,0 0,-1.41 c 0,-0.199 0.137,-0.324 0.418,-0.379 0.281,-0.051 0.609,-0.078 0.977,-0.078 l 0,-0.508 -3.965,0 0,0.508 c 0.371,0 0.695,0.027 0.972,0.078 0.286,0.055 0.43,0.18 0.43,0.379 l 0,1.41 -3.805,0 z m 0.477,0.508 3.41,0 0,5.097 -3.41,-5.097 z"
         style="fill:#000000;fill-opacity:1;fill-rule:nonzero;stroke:none"
         id="path3777"
         inkscape:connector-curvature="0" /><path
         d="m 451.703,366.652 c 0,0.043 0.02,0.082 0.059,0.117 0.343,0.336 0.617,0.719 0.808,1.157 0.192,0.433 0.285,0.894 0.285,1.375 l 0,0.175 c -0.152,-0.152 -0.343,-0.23 -0.574,-0.23 -0.219,0 -0.406,0.078 -0.562,0.23 -0.153,0.157 -0.231,0.344 -0.231,0.563 0,0.226 0.078,0.414 0.231,0.562 0.156,0.153 0.343,0.227 0.562,0.227 0.344,0 0.586,-0.16 0.735,-0.477 0.144,-0.316 0.214,-0.664 0.214,-1.05 0,-0.532 -0.105,-1.039 -0.32,-1.52 -0.211,-0.48 -0.512,-0.914 -0.902,-1.297 -0.035,-0.019 -0.07,-0.031 -0.09,-0.031 -0.047,0 -0.094,0.023 -0.145,0.066 -0.046,0.043 -0.07,0.086 -0.07,0.133"
         style="fill:#000000;fill-opacity:1;fill-rule:nonzero;stroke:none"
         id="path3779"
         inkscape:connector-curvature="0" /><path
         d="m 458.152,368.93 c -1.179,0 -1.976,0.484 -2.402,1.449 -0.426,0.969 -0.637,2.121 -0.637,3.461 0,0.832 0.075,1.617 0.227,2.351 0.152,0.739 0.457,1.364 0.906,1.875 0.453,0.516 1.09,0.77 1.906,0.77 0.633,0 1.149,-0.153 1.551,-0.465 0.402,-0.309 0.711,-0.707 0.922,-1.199 0.211,-0.489 0.355,-1.012 0.434,-1.574 0.078,-0.559 0.117,-1.145 0.117,-1.758 0,-0.828 -0.078,-1.598 -0.231,-2.321 -0.152,-0.718 -0.449,-1.332 -0.894,-1.836 -0.446,-0.503 -1.078,-0.753 -1.899,-0.753 m 0,0.371 c 0.532,0 0.93,0.273 1.192,0.824 0.261,0.547 0.426,1.156 0.488,1.82 0.063,0.668 0.09,1.375 0.09,2.125 0,0.723 -0.027,1.387 -0.09,1.996 -0.062,0.61 -0.227,1.16 -0.484,1.657 -0.258,0.496 -0.66,0.742 -1.196,0.742 -0.547,0 -0.949,-0.25 -1.214,-0.746 -0.258,-0.496 -0.418,-1.051 -0.481,-1.657 -0.062,-0.605 -0.094,-1.269 -0.094,-1.992 0,-0.535 0.012,-1.039 0.039,-1.512 0.028,-0.472 0.098,-0.964 0.211,-1.468 0.11,-0.504 0.293,-0.926 0.543,-1.274 0.25,-0.343 0.582,-0.515 0.996,-0.515"
         style="fill:#000000;fill-opacity:1;fill-rule:nonzero;stroke:none"
         id="path3781"
         inkscape:connector-curvature="0" /><path
         d="m 462.961,370.039 c 0,0.219 0.078,0.402 0.238,0.559 0.156,0.152 0.344,0.23 0.555,0.23 0.133,0 0.262,-0.035 0.387,-0.105 0.125,-0.071 0.226,-0.168 0.297,-0.297 0.07,-0.125 0.105,-0.254 0.105,-0.387 0,-0.207 -0.078,-0.395 -0.234,-0.555 -0.157,-0.16 -0.34,-0.238 -0.555,-0.238 -0.211,0 -0.399,0.078 -0.555,0.238 -0.16,0.16 -0.238,0.348 -0.238,0.555"
         style="fill:#000000;fill-opacity:1;fill-rule:nonzero;stroke:none"
         id="path3783"
         inkscape:connector-curvature="0" /><path
         d="m 469.461,368.93 c -0.598,0 -1.094,0.156 -1.492,0.472 -0.399,0.317 -0.707,0.727 -0.926,1.231 -0.215,0.504 -0.367,1.035 -0.449,1.586 -0.086,0.554 -0.129,1.117 -0.129,1.683 0,0.758 0.148,1.52 0.445,2.281 0.293,0.766 0.731,1.399 1.301,1.903 0.574,0.5 1.258,0.75 2.043,0.75 0.328,0 0.637,-0.059 0.918,-0.184 0.285,-0.125 0.508,-0.308 0.668,-0.551 0.164,-0.242 0.246,-0.531 0.246,-0.875 0,-0.195 -0.07,-0.359 -0.203,-0.496 -0.133,-0.132 -0.297,-0.199 -0.496,-0.199 -0.188,0 -0.348,0.067 -0.485,0.203 -0.136,0.137 -0.203,0.301 -0.203,0.492 0,0.188 0.067,0.348 0.203,0.485 0.137,0.137 0.297,0.203 0.485,0.203 l 0.078,0 c -0.121,0.176 -0.293,0.305 -0.516,0.383 -0.222,0.082 -0.453,0.125 -0.695,0.125 -0.289,0 -0.559,-0.063 -0.805,-0.192 -0.246,-0.125 -0.469,-0.297 -0.664,-0.511 -0.195,-0.215 -0.359,-0.454 -0.492,-0.715 -0.129,-0.258 -0.234,-0.555 -0.305,-0.887 -0.074,-0.336 -0.117,-0.648 -0.136,-0.937 -0.02,-0.29 -0.028,-0.657 -0.028,-1.098 0.168,0.394 0.406,0.719 0.715,0.969 0.309,0.25 0.66,0.375 1.047,0.375 0.43,0 0.816,-0.086 1.168,-0.262 0.351,-0.172 0.652,-0.41 0.906,-0.719 0.254,-0.308 0.445,-0.656 0.582,-1.051 0.133,-0.394 0.196,-0.793 0.196,-1.195 0,-0.562 -0.122,-1.098 -0.372,-1.609 -0.25,-0.508 -0.605,-0.91 -1.058,-1.211 -0.457,-0.301 -0.973,-0.449 -1.547,-0.449 m 0,0.457 c 0.371,0 0.668,0.086 0.894,0.253 0.223,0.168 0.387,0.391 0.493,0.668 0.109,0.282 0.172,0.563 0.199,0.844 0.027,0.285 0.039,0.637 0.039,1.047 0,0.543 -0.027,1.008 -0.078,1.391 -0.051,0.386 -0.192,0.726 -0.422,1.019 -0.231,0.289 -0.582,0.438 -1.055,0.438 -0.39,0 -0.707,-0.133 -0.961,-0.395 -0.25,-0.262 -0.433,-0.594 -0.547,-0.992 -0.117,-0.402 -0.171,-0.789 -0.171,-1.16 0,-0.125 0.003,-0.219 0.015,-0.285 0,-0.016 -0.004,-0.028 -0.012,-0.035 0,-0.012 0,-0.024 -0.003,-0.036 0,-0.414 0.039,-0.832 0.125,-1.254 0.085,-0.421 0.246,-0.777 0.484,-1.07 0.242,-0.289 0.574,-0.433 1,-0.433"
         style="fill:#000000;fill-opacity:1;fill-rule:nonzero;stroke:none"
         id="path3785"
         inkscape:connector-curvature="0" /><path
         d="m 473.379,365.644 0,0.579 1.398,0 0,13.246 -1.398,0 0,0.578 1.973,0 0,-14.403 -1.973,0 z"
         style="fill:#000000;fill-opacity:1;fill-rule:nonzero;stroke:none"
         id="path3787"
         inkscape:connector-curvature="0" /><path
         d="m 362.832,374.285 20.16,0"
         style="fill:none;stroke:#ff0000;stroke-width:2;stroke-linecap:butt;stroke-linejoin:round;stroke-miterlimit:4;stroke-opacity:1;stroke-dasharray:none"
         id="path3789"
         inkscape:connector-curvature="0" /><path
         d="m 380.246,329.078 c 0,-3.941 -3.191,-7.133 -7.133,-7.133 -3.937,0 -7.133,3.192 -7.133,7.133 0,3.937 3.196,7.133 7.133,7.133 3.918,0 7.102,-3.156 7.133,-7.071"
         style="fill:none;stroke:#0000ff;stroke-width:2.4000001;stroke-linecap:square;stroke-linejoin:miter;stroke-miterlimit:4;stroke-opacity:1;stroke-dasharray:none"
         id="path3845"
         inkscape:connector-curvature="0" /><path
         d="m 366.305,359.082 13.621,0 0,-13.625 -13.621,0 0,13.625 z"
         style="fill:none;stroke:#008000;stroke-width:2.71740699;stroke-linecap:butt;stroke-linejoin:miter;stroke-miterlimit:4;stroke-opacity:1;stroke-dasharray:none"
         id="path3847"
         inkscape:connector-curvature="0" /><g
         id="g3849"
         transform="matrix(1,-0.0254338,-0.0254338,-1,0,410.035)"><path
           d="m 382.301,32.101 -16.728,0.406 8.013,-14.688 8.715,14.282 z"
           style="fill:none;stroke:#ff0000;stroke-width:2.39922404;stroke-linecap:square;stroke-linejoin:miter;stroke-miterlimit:4;stroke-opacity:1;stroke-dasharray:none"
           id="path3851"
           inkscape:connector-curvature="0" /></g></g><path
       d="m 160.47118,284.29212 -21.40589,0.0249 10.72521,18.52319 10.68068,-18.54807 z"
       style="fill:none;stroke:#ff0000;stroke-width:3.06925178;stroke-linecap:square;stroke-linejoin:miter;stroke-miterlimit:4;stroke-opacity:1;stroke-dasharray:none;display:inline"
       id="path3851-8"
       inkscape:connector-curvature="0" /><path
       d="m 127.43583,247.47642 17.41928,0 0,-17.4244 -17.41928,0 0,17.4244 z"
       style="fill:none;stroke:#008000;stroke-width:3.47516942;stroke-linecap:butt;stroke-linejoin:miter;stroke-miterlimit:4;stroke-opacity:1;stroke-dasharray:none;display:inline"
       id="path3847-4"
       inkscape:connector-curvature="0" /><path
       d="m 139.02299,189.03652 c 0,-5.03997 -4.08083,-9.12207 -9.12207,-9.12207 -5.03485,0 -9.12207,4.0821 -9.12207,9.12207 0,5.03485 4.08722,9.12207 9.12207,9.12207 5.01055,0 9.08243,-4.03606 9.12207,-9.04278"
       style="fill:none;stroke:#0000ff;stroke-width:3.06925201;stroke-linecap:square;stroke-linejoin:miter;stroke-miterlimit:4;stroke-opacity:1;stroke-dasharray:none;display:inline"
       id="path3845-1"
       inkscape:connector-curvature="0" /></g></svg>