<?xml version="1.0" encoding="UTF-8" standalone="no"?>
<!-- Created with Inkscape (http://www.inkscape.org/) -->

<svg
   xmlns:dc="http://purl.org/dc/elements/1.1/"
   xmlns:cc="http://creativecommons.org/ns#"
   xmlns:rdf="http://www.w3.org/1999/02/22-rdf-syntax-ns#"
   xmlns:svg="http://www.w3.org/2000/svg"
   xmlns="http://www.w3.org/2000/svg"
   xmlns:xlink="http://www.w3.org/1999/xlink"
   xmlns:sodipodi="http://sodipodi.sourceforge.net/DTD/sodipodi-0.dtd"
   xmlns:inkscape="http://www.inkscape.org/namespaces/inkscape"
   id="svg3569"
   version="1.1"
   inkscape:version="0.48.4 r9939"
   width="659.79805"
   height="512.54375"
   xml:space="preserve"
   sodipodi:docname="fixation_times.svg"><metadata
     id="metadata3575"><rdf:RDF><cc:Work
         rdf:about=""><dc:format>image/svg+xml</dc:format><dc:type
           rdf:resource="http://purl.org/dc/dcmitype/StillImage" /><dc:title /></cc:Work></rdf:RDF></metadata><defs
     id="defs3573"><clipPath
       id="p7ff5b81e1d"><rect
         height="345.60001"
         width="446.39999"
         x="72"
         y="43.200001"
         id="rect4413" /></clipPath><clipPath
       id="clipPath5389"><rect
         height="345.60001"
         width="446.39999"
         x="72"
         y="43.200001"
         id="rect5391" /></clipPath><clipPath
       id="clipPath5393"><rect
         height="345.60001"
         width="446.39999"
         x="72"
         y="43.200001"
         id="rect5395" /></clipPath><clipPath
       id="clipPath5397"><rect
         height="345.60001"
         width="446.39999"
         x="72"
         y="43.200001"
         id="rect5399" /></clipPath><clipPath
       id="clipPath5401"><rect
         height="345.60001"
         width="446.39999"
         x="72"
         y="43.200001"
         id="rect5403" /></clipPath><clipPath
       id="clipPath5405"><rect
         height="345.60001"
         width="446.39999"
         x="72"
         y="43.200001"
         id="rect5407" /></clipPath><clipPath
       id="p7ff5b81e1d-0"><rect
         height="345.60001"
         width="446.39999"
         x="72"
         y="43.200001"
         id="rect4413-9" /></clipPath><clipPath
       id="clipPath6302"><rect
         height="345.60001"
         width="446.39999"
         x="72"
         y="43.200001"
         id="rect6304" /></clipPath><clipPath
       id="clipPath6306"><rect
         height="345.60001"
         width="446.39999"
         x="72"
         y="43.200001"
         id="rect6308" /></clipPath><clipPath
       id="clipPath6310"><rect
         height="345.60001"
         width="446.39999"
         x="72"
         y="43.200001"
         id="rect6312" /></clipPath><clipPath
       id="clipPath6314"><rect
         height="345.60001"
         width="446.39999"
         x="72"
         y="43.200001"
         id="rect6316" /></clipPath><clipPath
       id="clipPath6318"><rect
         height="345.60001"
         width="446.39999"
         x="72"
         y="43.200001"
         id="rect6320" /></clipPath></defs><sodipodi:namedview
     pagecolor="#ffffff"
     bordercolor="#666666"
     borderopacity="1"
     objecttolerance="10"
     gridtolerance="10"
     guidetolerance="10"
     inkscape:pageopacity="0"
     inkscape:pageshadow="2"
     inkscape:window-width="1916"
     inkscape:window-height="1161"
     id="namedview3571"
     showgrid="false"
     inkscape:zoom="1.3533903"
     inkscape:cx="131.50835"
     inkscape:cy="257.11874"
     inkscape:window-x="0"
     inkscape:window-y="18"
     inkscape:window-maximized="0"
     inkscape:current-layer="layer1" /><g
     inkscape:groupmode="layer"
     id="layer1"
     inkscape:label="Layer"
     style="display:inline"><g
       id="patch_2"
       style="stroke-linecap:square;stroke-linejoin:round"
       transform="matrix(1.25,0,0,1.25,-18,-33.456237)"><path
         d="m 72,388.8 446.4,0 0,-345.6 -446.4,0 z"
         style="fill:#ffffff;stroke-linecap:square;stroke-linejoin:round"
         id="path3885"
         inkscape:connector-curvature="0" /></g><path
       inkscape:connector-curvature="0"
       id="path3888"
       style="fill:#a4a4ff;fill-opacity:1;stroke:none"
       d="m 72,336.96 558,0 0,-34.56 -558,0 z"
       clip-path="url(#p7ff5b81e1d-0)"
       transform="matrix(1.25,0,0,1.25,-18,-33.456237)" /><path
       inkscape:connector-curvature="0"
       id="path3891"
       style="fill:#a4d0a4;fill-opacity:1;stroke:none"
       d="m 72,302.4 558,0 0,-51.84 -558,0 z"
       clip-path="url(#p7ff5b81e1d-0)"
       transform="matrix(1.25,0,0,1.25,-18,-33.456237)" /><path
       inkscape:connector-curvature="0"
       id="path3894"
       style="fill:#ffb7b7;fill-opacity:1;stroke:none"
       d="m 72,250.56 558,0 0,-69.12 -558,0 z"
       clip-path="url(#p7ff5b81e1d-0)"
       transform="matrix(1.25,0,0,1.25,-18,-33.456237)" /><g
       id="line2d_1"
       style="stroke-linecap:square;stroke-linejoin:round"
       transform="matrix(1.25,0,0,1.25,-18,-33.456237)"><path
         clip-path="url(#p7ff5b81e1d-0)"
         d="m 112.846,388.8 129.344,-3.63 6.808,-3.631 20.422,-3.63 129.345,-3.63 m -6.808,-2.904 -47.653,-2.93 0,-2.93 -34.038,-2.931 -40.846,-2.93 -20.422,-2.93 -6.808,-2.93 -13.615,-2.93 0,-2.93 -20.423,-2.93 -6.808,-2.931 0,-2.93 0,-2.93 0,-2.93 -13.615,-2.93 0,-2.93 0,-2.93 0,-2.93 0,-2.931 0,-2.93 -6.807,-2.93 0,-2.93 0,-2.93 -6.808,-2.93 -6.808,-2.93 -6.807,-2.931 0,-2.93 0,-2.93 -6.808,-2.93 0,-2.93 0,-2.93 0,-2.93 0,-2.93 -6.807,-2.931 0,-2.93 -6.808,-2.93 0,-2.93 0,-2.93 0,-2.93 0,-2.93 0,-2.93 0,-2.931 0,-2.93 0,-2.93 -13.615,-2.93 0,-2.93 0,-2.93 0,-2.93 -6.808,-2.931 0,-2.93 0,-2.93 0,-2.93 0,-2.93 0,-2.93 0,-2.93 0,-2.93 0,-2.931 0,-2.93 0,-2.93 0,-2.93 0,-2.93 0,-2.93 0,-2.93 0,-2.931 0,-2.93 0,-2.93 0,-2.93 0,-2.93 0,-2.93 -6.807,-2.93 0,-2.93 0,-2.931 0,-2.93 0,-2.93 0,-2.93 0,-2.93 0,-2.93 0,-2.93 0,-2.931 0,-2.93 0,-2.93 0,-2.93 0,-2.93 0,-2.93 0,-2.93 0,-2.93 0,-2.931 0,-2.93 0,-2.93 0,-2.93 0,-2.93 0,-2.93 0,-2.93 0,-2.9305 0,-2.9301 0,-2.9302 0,-2.9301 0,-2.9301 0,-2.9302 0,-2.9301 0,-2.9301 0,-2.9301 -6.808,-2.9302 0,-2.9301 0,-2.9301 0,-2.9302 -6.8076,-2.9301 -6.8076,-2.9301 0,-2.9302 0,-2.9301 0,-2.9301 0,-2.9302 0,-2.9301"
         style="fill:none;stroke:#0000ff;stroke-width:2;stroke-linecap:square;stroke-linejoin:round"
         id="path3897"
         inkscape:connector-curvature="0"
         sodipodi:nodetypes="cccccccccccccccccccccccccccccccccccccccccccccccccccccccccccccccccccccccccccccccccccccccccccccccccccccccccccccccccccccc" /></g><g
       id="line2d_2"
       style="stroke-linecap:square;stroke-linejoin:round"
       transform="matrix(1.25,0,0,1.25,-18,-33.456237)"><path
         clip-path="url(#p7ff5b81e1d-0)"
         d="m 153.691,388.8 136.152,-10.8 34.038,-10.8 190.613,0 -122.537,-7.364 0,-7.363 -68.076,-7.364 -13.615,-7.364 -34.038,-7.363 -6.808,-7.364 -34.038,-7.363 -6.807,-7.364 0,-7.364 0,-7.363 -20.423,-7.364 -6.808,-7.364 -6.807,-7.363 0,-7.364 0,-7.364 0,-7.363 0,-7.364 -13.615,-7.363 -27.231,-7.364 0,-7.364 0,-7.363 0,-7.364 -6.807,-7.364 -20.423,-7.363 0,-7.364 0,-7.364 0,-7.363 -6.808,-7.364 0,-7.363 0,-7.364 0,-7.364 -6.807,-7.363 0,-7.364 0,-7.364 0,-7.363 0,-7.364 0,-7.3635 0,-7.3637 -6.808,-7.3636 0,-7.3637 0,-7.3636 0,-7.3636 L 99.2304,50.5636 92.4228,43.2"
         style="fill:none;stroke:#008000;stroke-width:2;stroke-linecap:square;stroke-linejoin:round"
         id="path3900"
         inkscape:connector-curvature="0"
         sodipodi:nodetypes="cccccccccccccccccccccccccccccccccccccccccccccccc" /></g><g
       id="line2d_3"
       style="stroke-linecap:square;stroke-linejoin:round"
       transform="matrix(1.25,0,0,1.25,-18,-33.456237)"><path
         clip-path="url(#p7ff5b81e1d-0)"
         d="m 106.038,388.8 13.615,-18 13.615,-18 13.616,-18 136.152,-18 170.19,0 -217.844,-15.2 -34.038,-15.2 -6.807,-15.2 -6.808,-15.2 0,-15.2 -27.23,-15.2 0,-15.2 -6.808,-15.2 0,-15.2 0,-15.2 0,-15.2 -6.807,-15.2 -27.231,-15.2 0,-15.2 -6.807,-15.2 0,-15.2 0,-15.2 -6.808,-15.2"
         style="fill:none;stroke:#ff0000;stroke-width:2;stroke-linecap:square;stroke-linejoin:round"
         id="path3903"
         inkscape:connector-curvature="0"
         sodipodi:nodetypes="cccccccccccccccccccccccc" /></g><g
       id="line2d_4"
       style="stroke-linecap:square;stroke-linejoin:round"
       transform="matrix(1.25,0,0,1.25,-18,-33.456237)"><defs
         id="defs3908"><path
           d="M 0,0 0,-4"
           id="mcb557df647"
           style="stroke:#000000;stroke-width:0.5;stroke-linecap:butt;stroke-linejoin:round"
           inkscape:connector-curvature="0" /></defs><g
         id="g3911"
         style="stroke-linecap:square;stroke-linejoin:round"><use
           style="stroke:#000000;stroke-width:0.5;stroke-linecap:butt;stroke-linejoin:round"
           x="72"
           xlink:href="#mcb557df647"
           y="388.79999"
           id="use3913"
           width="576"
           height="432" /></g></g><g
       id="line2d_5"
       style="stroke-linecap:square;stroke-linejoin:round"
       transform="matrix(1.25,0,0,1.25,-18,-33.456237)"><defs
         id="defs3916"><path
           d="M 0,0 0,4"
           id="mdad270ee8e"
           style="stroke:#000000;stroke-width:0.5;stroke-linecap:butt;stroke-linejoin:round"
           inkscape:connector-curvature="0" /></defs><g
         id="g3919"
         style="stroke-linecap:square;stroke-linejoin:round"><use
           style="stroke:#000000;stroke-width:0.5;stroke-linecap:butt;stroke-linejoin:round"
           x="72"
           xlink:href="#mdad270ee8e"
           y="43.200001"
           id="use3921"
           width="576"
           height="432" /></g></g><g
       id="text_1"
       style="stroke-linecap:square;stroke-linejoin:round"
       transform="matrix(1.25,0,0,1.25,-18,-32.056568)"><!-- $0$ --><defs
         id="defs3924"><path
           d="M 42,31.6406 C 42,37.75 41.9062,48.125 37.7031,56.1094 34,63.1094 28.0938,65.5938 22.9062,65.5938 18.0938,65.5938 12,63.4062 8.20312,56.2031 4.20312,48.7188 3.79688,39.4375 3.79688,31.6406 3.79688,25.9531 3.90625,17.2812 7,9.67188 11.2969,-0.609375 19,-2 22.9062,-2 27.5,-2 34.5,-0.109375 38.5938,9.375 41.5938,16.2812 42,24.3594 42,31.6406 M 22.9062,-0.40625 c -6.4062,0 -10.2031,5.48437 -11.6093,13.09375 -1.0938,5.875 -1.0938,14.4687 -1.0938,20.0625 0,7.6875 0,14.0781 1.2969,20.1719 C 13.4062,61.3906 19,64 22.9062,64 27,64 32.2969,61.2969 34.2031,53.125 35.5,47.4375 35.5938,40.7344 35.5938,32.75 c 0,-6.5 0,-14.4844 -1.1876,-20.375 -2.1093,-10.89062 -8,-12.78125 -11.5,-12.78125"
           id="CMR17-48"
           inkscape:connector-curvature="0"
           style="stroke-linecap:square;stroke-linejoin:round" /></defs><g
         transform="matrix(0.14,0,0,-0.14,68.585756,401.78851)"
         id="g3927"
         style="stroke-linecap:square;stroke-linejoin:round"><use
           transform="matrix(1.1835405,0,0,1.1835405,-0.71106637,-11.054018)"
           xlink:href="#CMR17-48"
           id="use3929"
           style="stroke-linecap:square;stroke-linejoin:round"
           x="0"
           y="0"
           width="576"
           height="432" /></g></g><g
       id="line2d_6"
       style="stroke-linecap:square;stroke-linejoin:round"
       transform="matrix(1.25,0,0,1.25,-18,-33.456237)"><g
         id="g3933"
         style="stroke-linecap:square;stroke-linejoin:round"><use
           style="stroke:#000000;stroke-width:0.5;stroke-linecap:butt;stroke-linejoin:round"
           x="183.60001"
           xlink:href="#mcb557df647"
           y="388.79999"
           id="use3935"
           width="576"
           height="432" /></g></g><g
       id="line2d_7"
       style="stroke-linecap:square;stroke-linejoin:round"
       transform="matrix(1.25,0,0,1.25,-18,-33.456237)"><g
         id="g3938"
         style="stroke-linecap:square;stroke-linejoin:round"><use
           style="stroke:#000000;stroke-width:0.5;stroke-linecap:butt;stroke-linejoin:round"
           x="183.60001"
           xlink:href="#mdad270ee8e"
           y="43.200001"
           id="use3940"
           width="576"
           height="432" /></g></g><g
       id="text_2"
       style="stroke-linecap:square;stroke-linejoin:round"
       transform="matrix(1.4849735,0,0,1.4849735,-58.868526,-124.53177)"><!-- $500$ --><defs
         id="defs3943"><path
           d="M 11.4062,57.6875 C 12.4062,57.2812 16.5,56 20.7031,56 30,56 35.0938,61.0156 38,63.9219 c 0,0.8125 0,1.3281 -0.5938,1.3281 -0.1093,0 -0.3124,0 -1.1093,-0.4219 -3.5,-1.5156 -7.5938,-2.75 -12.5938,-2.75 -3,0 -7.5,0.4219 -12.4062,2.6563 C 10.2031,65.25 10,65.25 9.90625,65.25 c -0.5,0 -0.60937,-0.1094 -0.60937,-2.0938 l 0,-28.875 c 0,-1.7812 0,-2.2812 1.00002,-2.2812 0.5,0 0.7031,0.2031 1.2031,0.9062 3.2031,4.5782 7.5938,6.5 12.5938,6.5 3.5,0 11,-2.1874 11,-19.2656 0,-3.1875 0,-8.9687 -3,-13.56248 C 29.5938,2.48438 25.7031,0.390625 21.4062,0.390625 14.7969,0.390625 8.09375,5 6.29688,12.7188 6.70312,12.6094 7.5,12.4219 7.90625,12.4219 c 1.29687,0 3.79685,0.7031 3.79685,3.7969 C 11.7031,18.9062 9.79688,20 7.90625,20 5.59375,20 4.09375,18.5938 4.09375,15.7969 4.09375,7.09375 11,-2 21.5938,-2 c 10.3124,0 20.1093,8.875 20.1093,21.75 0,11.9688 -7.7969,21.25 -17.5,21.25 -5.1093,0 -9.4062,-1.9062 -12.7969,-5.5469 z"
           id="CMR17-53"
           inkscape:connector-curvature="0"
           style="stroke-linecap:square;stroke-linejoin:round" /></defs><g
         transform="matrix(0.14,0,0,-0.14,173.35727,401.78851)"
         id="g3946"
         style="stroke-linecap:square;stroke-linejoin:round"><use
           transform="scale(0.99626401,0.99626401)"
           xlink:href="#CMR17-53"
           id="use3948"
           style="stroke-linecap:square;stroke-linejoin:round"
           x="0"
           y="0"
           width="576"
           height="432" /><use
           transform="matrix(0.99626401,0,0,0.99626401,45.690477,0)"
           xlink:href="#CMR17-48"
           id="use3950"
           style="stroke-linecap:square;stroke-linejoin:round"
           x="0"
           y="0"
           width="576"
           height="432" /><use
           transform="matrix(0.99626401,0,0,0.99626401,91.380954,0)"
           xlink:href="#CMR17-48"
           id="use3952"
           style="stroke-linecap:square;stroke-linejoin:round"
           x="0"
           y="0"
           width="576"
           height="432" /></g></g><g
       id="line2d_8"
       style="stroke-linecap:square;stroke-linejoin:round"
       transform="matrix(1.25,0,0,1.25,-18,-33.456237)"><g
         id="g3956"
         style="stroke-linecap:square;stroke-linejoin:round"><use
           style="stroke:#000000;stroke-width:0.5;stroke-linecap:butt;stroke-linejoin:round"
           x="295.20001"
           xlink:href="#mcb557df647"
           y="388.79999"
           id="use3958"
           width="576"
           height="432" /></g></g><g
       id="line2d_9"
       style="stroke-linecap:square;stroke-linejoin:round"
       transform="matrix(1.25,0,0,1.25,-18,-33.456237)"><g
         id="g3961"
         style="stroke-linecap:square;stroke-linejoin:round"><use
           style="stroke:#000000;stroke-width:0.5;stroke-linecap:butt;stroke-linejoin:round"
           x="295.20001"
           xlink:href="#mdad270ee8e"
           y="43.200001"
           id="use3963"
           width="576"
           height="432" /></g></g><g
       id="text_3"
       style="stroke-linecap:square;stroke-linejoin:round"
       transform="matrix(1.4849735,0,0,1.4849735,-84.440372,-124.53177)"><!-- $1000$ --><defs
         id="defs3966"><path
           d="m 26.5938,63.3125 c 0,2.0937 -0.0938,2.1875 -1.5,2.1875 -3.8907,-4.3125 -9.7969,-5.7031 -15.39068,-5.7031 -0.29687,0 -0.79687,0 -0.90624,-0.2969 C 8.70312,59.2969 8.70312,59.0938 8.70312,57 11.7969,57 17,57.5938 21,59.9844 L 21,7.20312 C 21,3.6875 20.7969,2.5 12.2031,2.5 l -2.99998,0 0,-2.5 C 14,0 19,0 23.7969,0 c 4.7969,0 9.7969,0 14.6093,0 l 0,2.5 -3,0 c -8.6093,0 -8.8124,1.09375 -8.8124,4.65625 z"
           id="CMR17-49"
           inkscape:connector-curvature="0"
           style="stroke-linecap:square;stroke-linejoin:round" /></defs><g
         transform="matrix(0.14,0,0,-0.14,281.54302,401.78851)"
         id="g3969"
         style="stroke-linecap:square;stroke-linejoin:round"><use
           transform="scale(0.99626401,0.99626401)"
           xlink:href="#CMR17-49"
           id="use3971"
           style="stroke-linecap:square;stroke-linejoin:round"
           x="0"
           y="0"
           width="576"
           height="432" /><use
           transform="matrix(0.99626401,0,0,0.99626401,45.690477,0)"
           xlink:href="#CMR17-48"
           id="use3973"
           style="stroke-linecap:square;stroke-linejoin:round"
           x="0"
           y="0"
           width="576"
           height="432" /><use
           transform="matrix(0.99626401,0,0,0.99626401,91.380954,0)"
           xlink:href="#CMR17-48"
           id="use3975"
           style="stroke-linecap:square;stroke-linejoin:round"
           x="0"
           y="0"
           width="576"
           height="432" /><use
           transform="matrix(0.99626401,0,0,0.99626401,137.07143,0)"
           xlink:href="#CMR17-48"
           id="use3977"
           style="stroke-linecap:square;stroke-linejoin:round"
           x="0"
           y="0"
           width="576"
           height="432" /></g></g><g
       id="line2d_10"
       style="stroke-linecap:square;stroke-linejoin:round"
       transform="matrix(1.25,0,0,1.25,-18,-33.456237)"><g
         id="g3981"
         style="stroke-linecap:square;stroke-linejoin:round"><use
           style="stroke:#000000;stroke-width:0.5;stroke-linecap:butt;stroke-linejoin:round"
           x="406.79999"
           xlink:href="#mcb557df647"
           y="388.79999"
           id="use3983"
           width="576"
           height="432" /></g></g><g
       id="line2d_11"
       style="stroke-linecap:square;stroke-linejoin:round"
       transform="matrix(1.25,0,0,1.25,-18,-33.456237)"><g
         id="g3986"
         style="stroke-linecap:square;stroke-linejoin:round"><use
           style="stroke:#000000;stroke-width:0.5;stroke-linecap:butt;stroke-linejoin:round"
           x="406.79999"
           xlink:href="#mdad270ee8e"
           y="43.200001"
           id="use3988"
           width="576"
           height="432" /></g></g><g
       id="text_4"
       style="stroke-linecap:square;stroke-linejoin:round"
       transform="matrix(1.4849735,0,0,1.4849735,-110.66341,-124.53177)"><!-- $1500$ --><g
         transform="matrix(0.14,0,0,-0.14,393.14302,401.78851)"
         id="g3991"
         style="stroke-linecap:square;stroke-linejoin:round"><use
           transform="scale(0.99626401,0.99626401)"
           xlink:href="#CMR17-49"
           id="use3993"
           style="stroke-linecap:square;stroke-linejoin:round"
           x="0"
           y="0"
           width="576"
           height="432" /><use
           transform="matrix(0.99626401,0,0,0.99626401,45.690477,0)"
           xlink:href="#CMR17-53"
           id="use3995"
           style="stroke-linecap:square;stroke-linejoin:round"
           x="0"
           y="0"
           width="576"
           height="432" /><use
           transform="matrix(0.99626401,0,0,0.99626401,91.380954,0)"
           xlink:href="#CMR17-48"
           id="use3997"
           style="stroke-linecap:square;stroke-linejoin:round"
           x="0"
           y="0"
           width="576"
           height="432" /><use
           transform="matrix(0.99626401,0,0,0.99626401,137.07143,0)"
           xlink:href="#CMR17-48"
           id="use3999"
           style="stroke-linecap:square;stroke-linejoin:round"
           x="0"
           y="0"
           width="576"
           height="432" /></g></g><g
       id="line2d_12"
       style="stroke-linecap:square;stroke-linejoin:round"
       transform="matrix(1.25,0,0,1.25,-18,-33.456237)"><g
         id="g4003"
         style="stroke-linecap:square;stroke-linejoin:round"><use
           style="stroke:#000000;stroke-width:0.5;stroke-linecap:butt;stroke-linejoin:round"
           x="518.40002"
           xlink:href="#mcb557df647"
           y="388.79999"
           id="use4005"
           width="576"
           height="432" /></g></g><g
       id="line2d_13"
       style="stroke-linecap:square;stroke-linejoin:round"
       transform="matrix(1.25,0,0,1.25,-18,-33.456237)"><g
         id="g4008"
         style="stroke-linecap:square;stroke-linejoin:round"><use
           style="stroke:#000000;stroke-width:0.5;stroke-linecap:butt;stroke-linejoin:round"
           x="518.40002"
           xlink:href="#mdad270ee8e"
           y="43.200001"
           id="use4010"
           width="576"
           height="432" /></g></g><g
       id="text_5"
       style="stroke-linecap:square;stroke-linejoin:round"
       transform="matrix(1.4761029,0,0,1.4761029,-132.25298,-120.96519)"><!-- $2000$ --><defs
         id="defs4013"><path
           d="m 41.7031,15.4531 -1.7969,0 C 38.9062,8.375 38.0938,7.17188 37.7031,6.5625 37.2031,5.76562 30,5.76562 28.5938,5.76562 l -19.18755,0 C 13,9.67188 20,16.75 28.5,24.9531 34.5938,30.7344 41.7031,37.5312 41.7031,47.4219 41.7031,59.2188 32.2969,66 21.7969,66 c -11,0 -17.70315,-9.6875 -17.70315,-18.6562 0,-3.9063 2.90625,-4.4063 4.10937,-4.4063 1,0 3.99998,0.6094 3.99998,4.0937 C 12.2031,50.1094 9.59375,51 8.20312,51 7.59375,51 7,50.9062 6.59375,50.7031 8.5,59.2188 14.2969,63.4062 20.4062,63.4062 c 8.6876,0 14.3907,-6.8906 14.3907,-15.9843 C 34.7969,38.7344 29.7031,31.25 24,24.75 L 4.09375,2.28125 4.09375,0 39.2969,0 z"
           id="CMR17-50"
           inkscape:connector-curvature="0"
           style="stroke-linecap:square;stroke-linejoin:round" /></defs><g
         transform="matrix(0.14,0,0,-0.14,504.74302,401.78851)"
         id="g4016"
         style="stroke-linecap:square;stroke-linejoin:round"><use
           transform="scale(0.99626401,0.99626401)"
           xlink:href="#CMR17-50"
           id="use4018"
           style="stroke-linecap:square;stroke-linejoin:round"
           x="0"
           y="0"
           width="576"
           height="432" /><use
           transform="matrix(0.99626401,0,0,0.99626401,45.690477,0)"
           xlink:href="#CMR17-48"
           id="use4020"
           style="stroke-linecap:square;stroke-linejoin:round"
           x="0"
           y="0"
           width="576"
           height="432" /><use
           transform="matrix(0.99626401,0,0,0.99626401,91.380954,0)"
           xlink:href="#CMR17-48"
           id="use4022"
           style="stroke-linecap:square;stroke-linejoin:round"
           x="0"
           y="0"
           width="576"
           height="432" /><use
           transform="matrix(0.99626401,0,0,0.99626401,137.07143,0)"
           xlink:href="#CMR17-48"
           id="use4024"
           style="stroke-linecap:square;stroke-linejoin:round"
           x="0"
           y="0"
           width="576"
           height="432" /></g></g><g
       id="line2d_14"
       style="stroke-linecap:square;stroke-linejoin:round"
       transform="matrix(1.25,0,0,1.25,-18,-33.456237)"><defs
         id="defs4084"><path
           d="M 0,0 4,0"
           id="mc8fcea1516"
           style="stroke:#000000;stroke-width:0.5;stroke-linecap:butt;stroke-linejoin:round"
           inkscape:connector-curvature="0" /></defs><g
         id="g4087"
         style="stroke-linecap:square;stroke-linejoin:round"><use
           style="stroke:#000000;stroke-width:0.5;stroke-linecap:butt;stroke-linejoin:round"
           x="72"
           xlink:href="#mc8fcea1516"
           y="388.79999"
           id="use4089"
           width="576"
           height="432" /></g></g><g
       id="line2d_15"
       style="stroke-linecap:square;stroke-linejoin:round"
       transform="matrix(1.25,0,0,1.25,-18,-33.456237)"><defs
         id="defs4092"><path
           d="M 0,0 -4,0"
           id="m0d5b0a6425"
           style="stroke:#000000;stroke-width:0.5;stroke-linecap:butt;stroke-linejoin:round"
           inkscape:connector-curvature="0" /></defs><g
         id="g4095"
         style="stroke-linecap:square;stroke-linejoin:round"><use
           style="stroke:#000000;stroke-width:0.5;stroke-linecap:butt;stroke-linejoin:round"
           x="518.40002"
           xlink:href="#m0d5b0a6425"
           y="388.79999"
           id="use4097"
           width="576"
           height="432" /></g></g><g
       id="text_7"
       style="stroke-linecap:square;stroke-linejoin:round"
       transform="matrix(1.4849735,0,0,1.4849735,-32.002209,-125.9355)"><!-- $0.0$ --><defs
         id="defs4100"><path
           d="m 18.4062,4.79688 c 0,2.89062 -2.4062,4.875 -4.8124,4.875 -2.8907,0 -4.89068,-2.39063 -4.89068,-4.78126 C 8.70312,2 11.0938,0 13.5,0 c 2.9062,0 4.9062,2.39062 4.9062,4.79688"
           id="CMMI12-58"
           inkscape:connector-curvature="0"
           style="stroke-linecap:square;stroke-linejoin:round" /></defs><g
         transform="matrix(0.14,0,0,-0.14,50.549418,393.29425)"
         id="g4103"
         style="stroke-linecap:square;stroke-linejoin:round"><use
           transform="scale(0.99626401,0.99626401)"
           xlink:href="#CMR17-48"
           id="use4105"
           style="stroke-linecap:square;stroke-linejoin:round"
           x="0"
           y="0"
           width="576"
           height="432" /><use
           transform="matrix(0.99626401,0,0,0.99626401,45.690477,0)"
           xlink:href="#CMMI12-58"
           id="use4107"
           style="stroke-linecap:square;stroke-linejoin:round"
           x="0"
           y="0"
           width="576"
           height="432" /><use
           transform="matrix(0.99626401,0,0,0.99626401,72.787654,0)"
           xlink:href="#CMR17-48"
           id="use4109"
           style="stroke-linecap:square;stroke-linejoin:round"
           x="0"
           y="0"
           width="576"
           height="432" /></g></g><g
       id="line2d_16"
       style="stroke-linecap:square;stroke-linejoin:round"
       transform="matrix(1.25,0,0,1.25,-18,-33.456237)"><g
         id="g4113"
         style="stroke-linecap:square;stroke-linejoin:round"><use
           style="stroke:#000000;stroke-width:0.5;stroke-linecap:butt;stroke-linejoin:round"
           x="72"
           xlink:href="#mc8fcea1516"
           y="319.67999"
           id="use4115"
           width="576"
           height="432" /></g></g><g
       id="line2d_17"
       style="stroke-linecap:square;stroke-linejoin:round"
       transform="matrix(1.25,0,0,1.25,-18,-33.456237)"><g
         id="g4118"
         style="stroke-linecap:square;stroke-linejoin:round"><use
           style="stroke:#000000;stroke-width:0.5;stroke-linecap:butt;stroke-linejoin:round"
           x="518.40002"
           xlink:href="#m0d5b0a6425"
           y="319.67999"
           id="use4120"
           width="576"
           height="432" /></g></g><g
       id="text_8"
       style="stroke-linecap:square;stroke-linejoin:round"
       transform="matrix(1.4761029,0,0,1.4761029,-31.549111,-106.81606)"><!-- $0.2$ --><g
         transform="matrix(0.14,0,0,-0.14,50.549418,324.17425)"
         id="g4123"
         style="stroke-linecap:square;stroke-linejoin:round"><use
           transform="scale(0.99626401,0.99626401)"
           xlink:href="#CMR17-48"
           id="use4125"
           style="stroke-linecap:square;stroke-linejoin:round"
           x="0"
           y="0"
           width="576"
           height="432" /><use
           transform="matrix(0.99626401,0,0,0.99626401,45.690477,0)"
           xlink:href="#CMMI12-58"
           id="use4127"
           style="stroke-linecap:square;stroke-linejoin:round"
           x="0"
           y="0"
           width="576"
           height="432" /><use
           transform="matrix(0.99626401,0,0,0.99626401,72.787654,0)"
           xlink:href="#CMR17-50"
           id="use4129"
           style="stroke-linecap:square;stroke-linejoin:round"
           x="0"
           y="0"
           width="576"
           height="432" /></g></g><g
       id="line2d_18"
       style="stroke-linecap:square;stroke-linejoin:round"
       transform="matrix(1.25,0,0,1.25,-18,-33.456237)"><g
         id="g4133"
         style="stroke-linecap:square;stroke-linejoin:round"><use
           style="stroke:#000000;stroke-width:0.5;stroke-linecap:butt;stroke-linejoin:round"
           x="72"
           xlink:href="#mc8fcea1516"
           y="250.56"
           id="use4135"
           width="576"
           height="432" /></g></g><g
       id="line2d_19"
       style="stroke-linecap:square;stroke-linejoin:round"
       transform="matrix(1.25,0,0,1.25,-18,-33.456237)"><g
         id="g4138"
         style="stroke-linecap:square;stroke-linejoin:round"><use
           style="stroke:#000000;stroke-width:0.5;stroke-linecap:butt;stroke-linejoin:round"
           x="518.40002"
           xlink:href="#m0d5b0a6425"
           y="250.56"
           id="use4140"
           width="576"
           height="432" /></g></g><g
       id="text_9"
       style="stroke-linecap:square;stroke-linejoin:round"
       transform="matrix(1.4653285,0,0,1.4653285,-30.998762,-88.436744)"><!-- $0.4$ --><defs
         id="defs4143"><path
           d="M 33.5938,64.3281 C 33.5938,66.4062 33.5,66.5 31.7031,66.5 L 2,19.5938 2,17 l 25.7969,0 0,-9.85938 C 27.7969,3.5 27.5938,2.5 20.5938,2.5 l -1.8907,0 0,-2.5 c 3.2031,0 8.5938,0 12,0 3.3907,0 8.7969,0 12,0 l 0,2.5 -1.9062,0 c -7,0 -7.2031,1 -7.2031,4.64062 l 0,9.85938 10.2031,0 0,2.5938 -10.2031,0 z m -5.5,-6.5625 0,-38.1718 -24.0938,0 z"
           id="CMR17-52"
           inkscape:connector-curvature="0"
           style="stroke-linecap:square;stroke-linejoin:round" /></defs><g
         transform="matrix(0.14,0,0,-0.14,50.549418,255.05425)"
         id="g4146"
         style="stroke-linecap:square;stroke-linejoin:round"><use
           transform="scale(0.99626401,0.99626401)"
           xlink:href="#CMR17-48"
           id="use4148"
           style="stroke-linecap:square;stroke-linejoin:round"
           x="0"
           y="0"
           width="576"
           height="432" /><use
           transform="matrix(0.99626401,0,0,0.99626401,45.690477,0)"
           xlink:href="#CMMI12-58"
           id="use4150"
           style="stroke-linecap:square;stroke-linejoin:round"
           x="0"
           y="0"
           width="576"
           height="432" /><use
           transform="matrix(0.99626401,0,0,0.99626401,72.787654,0)"
           xlink:href="#CMR17-52"
           id="use4152"
           style="stroke-linecap:square;stroke-linejoin:round"
           x="0"
           y="0"
           width="576"
           height="432" /></g></g><g
       id="line2d_20"
       style="stroke-linecap:square;stroke-linejoin:round"
       transform="matrix(1.25,0,0,1.25,-18,-33.456237)"><g
         id="g4156"
         style="stroke-linecap:square;stroke-linejoin:round"><use
           style="stroke:#000000;stroke-width:0.5;stroke-linecap:butt;stroke-linejoin:round"
           x="72"
           xlink:href="#mc8fcea1516"
           y="181.44"
           id="use4158"
           width="576"
           height="432" /></g></g><g
       id="line2d_21"
       style="stroke-linecap:square;stroke-linejoin:round"
       transform="matrix(1.25,0,0,1.25,-18,-33.456237)"><g
         id="g4161"
         style="stroke-linecap:square;stroke-linejoin:round"><use
           style="stroke:#000000;stroke-width:0.5;stroke-linecap:butt;stroke-linejoin:round"
           x="518.40002"
           xlink:href="#m0d5b0a6425"
           y="181.44"
           id="use4163"
           width="576"
           height="432" /></g></g><g
       id="text_10"
       style="stroke-linecap:square;stroke-linejoin:round"
       transform="matrix(1.4849735,0,0,1.4849735,-32.002209,-77.2114)"><!-- $0.6$ --><defs
         id="defs4166"><path
           d="m 10.5938,34 c 0,23.6562 11.2031,29 17.7031,29 2.1093,0 7.2031,-0.3594 9.2031,-4 -1.5938,0 -4.5938,0 -4.5938,-3.4844 0,-2.6875 2.1876,-3.5937 3.5938,-3.5937 0.9062,0 3.5938,0.3906 3.5938,3.7031 0,6.1562 -5,9.6719 -11.8907,9.6719 C 16.2969,65.2969 3.79688,52.9688 3.79688,31 3.79688,3.95312 15.0938,-2 23.0938,-2 32.7969,-2 42,6.67188 42,20.0469 c 0,12.4687 -8.0938,21.5469 -18.2969,21.5469 -6.1093,0 -10.6093,-3.9844 -13.1093,-10.9688 z m 12.5,-33.609375 C 10.7969,0.390625 10.7969,18.75 10.7969,22.4375 10.7969,29.625 14.2031,40 23.5,40 c 1.7031,0 6.5938,0 9.9062,-6.875 1.7969,-3.9062 1.7969,-7.9844 1.7969,-12.9844 0,-5.3906 0,-9.3594 -2.1093,-13.35935 -2.1876,-4.10937 -5.3907,-6.390625 -10,-6.390625"
           id="CMR17-54"
           inkscape:connector-curvature="0"
           style="stroke-linecap:square;stroke-linejoin:round" /></defs><g
         transform="matrix(0.14,0,0,-0.14,50.549418,185.93425)"
         id="g4169"
         style="stroke-linecap:square;stroke-linejoin:round"><use
           transform="scale(0.99626401,0.99626401)"
           xlink:href="#CMR17-48"
           id="use4171"
           style="stroke-linecap:square;stroke-linejoin:round"
           x="0"
           y="0"
           width="576"
           height="432" /><use
           transform="matrix(0.99626401,0,0,0.99626401,45.690477,0)"
           xlink:href="#CMMI12-58"
           id="use4173"
           style="stroke-linecap:square;stroke-linejoin:round"
           x="0"
           y="0"
           width="576"
           height="432" /><use
           transform="matrix(0.99626401,0,0,0.99626401,72.787654,0)"
           xlink:href="#CMR17-54"
           id="use4175"
           style="stroke-linecap:square;stroke-linejoin:round"
           x="0"
           y="0"
           width="576"
           height="432" /></g></g><g
       id="line2d_22"
       style="stroke-linecap:square;stroke-linejoin:round"
       transform="matrix(1.25,0,0,1.25,-18,-33.456237)"><g
         id="g4179"
         style="stroke-linecap:square;stroke-linejoin:round"><use
           style="stroke:#000000;stroke-width:0.5;stroke-linecap:butt;stroke-linejoin:round"
           x="72"
           xlink:href="#mc8fcea1516"
           y="112.32"
           id="use4181"
           width="576"
           height="432" /></g></g><g
       id="line2d_23"
       style="stroke-linecap:square;stroke-linejoin:round"
       transform="matrix(1.25,0,0,1.25,-18,-33.456237)"><g
         id="g4184"
         style="stroke-linecap:square;stroke-linejoin:round"><use
           style="stroke:#000000;stroke-width:0.5;stroke-linecap:butt;stroke-linejoin:round"
           x="518.40002"
           xlink:href="#m0d5b0a6425"
           y="112.32"
           id="use4186"
           width="576"
           height="432" /></g></g><g
       id="text_11"
       style="stroke-linecap:square;stroke-linejoin:round"
       transform="matrix(1.4849735,0,0,1.4849735,-32.002209,-60.970034)"><!-- $0.8$ --><defs
         id="defs4189"><path
           d="m 27.2031,35.375 c 6.2969,3.1875 12.7031,7.9531 12.7031,15.6094 0,9.0468 -8.8124,14.3125 -16.9062,14.3125 -9.0938,0 -17.09375,-6.5625 -17.09375,-15.6094 0,-2.4844 0.59375,-6.7656 4.49995,-10.5469 1,-0.9844 5.1876,-3.9687 7.8907,-5.8594 C 13.7969,30.9844 3.29688,25.5312 3.29688,14.5938 3.29688,4.35938 13.0938,-2 22.7969,-2 33.5,-2 42.5,5.65625 42.5,15.7969 c 0,9.0469 -6.0938,13.2343 -10.0938,15.9062 z m -13.1093,8.75 c -0.7969,0.5 -4.79692,3.5781 -4.79692,8.25 C 9.29688,58.4375 15.5938,63 22.7969,63 30.7031,63 36.5,57.4531 36.5,50.9844 c 0,-9.25 -10.4062,-14.5156 -10.9062,-14.5156 -0.0938,0 -0.1876,0 -1,0.6093 z M 32.5,23.7344 C 34,22.6406 38.7969,19.375 38.7969,13.2969 38.7969,5.95312 31.4062,0.390625 23,0.390625 c -9.0938,0 -16,6.453125 -16,14.296875 0,7.8594 6.0938,14.4063 13,17.5 z"
           id="CMR17-56"
           inkscape:connector-curvature="0"
           style="stroke-linecap:square;stroke-linejoin:round" /></defs><g
         transform="matrix(0.14,0,0,-0.14,50.549418,116.81425)"
         id="g4192"
         style="stroke-linecap:square;stroke-linejoin:round"><use
           transform="scale(0.99626401,0.99626401)"
           xlink:href="#CMR17-48"
           id="use4194"
           style="stroke-linecap:square;stroke-linejoin:round"
           x="0"
           y="0"
           width="576"
           height="432" /><use
           transform="matrix(0.99626401,0,0,0.99626401,45.690477,0)"
           xlink:href="#CMMI12-58"
           id="use4196"
           style="stroke-linecap:square;stroke-linejoin:round"
           x="0"
           y="0"
           width="576"
           height="432" /><use
           transform="matrix(0.99626401,0,0,0.99626401,72.787654,0)"
           xlink:href="#CMR17-56"
           id="use4198"
           style="stroke-linecap:square;stroke-linejoin:round"
           x="0"
           y="0"
           width="576"
           height="432" /></g></g><g
       id="line2d_24"
       style="stroke-linecap:square;stroke-linejoin:round"
       transform="matrix(1.25,0,0,1.25,-18,-33.456237)"><g
         id="g4202"
         style="stroke-linecap:square;stroke-linejoin:round"><use
           style="stroke:#000000;stroke-width:0.5;stroke-linecap:butt;stroke-linejoin:round"
           x="72"
           xlink:href="#mc8fcea1516"
           y="43.200001"
           id="use4204"
           width="576"
           height="432" /></g></g><g
       id="line2d_25"
       style="stroke-linecap:square;stroke-linejoin:round"
       transform="matrix(1.25,0,0,1.25,-18,-33.456237)"><g
         id="g4207"
         style="stroke-linecap:square;stroke-linejoin:round"><use
           style="stroke:#000000;stroke-width:0.5;stroke-linecap:butt;stroke-linejoin:round"
           x="518.40002"
           xlink:href="#m0d5b0a6425"
           y="43.200001"
           id="use4209"
           width="576"
           height="432" /></g></g><g
       id="text_12"
       style="stroke-linecap:square;stroke-linejoin:round"
       transform="matrix(1.4849735,0,0,1.4849735,-32.163003,-44.728669)"><!-- $1.0$ --><g
         transform="matrix(0.14,0,0,-0.14,50.549418,47.694255)"
         id="g4212"
         style="stroke-linecap:square;stroke-linejoin:round"><use
           transform="scale(0.99626401,0.99626401)"
           xlink:href="#CMR17-49"
           id="use4214"
           style="stroke-linecap:square;stroke-linejoin:round"
           x="0"
           y="0"
           width="576"
           height="432" /><use
           transform="matrix(0.99626401,0,0,0.99626401,45.690477,0)"
           xlink:href="#CMMI12-58"
           id="use4216"
           style="stroke-linecap:square;stroke-linejoin:round"
           x="0"
           y="0"
           width="576"
           height="432" /><use
           transform="matrix(0.99626401,0,0,0.99626401,72.787654,0)"
           xlink:href="#CMR17-48"
           id="use4218"
           style="stroke-linecap:square;stroke-linejoin:round"
           x="0"
           y="0"
           width="576"
           height="432" /></g></g><g
       id="patch_6"
       style="stroke-linecap:square;stroke-linejoin:round"
       transform="matrix(1.25,0,0,1.25,-18,-33.456237)"><path
         d="m 72,43.2 446.4,0"
         style="fill:none;stroke:#000000;stroke-linecap:square;stroke-linejoin:round"
         id="path4229"
         inkscape:connector-curvature="0" /></g><g
       id="patch_7"
       style="stroke-linecap:square;stroke-linejoin:round"
       transform="matrix(1.25,0,0,1.25,-18,-33.456237)"><path
         d="m 518.4,388.8 0,-345.6"
         style="fill:none;stroke:#000000;stroke-linecap:square;stroke-linejoin:round"
         id="path4232"
         inkscape:connector-curvature="0" /></g><g
       id="patch_8"
       style="stroke-linecap:square;stroke-linejoin:round"
       transform="matrix(1.25,0,0,1.25,-18,-33.456237)"><path
         d="m 72,388.8 446.4,0"
         style="fill:none;stroke:#000000;stroke-linecap:square;stroke-linejoin:round"
         id="path4235"
         inkscape:connector-curvature="0" /></g><g
       id="patch_9"
       style="stroke-linecap:square;stroke-linejoin:round"
       transform="matrix(1.25,0,0,1.25,-18,-33.456237)"><path
         d="M 72,388.8 72,43.2"
         style="fill:none;stroke:#000000;stroke-linecap:square;stroke-linejoin:round"
         id="path4238"
         inkscape:connector-curvature="0" /></g><path
       inkscape:connector-curvature="0"
       id="path3853"
       style="fill:none;stroke:#0000ff;stroke-width:3;stroke-linecap:square;stroke-linejoin:miter;stroke-miterlimit:4;stroke-opacity:1;stroke-dasharray:none;display:inline"
       d="m 311.50061,415.79128 c 0,4.9275 -3.98875,8.91625 -8.915,8.91625 -4.9275,0 -8.91625,-3.98875 -8.91625,-8.91625 0,-4.92125 3.98875,-8.91625 8.91625,-8.91625 4.8925,0 8.87125,3.94625 8.915,8.83875" /><path
       inkscape:connector-curvature="0"
       id="path3855"
       style="fill:none;stroke:#008000;stroke-width:3.39675879;stroke-linecap:butt;stroke-linejoin:miter;stroke-miterlimit:4;stroke-opacity:1;stroke-dasharray:none;display:inline"
       d="m 400.85966,391.44639 17.02625,0 0,17.02625 -17.02625,0 0,-17.02625 z" /><path
       inkscape:connector-curvature="0"
       id="path3859"
       style="fill:none;stroke:#ff0000;stroke-width:3;stroke-linecap:square;stroke-linejoin:miter;stroke-miterlimit:4;stroke-opacity:1;stroke-dasharray:none;display:inline"
       d="m 442.47708,359.46236 -20.92291,-0.0243 10.48324,-18.1065 10.43967,18.13082 z" /></g><g
     inkscape:groupmode="layer"
     id="layer2"
     inkscape:label="labels"
     style="display:inline"><text
   y="-124.21468"
   x="62.382305"
   style="font-size:15px;display:inline"
   transform="matrix(0.21600336,0.97639262,-0.97639262,0.21600336,0,0)"
   id="text3793"><tspan
     style="font-size:18.53603745px;font-variant:normal;font-weight:normal;writing-mode:lr-tb;fill:#000000;fill-opacity:1;fill-rule:nonzero;stroke:none;font-family:Bitstream Vera Sans;-inkscape-font-specification:BitstreamVeraSans-Roman"
     x="62.382305 73.448318 84.403122 91.669243 96.803726 108.37022 118.5465 125.81262 130.94711 142.27263"
     y="-124.21468"
     sodipodi:role="line"
     id="tspan3795">extinction</tspan></text>


<text
   y="353.31586"
   x="-299.10553"
   style="font-size:15px;display:inline"
   transform="matrix(0.59496377,-0.80375252,0.80375252,0.59496377,0,0)"
   id="text3797"><tspan
     style="font-size:18.53603554px;font-variant:normal;font-weight:normal;writing-mode:lr-tb;fill:#000000;fill-opacity:1;fill-rule:nonzero;stroke:none;font-family:Bitstream Vera Sans;-inkscape-font-specification:BitstreamVeraSans-Roman"
     x="-299.10553 -292.58084 -287.44635 -276.49155 -265.14749 -258.04819 -252.91367 -241.58815"
     y="353.31586"
     sodipodi:role="line"
     id="tspan3799">fixation</tspan></text>


<path
   inkscape:connector-curvature="0"
   id="path3791"
   style="fill:#000000;fill-opacity:1;fill-rule:nonzero;stroke:none;display:inline"
   d="m 11.113271,238.74853 -0.011,0 -0.006,0.006 -0.0502,0 -0.0109,0.006 -0.0251,0 -0.0251,0.0125 -0.0361,0.0125 -0.0125,0.006 -0.0189,0.006 -0.011,0.0172 -0.0251,0.0125 -0.0251,0.0251 -0.0125,0.006 -0.011,0.0189 -0.0125,0.0114 -0.006,0.0125 -0.007,0.006 -0.006,0.0125 -0.006,0.006 0,0.0172 -0.0125,0.0251 -0.011,0.0125 -0.006,0.0189 0,0.0113 -0.006,0.0125 0,0.0125 -0.006,0.0251 0,0.0125 -0.006,0.0172 0,0.0925 c 0,0.78466 0.26365,3.25481 0.3374,4.13208 0.0298,0.2809 0.0612,0.65597 0.66855,0.65597 0.41587,0 0.41587,-0.31386 0.41587,-0.82232 0,-1.63055 0.23383,-1.69176 0.57124,-1.69176 0.23855,0 1.83299,0.40489 2.74007,0.64343 l 8.30652,2.06683 c 0.51474,0.13967 1.45792,0.3735 1.53167,0.3735 0.3688,0 0.4049,-0.33742 0.4049,-0.54613 l 0,-0.47237 c -0.4049,-2.37128 -1.73412,-6.06236 -4.9905,-9.562 -4.16189,-4.47576 -8.77261,-5.38911 -9.07236,-5.38911 -0.57595,0 -0.91336,0.40489 -0.91336,0.98711 0,0.26993 0.12241,1.0546 1.1158,1.32453 7.69291,2.1704 11.48758,7.32568 12.74461,11.18155 l -13.49318,-3.31758 z" /><text
   style="font-size:15px;display:inline"
   id="text3869"
   x="4.6967649"
   y="27.575159"><tspan
     id="tspan3871"
     y="27.575159"
     x="4.6967649"
     style="font-size:30px;font-variant:normal;font-weight:normal;writing-mode:lr-tb;fill:#000000;fill-opacity:1;fill-rule:nonzero;stroke:none;font-family:Bitstream Vera Sans;-inkscape-font-specification:BitstreamVeraSans-Roman">A</tspan></text>


<g
   transform="matrix(1.25,0,0,-1.25,0,512.54375)"
   style="display:inline"
   id="g8217"><path
     d="m 352.754,385.496 144.574,0 0,-70.844 -144.574,0 0,70.844 z"
     style="fill:#ffffff;fill-opacity:1;fill-rule:nonzero;stroke:#000000;stroke-width:1;stroke-linecap:square;stroke-linejoin:round;stroke-miterlimit:4;stroke-opacity:1;stroke-dasharray:none"
     id="path3699"
     inkscape:connector-curvature="0" /><path
     d="m 362.832,351.66 20.16,0"
     style="fill:none;stroke:#008000;stroke-width:2;stroke-linecap:square;stroke-linejoin:round;stroke-miterlimit:4;stroke-opacity:1;stroke-dasharray:none"
     id="path3701"
     inkscape:connector-curvature="0" /><path
     d="m 399.738,346.617 c -0.117,0 -0.176,0.066 -0.176,0.191 l 1.231,4.895 c 0.039,0.164 0.062,0.293 0.07,0.387 0,0.152 -0.308,0.23 -0.933,0.23 -0.098,0 -0.149,0.063 -0.149,0.192 0.004,0.023 0.016,0.066 0.031,0.125 0.02,0.062 0.04,0.109 0.063,0.14 0.027,0.031 0.063,0.051 0.113,0.051 l 1.938,0.152 c 0.117,0 0.176,-0.058 0.176,-0.179 l -1.414,-5.645 c 0.761,0.25 1.46,0.645 2.097,1.184 0.641,0.539 1.184,1.175 1.625,1.906 0.445,0.73 0.766,1.492 0.961,2.277 0.039,0.137 0.109,0.25 0.227,0.332 0.109,0.086 0.238,0.125 0.379,0.125 0.125,0 0.23,-0.035 0.308,-0.109 0.082,-0.078 0.121,-0.176 0.121,-0.305 0,-0.152 -0.062,-0.386 -0.191,-0.703 -0.125,-0.316 -0.25,-0.601 -0.371,-0.851 -0.379,-0.754 -0.883,-1.446 -1.512,-2.075 -0.394,-0.39 -0.82,-0.742 -1.27,-1.047 -0.457,-0.3 -0.925,-0.562 -1.417,-0.777 -0.493,-0.211 -1.012,-0.379 -1.563,-0.496 l -0.344,0 z"
     style="fill:#000000;fill-opacity:1;fill-rule:nonzero;stroke:none"
     id="path3703"
     inkscape:connector-curvature="0" /><path
     d="m 408.469,342.723 c -0.824,0 -1.383,0.339 -1.68,1.015 -0.297,0.68 -0.445,1.488 -0.445,2.422 0,0.582 0.051,1.133 0.156,1.648 0.105,0.516 0.32,0.954 0.637,1.313 0.316,0.359 0.761,0.539 1.332,0.539 0.441,0 0.804,-0.109 1.086,-0.328 0.281,-0.215 0.5,-0.496 0.644,-0.836 0.149,-0.344 0.25,-0.711 0.305,-1.106 0.055,-0.39 0.082,-0.8 0.082,-1.23 0,-0.578 -0.055,-1.117 -0.16,-1.621 -0.106,-0.504 -0.321,-0.934 -0.629,-1.285 -0.317,-0.356 -0.754,-0.531 -1.328,-0.531 m 0,0.261 c 0.375,0 0.652,0.192 0.836,0.574 0.183,0.387 0.297,0.813 0.34,1.278 0.043,0.465 0.066,0.961 0.066,1.488 0,0.504 -0.023,0.969 -0.066,1.395 -0.043,0.429 -0.157,0.816 -0.34,1.16 -0.18,0.347 -0.461,0.519 -0.836,0.519 -0.379,0 -0.664,-0.175 -0.848,-0.523 -0.183,-0.348 -0.297,-0.735 -0.34,-1.16 -0.043,-0.422 -0.062,-0.887 -0.062,-1.391 0,-0.375 0.008,-0.726 0.027,-1.059 0.016,-0.332 0.066,-0.675 0.145,-1.027 0.078,-0.355 0.207,-0.652 0.382,-0.89 0.176,-0.243 0.407,-0.364 0.696,-0.364"
     style="fill:#000000;fill-opacity:1;fill-rule:nonzero;stroke:none"
     id="path3705"
     inkscape:connector-curvature="0" /><path
     d="m 416.758,348.531 c -0.078,0 -0.145,0.031 -0.196,0.09 -0.05,0.062 -0.082,0.129 -0.082,0.199 0,0.078 0.032,0.145 0.082,0.203 0.051,0.055 0.118,0.086 0.196,0.086 l 9.043,0 c 0.07,0 0.133,-0.031 0.179,-0.086 0.055,-0.058 0.082,-0.125 0.082,-0.203 0,-0.07 -0.027,-0.137 -0.082,-0.199 -0.046,-0.059 -0.109,-0.09 -0.179,-0.09 l -9.043,0 z m 0,2.801 c -0.078,0 -0.145,0.027 -0.196,0.082 -0.05,0.059 -0.082,0.125 -0.082,0.203 0,0.07 0.032,0.137 0.082,0.195 0.051,0.063 0.118,0.094 0.196,0.094 l 9.043,0 c 0.07,0 0.133,-0.031 0.179,-0.094 0.055,-0.058 0.082,-0.125 0.082,-0.195 0,-0.078 -0.027,-0.144 -0.082,-0.203 -0.046,-0.055 -0.109,-0.082 -0.179,-0.082 l -9.043,0 z"
     style="fill:#000000;fill-opacity:1;fill-rule:nonzero;stroke:none"
     id="path3707"
     inkscape:connector-curvature="0" /><path
     d="m 429.48,343.019 0,14.399 1.969,0 0,-0.574 -1.387,0 0,-13.25 1.387,0 0,-0.575 -1.969,0 z"
     style="fill:#000000;fill-opacity:1;fill-rule:nonzero;stroke:none"
     id="path3709"
     inkscape:connector-curvature="0" /><path
     d="m 435.367,346.301 c -1.179,0 -1.976,0.484 -2.398,1.453 -0.426,0.969 -0.637,2.121 -0.637,3.457 0,0.836 0.074,1.617 0.227,2.355 0.152,0.735 0.453,1.36 0.906,1.871 0.453,0.516 1.086,0.774 1.902,0.774 0.633,0 1.153,-0.156 1.555,-0.465 0.402,-0.309 0.711,-0.711 0.922,-1.199 0.211,-0.489 0.355,-1.016 0.429,-1.574 0.079,-0.563 0.118,-1.149 0.118,-1.762 0,-0.824 -0.075,-1.598 -0.227,-2.317 -0.152,-0.722 -0.453,-1.332 -0.898,-1.836 -0.446,-0.503 -1.078,-0.757 -1.899,-0.757 m 0,0.375 c 0.535,0 0.934,0.273 1.195,0.82 0.262,0.551 0.426,1.156 0.489,1.824 0.054,0.664 0.09,1.371 0.09,2.121 0,0.723 -0.036,1.387 -0.09,1.996 -0.063,0.614 -0.227,1.164 -0.485,1.657 -0.261,0.496 -0.66,0.742 -1.199,0.742 -0.543,0 -0.945,-0.246 -1.207,-0.746 -0.262,-0.496 -0.43,-1.047 -0.484,-1.657 -0.063,-0.605 -0.094,-1.269 -0.094,-1.992 0,-0.531 0.012,-1.035 0.039,-1.511 0.027,-0.473 0.094,-0.961 0.207,-1.465 0.11,-0.504 0.297,-0.93 0.547,-1.274 0.25,-0.343 0.582,-0.515 0.992,-0.515"
     style="fill:#000000;fill-opacity:1;fill-rule:nonzero;stroke:none"
     id="path3711"
     inkscape:connector-curvature="0" /><path
     d="m 440.18,347.414 c 0,0.215 0.078,0.402 0.238,0.555 0.156,0.156 0.344,0.23 0.555,0.23 0.129,0 0.257,-0.035 0.382,-0.105 0.125,-0.071 0.231,-0.168 0.301,-0.293 0.071,-0.125 0.106,-0.254 0.106,-0.387 0,-0.211 -0.078,-0.395 -0.235,-0.555 -0.156,-0.16 -0.339,-0.242 -0.554,-0.242 -0.211,0 -0.399,0.082 -0.555,0.242 -0.16,0.16 -0.238,0.344 -0.238,0.555"
     style="fill:#000000;fill-opacity:1;fill-rule:nonzero;stroke:none"
     id="path3713"
     inkscape:connector-curvature="0" /><path
     d="m 443.797,346.617 0,0.391 c 0,0.023 0.008,0.047 0.027,0.074 l 2.235,2.476 c 0.339,0.364 0.613,0.672 0.82,0.918 0.215,0.25 0.422,0.536 0.629,0.86 0.207,0.324 0.367,0.656 0.488,0.988 0.121,0.336 0.18,0.691 0.18,1.066 0,0.395 -0.071,0.77 -0.219,1.129 -0.145,0.36 -0.359,0.645 -0.648,0.86 -0.289,0.219 -0.637,0.324 -1.043,0.324 -0.418,0 -0.793,-0.125 -1.125,-0.375 -0.336,-0.254 -0.571,-0.574 -0.707,-0.973 0.039,0.008 0.089,0.012 0.156,0.012 0.215,0 0.398,-0.07 0.551,-0.219 0.152,-0.144 0.23,-0.332 0.23,-0.562 0,-0.219 -0.078,-0.406 -0.23,-0.559 -0.153,-0.152 -0.336,-0.226 -0.551,-0.226 -0.223,0 -0.414,0.078 -0.567,0.234 -0.152,0.156 -0.226,0.34 -0.226,0.551 0,0.363 0.066,0.699 0.203,1.015 0.137,0.317 0.332,0.598 0.586,0.844 0.258,0.246 0.547,0.438 0.867,0.567 0.32,0.132 0.66,0.199 1.02,0.199 0.55,0 1.062,-0.117 1.531,-0.348 0.476,-0.234 0.851,-0.562 1.125,-0.988 0.281,-0.422 0.418,-0.918 0.418,-1.485 0,-0.417 -0.09,-0.812 -0.274,-1.187 -0.183,-0.375 -0.418,-0.719 -0.707,-1.027 -0.281,-0.305 -0.648,-0.653 -1.093,-1.043 -0.446,-0.387 -0.743,-0.649 -0.879,-0.778 l -1.629,-1.57 1.383,0 c 0.679,0 1.246,0.008 1.707,0.016 0.457,0.015 0.699,0.031 0.726,0.054 0.11,0.121 0.227,0.567 0.344,1.332 l 0.422,0 -0.406,-2.57 -5.344,0 z"
     style="fill:#000000;fill-opacity:1;fill-rule:nonzero;stroke:none"
     id="path3715"
     inkscape:connector-curvature="0" /><path
     d="m 451.531,348.258 c 0.098,-0.282 0.25,-0.535 0.449,-0.77 0.208,-0.226 0.45,-0.406 0.727,-0.535 0.281,-0.129 0.57,-0.191 0.871,-0.191 0.692,0 1.168,0.269 1.434,0.808 0.261,0.535 0.39,1.192 0.39,1.961 0,0.332 -0.004,0.613 -0.015,0.84 -0.012,0.227 -0.043,0.445 -0.094,0.656 -0.09,0.336 -0.246,0.633 -0.469,0.887 -0.222,0.254 -0.496,0.379 -0.82,0.379 -0.32,0 -0.598,-0.051 -0.832,-0.149 -0.234,-0.097 -0.422,-0.211 -0.567,-0.343 -0.144,-0.129 -0.273,-0.27 -0.386,-0.414 -0.114,-0.145 -0.184,-0.223 -0.211,-0.231 l -0.16,0 c -0.024,0 -0.055,0.016 -0.09,0.043 -0.035,0.031 -0.055,0.059 -0.055,0.09 l 0,4.809 c 0,0.023 0.016,0.046 0.047,0.074 0.031,0.027 0.062,0.039 0.098,0.039 l 0.043,0 c 0.644,-0.313 1.332,-0.465 2.058,-0.465 0.711,0 1.399,0.152 2.059,0.465 l 0.043,0 c 0.035,0 0.062,-0.012 0.09,-0.035 0.031,-0.024 0.043,-0.051 0.043,-0.078 l 0,-0.133 c 0,-0.047 -0.008,-0.071 -0.028,-0.071 -0.328,-0.437 -0.738,-0.777 -1.234,-1.023 -0.496,-0.242 -1.008,-0.363 -1.535,-0.363 -0.387,0 -0.782,0.054 -1.184,0.16 l 0,-2.719 c 0.32,0.258 0.606,0.441 0.856,0.551 0.25,0.113 0.57,0.168 0.961,0.168 0.531,0 1.003,-0.153 1.418,-0.461 0.425,-0.305 0.746,-0.699 0.972,-1.192 0.223,-0.488 0.336,-0.988 0.336,-1.5 0,-0.574 -0.141,-1.109 -0.426,-1.601 -0.281,-0.492 -0.668,-0.887 -1.156,-1.176 -0.484,-0.289 -1.016,-0.437 -1.586,-0.437 -0.476,0 -0.91,0.121 -1.305,0.367 -0.398,0.242 -0.711,0.57 -0.937,0.984 -0.231,0.41 -0.34,0.852 -0.34,1.317 0,0.214 0.07,0.39 0.211,0.527 0.141,0.137 0.316,0.203 0.523,0.203 0.215,0 0.391,-0.07 0.536,-0.211 0.14,-0.137 0.214,-0.308 0.214,-0.519 0,-0.207 -0.074,-0.383 -0.214,-0.524 -0.145,-0.144 -0.321,-0.215 -0.536,-0.215 -0.031,0 -0.066,0.004 -0.109,0.008 -0.043,0.008 -0.074,0.016 -0.09,0.02"
     style="fill:#000000;fill-opacity:1;fill-rule:nonzero;stroke:none"
     id="path3717"
     inkscape:connector-curvature="0" /><path
     d="m 458.906,344.023 c 0,0.043 0.016,0.082 0.055,0.121 0.348,0.332 0.617,0.719 0.809,1.153 0.195,0.437 0.289,0.894 0.289,1.379 l 0,0.175 c -0.153,-0.156 -0.348,-0.234 -0.579,-0.234 -0.218,0 -0.406,0.078 -0.558,0.234 -0.156,0.153 -0.234,0.34 -0.234,0.563 0,0.223 0.078,0.41 0.234,0.562 0.152,0.149 0.34,0.223 0.558,0.223 0.344,0 0.59,-0.156 0.735,-0.473 0.14,-0.316 0.219,-0.668 0.219,-1.05 0,-0.536 -0.11,-1.043 -0.329,-1.524 -0.207,-0.48 -0.507,-0.914 -0.898,-1.297 -0.035,-0.019 -0.066,-0.027 -0.09,-0.027 -0.047,0 -0.094,0.02 -0.144,0.062 -0.043,0.043 -0.067,0.086 -0.067,0.133"
     style="fill:#000000;fill-opacity:1;fill-rule:nonzero;stroke:none"
     id="path3719"
     inkscape:connector-curvature="0" /><path
     d="m 465.352,346.301 c -1.176,0 -1.977,0.484 -2.403,1.453 -0.426,0.969 -0.637,2.121 -0.637,3.457 0,0.836 0.079,1.617 0.227,2.355 0.149,0.735 0.457,1.36 0.906,1.871 0.453,0.516 1.09,0.774 1.907,0.774 0.628,0 1.148,-0.156 1.55,-0.465 0.403,-0.309 0.711,-0.711 0.922,-1.199 0.211,-0.489 0.356,-1.016 0.434,-1.574 0.078,-0.563 0.117,-1.149 0.117,-1.762 0,-0.824 -0.078,-1.598 -0.23,-2.317 -0.153,-0.722 -0.45,-1.332 -0.895,-1.836 -0.445,-0.503 -1.078,-0.757 -1.898,-0.757 m 0,0.375 c 0.531,0 0.929,0.273 1.195,0.82 0.262,0.551 0.422,1.156 0.484,1.824 0.063,0.664 0.094,1.371 0.094,2.121 0,0.723 -0.031,1.387 -0.094,1.996 -0.062,0.614 -0.222,1.164 -0.484,1.657 -0.258,0.496 -0.656,0.742 -1.195,0.742 -0.543,0 -0.946,-0.246 -1.211,-0.746 -0.262,-0.496 -0.422,-1.047 -0.485,-1.657 -0.062,-0.605 -0.094,-1.269 -0.094,-1.992 0,-0.531 0.016,-1.035 0.04,-1.511 0.027,-0.473 0.097,-0.961 0.21,-1.465 0.114,-0.504 0.293,-0.93 0.543,-1.274 0.25,-0.343 0.583,-0.515 0.997,-0.515"
     style="fill:#000000;fill-opacity:1;fill-rule:nonzero;stroke:none"
     id="path3721"
     inkscape:connector-curvature="0" /><path
     d="m 470.16,347.414 c 0,0.215 0.082,0.402 0.238,0.555 0.161,0.156 0.344,0.23 0.559,0.23 0.129,0 0.258,-0.035 0.383,-0.105 0.129,-0.071 0.226,-0.168 0.297,-0.293 0.07,-0.125 0.105,-0.254 0.105,-0.387 0,-0.211 -0.078,-0.395 -0.234,-0.555 -0.153,-0.16 -0.34,-0.242 -0.551,-0.242 -0.215,0 -0.398,0.082 -0.559,0.242 -0.156,0.16 -0.238,0.344 -0.238,0.555"
     style="fill:#000000;fill-opacity:1;fill-rule:nonzero;stroke:none"
     id="path3723"
     inkscape:connector-curvature="0" /><path
     d="m 473.461,348.996 0,0.504 4.449,6.64 c 0.035,0.047 0.086,0.071 0.149,0.071 l 0.214,0 c 0.106,0 0.161,-0.055 0.161,-0.164 l 0,-6.547 1.414,0 0,-0.504 -1.414,0 0,-1.414 c 0,-0.195 0.14,-0.32 0.421,-0.375 0.282,-0.055 0.606,-0.082 0.977,-0.082 l 0,-0.508 -3.965,0 0,0.508 c 0.371,0 0.695,0.027 0.977,0.082 0.281,0.055 0.422,0.18 0.422,0.375 l 0,1.414 -3.805,0 z m 0.477,0.504 3.41,0 0,5.101 -3.41,-5.101 z"
     style="fill:#000000;fill-opacity:1;fill-rule:nonzero;stroke:none"
     id="path3725"
     inkscape:connector-curvature="0" /><path
     d="m 480.578,343.019 0,0.575 1.399,0 0,13.25 -1.399,0 0,0.574 1.977,0 0,-14.399 -1.977,0 z"
     style="fill:#000000;fill-opacity:1;fill-rule:nonzero;stroke:none"
     id="path3727"
     inkscape:connector-curvature="0" /><path
     d="m 362.832,329.031 20.16,0"
     style="fill:none;stroke:#0000ff;stroke-width:2;stroke-linecap:butt;stroke-linejoin:round;stroke-miterlimit:4;stroke-opacity:1;stroke-dasharray:none"
     id="path3735"
     inkscape:connector-curvature="0" /><path
     d="m 399.738,323.992 c -0.117,0 -0.176,0.063 -0.176,0.188 l 1.231,4.894 c 0.039,0.164 0.062,0.293 0.07,0.387 0,0.156 -0.308,0.234 -0.933,0.234 -0.098,0 -0.149,0.063 -0.149,0.188 0.004,0.023 0.016,0.066 0.031,0.129 0.02,0.058 0.04,0.105 0.063,0.136 0.027,0.035 0.063,0.051 0.113,0.051 l 1.938,0.156 c 0.117,0 0.176,-0.062 0.176,-0.183 l -1.414,-5.645 c 0.761,0.254 1.46,0.649 2.097,1.188 0.641,0.539 1.184,1.172 1.625,1.902 0.445,0.734 0.766,1.492 0.961,2.281 0.039,0.137 0.109,0.246 0.227,0.332 0.109,0.082 0.238,0.125 0.379,0.125 0.125,0 0.23,-0.039 0.308,-0.113 0.082,-0.074 0.121,-0.176 0.121,-0.301 0,-0.156 -0.062,-0.39 -0.191,-0.707 -0.125,-0.316 -0.25,-0.597 -0.371,-0.847 -0.379,-0.754 -0.883,-1.446 -1.512,-2.075 -0.394,-0.394 -0.82,-0.742 -1.27,-1.047 -0.457,-0.304 -0.925,-0.562 -1.417,-0.777 -0.493,-0.215 -1.012,-0.379 -1.563,-0.496 l -0.344,0 z"
     style="fill:#000000;fill-opacity:1;fill-rule:nonzero;stroke:none"
     id="path3737"
     inkscape:connector-curvature="0" /><path
     d="m 408.469,320.098 c -0.824,0 -1.383,0.335 -1.68,1.015 -0.297,0.676 -0.445,1.485 -0.445,2.422 0,0.582 0.051,1.133 0.156,1.645 0.105,0.515 0.32,0.953 0.637,1.312 0.316,0.359 0.761,0.539 1.332,0.539 0.441,0 0.804,-0.105 1.086,-0.324 0.281,-0.215 0.5,-0.496 0.644,-0.84 0.149,-0.344 0.25,-0.711 0.305,-1.102 0.055,-0.39 0.082,-0.804 0.082,-1.23 0,-0.578 -0.055,-1.121 -0.16,-1.625 -0.106,-0.504 -0.321,-0.93 -0.629,-1.285 -0.317,-0.352 -0.754,-0.527 -1.328,-0.527 m 0,0.261 c 0.375,0 0.652,0.192 0.836,0.574 0.183,0.383 0.297,0.809 0.34,1.274 0.043,0.469 0.066,0.965 0.066,1.488 0,0.504 -0.023,0.973 -0.066,1.399 -0.043,0.425 -0.157,0.812 -0.34,1.156 -0.18,0.348 -0.461,0.519 -0.836,0.519 -0.379,0 -0.664,-0.171 -0.848,-0.519 -0.183,-0.348 -0.297,-0.735 -0.34,-1.16 -0.043,-0.426 -0.062,-0.891 -0.062,-1.395 0,-0.375 0.008,-0.726 0.027,-1.058 0.016,-0.332 0.066,-0.672 0.145,-1.028 0.078,-0.351 0.207,-0.648 0.382,-0.89 0.176,-0.243 0.407,-0.36 0.696,-0.36"
     style="fill:#000000;fill-opacity:1;fill-rule:nonzero;stroke:none"
     id="path3739"
     inkscape:connector-curvature="0" /><path
     d="m 416.758,325.906 c -0.078,0 -0.145,0.027 -0.196,0.09 -0.05,0.059 -0.082,0.125 -0.082,0.195 0,0.082 0.032,0.149 0.082,0.203 0.051,0.059 0.118,0.086 0.196,0.086 l 9.043,0 c 0.07,0 0.133,-0.027 0.179,-0.086 0.055,-0.054 0.082,-0.121 0.082,-0.203 0,-0.07 -0.027,-0.136 -0.082,-0.195 -0.046,-0.063 -0.109,-0.09 -0.179,-0.09 l -9.043,0 z m 0,2.797 c -0.078,0 -0.145,0.027 -0.196,0.082 -0.05,0.059 -0.082,0.125 -0.082,0.207 0,0.07 0.032,0.137 0.082,0.195 0.051,0.063 0.118,0.094 0.196,0.094 l 9.043,0 c 0.07,0 0.133,-0.031 0.179,-0.094 0.055,-0.058 0.082,-0.125 0.082,-0.195 0,-0.082 -0.027,-0.148 -0.082,-0.207 -0.046,-0.055 -0.109,-0.082 -0.179,-0.082 l -9.043,0 z"
     style="fill:#000000;fill-opacity:1;fill-rule:nonzero;stroke:none"
     id="path3741"
     inkscape:connector-curvature="0" /><path
     d="m 429.48,320.39 0,14.403 1.969,0 0,-0.578 -1.387,0 0,-13.246 1.387,0 0,-0.579 -1.969,0 z"
     style="fill:#000000;fill-opacity:1;fill-rule:nonzero;stroke:none"
     id="path3743"
     inkscape:connector-curvature="0" /><path
     d="m 435.367,323.676 c -1.179,0 -1.976,0.484 -2.398,1.449 -0.426,0.969 -0.637,2.121 -0.637,3.461 0,0.832 0.074,1.617 0.227,2.351 0.152,0.739 0.453,1.364 0.906,1.875 0.453,0.516 1.086,0.77 1.902,0.77 0.633,0 1.153,-0.152 1.555,-0.465 0.402,-0.309 0.711,-0.707 0.922,-1.199 0.211,-0.488 0.355,-1.012 0.429,-1.574 0.079,-0.559 0.118,-1.145 0.118,-1.758 0,-0.828 -0.075,-1.598 -0.227,-2.321 -0.152,-0.718 -0.453,-1.332 -0.898,-1.835 -0.446,-0.504 -1.078,-0.754 -1.899,-0.754 m 0,0.371 c 0.535,0 0.934,0.273 1.195,0.824 0.262,0.547 0.426,1.156 0.489,1.82 0.054,0.668 0.09,1.375 0.09,2.125 0,0.723 -0.036,1.387 -0.09,1.996 -0.063,0.61 -0.227,1.161 -0.485,1.657 -0.261,0.492 -0.66,0.742 -1.199,0.742 -0.543,0 -0.945,-0.25 -1.207,-0.746 -0.262,-0.5 -0.43,-1.051 -0.484,-1.657 -0.063,-0.605 -0.094,-1.269 -0.094,-1.992 0,-0.535 0.012,-1.039 0.039,-1.511 0.027,-0.477 0.094,-0.965 0.207,-1.469 0.11,-0.504 0.297,-0.926 0.547,-1.274 0.25,-0.343 0.582,-0.515 0.992,-0.515"
     style="fill:#000000;fill-opacity:1;fill-rule:nonzero;stroke:none"
     id="path3745"
     inkscape:connector-curvature="0" /><path
     d="m 440.18,324.785 c 0,0.219 0.078,0.402 0.238,0.559 0.156,0.152 0.344,0.23 0.555,0.23 0.129,0 0.257,-0.035 0.382,-0.105 0.125,-0.071 0.231,-0.168 0.301,-0.297 0.071,-0.125 0.106,-0.254 0.106,-0.387 0,-0.207 -0.078,-0.395 -0.235,-0.555 -0.156,-0.16 -0.339,-0.238 -0.554,-0.238 -0.211,0 -0.399,0.078 -0.555,0.238 -0.16,0.16 -0.238,0.348 -0.238,0.555"
     style="fill:#000000;fill-opacity:1;fill-rule:nonzero;stroke:none"
     id="path3747"
     inkscape:connector-curvature="0" /><path
     d="m 444.414,323.992 0,0.508 c 1.199,0 1.801,0.152 1.801,0.453 l 0,7.562 c -0.496,-0.242 -1.125,-0.359 -1.887,-0.359 l 0,0.504 c 1.18,0 2.067,0.309 2.668,0.922 l 0.203,0 c 0.031,0 0.063,-0.012 0.094,-0.039 0.031,-0.024 0.047,-0.055 0.047,-0.086 l 0,-8.504 c 0,-0.301 0.598,-0.453 1.801,-0.453 l 0,-0.508 -4.727,0 z"
     style="fill:#000000;fill-opacity:1;fill-rule:nonzero;stroke:none"
     id="path3749"
     inkscape:connector-curvature="0" /><path
     d="m 451.531,325.629 c 0.098,-0.281 0.25,-0.535 0.449,-0.766 0.208,-0.23 0.45,-0.41 0.727,-0.539 0.281,-0.125 0.57,-0.191 0.871,-0.191 0.692,0 1.168,0.269 1.434,0.808 0.261,0.539 0.39,1.192 0.39,1.961 0,0.336 -0.004,0.613 -0.015,0.84 -0.012,0.231 -0.043,0.449 -0.094,0.656 -0.09,0.34 -0.246,0.633 -0.469,0.887 -0.222,0.254 -0.496,0.383 -0.82,0.383 -0.32,0 -0.598,-0.051 -0.832,-0.149 -0.234,-0.097 -0.422,-0.214 -0.567,-0.347 -0.144,-0.129 -0.273,-0.266 -0.386,-0.414 -0.114,-0.145 -0.184,-0.223 -0.211,-0.231 l -0.16,0 c -0.024,0 -0.055,0.016 -0.09,0.047 -0.035,0.027 -0.055,0.059 -0.055,0.086 l 0,4.813 c 0,0.019 0.016,0.046 0.047,0.07 0.031,0.027 0.062,0.039 0.098,0.039 l 0.043,0 c 0.644,-0.309 1.332,-0.465 2.058,-0.465 0.711,0 1.399,0.156 2.059,0.465 l 0.043,0 c 0.035,0 0.062,-0.012 0.09,-0.035 0.031,-0.024 0.043,-0.047 0.043,-0.074 l 0,-0.137 c 0,-0.047 -0.008,-0.071 -0.028,-0.071 -0.328,-0.437 -0.738,-0.777 -1.234,-1.019 -0.496,-0.242 -1.008,-0.367 -1.535,-0.367 -0.387,0 -0.782,0.054 -1.184,0.164 l 0,-2.723 c 0.32,0.262 0.606,0.445 0.856,0.555 0.25,0.109 0.57,0.164 0.961,0.164 0.531,0 1.003,-0.152 1.418,-0.457 0.425,-0.305 0.746,-0.703 0.972,-1.195 0.223,-0.489 0.336,-0.989 0.336,-1.497 0,-0.578 -0.141,-1.113 -0.426,-1.605 -0.281,-0.492 -0.668,-0.883 -1.156,-1.176 -0.484,-0.289 -1.016,-0.433 -1.586,-0.433 -0.476,0 -0.91,0.121 -1.305,0.363 -0.398,0.246 -0.711,0.574 -0.937,0.984 -0.231,0.414 -0.34,0.852 -0.34,1.317 0,0.218 0.07,0.394 0.211,0.527 0.141,0.137 0.316,0.203 0.523,0.203 0.215,0 0.391,-0.066 0.536,-0.207 0.14,-0.137 0.214,-0.312 0.214,-0.523 0,-0.207 -0.074,-0.379 -0.214,-0.524 -0.145,-0.14 -0.321,-0.215 -0.536,-0.215 -0.031,0 -0.066,0.004 -0.109,0.012 -0.043,0.008 -0.074,0.012 -0.09,0.016"
     style="fill:#000000;fill-opacity:1;fill-rule:nonzero;stroke:none"
     id="path3751"
     inkscape:connector-curvature="0" /><path
     d="m 458.906,321.398 c 0,0.043 0.016,0.082 0.055,0.117 0.348,0.336 0.617,0.719 0.809,1.157 0.195,0.433 0.289,0.894 0.289,1.375 l 0,0.176 c -0.153,-0.153 -0.348,-0.231 -0.579,-0.231 -0.218,0 -0.406,0.078 -0.558,0.231 -0.156,0.156 -0.234,0.343 -0.234,0.562 0,0.227 0.078,0.414 0.234,0.563 0.152,0.152 0.34,0.226 0.558,0.226 0.344,0 0.59,-0.16 0.735,-0.476 0.14,-0.317 0.219,-0.665 0.219,-1.051 0,-0.532 -0.11,-1.039 -0.329,-1.52 -0.207,-0.48 -0.507,-0.914 -0.898,-1.297 -0.035,-0.019 -0.066,-0.031 -0.09,-0.031 -0.047,0 -0.094,0.024 -0.144,0.066 -0.043,0.043 -0.067,0.086 -0.067,0.133"
     style="fill:#000000;fill-opacity:1;fill-rule:nonzero;stroke:none"
     id="path3753"
     inkscape:connector-curvature="0" /><path
     d="m 465.352,323.676 c -1.176,0 -1.977,0.484 -2.403,1.449 -0.426,0.969 -0.637,2.121 -0.637,3.461 0,0.832 0.079,1.617 0.227,2.351 0.149,0.739 0.457,1.364 0.906,1.875 0.453,0.516 1.09,0.77 1.907,0.77 0.628,0 1.148,-0.152 1.55,-0.465 0.403,-0.309 0.711,-0.707 0.922,-1.199 0.211,-0.488 0.356,-1.012 0.434,-1.574 0.078,-0.559 0.117,-1.145 0.117,-1.758 0,-0.828 -0.078,-1.598 -0.23,-2.321 -0.153,-0.718 -0.45,-1.332 -0.895,-1.835 -0.445,-0.504 -1.078,-0.754 -1.898,-0.754 m 0,0.371 c 0.531,0 0.929,0.273 1.195,0.824 0.262,0.547 0.422,1.156 0.484,1.82 0.063,0.668 0.094,1.375 0.094,2.125 0,0.723 -0.031,1.387 -0.094,1.996 -0.062,0.61 -0.222,1.161 -0.484,1.657 -0.258,0.492 -0.656,0.742 -1.195,0.742 -0.543,0 -0.946,-0.25 -1.211,-0.746 -0.262,-0.5 -0.422,-1.051 -0.485,-1.657 -0.062,-0.605 -0.094,-1.269 -0.094,-1.992 0,-0.535 0.016,-1.039 0.04,-1.511 0.027,-0.477 0.097,-0.965 0.21,-1.469 0.114,-0.504 0.293,-0.926 0.543,-1.274 0.25,-0.343 0.583,-0.515 0.997,-0.515"
     style="fill:#000000;fill-opacity:1;fill-rule:nonzero;stroke:none"
     id="path3755"
     inkscape:connector-curvature="0" /><path
     d="m 470.16,324.785 c 0,0.219 0.082,0.402 0.238,0.559 0.161,0.152 0.344,0.23 0.559,0.23 0.129,0 0.258,-0.035 0.383,-0.105 0.129,-0.071 0.226,-0.168 0.297,-0.297 0.07,-0.125 0.105,-0.254 0.105,-0.387 0,-0.207 -0.078,-0.395 -0.234,-0.555 -0.153,-0.16 -0.34,-0.238 -0.551,-0.238 -0.215,0 -0.398,0.078 -0.559,0.238 -0.156,0.16 -0.238,0.348 -0.238,0.555"
     style="fill:#000000;fill-opacity:1;fill-rule:nonzero;stroke:none"
     id="path3757"
     inkscape:connector-curvature="0" /><path
     d="m 473.777,323.992 0,0.387 c 0,0.023 0.012,0.051 0.028,0.078 l 2.238,2.473 c 0.336,0.367 0.609,0.671 0.82,0.921 0.211,0.25 0.418,0.536 0.625,0.86 0.207,0.324 0.367,0.652 0.492,0.988 0.118,0.332 0.18,0.688 0.18,1.063 0,0.394 -0.074,0.773 -0.222,1.128 -0.141,0.36 -0.36,0.649 -0.649,0.864 -0.285,0.215 -0.633,0.324 -1.043,0.324 -0.418,0 -0.793,-0.125 -1.125,-0.379 -0.332,-0.25 -0.566,-0.574 -0.703,-0.973 0.035,0.012 0.09,0.016 0.156,0.016 0.215,0 0.399,-0.074 0.551,-0.219 0.152,-0.144 0.227,-0.332 0.227,-0.562 0,-0.223 -0.075,-0.406 -0.227,-0.563 -0.152,-0.148 -0.336,-0.226 -0.551,-0.226 -0.226,0 -0.414,0.078 -0.57,0.234 -0.149,0.156 -0.227,0.344 -0.227,0.555 0,0.359 0.071,0.699 0.203,1.015 0.137,0.317 0.332,0.598 0.586,0.844 0.258,0.246 0.547,0.434 0.868,0.567 0.32,0.132 0.664,0.195 1.023,0.195 0.547,0 1.059,-0.113 1.531,-0.348 0.473,-0.23 0.848,-0.558 1.125,-0.984 0.278,-0.422 0.418,-0.918 0.418,-1.488 0,-0.418 -0.093,-0.813 -0.277,-1.188 -0.184,-0.375 -0.418,-0.715 -0.703,-1.023 -0.285,-0.305 -0.649,-0.653 -1.098,-1.043 -0.445,-0.391 -0.734,-0.649 -0.875,-0.782 l -1.633,-1.566 1.383,0 c 0.68,0 1.25,0.004 1.707,0.016 0.457,0.011 0.695,0.031 0.727,0.054 0.113,0.121 0.226,0.563 0.343,1.328 l 0.426,0 -0.41,-2.566 -5.344,0 z"
     style="fill:#000000;fill-opacity:1;fill-rule:nonzero;stroke:none"
     id="path3759"
     inkscape:connector-curvature="0" /><path
     d="m 481.512,325.629 c 0.093,-0.281 0.25,-0.535 0.453,-0.766 0.207,-0.23 0.445,-0.41 0.723,-0.539 0.281,-0.125 0.57,-0.191 0.871,-0.191 0.695,0 1.171,0.269 1.433,0.808 0.262,0.539 0.395,1.192 0.395,1.961 0,0.336 -0.008,0.613 -0.02,0.84 -0.012,0.231 -0.039,0.449 -0.094,0.656 -0.089,0.34 -0.246,0.633 -0.468,0.887 -0.223,0.254 -0.493,0.383 -0.817,0.383 -0.324,0 -0.601,-0.051 -0.836,-0.149 -0.23,-0.097 -0.422,-0.214 -0.566,-0.347 -0.148,-0.129 -0.27,-0.266 -0.383,-0.414 -0.113,-0.145 -0.183,-0.223 -0.211,-0.231 l -0.164,0 c -0.023,0 -0.055,0.016 -0.09,0.047 -0.035,0.027 -0.05,0.059 -0.05,0.086 l 0,4.813 c 0,0.019 0.015,0.046 0.042,0.07 0.036,0.027 0.067,0.039 0.098,0.039 l 0.043,0 c 0.649,-0.309 1.332,-0.465 2.059,-0.465 0.715,0 1.398,0.156 2.062,0.465 l 0.043,0 c 0.031,0 0.063,-0.012 0.09,-0.035 0.027,-0.024 0.043,-0.047 0.043,-0.074 l 0,-0.137 c 0,-0.047 -0.012,-0.071 -0.027,-0.071 -0.329,-0.437 -0.743,-0.777 -1.235,-1.019 -0.496,-0.242 -1.008,-0.367 -1.539,-0.367 -0.387,0 -0.777,0.054 -1.179,0.164 l 0,-2.723 c 0.32,0.262 0.605,0.445 0.855,0.555 0.25,0.109 0.57,0.164 0.961,0.164 0.527,0 1.004,-0.152 1.422,-0.457 0.418,-0.305 0.742,-0.703 0.965,-1.195 0.226,-0.489 0.339,-0.989 0.339,-1.497 0,-0.578 -0.144,-1.113 -0.425,-1.605 -0.285,-0.492 -0.668,-0.883 -1.157,-1.176 -0.488,-0.289 -1.019,-0.433 -1.589,-0.433 -0.473,0 -0.911,0.121 -1.305,0.363 -0.399,0.246 -0.707,0.574 -0.938,0.984 -0.226,0.414 -0.339,0.852 -0.339,1.317 0,0.218 0.07,0.394 0.211,0.527 0.14,0.137 0.316,0.203 0.527,0.203 0.215,0 0.39,-0.066 0.531,-0.207 0.145,-0.137 0.215,-0.312 0.215,-0.523 0,-0.207 -0.07,-0.379 -0.215,-0.524 -0.141,-0.14 -0.316,-0.215 -0.531,-0.215 -0.031,0 -0.07,0.004 -0.11,0.012 -0.043,0.008 -0.074,0.012 -0.093,0.016"
     style="fill:#000000;fill-opacity:1;fill-rule:nonzero;stroke:none"
     id="path3761"
     inkscape:connector-curvature="0" /><path
     d="m 487.777,320.39 0,0.579 1.399,0 0,13.246 -1.399,0 0,0.578 1.977,0 0,-14.403 -1.977,0 z"
     style="fill:#000000;fill-opacity:1;fill-rule:nonzero;stroke:none"
     id="path3763"
     inkscape:connector-curvature="0" /><path
     d="m 399.738,369.246 c -0.117,0 -0.176,0.062 -0.176,0.187 l 1.231,4.895 c 0.039,0.164 0.062,0.293 0.07,0.387 0,0.156 -0.308,0.234 -0.933,0.234 -0.098,0 -0.149,0.063 -0.149,0.191 0.004,0.02 0.016,0.063 0.031,0.125 0.02,0.063 0.04,0.106 0.063,0.141 0.027,0.031 0.063,0.047 0.113,0.047 l 1.938,0.156 c 0.117,0 0.176,-0.062 0.176,-0.183 l -1.414,-5.645 c 0.761,0.254 1.46,0.649 2.097,1.188 0.641,0.539 1.184,1.171 1.625,1.906 0.445,0.73 0.766,1.488 0.961,2.277 0.039,0.137 0.109,0.246 0.227,0.332 0.109,0.082 0.238,0.125 0.379,0.125 0.125,0 0.23,-0.039 0.308,-0.113 0.082,-0.074 0.121,-0.176 0.121,-0.301 0,-0.156 -0.062,-0.39 -0.191,-0.707 -0.125,-0.316 -0.25,-0.598 -0.371,-0.848 -0.379,-0.753 -0.883,-1.445 -1.512,-2.074 -0.394,-0.394 -0.82,-0.742 -1.27,-1.047 -0.457,-0.304 -0.925,-0.562 -1.417,-0.777 -0.493,-0.215 -1.012,-0.379 -1.563,-0.496 l -0.344,0 z"
     style="fill:#000000;fill-opacity:1;fill-rule:nonzero;stroke:none"
     id="path3765"
     inkscape:connector-curvature="0" /><path
     d="m 408.469,365.351 c -0.824,0 -1.383,0.336 -1.68,1.016 -0.297,0.676 -0.445,1.484 -0.445,2.422 0,0.582 0.051,1.133 0.156,1.644 0.105,0.516 0.32,0.954 0.637,1.313 0.316,0.359 0.761,0.539 1.332,0.539 0.441,0 0.804,-0.105 1.086,-0.324 0.281,-0.215 0.5,-0.496 0.644,-0.84 0.149,-0.344 0.25,-0.711 0.305,-1.102 0.055,-0.39 0.082,-0.804 0.082,-1.23 0,-0.578 -0.055,-1.121 -0.16,-1.625 -0.106,-0.504 -0.321,-0.93 -0.629,-1.285 -0.317,-0.352 -0.754,-0.528 -1.328,-0.528 m 0,0.262 c 0.375,0 0.652,0.192 0.836,0.574 0.183,0.383 0.297,0.809 0.34,1.274 0.043,0.469 0.066,0.965 0.066,1.488 0,0.504 -0.023,0.973 -0.066,1.399 -0.043,0.425 -0.157,0.812 -0.34,1.156 -0.18,0.347 -0.461,0.523 -0.836,0.523 -0.379,0 -0.664,-0.176 -0.848,-0.523 -0.183,-0.348 -0.297,-0.735 -0.34,-1.16 -0.043,-0.426 -0.062,-0.891 -0.062,-1.395 0,-0.375 0.008,-0.726 0.027,-1.059 0.016,-0.332 0.066,-0.671 0.145,-1.027 0.078,-0.351 0.207,-0.648 0.382,-0.89 0.176,-0.243 0.407,-0.36 0.696,-0.36"
     style="fill:#000000;fill-opacity:1;fill-rule:nonzero;stroke:none"
     id="path3767"
     inkscape:connector-curvature="0" /><path
     d="m 416.758,371.16 c -0.078,0 -0.145,0.027 -0.196,0.09 -0.05,0.058 -0.082,0.125 -0.082,0.195 0,0.082 0.032,0.149 0.082,0.203 0.051,0.059 0.118,0.086 0.196,0.086 l 9.043,0 c 0.07,0 0.133,-0.027 0.179,-0.086 0.055,-0.054 0.082,-0.121 0.082,-0.203 0,-0.07 -0.027,-0.137 -0.082,-0.195 -0.046,-0.063 -0.109,-0.09 -0.179,-0.09 l -9.043,0 z m 0,2.797 c -0.078,0 -0.145,0.027 -0.196,0.082 -0.05,0.059 -0.082,0.129 -0.082,0.207 0,0.07 0.032,0.137 0.082,0.195 0.051,0.063 0.118,0.094 0.196,0.094 l 9.043,0 c 0.07,0 0.133,-0.031 0.179,-0.094 0.055,-0.058 0.082,-0.125 0.082,-0.195 0,-0.078 -0.027,-0.148 -0.082,-0.207 -0.046,-0.055 -0.109,-0.082 -0.179,-0.082 l -9.043,0 z"
     style="fill:#000000;fill-opacity:1;fill-rule:nonzero;stroke:none"
     id="path3769"
     inkscape:connector-curvature="0" /><path
     d="m 429.48,365.644 0,14.403 1.969,0 0,-0.578 -1.387,0 0,-13.246 1.387,0 0,-0.579 -1.969,0 z"
     style="fill:#000000;fill-opacity:1;fill-rule:nonzero;stroke:none"
     id="path3771"
     inkscape:connector-curvature="0" /><path
     d="m 435.367,368.93 c -1.179,0 -1.976,0.484 -2.398,1.449 -0.426,0.969 -0.637,2.121 -0.637,3.461 0,0.832 0.074,1.617 0.227,2.351 0.152,0.739 0.453,1.364 0.906,1.875 0.453,0.516 1.086,0.77 1.902,0.77 0.633,0 1.153,-0.153 1.555,-0.465 0.402,-0.309 0.711,-0.707 0.922,-1.199 0.211,-0.489 0.355,-1.012 0.429,-1.574 0.079,-0.559 0.118,-1.145 0.118,-1.758 0,-0.828 -0.075,-1.598 -0.227,-2.321 -0.152,-0.718 -0.453,-1.332 -0.898,-1.836 -0.446,-0.503 -1.078,-0.753 -1.899,-0.753 m 0,0.371 c 0.535,0 0.934,0.273 1.195,0.824 0.262,0.547 0.426,1.156 0.489,1.82 0.054,0.668 0.09,1.375 0.09,2.125 0,0.723 -0.036,1.387 -0.09,1.996 -0.063,0.61 -0.227,1.16 -0.485,1.657 -0.261,0.496 -0.66,0.742 -1.199,0.742 -0.543,0 -0.945,-0.25 -1.207,-0.746 -0.262,-0.496 -0.43,-1.051 -0.484,-1.657 -0.063,-0.605 -0.094,-1.269 -0.094,-1.992 0,-0.535 0.012,-1.039 0.039,-1.512 0.027,-0.472 0.094,-0.964 0.207,-1.468 0.11,-0.504 0.297,-0.926 0.547,-1.274 0.25,-0.343 0.582,-0.515 0.992,-0.515"
     style="fill:#000000;fill-opacity:1;fill-rule:nonzero;stroke:none"
     id="path3773"
     inkscape:connector-curvature="0" /><path
     d="m 440.18,370.039 c 0,0.219 0.078,0.402 0.238,0.559 0.156,0.152 0.344,0.23 0.555,0.23 0.129,0 0.257,-0.035 0.382,-0.105 0.125,-0.071 0.231,-0.168 0.301,-0.297 0.071,-0.125 0.106,-0.254 0.106,-0.387 0,-0.207 -0.078,-0.395 -0.235,-0.555 -0.156,-0.16 -0.339,-0.238 -0.554,-0.238 -0.211,0 -0.399,0.078 -0.555,0.238 -0.16,0.16 -0.238,0.348 -0.238,0.555"
     style="fill:#000000;fill-opacity:1;fill-rule:nonzero;stroke:none"
     id="path3775"
     inkscape:connector-curvature="0" /><path
     d="m 443.48,371.621 0,0.508 4.45,6.636 c 0.031,0.047 0.082,0.071 0.148,0.071 l 0.211,0 c 0.109,0 0.164,-0.051 0.164,-0.16 l 0,-6.547 1.41,0 0,-0.508 -1.41,0 0,-1.41 c 0,-0.199 0.137,-0.324 0.418,-0.379 0.281,-0.051 0.609,-0.078 0.977,-0.078 l 0,-0.508 -3.965,0 0,0.508 c 0.371,0 0.695,0.027 0.972,0.078 0.286,0.055 0.43,0.18 0.43,0.379 l 0,1.41 -3.805,0 z m 0.477,0.508 3.41,0 0,5.097 -3.41,-5.097 z"
     style="fill:#000000;fill-opacity:1;fill-rule:nonzero;stroke:none"
     id="path3777"
     inkscape:connector-curvature="0" /><path
     d="m 451.703,366.652 c 0,0.043 0.02,0.082 0.059,0.117 0.343,0.336 0.617,0.719 0.808,1.157 0.192,0.433 0.285,0.894 0.285,1.375 l 0,0.175 c -0.152,-0.152 -0.343,-0.23 -0.574,-0.23 -0.219,0 -0.406,0.078 -0.562,0.23 -0.153,0.157 -0.231,0.344 -0.231,0.563 0,0.226 0.078,0.414 0.231,0.562 0.156,0.153 0.343,0.227 0.562,0.227 0.344,0 0.586,-0.16 0.735,-0.477 0.144,-0.316 0.214,-0.664 0.214,-1.05 0,-0.532 -0.105,-1.039 -0.32,-1.52 -0.211,-0.48 -0.512,-0.914 -0.902,-1.297 -0.035,-0.019 -0.07,-0.031 -0.09,-0.031 -0.047,0 -0.094,0.023 -0.145,0.066 -0.046,0.043 -0.07,0.086 -0.07,0.133"
     style="fill:#000000;fill-opacity:1;fill-rule:nonzero;stroke:none"
     id="path3779"
     inkscape:connector-curvature="0" /><path
     d="m 458.152,368.93 c -1.179,0 -1.976,0.484 -2.402,1.449 -0.426,0.969 -0.637,2.121 -0.637,3.461 0,0.832 0.075,1.617 0.227,2.351 0.152,0.739 0.457,1.364 0.906,1.875 0.453,0.516 1.09,0.77 1.906,0.77 0.633,0 1.149,-0.153 1.551,-0.465 0.402,-0.309 0.711,-0.707 0.922,-1.199 0.211,-0.489 0.355,-1.012 0.434,-1.574 0.078,-0.559 0.117,-1.145 0.117,-1.758 0,-0.828 -0.078,-1.598 -0.231,-2.321 -0.152,-0.718 -0.449,-1.332 -0.894,-1.836 -0.446,-0.503 -1.078,-0.753 -1.899,-0.753 m 0,0.371 c 0.532,0 0.93,0.273 1.192,0.824 0.261,0.547 0.426,1.156 0.488,1.82 0.063,0.668 0.09,1.375 0.09,2.125 0,0.723 -0.027,1.387 -0.09,1.996 -0.062,0.61 -0.227,1.16 -0.484,1.657 -0.258,0.496 -0.66,0.742 -1.196,0.742 -0.547,0 -0.949,-0.25 -1.214,-0.746 -0.258,-0.496 -0.418,-1.051 -0.481,-1.657 -0.062,-0.605 -0.094,-1.269 -0.094,-1.992 0,-0.535 0.012,-1.039 0.039,-1.512 0.028,-0.472 0.098,-0.964 0.211,-1.468 0.11,-0.504 0.293,-0.926 0.543,-1.274 0.25,-0.343 0.582,-0.515 0.996,-0.515"
     style="fill:#000000;fill-opacity:1;fill-rule:nonzero;stroke:none"
     id="path3781"
     inkscape:connector-curvature="0" /><path
     d="m 462.961,370.039 c 0,0.219 0.078,0.402 0.238,0.559 0.156,0.152 0.344,0.23 0.555,0.23 0.133,0 0.262,-0.035 0.387,-0.105 0.125,-0.071 0.226,-0.168 0.297,-0.297 0.07,-0.125 0.105,-0.254 0.105,-0.387 0,-0.207 -0.078,-0.395 -0.234,-0.555 -0.157,-0.16 -0.34,-0.238 -0.555,-0.238 -0.211,0 -0.399,0.078 -0.555,0.238 -0.16,0.16 -0.238,0.348 -0.238,0.555"
     style="fill:#000000;fill-opacity:1;fill-rule:nonzero;stroke:none"
     id="path3783"
     inkscape:connector-curvature="0" /><path
     d="m 469.461,368.93 c -0.598,0 -1.094,0.156 -1.492,0.472 -0.399,0.317 -0.707,0.727 -0.926,1.231 -0.215,0.504 -0.367,1.035 -0.449,1.586 -0.086,0.554 -0.129,1.117 -0.129,1.683 0,0.758 0.148,1.52 0.445,2.281 0.293,0.766 0.731,1.399 1.301,1.903 0.574,0.5 1.258,0.75 2.043,0.75 0.328,0 0.637,-0.059 0.918,-0.184 0.285,-0.125 0.508,-0.308 0.668,-0.551 0.164,-0.242 0.246,-0.531 0.246,-0.875 0,-0.195 -0.07,-0.359 -0.203,-0.496 -0.133,-0.132 -0.297,-0.199 -0.496,-0.199 -0.188,0 -0.348,0.067 -0.485,0.203 -0.136,0.137 -0.203,0.301 -0.203,0.492 0,0.188 0.067,0.348 0.203,0.485 0.137,0.137 0.297,0.203 0.485,0.203 l 0.078,0 c -0.121,0.176 -0.293,0.305 -0.516,0.383 -0.222,0.082 -0.453,0.125 -0.695,0.125 -0.289,0 -0.559,-0.063 -0.805,-0.192 -0.246,-0.125 -0.469,-0.297 -0.664,-0.511 -0.195,-0.215 -0.359,-0.454 -0.492,-0.715 -0.129,-0.258 -0.234,-0.555 -0.305,-0.887 -0.074,-0.336 -0.117,-0.648 -0.136,-0.937 -0.02,-0.29 -0.028,-0.657 -0.028,-1.098 0.168,0.394 0.406,0.719 0.715,0.969 0.309,0.25 0.66,0.375 1.047,0.375 0.43,0 0.816,-0.086 1.168,-0.262 0.351,-0.172 0.652,-0.41 0.906,-0.719 0.254,-0.308 0.445,-0.656 0.582,-1.051 0.133,-0.394 0.196,-0.793 0.196,-1.195 0,-0.562 -0.122,-1.098 -0.372,-1.609 -0.25,-0.508 -0.605,-0.91 -1.058,-1.211 -0.457,-0.301 -0.973,-0.449 -1.547,-0.449 m 0,0.457 c 0.371,0 0.668,0.086 0.894,0.253 0.223,0.168 0.387,0.391 0.493,0.668 0.109,0.282 0.172,0.563 0.199,0.844 0.027,0.285 0.039,0.637 0.039,1.047 0,0.543 -0.027,1.008 -0.078,1.391 -0.051,0.386 -0.192,0.726 -0.422,1.019 -0.231,0.289 -0.582,0.438 -1.055,0.438 -0.39,0 -0.707,-0.133 -0.961,-0.395 -0.25,-0.262 -0.433,-0.594 -0.547,-0.992 -0.117,-0.402 -0.171,-0.789 -0.171,-1.16 0,-0.125 0.003,-0.219 0.015,-0.285 0,-0.016 -0.004,-0.028 -0.012,-0.035 0,-0.012 0,-0.024 -0.003,-0.036 0,-0.414 0.039,-0.832 0.125,-1.254 0.085,-0.421 0.246,-0.777 0.484,-1.07 0.242,-0.289 0.574,-0.433 1,-0.433"
     style="fill:#000000;fill-opacity:1;fill-rule:nonzero;stroke:none"
     id="path3785"
     inkscape:connector-curvature="0" /><path
     d="m 473.379,365.644 0,0.579 1.398,0 0,13.246 -1.398,0 0,0.578 1.973,0 0,-14.403 -1.973,0 z"
     style="fill:#000000;fill-opacity:1;fill-rule:nonzero;stroke:none"
     id="path3787"
     inkscape:connector-curvature="0" /><path
     d="m 362.832,374.285 20.16,0"
     style="fill:none;stroke:#ff0000;stroke-width:2;stroke-linecap:butt;stroke-linejoin:round;stroke-miterlimit:4;stroke-opacity:1;stroke-dasharray:none"
     id="path3789"
     inkscape:connector-curvature="0" /><path
     d="m 380.246,329.078 c 0,-3.941 -3.191,-7.133 -7.133,-7.133 -3.937,0 -7.133,3.192 -7.133,7.133 0,3.937 3.196,7.133 7.133,7.133 3.918,0 7.102,-3.156 7.133,-7.071"
     style="fill:none;stroke:#0000ff;stroke-width:2.4000001;stroke-linecap:square;stroke-linejoin:miter;stroke-miterlimit:4;stroke-opacity:1;stroke-dasharray:none"
     id="path3845"
     inkscape:connector-curvature="0" /><path
     d="m 366.305,359.082 13.621,0 0,-13.625 -13.621,0 0,13.625 z"
     style="fill:none;stroke:#008000;stroke-width:2.71740699;stroke-linecap:butt;stroke-linejoin:miter;stroke-miterlimit:4;stroke-opacity:1;stroke-dasharray:none"
     id="path3847"
     inkscape:connector-curvature="0" /><g
     id="g3849"
     transform="matrix(1,-0.0254338,-0.0254338,-1,0,410.035)"><path
       d="m 382.301,32.101 -16.728,0.406 8.013,-14.688 8.715,14.282 z"
       style="fill:none;stroke:#ff0000;stroke-width:2.39922404;stroke-linecap:square;stroke-linejoin:miter;stroke-miterlimit:4;stroke-opacity:1;stroke-dasharray:none"
       id="path3851"
       inkscape:connector-curvature="0" /></g></g>
<g
   transform="matrix(0.48690146,0,0,0.48690146,97.595434,326.17464)"
   id="g3568"><g
     style="font-style:normal;font-variant:normal;font-weight:normal;font-stretch:normal;letter-spacing:normal;word-spacing:normal;text-anchor:start;fill:none;stroke:#000000;stroke-linecap:butt;stroke-linejoin:miter;stroke-miterlimit:10.43299961;stroke-opacity:1;stroke-dasharray:none;stroke-dashoffset:0"
     word-spacing="normal"
     letter-spacing="normal"
     font-size-adjust="none"
     font-stretch="normal"
     font-weight="normal"
     font-variant="normal"
     font-style="normal"
     stroke-miterlimit="10.433"
     xml:space="preserve"
     transform="matrix(1.0629921,0,0,-1.0629921,-186.02362,789.27165)"
     id="content"><path
       style="fill:#000000;stroke-width:0"
       inkscape:connector-curvature="0"
       id="path3571"
       d="m 464.14,426.12 h 7.13 v 1.55 h -7.13 v 9.17 h -1.25 c -0.04,-4.08 -1.54,-9.42 -6.42,-9.61 v -1.11 h 4.24 v -13.75 c 0,-6.12 4.62,-6.72 6.42,-6.72 3.53,0 4.94,3.53 4.94,6.72 v 2.84 h -1.25 v -2.73 c 0,-3.69 -1.5,-5.58 -3.35,-5.58 -3.33,0 -3.33,4.53 -3.33,5.38 z" /><path
       style="fill:#000000;stroke-width:0"
       inkscape:connector-curvature="0"
       id="path3573"
       d="m 483.65,428.21 -6.97,-0.54 v -1.55 c 3.23,0 3.69,-0.3 3.69,-2.73 v -13.41 c 0,-2.23 -0.55,-2.23 -3.89,-2.23 v -1.55 c 1.59,0.05 4.28,0.16 5.48,0.16 1.75,0 3.49,-0.11 5.19,-0.16 v 1.55 c -3.3,0 -3.5,0.25 -3.5,2.18 z" /><path
       style="fill:#000000;stroke-width:0"
       inkscape:connector-curvature="0"
       id="path3575"
       d="m 483.85,436.89 0,0.14 -0.01,0.15 -0.02,0.14 -0.02,0.14 -0.04,0.13 -0.03,0.13 -0.05,0.13 -0.05,0.12 -0.05,0.12 -0.06,0.12 -0.07,0.11 -0.07,0.1 -0.07,0.1 -0.08,0.1 -0.09,0.1 -0.09,0.08 -0.09,0.09 -0.1,0.08 -0.1,0.07 -0.1,0.07 -0.11,0.07 -0.11,0.06 -0.11,0.05 -0.12,0.05 -0.12,0.04 -0.12,0.04 -0.12,0.03 -0.13,0.03 -0.12,0.02 -0.13,0.01 -0.13,0.01 -0.13,0.01 c -1.55,0 -2.64,-1.35 -2.64,-2.64 0,-1.35 1.09,-2.64 2.64,-2.64 1.39,0 2.64,1.04 2.64,2.64 z" /><path
       style="fill:#000000;stroke-width:0"
       inkscape:connector-curvature="0"
       id="path3577"
       d="m 494.12,423.34 v -13.36 c 0,-2.23 -0.55,-2.23 -3.89,-2.23 v -1.55 c 1.75,0.05 4.28,0.16 5.62,0.16 1.3,0 3.89,-0.11 5.58,-0.16 v 1.55 c -3.33,0 -3.88,0 -3.88,2.23 v 9.17 c 0,5.19 3.54,7.97 6.72,7.97 3.14,0 3.69,-2.69 3.69,-5.53 v -11.61 c 0,-2.23 -0.55,-2.23 -3.89,-2.23 v -1.55 c 1.75,0.05 4.3,0.16 5.64,0.16 1.3,0 3.88,-0.11 5.58,-0.16 v 1.55 c -3.34,0 -3.89,0 -3.89,2.23 v 9.17 c 0,5.19 3.55,7.97 6.73,7.97 3.14,0 3.69,-2.69 3.69,-5.53 v -11.61 c 0,-2.23 -0.55,-2.23 -3.89,-2.23 v -1.55 c 1.73,0.05 4.28,0.16 5.62,0.16 1.3,0 3.9,-0.11 5.58,-0.16 v 1.55 c -2.58,0 -3.83,0 -3.87,1.5 v 9.51 c 0,4.28 0,5.83 -1.55,7.61 -0.7,0.86 -2.34,1.84 -5.23,1.84 -4.19,0 -6.38,-2.98 -7.22,-4.87 -0.71,4.33 -4.39,4.87 -6.63,4.87 -3.64,0 -5.98,-2.14 -7.37,-5.21 v 5.21 l -7.03,-0.54 v -1.55 c 3.48,0 3.89,-0.34 3.89,-2.78 z" /><path
       style="fill:#000000;stroke-width:0"
       inkscape:connector-curvature="0"
       id="path3579"
       d="m 535.68,417.71 0.05,1.05 c 0.3,7.42 4.49,8.66 6.19,8.66 5.12,0 5.62,-6.72 5.62,-8.66 h -11.81 l -0.05,-1.05 h 13.91 c 1.09,0 1.23,0 1.23,1.05 0,4.92 -2.68,9.75 -8.9,9.75 -5.78,0 -10.38,-5.12 -10.38,-11.36 0,-6.67 5.24,-11.5 10.97,-11.5 6.08,0 8.31,5.53 8.31,6.47 0,0.5 -0.39,0.61 -0.64,0.61 -0.45,0 -0.54,-0.3 -0.65,-0.7 -1.74,-5.13 -6.22,-5.13 -6.72,-5.13 -2.5,0 -4.49,1.49 -5.63,3.33 -1.5,2.39 -1.5,5.69 -1.5,7.48 z" /><path
       style="fill:#000000;stroke-width:0"
       inkscape:connector-curvature="0"
       id="path3581"
       d="m 577.84,428.21 -6.96,-0.54 v -1.55 c 3.23,0 3.68,-0.3 3.68,-2.73 v -13.41 c 0,-2.23 -0.54,-2.23 -3.89,-2.23 v -1.55 c 1.6,0.05 4.28,0.16 5.49,0.16 1.75,0 3.48,-0.11 5.18,-0.16 v 1.55 c -3.29,0 -3.5,0.25 -3.5,2.18 z" /><path
       style="fill:#000000;stroke-width:0"
       inkscape:connector-curvature="0"
       id="path3583"
       d="m 578.05,436.89 -0.01,0.14 -0.01,0.15 -0.02,0.14 -0.02,0.14 -0.03,0.13 -0.04,0.13 -0.04,0.13 -0.05,0.12 -0.05,0.12 -0.07,0.12 -0.06,0.11 -0.07,0.1 -0.08,0.1 -0.08,0.1 -0.08,0.1 -0.09,0.08 -0.1,0.09 -0.09,0.08 -0.1,0.07 -0.11,0.07 -0.1,0.07 -0.12,0.06 -0.11,0.05 -0.11,0.05 -0.12,0.04 -0.12,0.04 -0.13,0.03 -0.12,0.03 -0.13,0.02 -0.13,0.01 -0.12,0.01 -0.13,0.01 c -1.55,0 -2.64,-1.35 -2.64,-2.64 0,-1.35 1.09,-2.64 2.64,-2.64 1.39,0 2.64,1.04 2.64,2.64 z" /><path
       style="fill:#000000;stroke-width:0"
       inkscape:connector-curvature="0"
       id="path3585"
       d="m 588.31,423.34 v -13.36 c 0,-2.23 -0.54,-2.23 -3.89,-2.23 v -1.55 c 1.75,0.05 4.28,0.16 5.63,0.16 1.29,0 3.89,-0.11 5.57,-0.16 v 1.55 c -3.32,0 -3.87,0 -3.87,2.23 v 9.17 c 0,5.19 3.53,7.97 6.72,7.97 3.14,0 3.69,-2.69 3.69,-5.53 v -11.61 c 0,-2.23 -0.55,-2.23 -3.89,-2.23 v -1.55 c 1.75,0.05 4.29,0.16 5.64,0.16 1.29,0 3.87,-0.11 5.57,-0.16 v 1.55 c -2.59,0 -3.84,0 -3.89,1.5 v 9.51 c 0,4.28 0,5.83 -1.54,7.61 -0.69,0.86 -2.35,1.84 -5.22,1.84 -3.64,0 -5.99,-2.14 -7.38,-5.21 v 5.21 l -7.03,-0.54 v -1.55 c 3.49,0 3.89,-0.34 3.89,-2.78 z" /><path
       style="fill:#000000;stroke-width:0"
       inkscape:connector-curvature="0"
       id="path3587"
       d="m 617.73,426.12 h 7.12 v 1.55 h -7.12 v 9.17 h -1.25 c -0.05,-4.08 -1.55,-9.42 -6.42,-9.61 v -1.11 h 4.23 v -13.75 c 0,-6.12 4.63,-6.72 6.43,-6.72 3.53,0 4.93,3.53 4.93,6.72 v 2.84 h -1.25 v -2.73 c 0,-3.69 -1.5,-5.58 -3.34,-5.58 -3.33,0 -3.33,4.53 -3.33,5.38 z" /><path
       style="fill:#000000;stroke-width:0"
       inkscape:connector-curvature="0"
       id="path3589"
       d="m 633.95,417.71 0.05,1.05 c 0.3,7.42 4.48,8.66 6.19,8.66 5.12,0 5.62,-6.72 5.62,-8.66 H 634 l -0.05,-1.05 h 13.91 c 1.09,0 1.23,0 1.23,1.05 0,4.92 -2.68,9.75 -8.9,9.75 -5.78,0 -10.38,-5.12 -10.38,-11.36 0,-6.67 5.24,-11.5 10.97,-11.5 6.08,0 8.31,5.53 8.31,6.47 0,0.5 -0.39,0.61 -0.64,0.61 -0.45,0 -0.54,-0.3 -0.65,-0.7 -1.74,-5.13 -6.22,-5.13 -6.72,-5.13 -2.5,0 -4.49,1.49 -5.63,3.33 -1.5,2.39 -1.5,5.69 -1.5,7.48 z" /><path
       style="fill:#000000;stroke-width:0"
       inkscape:connector-curvature="0"
       id="path3591"
       d="m 658.81,422.75 v 5.46 l -6.92,-0.54 v -1.55 c 3.49,0 3.89,-0.34 3.89,-2.78 v -13.36 c 0,-2.23 -0.55,-2.23 -3.89,-2.23 v -1.55 c 1.95,0.05 4.28,0.16 5.69,0.16 1.98,0 4.33,0 6.33,-0.16 v 1.55 h -1.05 c -3.69,0 -3.8,0.54 -3.8,2.34 v 7.67 c 0,4.92 2.1,9.36 5.89,9.36 0.35,0 0.44,0 0.55,-0.05 -0.16,-0.04 -1.16,-0.64 -1.16,-1.93 0,-1.41 1.05,-2.14 2.16,-2.14 0.89,0 2.14,0.59 2.14,2.18 0,1.6 -1.55,3.03 -3.69,3.03 -3.64,0 -5.43,-3.32 -6.14,-5.46 z" /><path
       style="fill:#000000;stroke-width:0"
       inkscape:connector-curvature="0"
       id="path3593"
       d="m 690.78,422.79 0.04,0.11 0.05,0.12 0.05,0.12 0.05,0.12 0.06,0.13 0.06,0.13 0.06,0.13 0.07,0.14 0.08,0.13 0.08,0.14 0.09,0.14 0.09,0.14 0.1,0.13 0.11,0.14 0.11,0.13 0.13,0.13 0.13,0.12 0.14,0.13 0.15,0.11 0.16,0.12 0.17,0.11 0.18,0.1 0.19,0.09 0.2,0.09 0.21,0.08 0.22,0.07 0.24,0.07 0.25,0.05 0.26,0.05 0.13,0.01 0.14,0.02 0.14,0.01 0.15,0.01 0.15,0.01 0.15,0 v 1.55 c -1.15,-0.1 -2.59,-0.14 -3.73,-0.14 -1.21,0 -3.5,0.09 -4.35,0.14 v -1.55 c 1.85,-0.05 2.39,-1.19 2.39,-2.14 0,-0.44 -0.09,-0.64 -0.29,-1.19 l -5.08,-12.7 -5.58,13.89 c -0.3,0.66 -0.3,0.75 -0.3,0.86 0,1.28 1.94,1.28 2.83,1.28 v 1.55 c -1.48,-0.05 -4.28,-0.14 -5.42,-0.14 -1.34,0 -3.34,0.04 -4.83,0.14 v -1.55 c 3.13,0 3.33,-0.3 3.99,-1.84 l 7.17,-17.67 c 0.3,-0.71 0.39,-0.96 1.05,-0.96 0.63,0 0.84,0.46 1.04,0.96 z" /><path
       style="fill:#000000;stroke-width:0"
       inkscape:connector-curvature="0"
       id="path3595"
       d="m 710.17,409.98 0.02,-0.19 0.03,-0.18 0.04,-0.19 0.04,-0.18 0.05,-0.19 0.06,-0.18 0.06,-0.18 0.07,-0.18 0.07,-0.18 0.08,-0.17 0.09,-0.18 0.09,-0.16 0.1,-0.16 0.11,-0.16 0.11,-0.16 0.12,-0.14 0.13,-0.14 0.13,-0.14 0.14,-0.13 0.15,-0.12 0.15,-0.12 0.15,-0.1 0.17,-0.1 0.16,-0.09 0.18,-0.08 0.18,-0.07 0.19,-0.06 0.19,-0.05 0.2,-0.04 0.2,-0.03 0.22,-0.02 0.21,-0.01 c 1.03,0 4.08,0.71 4.08,4.74 v 2.78 h -1.25 v -2.78 c 0,-2.89 -1.23,-3.19 -1.8,-3.19 -1.64,0 -1.84,2.23 -1.84,2.48 v 9.97 c 0,2.1 0,4.03 -1.78,5.88 -1.95,1.93 -4.44,2.73 -6.83,2.73 -4.09,0 -7.53,-2.33 -7.53,-5.62 0,-1.49 1,-2.35 2.3,-2.35 1.39,0 2.29,1 2.29,2.3 0,0.59 -0.25,2.23 -2.54,2.3 1.34,1.73 3.78,2.28 5.37,2.28 2.45,0 5.28,-1.94 5.28,-6.38 v -1.84 -1.05 -4.98 c 0,-4.74 -3.58,-6.42 -5.83,-6.42 -2.43,0 -4.48,1.75 -4.48,4.23 0,2.73 2.09,6.88 10.31,7.17 h 0 v 1.05 c -2.53,-0.14 -6.01,-0.3 -9.15,-1.8 -3.74,-1.69 -4.99,-4.28 -4.99,-6.47 0,-4.03 4.83,-5.28 7.97,-5.28 3.3,0 5.58,1.99 6.53,4.33 z" /><path
       style="fill:#000000;stroke-width:0"
       inkscape:connector-curvature="0"
       id="path3597"
       d="m 727.35,440.78 -7.17,-0.55 v -1.55 c 3.48,0 3.89,-0.34 3.89,-2.79 v -25.91 c 0,-2.23 -0.55,-2.23 -3.89,-2.23 v -1.55 c 1.64,0.05 4.28,0.16 5.53,0.16 1.25,0 3.69,-0.11 5.53,-0.16 v 1.55 c -3.34,0 -3.89,0 -3.89,2.23 z" /><path
       style="fill:#000000;stroke-width:0"
       inkscape:connector-curvature="0"
       id="path3599"
       d="m 771.03,440.98 -0.03,0.06 -0.03,0.06 -0.03,0.05 -0.03,0.05 -0.03,0.05 -0.03,0.05 -0.02,0.05 -0.03,0.04 -0.03,0.04 -0.02,0.04 -0.03,0.04 -0.03,0.03 -0.03,0.04 -0.03,0.03 -0.03,0.03 -0.03,0.03 -0.03,0.02 -0.04,0.03 -0.03,0.02 -0.04,0.02 -0.04,0.02 -0.05,0.01 -0.04,0.02 -0.05,0.01 -0.05,0.01 -0.06,0.01 -0.06,0.01 -0.06,0.01 -0.07,0 -0.07,0.01 -0.07,0 -0.04,0 -0.04,0 c -0.84,0 -0.94,-0.25 -1.28,-0.89 l -0.31,-4.09 13.4,-26.91 h -26.86 l 13.46,26.91 0.31,4.09 -16.85,-33.78 c -0.25,-0.45 -0.25,-0.55 -0.25,-0.59 0,-0.41 0.3,-0.41 1.1,-0.41 h 34.58 c 0.79,0 1.09,0 1.09,0.41 0,0.04 0,0.14 -0.25,0.59 z" /><path
       style="fill:#000000;stroke-width:0"
       inkscape:connector-curvature="0"
       id="path3601"
       d="m 800.8,426.12 h 4.68 c 0.99,0 1.49,0 1.49,1 0,0.55 -0.5,0.55 -1.39,0.55 h -4.39 c 1.79,7.08 2.04,8.08 2.04,8.37 0,0.85 -0.59,1.35 -1.43,1.35 -0.16,0 -1.55,-0.05 -2,-1.8 l -1.94,-7.92 h -4.69 c -1,0 -1.5,0 -1.5,-0.94 0,-0.61 0.41,-0.61 1.41,-0.61 h 4.37 c -3.57,-14.14 -3.78,-14.98 -3.78,-15.89 0,-2.69 1.89,-4.58 4.58,-4.58 5.08,0 7.92,7.27 7.92,7.67 0,0.5 -0.39,0.5 -0.59,0.5 -0.46,0 -0.5,-0.15 -0.75,-0.7 -2.14,-5.17 -4.78,-6.37 -6.47,-6.37 -1.05,0 -1.55,0.65 -1.55,2.29 0,1.19 0.1,1.55 0.3,2.39 z" /><polygon
       style="fill:#000000;stroke-width:0"
       id="polygon3603"
       points="832.97,441.57 837.79,441.57 837.79,443.56 830.97,443.56 830.97,393.75 837.79,393.75 837.79,395.73 832.97,395.73 " /><path
       style="fill:#000000;stroke-width:0"
       inkscape:connector-curvature="0"
       id="path3605"
       d="m 857.82,408.93 v -3.28 l 7.32,0.55 v 1.55 c -3.49,0 -3.88,0.34 -3.88,2.78 v 30.25 l -7.17,-0.55 v -1.55 c 3.48,0 3.88,-0.34 3.88,-2.79 v -10.75 c -1.44,1.78 -3.58,3.07 -6.29,3.07 l 0.21,-1.09 c 1.75,0 3.84,-0.75 5.39,-2.98 0.54,-0.85 0.54,-0.96 0.54,-1.85 h 0 v -10.22 c 0,-0.89 0,-1 -0.54,-1.84 -1.5,-2.39 -3.75,-3.48 -5.89,-3.48 -2.24,0 -4.04,1.29 -5.22,3.18 -1.3,2.05 -1.45,4.89 -1.45,6.93 0,1.84 0.09,4.84 1.54,7.07 1.05,1.55 2.94,3.19 5.63,3.19 l -0.21,1.09 c -5.87,0 -11.11,-4.87 -11.11,-11.29 0,-6.33 4.9,-11.27 10.57,-11.27 3.18,0 5.43,1.69 6.68,3.28 z" /><path
       style="fill:#000000;stroke-width:0"
       inkscape:connector-curvature="0"
       id="path3607"
       d="m 883.2,409.98 0.02,-0.19 0.03,-0.18 0.04,-0.19 0.04,-0.18 0.05,-0.19 0.05,-0.18 0.06,-0.18 0.07,-0.18 0.08,-0.18 0.08,-0.17 0.09,-0.18 0.09,-0.16 0.1,-0.16 0.11,-0.16 0.11,-0.16 0.12,-0.14 0.13,-0.14 0.13,-0.14 0.14,-0.13 0.14,-0.12 0.15,-0.12 0.16,-0.1 0.16,-0.1 0.17,-0.09 0.18,-0.08 0.18,-0.07 0.19,-0.06 0.19,-0.05 0.2,-0.04 0.2,-0.03 0.21,-0.02 0.22,-0.01 c 1.03,0 4.08,0.71 4.08,4.74 v 2.78 h -1.25 v -2.78 c 0,-2.89 -1.24,-3.19 -1.8,-3.19 -1.64,0 -1.84,2.23 -1.84,2.48 v 9.97 c 0,2.1 0,4.03 -1.78,5.88 -1.96,1.93 -4.44,2.73 -6.83,2.73 -4.1,0 -7.53,-2.33 -7.53,-5.62 0,-1.49 1,-2.35 2.29,-2.35 1.39,0 2.3,1 2.3,2.3 0,0.59 -0.25,2.23 -2.55,2.3 1.35,1.73 3.79,2.28 5.38,2.28 2.45,0 5.28,-1.94 5.28,-6.38 v -1.84 -1.05 -4.98 c 0,-4.74 -3.58,-6.42 -5.83,-6.42 -2.44,0 -4.48,1.75 -4.48,4.23 0,2.73 2.09,6.88 10.31,7.17 h 0 v 1.05 c -2.53,-0.14 -6.02,-0.3 -9.16,-1.8 -3.73,-1.69 -4.98,-4.28 -4.98,-6.47 0,-4.03 4.83,-5.28 7.97,-5.28 3.3,0 5.58,1.99 6.53,4.33 z" /><path
       style="fill:#000000;stroke-width:0"
       inkscape:connector-curvature="0"
       id="path3609"
       d="m 910.8,422.93 0.06,0.15 0.06,0.14 0.07,0.14 0.06,0.13 0.07,0.12 0.07,0.13 0.07,0.12 0.08,0.11 0.15,0.22 0.15,0.2 0.16,0.19 0.16,0.18 0.16,0.16 0.17,0.14 0.17,0.14 0.17,0.12 0.17,0.11 0.17,0.1 0.17,0.09 0.16,0.09 0.17,0.07 0.17,0.06 0.16,0.05 0.16,0.05 0.16,0.04 0.15,0.03 0.15,0.03 0.14,0.02 0.14,0.02 0.12,0.02 0.13,0.01 0.11,0 0.11,0.01 0.1,0 0.09,0 0.08,0 v 1.55 c -1.16,-0.1 -2.6,-0.14 -3.74,-0.14 -0.9,0 -3.25,0.09 -4.34,0.14 v -1.55 c 1.55,-0.05 2.34,-0.89 2.34,-2.14 0,-0.5 -0.04,-0.59 -0.29,-1.19 l -5.03,-12.26 -5.54,13.4 c -0.2,0.5 -0.29,0.71 -0.29,0.91 0,1.28 1.84,1.28 2.78,1.28 v 1.55 c -1.28,-0.05 -4.58,-0.14 -5.42,-0.14 -1.35,0 -3.35,0.04 -4.83,0.14 v -1.55 c 2.39,0 3.33,0 4.03,-1.73 l 7.47,-18.19 c -0.25,-0.64 -0.94,-2.3 -1.25,-2.94 -1.1,-2.73 -2.49,-6.19 -5.67,-6.19 -0.25,0 -1.39,0 -2.35,0.91 1.55,0.2 1.94,1.3 1.94,2.09 0,1.3 -0.94,2.1 -2.08,2.1 -1,0 -2.09,-0.66 -2.09,-2.14 0,-2.25 2.09,-4.05 4.58,-4.05 3.14,0 5.18,2.84 6.37,5.69 z" /><path
       style="fill:#000000;stroke-width:0"
       inkscape:connector-curvature="0"
       id="path3611"
       d="m 926.76,415.87 0.11,-0.02 0.13,-0.02 0.14,-0.03 0.16,-0.04 0.17,-0.04 0.18,-0.04 0.19,-0.05 0.19,-0.06 0.21,-0.06 0.21,-0.07 0.21,-0.08 0.22,-0.08 0.22,-0.1 0.23,-0.1 0.22,-0.11 0.22,-0.12 0.21,-0.14 0.21,-0.14 0.21,-0.15 0.2,-0.16 0.19,-0.18 0.18,-0.19 0.17,-0.2 0.15,-0.21 0.15,-0.22 0.06,-0.12 0.06,-0.12 0.06,-0.13 0.06,-0.12 0.05,-0.14 0.04,-0.13 0.04,-0.14 0.04,-0.14 0.03,-0.15 0.02,-0.15 0.02,-0.16 0.02,-0.15 0.01,-0.17 0,-0.16 c 0,-2.53 -1.75,-4.53 -5.63,-4.53 -4.18,0 -5.98,2.84 -6.93,7.07 -0.14,0.64 -0.19,0.85 -0.69,0.85 -0.66,0 -0.66,-0.35 -0.66,-1.25 v -6.58 c 0,-0.84 0,-1.19 0.55,-1.19 0.25,0 0.3,0.05 1.25,1 0.09,0.1 0.09,0.19 1,1.14 2.19,-2.09 4.44,-2.14 5.48,-2.14 5.72,0 8.02,3.35 8.02,6.92 0,2.64 -1.5,4.14 -2.09,4.74 -1.65,1.59 -3.6,2 -5.69,2.39 -2.78,0.55 -6.13,1.2 -6.13,4.09 0,1.74 1.3,3.78 5.58,3.78 5.49,0 5.74,-4.48 5.83,-6.03 0.06,-0.45 0.5,-0.45 0.61,-0.45 0.64,0 0.64,0.25 0.64,1.2 v 5.03 c 0,0.85 0,1.19 -0.55,1.19 -0.25,0 -0.34,0 -1,-0.59 -0.14,-0.21 -0.64,-0.64 -0.84,-0.8 -1.89,1.39 -3.94,1.39 -4.69,1.39 -6.08,0 -7.97,-3.33 -7.97,-6.12 0,-1.74 0.8,-3.14 2.14,-4.24 1.6,-1.29 3,-1.59 6.58,-2.28 z" /><polygon
       style="fill:#000000;stroke-width:0"
       id="polygon3613"
       points="942,441.57 942,395.73 937.18,395.73 937.18,393.75 944,393.75 944,443.56 937.18,443.56 937.18,441.57 " /></g></g></g></svg>