<?xml version="1.0" encoding="UTF-8" standalone="no"?>
<!-- Created with Inkscape (http://www.inkscape.org/) -->

<svg
   xmlns:dc="http://purl.org/dc/elements/1.1/"
   xmlns:cc="http://creativecommons.org/ns#"
   xmlns:rdf="http://www.w3.org/1999/02/22-rdf-syntax-ns#"
   xmlns:svg="http://www.w3.org/2000/svg"
   xmlns="http://www.w3.org/2000/svg"
   xmlns:xlink="http://www.w3.org/1999/xlink"
   xmlns:sodipodi="http://sodipodi.sourceforge.net/DTD/sodipodi-0.dtd"
   xmlns:inkscape="http://www.inkscape.org/namespaces/inkscape"
   id="svg3569"
   version="1.1"
   inkscape:version="0.48.4 r9939"
   width="659.79805"
   height="512.54375"
   xml:space="preserve"
   sodipodi:docname="Shankarappa_fix_loss_dt_times.pdf"><metadata
     id="metadata3575"><rdf:RDF><cc:Work
         rdf:about=""><dc:format>image/svg+xml</dc:format><dc:type
           rdf:resource="http://purl.org/dc/dcmitype/StillImage" /><dc:title></dc:title></cc:Work></rdf:RDF></metadata><defs
     id="defs3573"><clipPath
       id="p7ff5b81e1d"><rect
         height="345.60001"
         width="446.39999"
         x="72"
         y="43.200001"
         id="rect4413" /></clipPath><clipPath
       id="clipPath5389"><rect
         height="345.60001"
         width="446.39999"
         x="72"
         y="43.200001"
         id="rect5391" /></clipPath><clipPath
       id="clipPath5393"><rect
         height="345.60001"
         width="446.39999"
         x="72"
         y="43.200001"
         id="rect5395" /></clipPath><clipPath
       id="clipPath5397"><rect
         height="345.60001"
         width="446.39999"
         x="72"
         y="43.200001"
         id="rect5399" /></clipPath><clipPath
       id="clipPath5401"><rect
         height="345.60001"
         width="446.39999"
         x="72"
         y="43.200001"
         id="rect5403" /></clipPath><clipPath
       id="clipPath5405"><rect
         height="345.60001"
         width="446.39999"
         x="72"
         y="43.200001"
         id="rect5407" /></clipPath><clipPath
       id="p7ff5b81e1d-0"><rect
         height="345.60001"
         width="446.39999"
         x="72"
         y="43.200001"
         id="rect4413-9" /></clipPath><clipPath
       id="clipPath6302"><rect
         height="345.60001"
         width="446.39999"
         x="72"
         y="43.200001"
         id="rect6304" /></clipPath><clipPath
       id="clipPath6306"><rect
         height="345.60001"
         width="446.39999"
         x="72"
         y="43.200001"
         id="rect6308" /></clipPath><clipPath
       id="clipPath6310"><rect
         height="345.60001"
         width="446.39999"
         x="72"
         y="43.200001"
         id="rect6312" /></clipPath><clipPath
       id="clipPath6314"><rect
         height="345.60001"
         width="446.39999"
         x="72"
         y="43.200001"
         id="rect6316" /></clipPath><clipPath
       id="clipPath6318"><rect
         height="345.60001"
         width="446.39999"
         x="72"
         y="43.200001"
         id="rect6320" /></clipPath></defs><sodipodi:namedview
     pagecolor="#ffffff"
     bordercolor="#666666"
     borderopacity="1"
     objecttolerance="10"
     gridtolerance="10"
     guidetolerance="10"
     inkscape:pageopacity="0"
     inkscape:pageshadow="2"
     inkscape:window-width="1916"
     inkscape:window-height="1161"
     id="namedview3571"
     showgrid="false"
     inkscape:zoom="1.3533903"
     inkscape:cx="197.63857"
     inkscape:cy="257.11874"
     inkscape:window-x="0"
     inkscape:window-y="18"
     inkscape:window-maximized="0"
     inkscape:current-layer="layer1" /><g
     inkscape:groupmode="layer"
     id="layer1"
     inkscape:label="Layer"
     style="display:inline"><g
       id="patch_2"
       style="stroke-linecap:square;stroke-linejoin:round"
       transform="matrix(1.25,0,0,1.25,-18,-33.456237)"><path
         d="m 72,388.8 446.4,0 0,-345.6 -446.4,0 z"
         style="fill:#ffffff;stroke-linecap:square;stroke-linejoin:round"
         id="path3885"
         inkscape:connector-curvature="0" /></g><path
       inkscape:connector-curvature="0"
       id="path3888"
       style="fill:#a4a4ff;fill-opacity:1;stroke:none"
       d="m 72,336.96 558,0 0,-34.56 -558,0 z"
       clip-path="url(#p7ff5b81e1d-0)"
       transform="matrix(1.25,0,0,1.25,-18,-33.456237)" /><path
       inkscape:connector-curvature="0"
       id="path3891"
       style="fill:#a4d0a4;fill-opacity:1;stroke:none"
       d="m 72,302.4 558,0 0,-51.84 -558,0 z"
       clip-path="url(#p7ff5b81e1d-0)"
       transform="matrix(1.25,0,0,1.25,-18,-33.456237)" /><path
       inkscape:connector-curvature="0"
       id="path3894"
       style="fill:#ffb7b7;fill-opacity:1;stroke:none"
       d="m 72,250.56 558,0 0,-69.12 -558,0 z"
       clip-path="url(#p7ff5b81e1d-0)"
       transform="matrix(1.25,0,0,1.25,-18,-33.456237)" /><g
       id="line2d_1"
       style="stroke-linecap:square;stroke-linejoin:round"
       transform="matrix(1.25,0,0,1.25,-18,-33.456237)"><path
         clip-path="url(#p7ff5b81e1d-0)"
         d="m 112.846,388.8 129.344,-3.63 6.808,-3.631 20.422,-3.63 129.345,-3.63 -6.808,-2.904 -47.653,-2.93 0,-2.93 -34.038,-2.931 -40.846,-2.93 -20.422,-2.93 -6.808,-2.93 -13.615,-2.93 0,-2.93 -20.423,-2.93 -6.808,-2.931 0,-2.93 0,-2.93 0,-2.93 -13.615,-2.93 0,-2.93 0,-2.93 0,-2.93 0,-2.931 0,-2.93 -6.807,-2.93 0,-2.93 0,-2.93 -6.808,-2.93 -6.808,-2.93 -6.807,-2.931 0,-2.93 0,-2.93 -6.808,-2.93 0,-2.93 0,-2.93 0,-2.93 0,-2.93 -6.807,-2.931 0,-2.93 -6.808,-2.93 0,-2.93 0,-2.93 0,-2.93 0,-2.93 0,-2.93 0,-2.931 0,-2.93 0,-2.93 -13.615,-2.93 0,-2.93 0,-2.93 0,-2.93 -6.808,-2.931 0,-2.93 0,-2.93 0,-2.93 0,-2.93 0,-2.93 0,-2.93 0,-2.93 0,-2.931 0,-2.93 0,-2.93 0,-2.93 0,-2.93 0,-2.93 0,-2.93 0,-2.931 0,-2.93 0,-2.93 0,-2.93 0,-2.93 0,-2.93 -6.807,-2.93 0,-2.93 0,-2.931 0,-2.93 0,-2.93 0,-2.93 0,-2.93 0,-2.93 0,-2.93 0,-2.931 0,-2.93 0,-2.93 0,-2.93 0,-2.93 0,-2.93 0,-2.93 0,-2.93 0,-2.931 0,-2.93 0,-2.93 0,-2.93 0,-2.93 0,-2.93 0,-2.93 0,-2.9305 0,-2.9301 0,-2.9302 0,-2.9301 0,-2.9301 0,-2.9302 0,-2.9301 0,-2.9301 0,-2.9301 -6.808,-2.9302 0,-2.9301 0,-2.9301 0,-2.9302 -6.8076,-2.9301 -6.8076,-2.9301 0,-2.9302 0,-2.9301 0,-2.9301 0,-2.9302 0,-2.9301"
         style="fill:none;stroke:#0000ff;stroke-width:2;stroke-linecap:square;stroke-linejoin:round"
         id="path3897"
         inkscape:connector-curvature="0" /></g><g
       id="line2d_2"
       style="stroke-linecap:square;stroke-linejoin:round"
       transform="matrix(1.25,0,0,1.25,-18,-33.456237)"><path
         clip-path="url(#p7ff5b81e1d-0)"
         d="m 153.691,388.8 136.152,-10.8 34.038,-10.8 190.613,0 -122.537,-7.364 0,-7.363 -68.076,-7.364 -13.615,-7.364 -34.038,-7.363 -6.808,-7.364 -34.038,-7.363 -6.807,-7.364 0,-7.364 0,-7.363 -20.423,-7.364 -6.808,-7.364 -6.807,-7.363 0,-7.364 0,-7.364 0,-7.363 0,-7.364 -13.615,-7.363 -27.231,-7.364 0,-7.364 0,-7.363 0,-7.364 -6.807,-7.364 -20.423,-7.363 0,-7.364 0,-7.364 0,-7.363 -6.808,-7.364 0,-7.363 0,-7.364 0,-7.364 -6.807,-7.363 0,-7.364 0,-7.364 0,-7.363 0,-7.364 0,-7.3635 0,-7.3637 -6.808,-7.3636 0,-7.3637 0,-7.3636 0,-7.3636 L 99.2304,50.5636 92.4228,43.2"
         style="fill:none;stroke:#008000;stroke-width:2;stroke-linecap:square;stroke-linejoin:round"
         id="path3900"
         inkscape:connector-curvature="0" /></g><g
       id="line2d_3"
       style="stroke-linecap:square;stroke-linejoin:round"
       transform="matrix(1.25,0,0,1.25,-18,-33.456237)"><path
         clip-path="url(#p7ff5b81e1d-0)"
         d="m 106.038,388.8 13.615,-18 13.615,-18 13.616,-18 136.152,-18 170.19,0 -217.844,-15.2 -34.038,-15.2 -6.807,-15.2 -6.808,-15.2 0,-15.2 -27.23,-15.2 0,-15.2 -6.808,-15.2 0,-15.2 0,-15.2 0,-15.2 -6.807,-15.2 -27.231,-15.2 0,-15.2 -6.807,-15.2 0,-15.2 0,-15.2 -6.808,-15.2"
         style="fill:none;stroke:#ff0000;stroke-width:2;stroke-linecap:square;stroke-linejoin:round"
         id="path3903"
         inkscape:connector-curvature="0" /></g><g
       style="stroke-linecap:square;stroke-linejoin:round"
       id="xtick_1"
       transform="matrix(1.25,0,0,1.25,-18,-33.456237)"><g
         style="stroke-linecap:square;stroke-linejoin:round"
         id="line2d_4"><defs
           id="defs3908"><path
             inkscape:connector-curvature="0"
             style="stroke:#000000;stroke-width:0.5;stroke-linecap:butt;stroke-linejoin:round"
             id="mcb557df647"
             d="M 0,0 0,-4" /></defs><g
           style="stroke-linecap:square;stroke-linejoin:round"
           id="g3911"><use
             height="432"
             width="576"
             id="use3913"
             y="388.79999"
             xlink:href="#mcb557df647"
             x="72"
             style="stroke:#000000;stroke-width:0.5;stroke-linecap:butt;stroke-linejoin:round" /></g></g><g
         style="stroke-linecap:square;stroke-linejoin:round"
         id="line2d_5"><defs
           id="defs3916"><path
             inkscape:connector-curvature="0"
             style="stroke:#000000;stroke-width:0.5;stroke-linecap:butt;stroke-linejoin:round"
             id="mdad270ee8e"
             d="M 0,0 0,4" /></defs><g
           style="stroke-linecap:square;stroke-linejoin:round"
           id="g3919"><use
             height="432"
             width="576"
             id="use3921"
             y="43.200001"
             xlink:href="#mdad270ee8e"
             x="72"
             style="stroke:#000000;stroke-width:0.5;stroke-linecap:butt;stroke-linejoin:round" /></g></g><g
         style="stroke-linecap:square;stroke-linejoin:round"
         id="text_1"><!-- $0$ --><defs
           id="defs3924"><path
             style="stroke-linecap:square;stroke-linejoin:round"
             inkscape:connector-curvature="0"
             id="CMR17-48"
             d="M 42,31.6406 C 42,37.75 41.9062,48.125 37.7031,56.1094 34,63.1094 28.0938,65.5938 22.9062,65.5938 18.0938,65.5938 12,63.4062 8.20312,56.2031 4.20312,48.7188 3.79688,39.4375 3.79688,31.6406 3.79688,25.9531 3.90625,17.2812 7,9.67188 11.2969,-0.609375 19,-2 22.9062,-2 27.5,-2 34.5,-0.109375 38.5938,9.375 41.5938,16.2812 42,24.3594 42,31.6406 M 22.9062,-0.40625 c -6.4062,0 -10.2031,5.48437 -11.6093,13.09375 -1.0938,5.875 -1.0938,14.4687 -1.0938,20.0625 0,7.6875 0,14.0781 1.2969,20.1719 C 13.4062,61.3906 19,64 22.9062,64 27,64 32.2969,61.2969 34.2031,53.125 35.5,47.4375 35.5938,40.7344 35.5938,32.75 c 0,-6.5 0,-14.4844 -1.1876,-20.375 -2.1093,-10.89062 -8,-12.78125 -11.5,-12.78125" /></defs><g
           style="stroke-linecap:square;stroke-linejoin:round"
           id="g3927"
           transform="matrix(0.14,0,0,-0.14,68.585756,401.78851)"><use
             height="432"
             width="576"
             y="0"
             x="0"
             style="stroke-linecap:square;stroke-linejoin:round"
             id="use3929"
             xlink:href="#CMR17-48"
             transform="scale(0.99626401,0.99626401)" /></g></g></g><g
       style="stroke-linecap:square;stroke-linejoin:round"
       id="xtick_2"
       transform="matrix(1.25,0,0,1.25,-18,-33.456237)"><g
         style="stroke-linecap:square;stroke-linejoin:round"
         id="line2d_6"><g
           style="stroke-linecap:square;stroke-linejoin:round"
           id="g3933"><use
             height="432"
             width="576"
             id="use3935"
             y="388.79999"
             xlink:href="#mcb557df647"
             x="183.60001"
             style="stroke:#000000;stroke-width:0.5;stroke-linecap:butt;stroke-linejoin:round" /></g></g><g
         style="stroke-linecap:square;stroke-linejoin:round"
         id="line2d_7"><g
           style="stroke-linecap:square;stroke-linejoin:round"
           id="g3938"><use
             height="432"
             width="576"
             id="use3940"
             y="43.200001"
             xlink:href="#mdad270ee8e"
             x="183.60001"
             style="stroke:#000000;stroke-width:0.5;stroke-linecap:butt;stroke-linejoin:round" /></g></g><g
         style="stroke-linecap:square;stroke-linejoin:round"
         id="text_2"><!-- $500$ --><defs
           id="defs3943"><path
             style="stroke-linecap:square;stroke-linejoin:round"
             inkscape:connector-curvature="0"
             id="CMR17-53"
             d="M 11.4062,57.6875 C 12.4062,57.2812 16.5,56 20.7031,56 30,56 35.0938,61.0156 38,63.9219 c 0,0.8125 0,1.3281 -0.5938,1.3281 -0.1093,0 -0.3124,0 -1.1093,-0.4219 -3.5,-1.5156 -7.5938,-2.75 -12.5938,-2.75 -3,0 -7.5,0.4219 -12.4062,2.6563 C 10.2031,65.25 10,65.25 9.90625,65.25 c -0.5,0 -0.60937,-0.1094 -0.60937,-2.0938 l 0,-28.875 c 0,-1.7812 0,-2.2812 1.00002,-2.2812 0.5,0 0.7031,0.2031 1.2031,0.9062 3.2031,4.5782 7.5938,6.5 12.5938,6.5 3.5,0 11,-2.1874 11,-19.2656 0,-3.1875 0,-8.9687 -3,-13.56248 C 29.5938,2.48438 25.7031,0.390625 21.4062,0.390625 14.7969,0.390625 8.09375,5 6.29688,12.7188 6.70312,12.6094 7.5,12.4219 7.90625,12.4219 c 1.29687,0 3.79685,0.7031 3.79685,3.7969 C 11.7031,18.9062 9.79688,20 7.90625,20 5.59375,20 4.09375,18.5938 4.09375,15.7969 4.09375,7.09375 11,-2 21.5938,-2 c 10.3124,0 20.1093,8.875 20.1093,21.75 0,11.9688 -7.7969,21.25 -17.5,21.25 -5.1093,0 -9.4062,-1.9062 -12.7969,-5.5469 z" /></defs><g
           style="stroke-linecap:square;stroke-linejoin:round"
           id="g3946"
           transform="matrix(0.14,0,0,-0.14,173.35727,401.78851)"><use
             height="432"
             width="576"
             y="0"
             x="0"
             style="stroke-linecap:square;stroke-linejoin:round"
             id="use3948"
             xlink:href="#CMR17-53"
             transform="scale(0.99626401,0.99626401)" /><use
             height="432"
             width="576"
             y="0"
             x="0"
             style="stroke-linecap:square;stroke-linejoin:round"
             id="use3950"
             xlink:href="#CMR17-48"
             transform="matrix(0.99626401,0,0,0.99626401,45.690477,0)" /><use
             height="432"
             width="576"
             y="0"
             x="0"
             style="stroke-linecap:square;stroke-linejoin:round"
             id="use3952"
             xlink:href="#CMR17-48"
             transform="matrix(0.99626401,0,0,0.99626401,91.380954,0)" /></g></g></g><g
       style="stroke-linecap:square;stroke-linejoin:round"
       id="xtick_3"
       transform="matrix(1.25,0,0,1.25,-18,-33.456237)"><g
         style="stroke-linecap:square;stroke-linejoin:round"
         id="line2d_8"><g
           style="stroke-linecap:square;stroke-linejoin:round"
           id="g3956"><use
             height="432"
             width="576"
             id="use3958"
             y="388.79999"
             xlink:href="#mcb557df647"
             x="295.20001"
             style="stroke:#000000;stroke-width:0.5;stroke-linecap:butt;stroke-linejoin:round" /></g></g><g
         style="stroke-linecap:square;stroke-linejoin:round"
         id="line2d_9"><g
           style="stroke-linecap:square;stroke-linejoin:round"
           id="g3961"><use
             height="432"
             width="576"
             id="use3963"
             y="43.200001"
             xlink:href="#mdad270ee8e"
             x="295.20001"
             style="stroke:#000000;stroke-width:0.5;stroke-linecap:butt;stroke-linejoin:round" /></g></g><g
         style="stroke-linecap:square;stroke-linejoin:round"
         id="text_3"><!-- $1000$ --><defs
           id="defs3966"><path
             style="stroke-linecap:square;stroke-linejoin:round"
             inkscape:connector-curvature="0"
             id="CMR17-49"
             d="m 26.5938,63.3125 c 0,2.0937 -0.0938,2.1875 -1.5,2.1875 -3.8907,-4.3125 -9.7969,-5.7031 -15.39068,-5.7031 -0.29687,0 -0.79687,0 -0.90624,-0.2969 C 8.70312,59.2969 8.70312,59.0938 8.70312,57 11.7969,57 17,57.5938 21,59.9844 L 21,7.20312 C 21,3.6875 20.7969,2.5 12.2031,2.5 l -2.99998,0 0,-2.5 C 14,0 19,0 23.7969,0 c 4.7969,0 9.7969,0 14.6093,0 l 0,2.5 -3,0 c -8.6093,0 -8.8124,1.09375 -8.8124,4.65625 z" /></defs><g
           style="stroke-linecap:square;stroke-linejoin:round"
           id="g3969"
           transform="matrix(0.14,0,0,-0.14,281.54302,401.78851)"><use
             height="432"
             width="576"
             y="0"
             x="0"
             style="stroke-linecap:square;stroke-linejoin:round"
             id="use3971"
             xlink:href="#CMR17-49"
             transform="scale(0.99626401,0.99626401)" /><use
             height="432"
             width="576"
             y="0"
             x="0"
             style="stroke-linecap:square;stroke-linejoin:round"
             id="use3973"
             xlink:href="#CMR17-48"
             transform="matrix(0.99626401,0,0,0.99626401,45.690477,0)" /><use
             height="432"
             width="576"
             y="0"
             x="0"
             style="stroke-linecap:square;stroke-linejoin:round"
             id="use3975"
             xlink:href="#CMR17-48"
             transform="matrix(0.99626401,0,0,0.99626401,91.380954,0)" /><use
             height="432"
             width="576"
             y="0"
             x="0"
             style="stroke-linecap:square;stroke-linejoin:round"
             id="use3977"
             xlink:href="#CMR17-48"
             transform="matrix(0.99626401,0,0,0.99626401,137.07143,0)" /></g></g></g><g
       style="stroke-linecap:square;stroke-linejoin:round"
       id="xtick_4"
       transform="matrix(1.25,0,0,1.25,-18,-33.456237)"><g
         style="stroke-linecap:square;stroke-linejoin:round"
         id="line2d_10"><g
           style="stroke-linecap:square;stroke-linejoin:round"
           id="g3981"><use
             height="432"
             width="576"
             id="use3983"
             y="388.79999"
             xlink:href="#mcb557df647"
             x="406.79999"
             style="stroke:#000000;stroke-width:0.5;stroke-linecap:butt;stroke-linejoin:round" /></g></g><g
         style="stroke-linecap:square;stroke-linejoin:round"
         id="line2d_11"><g
           style="stroke-linecap:square;stroke-linejoin:round"
           id="g3986"><use
             height="432"
             width="576"
             id="use3988"
             y="43.200001"
             xlink:href="#mdad270ee8e"
             x="406.79999"
             style="stroke:#000000;stroke-width:0.5;stroke-linecap:butt;stroke-linejoin:round" /></g></g><g
         style="stroke-linecap:square;stroke-linejoin:round"
         id="text_4"><!-- $1500$ --><g
           style="stroke-linecap:square;stroke-linejoin:round"
           id="g3991"
           transform="matrix(0.14,0,0,-0.14,393.14302,401.78851)"><use
             height="432"
             width="576"
             y="0"
             x="0"
             style="stroke-linecap:square;stroke-linejoin:round"
             id="use3993"
             xlink:href="#CMR17-49"
             transform="scale(0.99626401,0.99626401)" /><use
             height="432"
             width="576"
             y="0"
             x="0"
             style="stroke-linecap:square;stroke-linejoin:round"
             id="use3995"
             xlink:href="#CMR17-53"
             transform="matrix(0.99626401,0,0,0.99626401,45.690477,0)" /><use
             height="432"
             width="576"
             y="0"
             x="0"
             style="stroke-linecap:square;stroke-linejoin:round"
             id="use3997"
             xlink:href="#CMR17-48"
             transform="matrix(0.99626401,0,0,0.99626401,91.380954,0)" /><use
             height="432"
             width="576"
             y="0"
             x="0"
             style="stroke-linecap:square;stroke-linejoin:round"
             id="use3999"
             xlink:href="#CMR17-48"
             transform="matrix(0.99626401,0,0,0.99626401,137.07143,0)" /></g></g></g><g
       style="stroke-linecap:square;stroke-linejoin:round"
       id="xtick_5"
       transform="matrix(1.25,0,0,1.25,-18,-33.456237)"><g
         style="stroke-linecap:square;stroke-linejoin:round"
         id="line2d_12"><g
           style="stroke-linecap:square;stroke-linejoin:round"
           id="g4003"><use
             height="432"
             width="576"
             id="use4005"
             y="388.79999"
             xlink:href="#mcb557df647"
             x="518.40002"
             style="stroke:#000000;stroke-width:0.5;stroke-linecap:butt;stroke-linejoin:round" /></g></g><g
         style="stroke-linecap:square;stroke-linejoin:round"
         id="line2d_13"><g
           style="stroke-linecap:square;stroke-linejoin:round"
           id="g4008"><use
             height="432"
             width="576"
             id="use4010"
             y="43.200001"
             xlink:href="#mdad270ee8e"
             x="518.40002"
             style="stroke:#000000;stroke-width:0.5;stroke-linecap:butt;stroke-linejoin:round" /></g></g><g
         style="stroke-linecap:square;stroke-linejoin:round"
         id="text_5"><!-- $2000$ --><defs
           id="defs4013"><path
             style="stroke-linecap:square;stroke-linejoin:round"
             inkscape:connector-curvature="0"
             id="CMR17-50"
             d="m 41.7031,15.4531 -1.7969,0 C 38.9062,8.375 38.0938,7.17188 37.7031,6.5625 37.2031,5.76562 30,5.76562 28.5938,5.76562 l -19.18755,0 C 13,9.67188 20,16.75 28.5,24.9531 34.5938,30.7344 41.7031,37.5312 41.7031,47.4219 41.7031,59.2188 32.2969,66 21.7969,66 c -11,0 -17.70315,-9.6875 -17.70315,-18.6562 0,-3.9063 2.90625,-4.4063 4.10937,-4.4063 1,0 3.99998,0.6094 3.99998,4.0937 C 12.2031,50.1094 9.59375,51 8.20312,51 7.59375,51 7,50.9062 6.59375,50.7031 8.5,59.2188 14.2969,63.4062 20.4062,63.4062 c 8.6876,0 14.3907,-6.8906 14.3907,-15.9843 C 34.7969,38.7344 29.7031,31.25 24,24.75 L 4.09375,2.28125 4.09375,0 39.2969,0 z" /></defs><g
           style="stroke-linecap:square;stroke-linejoin:round"
           id="g4016"
           transform="matrix(0.14,0,0,-0.14,504.74302,401.78851)"><use
             height="432"
             width="576"
             y="0"
             x="0"
             style="stroke-linecap:square;stroke-linejoin:round"
             id="use4018"
             xlink:href="#CMR17-50"
             transform="scale(0.99626401,0.99626401)" /><use
             height="432"
             width="576"
             y="0"
             x="0"
             style="stroke-linecap:square;stroke-linejoin:round"
             id="use4020"
             xlink:href="#CMR17-48"
             transform="matrix(0.99626401,0,0,0.99626401,45.690477,0)" /><use
             height="432"
             width="576"
             y="0"
             x="0"
             style="stroke-linecap:square;stroke-linejoin:round"
             id="use4022"
             xlink:href="#CMR17-48"
             transform="matrix(0.99626401,0,0,0.99626401,91.380954,0)" /><use
             height="432"
             width="576"
             y="0"
             x="0"
             style="stroke-linecap:square;stroke-linejoin:round"
             id="use4024"
             xlink:href="#CMR17-48"
             transform="matrix(0.99626401,0,0,0.99626401,137.07143,0)" /></g></g></g><g
       style="stroke-linecap:square;stroke-linejoin:round"
       id="ytick_1"
       transform="matrix(1.25,0,0,1.25,-18,-33.456237)"><g
         style="stroke-linecap:square;stroke-linejoin:round"
         id="line2d_14"><defs
           id="defs4084"><path
             inkscape:connector-curvature="0"
             style="stroke:#000000;stroke-width:0.5;stroke-linecap:butt;stroke-linejoin:round"
             id="mc8fcea1516"
             d="M 0,0 4,0" /></defs><g
           style="stroke-linecap:square;stroke-linejoin:round"
           id="g4087"><use
             height="432"
             width="576"
             id="use4089"
             y="388.79999"
             xlink:href="#mc8fcea1516"
             x="72"
             style="stroke:#000000;stroke-width:0.5;stroke-linecap:butt;stroke-linejoin:round" /></g></g><g
         style="stroke-linecap:square;stroke-linejoin:round"
         id="line2d_15"><defs
           id="defs4092"><path
             inkscape:connector-curvature="0"
             style="stroke:#000000;stroke-width:0.5;stroke-linecap:butt;stroke-linejoin:round"
             id="m0d5b0a6425"
             d="M 0,0 -4,0" /></defs><g
           style="stroke-linecap:square;stroke-linejoin:round"
           id="g4095"><use
             height="432"
             width="576"
             id="use4097"
             y="388.79999"
             xlink:href="#m0d5b0a6425"
             x="518.40002"
             style="stroke:#000000;stroke-width:0.5;stroke-linecap:butt;stroke-linejoin:round" /></g></g><g
         style="stroke-linecap:square;stroke-linejoin:round"
         id="text_7"><!-- $0.0$ --><defs
           id="defs4100"><path
             style="stroke-linecap:square;stroke-linejoin:round"
             inkscape:connector-curvature="0"
             id="CMMI12-58"
             d="m 18.4062,4.79688 c 0,2.89062 -2.4062,4.875 -4.8124,4.875 -2.8907,0 -4.89068,-2.39063 -4.89068,-4.78126 C 8.70312,2 11.0938,0 13.5,0 c 2.9062,0 4.9062,2.39062 4.9062,4.79688" /></defs><g
           style="stroke-linecap:square;stroke-linejoin:round"
           id="g4103"
           transform="matrix(0.14,0,0,-0.14,50.549418,393.29425)"><use
             height="432"
             width="576"
             y="0"
             x="0"
             style="stroke-linecap:square;stroke-linejoin:round"
             id="use4105"
             xlink:href="#CMR17-48"
             transform="scale(0.99626401,0.99626401)" /><use
             height="432"
             width="576"
             y="0"
             x="0"
             style="stroke-linecap:square;stroke-linejoin:round"
             id="use4107"
             xlink:href="#CMMI12-58"
             transform="matrix(0.99626401,0,0,0.99626401,45.690477,0)" /><use
             height="432"
             width="576"
             y="0"
             x="0"
             style="stroke-linecap:square;stroke-linejoin:round"
             id="use4109"
             xlink:href="#CMR17-48"
             transform="matrix(0.99626401,0,0,0.99626401,72.787654,0)" /></g></g></g><g
       style="stroke-linecap:square;stroke-linejoin:round"
       id="ytick_2"
       transform="matrix(1.25,0,0,1.25,-18,-33.456237)"><g
         style="stroke-linecap:square;stroke-linejoin:round"
         id="line2d_16"><g
           style="stroke-linecap:square;stroke-linejoin:round"
           id="g4113"><use
             height="432"
             width="576"
             id="use4115"
             y="319.67999"
             xlink:href="#mc8fcea1516"
             x="72"
             style="stroke:#000000;stroke-width:0.5;stroke-linecap:butt;stroke-linejoin:round" /></g></g><g
         style="stroke-linecap:square;stroke-linejoin:round"
         id="line2d_17"><g
           style="stroke-linecap:square;stroke-linejoin:round"
           id="g4118"><use
             height="432"
             width="576"
             id="use4120"
             y="319.67999"
             xlink:href="#m0d5b0a6425"
             x="518.40002"
             style="stroke:#000000;stroke-width:0.5;stroke-linecap:butt;stroke-linejoin:round" /></g></g><g
         style="stroke-linecap:square;stroke-linejoin:round"
         id="text_8"><!-- $0.2$ --><g
           style="stroke-linecap:square;stroke-linejoin:round"
           id="g4123"
           transform="matrix(0.14,0,0,-0.14,50.549418,324.17425)"><use
             height="432"
             width="576"
             y="0"
             x="0"
             style="stroke-linecap:square;stroke-linejoin:round"
             id="use4125"
             xlink:href="#CMR17-48"
             transform="scale(0.99626401,0.99626401)" /><use
             height="432"
             width="576"
             y="0"
             x="0"
             style="stroke-linecap:square;stroke-linejoin:round"
             id="use4127"
             xlink:href="#CMMI12-58"
             transform="matrix(0.99626401,0,0,0.99626401,45.690477,0)" /><use
             height="432"
             width="576"
             y="0"
             x="0"
             style="stroke-linecap:square;stroke-linejoin:round"
             id="use4129"
             xlink:href="#CMR17-50"
             transform="matrix(0.99626401,0,0,0.99626401,72.787654,0)" /></g></g></g><g
       style="stroke-linecap:square;stroke-linejoin:round"
       id="ytick_3"
       transform="matrix(1.25,0,0,1.25,-18,-33.456237)"><g
         style="stroke-linecap:square;stroke-linejoin:round"
         id="line2d_18"><g
           style="stroke-linecap:square;stroke-linejoin:round"
           id="g4133"><use
             height="432"
             width="576"
             id="use4135"
             y="250.56"
             xlink:href="#mc8fcea1516"
             x="72"
             style="stroke:#000000;stroke-width:0.5;stroke-linecap:butt;stroke-linejoin:round" /></g></g><g
         style="stroke-linecap:square;stroke-linejoin:round"
         id="line2d_19"><g
           style="stroke-linecap:square;stroke-linejoin:round"
           id="g4138"><use
             height="432"
             width="576"
             id="use4140"
             y="250.56"
             xlink:href="#m0d5b0a6425"
             x="518.40002"
             style="stroke:#000000;stroke-width:0.5;stroke-linecap:butt;stroke-linejoin:round" /></g></g><g
         style="stroke-linecap:square;stroke-linejoin:round"
         id="text_9"><!-- $0.4$ --><defs
           id="defs4143"><path
             style="stroke-linecap:square;stroke-linejoin:round"
             inkscape:connector-curvature="0"
             id="CMR17-52"
             d="M 33.5938,64.3281 C 33.5938,66.4062 33.5,66.5 31.7031,66.5 L 2,19.5938 2,17 l 25.7969,0 0,-9.85938 C 27.7969,3.5 27.5938,2.5 20.5938,2.5 l -1.8907,0 0,-2.5 c 3.2031,0 8.5938,0 12,0 3.3907,0 8.7969,0 12,0 l 0,2.5 -1.9062,0 c -7,0 -7.2031,1 -7.2031,4.64062 l 0,9.85938 10.2031,0 0,2.5938 -10.2031,0 z m -5.5,-6.5625 0,-38.1718 -24.0938,0 z" /></defs><g
           style="stroke-linecap:square;stroke-linejoin:round"
           id="g4146"
           transform="matrix(0.14,0,0,-0.14,50.549418,255.05425)"><use
             height="432"
             width="576"
             y="0"
             x="0"
             style="stroke-linecap:square;stroke-linejoin:round"
             id="use4148"
             xlink:href="#CMR17-48"
             transform="scale(0.99626401,0.99626401)" /><use
             height="432"
             width="576"
             y="0"
             x="0"
             style="stroke-linecap:square;stroke-linejoin:round"
             id="use4150"
             xlink:href="#CMMI12-58"
             transform="matrix(0.99626401,0,0,0.99626401,45.690477,0)" /><use
             height="432"
             width="576"
             y="0"
             x="0"
             style="stroke-linecap:square;stroke-linejoin:round"
             id="use4152"
             xlink:href="#CMR17-52"
             transform="matrix(0.99626401,0,0,0.99626401,72.787654,0)" /></g></g></g><g
       style="stroke-linecap:square;stroke-linejoin:round"
       id="ytick_4"
       transform="matrix(1.25,0,0,1.25,-18,-33.456237)"><g
         style="stroke-linecap:square;stroke-linejoin:round"
         id="line2d_20"><g
           style="stroke-linecap:square;stroke-linejoin:round"
           id="g4156"><use
             height="432"
             width="576"
             id="use4158"
             y="181.44"
             xlink:href="#mc8fcea1516"
             x="72"
             style="stroke:#000000;stroke-width:0.5;stroke-linecap:butt;stroke-linejoin:round" /></g></g><g
         style="stroke-linecap:square;stroke-linejoin:round"
         id="line2d_21"><g
           style="stroke-linecap:square;stroke-linejoin:round"
           id="g4161"><use
             height="432"
             width="576"
             id="use4163"
             y="181.44"
             xlink:href="#m0d5b0a6425"
             x="518.40002"
             style="stroke:#000000;stroke-width:0.5;stroke-linecap:butt;stroke-linejoin:round" /></g></g><g
         style="stroke-linecap:square;stroke-linejoin:round"
         id="text_10"><!-- $0.6$ --><defs
           id="defs4166"><path
             style="stroke-linecap:square;stroke-linejoin:round"
             inkscape:connector-curvature="0"
             id="CMR17-54"
             d="m 10.5938,34 c 0,23.6562 11.2031,29 17.7031,29 2.1093,0 7.2031,-0.3594 9.2031,-4 -1.5938,0 -4.5938,0 -4.5938,-3.4844 0,-2.6875 2.1876,-3.5937 3.5938,-3.5937 0.9062,0 3.5938,0.3906 3.5938,3.7031 0,6.1562 -5,9.6719 -11.8907,9.6719 C 16.2969,65.2969 3.79688,52.9688 3.79688,31 3.79688,3.95312 15.0938,-2 23.0938,-2 32.7969,-2 42,6.67188 42,20.0469 c 0,12.4687 -8.0938,21.5469 -18.2969,21.5469 -6.1093,0 -10.6093,-3.9844 -13.1093,-10.9688 z m 12.5,-33.609375 C 10.7969,0.390625 10.7969,18.75 10.7969,22.4375 10.7969,29.625 14.2031,40 23.5,40 c 1.7031,0 6.5938,0 9.9062,-6.875 1.7969,-3.9062 1.7969,-7.9844 1.7969,-12.9844 0,-5.3906 0,-9.3594 -2.1093,-13.35935 -2.1876,-4.10937 -5.3907,-6.390625 -10,-6.390625" /></defs><g
           style="stroke-linecap:square;stroke-linejoin:round"
           id="g4169"
           transform="matrix(0.14,0,0,-0.14,50.549418,185.93425)"><use
             height="432"
             width="576"
             y="0"
             x="0"
             style="stroke-linecap:square;stroke-linejoin:round"
             id="use4171"
             xlink:href="#CMR17-48"
             transform="scale(0.99626401,0.99626401)" /><use
             height="432"
             width="576"
             y="0"
             x="0"
             style="stroke-linecap:square;stroke-linejoin:round"
             id="use4173"
             xlink:href="#CMMI12-58"
             transform="matrix(0.99626401,0,0,0.99626401,45.690477,0)" /><use
             height="432"
             width="576"
             y="0"
             x="0"
             style="stroke-linecap:square;stroke-linejoin:round"
             id="use4175"
             xlink:href="#CMR17-54"
             transform="matrix(0.99626401,0,0,0.99626401,72.787654,0)" /></g></g></g><g
       style="stroke-linecap:square;stroke-linejoin:round"
       id="ytick_5"
       transform="matrix(1.25,0,0,1.25,-18,-33.456237)"><g
         style="stroke-linecap:square;stroke-linejoin:round"
         id="line2d_22"><g
           style="stroke-linecap:square;stroke-linejoin:round"
           id="g4179"><use
             height="432"
             width="576"
             id="use4181"
             y="112.32"
             xlink:href="#mc8fcea1516"
             x="72"
             style="stroke:#000000;stroke-width:0.5;stroke-linecap:butt;stroke-linejoin:round" /></g></g><g
         style="stroke-linecap:square;stroke-linejoin:round"
         id="line2d_23"><g
           style="stroke-linecap:square;stroke-linejoin:round"
           id="g4184"><use
             height="432"
             width="576"
             id="use4186"
             y="112.32"
             xlink:href="#m0d5b0a6425"
             x="518.40002"
             style="stroke:#000000;stroke-width:0.5;stroke-linecap:butt;stroke-linejoin:round" /></g></g><g
         style="stroke-linecap:square;stroke-linejoin:round"
         id="text_11"><!-- $0.8$ --><defs
           id="defs4189"><path
             style="stroke-linecap:square;stroke-linejoin:round"
             inkscape:connector-curvature="0"
             id="CMR17-56"
             d="m 27.2031,35.375 c 6.2969,3.1875 12.7031,7.9531 12.7031,15.6094 0,9.0468 -8.8124,14.3125 -16.9062,14.3125 -9.0938,0 -17.09375,-6.5625 -17.09375,-15.6094 0,-2.4844 0.59375,-6.7656 4.49995,-10.5469 1,-0.9844 5.1876,-3.9687 7.8907,-5.8594 C 13.7969,30.9844 3.29688,25.5312 3.29688,14.5938 3.29688,4.35938 13.0938,-2 22.7969,-2 33.5,-2 42.5,5.65625 42.5,15.7969 c 0,9.0469 -6.0938,13.2343 -10.0938,15.9062 z m -13.1093,8.75 c -0.7969,0.5 -4.79692,3.5781 -4.79692,8.25 C 9.29688,58.4375 15.5938,63 22.7969,63 30.7031,63 36.5,57.4531 36.5,50.9844 c 0,-9.25 -10.4062,-14.5156 -10.9062,-14.5156 -0.0938,0 -0.1876,0 -1,0.6093 z M 32.5,23.7344 C 34,22.6406 38.7969,19.375 38.7969,13.2969 38.7969,5.95312 31.4062,0.390625 23,0.390625 c -9.0938,0 -16,6.453125 -16,14.296875 0,7.8594 6.0938,14.4063 13,17.5 z" /></defs><g
           style="stroke-linecap:square;stroke-linejoin:round"
           id="g4192"
           transform="matrix(0.14,0,0,-0.14,50.549418,116.81425)"><use
             height="432"
             width="576"
             y="0"
             x="0"
             style="stroke-linecap:square;stroke-linejoin:round"
             id="use4194"
             xlink:href="#CMR17-48"
             transform="scale(0.99626401,0.99626401)" /><use
             height="432"
             width="576"
             y="0"
             x="0"
             style="stroke-linecap:square;stroke-linejoin:round"
             id="use4196"
             xlink:href="#CMMI12-58"
             transform="matrix(0.99626401,0,0,0.99626401,45.690477,0)" /><use
             height="432"
             width="576"
             y="0"
             x="0"
             style="stroke-linecap:square;stroke-linejoin:round"
             id="use4198"
             xlink:href="#CMR17-56"
             transform="matrix(0.99626401,0,0,0.99626401,72.787654,0)" /></g></g></g><g
       style="stroke-linecap:square;stroke-linejoin:round"
       id="ytick_6"
       transform="matrix(1.25,0,0,1.25,-18,-33.456237)"><g
         style="stroke-linecap:square;stroke-linejoin:round"
         id="line2d_24"><g
           style="stroke-linecap:square;stroke-linejoin:round"
           id="g4202"><use
             height="432"
             width="576"
             id="use4204"
             y="43.200001"
             xlink:href="#mc8fcea1516"
             x="72"
             style="stroke:#000000;stroke-width:0.5;stroke-linecap:butt;stroke-linejoin:round" /></g></g><g
         style="stroke-linecap:square;stroke-linejoin:round"
         id="line2d_25"><g
           style="stroke-linecap:square;stroke-linejoin:round"
           id="g4207"><use
             height="432"
             width="576"
             id="use4209"
             y="43.200001"
             xlink:href="#m0d5b0a6425"
             x="518.40002"
             style="stroke:#000000;stroke-width:0.5;stroke-linecap:butt;stroke-linejoin:round" /></g></g><g
         style="stroke-linecap:square;stroke-linejoin:round"
         id="text_12"><!-- $1.0$ --><g
           style="stroke-linecap:square;stroke-linejoin:round"
           id="g4212"
           transform="matrix(0.14,0,0,-0.14,50.549418,47.694255)"><use
             height="432"
             width="576"
             y="0"
             x="0"
             style="stroke-linecap:square;stroke-linejoin:round"
             id="use4214"
             xlink:href="#CMR17-49"
             transform="scale(0.99626401,0.99626401)" /><use
             height="432"
             width="576"
             y="0"
             x="0"
             style="stroke-linecap:square;stroke-linejoin:round"
             id="use4216"
             xlink:href="#CMMI12-58"
             transform="matrix(0.99626401,0,0,0.99626401,45.690477,0)" /><use
             height="432"
             width="576"
             y="0"
             x="0"
             style="stroke-linecap:square;stroke-linejoin:round"
             id="use4218"
             xlink:href="#CMR17-48"
             transform="matrix(0.99626401,0,0,0.99626401,72.787654,0)" /></g></g></g><g
       id="patch_6"
       style="stroke-linecap:square;stroke-linejoin:round"
       transform="matrix(1.25,0,0,1.25,-18,-33.456237)"><path
         d="m 72,43.2 446.4,0"
         style="fill:none;stroke:#000000;stroke-linecap:square;stroke-linejoin:round"
         id="path4229"
         inkscape:connector-curvature="0" /></g><g
       id="patch_7"
       style="stroke-linecap:square;stroke-linejoin:round"
       transform="matrix(1.25,0,0,1.25,-18,-33.456237)"><path
         d="m 518.4,388.8 0,-345.6"
         style="fill:none;stroke:#000000;stroke-linecap:square;stroke-linejoin:round"
         id="path4232"
         inkscape:connector-curvature="0" /></g><g
       id="patch_8"
       style="stroke-linecap:square;stroke-linejoin:round"
       transform="matrix(1.25,0,0,1.25,-18,-33.456237)"><path
         d="m 72,388.8 446.4,0"
         style="fill:none;stroke:#000000;stroke-linecap:square;stroke-linejoin:round"
         id="path4235"
         inkscape:connector-curvature="0" /></g><g
       id="patch_9"
       style="stroke-linecap:square;stroke-linejoin:round"
       transform="matrix(1.25,0,0,1.25,-18,-33.456237)"><path
         d="M 72,388.8 72,43.2"
         style="fill:none;stroke:#000000;stroke-linecap:square;stroke-linejoin:round"
         id="path4238"
         inkscape:connector-curvature="0" /></g><path
       inkscape:connector-curvature="0"
       id="path3853"
       style="fill:none;stroke:#0000ff;stroke-width:3;stroke-linecap:square;stroke-linejoin:miter;stroke-miterlimit:4;stroke-opacity:1;stroke-dasharray:none;display:inline"
       d="m 311.50061,415.79128 c 0,4.9275 -3.98875,8.91625 -8.915,8.91625 -4.9275,0 -8.91625,-3.98875 -8.91625,-8.91625 0,-4.92125 3.98875,-8.91625 8.91625,-8.91625 4.8925,0 8.87125,3.94625 8.915,8.83875" /><path
       inkscape:connector-curvature="0"
       id="path3855"
       style="fill:none;stroke:#008000;stroke-width:3.39675879;stroke-linecap:butt;stroke-linejoin:miter;stroke-miterlimit:4;stroke-opacity:1;stroke-dasharray:none;display:inline"
       d="m 400.85966,391.44639 17.02625,0 0,17.02625 -17.02625,0 0,-17.02625 z" /><path
       inkscape:connector-curvature="0"
       id="path3859"
       style="fill:none;stroke:#ff0000;stroke-width:3;stroke-linecap:square;stroke-linejoin:miter;stroke-miterlimit:4;stroke-opacity:1;stroke-dasharray:none;display:inline"
       d="m 442.47708,359.46236 -20.92291,-0.0243 10.48324,-18.1065 10.43967,18.13082 z" /></g><g
     inkscape:groupmode="layer"
     id="layer2"
     inkscape:label="labels"
     style="display:inline"><text
       y="-124.21468"
       x="62.382305"
       style="font-size:15px;display:inline"
       transform="matrix(0.21600336,0.97639262,-0.97639262,0.21600336,0,0)"
       id="text3793"><tspan
         style="font-size:18.53603745px;font-variant:normal;font-weight:normal;writing-mode:lr-tb;fill:#000000;fill-opacity:1;fill-rule:nonzero;stroke:none;font-family:Bitstream Vera Sans;-inkscape-font-specification:BitstreamVeraSans-Roman"
         x="62.382305 73.448318 84.403122 91.669243 96.803726 108.37022 118.5465 125.81262 130.94711 142.27263"
         y="-124.21468"
         sodipodi:role="line"
         id="tspan3795">extinction</tspan></text>
<text
       y="353.31586"
       x="-299.10553"
       style="font-size:15px;display:inline"
       transform="matrix(0.59496377,-0.80375252,0.80375252,0.59496377,0,0)"
       id="text3797"><tspan
         style="font-size:18.53603554px;font-variant:normal;font-weight:normal;writing-mode:lr-tb;fill:#000000;fill-opacity:1;fill-rule:nonzero;stroke:none;font-family:Bitstream Vera Sans;-inkscape-font-specification:BitstreamVeraSans-Roman"
         x="-299.10553 -292.58084 -287.44635 -276.49155 -265.14749 -258.04819 -252.91367 -241.58815"
         y="353.31586"
         sodipodi:role="line"
         id="tspan3799">fixation</tspan></text>
<g
       transform="matrix(1.25,0,0,-1.25,0,512.54375)"
       style="display:inline"
       id="g7616"><path
         d="m 196.766,17.363 1.859,0 c 0.391,0 0.59,0 0.59,0.395 0,0.218 -0.199,0.218 -0.551,0.218 l -1.742,0 c 0.711,2.813 0.808,3.211 0.808,3.325 0,0.339 -0.234,0.535 -0.566,0.535 -0.066,0 -0.617,-0.02 -0.797,-0.715 l -0.769,-3.145 -1.864,0 c -0.398,0 -0.593,0 -0.593,-0.371 0,-0.242 0.16,-0.242 0.558,-0.242 l 1.735,0 c -1.422,-5.617 -1.5,-5.953 -1.5,-6.312 0,-1.071 0.75,-1.821 1.82,-1.821 2.016,0 3.144,2.887 3.144,3.047 0,0.199 -0.156,0.199 -0.234,0.199 -0.184,0 -0.199,-0.058 -0.297,-0.277 -0.851,-2.055 -1.898,-2.531 -2.57,-2.531 -0.418,0 -0.617,0.258 -0.617,0.91 0,0.473 0.035,0.617 0.121,0.949 l 1.465,5.836 z"
         style="fill:#000000;fill-opacity:1;fill-rule:nonzero;stroke:none"
         id="path3807"
         inkscape:connector-curvature="0" /><path
         d="m 202.594,16.101 -2.082,-0.152 0,-0.5 c 0.945,0 1.043,-0.109 1.043,-0.805 l 0,-8.148 0.465,0 0.484,0.844 c 0.527,-0.692 1.293,-0.981 2.023,-0.981 l -0.07,0.387 c -1.109,0 -1.664,0.871 -1.809,1.16 l 0,3.223 c 0.383,0.64 1.137,1.082 1.961,1.082 0.774,0 1.329,-0.442 1.606,-0.856 0.281,-0.406 0.441,-0.945 0.441,-1.859 0,-0.313 0,-1.356 -0.566,-2 -0.551,-0.629 -1.227,-0.75 -1.633,-0.75 l 0.07,-0.387 c 1.825,0 3.387,1.367 3.387,3.125 0,1.688 -1.418,3.11 -3.234,3.11 -0.828,0 -1.59,-0.329 -2.086,-0.825 l 0,4.332 z"
         style="fill:#000000;fill-opacity:1;fill-rule:nonzero;stroke:none"
         id="path3809"
         inkscape:connector-curvature="0" /><path
         d="m 216.309,9.441 -0.004,0.164 -0.016,0.157 -0.019,0.16 -0.028,0.156 -0.039,0.152 -0.043,0.153 -0.051,0.152 -0.062,0.141 -0.067,0.144 -0.074,0.141 -0.082,0.133 -0.086,0.132 -0.09,0.125 -0.105,0.125 -0.102,0.118 -0.113,0.113 -0.117,0.105 -0.125,0.106 -0.125,0.097 -0.133,0.09 -0.137,0.086 -0.144,0.078 -0.149,0.075 -0.148,0.066 -0.156,0.059 -0.156,0.05 -0.161,0.047 -0.168,0.035 -0.171,0.032 -0.168,0.023 -0.176,0.012 -0.18,0.004 0,-0.395 c 0.82,0 1.402,-0.383 1.707,-0.808 0.383,-0.543 0.426,-1.239 0.426,-1.899 0,-0.668 -0.043,-1.398 -0.445,-1.972 -0.372,-0.52 -1.004,-0.797 -1.688,-0.797 -0.508,0 -1.258,0.168 -1.711,0.843 -0.375,0.571 -0.418,1.286 -0.418,1.926 0,0.594 0.012,1.414 0.496,2 0.348,0.406 0.93,0.707 1.633,0.707 l 0,0.395 c -1.906,0 -3.387,-1.5 -3.387,-3.231 0,-1.715 1.52,-3.082 3.387,-3.082 1.867,0 3.395,1.367 3.395,3.082 z"
         style="fill:#000000;fill-opacity:1;fill-rule:nonzero;stroke:none"
         id="path3811"
         inkscape:connector-curvature="0" /><path
         d="m 221.844,12.449 0,-0.496 c 0.926,0 1.035,-0.102 1.035,-0.781 l 0,-2.371 c 0,-1.215 -0.785,-2.055 -1.836,-2.055 -1.258,0 -1.316,0.594 -1.316,1.301 l 0,4.547 -2.133,-0.145 0,-0.496 c 1.039,0 1.039,-0.043 1.039,-1.281 l 0,-2.071 c 0,-0.957 0,-2.242 2.312,-2.242 0.301,0 1.317,0 1.977,1.16 l 0.012,0 0,-1.16 2.082,0.137 0,0.496 c -0.934,0 -1.043,0.098 -1.043,0.773 l 0,4.829 -2.129,-0.145 z"
         style="fill:#000000;fill-opacity:1;fill-rule:nonzero;stroke:none"
         id="path3813"
         inkscape:connector-curvature="0" /><path
         d="m 232.695,10.687 0,0.114 -0.007,0.109 -0.008,0.105 -0.032,0.204 -0.019,0.093 -0.024,0.094 -0.027,0.09 -0.031,0.086 -0.035,0.086 -0.039,0.078 -0.094,0.148 -0.051,0.071 -0.055,0.066 -0.058,0.063 -0.067,0.062 -0.07,0.055 -0.07,0.051 -0.082,0.046 -0.078,0.047 -0.086,0.043 -0.094,0.035 -0.098,0.036 -0.101,0.027 -0.106,0.027 -0.226,0.039 -0.125,0.012 -0.121,0.012 -0.137,0.008 -0.133,0 c -1.137,0 -1.867,-0.618 -2.262,-1.336 l -0.011,0 0,1.336 -2.032,-0.145 0,-0.496 c 0.93,0 1.039,-0.102 1.039,-0.781 l 0,-3.586 c 0,-0.594 -0.144,-0.594 -1.039,-0.594 l 0,-0.496 c 0.032,0 0.996,0.055 1.579,0.055 0.507,0 1.468,-0.043 1.589,-0.055 l 0,0.496 c -0.898,0 -1.035,0 -1.035,0.594 l 0,2.496 c 0,1.453 1.149,2.129 2.059,2.129 0.969,0 1.094,-0.762 1.094,-1.465 l 0,-3.16 c 0,-0.594 -0.137,-0.594 -1.036,-0.594 l 0,-0.496 c 0.032,0 1,0.055 1.575,0.055 0.515,0 1.468,-0.043 1.597,-0.055 l 0,0.496 c -0.902,0 -1.043,0 -1.043,0.594 l 0,3.101 z"
         style="fill:#000000;fill-opacity:1;fill-rule:nonzero;stroke:none"
         id="path3815"
         inkscape:connector-curvature="0" /><path
         d="m 239.219,15.949 0,-0.5 c 0.922,0 1.031,-0.098 1.031,-0.773 l 0,-2.868 c -0.508,0.5 -1.168,0.786 -1.934,0.786 l 0.071,-0.383 c 0.66,0 1.258,-0.301 1.644,-0.801 0.168,-0.227 0.168,-0.238 0.168,-0.504 l 0,-2.957 c -0.359,-0.652 -1.062,-1.203 -1.961,-1.203 -0.777,0 -1.336,0.457 -1.609,0.852 -0.277,0.417 -0.441,0.976 -0.441,1.855 0,0.328 0,1.363 0.566,2.016 0.551,0.617 1.23,0.742 1.633,0.742 l -0.071,0.383 c -1.839,0 -3.386,-1.379 -3.386,-3.125 0,-1.727 1.465,-3.11 3.222,-3.11 1.133,0 1.809,0.61 2.047,0.856 l 0,-0.856 2.133,0.137 0,0.496 c -0.93,0 -1.039,0.098 -1.039,0.773 l 0,8.336 -2.074,-0.152 z"
         style="fill:#000000;fill-opacity:1;fill-rule:nonzero;stroke:none"
         id="path3817"
         inkscape:connector-curvature="0" /><path
         d="m 249.184,10.207 0,0.262 -0.004,0.129 -0.004,0.125 -0.004,0.058 -0.008,0.059 -0.004,0.054 -0.008,0.063 -0.007,0.055 -0.024,0.109 -0.016,0.051 -0.015,0.058 -0.016,0.051 -0.019,0.051 -0.024,0.051 -0.027,0.054 -0.055,0.102 -0.035,0.047 -0.031,0.051 -0.039,0.05 -0.039,0.047 -0.047,0.051 -0.047,0.047 -0.051,0.047 -0.055,0.051 -0.058,0.046 c -0.567,0.473 -1.231,0.696 -2.047,0.696 -1.316,0 -2.242,-0.504 -2.242,-1.348 0,-0.441 0.304,-0.68 0.664,-0.68 0.375,0 0.652,0.282 0.652,0.657 0,0.234 -0.113,0.523 -0.484,0.632 0.496,0.344 1.297,0.344 1.387,0.344 0.765,0 1.613,-0.508 1.613,-1.672 l 0,-2.16 c 0,-1.332 -1.16,-1.699 -1.785,-1.699 -0.707,0 -1.371,0.469 -1.371,1.148 0,0.762 0.664,1.829 3.156,1.922 l 0,0.36 c -0.762,-0.028 -1.672,-0.067 -2.684,-0.442 -1.246,-0.461 -1.633,-1.215 -1.633,-1.84 0,-1.191 1.438,-1.535 2.422,-1.535 1.102,0 1.754,0.621 2.047,1.16 0.055,-0.562 0.43,-1.093 1.07,-1.093 0.024,0 1.36,0 1.36,1.316 l 0,0.758 -0.461,0 0,-0.746 c 0,-0.137 0,-0.797 -0.52,-0.797 -0.507,0 -0.507,0.641 -0.507,0.824 l 0,2.426 z"
         style="fill:#000000;fill-opacity:1;fill-rule:nonzero;stroke:none"
         id="path3819"
         inkscape:connector-curvature="0" /><path
         d="m 253.629,9.648 0,0.11 0.008,0.113 0.008,0.109 0.011,0.114 0.012,0.109 0.02,0.117 0.019,0.11 0.027,0.113 0.032,0.105 0.031,0.114 0.035,0.105 0.039,0.106 0.039,0.101 0.047,0.098 0.055,0.101 0.05,0.094 0.059,0.094 0.063,0.086 0.066,0.082 0.07,0.078 0.071,0.074 0.082,0.07 0.082,0.067 0.086,0.058 0.089,0.051 0.094,0.047 0.098,0.039 0.105,0.039 0.106,0.024 0.113,0.019 0.117,0.012 0.121,0.004 c -0.125,-0.102 -0.234,-0.278 -0.234,-0.496 0,-0.457 0.359,-0.641 0.617,-0.641 0.34,0 0.641,0.227 0.641,0.641 0,0.472 -0.446,0.879 -1.098,0.879 -0.687,0 -1.453,-0.426 -1.867,-1.477 l -0.012,0 0,1.477 -1.98,-0.145 0,-0.496 c 0.929,0 1.043,-0.102 1.043,-0.781 l 0,-3.586 c 0,-0.594 -0.145,-0.594 -1.043,-0.594 l 0,-0.496 c 0.066,0 1.008,0.055 1.578,0.055 0.594,0 1.207,-0.032 1.797,-0.055 l 0,0.496 -0.274,0 c -1.023,0 -1.023,0.152 -1.023,0.625 l 0,2.031 z"
         style="fill:#000000;fill-opacity:1;fill-rule:nonzero;stroke:none"
         id="path3821"
         inkscape:connector-curvature="0" /><path
         d="m 263.613,11.105 0.02,0.039 0.019,0.036 0.02,0.043 0.019,0.035 0.024,0.031 0.019,0.035 0.039,0.059 0.043,0.062 0.043,0.055 0.047,0.051 0.141,0.129 0.094,0.07 0.05,0.027 0.047,0.028 0.094,0.046 0.047,0.016 0.051,0.02 0.043,0.015 0.047,0.016 0.085,0.015 0.04,0.008 0.043,0.008 0.035,0.004 0.039,0.004 0.031,0.004 0.062,0 0.028,0.004 0.051,0 0,0.496 c -0.395,-0.028 -0.653,-0.055 -1.059,-0.055 -0.371,0 -0.887,0.012 -1.258,0.055 l 0,-0.496 c 0.461,-0.032 0.571,-0.309 0.571,-0.528 0,-0.168 -0.071,-0.297 -0.122,-0.429 l -1.543,-3.282 -1.699,3.653 c -0.043,0.09 -0.086,0.168 -0.086,0.265 0,0.321 0.473,0.321 0.707,0.321 l 0,0.496 c -0.207,-0.012 -1.203,-0.055 -1.59,-0.055 -0.417,0 -0.953,0.012 -1.359,0.055 l 0,-0.496 c 0.777,0 0.93,-0.043 1.137,-0.485 l 2.328,-4.984 c -0.129,-0.277 -0.266,-0.543 -0.395,-0.82 -0.3,-0.664 -0.742,-1.614 -1.687,-1.614 -0.344,0 -0.453,0.071 -0.594,0.161 0.016,0 0.403,0.144 0.403,0.597 0,0.348 -0.25,0.594 -0.594,0.594 -0.364,0 -0.61,-0.246 -0.61,-0.606 0,-0.652 0.653,-1.136 1.395,-1.136 1.18,0 1.855,1.234 2.051,1.644 l 2.683,5.789 z"
         style="fill:#000000;fill-opacity:1;fill-rule:nonzero;stroke:none"
         id="path3823"
         inkscape:connector-curvature="0" /><path
         d="m 283.938,13.996 0.124,0 0.063,0.004 0.031,0 0.032,0.004 0.027,0 0.031,0.004 0.055,0.007 0.031,0.008 0.027,0.012 0.028,0.008 0.047,0.015 0.046,0.024 0.02,0.016 0.02,0.011 0.015,0.02 0.024,0.015 0.015,0.02 0.004,0.012 0.016,0.023 0.008,0.024 0.007,0.011 0.004,0.016 0.004,0.012 0.004,0.019 0.004,0.016 0,0.015 0.004,0.016 0,0.016 0.004,0.015 0,0.035 c 0,0.399 -0.363,0.399 -0.695,0.399 l -10.704,0 c -0.339,0 -0.691,0 -0.691,-0.399 0,-0.398 0.352,-0.398 0.691,-0.398 l 10.704,0 z"
         style="fill:#000000;fill-opacity:1;fill-rule:nonzero;stroke:none"
         id="path3825"
         inkscape:connector-curvature="0" /><path
         d="m 294.754,17.363 1.859,0 c 0.395,0 0.594,0 0.594,0.395 0,0.218 -0.199,0.218 -0.555,0.218 l -1.742,0 c 0.711,2.813 0.813,3.211 0.813,3.325 0,0.339 -0.235,0.535 -0.575,0.535 -0.058,0 -0.609,-0.02 -0.793,-0.715 l -0.765,-3.145 -1.863,0 c -0.399,0 -0.598,0 -0.598,-0.371 0,-0.242 0.16,-0.242 0.559,-0.242 l 1.738,0 c -1.422,-5.617 -1.5,-5.953 -1.5,-6.312 0,-1.071 0.75,-1.821 1.816,-1.821 2.016,0 3.149,2.887 3.149,3.047 0,0.199 -0.157,0.199 -0.239,0.199 -0.179,0 -0.199,-0.058 -0.3,-0.277 -0.844,-2.055 -1.899,-2.531 -2.567,-2.531 -0.414,0 -0.613,0.258 -0.613,0.91 0,0.473 0.035,0.617 0.117,0.949 l 1.465,5.836 z"
         style="fill:#000000;fill-opacity:1;fill-rule:nonzero;stroke:none"
         id="path3827"
         inkscape:connector-curvature="0" /><path
         d="m 302.309,15.144 0,0.043 -0.004,0.02 -0.004,0.027 -0.004,0.02 -0.004,0.023 -0.008,0.02 -0.015,0.047 -0.008,0.019 -0.012,0.024 -0.012,0.019 -0.011,0.024 -0.016,0.019 -0.016,0.024 -0.031,0.039 -0.019,0.019 -0.02,0.016 -0.02,0.019 -0.023,0.016 -0.027,0.012 -0.024,0.015 -0.027,0.012 -0.024,0.012 -0.031,0.011 -0.027,0.008 -0.031,0.008 -0.032,0.004 -0.07,0.008 -0.035,0 c -0.371,0 -0.774,-0.36 -0.774,-0.762 0,-0.234 0.18,-0.527 0.555,-0.527 0.399,0 0.774,0.394 0.774,0.761 z"
         style="fill:#000000;fill-opacity:1;fill-rule:nonzero;stroke:none"
         id="path3829"
         inkscape:connector-curvature="0" /><path
         d="m 299.492,8.117 -0.027,-0.07 -0.02,-0.067 -0.011,-0.031 -0.012,-0.035 -0.008,-0.031 -0.008,-0.039 -0.011,-0.036 -0.008,-0.035 -0.004,-0.039 -0.008,-0.035 -0.004,-0.039 -0.004,-0.02 0,-0.046 -0.004,-0.02 0,-0.043 c 0,-0.652 0.551,-1.172 1.313,-1.172 1.383,0 1.996,1.903 1.996,2.117 0,0.18 -0.18,0.18 -0.223,0.18 -0.191,0 -0.211,-0.082 -0.265,-0.234 -0.317,-1.11 -0.926,-1.676 -1.465,-1.676 -0.278,0 -0.348,0.176 -0.348,0.484 0,0.313 0.102,0.578 0.223,0.887 0.136,0.371 0.289,0.742 0.441,1.102 0.125,0.336 0.629,1.597 0.68,1.765 0.039,0.133 0.082,0.301 0.082,0.438 0,0.652 -0.551,1.172 -1.313,1.172 -1.375,0 -2.007,-1.875 -2.007,-2.118 0,-0.175 0.191,-0.175 0.234,-0.175 0.195,0 0.207,0.066 0.25,0.222 0.359,1.192 0.965,1.688 1.48,1.688 0.223,0 0.344,-0.113 0.344,-0.485 0,-0.316 -0.078,-0.523 -0.43,-1.382 l -0.863,-2.227 z"
         style="fill:#000000;fill-opacity:1;fill-rule:nonzero;stroke:none"
         id="path3831"
         inkscape:connector-curvature="0" /><path
         d="m 316.023,23.496 0,0.793 -2.711,0 0,-19.785 2.711,0 0,0.789 -1.918,0 0,18.203 1.918,0 z"
         style="fill:#000000;fill-opacity:1;fill-rule:nonzero;stroke:none"
         id="path3833"
         inkscape:connector-curvature="0" /><path
         d="m 323.98,10.535 0,-1.305 2.907,0.219 0,0.617 c -1.387,0 -1.539,0.133 -1.539,1.102 l 0,12.015 -2.848,-0.218 0,-0.614 c 1.383,0 1.535,-0.136 1.535,-1.109 l 0,-4.269 c -0.566,0.707 -1.418,1.218 -2.492,1.218 l 0.082,-0.433 c 0.695,0 1.523,-0.297 2.141,-1.184 0.214,-0.336 0.214,-0.379 0.214,-0.734 l 0,-4.059 c 0,-0.351 0,-0.398 -0.214,-0.73 -0.594,-0.95 -1.489,-1.383 -2.34,-1.383 -0.891,0 -1.606,0.512 -2.074,1.262 -0.516,0.816 -0.579,1.945 -0.579,2.753 0,0.731 0.039,1.922 0.618,2.809 0.414,0.613 1.168,1.266 2.234,1.266 l -0.082,0.433 c -2.332,0 -4.414,-1.933 -4.414,-4.484 0,-2.512 1.941,-4.477 4.199,-4.477 1.262,0 2.156,0.672 2.652,1.305 z"
         style="fill:#000000;fill-opacity:1;fill-rule:nonzero;stroke:none"
         id="path3835"
         inkscape:connector-curvature="0" /><path
         d="m 334.062,10.949 0.008,-0.074 0.012,-0.07 0.031,-0.149 0.02,-0.074 0.019,-0.07 0.024,-0.075 0.027,-0.07 0.063,-0.141 0.039,-0.07 0.035,-0.062 0.039,-0.063 0.043,-0.066 0.043,-0.063 0.047,-0.054 0.054,-0.055 0.051,-0.059 0.055,-0.051 0.055,-0.046 0.062,-0.047 0.063,-0.039 0.062,-0.043 0.066,-0.035 0.075,-0.032 0.07,-0.027 0.07,-0.024 0.082,-0.019 0.078,-0.016 0.079,-0.011 0.086,-0.008 0.085,-0.004 c 0.411,0 1.622,0.281 1.622,1.883 l 0,1.101 -0.497,0 0,-1.101 c 0,-1.149 -0.492,-1.27 -0.714,-1.27 -0.653,0 -0.731,0.887 -0.731,0.985 l 0,3.96 c 0,0.836 0,1.602 -0.707,2.336 -0.781,0.766 -1.766,1.086 -2.715,1.086 -1.629,0 -2.988,-0.925 -2.988,-2.234 0,-0.59 0.395,-0.934 0.906,-0.934 0.555,0 0.914,0.399 0.914,0.914 0,0.235 -0.097,0.887 -1.011,0.915 0.535,0.687 1.5,0.906 2.136,0.906 0.973,0 2.098,-0.774 2.098,-2.535 l 0,-3.125 c 0,-1.883 -1.422,-2.551 -2.316,-2.551 -0.969,0 -1.778,0.695 -1.778,1.68 0,1.085 0.828,2.734 4.094,2.847 l 0,0.418 c -1.004,-0.055 -2.391,-0.121 -3.637,-0.715 -1.484,-0.672 -1.98,-1.699 -1.98,-2.57 0,-1.602 1.918,-2.098 3.168,-2.098 1.304,0 2.215,0.793 2.593,1.719 z"
         style="fill:#000000;fill-opacity:1;fill-rule:nonzero;stroke:none"
         id="path3837"
         inkscape:connector-curvature="0" /><path
         d="m 345.023,16.094 0.047,0.117 0.028,0.054 0.023,0.051 0.027,0.047 0.028,0.055 0.031,0.047 0.031,0.043 0.055,0.086 0.062,0.082 0.063,0.074 0.066,0.07 0.063,0.067 0.133,0.109 0.066,0.047 0.133,0.086 0.07,0.035 0.067,0.035 0.066,0.027 0.07,0.024 0.125,0.039 0.063,0.016 0.062,0.011 0.059,0.012 0.055,0.008 0.05,0.008 0.055,0.011 0.051,0.004 0.043,0 0.043,0.004 0.109,0 0,0.613 c -0.461,-0.039 -1.035,-0.054 -1.488,-0.054 -0.356,0 -1.289,0.035 -1.723,0.054 l 0,-0.613 c 0.617,-0.023 0.93,-0.355 0.93,-0.851 0,-0.2 -0.016,-0.235 -0.117,-0.473 l -1.996,-4.871 -2.2,5.324 c -0.082,0.199 -0.117,0.281 -0.117,0.359 0,0.512 0.731,0.512 1.106,0.512 l 0,0.613 c -0.508,-0.019 -1.821,-0.054 -2.153,-0.054 -0.535,0 -1.332,0.015 -1.918,0.054 l 0,-0.613 c 0.95,0 1.321,0 1.598,-0.687 l 2.969,-7.227 c -0.098,-0.254 -0.375,-0.914 -0.496,-1.168 -0.438,-1.082 -0.989,-2.457 -2.254,-2.457 -0.098,0 -0.555,0 -0.934,0.359 0.617,0.082 0.774,0.52 0.774,0.832 0,0.516 -0.375,0.833 -0.828,0.833 -0.395,0 -0.829,-0.262 -0.829,-0.848 0,-0.895 0.829,-1.61 1.817,-1.61 1.25,0 2.058,1.129 2.531,2.262 l 3.484,8.442 z"
         style="fill:#000000;fill-opacity:1;fill-rule:nonzero;stroke:none"
         id="path3839"
         inkscape:connector-curvature="0" /><path
         d="m 351.363,13.289 0.043,-0.008 0.051,-0.008 0.055,-0.011 0.062,-0.016 0.141,-0.031 0.074,-0.02 0.078,-0.023 0.082,-0.024 0.082,-0.027 0.086,-0.031 0.086,-0.035 0.086,-0.04 0.094,-0.039 0.086,-0.043 0.09,-0.046 0.082,-0.059 0.082,-0.055 0.086,-0.058 0.078,-0.063 0.148,-0.148 0.067,-0.078 0.117,-0.172 0.023,-0.047 0.028,-0.047 0.023,-0.055 0.023,-0.047 0.02,-0.054 0.016,-0.051 0.015,-0.059 0.016,-0.054 0.012,-0.059 0.007,-0.058 0.008,-0.067 0.008,-0.058 0.004,-0.067 0,-0.062 c 0,-1.008 -0.695,-1.801 -2.234,-1.801 -1.661,0 -2.376,1.129 -2.754,2.808 -0.055,0.254 -0.075,0.336 -0.274,0.336 -0.262,0 -0.262,-0.136 -0.262,-0.496 l 0,-2.613 c 0,-0.332 0,-0.473 0.219,-0.473 0.098,0 0.117,0.02 0.496,0.399 0.035,0.039 0.035,0.074 0.399,0.453 0.867,-0.832 1.761,-0.852 2.176,-0.852 2.269,0 3.183,1.332 3.183,2.75 0,1.047 -0.594,1.645 -0.828,1.883 -0.652,0.629 -1.43,0.793 -2.262,0.949 -1.101,0.219 -2.433,0.477 -2.433,1.625 0,0.692 0.515,1.5 2.214,1.5 2.18,0 2.282,-1.781 2.317,-2.394 0.023,-0.18 0.199,-0.18 0.242,-0.18 0.254,0 0.254,0.102 0.254,0.477 l 0,2 c 0,0.336 0,0.472 -0.219,0.472 -0.097,0 -0.133,0 -0.394,-0.234 -0.059,-0.086 -0.258,-0.254 -0.336,-0.32 -0.75,0.554 -1.563,0.554 -1.864,0.554 -2.414,0 -3.164,-1.324 -3.164,-2.433 0,-0.692 0.317,-1.246 0.852,-1.684 0.633,-0.512 1.191,-0.629 2.613,-0.906 z"
         style="fill:#000000;fill-opacity:1;fill-rule:nonzero;stroke:none"
         id="path3841"
         inkscape:connector-curvature="0" /><path
         d="m 357.414,5.293 -1.914,0 0,-0.789 2.707,0 0,19.785 -2.707,0 0,-0.793 1.914,0 0,-18.203 z"
         style="fill:#000000;fill-opacity:1;fill-rule:nonzero;stroke:none"
         id="path3843"
         inkscape:connector-curvature="0" /></g><path
       inkscape:connector-curvature="0"
       id="path3791"
       style="fill:#000000;fill-opacity:1;fill-rule:nonzero;stroke:none;display:inline"
       d="m 10.2925,230.0775 -0.0088,0 -0.005,0.005 -0.04,0 -0.0087,0.005 -0.02,0 -0.02,0.01 -0.02875,0.01 -0.01,0.005 -0.015,0.005 -0.0088,0.0137 -0.02,0.01 -0.02,0.02 -0.01,0.005 -0.0088,0.015 -0.01,0.009 -0.005,0.01 -0.005,0.005 -0.005,0.01 -0.005,0.005 0,0.0137 -0.01,0.02 -0.0088,0.01 -0.005,0.015 0,0.009 -0.005,0.01 0,0.01 -0.005,0.02 0,0.01 -0.005,0.0137 0,0.0737 c 0,0.625 0.21,2.5925 0.26875,3.29125 0.02375,0.22375 0.04875,0.5225 0.5325,0.5225 0.33125,0 0.33125,-0.25 0.33125,-0.655 0,-1.29875 0.18625,-1.3475 0.455,-1.3475 0.19,0 1.46,0.3225 2.1825,0.5125 l 6.61625,1.64625 c 0.41,0.11125 1.16125,0.2975 1.22,0.2975 0.29375,0 0.3225,-0.26875 0.3225,-0.435 l 0,-0.37625 c -0.3225,-1.88875 -1.38125,-4.82875 -3.975,-7.61625 -3.315,-3.565 -6.9875,-4.2925 -7.22625,-4.2925 -0.45875,0 -0.7275,0.3225 -0.7275,0.78625 0,0.215 0.0975,0.84 0.88875,1.055 6.1275,1.72875 9.15,5.835 10.15125,8.90625 l -10.7475,-2.6425 z" /><text
       style="font-size:15px;display:inline"
       id="text3869"
       x="8.6967649"
       y="31.575159"><tspan
         id="tspan3871"
         y="31.575159"
         x="8.6967649"
         style="font-size:30px;font-variant:normal;font-weight:normal;writing-mode:lr-tb;fill:#000000;fill-opacity:1;fill-rule:nonzero;stroke:none;font-family:Bitstream Vera Sans;-inkscape-font-specification:BitstreamVeraSans-Roman">A</tspan></text>
<g
       transform="matrix(1.25,0,0,-1.25,0,512.54375)"
       style="display:inline"
       id="g8217"><path
         d="m 352.754,385.496 144.574,0 0,-70.844 -144.574,0 0,70.844 z"
         style="fill:#ffffff;fill-opacity:1;fill-rule:nonzero;stroke:#000000;stroke-width:1;stroke-linecap:square;stroke-linejoin:round;stroke-miterlimit:4;stroke-opacity:1;stroke-dasharray:none"
         id="path3699"
         inkscape:connector-curvature="0" /><path
         d="m 362.832,351.66 20.16,0"
         style="fill:none;stroke:#008000;stroke-width:2;stroke-linecap:square;stroke-linejoin:round;stroke-miterlimit:4;stroke-opacity:1;stroke-dasharray:none"
         id="path3701"
         inkscape:connector-curvature="0" /><path
         d="m 399.738,346.617 c -0.117,0 -0.176,0.066 -0.176,0.191 l 1.231,4.895 c 0.039,0.164 0.062,0.293 0.07,0.387 0,0.152 -0.308,0.23 -0.933,0.23 -0.098,0 -0.149,0.063 -0.149,0.192 0.004,0.023 0.016,0.066 0.031,0.125 0.02,0.062 0.04,0.109 0.063,0.14 0.027,0.031 0.063,0.051 0.113,0.051 l 1.938,0.152 c 0.117,0 0.176,-0.058 0.176,-0.179 l -1.414,-5.645 c 0.761,0.25 1.46,0.645 2.097,1.184 0.641,0.539 1.184,1.175 1.625,1.906 0.445,0.73 0.766,1.492 0.961,2.277 0.039,0.137 0.109,0.25 0.227,0.332 0.109,0.086 0.238,0.125 0.379,0.125 0.125,0 0.23,-0.035 0.308,-0.109 0.082,-0.078 0.121,-0.176 0.121,-0.305 0,-0.152 -0.062,-0.386 -0.191,-0.703 -0.125,-0.316 -0.25,-0.601 -0.371,-0.851 -0.379,-0.754 -0.883,-1.446 -1.512,-2.075 -0.394,-0.39 -0.82,-0.742 -1.27,-1.047 -0.457,-0.3 -0.925,-0.562 -1.417,-0.777 -0.493,-0.211 -1.012,-0.379 -1.563,-0.496 l -0.344,0 z"
         style="fill:#000000;fill-opacity:1;fill-rule:nonzero;stroke:none"
         id="path3703"
         inkscape:connector-curvature="0" /><path
         d="m 408.469,342.723 c -0.824,0 -1.383,0.339 -1.68,1.015 -0.297,0.68 -0.445,1.488 -0.445,2.422 0,0.582 0.051,1.133 0.156,1.648 0.105,0.516 0.32,0.954 0.637,1.313 0.316,0.359 0.761,0.539 1.332,0.539 0.441,0 0.804,-0.109 1.086,-0.328 0.281,-0.215 0.5,-0.496 0.644,-0.836 0.149,-0.344 0.25,-0.711 0.305,-1.106 0.055,-0.39 0.082,-0.8 0.082,-1.23 0,-0.578 -0.055,-1.117 -0.16,-1.621 -0.106,-0.504 -0.321,-0.934 -0.629,-1.285 -0.317,-0.356 -0.754,-0.531 -1.328,-0.531 m 0,0.261 c 0.375,0 0.652,0.192 0.836,0.574 0.183,0.387 0.297,0.813 0.34,1.278 0.043,0.465 0.066,0.961 0.066,1.488 0,0.504 -0.023,0.969 -0.066,1.395 -0.043,0.429 -0.157,0.816 -0.34,1.16 -0.18,0.347 -0.461,0.519 -0.836,0.519 -0.379,0 -0.664,-0.175 -0.848,-0.523 -0.183,-0.348 -0.297,-0.735 -0.34,-1.16 -0.043,-0.422 -0.062,-0.887 -0.062,-1.391 0,-0.375 0.008,-0.726 0.027,-1.059 0.016,-0.332 0.066,-0.675 0.145,-1.027 0.078,-0.355 0.207,-0.652 0.382,-0.89 0.176,-0.243 0.407,-0.364 0.696,-0.364"
         style="fill:#000000;fill-opacity:1;fill-rule:nonzero;stroke:none"
         id="path3705"
         inkscape:connector-curvature="0" /><path
         d="m 416.758,348.531 c -0.078,0 -0.145,0.031 -0.196,0.09 -0.05,0.062 -0.082,0.129 -0.082,0.199 0,0.078 0.032,0.145 0.082,0.203 0.051,0.055 0.118,0.086 0.196,0.086 l 9.043,0 c 0.07,0 0.133,-0.031 0.179,-0.086 0.055,-0.058 0.082,-0.125 0.082,-0.203 0,-0.07 -0.027,-0.137 -0.082,-0.199 -0.046,-0.059 -0.109,-0.09 -0.179,-0.09 l -9.043,0 z m 0,2.801 c -0.078,0 -0.145,0.027 -0.196,0.082 -0.05,0.059 -0.082,0.125 -0.082,0.203 0,0.07 0.032,0.137 0.082,0.195 0.051,0.063 0.118,0.094 0.196,0.094 l 9.043,0 c 0.07,0 0.133,-0.031 0.179,-0.094 0.055,-0.058 0.082,-0.125 0.082,-0.195 0,-0.078 -0.027,-0.144 -0.082,-0.203 -0.046,-0.055 -0.109,-0.082 -0.179,-0.082 l -9.043,0 z"
         style="fill:#000000;fill-opacity:1;fill-rule:nonzero;stroke:none"
         id="path3707"
         inkscape:connector-curvature="0" /><path
         d="m 429.48,343.019 0,14.399 1.969,0 0,-0.574 -1.387,0 0,-13.25 1.387,0 0,-0.575 -1.969,0 z"
         style="fill:#000000;fill-opacity:1;fill-rule:nonzero;stroke:none"
         id="path3709"
         inkscape:connector-curvature="0" /><path
         d="m 435.367,346.301 c -1.179,0 -1.976,0.484 -2.398,1.453 -0.426,0.969 -0.637,2.121 -0.637,3.457 0,0.836 0.074,1.617 0.227,2.355 0.152,0.735 0.453,1.36 0.906,1.871 0.453,0.516 1.086,0.774 1.902,0.774 0.633,0 1.153,-0.156 1.555,-0.465 0.402,-0.309 0.711,-0.711 0.922,-1.199 0.211,-0.489 0.355,-1.016 0.429,-1.574 0.079,-0.563 0.118,-1.149 0.118,-1.762 0,-0.824 -0.075,-1.598 -0.227,-2.317 -0.152,-0.722 -0.453,-1.332 -0.898,-1.836 -0.446,-0.503 -1.078,-0.757 -1.899,-0.757 m 0,0.375 c 0.535,0 0.934,0.273 1.195,0.82 0.262,0.551 0.426,1.156 0.489,1.824 0.054,0.664 0.09,1.371 0.09,2.121 0,0.723 -0.036,1.387 -0.09,1.996 -0.063,0.614 -0.227,1.164 -0.485,1.657 -0.261,0.496 -0.66,0.742 -1.199,0.742 -0.543,0 -0.945,-0.246 -1.207,-0.746 -0.262,-0.496 -0.43,-1.047 -0.484,-1.657 -0.063,-0.605 -0.094,-1.269 -0.094,-1.992 0,-0.531 0.012,-1.035 0.039,-1.511 0.027,-0.473 0.094,-0.961 0.207,-1.465 0.11,-0.504 0.297,-0.93 0.547,-1.274 0.25,-0.343 0.582,-0.515 0.992,-0.515"
         style="fill:#000000;fill-opacity:1;fill-rule:nonzero;stroke:none"
         id="path3711"
         inkscape:connector-curvature="0" /><path
         d="m 440.18,347.414 c 0,0.215 0.078,0.402 0.238,0.555 0.156,0.156 0.344,0.23 0.555,0.23 0.129,0 0.257,-0.035 0.382,-0.105 0.125,-0.071 0.231,-0.168 0.301,-0.293 0.071,-0.125 0.106,-0.254 0.106,-0.387 0,-0.211 -0.078,-0.395 -0.235,-0.555 -0.156,-0.16 -0.339,-0.242 -0.554,-0.242 -0.211,0 -0.399,0.082 -0.555,0.242 -0.16,0.16 -0.238,0.344 -0.238,0.555"
         style="fill:#000000;fill-opacity:1;fill-rule:nonzero;stroke:none"
         id="path3713"
         inkscape:connector-curvature="0" /><path
         d="m 443.797,346.617 0,0.391 c 0,0.023 0.008,0.047 0.027,0.074 l 2.235,2.476 c 0.339,0.364 0.613,0.672 0.82,0.918 0.215,0.25 0.422,0.536 0.629,0.86 0.207,0.324 0.367,0.656 0.488,0.988 0.121,0.336 0.18,0.691 0.18,1.066 0,0.395 -0.071,0.77 -0.219,1.129 -0.145,0.36 -0.359,0.645 -0.648,0.86 -0.289,0.219 -0.637,0.324 -1.043,0.324 -0.418,0 -0.793,-0.125 -1.125,-0.375 -0.336,-0.254 -0.571,-0.574 -0.707,-0.973 0.039,0.008 0.089,0.012 0.156,0.012 0.215,0 0.398,-0.07 0.551,-0.219 0.152,-0.144 0.23,-0.332 0.23,-0.562 0,-0.219 -0.078,-0.406 -0.23,-0.559 -0.153,-0.152 -0.336,-0.226 -0.551,-0.226 -0.223,0 -0.414,0.078 -0.567,0.234 -0.152,0.156 -0.226,0.34 -0.226,0.551 0,0.363 0.066,0.699 0.203,1.015 0.137,0.317 0.332,0.598 0.586,0.844 0.258,0.246 0.547,0.438 0.867,0.567 0.32,0.132 0.66,0.199 1.02,0.199 0.55,0 1.062,-0.117 1.531,-0.348 0.476,-0.234 0.851,-0.562 1.125,-0.988 0.281,-0.422 0.418,-0.918 0.418,-1.485 0,-0.417 -0.09,-0.812 -0.274,-1.187 -0.183,-0.375 -0.418,-0.719 -0.707,-1.027 -0.281,-0.305 -0.648,-0.653 -1.093,-1.043 -0.446,-0.387 -0.743,-0.649 -0.879,-0.778 l -1.629,-1.57 1.383,0 c 0.679,0 1.246,0.008 1.707,0.016 0.457,0.015 0.699,0.031 0.726,0.054 0.11,0.121 0.227,0.567 0.344,1.332 l 0.422,0 -0.406,-2.57 -5.344,0 z"
         style="fill:#000000;fill-opacity:1;fill-rule:nonzero;stroke:none"
         id="path3715"
         inkscape:connector-curvature="0" /><path
         d="m 451.531,348.258 c 0.098,-0.282 0.25,-0.535 0.449,-0.77 0.208,-0.226 0.45,-0.406 0.727,-0.535 0.281,-0.129 0.57,-0.191 0.871,-0.191 0.692,0 1.168,0.269 1.434,0.808 0.261,0.535 0.39,1.192 0.39,1.961 0,0.332 -0.004,0.613 -0.015,0.84 -0.012,0.227 -0.043,0.445 -0.094,0.656 -0.09,0.336 -0.246,0.633 -0.469,0.887 -0.222,0.254 -0.496,0.379 -0.82,0.379 -0.32,0 -0.598,-0.051 -0.832,-0.149 -0.234,-0.097 -0.422,-0.211 -0.567,-0.343 -0.144,-0.129 -0.273,-0.27 -0.386,-0.414 -0.114,-0.145 -0.184,-0.223 -0.211,-0.231 l -0.16,0 c -0.024,0 -0.055,0.016 -0.09,0.043 -0.035,0.031 -0.055,0.059 -0.055,0.09 l 0,4.809 c 0,0.023 0.016,0.046 0.047,0.074 0.031,0.027 0.062,0.039 0.098,0.039 l 0.043,0 c 0.644,-0.313 1.332,-0.465 2.058,-0.465 0.711,0 1.399,0.152 2.059,0.465 l 0.043,0 c 0.035,0 0.062,-0.012 0.09,-0.035 0.031,-0.024 0.043,-0.051 0.043,-0.078 l 0,-0.133 c 0,-0.047 -0.008,-0.071 -0.028,-0.071 -0.328,-0.437 -0.738,-0.777 -1.234,-1.023 -0.496,-0.242 -1.008,-0.363 -1.535,-0.363 -0.387,0 -0.782,0.054 -1.184,0.16 l 0,-2.719 c 0.32,0.258 0.606,0.441 0.856,0.551 0.25,0.113 0.57,0.168 0.961,0.168 0.531,0 1.003,-0.153 1.418,-0.461 0.425,-0.305 0.746,-0.699 0.972,-1.192 0.223,-0.488 0.336,-0.988 0.336,-1.5 0,-0.574 -0.141,-1.109 -0.426,-1.601 -0.281,-0.492 -0.668,-0.887 -1.156,-1.176 -0.484,-0.289 -1.016,-0.437 -1.586,-0.437 -0.476,0 -0.91,0.121 -1.305,0.367 -0.398,0.242 -0.711,0.57 -0.937,0.984 -0.231,0.41 -0.34,0.852 -0.34,1.317 0,0.214 0.07,0.39 0.211,0.527 0.141,0.137 0.316,0.203 0.523,0.203 0.215,0 0.391,-0.07 0.536,-0.211 0.14,-0.137 0.214,-0.308 0.214,-0.519 0,-0.207 -0.074,-0.383 -0.214,-0.524 -0.145,-0.144 -0.321,-0.215 -0.536,-0.215 -0.031,0 -0.066,0.004 -0.109,0.008 -0.043,0.008 -0.074,0.016 -0.09,0.02"
         style="fill:#000000;fill-opacity:1;fill-rule:nonzero;stroke:none"
         id="path3717"
         inkscape:connector-curvature="0" /><path
         d="m 458.906,344.023 c 0,0.043 0.016,0.082 0.055,0.121 0.348,0.332 0.617,0.719 0.809,1.153 0.195,0.437 0.289,0.894 0.289,1.379 l 0,0.175 c -0.153,-0.156 -0.348,-0.234 -0.579,-0.234 -0.218,0 -0.406,0.078 -0.558,0.234 -0.156,0.153 -0.234,0.34 -0.234,0.563 0,0.223 0.078,0.41 0.234,0.562 0.152,0.149 0.34,0.223 0.558,0.223 0.344,0 0.59,-0.156 0.735,-0.473 0.14,-0.316 0.219,-0.668 0.219,-1.05 0,-0.536 -0.11,-1.043 -0.329,-1.524 -0.207,-0.48 -0.507,-0.914 -0.898,-1.297 -0.035,-0.019 -0.066,-0.027 -0.09,-0.027 -0.047,0 -0.094,0.02 -0.144,0.062 -0.043,0.043 -0.067,0.086 -0.067,0.133"
         style="fill:#000000;fill-opacity:1;fill-rule:nonzero;stroke:none"
         id="path3719"
         inkscape:connector-curvature="0" /><path
         d="m 465.352,346.301 c -1.176,0 -1.977,0.484 -2.403,1.453 -0.426,0.969 -0.637,2.121 -0.637,3.457 0,0.836 0.079,1.617 0.227,2.355 0.149,0.735 0.457,1.36 0.906,1.871 0.453,0.516 1.09,0.774 1.907,0.774 0.628,0 1.148,-0.156 1.55,-0.465 0.403,-0.309 0.711,-0.711 0.922,-1.199 0.211,-0.489 0.356,-1.016 0.434,-1.574 0.078,-0.563 0.117,-1.149 0.117,-1.762 0,-0.824 -0.078,-1.598 -0.23,-2.317 -0.153,-0.722 -0.45,-1.332 -0.895,-1.836 -0.445,-0.503 -1.078,-0.757 -1.898,-0.757 m 0,0.375 c 0.531,0 0.929,0.273 1.195,0.82 0.262,0.551 0.422,1.156 0.484,1.824 0.063,0.664 0.094,1.371 0.094,2.121 0,0.723 -0.031,1.387 -0.094,1.996 -0.062,0.614 -0.222,1.164 -0.484,1.657 -0.258,0.496 -0.656,0.742 -1.195,0.742 -0.543,0 -0.946,-0.246 -1.211,-0.746 -0.262,-0.496 -0.422,-1.047 -0.485,-1.657 -0.062,-0.605 -0.094,-1.269 -0.094,-1.992 0,-0.531 0.016,-1.035 0.04,-1.511 0.027,-0.473 0.097,-0.961 0.21,-1.465 0.114,-0.504 0.293,-0.93 0.543,-1.274 0.25,-0.343 0.583,-0.515 0.997,-0.515"
         style="fill:#000000;fill-opacity:1;fill-rule:nonzero;stroke:none"
         id="path3721"
         inkscape:connector-curvature="0" /><path
         d="m 470.16,347.414 c 0,0.215 0.082,0.402 0.238,0.555 0.161,0.156 0.344,0.23 0.559,0.23 0.129,0 0.258,-0.035 0.383,-0.105 0.129,-0.071 0.226,-0.168 0.297,-0.293 0.07,-0.125 0.105,-0.254 0.105,-0.387 0,-0.211 -0.078,-0.395 -0.234,-0.555 -0.153,-0.16 -0.34,-0.242 -0.551,-0.242 -0.215,0 -0.398,0.082 -0.559,0.242 -0.156,0.16 -0.238,0.344 -0.238,0.555"
         style="fill:#000000;fill-opacity:1;fill-rule:nonzero;stroke:none"
         id="path3723"
         inkscape:connector-curvature="0" /><path
         d="m 473.461,348.996 0,0.504 4.449,6.64 c 0.035,0.047 0.086,0.071 0.149,0.071 l 0.214,0 c 0.106,0 0.161,-0.055 0.161,-0.164 l 0,-6.547 1.414,0 0,-0.504 -1.414,0 0,-1.414 c 0,-0.195 0.14,-0.32 0.421,-0.375 0.282,-0.055 0.606,-0.082 0.977,-0.082 l 0,-0.508 -3.965,0 0,0.508 c 0.371,0 0.695,0.027 0.977,0.082 0.281,0.055 0.422,0.18 0.422,0.375 l 0,1.414 -3.805,0 z m 0.477,0.504 3.41,0 0,5.101 -3.41,-5.101 z"
         style="fill:#000000;fill-opacity:1;fill-rule:nonzero;stroke:none"
         id="path3725"
         inkscape:connector-curvature="0" /><path
         d="m 480.578,343.019 0,0.575 1.399,0 0,13.25 -1.399,0 0,0.574 1.977,0 0,-14.399 -1.977,0 z"
         style="fill:#000000;fill-opacity:1;fill-rule:nonzero;stroke:none"
         id="path3727"
         inkscape:connector-curvature="0" /><path
         d="m 362.832,329.031 20.16,0"
         style="fill:none;stroke:#0000ff;stroke-width:2;stroke-linecap:butt;stroke-linejoin:round;stroke-miterlimit:4;stroke-opacity:1;stroke-dasharray:none"
         id="path3735"
         inkscape:connector-curvature="0" /><path
         d="m 399.738,323.992 c -0.117,0 -0.176,0.063 -0.176,0.188 l 1.231,4.894 c 0.039,0.164 0.062,0.293 0.07,0.387 0,0.156 -0.308,0.234 -0.933,0.234 -0.098,0 -0.149,0.063 -0.149,0.188 0.004,0.023 0.016,0.066 0.031,0.129 0.02,0.058 0.04,0.105 0.063,0.136 0.027,0.035 0.063,0.051 0.113,0.051 l 1.938,0.156 c 0.117,0 0.176,-0.062 0.176,-0.183 l -1.414,-5.645 c 0.761,0.254 1.46,0.649 2.097,1.188 0.641,0.539 1.184,1.172 1.625,1.902 0.445,0.734 0.766,1.492 0.961,2.281 0.039,0.137 0.109,0.246 0.227,0.332 0.109,0.082 0.238,0.125 0.379,0.125 0.125,0 0.23,-0.039 0.308,-0.113 0.082,-0.074 0.121,-0.176 0.121,-0.301 0,-0.156 -0.062,-0.39 -0.191,-0.707 -0.125,-0.316 -0.25,-0.597 -0.371,-0.847 -0.379,-0.754 -0.883,-1.446 -1.512,-2.075 -0.394,-0.394 -0.82,-0.742 -1.27,-1.047 -0.457,-0.304 -0.925,-0.562 -1.417,-0.777 -0.493,-0.215 -1.012,-0.379 -1.563,-0.496 l -0.344,0 z"
         style="fill:#000000;fill-opacity:1;fill-rule:nonzero;stroke:none"
         id="path3737"
         inkscape:connector-curvature="0" /><path
         d="m 408.469,320.098 c -0.824,0 -1.383,0.335 -1.68,1.015 -0.297,0.676 -0.445,1.485 -0.445,2.422 0,0.582 0.051,1.133 0.156,1.645 0.105,0.515 0.32,0.953 0.637,1.312 0.316,0.359 0.761,0.539 1.332,0.539 0.441,0 0.804,-0.105 1.086,-0.324 0.281,-0.215 0.5,-0.496 0.644,-0.84 0.149,-0.344 0.25,-0.711 0.305,-1.102 0.055,-0.39 0.082,-0.804 0.082,-1.23 0,-0.578 -0.055,-1.121 -0.16,-1.625 -0.106,-0.504 -0.321,-0.93 -0.629,-1.285 -0.317,-0.352 -0.754,-0.527 -1.328,-0.527 m 0,0.261 c 0.375,0 0.652,0.192 0.836,0.574 0.183,0.383 0.297,0.809 0.34,1.274 0.043,0.469 0.066,0.965 0.066,1.488 0,0.504 -0.023,0.973 -0.066,1.399 -0.043,0.425 -0.157,0.812 -0.34,1.156 -0.18,0.348 -0.461,0.519 -0.836,0.519 -0.379,0 -0.664,-0.171 -0.848,-0.519 -0.183,-0.348 -0.297,-0.735 -0.34,-1.16 -0.043,-0.426 -0.062,-0.891 -0.062,-1.395 0,-0.375 0.008,-0.726 0.027,-1.058 0.016,-0.332 0.066,-0.672 0.145,-1.028 0.078,-0.351 0.207,-0.648 0.382,-0.89 0.176,-0.243 0.407,-0.36 0.696,-0.36"
         style="fill:#000000;fill-opacity:1;fill-rule:nonzero;stroke:none"
         id="path3739"
         inkscape:connector-curvature="0" /><path
         d="m 416.758,325.906 c -0.078,0 -0.145,0.027 -0.196,0.09 -0.05,0.059 -0.082,0.125 -0.082,0.195 0,0.082 0.032,0.149 0.082,0.203 0.051,0.059 0.118,0.086 0.196,0.086 l 9.043,0 c 0.07,0 0.133,-0.027 0.179,-0.086 0.055,-0.054 0.082,-0.121 0.082,-0.203 0,-0.07 -0.027,-0.136 -0.082,-0.195 -0.046,-0.063 -0.109,-0.09 -0.179,-0.09 l -9.043,0 z m 0,2.797 c -0.078,0 -0.145,0.027 -0.196,0.082 -0.05,0.059 -0.082,0.125 -0.082,0.207 0,0.07 0.032,0.137 0.082,0.195 0.051,0.063 0.118,0.094 0.196,0.094 l 9.043,0 c 0.07,0 0.133,-0.031 0.179,-0.094 0.055,-0.058 0.082,-0.125 0.082,-0.195 0,-0.082 -0.027,-0.148 -0.082,-0.207 -0.046,-0.055 -0.109,-0.082 -0.179,-0.082 l -9.043,0 z"
         style="fill:#000000;fill-opacity:1;fill-rule:nonzero;stroke:none"
         id="path3741"
         inkscape:connector-curvature="0" /><path
         d="m 429.48,320.39 0,14.403 1.969,0 0,-0.578 -1.387,0 0,-13.246 1.387,0 0,-0.579 -1.969,0 z"
         style="fill:#000000;fill-opacity:1;fill-rule:nonzero;stroke:none"
         id="path3743"
         inkscape:connector-curvature="0" /><path
         d="m 435.367,323.676 c -1.179,0 -1.976,0.484 -2.398,1.449 -0.426,0.969 -0.637,2.121 -0.637,3.461 0,0.832 0.074,1.617 0.227,2.351 0.152,0.739 0.453,1.364 0.906,1.875 0.453,0.516 1.086,0.77 1.902,0.77 0.633,0 1.153,-0.152 1.555,-0.465 0.402,-0.309 0.711,-0.707 0.922,-1.199 0.211,-0.488 0.355,-1.012 0.429,-1.574 0.079,-0.559 0.118,-1.145 0.118,-1.758 0,-0.828 -0.075,-1.598 -0.227,-2.321 -0.152,-0.718 -0.453,-1.332 -0.898,-1.835 -0.446,-0.504 -1.078,-0.754 -1.899,-0.754 m 0,0.371 c 0.535,0 0.934,0.273 1.195,0.824 0.262,0.547 0.426,1.156 0.489,1.82 0.054,0.668 0.09,1.375 0.09,2.125 0,0.723 -0.036,1.387 -0.09,1.996 -0.063,0.61 -0.227,1.161 -0.485,1.657 -0.261,0.492 -0.66,0.742 -1.199,0.742 -0.543,0 -0.945,-0.25 -1.207,-0.746 -0.262,-0.5 -0.43,-1.051 -0.484,-1.657 -0.063,-0.605 -0.094,-1.269 -0.094,-1.992 0,-0.535 0.012,-1.039 0.039,-1.511 0.027,-0.477 0.094,-0.965 0.207,-1.469 0.11,-0.504 0.297,-0.926 0.547,-1.274 0.25,-0.343 0.582,-0.515 0.992,-0.515"
         style="fill:#000000;fill-opacity:1;fill-rule:nonzero;stroke:none"
         id="path3745"
         inkscape:connector-curvature="0" /><path
         d="m 440.18,324.785 c 0,0.219 0.078,0.402 0.238,0.559 0.156,0.152 0.344,0.23 0.555,0.23 0.129,0 0.257,-0.035 0.382,-0.105 0.125,-0.071 0.231,-0.168 0.301,-0.297 0.071,-0.125 0.106,-0.254 0.106,-0.387 0,-0.207 -0.078,-0.395 -0.235,-0.555 -0.156,-0.16 -0.339,-0.238 -0.554,-0.238 -0.211,0 -0.399,0.078 -0.555,0.238 -0.16,0.16 -0.238,0.348 -0.238,0.555"
         style="fill:#000000;fill-opacity:1;fill-rule:nonzero;stroke:none"
         id="path3747"
         inkscape:connector-curvature="0" /><path
         d="m 444.414,323.992 0,0.508 c 1.199,0 1.801,0.152 1.801,0.453 l 0,7.562 c -0.496,-0.242 -1.125,-0.359 -1.887,-0.359 l 0,0.504 c 1.18,0 2.067,0.309 2.668,0.922 l 0.203,0 c 0.031,0 0.063,-0.012 0.094,-0.039 0.031,-0.024 0.047,-0.055 0.047,-0.086 l 0,-8.504 c 0,-0.301 0.598,-0.453 1.801,-0.453 l 0,-0.508 -4.727,0 z"
         style="fill:#000000;fill-opacity:1;fill-rule:nonzero;stroke:none"
         id="path3749"
         inkscape:connector-curvature="0" /><path
         d="m 451.531,325.629 c 0.098,-0.281 0.25,-0.535 0.449,-0.766 0.208,-0.23 0.45,-0.41 0.727,-0.539 0.281,-0.125 0.57,-0.191 0.871,-0.191 0.692,0 1.168,0.269 1.434,0.808 0.261,0.539 0.39,1.192 0.39,1.961 0,0.336 -0.004,0.613 -0.015,0.84 -0.012,0.231 -0.043,0.449 -0.094,0.656 -0.09,0.34 -0.246,0.633 -0.469,0.887 -0.222,0.254 -0.496,0.383 -0.82,0.383 -0.32,0 -0.598,-0.051 -0.832,-0.149 -0.234,-0.097 -0.422,-0.214 -0.567,-0.347 -0.144,-0.129 -0.273,-0.266 -0.386,-0.414 -0.114,-0.145 -0.184,-0.223 -0.211,-0.231 l -0.16,0 c -0.024,0 -0.055,0.016 -0.09,0.047 -0.035,0.027 -0.055,0.059 -0.055,0.086 l 0,4.813 c 0,0.019 0.016,0.046 0.047,0.07 0.031,0.027 0.062,0.039 0.098,0.039 l 0.043,0 c 0.644,-0.309 1.332,-0.465 2.058,-0.465 0.711,0 1.399,0.156 2.059,0.465 l 0.043,0 c 0.035,0 0.062,-0.012 0.09,-0.035 0.031,-0.024 0.043,-0.047 0.043,-0.074 l 0,-0.137 c 0,-0.047 -0.008,-0.071 -0.028,-0.071 -0.328,-0.437 -0.738,-0.777 -1.234,-1.019 -0.496,-0.242 -1.008,-0.367 -1.535,-0.367 -0.387,0 -0.782,0.054 -1.184,0.164 l 0,-2.723 c 0.32,0.262 0.606,0.445 0.856,0.555 0.25,0.109 0.57,0.164 0.961,0.164 0.531,0 1.003,-0.152 1.418,-0.457 0.425,-0.305 0.746,-0.703 0.972,-1.195 0.223,-0.489 0.336,-0.989 0.336,-1.497 0,-0.578 -0.141,-1.113 -0.426,-1.605 -0.281,-0.492 -0.668,-0.883 -1.156,-1.176 -0.484,-0.289 -1.016,-0.433 -1.586,-0.433 -0.476,0 -0.91,0.121 -1.305,0.363 -0.398,0.246 -0.711,0.574 -0.937,0.984 -0.231,0.414 -0.34,0.852 -0.34,1.317 0,0.218 0.07,0.394 0.211,0.527 0.141,0.137 0.316,0.203 0.523,0.203 0.215,0 0.391,-0.066 0.536,-0.207 0.14,-0.137 0.214,-0.312 0.214,-0.523 0,-0.207 -0.074,-0.379 -0.214,-0.524 -0.145,-0.14 -0.321,-0.215 -0.536,-0.215 -0.031,0 -0.066,0.004 -0.109,0.012 -0.043,0.008 -0.074,0.012 -0.09,0.016"
         style="fill:#000000;fill-opacity:1;fill-rule:nonzero;stroke:none"
         id="path3751"
         inkscape:connector-curvature="0" /><path
         d="m 458.906,321.398 c 0,0.043 0.016,0.082 0.055,0.117 0.348,0.336 0.617,0.719 0.809,1.157 0.195,0.433 0.289,0.894 0.289,1.375 l 0,0.176 c -0.153,-0.153 -0.348,-0.231 -0.579,-0.231 -0.218,0 -0.406,0.078 -0.558,0.231 -0.156,0.156 -0.234,0.343 -0.234,0.562 0,0.227 0.078,0.414 0.234,0.563 0.152,0.152 0.34,0.226 0.558,0.226 0.344,0 0.59,-0.16 0.735,-0.476 0.14,-0.317 0.219,-0.665 0.219,-1.051 0,-0.532 -0.11,-1.039 -0.329,-1.52 -0.207,-0.48 -0.507,-0.914 -0.898,-1.297 -0.035,-0.019 -0.066,-0.031 -0.09,-0.031 -0.047,0 -0.094,0.024 -0.144,0.066 -0.043,0.043 -0.067,0.086 -0.067,0.133"
         style="fill:#000000;fill-opacity:1;fill-rule:nonzero;stroke:none"
         id="path3753"
         inkscape:connector-curvature="0" /><path
         d="m 465.352,323.676 c -1.176,0 -1.977,0.484 -2.403,1.449 -0.426,0.969 -0.637,2.121 -0.637,3.461 0,0.832 0.079,1.617 0.227,2.351 0.149,0.739 0.457,1.364 0.906,1.875 0.453,0.516 1.09,0.77 1.907,0.77 0.628,0 1.148,-0.152 1.55,-0.465 0.403,-0.309 0.711,-0.707 0.922,-1.199 0.211,-0.488 0.356,-1.012 0.434,-1.574 0.078,-0.559 0.117,-1.145 0.117,-1.758 0,-0.828 -0.078,-1.598 -0.23,-2.321 -0.153,-0.718 -0.45,-1.332 -0.895,-1.835 -0.445,-0.504 -1.078,-0.754 -1.898,-0.754 m 0,0.371 c 0.531,0 0.929,0.273 1.195,0.824 0.262,0.547 0.422,1.156 0.484,1.82 0.063,0.668 0.094,1.375 0.094,2.125 0,0.723 -0.031,1.387 -0.094,1.996 -0.062,0.61 -0.222,1.161 -0.484,1.657 -0.258,0.492 -0.656,0.742 -1.195,0.742 -0.543,0 -0.946,-0.25 -1.211,-0.746 -0.262,-0.5 -0.422,-1.051 -0.485,-1.657 -0.062,-0.605 -0.094,-1.269 -0.094,-1.992 0,-0.535 0.016,-1.039 0.04,-1.511 0.027,-0.477 0.097,-0.965 0.21,-1.469 0.114,-0.504 0.293,-0.926 0.543,-1.274 0.25,-0.343 0.583,-0.515 0.997,-0.515"
         style="fill:#000000;fill-opacity:1;fill-rule:nonzero;stroke:none"
         id="path3755"
         inkscape:connector-curvature="0" /><path
         d="m 470.16,324.785 c 0,0.219 0.082,0.402 0.238,0.559 0.161,0.152 0.344,0.23 0.559,0.23 0.129,0 0.258,-0.035 0.383,-0.105 0.129,-0.071 0.226,-0.168 0.297,-0.297 0.07,-0.125 0.105,-0.254 0.105,-0.387 0,-0.207 -0.078,-0.395 -0.234,-0.555 -0.153,-0.16 -0.34,-0.238 -0.551,-0.238 -0.215,0 -0.398,0.078 -0.559,0.238 -0.156,0.16 -0.238,0.348 -0.238,0.555"
         style="fill:#000000;fill-opacity:1;fill-rule:nonzero;stroke:none"
         id="path3757"
         inkscape:connector-curvature="0" /><path
         d="m 473.777,323.992 0,0.387 c 0,0.023 0.012,0.051 0.028,0.078 l 2.238,2.473 c 0.336,0.367 0.609,0.671 0.82,0.921 0.211,0.25 0.418,0.536 0.625,0.86 0.207,0.324 0.367,0.652 0.492,0.988 0.118,0.332 0.18,0.688 0.18,1.063 0,0.394 -0.074,0.773 -0.222,1.128 -0.141,0.36 -0.36,0.649 -0.649,0.864 -0.285,0.215 -0.633,0.324 -1.043,0.324 -0.418,0 -0.793,-0.125 -1.125,-0.379 -0.332,-0.25 -0.566,-0.574 -0.703,-0.973 0.035,0.012 0.09,0.016 0.156,0.016 0.215,0 0.399,-0.074 0.551,-0.219 0.152,-0.144 0.227,-0.332 0.227,-0.562 0,-0.223 -0.075,-0.406 -0.227,-0.563 -0.152,-0.148 -0.336,-0.226 -0.551,-0.226 -0.226,0 -0.414,0.078 -0.57,0.234 -0.149,0.156 -0.227,0.344 -0.227,0.555 0,0.359 0.071,0.699 0.203,1.015 0.137,0.317 0.332,0.598 0.586,0.844 0.258,0.246 0.547,0.434 0.868,0.567 0.32,0.132 0.664,0.195 1.023,0.195 0.547,0 1.059,-0.113 1.531,-0.348 0.473,-0.23 0.848,-0.558 1.125,-0.984 0.278,-0.422 0.418,-0.918 0.418,-1.488 0,-0.418 -0.093,-0.813 -0.277,-1.188 -0.184,-0.375 -0.418,-0.715 -0.703,-1.023 -0.285,-0.305 -0.649,-0.653 -1.098,-1.043 -0.445,-0.391 -0.734,-0.649 -0.875,-0.782 l -1.633,-1.566 1.383,0 c 0.68,0 1.25,0.004 1.707,0.016 0.457,0.011 0.695,0.031 0.727,0.054 0.113,0.121 0.226,0.563 0.343,1.328 l 0.426,0 -0.41,-2.566 -5.344,0 z"
         style="fill:#000000;fill-opacity:1;fill-rule:nonzero;stroke:none"
         id="path3759"
         inkscape:connector-curvature="0" /><path
         d="m 481.512,325.629 c 0.093,-0.281 0.25,-0.535 0.453,-0.766 0.207,-0.23 0.445,-0.41 0.723,-0.539 0.281,-0.125 0.57,-0.191 0.871,-0.191 0.695,0 1.171,0.269 1.433,0.808 0.262,0.539 0.395,1.192 0.395,1.961 0,0.336 -0.008,0.613 -0.02,0.84 -0.012,0.231 -0.039,0.449 -0.094,0.656 -0.089,0.34 -0.246,0.633 -0.468,0.887 -0.223,0.254 -0.493,0.383 -0.817,0.383 -0.324,0 -0.601,-0.051 -0.836,-0.149 -0.23,-0.097 -0.422,-0.214 -0.566,-0.347 -0.148,-0.129 -0.27,-0.266 -0.383,-0.414 -0.113,-0.145 -0.183,-0.223 -0.211,-0.231 l -0.164,0 c -0.023,0 -0.055,0.016 -0.09,0.047 -0.035,0.027 -0.05,0.059 -0.05,0.086 l 0,4.813 c 0,0.019 0.015,0.046 0.042,0.07 0.036,0.027 0.067,0.039 0.098,0.039 l 0.043,0 c 0.649,-0.309 1.332,-0.465 2.059,-0.465 0.715,0 1.398,0.156 2.062,0.465 l 0.043,0 c 0.031,0 0.063,-0.012 0.09,-0.035 0.027,-0.024 0.043,-0.047 0.043,-0.074 l 0,-0.137 c 0,-0.047 -0.012,-0.071 -0.027,-0.071 -0.329,-0.437 -0.743,-0.777 -1.235,-1.019 -0.496,-0.242 -1.008,-0.367 -1.539,-0.367 -0.387,0 -0.777,0.054 -1.179,0.164 l 0,-2.723 c 0.32,0.262 0.605,0.445 0.855,0.555 0.25,0.109 0.57,0.164 0.961,0.164 0.527,0 1.004,-0.152 1.422,-0.457 0.418,-0.305 0.742,-0.703 0.965,-1.195 0.226,-0.489 0.339,-0.989 0.339,-1.497 0,-0.578 -0.144,-1.113 -0.425,-1.605 -0.285,-0.492 -0.668,-0.883 -1.157,-1.176 -0.488,-0.289 -1.019,-0.433 -1.589,-0.433 -0.473,0 -0.911,0.121 -1.305,0.363 -0.399,0.246 -0.707,0.574 -0.938,0.984 -0.226,0.414 -0.339,0.852 -0.339,1.317 0,0.218 0.07,0.394 0.211,0.527 0.14,0.137 0.316,0.203 0.527,0.203 0.215,0 0.39,-0.066 0.531,-0.207 0.145,-0.137 0.215,-0.312 0.215,-0.523 0,-0.207 -0.07,-0.379 -0.215,-0.524 -0.141,-0.14 -0.316,-0.215 -0.531,-0.215 -0.031,0 -0.07,0.004 -0.11,0.012 -0.043,0.008 -0.074,0.012 -0.093,0.016"
         style="fill:#000000;fill-opacity:1;fill-rule:nonzero;stroke:none"
         id="path3761"
         inkscape:connector-curvature="0" /><path
         d="m 487.777,320.39 0,0.579 1.399,0 0,13.246 -1.399,0 0,0.578 1.977,0 0,-14.403 -1.977,0 z"
         style="fill:#000000;fill-opacity:1;fill-rule:nonzero;stroke:none"
         id="path3763"
         inkscape:connector-curvature="0" /><path
         d="m 399.738,369.246 c -0.117,0 -0.176,0.062 -0.176,0.187 l 1.231,4.895 c 0.039,0.164 0.062,0.293 0.07,0.387 0,0.156 -0.308,0.234 -0.933,0.234 -0.098,0 -0.149,0.063 -0.149,0.191 0.004,0.02 0.016,0.063 0.031,0.125 0.02,0.063 0.04,0.106 0.063,0.141 0.027,0.031 0.063,0.047 0.113,0.047 l 1.938,0.156 c 0.117,0 0.176,-0.062 0.176,-0.183 l -1.414,-5.645 c 0.761,0.254 1.46,0.649 2.097,1.188 0.641,0.539 1.184,1.171 1.625,1.906 0.445,0.73 0.766,1.488 0.961,2.277 0.039,0.137 0.109,0.246 0.227,0.332 0.109,0.082 0.238,0.125 0.379,0.125 0.125,0 0.23,-0.039 0.308,-0.113 0.082,-0.074 0.121,-0.176 0.121,-0.301 0,-0.156 -0.062,-0.39 -0.191,-0.707 -0.125,-0.316 -0.25,-0.598 -0.371,-0.848 -0.379,-0.753 -0.883,-1.445 -1.512,-2.074 -0.394,-0.394 -0.82,-0.742 -1.27,-1.047 -0.457,-0.304 -0.925,-0.562 -1.417,-0.777 -0.493,-0.215 -1.012,-0.379 -1.563,-0.496 l -0.344,0 z"
         style="fill:#000000;fill-opacity:1;fill-rule:nonzero;stroke:none"
         id="path3765"
         inkscape:connector-curvature="0" /><path
         d="m 408.469,365.351 c -0.824,0 -1.383,0.336 -1.68,1.016 -0.297,0.676 -0.445,1.484 -0.445,2.422 0,0.582 0.051,1.133 0.156,1.644 0.105,0.516 0.32,0.954 0.637,1.313 0.316,0.359 0.761,0.539 1.332,0.539 0.441,0 0.804,-0.105 1.086,-0.324 0.281,-0.215 0.5,-0.496 0.644,-0.84 0.149,-0.344 0.25,-0.711 0.305,-1.102 0.055,-0.39 0.082,-0.804 0.082,-1.23 0,-0.578 -0.055,-1.121 -0.16,-1.625 -0.106,-0.504 -0.321,-0.93 -0.629,-1.285 -0.317,-0.352 -0.754,-0.528 -1.328,-0.528 m 0,0.262 c 0.375,0 0.652,0.192 0.836,0.574 0.183,0.383 0.297,0.809 0.34,1.274 0.043,0.469 0.066,0.965 0.066,1.488 0,0.504 -0.023,0.973 -0.066,1.399 -0.043,0.425 -0.157,0.812 -0.34,1.156 -0.18,0.347 -0.461,0.523 -0.836,0.523 -0.379,0 -0.664,-0.176 -0.848,-0.523 -0.183,-0.348 -0.297,-0.735 -0.34,-1.16 -0.043,-0.426 -0.062,-0.891 -0.062,-1.395 0,-0.375 0.008,-0.726 0.027,-1.059 0.016,-0.332 0.066,-0.671 0.145,-1.027 0.078,-0.351 0.207,-0.648 0.382,-0.89 0.176,-0.243 0.407,-0.36 0.696,-0.36"
         style="fill:#000000;fill-opacity:1;fill-rule:nonzero;stroke:none"
         id="path3767"
         inkscape:connector-curvature="0" /><path
         d="m 416.758,371.16 c -0.078,0 -0.145,0.027 -0.196,0.09 -0.05,0.058 -0.082,0.125 -0.082,0.195 0,0.082 0.032,0.149 0.082,0.203 0.051,0.059 0.118,0.086 0.196,0.086 l 9.043,0 c 0.07,0 0.133,-0.027 0.179,-0.086 0.055,-0.054 0.082,-0.121 0.082,-0.203 0,-0.07 -0.027,-0.137 -0.082,-0.195 -0.046,-0.063 -0.109,-0.09 -0.179,-0.09 l -9.043,0 z m 0,2.797 c -0.078,0 -0.145,0.027 -0.196,0.082 -0.05,0.059 -0.082,0.129 -0.082,0.207 0,0.07 0.032,0.137 0.082,0.195 0.051,0.063 0.118,0.094 0.196,0.094 l 9.043,0 c 0.07,0 0.133,-0.031 0.179,-0.094 0.055,-0.058 0.082,-0.125 0.082,-0.195 0,-0.078 -0.027,-0.148 -0.082,-0.207 -0.046,-0.055 -0.109,-0.082 -0.179,-0.082 l -9.043,0 z"
         style="fill:#000000;fill-opacity:1;fill-rule:nonzero;stroke:none"
         id="path3769"
         inkscape:connector-curvature="0" /><path
         d="m 429.48,365.644 0,14.403 1.969,0 0,-0.578 -1.387,0 0,-13.246 1.387,0 0,-0.579 -1.969,0 z"
         style="fill:#000000;fill-opacity:1;fill-rule:nonzero;stroke:none"
         id="path3771"
         inkscape:connector-curvature="0" /><path
         d="m 435.367,368.93 c -1.179,0 -1.976,0.484 -2.398,1.449 -0.426,0.969 -0.637,2.121 -0.637,3.461 0,0.832 0.074,1.617 0.227,2.351 0.152,0.739 0.453,1.364 0.906,1.875 0.453,0.516 1.086,0.77 1.902,0.77 0.633,0 1.153,-0.153 1.555,-0.465 0.402,-0.309 0.711,-0.707 0.922,-1.199 0.211,-0.489 0.355,-1.012 0.429,-1.574 0.079,-0.559 0.118,-1.145 0.118,-1.758 0,-0.828 -0.075,-1.598 -0.227,-2.321 -0.152,-0.718 -0.453,-1.332 -0.898,-1.836 -0.446,-0.503 -1.078,-0.753 -1.899,-0.753 m 0,0.371 c 0.535,0 0.934,0.273 1.195,0.824 0.262,0.547 0.426,1.156 0.489,1.82 0.054,0.668 0.09,1.375 0.09,2.125 0,0.723 -0.036,1.387 -0.09,1.996 -0.063,0.61 -0.227,1.16 -0.485,1.657 -0.261,0.496 -0.66,0.742 -1.199,0.742 -0.543,0 -0.945,-0.25 -1.207,-0.746 -0.262,-0.496 -0.43,-1.051 -0.484,-1.657 -0.063,-0.605 -0.094,-1.269 -0.094,-1.992 0,-0.535 0.012,-1.039 0.039,-1.512 0.027,-0.472 0.094,-0.964 0.207,-1.468 0.11,-0.504 0.297,-0.926 0.547,-1.274 0.25,-0.343 0.582,-0.515 0.992,-0.515"
         style="fill:#000000;fill-opacity:1;fill-rule:nonzero;stroke:none"
         id="path3773"
         inkscape:connector-curvature="0" /><path
         d="m 440.18,370.039 c 0,0.219 0.078,0.402 0.238,0.559 0.156,0.152 0.344,0.23 0.555,0.23 0.129,0 0.257,-0.035 0.382,-0.105 0.125,-0.071 0.231,-0.168 0.301,-0.297 0.071,-0.125 0.106,-0.254 0.106,-0.387 0,-0.207 -0.078,-0.395 -0.235,-0.555 -0.156,-0.16 -0.339,-0.238 -0.554,-0.238 -0.211,0 -0.399,0.078 -0.555,0.238 -0.16,0.16 -0.238,0.348 -0.238,0.555"
         style="fill:#000000;fill-opacity:1;fill-rule:nonzero;stroke:none"
         id="path3775"
         inkscape:connector-curvature="0" /><path
         d="m 443.48,371.621 0,0.508 4.45,6.636 c 0.031,0.047 0.082,0.071 0.148,0.071 l 0.211,0 c 0.109,0 0.164,-0.051 0.164,-0.16 l 0,-6.547 1.41,0 0,-0.508 -1.41,0 0,-1.41 c 0,-0.199 0.137,-0.324 0.418,-0.379 0.281,-0.051 0.609,-0.078 0.977,-0.078 l 0,-0.508 -3.965,0 0,0.508 c 0.371,0 0.695,0.027 0.972,0.078 0.286,0.055 0.43,0.18 0.43,0.379 l 0,1.41 -3.805,0 z m 0.477,0.508 3.41,0 0,5.097 -3.41,-5.097 z"
         style="fill:#000000;fill-opacity:1;fill-rule:nonzero;stroke:none"
         id="path3777"
         inkscape:connector-curvature="0" /><path
         d="m 451.703,366.652 c 0,0.043 0.02,0.082 0.059,0.117 0.343,0.336 0.617,0.719 0.808,1.157 0.192,0.433 0.285,0.894 0.285,1.375 l 0,0.175 c -0.152,-0.152 -0.343,-0.23 -0.574,-0.23 -0.219,0 -0.406,0.078 -0.562,0.23 -0.153,0.157 -0.231,0.344 -0.231,0.563 0,0.226 0.078,0.414 0.231,0.562 0.156,0.153 0.343,0.227 0.562,0.227 0.344,0 0.586,-0.16 0.735,-0.477 0.144,-0.316 0.214,-0.664 0.214,-1.05 0,-0.532 -0.105,-1.039 -0.32,-1.52 -0.211,-0.48 -0.512,-0.914 -0.902,-1.297 -0.035,-0.019 -0.07,-0.031 -0.09,-0.031 -0.047,0 -0.094,0.023 -0.145,0.066 -0.046,0.043 -0.07,0.086 -0.07,0.133"
         style="fill:#000000;fill-opacity:1;fill-rule:nonzero;stroke:none"
         id="path3779"
         inkscape:connector-curvature="0" /><path
         d="m 458.152,368.93 c -1.179,0 -1.976,0.484 -2.402,1.449 -0.426,0.969 -0.637,2.121 -0.637,3.461 0,0.832 0.075,1.617 0.227,2.351 0.152,0.739 0.457,1.364 0.906,1.875 0.453,0.516 1.09,0.77 1.906,0.77 0.633,0 1.149,-0.153 1.551,-0.465 0.402,-0.309 0.711,-0.707 0.922,-1.199 0.211,-0.489 0.355,-1.012 0.434,-1.574 0.078,-0.559 0.117,-1.145 0.117,-1.758 0,-0.828 -0.078,-1.598 -0.231,-2.321 -0.152,-0.718 -0.449,-1.332 -0.894,-1.836 -0.446,-0.503 -1.078,-0.753 -1.899,-0.753 m 0,0.371 c 0.532,0 0.93,0.273 1.192,0.824 0.261,0.547 0.426,1.156 0.488,1.82 0.063,0.668 0.09,1.375 0.09,2.125 0,0.723 -0.027,1.387 -0.09,1.996 -0.062,0.61 -0.227,1.16 -0.484,1.657 -0.258,0.496 -0.66,0.742 -1.196,0.742 -0.547,0 -0.949,-0.25 -1.214,-0.746 -0.258,-0.496 -0.418,-1.051 -0.481,-1.657 -0.062,-0.605 -0.094,-1.269 -0.094,-1.992 0,-0.535 0.012,-1.039 0.039,-1.512 0.028,-0.472 0.098,-0.964 0.211,-1.468 0.11,-0.504 0.293,-0.926 0.543,-1.274 0.25,-0.343 0.582,-0.515 0.996,-0.515"
         style="fill:#000000;fill-opacity:1;fill-rule:nonzero;stroke:none"
         id="path3781"
         inkscape:connector-curvature="0" /><path
         d="m 462.961,370.039 c 0,0.219 0.078,0.402 0.238,0.559 0.156,0.152 0.344,0.23 0.555,0.23 0.133,0 0.262,-0.035 0.387,-0.105 0.125,-0.071 0.226,-0.168 0.297,-0.297 0.07,-0.125 0.105,-0.254 0.105,-0.387 0,-0.207 -0.078,-0.395 -0.234,-0.555 -0.157,-0.16 -0.34,-0.238 -0.555,-0.238 -0.211,0 -0.399,0.078 -0.555,0.238 -0.16,0.16 -0.238,0.348 -0.238,0.555"
         style="fill:#000000;fill-opacity:1;fill-rule:nonzero;stroke:none"
         id="path3783"
         inkscape:connector-curvature="0" /><path
         d="m 469.461,368.93 c -0.598,0 -1.094,0.156 -1.492,0.472 -0.399,0.317 -0.707,0.727 -0.926,1.231 -0.215,0.504 -0.367,1.035 -0.449,1.586 -0.086,0.554 -0.129,1.117 -0.129,1.683 0,0.758 0.148,1.52 0.445,2.281 0.293,0.766 0.731,1.399 1.301,1.903 0.574,0.5 1.258,0.75 2.043,0.75 0.328,0 0.637,-0.059 0.918,-0.184 0.285,-0.125 0.508,-0.308 0.668,-0.551 0.164,-0.242 0.246,-0.531 0.246,-0.875 0,-0.195 -0.07,-0.359 -0.203,-0.496 -0.133,-0.132 -0.297,-0.199 -0.496,-0.199 -0.188,0 -0.348,0.067 -0.485,0.203 -0.136,0.137 -0.203,0.301 -0.203,0.492 0,0.188 0.067,0.348 0.203,0.485 0.137,0.137 0.297,0.203 0.485,0.203 l 0.078,0 c -0.121,0.176 -0.293,0.305 -0.516,0.383 -0.222,0.082 -0.453,0.125 -0.695,0.125 -0.289,0 -0.559,-0.063 -0.805,-0.192 -0.246,-0.125 -0.469,-0.297 -0.664,-0.511 -0.195,-0.215 -0.359,-0.454 -0.492,-0.715 -0.129,-0.258 -0.234,-0.555 -0.305,-0.887 -0.074,-0.336 -0.117,-0.648 -0.136,-0.937 -0.02,-0.29 -0.028,-0.657 -0.028,-1.098 0.168,0.394 0.406,0.719 0.715,0.969 0.309,0.25 0.66,0.375 1.047,0.375 0.43,0 0.816,-0.086 1.168,-0.262 0.351,-0.172 0.652,-0.41 0.906,-0.719 0.254,-0.308 0.445,-0.656 0.582,-1.051 0.133,-0.394 0.196,-0.793 0.196,-1.195 0,-0.562 -0.122,-1.098 -0.372,-1.609 -0.25,-0.508 -0.605,-0.91 -1.058,-1.211 -0.457,-0.301 -0.973,-0.449 -1.547,-0.449 m 0,0.457 c 0.371,0 0.668,0.086 0.894,0.253 0.223,0.168 0.387,0.391 0.493,0.668 0.109,0.282 0.172,0.563 0.199,0.844 0.027,0.285 0.039,0.637 0.039,1.047 0,0.543 -0.027,1.008 -0.078,1.391 -0.051,0.386 -0.192,0.726 -0.422,1.019 -0.231,0.289 -0.582,0.438 -1.055,0.438 -0.39,0 -0.707,-0.133 -0.961,-0.395 -0.25,-0.262 -0.433,-0.594 -0.547,-0.992 -0.117,-0.402 -0.171,-0.789 -0.171,-1.16 0,-0.125 0.003,-0.219 0.015,-0.285 0,-0.016 -0.004,-0.028 -0.012,-0.035 0,-0.012 0,-0.024 -0.003,-0.036 0,-0.414 0.039,-0.832 0.125,-1.254 0.085,-0.421 0.246,-0.777 0.484,-1.07 0.242,-0.289 0.574,-0.433 1,-0.433"
         style="fill:#000000;fill-opacity:1;fill-rule:nonzero;stroke:none"
         id="path3785"
         inkscape:connector-curvature="0" /><path
         d="m 473.379,365.644 0,0.579 1.398,0 0,13.246 -1.398,0 0,0.578 1.973,0 0,-14.403 -1.973,0 z"
         style="fill:#000000;fill-opacity:1;fill-rule:nonzero;stroke:none"
         id="path3787"
         inkscape:connector-curvature="0" /><path
         d="m 362.832,374.285 20.16,0"
         style="fill:none;stroke:#ff0000;stroke-width:2;stroke-linecap:butt;stroke-linejoin:round;stroke-miterlimit:4;stroke-opacity:1;stroke-dasharray:none"
         id="path3789"
         inkscape:connector-curvature="0" /><path
         d="m 380.246,329.078 c 0,-3.941 -3.191,-7.133 -7.133,-7.133 -3.937,0 -7.133,3.192 -7.133,7.133 0,3.937 3.196,7.133 7.133,7.133 3.918,0 7.102,-3.156 7.133,-7.071"
         style="fill:none;stroke:#0000ff;stroke-width:2.4000001;stroke-linecap:square;stroke-linejoin:miter;stroke-miterlimit:4;stroke-opacity:1;stroke-dasharray:none"
         id="path3845"
         inkscape:connector-curvature="0" /><path
         d="m 366.305,359.082 13.621,0 0,-13.625 -13.621,0 0,13.625 z"
         style="fill:none;stroke:#008000;stroke-width:2.71740699;stroke-linecap:butt;stroke-linejoin:miter;stroke-miterlimit:4;stroke-opacity:1;stroke-dasharray:none"
         id="path3847"
         inkscape:connector-curvature="0" /><g
         id="g3849"
         transform="matrix(1,-0.0254338,-0.0254338,-1,0,410.035)"><path
           d="m 382.301,32.101 -16.728,0.406 8.013,-14.688 8.715,14.282 z"
           style="fill:none;stroke:#ff0000;stroke-width:2.39922404;stroke-linecap:square;stroke-linejoin:miter;stroke-miterlimit:4;stroke-opacity:1;stroke-dasharray:none"
           id="path3851"
           inkscape:connector-curvature="0" /></g></g></g></svg>