<?xml version="1.0" encoding="utf-8" standalone="no"?>
<!DOCTYPE svg PUBLIC "-//W3C//DTD SVG 1.1//EN"
  "http://www.w3.org/Graphics/SVG/1.1/DTD/svg11.dtd">
<!-- Created with matplotlib (http://matplotlib.org/) -->
<svg height="438pt" version="1.1" viewBox="0 0 576 438" width="576pt" xmlns="http://www.w3.org/2000/svg" xmlns:xlink="http://www.w3.org/1999/xlink">
 <defs>
  <style type="text/css">
*{stroke-linecap:square;stroke-linejoin:round;}
  </style>
 </defs>
 <g id="figure_1">
  <g id="patch_1">
   <path d="
M0 438.3
L576 438.3
L576 0
L0 0
z
" style="fill:#ffffff;"/>
  </g>
  <g id="axes_1">
   <g id="patch_2">
    <path d="
M72 394.47
L518.4 394.47
L518.4 43.83
L72 43.83
z
" style="fill:#ffffff;"/>
   </g>
   <g id="PathCollection_1">
    <defs>
     <path d="
M0 5.22327
C1.38523 5.22327 2.71391 4.67292 3.69341 3.69341
C4.67292 2.71391 5.22327 1.38523 5.22327 0
C5.22327 -1.38523 4.67292 -2.71391 3.69341 -3.69341
C2.71391 -4.67292 1.38523 -5.22327 0 -5.22327
C-1.38523 -5.22327 -2.71391 -4.67292 -3.69341 -3.69341
C-4.67292 -2.71391 -5.22327 -1.38523 -5.22327 0
C-5.22327 1.38523 -4.67292 2.71391 -3.69341 3.69341
C-2.71391 4.67292 -1.38523 5.22327 0 5.22327
z
" id="C0_0_586345e28e"/>
     <path d="
M0 4.7854
C1.2691 4.7854 2.4864 4.28118 3.38379 3.38379
C4.28118 2.4864 4.7854 1.2691 4.7854 0
C4.7854 -1.2691 4.28118 -2.4864 3.38379 -3.38379
C2.4864 -4.28118 1.2691 -4.7854 0 -4.7854
C-1.2691 -4.7854 -2.4864 -4.28118 -3.38379 -3.38379
C-4.28118 -2.4864 -4.7854 -1.2691 -4.7854 0
C-4.7854 1.2691 -4.28118 2.4864 -3.38379 3.38379
C-2.4864 4.28118 -1.2691 4.7854 0 4.7854
z
" id="C0_1_7dac65b4d6"/>
     <path d="
M0 4.72158
C1.25218 4.72158 2.45324 4.22408 3.33866 3.33866
C4.22408 2.45324 4.72158 1.25218 4.72158 0
C4.72158 -1.25218 4.22408 -2.45324 3.33866 -3.33866
C2.45324 -4.22408 1.25218 -4.72158 0 -4.72158
C-1.25218 -4.72158 -2.45324 -4.22408 -3.33866 -3.33866
C-4.22408 -2.45324 -4.72158 -1.25218 -4.72158 0
C-4.72158 1.25218 -4.22408 2.45324 -3.33866 3.33866
C-2.45324 4.22408 -1.25218 4.72158 0 4.72158
z
" id="C0_2_a0a4ad7071"/>
     <path d="
M0 4.59989
C1.2199 4.59989 2.39001 4.11521 3.25261 3.25261
C4.11521 2.39001 4.59989 1.2199 4.59989 0
C4.59989 -1.2199 4.11521 -2.39001 3.25261 -3.25261
C2.39001 -4.11521 1.2199 -4.59989 0 -4.59989
C-1.2199 -4.59989 -2.39001 -4.11521 -3.25261 -3.25261
C-4.11521 -2.39001 -4.59989 -1.2199 -4.59989 0
C-4.59989 1.2199 -4.11521 2.39001 -3.25261 3.25261
C-2.39001 4.11521 -1.2199 4.59989 0 4.59989
z
" id="C0_3_47e1f48e1d"/>
     <path d="
M0 4.54171
C1.20447 4.54171 2.35978 4.06316 3.21147 3.21147
C4.06316 2.35978 4.54171 1.20447 4.54171 0
C4.54171 -1.20447 4.06316 -2.35978 3.21147 -3.21147
C2.35978 -4.06316 1.20447 -4.54171 0 -4.54171
C-1.20447 -4.54171 -2.35978 -4.06316 -3.21147 -3.21147
C-4.06316 -2.35978 -4.54171 -1.20447 -4.54171 0
C-4.54171 1.20447 -4.06316 2.35978 -3.21147 3.21147
C-2.35978 4.06316 -1.20447 4.54171 0 4.54171
z
" id="C0_4_15324f5f11"/>
     <path d="
M0 4.2722
C1.133 4.2722 2.21975 3.82205 3.0209 3.0209
C3.82205 2.21975 4.2722 1.133 4.2722 0
C4.2722 -1.133 3.82205 -2.21975 3.0209 -3.0209
C2.21975 -3.82205 1.133 -4.2722 0 -4.2722
C-1.133 -4.2722 -2.21975 -3.82205 -3.0209 -3.0209
C-3.82205 -2.21975 -4.2722 -1.133 -4.2722 0
C-4.2722 1.133 -3.82205 2.21975 -3.0209 3.0209
C-2.21975 3.82205 -1.133 4.2722 0 4.2722
z
" id="C0_5_56b6850264"/>
     <path d="
M0 4.22205
C1.1197 4.22205 2.19369 3.77719 2.98544 2.98544
C3.77719 2.19369 4.22205 1.1197 4.22205 0
C4.22205 -1.1197 3.77719 -2.19369 2.98544 -2.98544
C2.19369 -3.77719 1.1197 -4.22205 0 -4.22205
C-1.1197 -4.22205 -2.19369 -3.77719 -2.98544 -2.98544
C-3.77719 -2.19369 -4.22205 -1.1197 -4.22205 0
C-4.22205 1.1197 -3.77719 2.19369 -2.98544 2.98544
C-2.19369 3.77719 -1.1197 4.22205 0 4.22205
z
" id="C0_6_4e0fa5a96b"/>
     <path d="
M0 4.22205
C1.1197 4.22205 2.19369 3.77719 2.98544 2.98544
C3.77719 2.19369 4.22205 1.1197 4.22205 0
C4.22205 -1.1197 3.77719 -2.19369 2.98544 -2.98544
C2.19369 -3.77719 1.1197 -4.22205 0 -4.22205
C-1.1197 -4.22205 -2.19369 -3.77719 -2.98544 -2.98544
C-3.77719 -2.19369 -4.22205 -1.1197 -4.22205 0
C-4.22205 1.1197 -3.77719 2.19369 -2.98544 2.98544
C-2.19369 3.77719 -1.1197 4.22205 0 4.22205
z
" id="C0_7_4e0fa5a96b"/>
     <path d="
M0 4.22205
C1.1197 4.22205 2.19369 3.77719 2.98544 2.98544
C3.77719 2.19369 4.22205 1.1197 4.22205 0
C4.22205 -1.1197 3.77719 -2.19369 2.98544 -2.98544
C2.19369 -3.77719 1.1197 -4.22205 0 -4.22205
C-1.1197 -4.22205 -2.19369 -3.77719 -2.98544 -2.98544
C-3.77719 -2.19369 -4.22205 -1.1197 -4.22205 0
C-4.22205 1.1197 -3.77719 2.19369 -2.98544 2.98544
C-2.19369 3.77719 -1.1197 4.22205 0 4.22205
z
" id="C0_8_4e0fa5a96b"/>
     <path d="
M0 4.17295
C1.10668 4.17295 2.16818 3.73326 2.95072 2.95072
C3.73326 2.16818 4.17295 1.10668 4.17295 0
C4.17295 -1.10668 3.73326 -2.16818 2.95072 -2.95072
C2.16818 -3.73326 1.10668 -4.17295 0 -4.17295
C-1.10668 -4.17295 -2.16818 -3.73326 -2.95072 -2.95072
C-3.73326 -2.16818 -4.17295 -1.10668 -4.17295 0
C-4.17295 1.10668 -3.73326 2.16818 -2.95072 2.95072
C-2.16818 3.73326 -1.10668 4.17295 0 4.17295
z
" id="C0_9_06cbe166eb"/>
     <path d="
M0 4.07718
C1.08128 4.07718 2.11842 3.64759 2.883 2.883
C3.64759 2.11842 4.07718 1.08128 4.07718 0
C4.07718 -1.08128 3.64759 -2.11842 2.883 -2.883
C2.11842 -3.64759 1.08128 -4.07718 0 -4.07718
C-1.08128 -4.07718 -2.11842 -3.64759 -2.883 -2.883
C-3.64759 -2.11842 -4.07718 -1.08128 -4.07718 0
C-4.07718 1.08128 -3.64759 2.11842 -2.883 2.883
C-2.11842 3.64759 -1.08128 4.07718 0 4.07718
z
" id="C0_a_45c227fc1f"/>
     <path d="
M0 4.03036
C1.06886 4.03036 2.09409 3.6057 2.8499 2.8499
C3.6057 2.09409 4.03036 1.06886 4.03036 0
C4.03036 -1.06886 3.6057 -2.09409 2.8499 -2.8499
C2.09409 -3.6057 1.06886 -4.03036 0 -4.03036
C-1.06886 -4.03036 -2.09409 -3.6057 -2.8499 -2.8499
C-3.6057 -2.09409 -4.03036 -1.06886 -4.03036 0
C-4.03036 1.06886 -3.6057 2.09409 -2.8499 2.8499
C-2.09409 3.6057 -1.06886 4.03036 0 4.03036
z
" id="C0_b_54b77f14b7"/>
     <path d="
M0 3.98484
C1.05679 3.98484 2.07044 3.56497 2.81771 2.81771
C3.56497 2.07044 3.98484 1.05679 3.98484 0
C3.98484 -1.05679 3.56497 -2.07044 2.81771 -2.81771
C2.07044 -3.56497 1.05679 -3.98484 0 -3.98484
C-1.05679 -3.98484 -2.07044 -3.56497 -2.81771 -2.81771
C-3.56497 -2.07044 -3.98484 -1.05679 -3.98484 0
C-3.98484 1.05679 -3.56497 2.07044 -2.81771 2.81771
C-2.07044 3.56497 -1.05679 3.98484 0 3.98484
z
" id="C0_c_ad941a72b2"/>
     <path d="
M0 3.93956
C1.04478 3.93956 2.04692 3.52446 2.78569 2.78569
C3.52446 2.04692 3.93956 1.04478 3.93956 0
C3.93956 -1.04478 3.52446 -2.04692 2.78569 -2.78569
C2.04692 -3.52446 1.04478 -3.93956 0 -3.93956
C-1.04478 -3.93956 -2.04692 -3.52446 -2.78569 -2.78569
C-3.52446 -2.04692 -3.93956 -1.04478 -3.93956 0
C-3.93956 1.04478 -3.52446 2.04692 -2.78569 2.78569
C-2.04692 3.52446 -1.04478 3.93956 0 3.93956
z
" id="C0_d_7b9d05d0bb"/>
     <path d="
M0 3.80835
C1.00999 3.80835 1.97874 3.40708 2.69291 2.69291
C3.40708 1.97874 3.80835 1.00999 3.80835 0
C3.80835 -1.00999 3.40708 -1.97874 2.69291 -2.69291
C1.97874 -3.40708 1.00999 -3.80835 0 -3.80835
C-1.00999 -3.80835 -1.97874 -3.40708 -2.69291 -2.69291
C-3.40708 -1.97874 -3.80835 -1.00999 -3.80835 0
C-3.80835 1.00999 -3.40708 1.97874 -2.69291 2.69291
C-1.97874 3.40708 -1.00999 3.80835 0 3.80835
z
" id="C0_e_91f12a110c"/>
     <path d="
M0 3.80835
C1.00999 3.80835 1.97874 3.40708 2.69291 2.69291
C3.40708 1.97874 3.80835 1.00999 3.80835 0
C3.80835 -1.00999 3.40708 -1.97874 2.69291 -2.69291
C1.97874 -3.40708 1.00999 -3.80835 0 -3.80835
C-1.00999 -3.80835 -1.97874 -3.40708 -2.69291 -2.69291
C-3.40708 -1.97874 -3.80835 -1.00999 -3.80835 0
C-3.80835 1.00999 -3.40708 1.97874 -2.69291 2.69291
C-1.97874 3.40708 -1.00999 3.80835 0 3.80835
z
" id="C0_f_91f12a110c"/>
     <path d="
M0 3.80835
C1.00999 3.80835 1.97874 3.40708 2.69291 2.69291
C3.40708 1.97874 3.80835 1.00999 3.80835 0
C3.80835 -1.00999 3.40708 -1.97874 2.69291 -2.69291
C1.97874 -3.40708 1.00999 -3.80835 0 -3.80835
C-1.00999 -3.80835 -1.97874 -3.40708 -2.69291 -2.69291
C-3.40708 -1.97874 -3.80835 -1.00999 -3.80835 0
C-3.80835 1.00999 -3.40708 1.97874 -2.69291 2.69291
C-1.97874 3.40708 -1.00999 3.80835 0 3.80835
z
" id="C0_10_91f12a110c"/>
     <path d="
M0 3.72413
C0.987652 3.72413 1.93498 3.33173 2.63336 2.63336
C3.33173 1.93498 3.72413 0.987652 3.72413 0
C3.72413 -0.987652 3.33173 -1.93498 2.63336 -2.63336
C1.93498 -3.33173 0.987652 -3.72413 0 -3.72413
C-0.987652 -3.72413 -1.93498 -3.33173 -2.63336 -2.63336
C-3.33173 -1.93498 -3.72413 -0.987652 -3.72413 0
C-3.72413 0.987652 -3.33173 1.93498 -2.63336 2.63336
C-1.93498 3.33173 -0.987652 3.72413 0 3.72413
z
" id="C0_11_5be039d2ea"/>
     <path d="
M0 3.60147
C0.955122 3.60147 1.87125 3.222 2.54663 2.54663
C3.222 1.87125 3.60147 0.955122 3.60147 0
C3.60147 -0.955122 3.222 -1.87125 2.54663 -2.54663
C1.87125 -3.222 0.955122 -3.60147 0 -3.60147
C-0.955122 -3.60147 -1.87125 -3.222 -2.54663 -2.54663
C-3.222 -1.87125 -3.60147 -0.955122 -3.60147 0
C-3.60147 0.955122 -3.222 1.87125 -2.54663 2.54663
C-1.87125 3.222 -0.955122 3.60147 0 3.60147
z
" id="C0_12_87acd39b4d"/>
     <path d="
M0 3.56129
C0.944465 3.56129 1.85037 3.18605 2.51821 2.51821
C3.18605 1.85037 3.56129 0.944465 3.56129 0
C3.56129 -0.944465 3.18605 -1.85037 2.51821 -2.51821
C1.85037 -3.18605 0.944465 -3.56129 0 -3.56129
C-0.944465 -3.56129 -1.85037 -3.18605 -2.51821 -2.51821
C-3.18605 -1.85037 -3.56129 -0.944465 -3.56129 0
C-3.56129 0.944465 -3.18605 1.85037 -2.51821 2.51821
C-1.85037 3.18605 -0.944465 3.56129 0 3.56129
z
" id="C0_13_85b16aac16"/>
     <path d="
M0 3.52229
C0.934123 3.52229 1.83011 3.15116 2.49064 2.49064
C3.15116 1.83011 3.52229 0.934123 3.52229 0
C3.52229 -0.934123 3.15116 -1.83011 2.49064 -2.49064
C1.83011 -3.15116 0.934123 -3.52229 0 -3.52229
C-0.934123 -3.52229 -1.83011 -3.15116 -2.49064 -2.49064
C-3.15116 -1.83011 -3.52229 -0.934123 -3.52229 0
C-3.52229 0.934123 -3.15116 1.83011 -2.49064 2.49064
C-1.83011 3.15116 -0.934123 3.52229 0 3.52229
z
" id="C0_14_e59b4e1e3e"/>
     <path d="
M0 3.52229
C0.934123 3.52229 1.83011 3.15116 2.49064 2.49064
C3.15116 1.83011 3.52229 0.934123 3.52229 0
C3.52229 -0.934123 3.15116 -1.83011 2.49064 -2.49064
C1.83011 -3.15116 0.934123 -3.52229 0 -3.52229
C-0.934123 -3.52229 -1.83011 -3.15116 -2.49064 -2.49064
C-3.15116 -1.83011 -3.52229 -0.934123 -3.52229 0
C-3.52229 0.934123 -3.15116 1.83011 -2.49064 2.49064
C-1.83011 3.15116 -0.934123 3.52229 0 3.52229
z
" id="C0_15_e59b4e1e3e"/>
     <path d="
M0 3.48293
C0.923684 3.48293 1.80966 3.11595 2.4628 2.4628
C3.11595 1.80966 3.48293 0.923684 3.48293 0
C3.48293 -0.923684 3.11595 -1.80966 2.4628 -2.4628
C1.80966 -3.11595 0.923684 -3.48293 0 -3.48293
C-0.923684 -3.48293 -1.80966 -3.11595 -2.4628 -2.4628
C-3.11595 -1.80966 -3.48293 -0.923684 -3.48293 0
C-3.48293 0.923684 -3.11595 1.80966 -2.4628 2.4628
C-1.80966 3.11595 -0.923684 3.48293 0 3.48293
z
" id="C0_16_c6d40848c7"/>
     <path d="
M0 3.44395
C0.913345 3.44395 1.7894 3.08107 2.43524 2.43524
C3.08107 1.7894 3.44395 0.913345 3.44395 0
C3.44395 -0.913345 3.08107 -1.7894 2.43524 -2.43524
C1.7894 -3.08107 0.913345 -3.44395 0 -3.44395
C-0.913345 -3.44395 -1.7894 -3.08107 -2.43524 -2.43524
C-3.08107 -1.7894 -3.44395 -0.913345 -3.44395 0
C-3.44395 0.913345 -3.08107 1.7894 -2.43524 2.43524
C-1.7894 3.08107 -0.913345 3.44395 0 3.44395
z
" id="C0_17_bde729119b"/>
     <path d="
M0 3.44395
C0.913345 3.44395 1.7894 3.08107 2.43524 2.43524
C3.08107 1.7894 3.44395 0.913345 3.44395 0
C3.44395 -0.913345 3.08107 -1.7894 2.43524 -2.43524
C1.7894 -3.08107 0.913345 -3.44395 0 -3.44395
C-0.913345 -3.44395 -1.7894 -3.08107 -2.43524 -2.43524
C-3.08107 -1.7894 -3.44395 -0.913345 -3.44395 0
C-3.44395 0.913345 -3.08107 1.7894 -2.43524 2.43524
C-1.7894 3.08107 -0.913345 3.44395 0 3.44395
z
" id="C0_18_bde729119b"/>
     <path d="
M0 3.40532
C0.903102 3.40532 1.76934 3.04651 2.40793 2.40793
C3.04651 1.76934 3.40532 0.903102 3.40532 0
C3.40532 -0.903102 3.04651 -1.76934 2.40793 -2.40793
C1.76934 -3.04651 0.903102 -3.40532 0 -3.40532
C-0.903102 -3.40532 -1.76934 -3.04651 -2.40793 -2.40793
C-3.04651 -1.76934 -3.40532 -0.903102 -3.40532 0
C-3.40532 0.903102 -3.04651 1.76934 -2.40793 2.40793
C-1.76934 3.04651 -0.903102 3.40532 0 3.40532
z
" id="C0_19_ab9901e20e"/>
     <path d="
M0 3.40532
C0.903102 3.40532 1.76934 3.04651 2.40793 2.40793
C3.04651 1.76934 3.40532 0.903102 3.40532 0
C3.40532 -0.903102 3.04651 -1.76934 2.40793 -2.40793
C1.76934 -3.04651 0.903102 -3.40532 0 -3.40532
C-0.903102 -3.40532 -1.76934 -3.04651 -2.40793 -2.40793
C-3.04651 -1.76934 -3.40532 -0.903102 -3.40532 0
C-3.40532 0.903102 -3.04651 1.76934 -2.40793 2.40793
C-1.76934 3.04651 -0.903102 3.40532 0 3.40532
z
" id="C0_1a_ab9901e20e"/>
     <path d="
M0 3.40532
C0.903102 3.40532 1.76934 3.04651 2.40793 2.40793
C3.04651 1.76934 3.40532 0.903102 3.40532 0
C3.40532 -0.903102 3.04651 -1.76934 2.40793 -2.40793
C1.76934 -3.04651 0.903102 -3.40532 0 -3.40532
C-0.903102 -3.40532 -1.76934 -3.04651 -2.40793 -2.40793
C-3.04651 -1.76934 -3.40532 -0.903102 -3.40532 0
C-3.40532 0.903102 -3.04651 1.76934 -2.40793 2.40793
C-1.76934 3.04651 -0.903102 3.40532 0 3.40532
z
" id="C0_1b_ab9901e20e"/>
     <path d="
M0 3.3679
C0.893178 3.3679 1.74989 3.01304 2.38147 2.38147
C3.01304 1.74989 3.3679 0.893178 3.3679 0
C3.3679 -0.893178 3.01304 -1.74989 2.38147 -2.38147
C1.74989 -3.01304 0.893178 -3.3679 0 -3.3679
C-0.893178 -3.3679 -1.74989 -3.01304 -2.38147 -2.38147
C-3.01304 -1.74989 -3.3679 -0.893178 -3.3679 0
C-3.3679 0.893178 -3.01304 1.74989 -2.38147 2.38147
C-1.74989 3.01304 -0.893178 3.3679 0 3.3679
z
" id="C0_1c_6e24803740"/>
     <path d="
M0 3.21875
C0.853624 3.21875 1.6724 2.87961 2.276 2.276
C2.87961 1.6724 3.21875 0.853624 3.21875 0
C3.21875 -0.853624 2.87961 -1.6724 2.276 -2.276
C1.6724 -2.87961 0.853624 -3.21875 0 -3.21875
C-0.853624 -3.21875 -1.6724 -2.87961 -2.276 -2.276
C-2.87961 -1.6724 -3.21875 -0.853624 -3.21875 0
C-3.21875 0.853624 -2.87961 1.6724 -2.276 2.276
C-1.6724 2.87961 -0.853624 3.21875 0 3.21875
z
" id="C0_1d_6b335158d1"/>
     <path d="
M0 3.18188
C0.843844 3.18188 1.65324 2.84661 2.24993 2.24993
C2.84661 1.65324 3.18188 0.843844 3.18188 0
C3.18188 -0.843844 2.84661 -1.65324 2.24993 -2.24993
C1.65324 -2.84661 0.843844 -3.18188 0 -3.18188
C-0.843844 -3.18188 -1.65324 -2.84661 -2.24993 -2.24993
C-2.84661 -1.65324 -3.18188 -0.843844 -3.18188 0
C-3.18188 0.843844 -2.84661 1.65324 -2.24993 2.24993
C-1.65324 2.84661 -0.843844 3.18188 0 3.18188
z
" id="C0_1e_01270e07b0"/>
    </defs>
    <g clip-path="url(#pbcca78ee25)">
     <use style="fill:#ff2900;stroke:#ff2900;stroke-linecap:butt;" x="372.382445345" xlink:href="#C0_0_586345e28e" y="104.551441441"/>
    </g>
    <g clip-path="url(#pbcca78ee25)">
     <use style="fill:#960000;stroke:#960000;stroke-linecap:butt;" x="366.124761392" xlink:href="#C0_1_7dac65b4d6" y="113.677207207"/>
    </g>
    <g clip-path="url(#pbcca78ee25)">
     <use style="fill:#890000;stroke:#890000;stroke-linecap:butt;" x="337.888720817" xlink:href="#C0_2_a0a4ad7071" y="184.436990991"/>
    </g>
    <g clip-path="url(#pbcca78ee25)">
     <use style="fill:#d10000;stroke:#d10000;stroke-linecap:butt;" x="320.241965347" xlink:href="#C0_3_47e1f48e1d" y="226.626108108"/>
    </g>
    <g clip-path="url(#pbcca78ee25)">
     <use style="fill:#920000;stroke:#920000;stroke-linecap:butt;" x="372.018137971" xlink:href="#C0_4_15324f5f11" y="124.628126126"/>
    </g>
    <g clip-path="url(#pbcca78ee25)">
     <use style="fill:#0098ff;stroke:#0098ff;stroke-linecap:butt;" x="333.740666841" xlink:href="#C0_5_56b6850264" y="128.489027027"/>
    </g>
    <g clip-path="url(#pbcca78ee25)">
     <use style="fill:#c40000;stroke:#c40000;stroke-linecap:butt;" x="360.635543165" xlink:href="#C0_6_4e0fa5a96b" y="78.9992972972"/>
    </g>
    <g clip-path="url(#pbcca78ee25)">
     <use style="fill:#0040ff;stroke:#0040ff;stroke-linecap:butt;" x="323.225896069" xlink:href="#C0_7_4e0fa5a96b" y="103.498468468"/>
    </g>
    <g clip-path="url(#pbcca78ee25)">
     <use style="fill:#ff9c00;stroke:#ff9c00;stroke-linecap:butt;" x="293.643275625" xlink:href="#C0_8_4e0fa5a96b" y="93.7409189193"/>
    </g>
    <g clip-path="url(#pbcca78ee25)">
     <use style="fill:#ff4300;stroke:#ff4300;stroke-linecap:butt;" x="328.811276767" xlink:href="#C0_9_06cbe166eb" y="217.430144145"/>
    </g>
    <g clip-path="url(#pbcca78ee25)">
     <use style="fill:#d60000;stroke:#d60000;stroke-linecap:butt;" x="297.822691158" xlink:href="#C0_a_45c227fc1f" y="249.229927928"/>
    </g>
    <g clip-path="url(#pbcca78ee25)">
     <use style="fill:#ff6400;stroke:#ff6400;stroke-linecap:butt;" x="314.628621784" xlink:href="#C0_b_54b77f14b7" y="224.098972973"/>
    </g>
    <g clip-path="url(#pbcca78ee25)">
     <use style="fill:#ffd700;stroke:#ffd700;stroke-linecap:butt;" x="355.164041495" xlink:href="#C0_c_ad941a72b2" y="140.422720721"/>
    </g>
    <g clip-path="url(#pbcca78ee25)">
     <use style="fill:#ebff0c;stroke:#ebff0c;stroke-linecap:butt;" x="345.95509047" xlink:href="#C0_d_7b9d05d0bb" y="191.035621622"/>
    </g>
    <g clip-path="url(#pbcca78ee25)">
     <use style="fill:#ff5d00;stroke:#ff5d00;stroke-linecap:butt;" x="374.474756901" xlink:href="#C0_e_91f12a110c" y="204.513675675"/>
    </g>
    <g clip-path="url(#pbcca78ee25)">
     <use style="fill:#00e0fb;stroke:#00e0fb;stroke-linecap:butt;" x="308.953157117" xlink:href="#C0_f_91f12a110c" y="268.815225225"/>
    </g>
    <g clip-path="url(#pbcca78ee25)">
     <use style="fill:#ff5200;stroke:#ff5200;stroke-linecap:butt;" x="275.356234787" xlink:href="#C0_10_91f12a110c" y="107.850756757"/>
    </g>
    <g clip-path="url(#pbcca78ee25)">
     <use style="fill:#ff5200;stroke:#ff5200;stroke-linecap:butt;" x="309.862682963" xlink:href="#C0_11_5be039d2ea" y="114.379189189"/>
    </g>
    <g clip-path="url(#pbcca78ee25)">
     <use style="fill:#001cff;stroke:#001cff;stroke-linecap:butt;" x="280.43575835" xlink:href="#C0_12_87acd39b4d" y="79.5608828834"/>
    </g>
    <g clip-path="url(#pbcca78ee25)">
     <use style="fill:#bb0000;stroke:#bb0000;stroke-linecap:butt;" x="414.815340229" xlink:href="#C0_13_85b16aac16" y="289.944882883"/>
    </g>
    <g clip-path="url(#pbcca78ee25)">
     <use style="fill:#ff9f00;stroke:#ff9f00;stroke-linecap:butt;" x="279.717445512" xlink:href="#C0_14_e59b4e1e3e" y="172.292702703"/>
    </g>
    <g clip-path="url(#pbcca78ee25)">
     <use style="fill:#ff5900;stroke:#ff5900;stroke-linecap:butt;" x="284.532126972" xlink:href="#C0_15_e59b4e1e3e" y="73.9450270273"/>
    </g>
    <g clip-path="url(#pbcca78ee25)">
     <use style="fill:#c1ff36;stroke:#c1ff36;stroke-linecap:butt;" x="373.185322306" xlink:href="#C0_16_c6d40848c7" y="154.392162163"/>
    </g>
    <g clip-path="url(#pbcca78ee25)">
     <use style="fill:#cd0000;stroke:#cd0000;stroke-linecap:butt;" x="345.788575829" xlink:href="#C0_17_bde729119b" y="322.306252252"/>
    </g>
    <g clip-path="url(#pbcca78ee25)">
     <use style="fill:#66ff90;stroke:#66ff90;stroke-linecap:butt;" x="333.308563154" xlink:href="#C0_18_bde729119b" y="86.7210990995"/>
    </g>
    <g clip-path="url(#pbcca78ee25)">
     <use style="fill:#bb0000;stroke:#bb0000;stroke-linecap:butt;" x="403.781452061" xlink:href="#C0_19_ab9901e20e" y="168.502"/>
    </g>
    <g clip-path="url(#pbcca78ee25)">
     <use style="fill:#f10800;stroke:#f10800;stroke-linecap:butt;" x="343.624446227" xlink:href="#C0_1a_ab9901e20e" y="133.473099099"/>
    </g>
    <g clip-path="url(#pbcca78ee25)">
     <use style="fill:#ff3000;stroke:#ff3000;stroke-linecap:butt;" x="309.807875517" xlink:href="#C0_1b_ab9901e20e" y="183.945603604"/>
    </g>
    <g clip-path="url(#pbcca78ee25)">
     <use style="fill:#ff8900;stroke:#ff8900;stroke-linecap:butt;" x="334.372130577" xlink:href="#C0_1c_6e24803740" y="106.236198198"/>
    </g>
    <g clip-path="url(#pbcca78ee25)">
     <use style="fill:#c80000;stroke:#c80000;stroke-linecap:butt;" x="295.619974591" xlink:href="#C0_1d_6b335158d1" y="195.949495495"/>
    </g>
    <g clip-path="url(#pbcca78ee25)">
     <use style="fill:#c80000;stroke:#c80000;stroke-linecap:butt;" x="358.214517743" xlink:href="#C0_1e_01270e07b0" y="163.728522523"/>
    </g>
   </g>
   <g id="patch_3">
    <path clip-path="url(#pbcca78ee25)" d="
M92.2909 359.406
L498.109 359.406
L498.109 67.206
L92.2909 67.206
z
" style="fill:none;stroke:#ff0000;stroke-width:1.5;"/>
   </g>
   <g id="matplotlib.axis_1">
    <g id="xtick_1">
     <g id="line2d_1">
      <defs>
       <path d="
M0 0
L0 -4" id="mcb557df647" style="stroke:#000000;stroke-linecap:butt;stroke-width:0.5;"/>
      </defs>
      <g>
       <use style="stroke:#000000;stroke-linecap:butt;stroke-width:0.5;" x="92.2909090909" xlink:href="#mcb557df647" y="394.47"/>
      </g>
     </g>
     <g id="line2d_2">
      <defs>
       <path d="
M0 0
L0 4" id="mdad270ee8e" style="stroke:#000000;stroke-linecap:butt;stroke-width:0.5;"/>
      </defs>
      <g>
       <use style="stroke:#000000;stroke-linecap:butt;stroke-width:0.5;" x="92.2909090909" xlink:href="#mdad270ee8e" y="43.83"/>
      </g>
     </g>
     <g id="text_1">
      <!-- $-4.0$ -->
      <defs>
       <path d="
M65.9062 23
C67.5938 23 69.4062 23 69.4062 25
C69.4062 27 67.5938 27 65.9062 27
L11.7969 27
C10.0938 27 8.29688 27 8.29688 25
C8.29688 23 10.0938 23 11.7969 23
z
" id="CMSY10-0"/>
       <path d="
M33.5938 64.3281
C33.5938 66.4062 33.5 66.5 31.7031 66.5
L2 19.5938
L2 17
L27.7969 17
L27.7969 7.14062
C27.7969 3.5 27.5938 2.5 20.5938 2.5
L18.7031 2.5
L18.7031 0
C21.9062 0 27.2969 0 30.7031 0
C34.0938 0 39.5 0 42.7031 0
L42.7031 2.5
L40.7969 2.5
C33.7969 2.5 33.5938 3.5 33.5938 7.14062
L33.5938 17
L43.7969 17
L43.7969 19.5938
L33.5938 19.5938
z

M28.0938 57.7656
L28.0938 19.5938
L4 19.5938
z
" id="CMR17-52"/>
       <path d="
M42 31.6406
C42 37.75 41.9062 48.125 37.7031 56.1094
C34 63.1094 28.0938 65.5938 22.9062 65.5938
C18.0938 65.5938 12 63.4062 8.20312 56.2031
C4.20312 48.7188 3.79688 39.4375 3.79688 31.6406
C3.79688 25.9531 3.90625 17.2812 7 9.67188
C11.2969 -0.609375 19 -2 22.9062 -2
C27.5 -2 34.5 -0.109375 38.5938 9.375
C41.5938 16.2812 42 24.3594 42 31.6406
M22.9062 -0.40625
C16.5 -0.40625 12.7031 5.07812 11.2969 12.6875
C10.2031 18.5625 10.2031 27.1562 10.2031 32.75
C10.2031 40.4375 10.2031 46.8281 11.5 52.9219
C13.4062 61.3906 19 64 22.9062 64
C27 64 32.2969 61.2969 34.2031 53.125
C35.5 47.4375 35.5938 40.7344 35.5938 32.75
C35.5938 26.25 35.5938 18.2656 34.4062 12.375
C32.2969 1.48438 26.4062 -0.40625 22.9062 -0.40625" id="CMR17-48"/>
       <path d="
M18.4062 4.79688
C18.4062 7.6875 16 9.67188 13.5938 9.67188
C10.7031 9.67188 8.70312 7.28125 8.70312 4.89062
C8.70312 2 11.0938 0 13.5 0
C16.4062 0 18.4062 2.39062 18.4062 4.79688" id="CMMI12-58"/>
      </defs>
      <g transform="translate(78.1415005011 408.620822964)scale(0.14 -0.14)">
       <use transform="translate(0.0 8.30225582289)scale(0.996264009963)" xlink:href="#CMSY10-0"/>
       <use transform="translate(77.4874676506 8.30225582289)scale(0.996264009963)" xlink:href="#CMR17-52"/>
       <use transform="translate(123.177944768 8.30225582289)scale(0.996264009963)" xlink:href="#CMMI12-58"/>
       <use transform="translate(150.275121857 8.30225582289)scale(0.996264009963)" xlink:href="#CMR17-48"/>
      </g>
     </g>
    </g>
    <g id="xtick_2">
     <g id="line2d_3">
      <g>
       <use style="stroke:#000000;stroke-linecap:butt;stroke-width:0.5;" x="193.745454545" xlink:href="#mcb557df647" y="394.47"/>
      </g>
     </g>
     <g id="line2d_4">
      <g>
       <use style="stroke:#000000;stroke-linecap:butt;stroke-width:0.5;" x="193.745454545" xlink:href="#mdad270ee8e" y="43.83"/>
      </g>
     </g>
     <g id="text_2">
      <!-- $-3.5$ -->
      <defs>
       <path d="
M22.0938 33.7031
C31 33.7031 34.9062 25.9688 34.9062 17.0312
C34.9062 5 28.5 0.390625 22.7031 0.390625
C17.4062 0.390625 8.79688 3.03125 6.09375 10.8281
C6.59375 10.625 7.09375 10.625 7.59375 10.625
C10 10.625 11.7969 12.2188 11.7969 14.8125
C11.7969 17.7031 9.59375 19 7.59375 19
C5.90625 19 3.29688 18.2031 3.29688 14.4688
C3.29688 5.23438 12.2969 -2 22.9062 -2
C34 -2 42.5 6.71875 42.5 16.9531
C42.5 26.6719 34.5 33.6875 25 34.7969
C32.5938 36.375 39.9062 43.0625 39.9062 52.0156
C39.9062 59.6875 32 65.2969 23 65.2969
C13.9062 65.2969 5.90625 59.8281 5.90625 52.0156
C5.90625 48.5938 8.5 48 9.79688 48
C11.9062 48 13.7031 49.2969 13.7031 51.8906
C13.7031 54.4688 11.9062 55.7656 9.79688 55.7656
C9.40625 55.7656 8.90625 55.7656 8.5 55.5625
C11.4062 61.8594 19.2969 63 22.7969 63
C26.2969 63 32.9062 61.3281 32.9062 51.875
C32.9062 49.1094 32.5 44.1875 29.0938 39.8438
C26.0938 36 22.7031 36 19.4062 35.5938
C18.9062 35.5938 16.5938 35.5938 16.2031 35.5938
C15.5 35.4844 15.0938 35.3906 15.0938 34.5938
C15.0938 33.8125 15.2031 33.7031 17.2031 33.7031
z
" id="CMR17-51"/>
       <path d="
M11.4062 57.6875
C12.4062 57.2812 16.5 56 20.7031 56
C30 56 35.0938 61.0156 38 63.9219
C38 64.7344 38 65.25 37.4062 65.25
C37.2969 65.25 37.0938 65.25 36.2969 64.8281
C32.7969 63.3125 28.7031 62.0781 23.7031 62.0781
C20.7031 62.0781 16.2031 62.5 11.2969 64.7344
C10.2031 65.25 10 65.25 9.90625 65.25
C9.40625 65.25 9.29688 65.1406 9.29688 63.1562
L9.29688 34.2812
C9.29688 32.5 9.29688 32 10.2969 32
C10.7969 32 11 32.2031 11.5 32.9062
C14.7031 37.4844 19.0938 39.4062 24.0938 39.4062
C27.5938 39.4062 35.0938 37.2188 35.0938 20.1406
C35.0938 16.9531 35.0938 11.1719 32.0938 6.57812
C29.5938 2.48438 25.7031 0.390625 21.4062 0.390625
C14.7969 0.390625 8.09375 5 6.29688 12.7188
C6.70312 12.6094 7.5 12.4219 7.90625 12.4219
C9.20312 12.4219 11.7031 13.125 11.7031 16.2188
C11.7031 18.9062 9.79688 20 7.90625 20
C5.59375 20 4.09375 18.5938 4.09375 15.7969
C4.09375 7.09375 11 -2 21.5938 -2
C31.9062 -2 41.7031 6.875 41.7031 19.75
C41.7031 31.7188 33.9062 41 24.2031 41
C19.0938 41 14.7969 39.0938 11.4062 35.4531
z
" id="CMR17-53"/>
      </defs>
      <g transform="translate(179.596045956 408.620822964)scale(0.14 -0.14)">
       <use transform="translate(0.0 8.30225582289)scale(0.996264009963)" xlink:href="#CMSY10-0"/>
       <use transform="translate(77.4874676506 8.30225582289)scale(0.996264009963)" xlink:href="#CMR17-51"/>
       <use transform="translate(123.177944768 8.30225582289)scale(0.996264009963)" xlink:href="#CMMI12-58"/>
       <use transform="translate(150.275121857 8.30225582289)scale(0.996264009963)" xlink:href="#CMR17-53"/>
      </g>
     </g>
    </g>
    <g id="xtick_3">
     <g id="line2d_5">
      <g>
       <use style="stroke:#000000;stroke-linecap:butt;stroke-width:0.5;" x="295.2" xlink:href="#mcb557df647" y="394.47"/>
      </g>
     </g>
     <g id="line2d_6">
      <g>
       <use style="stroke:#000000;stroke-linecap:butt;stroke-width:0.5;" x="295.2" xlink:href="#mdad270ee8e" y="43.83"/>
      </g>
     </g>
     <g id="text_3">
      <!-- $-3.0$ -->
      <g transform="translate(281.05059141 408.620822964)scale(0.14 -0.14)">
       <use transform="translate(0.0 8.30225582289)scale(0.996264009963)" xlink:href="#CMSY10-0"/>
       <use transform="translate(77.4874676506 8.30225582289)scale(0.996264009963)" xlink:href="#CMR17-51"/>
       <use transform="translate(123.177944768 8.30225582289)scale(0.996264009963)" xlink:href="#CMMI12-58"/>
       <use transform="translate(150.275121857 8.30225582289)scale(0.996264009963)" xlink:href="#CMR17-48"/>
      </g>
     </g>
    </g>
    <g id="xtick_4">
     <g id="line2d_7">
      <g>
       <use style="stroke:#000000;stroke-linecap:butt;stroke-width:0.5;" x="396.654545455" xlink:href="#mcb557df647" y="394.47"/>
      </g>
     </g>
     <g id="line2d_8">
      <g>
       <use style="stroke:#000000;stroke-linecap:butt;stroke-width:0.5;" x="396.654545455" xlink:href="#mdad270ee8e" y="43.83"/>
      </g>
     </g>
     <g id="text_4">
      <!-- $-2.5$ -->
      <defs>
       <path d="
M41.7031 15.4531
L39.9062 15.4531
C38.9062 8.375 38.0938 7.17188 37.7031 6.5625
C37.2031 5.76562 30 5.76562 28.5938 5.76562
L9.40625 5.76562
C13 9.67188 20 16.75 28.5 24.9531
C34.5938 30.7344 41.7031 37.5312 41.7031 47.4219
C41.7031 59.2188 32.2969 66 21.7969 66
C10.7969 66 4.09375 56.3125 4.09375 47.3438
C4.09375 43.4375 7 42.9375 8.20312 42.9375
C9.20312 42.9375 12.2031 43.5469 12.2031 47.0312
C12.2031 50.1094 9.59375 51 8.20312 51
C7.59375 51 7 50.9062 6.59375 50.7031
C8.5 59.2188 14.2969 63.4062 20.4062 63.4062
C29.0938 63.4062 34.7969 56.5156 34.7969 47.4219
C34.7969 38.7344 29.7031 31.25 24 24.75
L4.09375 2.28125
L4.09375 0
L39.2969 0
z
" id="CMR17-50"/>
      </defs>
      <g transform="translate(382.505136865 408.620822964)scale(0.14 -0.14)">
       <use transform="translate(0.0 8.30225582289)scale(0.996264009963)" xlink:href="#CMSY10-0"/>
       <use transform="translate(77.4874676506 8.30225582289)scale(0.996264009963)" xlink:href="#CMR17-50"/>
       <use transform="translate(123.177944768 8.30225582289)scale(0.996264009963)" xlink:href="#CMMI12-58"/>
       <use transform="translate(150.275121857 8.30225582289)scale(0.996264009963)" xlink:href="#CMR17-53"/>
      </g>
     </g>
    </g>
    <g id="xtick_5">
     <g id="line2d_9">
      <g>
       <use style="stroke:#000000;stroke-linecap:butt;stroke-width:0.5;" x="498.109090909" xlink:href="#mcb557df647" y="394.47"/>
      </g>
     </g>
     <g id="line2d_10">
      <g>
       <use style="stroke:#000000;stroke-linecap:butt;stroke-width:0.5;" x="498.109090909" xlink:href="#mdad270ee8e" y="43.83"/>
      </g>
     </g>
     <g id="text_5">
      <!-- $-2.0$ -->
      <g transform="translate(483.959682319 408.620822964)scale(0.14 -0.14)">
       <use transform="translate(0.0 8.30225582289)scale(0.996264009963)" xlink:href="#CMSY10-0"/>
       <use transform="translate(77.4874676506 8.30225582289)scale(0.996264009963)" xlink:href="#CMR17-50"/>
       <use transform="translate(123.177944768 8.30225582289)scale(0.996264009963)" xlink:href="#CMMI12-58"/>
       <use transform="translate(150.275121857 8.30225582289)scale(0.996264009963)" xlink:href="#CMR17-48"/>
      </g>
     </g>
    </g>
    <g id="text_6">
     <!-- $\log_{10}( \text{deleterious effect} )$ -->
     <defs>
      <path d="
M48.2031 0.515625
L48.2031 53
L39.9062 53
L39.9062 23.1094
C39.9062 12.3438 34.2969 5.3125 25.5938 5.3125
C19 5.3125 14.7969 9.32812 14.7969 15.6719
L14.7969 53
L6.5 53
L6.5 12.375
C6.5 3.625 13 -2 23.2031 -2
C30.9062 -2 35.7969 0.703125 40.7031 7.625
L40.7031 0.515625
z
" id="Nimbus_Sans_L_Regular-117"/>
      <path d="
M47.0938 34.9375
C46.7031 40.0312 45.5938 43.3281 43.5938 46.2188
C40 51.1094 33.7031 54 26.4062 54
C12.2969 54 3.09375 42.8438 3.09375 25.5
C3.09375 8.65625 12.0938 -2 26.2969 -2
C38.7969 -2 46.7031 5.46875 47.7031 18.2344
L39.2969 18.2344
C37.9062 9.875 33.5938 5.70312 26.5 5.70312
C17.2969 5.70312 11.7969 13.1719 11.7969 25.5
C11.7969 38.5312 17.2031 46.2812 26.2969 46.2812
C33.2969 46.2812 37.7031 42.2031 38.7031 34.9375
z
" id="Nimbus_Sans_L_Regular-99"/>
      <path d="
M25.4062 52.8125
L16.7969 52.8125
L16.7969 67
L8.5 67
L8.5 52.8125
L1.40625 52.8125
L1.40625 46
L8.5 46
L8.5 6.3125
C8.5 1 12.0938 -2 18.5938 -2
C20.5938 -2 22.5938 -1.8125 25.4062 -1.29688
L25.4062 5.71875
C24.2969 5.40625 23 5.3125 21.4062 5.3125
C17.7969 5.3125 16.7969 6.3125 16.7969 10.0156
L16.7969 46
L25.4062 46
z
" id="Nimbus_Sans_L_Regular-116"/>
      <path d="
M25.7969 52
L17.0938 52
L17.0938 60.25
C17.0938 63.7812 19.0938 65.5938 22.9062 65.5938
C23.5938 65.5938 23.9062 65.5938 25.7969 65.5938
L25.7969 72.5
C23.9062 72.9062 22.7969 73 21.0938 73
C13.4062 73 8.79688 68.5625 8.79688 60.9844
L8.79688 52
L1.79688 52
L1.79688 45.1875
L8.79688 45.1875
L8.79688 -0.40625
L17.0938 -0.40625
L17.0938 45.1875
L25.7969 45.1875
z
" id="Nimbus_Sans_L_Regular-102"/>
      <path d="
M15.2969 68.6875
L3.40625 67.5938
L3.40625 65
C9.29688 65 10.2031 64.4062 10.2031 59.6406
L10.2031 6.65625
C10.2031 2.875 9.79688 2.39062 3.40625 2.39062
L3.40625 -0.203125
C5.79688 0 10.2031 0 12.7031 0
C15.2969 0 19.7031 0 22.0938 -0.203125
L22.0938 2.39062
C15.7031 2.39062 15.2969 2.78125 15.2969 6.65625
z
" id="CMR17-108"/>
      <path d="
M26.2969 24.6719
C26.2969 31.8438 25.5938 43.9844 19.5938 56.8281
C14.7969 67.1875 6.59375 74.4531 5.40625 74.4531
C5.09375 74.4531 4.70312 74.3438 4.70312 73.8438
C4.70312 73.6562 4.79688 73.5469 4.90625 73.3438
C9.70312 68.375 21.9062 55.7344 21.9062 24.7812
C21.9062 -6.28125 9.79688 -18.9219 4.90625 -23.9062
C4.79688 -24.0938 4.70312 -24.2031 4.70312 -24.3906
C4.70312 -24.8906 5.09375 -25 5.40625 -25
C6.5 -25 15 -17.625 19.9062 -6.67188
C24.9062 4.375 26.2969 15.125 26.2969 24.6719" id="CMR17-41"/>
      <path d="
M30.5938 -24.3906
C30.5938 -24.2969 30.5938 -24.0938 30.2969 -23.7969
C25.7031 -19.125 13.4062 -6.375 13.4062 24.6875
C13.4062 55.75 25.5 68.3906 30.4062 73.3594
C30.4062 73.4688 30.5938 73.6719 30.5938 73.9531
C30.5938 74.25 30.2969 74.4531 29.9062 74.4531
C28.7969 74.4531 20.2969 67.0781 15.4062 56.125
C10.4062 45.0781 9 34.3281 9 24.7812
C9 17.6094 9.70312 5.46875 15.7031 -7.375
C20.5 -17.7344 28.7031 -25 29.9062 -25
C30.4062 -25 30.5938 -24.7969 30.5938 -24.3906" id="CMR17-40"/>
      <path d="
M15.2031 73
L6.79688 73
L6.79688 -0.03125
L15.2031 -0.03125
z
" id="Nimbus_Sans_L_Regular-108"/>
      <path d="
M11.0938 18.1875
C13 16.6875 16.2969 15 20.2969 15
C28.2031 15 35 21.2031 35 29.5
C35 32.0938 34.2031 36.0938 31.2031 39.2031
C34 42.0625 38.0938 43 40.4062 43
C40.7969 43 41.4062 43 41.9062 42.7656
C41.5 42.6719 40.5938 42.2812 40.5938 40.7344
C40.5938 39.4844 41.5 38.6094 42.7969 38.6094
C44.2969 38.6094 45.0938 39.5781 45.0938 40.8438
C45.0938 42.6719 43.5938 44.5938 40.4062 44.5938
C36.4062 44.5938 32.9062 42.7812 30.0938 40.3125
C27.0938 43.0156 23.5 44 20.2969 44
C12.4062 44 5.59375 37.7969 5.59375 29.5
C5.59375 23.7812 8.90625 20.1875 9.90625 19.1875
C6.90625 15.6875 6.90625 11.6094 6.90625 11.1094
C6.90625 8.51562 7.90625 4.71875 11.2969 2.625
C6.09375 1.32812 2 -2.64062 2 -7.59375
C2 -14.7344 11.5 -20 22.9062 -20
C33.9062 -20 43.7969 -14.9375 43.7969 -7.48438
C43.7969 6 29 6 21.2969 6
C19 6 14.9062 6 14.4062 6.10938
C11.2969 6.60938 9.20312 9.40625 9.20312 12.8906
C9.20312 13.7812 9.20312 16 11.0938 18.1875
M20.2969 16.6875
C11.5 16.6875 11.5 27.5 11.5 29.5156
C11.5 31.5 11.5 42.3125 20.2969 42.3125
C29.0938 42.3125 29.0938 31.5 29.0938 29.5156
C29.0938 27.5 29.0938 16.6875 20.2969 16.6875
M22.9062 -18.2969
C12.9062 -18.2969 6 -13.0469 6 -7.59375
C6 -4.51562 7.70312 -1.64062 9.90625 -0.0625
C12.4062 1.625 13.4062 1.625 20.2031 1.625
C28.4062 1.625 39.7969 1.625 39.7969 -7.59375
C39.7969 -13.0469 32.9062 -18.2969 22.9062 -18.2969" id="CMR17-103"/>
      <path d="
M43.0938 21.1875
C43.0938 34 33.7969 44 22.9062 44
C12 44 2.70312 34 2.70312 21.1875
C2.70312 8.60938 12 -1 22.9062 -1
C33.7969 -1 43.0938 8.60938 43.0938 21.1875
M22.9062 0.796875
C18.2031 0.796875 14.2031 3.59375 11.9062 7.5
C9.40625 11.9844 9.09375 17.5938 9.09375 22
C9.09375 26.2031 9.29688 31.4062 11.9062 35.9062
C13.9062 39.2031 17.7969 42.4062 22.9062 42.4062
C27.4062 42.4062 31.2031 39.9062 33.5938 36.4062
C36.7031 31.7031 36.7031 25.1094 36.7031 22
C36.7031 18.0938 36.5 12.1094 33.7969 7.29688
C31 2.70312 26.7031 0.796875 22.9062 0.796875" id="CMR17-111"/>
      <path d="
M15 52.4844
L6.70312 52.4844
L6.70312 0
L15 0
z

M15 73
L6.59375 73
L6.59375 62.4844
L15 62.4844
z
" id="Nimbus_Sans_L_Regular-105"/>
      <path d="
M26.5938 63.3125
C26.5938 65.4062 26.5 65.5 25.0938 65.5
C21.2031 61.1875 15.2969 59.7969 9.70312 59.7969
C9.40625 59.7969 8.90625 59.7969 8.79688 59.5
C8.70312 59.2969 8.70312 59.0938 8.70312 57
C11.7969 57 17 57.5938 21 59.9844
L21 7.20312
C21 3.6875 20.7969 2.5 12.2031 2.5
L9.20312 2.5
L9.20312 0
C14 0 19 0 23.7969 0
C28.5938 0 33.5938 0 38.4062 0
L38.4062 2.5
L35.4062 2.5
C26.7969 2.5 26.5938 3.59375 26.5938 7.15625
z
" id="CMR17-49"/>
      <path d="
M27.2031 54
C12.5 54 3.59375 43.5312 3.59375 26
C3.59375 8.45312 12.4062 -2 27.2969 -2
C42 -2 51 8.45312 51 25.5938
C51 43.6406 42.2969 54 27.2031 54
M27.2969 46.2812
C36.7031 46.2812 42.2969 38.625 42.2969 25.7031
C42.2969 13.4531 36.5 5.70312 27.2969 5.70312
C18 5.70312 12.2969 13.3594 12.2969 26
C12.2969 38.5312 18 46.2812 27.2969 46.2812" id="Nimbus_Sans_L_Regular-111"/>
      <path d="
M51.2969 24
C51.2969 31.875 50.7031 36.5938 49.2031 40.4219
C45.7969 48.875 37.7969 54 28 54
C13.4062 54 4 42.8438 4 25.7031
C4 8.54688 13.0938 -2 27.7969 -2
C39.7969 -2 48.0938 4.875 50.2031 16.375
L41.7969 16.375
C39.5 9.35938 34.7969 5.70312 28.0938 5.70312
C22.7969 5.70312 18.2969 8.14062 15.5 12.6094
C13.5 15.6562 12.7969 18.7188 12.7031 24
z

M12.9062 30.8125
C13.5938 40.1875 19.5 46.2812 27.9062 46.2812
C36.0938 46.2812 42.4062 39.7031 42.4062 31.4062
C42.4062 31.2031 42.4062 31.0156 42.2969 30.8125
z
" id="Nimbus_Sans_L_Regular-101"/>
      <path d="
M49.5 73
L41.2031 73
L41.2031 45.8906
C37.7031 51.1875 32.0938 54 25.0938 54
C11.5 54 2.59375 43.1406 2.59375 26.4844
C2.59375 8.84375 11.2969 -2 25.4062 -2
C32.5938 -2 37.5938 0.703125 42.0938 7.20312
L42.0938 -0.03125
L49.5 -0.03125
z

M26.5 46.1875
C35.5 46.1875 41.2031 38.2344 41.2031 25.7969
C41.2031 13.7656 35.4062 5.8125 26.5938 5.8125
C17.4062 5.8125 11.2969 13.8594 11.2969 26
C11.2969 38.125 17.4062 46.1875 26.5 46.1875" id="Nimbus_Sans_L_Regular-100"/>
      <path d="
M6.90625 52.4844
L6.90625 0
L15.2969 0
L15.2969 27.25
C15.2969 34.7656 17.2031 39.6719 21.2031 42.5781
C23.7969 44.4844 26.2969 45.0781 32.0938 45.0781
L32.0938 53.7031
C30.7031 53.8906 30 54 28.9062 54
C23.5 54 19.4062 50.7812 14.5938 42.9688
L14.5938 52.4844
z
" id="Nimbus_Sans_L_Regular-114"/>
      <path d="
M43.7969 37.9219
C43.7031 48.2031 36.9062 54 24.7969 54
C12.5938 54 4.70312 47.7188 4.70312 38.0625
C4.70312 29.8906 8.90625 26.0156 21.2969 23.0312
L29.0938 21.1406
C34.9062 19.7344 37.2031 17.6562 37.2031 13.875
C37.2031 9 32.2969 5.70312 25 5.70312
C20.5 5.70312 16.7031 7 14.5938 9.1875
C13.2969 10.6875 12.7031 12.1719 12.2031 15.8438
L3.40625 15.8438
C3.79688 3.76562 10.5938 -2 24.2969 -2
C37.5 -2 45.9062 4.45312 45.9062 14.5156
C45.9062 22.2812 41.5 26.5781 31.0938 29.0625
L23.0938 30.9531
C16.2969 32.5312 13.4062 34.7344 13.4062 38.4062
C13.4062 43.1875 17.7031 46.2812 24.5 46.2812
C31.2031 46.2812 34.7969 43.3906 35 37.9219
z
" id="Nimbus_Sans_L_Regular-115"/>
     </defs>
     <g transform="translate(212.64985236 434.955024159)scale(0.16 -0.16)">
      <use transform="translate(0.0 24.8232640781)scale(0.996264009963)" xlink:href="#CMR17-108"/>
      <use transform="translate(24.8710584819 24.8232640781)scale(0.996264009963)" xlink:href="#CMR17-111"/>
      <use transform="translate(70.5615355989 24.8232640781)scale(0.996264009963)" xlink:href="#CMR17-103"/>
      <use transform="translate(117.553178875 1.95817199175)scale(0.697381766617)" xlink:href="#CMR17-49"/>
      <use transform="translate(149.536360839 1.95817199175)scale(0.697381766617)" xlink:href="#CMR17-48"/>
      <use transform="translate(182.017674808 24.8232640781)scale(0.996264009963)" xlink:href="#CMR17-40"/>
      <use transform="translate(217.298442608 24.8232640781)scale(0.996264009963)" xlink:href="#Nimbus_Sans_L_Regular-100"/>
      <use transform="translate(272.690119571 24.8232640781)scale(0.996264009963)" xlink:href="#Nimbus_Sans_L_Regular-101"/>
      <use transform="translate(328.081796534 24.8232640781)scale(0.996264009963)" xlink:href="#Nimbus_Sans_L_Regular-108"/>
      <use transform="translate(350.198580883 24.8232640781)scale(0.996264009963)" xlink:href="#Nimbus_Sans_L_Regular-101"/>
      <use transform="translate(405.590257847 24.8232640781)scale(0.996264009963)" xlink:href="#Nimbus_Sans_L_Regular-116"/>
      <use transform="translate(433.28542745 24.8232640781)scale(0.996264009963)" xlink:href="#Nimbus_Sans_L_Regular-101"/>
      <use transform="translate(488.677104413 24.8232640781)scale(0.996264009963)" xlink:href="#Nimbus_Sans_L_Regular-114"/>
      <use transform="translate(523.345711638 24.8232640781)scale(0.996264009963)" xlink:href="#Nimbus_Sans_L_Regular-105"/>
      <use transform="translate(545.462495987 24.8232640781)scale(0.996264009963)" xlink:href="#Nimbus_Sans_L_Regular-111"/>
      <use transform="translate(600.85417295 24.8232640781)scale(0.996264009963)" xlink:href="#Nimbus_Sans_L_Regular-117"/>
      <use transform="translate(656.245849913 24.8232640781)scale(0.996264009963)" xlink:href="#Nimbus_Sans_L_Regular-115"/>
      <use transform="translate(733.754220015 24.8232640781)scale(0.996264009963)" xlink:href="#Nimbus_Sans_L_Regular-101"/>
      <use transform="translate(789.145896978 24.8232640781)scale(0.996264009963)" xlink:href="#Nimbus_Sans_L_Regular-102"/>
      <use transform="translate(816.841066581 24.8232640781)scale(0.996264009963)" xlink:href="#Nimbus_Sans_L_Regular-102"/>
      <use transform="translate(841.549465992 24.8232640781)scale(0.996264009963)" xlink:href="#Nimbus_Sans_L_Regular-101"/>
      <use transform="translate(896.941142955 24.8232640781)scale(0.996264009963)" xlink:href="#Nimbus_Sans_L_Regular-99"/>
      <use transform="translate(946.754343453 24.8232640781)scale(0.996264009963)" xlink:href="#Nimbus_Sans_L_Regular-116"/>
      <use transform="translate(974.449513057 24.8232640781)scale(0.996264009963)" xlink:href="#CMR17-41"/>
     </g>
    </g>
   </g>
   <g id="matplotlib.axis_2">
    <g id="ytick_1">
     <g id="line2d_11">
      <defs>
       <path d="
M0 0
L4 0" id="mc8fcea1516" style="stroke:#000000;stroke-linecap:butt;stroke-width:0.5;"/>
      </defs>
      <g>
       <use style="stroke:#000000;stroke-linecap:butt;stroke-width:0.5;" x="72.0" xlink:href="#mc8fcea1516" y="359.406"/>
      </g>
     </g>
     <g id="line2d_12">
      <defs>
       <path d="
M0 0
L-4 0" id="m0d5b0a6425" style="stroke:#000000;stroke-linecap:butt;stroke-width:0.5;"/>
      </defs>
      <g>
       <use style="stroke:#000000;stroke-linecap:butt;stroke-width:0.5;" x="518.4" xlink:href="#m0d5b0a6425" y="359.406"/>
      </g>
     </g>
     <g id="text_7">
      <!-- $0.75$ -->
      <defs>
       <path d="
M45.0938 61.5781
L45.0938 63.7656
L21.5938 63.7656
C9.90625 63.7656 9.70312 65.0781 9.29688 67
L7.5 67
L4.59375 48.3438
L6.40625 48.3438
C6.70312 50.2344 7.40625 55.3125 8.59375 57.2031
C9.20312 58 16.5938 58 18.2969 58
L40.2969 58
L29.2031 41.5781
C21.7969 30.5312 16.7031 15.6094 16.7031 2.57812
C16.7031 1.39062 16.7031 -2 20.2969 -2
C23.9062 -2 23.9062 1.39062 23.9062 2.67188
L23.9062 7.26562
C23.9062 23.5625 26.7031 34.3125 31.2969 41.1875
z
" id="CMR17-55"/>
      </defs>
      <g transform="translate(43.7209293275 363.900254942)scale(0.14 -0.14)">
       <use transform="scale(0.996264009963)" xlink:href="#CMR17-48"/>
       <use transform="translate(45.6904771171 0.0)scale(0.996264009963)" xlink:href="#CMMI12-58"/>
       <use transform="translate(72.7876542069 0.0)scale(0.996264009963)" xlink:href="#CMR17-55"/>
       <use transform="translate(118.478131324 0.0)scale(0.996264009963)" xlink:href="#CMR17-53"/>
      </g>
     </g>
    </g>
    <g id="ytick_2">
     <g id="line2d_13">
      <g>
       <use style="stroke:#000000;stroke-linecap:butt;stroke-width:0.5;" x="72.0" xlink:href="#mc8fcea1516" y="300.966"/>
      </g>
     </g>
     <g id="line2d_14">
      <g>
       <use style="stroke:#000000;stroke-linecap:butt;stroke-width:0.5;" x="518.4" xlink:href="#m0d5b0a6425" y="300.966"/>
      </g>
     </g>
     <g id="text_8">
      <!-- $0.80$ -->
      <defs>
       <path d="
M27.2031 35.375
C33.5 38.5625 39.9062 43.3281 39.9062 50.9844
C39.9062 60.0312 31.0938 65.2969 23 65.2969
C13.9062 65.2969 5.90625 58.7344 5.90625 49.6875
C5.90625 47.2031 6.5 42.9219 10.4062 39.1406
C11.4062 38.1562 15.5938 35.1719 18.2969 33.2812
C13.7969 30.9844 3.29688 25.5312 3.29688 14.5938
C3.29688 4.35938 13.0938 -2 22.7969 -2
C33.5 -2 42.5 5.65625 42.5 15.7969
C42.5 24.8438 36.4062 29.0312 32.4062 31.7031
z

M14.0938 44.125
C13.2969 44.625 9.29688 47.7031 9.29688 52.375
C9.29688 58.4375 15.5938 63 22.7969 63
C30.7031 63 36.5 57.4531 36.5 50.9844
C36.5 41.7344 26.0938 36.4688 25.5938 36.4688
C25.5 36.4688 25.4062 36.4688 24.5938 37.0781
z

M32.5 23.7344
C34 22.6406 38.7969 19.375 38.7969 13.2969
C38.7969 5.95312 31.4062 0.390625 23 0.390625
C13.9062 0.390625 7 6.84375 7 14.6875
C7 22.5469 13.0938 29.0938 20 32.1875
z
" id="CMR17-56"/>
      </defs>
      <g transform="translate(43.7209293275 305.460254942)scale(0.14 -0.14)">
       <use transform="scale(0.996264009963)" xlink:href="#CMR17-48"/>
       <use transform="translate(45.6904771171 0.0)scale(0.996264009963)" xlink:href="#CMMI12-58"/>
       <use transform="translate(72.7876542069 0.0)scale(0.996264009963)" xlink:href="#CMR17-56"/>
       <use transform="translate(118.478131324 0.0)scale(0.996264009963)" xlink:href="#CMR17-48"/>
      </g>
     </g>
    </g>
    <g id="ytick_3">
     <g id="line2d_15">
      <g>
       <use style="stroke:#000000;stroke-linecap:butt;stroke-width:0.5;" x="72.0" xlink:href="#mc8fcea1516" y="242.526"/>
      </g>
     </g>
     <g id="line2d_16">
      <g>
       <use style="stroke:#000000;stroke-linecap:butt;stroke-width:0.5;" x="518.4" xlink:href="#m0d5b0a6425" y="242.526"/>
      </g>
     </g>
     <g id="text_9">
      <!-- $0.85$ -->
      <g transform="translate(43.7209293275 247.020254942)scale(0.14 -0.14)">
       <use transform="scale(0.996264009963)" xlink:href="#CMR17-48"/>
       <use transform="translate(45.6904771171 0.0)scale(0.996264009963)" xlink:href="#CMMI12-58"/>
       <use transform="translate(72.7876542069 0.0)scale(0.996264009963)" xlink:href="#CMR17-56"/>
       <use transform="translate(118.478131324 0.0)scale(0.996264009963)" xlink:href="#CMR17-53"/>
      </g>
     </g>
    </g>
    <g id="ytick_4">
     <g id="line2d_17">
      <g>
       <use style="stroke:#000000;stroke-linecap:butt;stroke-width:0.5;" x="72.0" xlink:href="#mc8fcea1516" y="184.086"/>
      </g>
     </g>
     <g id="line2d_18">
      <g>
       <use style="stroke:#000000;stroke-linecap:butt;stroke-width:0.5;" x="518.4" xlink:href="#m0d5b0a6425" y="184.086"/>
      </g>
     </g>
     <g id="text_10">
      <!-- $0.90$ -->
      <defs>
       <path d="
M35.2031 29.125
C35.2031 7.25 26.0938 0.484375 18.5938 0.484375
C16.2969 0.484375 10.7031 0.484375 8.40625 4.59375
C11 4.1875 12.9062 5.57812 12.9062 8.09375
C12.9062 10.8125 10.7031 11.7031 9.29688 11.7031
C8.40625 11.7031 5.70312 11.2969 5.70312 7.90625
C5.70312 1.10938 11.5938 -2 18.7969 -2
C30.2969 -2 42 10.5312 42 32.3906
C42 59.6406 30.7969 65.2969 23.2031 65.2969
C13.2969 65.2969 3.79688 56.6875 3.79688 43.4062
C3.79688 31.1094 11.9062 22 22.0938 22
C30.5 22 34.2031 29.7344 35.2031 33
z

M22.2969 23.5938
C19.5938 23.5938 15.7969 24.0938 12.7031 30.0312
C10.5938 33.8906 10.5938 38.4531 10.5938 43.2969
C10.5938 49.1562 10.5938 53.2031 13.4062 57.5625
C14.7969 59.6406 17.4062 63 23.2031 63
C35 63 35 45.0781 35 41.125
C35 34.0938 31.7969 23.5938 22.2969 23.5938" id="CMR17-57"/>
      </defs>
      <g transform="translate(43.7209293275 188.580254942)scale(0.14 -0.14)">
       <use transform="scale(0.996264009963)" xlink:href="#CMR17-48"/>
       <use transform="translate(45.6904771171 0.0)scale(0.996264009963)" xlink:href="#CMMI12-58"/>
       <use transform="translate(72.7876542069 0.0)scale(0.996264009963)" xlink:href="#CMR17-57"/>
       <use transform="translate(118.478131324 0.0)scale(0.996264009963)" xlink:href="#CMR17-48"/>
      </g>
     </g>
    </g>
    <g id="ytick_5">
     <g id="line2d_19">
      <g>
       <use style="stroke:#000000;stroke-linecap:butt;stroke-width:0.5;" x="72.0" xlink:href="#mc8fcea1516" y="125.646"/>
      </g>
     </g>
     <g id="line2d_20">
      <g>
       <use style="stroke:#000000;stroke-linecap:butt;stroke-width:0.5;" x="518.4" xlink:href="#m0d5b0a6425" y="125.646"/>
      </g>
     </g>
     <g id="text_11">
      <!-- $0.95$ -->
      <g transform="translate(43.7209293275 130.140254942)scale(0.14 -0.14)">
       <use transform="scale(0.996264009963)" xlink:href="#CMR17-48"/>
       <use transform="translate(45.6904771171 0.0)scale(0.996264009963)" xlink:href="#CMMI12-58"/>
       <use transform="translate(72.7876542069 0.0)scale(0.996264009963)" xlink:href="#CMR17-57"/>
       <use transform="translate(118.478131324 0.0)scale(0.996264009963)" xlink:href="#CMR17-53"/>
      </g>
     </g>
    </g>
    <g id="ytick_6">
     <g id="line2d_21">
      <g>
       <use style="stroke:#000000;stroke-linecap:butt;stroke-width:0.5;" x="72.0" xlink:href="#mc8fcea1516" y="67.206"/>
      </g>
     </g>
     <g id="line2d_22">
      <g>
       <use style="stroke:#000000;stroke-linecap:butt;stroke-width:0.5;" x="518.4" xlink:href="#m0d5b0a6425" y="67.206"/>
      </g>
     </g>
     <g id="text_12">
      <!-- $1.00$ -->
      <g transform="translate(43.7209293275 71.7002549424)scale(0.14 -0.14)">
       <use transform="scale(0.996264009963)" xlink:href="#CMR17-49"/>
       <use transform="translate(45.6904771171 0.0)scale(0.996264009963)" xlink:href="#CMMI12-58"/>
       <use transform="translate(72.7876542069 0.0)scale(0.996264009963)" xlink:href="#CMR17-48"/>
       <use transform="translate(118.478131324 0.0)scale(0.996264009963)" xlink:href="#CMR17-48"/>
      </g>
     </g>
    </g>
    <g id="text_13">
     <!-- deleterious fraction -->
     <defs>
      <path d="
M7 52.4844
L7 0
L15.4062 0
L15.4062 28.9531
C15.4062 39.6719 21 46.6875 29.5938 46.6875
C36.2031 46.6875 40.4062 42.6719 40.4062 36.3594
L40.4062 0
L48.7031 0
L48.7031 39.6719
C48.7031 48.3906 42.2031 54 32.0938 54
C24.2969 54 19.2969 50.9844 14.7031 43.6875
L14.7031 52.4844
z
" id="Nimbus_Sans_L_Regular-110"/>
      <path d="
M53.5 5.20312
C52.5938 5 52.2031 5 51.7031 5
C48.7969 5 47.2031 6.48438 47.2031 9.07812
L47.2031 39.7656
C47.2031 49.0156 40.4062 54 27.5 54
C19.9062 54 13.5938 51.8125 10.0938 47.9062
C7.70312 45.2031 6.70312 42.2188 6.5 37.0312
L14.9062 37.0312
C15.5938 43.3906 19.4062 46.2812 27.2031 46.2812
C34.7031 46.2812 38.9062 43.4844 38.9062 38.5156
L38.9062 36.3281
C38.9062 32.8281 36.7969 31.3438 30.2031 30.5469
C18.4062 29.0625 16.5938 28.6562 13.4062 27.3594
C7.29688 24.875 4.20312 20.1875 4.20312 13.4219
C4.20312 3.96875 10.7969 -2 21.4062 -2
C28 -2 33.2969 0.296875 39.2031 5.70312
C39.7969 0.390625 42.4062 -2 47.7969 -2
C49.5 -2 50.7969 -1.8125 53.5 -1.09375
z

M38.9062 16.75
C38.9062 13.9531 38.0938 12.2656 35.5938 9.98438
C32.2031 6.89062 28.0938 5.3125 23.2031 5.3125
C16.7031 5.3125 12.9062 8.39062 12.9062 13.6562
C12.9062 19.1406 16.5938 21.9219 25.5 23.2188
C34.2969 24.4062 36.0938 24.8125 38.9062 26.0938
z
" id="Nimbus_Sans_L_Regular-97"/>
     </defs>
     <g transform="translate(27.36 286.520430648)rotate(-90.0)scale(0.16 -0.16)">
      <use transform="translate(0.0 1.79267018699)scale(0.996264009963)" xlink:href="#Nimbus_Sans_L_Regular-100"/>
      <use transform="translate(55.3916769633 1.79267018699)scale(0.996264009963)" xlink:href="#Nimbus_Sans_L_Regular-101"/>
      <use transform="translate(110.783353927 1.79267018699)scale(0.996264009963)" xlink:href="#Nimbus_Sans_L_Regular-108"/>
      <use transform="translate(132.900138275 1.79267018699)scale(0.996264009963)" xlink:href="#Nimbus_Sans_L_Regular-101"/>
      <use transform="translate(188.291815239 1.79267018699)scale(0.996264009963)" xlink:href="#Nimbus_Sans_L_Regular-116"/>
      <use transform="translate(215.986984842 1.79267018699)scale(0.996264009963)" xlink:href="#Nimbus_Sans_L_Regular-101"/>
      <use transform="translate(271.378661805 1.79267018699)scale(0.996264009963)" xlink:href="#Nimbus_Sans_L_Regular-114"/>
      <use transform="translate(306.04726903 1.79267018699)scale(0.996264009963)" xlink:href="#Nimbus_Sans_L_Regular-105"/>
      <use transform="translate(328.164053379 1.79267018699)scale(0.996264009963)" xlink:href="#Nimbus_Sans_L_Regular-111"/>
      <use transform="translate(383.555730342 1.79267018699)scale(0.996264009963)" xlink:href="#Nimbus_Sans_L_Regular-117"/>
      <use transform="translate(438.947407306 1.79267018699)scale(0.996264009963)" xlink:href="#Nimbus_Sans_L_Regular-115"/>
      <use transform="translate(516.455777407 1.79267018699)scale(0.996264009963)" xlink:href="#Nimbus_Sans_L_Regular-102"/>
      <use transform="translate(544.15094701 1.79267018699)scale(0.996264009963)" xlink:href="#Nimbus_Sans_L_Regular-114"/>
      <use transform="translate(576.330079949 1.79267018699)scale(0.996264009963)" xlink:href="#Nimbus_Sans_L_Regular-97"/>
      <use transform="translate(631.721756913 1.79267018699)scale(0.996264009963)" xlink:href="#Nimbus_Sans_L_Regular-99"/>
      <use transform="translate(681.534957411 1.79267018699)scale(0.996264009963)" xlink:href="#Nimbus_Sans_L_Regular-116"/>
      <use transform="translate(709.230127014 1.79267018699)scale(0.996264009963)" xlink:href="#Nimbus_Sans_L_Regular-105"/>
      <use transform="translate(731.346911363 1.79267018699)scale(0.996264009963)" xlink:href="#Nimbus_Sans_L_Regular-111"/>
      <use transform="translate(786.738588326 1.79267018699)scale(0.996264009963)" xlink:href="#Nimbus_Sans_L_Regular-110"/>
     </g>
    </g>
   </g>
   <g id="patch_4">
    <path d="
M72 43.83
L518.4 43.83" style="fill:none;stroke:#000000;"/>
   </g>
   <g id="patch_5">
    <path d="
M518.4 394.47
L518.4 43.83" style="fill:none;stroke:#000000;"/>
   </g>
   <g id="patch_6">
    <path d="
M72 394.47
L518.4 394.47" style="fill:none;stroke:#000000;"/>
   </g>
   <g id="patch_7">
    <path d="
M72 394.47
L72 43.83" style="fill:none;stroke:#000000;"/>
   </g>
   <g id="text_14">
    <!-- flat prior -->
    <defs>
     <path d="
M5.40625 -22
L13.7969 -22
L13.7969 5
C18.2031 -0.421875 23.0938 -2.8125 29.9062 -2.8125
C43.4062 -2.8125 52.2969 8.15625 52.2969 24.9844
C52.2969 42.7188 43.7031 53.8125 29.7969 53.8125
C22.7031 53.8125 17 50.5938 13.0938 44.3906
L13.0938 52.3281
L5.40625 52.3281
z

M28.4062 46
C37.5938 46 43.5938 37.8125 43.5938 25.1875
C43.5938 13.1719 37.5 5 28.4062 5
C19.5938 5 13.7969 13.0781 13.7969 25.4844
C13.7969 37.9219 19.5938 46 28.4062 46" id="Nimbus_Sans_L_Regular-112"/>
     <path d="
M25.7031 52.8125
L17 52.8125
L17 60.5781
C17 63.8906 19 65.5938 22.7969 65.5938
C23.5 65.5938 23.7969 65.5938 25.7031 65.5938
L25.7031 72.7969
C23.7969 72.9688 22.7031 73 21 73
C13.2969 73 8.70312 68.7344 8.70312 61.4531
L8.70312 52.8125
L1.70312 52.8125
L1.70312 46
L8.70312 46
L8.70312 -0.03125
L17 -0.03125
L17 46
L25.7031 46
z

M43 73
L34.7031 73
L34.7031 -0.03125
L43 -0.03125
z
" id="Nimbus_Sans_L_Regular-3"/>
    </defs>
    <g style="fill:#ff0000;" transform="translate(447.381818182 379.908777918)scale(0.14 -0.14)">
     <use transform="translate(0.0 21.2198791884)scale(0.996264009963)" xlink:href="#Nimbus_Sans_L_Regular-3"/>
     <use transform="translate(49.8132004981 21.2198791884)scale(0.996264009963)" xlink:href="#Nimbus_Sans_L_Regular-97"/>
     <use transform="translate(105.204877461 21.2198791884)scale(0.996264009963)" xlink:href="#Nimbus_Sans_L_Regular-116"/>
     <use transform="translate(160.595216668 21.2198791884)scale(0.996264009963)" xlink:href="#Nimbus_Sans_L_Regular-112"/>
     <use transform="translate(215.986893631 21.2198791884)scale(0.996264009963)" xlink:href="#Nimbus_Sans_L_Regular-114"/>
     <use transform="translate(250.655500856 21.2198791884)scale(0.996264009963)" xlink:href="#Nimbus_Sans_L_Regular-105"/>
     <use transform="translate(272.772285205 21.2198791884)scale(0.996264009963)" xlink:href="#Nimbus_Sans_L_Regular-111"/>
     <use transform="translate(328.163962168 21.2198791884)scale(0.996264009963)" xlink:href="#Nimbus_Sans_L_Regular-114"/>
    </g>
   </g>
   <g id="text_15">
    <!-- color is adaptive effect (1e-2.5 to 1e-1.5) -->
    <defs>
     <path d="
M25.9062 50.5938
L25.9062 0
L34.7031 0
L34.7031 71.0156
L28.9062 71.0156
C25.7969 60.1094 23.7969 58.6094 10.2031 56.9062
L10.2031 50.5938
z
" id="Nimbus_Sans_L_Regular-49"/>
     <path d="
M9.29688 -21.2656
C19.2969 -8.14062 25.5938 10.0938 25.5938 25.8125
C25.5938 41.6406 19.2969 59.875 9.29688 73
L3.79688 73
C12.5938 58.6719 17.5 41.8438 17.5 25.8125
C17.5 9.89062 12.5938 -7.04688 3.79688 -21.2656
z
" id="Nimbus_Sans_L_Regular-41"/>
     <path d="
M23.5938 73
C13.5938 59.875 7.29688 41.6406 7.29688 25.9062
C7.29688 10.0938 13.5938 -8.14062 23.5938 -21.2656
L29.0938 -21.2656
C20.2969 -6.9375 15.4062 9.89062 15.4062 25.9062
C15.4062 41.8438 20.2969 58.7656 29.0938 73
z
" id="Nimbus_Sans_L_Regular-40"/>
     <path d="
M50.5938 8.71875
L13.2969 8.71875
C14.2031 14.5312 17.4062 18.2344 26.0938 23.3438
L36.0938 28.75
C46 34.1562 51.0938 41.4531 51.0938 50.1719
C51.0938 56.0781 48.7031 61.5938 44.5 65.3906
C40.2969 69.2031 35.0938 71 28.4062 71
C19.4062 71 12.7031 67.7969 8.79688 61.7969
C6.29688 57.9844 5.20312 53.5781 5 46.3594
L13.7969 46.3594
C14.0938 51.1719 14.7031 54.0781 15.9062 56.375
C18.2031 60.6875 22.7969 63.2969 28.0938 63.2969
C36.0938 63.2969 42.0938 57.5781 42.0938 49.9688
C42.0938 44.3594 38.7969 39.5469 32.5 35.9531
L23.2969 30.75
C8.5 22.3438 4.20312 15.625 3.40625 0
L50.5938 0
z
" id="Nimbus_Sans_L_Regular-50"/>
     <path d="
M19.0938 10.4219
L8.70312 10.4219
L8.70312 0
L19.0938 0
z
" id="Nimbus_Sans_L_Regular-46"/>
     <path d="
M28.4062 31.2031
L4.59375 31.2031
L4.59375 24
L28.4062 24
z
" id="Nimbus_Sans_L_Regular-45"/>
     <path d="
M47.5938 71
L11 71
L5.70312 32.5938
L13.7969 32.5938
C17.9062 37.4844 21.2969 39.1875 26.7969 39.1875
C36.2969 39.1875 42.2969 32.6875 42.2969 22.2031
C42.2969 12 36.4062 5.8125 26.7969 5.8125
C19.0938 5.8125 14.4062 9.70312 12.2969 17.7031
L3.5 17.7031
C4.70312 11.9062 5.70312 9.09375 7.79688 6.48438
C11.7969 1.09375 19 -2 27 -2
C41.2969 -2 51.2969 8.39062 51.2969 23.3906
C51.2969 37.4062 42 47 28.4062 47
C23.4062 47 19.4062 45.7031 15.2969 42.6875
L18.0938 62.2969
L47.5938 62.2969
z
" id="Nimbus_Sans_L_Regular-53"/>
     <path d="
M28.5 0
L48.5938 52.5
L39.2031 52.5
L24.4062 9.92188
L10.4062 52.5
L1 52.5
L19.4062 0
z
" id="Nimbus_Sans_L_Regular-118"/>
    </defs>
    <g transform="translate(170.383895961 26.0525553102)scale(0.14 -0.14)">
     <use transform="translate(0.0 21.2198791884)scale(0.996264009963)" xlink:href="#Nimbus_Sans_L_Regular-99"/>
     <use transform="translate(49.8132004981 21.2198791884)scale(0.996264009963)" xlink:href="#Nimbus_Sans_L_Regular-111"/>
     <use transform="translate(105.204877461 21.2198791884)scale(0.996264009963)" xlink:href="#Nimbus_Sans_L_Regular-108"/>
     <use transform="translate(127.32166181 21.2198791884)scale(0.996264009963)" xlink:href="#Nimbus_Sans_L_Regular-111"/>
     <use transform="translate(182.713338774 21.2198791884)scale(0.996264009963)" xlink:href="#Nimbus_Sans_L_Regular-114"/>
     <use transform="translate(243.583738106 21.2198791884)scale(0.996264009963)" xlink:href="#Nimbus_Sans_L_Regular-105"/>
     <use transform="translate(265.700522455 21.2198791884)scale(0.996264009963)" xlink:href="#Nimbus_Sans_L_Regular-115"/>
     <use transform="translate(343.208892556 21.2198791884)scale(0.996264009963)" xlink:href="#Nimbus_Sans_L_Regular-97"/>
     <use transform="translate(398.60056952 21.2198791884)scale(0.996264009963)" xlink:href="#Nimbus_Sans_L_Regular-100"/>
     <use transform="translate(453.992246483 21.2198791884)scale(0.996264009963)" xlink:href="#Nimbus_Sans_L_Regular-97"/>
     <use transform="translate(509.383923446 21.2198791884)scale(0.996264009963)" xlink:href="#Nimbus_Sans_L_Regular-112"/>
     <use transform="translate(564.77560041 21.2198791884)scale(0.996264009963)" xlink:href="#Nimbus_Sans_L_Regular-116"/>
     <use transform="translate(592.470770013 21.2198791884)scale(0.996264009963)" xlink:href="#Nimbus_Sans_L_Regular-105"/>
     <use transform="translate(614.587554362 21.2198791884)scale(0.996264009963)" xlink:href="#Nimbus_Sans_L_Regular-118"/>
     <use transform="translate(661.910125238 21.2198791884)scale(0.996264009963)" xlink:href="#Nimbus_Sans_L_Regular-101"/>
     <use transform="translate(744.996971805 21.2198791884)scale(0.996264009963)" xlink:href="#Nimbus_Sans_L_Regular-101"/>
     <use transform="translate(800.388648768 21.2198791884)scale(0.996264009963)" xlink:href="#Nimbus_Sans_L_Regular-102"/>
     <use transform="translate(828.083818372 21.2198791884)scale(0.996264009963)" xlink:href="#Nimbus_Sans_L_Regular-102"/>
     <use transform="translate(852.792217782 21.2198791884)scale(0.996264009963)" xlink:href="#Nimbus_Sans_L_Regular-101"/>
     <use transform="translate(908.183894745 21.2198791884)scale(0.996264009963)" xlink:href="#Nimbus_Sans_L_Regular-99"/>
     <use transform="translate(957.997095243 21.2198791884)scale(0.996264009963)" xlink:href="#Nimbus_Sans_L_Regular-116"/>
     <use transform="translate(1013.38743445 21.2198791884)scale(0.996264009963)" xlink:href="#Nimbus_Sans_L_Regular-40"/>
     <use transform="translate(1046.56266418 21.2198791884)scale(0.996264009963)" xlink:href="#Nimbus_Sans_L_Regular-49"/>
     <use transform="translate(1101.95434114 21.2198791884)scale(0.996264009963)" xlink:href="#Nimbus_Sans_L_Regular-101"/>
     <use transform="translate(1157.34601811 21.2198791884)scale(0.996264009963)" xlink:href="#Nimbus_Sans_L_Regular-45"/>
     <use transform="translate(1190.52124784 21.2198791884)scale(0.996264009963)" xlink:href="#Nimbus_Sans_L_Regular-50"/>
     <use transform="translate(1245.9129248 21.2198791884)scale(0.996264009963)" xlink:href="#Nimbus_Sans_L_Regular-46"/>
     <use transform="translate(1273.6080944 21.2198791884)scale(0.996264009963)" xlink:href="#Nimbus_Sans_L_Regular-53"/>
     <use transform="translate(1356.69494097 21.2198791884)scale(0.996264009963)" xlink:href="#Nimbus_Sans_L_Regular-116"/>
     <use transform="translate(1384.39011057 21.2198791884)scale(0.996264009963)" xlink:href="#Nimbus_Sans_L_Regular-111"/>
     <use transform="translate(1467.47695714 21.2198791884)scale(0.996264009963)" xlink:href="#Nimbus_Sans_L_Regular-49"/>
     <use transform="translate(1522.8686341 21.2198791884)scale(0.996264009963)" xlink:href="#Nimbus_Sans_L_Regular-101"/>
     <use transform="translate(1578.26031106 21.2198791884)scale(0.996264009963)" xlink:href="#Nimbus_Sans_L_Regular-45"/>
     <use transform="translate(1611.43554079 21.2198791884)scale(0.996264009963)" xlink:href="#Nimbus_Sans_L_Regular-49"/>
     <use transform="translate(1666.82721776 21.2198791884)scale(0.996264009963)" xlink:href="#Nimbus_Sans_L_Regular-46"/>
     <use transform="translate(1694.52238736 21.2198791884)scale(0.996264009963)" xlink:href="#Nimbus_Sans_L_Regular-53"/>
     <use transform="translate(1749.91406432 21.2198791884)scale(0.996264009963)" xlink:href="#Nimbus_Sans_L_Regular-41"/>
    </g>
    <!-- size is rate of new epitopes (1e-3 to 1e-2) -->
    <defs>
     <path d="
M44.2969 52.3125
L5.20312 52.3125
L5.20312 45
L34.4062 45
L3.09375 7.51562
L3.09375 0
L45.7031 0
L45.7031 7.3125
L13.2031 7.3125
L44.2969 44.9062
z
" id="Nimbus_Sans_L_Regular-122"/>
     <path d="
M55.4062 0
L70.7969 52.5
L61.4062 52.5
L51 11.625
L40.7031 52.5
L30.5 52.5
L20.5 11.625
L9.79688 52.5
L0.59375 52.5
L15.7969 0
L25.2031 0
L35.2969 41.1719
L45.9062 0
z
" id="Nimbus_Sans_L_Regular-119"/>
     <path d="
M22.0938 33
L23.2031 33
L26.9062 33
C36.5938 33 41.5938 28.5938 41.5938 20.0625
C41.5938 11.125 36.0938 5.8125 26.9062 5.8125
C17.2969 5.8125 12.5938 10.6406 12 21.0156
L3.20312 21.0156
C3.59375 15.2812 4.59375 11.5625 6.29688 8.34375
C9.90625 1.51562 16.9062 -2 26.5938 -2
C41.2031 -2 50.5938 6.73438 50.5938 20.2031
C50.5938 29.25 47.0938 34.2812 38.5938 37.2031
C45.2031 39.7812 48.5 44.7188 48.5 51.7344
C48.5 63.7812 40.4062 71 26.9062 71
C12.5938 71 5 63.2812 4.70312 48.3594
L13.5 48.3594
C13.5938 52.5938 14 54.9531 15.0938 57.1094
C17.0938 60.9375 21.5 63.2969 27 63.2969
C34.7969 63.2969 39.5 58.75 39.5 51.3594
C39.5 46.4219 37.7031 43.4531 33.7969 41.8906
C31.4062 40.9062 28.2969 40.5 22.0938 40.5
z
" id="Nimbus_Sans_L_Regular-51"/>
    </defs>
    <g transform="translate(167.217752337 41.8007779178)scale(0.14 -0.14)">
     <use transform="translate(0.0 21.2198791884)scale(0.996264009963)" xlink:href="#Nimbus_Sans_L_Regular-115"/>
     <use transform="translate(49.8132004981 21.2198791884)scale(0.996264009963)" xlink:href="#Nimbus_Sans_L_Regular-105"/>
     <use transform="translate(71.9299848469 21.2198791884)scale(0.996264009963)" xlink:href="#Nimbus_Sans_L_Regular-122"/>
     <use transform="translate(120.249792648 21.2198791884)scale(0.996264009963)" xlink:href="#Nimbus_Sans_L_Regular-101"/>
     <use transform="translate(203.336639214 21.2198791884)scale(0.996264009963)" xlink:href="#Nimbus_Sans_L_Regular-105"/>
     <use transform="translate(225.453423563 21.2198791884)scale(0.996264009963)" xlink:href="#Nimbus_Sans_L_Regular-115"/>
     <use transform="translate(302.961793664 21.2198791884)scale(0.996264009963)" xlink:href="#Nimbus_Sans_L_Regular-114"/>
     <use transform="translate(335.140926603 21.2198791884)scale(0.996264009963)" xlink:href="#Nimbus_Sans_L_Regular-97"/>
     <use transform="translate(390.532603567 21.2198791884)scale(0.996264009963)" xlink:href="#Nimbus_Sans_L_Regular-116"/>
     <use transform="translate(418.22777317 21.2198791884)scale(0.996264009963)" xlink:href="#Nimbus_Sans_L_Regular-101"/>
     <use transform="translate(501.314619737 21.2198791884)scale(0.996264009963)" xlink:href="#Nimbus_Sans_L_Regular-111"/>
     <use transform="translate(556.7062967 21.2198791884)scale(0.996264009963)" xlink:href="#Nimbus_Sans_L_Regular-102"/>
     <use transform="translate(612.096635906 21.2198791884)scale(0.996264009963)" xlink:href="#Nimbus_Sans_L_Regular-110"/>
     <use transform="translate(667.48831287 21.2198791884)scale(0.996264009963)" xlink:href="#Nimbus_Sans_L_Regular-101"/>
     <use transform="translate(720.887978674 21.2198791884)scale(0.996264009963)" xlink:href="#Nimbus_Sans_L_Regular-119"/>
     <use transform="translate(820.513133124 21.2198791884)scale(0.996264009963)" xlink:href="#Nimbus_Sans_L_Regular-101"/>
     <use transform="translate(875.904810087 21.2198791884)scale(0.996264009963)" xlink:href="#Nimbus_Sans_L_Regular-112"/>
     <use transform="translate(931.296487051 21.2198791884)scale(0.996264009963)" xlink:href="#Nimbus_Sans_L_Regular-105"/>
     <use transform="translate(953.413271399 21.2198791884)scale(0.996264009963)" xlink:href="#Nimbus_Sans_L_Regular-116"/>
     <use transform="translate(981.108441002 21.2198791884)scale(0.996264009963)" xlink:href="#Nimbus_Sans_L_Regular-111"/>
     <use transform="translate(1036.50011797 21.2198791884)scale(0.996264009963)" xlink:href="#Nimbus_Sans_L_Regular-112"/>
     <use transform="translate(1091.89179493 21.2198791884)scale(0.996264009963)" xlink:href="#Nimbus_Sans_L_Regular-101"/>
     <use transform="translate(1147.28347189 21.2198791884)scale(0.996264009963)" xlink:href="#Nimbus_Sans_L_Regular-115"/>
     <use transform="translate(1224.79184199 21.2198791884)scale(0.996264009963)" xlink:href="#Nimbus_Sans_L_Regular-40"/>
     <use transform="translate(1257.96707172 21.2198791884)scale(0.996264009963)" xlink:href="#Nimbus_Sans_L_Regular-49"/>
     <use transform="translate(1313.35874869 21.2198791884)scale(0.996264009963)" xlink:href="#Nimbus_Sans_L_Regular-101"/>
     <use transform="translate(1368.75042565 21.2198791884)scale(0.996264009963)" xlink:href="#Nimbus_Sans_L_Regular-45"/>
     <use transform="translate(1401.92565538 21.2198791884)scale(0.996264009963)" xlink:href="#Nimbus_Sans_L_Regular-51"/>
     <use transform="translate(1485.01250195 21.2198791884)scale(0.996264009963)" xlink:href="#Nimbus_Sans_L_Regular-116"/>
     <use transform="translate(1512.70767155 21.2198791884)scale(0.996264009963)" xlink:href="#Nimbus_Sans_L_Regular-111"/>
     <use transform="translate(1595.79451812 21.2198791884)scale(0.996264009963)" xlink:href="#Nimbus_Sans_L_Regular-49"/>
     <use transform="translate(1651.18619508 21.2198791884)scale(0.996264009963)" xlink:href="#Nimbus_Sans_L_Regular-101"/>
     <use transform="translate(1706.57787204 21.2198791884)scale(0.996264009963)" xlink:href="#Nimbus_Sans_L_Regular-45"/>
     <use transform="translate(1739.75310177 21.2198791884)scale(0.996264009963)" xlink:href="#Nimbus_Sans_L_Regular-50"/>
     <use transform="translate(1795.14477874 21.2198791884)scale(0.996264009963)" xlink:href="#Nimbus_Sans_L_Regular-41"/>
    </g>
   </g>
  </g>
 </g>
 <defs>
  <clipPath id="pbcca78ee25">
   <rect height="350.64" width="446.4" x="72.0" y="43.83"/>
  </clipPath>
 </defs>
</svg>
