<?xml version="1.0" encoding="utf-8" standalone="no"?>
<!DOCTYPE svg PUBLIC "-//W3C//DTD SVG 1.1//EN"
  "http://www.w3.org/Graphics/SVG/1.1/DTD/svg11.dtd">
<!-- Created with matplotlib (http://matplotlib.org/) -->
<svg height="438pt" version="1.1" viewBox="0 0 576 438" width="576pt" xmlns="http://www.w3.org/2000/svg" xmlns:xlink="http://www.w3.org/1999/xlink">
 <defs>
  <style type="text/css">
*{stroke-linecap:square;stroke-linejoin:round;}
  </style>
 </defs>
 <g id="figure_1">
  <g id="patch_1">
   <path d="
M0 438.3
L576 438.3
L576 0
L0 0
z
" style="fill:#ffffff;"/>
  </g>
  <g id="axes_1">
   <g id="patch_2">
    <path d="
M72 394.47
L518.4 394.47
L518.4 43.83
L72 43.83
z
" style="fill:#ffffff;"/>
   </g>
   <g id="PathCollection_1">
    <defs>
     <path d="
M0 5.06482
C1.34321 5.06482 2.63158 4.53116 3.58137 3.58137
C4.53116 2.63158 5.06482 1.34321 5.06482 0
C5.06482 -1.34321 4.53116 -2.63158 3.58137 -3.58137
C2.63158 -4.53116 1.34321 -5.06482 0 -5.06482
C-1.34321 -5.06482 -2.63158 -4.53116 -3.58137 -3.58137
C-4.53116 -2.63158 -5.06482 -1.34321 -5.06482 0
C-5.06482 1.34321 -4.53116 2.63158 -3.58137 3.58137
C-2.63158 4.53116 -1.34321 5.06482 0 5.06482
z
" id="C0_0_9da6ce06a6"/>
     <path d="
M0 4.85123
C1.28656 4.85123 2.5206 4.34007 3.43034 3.43034
C4.34007 2.5206 4.85123 1.28656 4.85123 0
C4.85123 -1.28656 4.34007 -2.5206 3.43034 -3.43034
C2.5206 -4.34007 1.28656 -4.85123 0 -4.85123
C-1.28656 -4.85123 -2.5206 -4.34007 -3.43034 -3.43034
C-4.34007 -2.5206 -4.85123 -1.28656 -4.85123 0
C-4.85123 1.28656 -4.34007 2.5206 -3.43034 3.43034
C-2.5206 4.34007 -1.28656 4.85123 0 4.85123
z
" id="C0_1_e8302df301"/>
     <path d="
M0 4.6598
C1.23579 4.6598 2.42114 4.16881 3.29497 3.29497
C4.16881 2.42114 4.6598 1.23579 4.6598 0
C4.6598 -1.23579 4.16881 -2.42114 3.29497 -3.29497
C2.42114 -4.16881 1.23579 -4.6598 0 -4.6598
C-1.23579 -4.6598 -2.42114 -4.16881 -3.29497 -3.29497
C-4.16881 -2.42114 -4.6598 -1.23579 -4.6598 0
C-4.6598 1.23579 -4.16881 2.42114 -3.29497 3.29497
C-2.42114 4.16881 -1.23579 4.6598 0 4.6598
z
" id="C0_2_09810cbc7e"/>
     <path d="
M0 4.59989
C1.2199 4.59989 2.39001 4.11521 3.25261 3.25261
C4.11521 2.39001 4.59989 1.2199 4.59989 0
C4.59989 -1.2199 4.11521 -2.39001 3.25261 -3.25261
C2.39001 -4.11521 1.2199 -4.59989 0 -4.59989
C-1.2199 -4.59989 -2.39001 -4.11521 -3.25261 -3.25261
C-4.11521 -2.39001 -4.59989 -1.2199 -4.59989 0
C-4.59989 1.2199 -4.11521 2.39001 -3.25261 3.25261
C-2.39001 4.11521 -1.2199 4.59989 0 4.59989
z
" id="C0_3_47e1f48e1d"/>
     <path d="
M0 4.59989
C1.2199 4.59989 2.39001 4.11521 3.25261 3.25261
C4.11521 2.39001 4.59989 1.2199 4.59989 0
C4.59989 -1.2199 4.11521 -2.39001 3.25261 -3.25261
C2.39001 -4.11521 1.2199 -4.59989 0 -4.59989
C-1.2199 -4.59989 -2.39001 -4.11521 -3.25261 -3.25261
C-4.11521 -2.39001 -4.59989 -1.2199 -4.59989 0
C-4.59989 1.2199 -4.11521 2.39001 -3.25261 3.25261
C-2.39001 4.11521 -1.2199 4.59989 0 4.59989
z
" id="C0_4_47e1f48e1d"/>
     <path d="
M0 4.54171
C1.20447 4.54171 2.35978 4.06316 3.21147 3.21147
C4.06316 2.35978 4.54171 1.20447 4.54171 0
C4.54171 -1.20447 4.06316 -2.35978 3.21147 -3.21147
C2.35978 -4.06316 1.20447 -4.54171 0 -4.54171
C-1.20447 -4.54171 -2.35978 -4.06316 -3.21147 -3.21147
C-4.06316 -2.35978 -4.54171 -1.20447 -4.54171 0
C-4.54171 1.20447 -4.06316 2.35978 -3.21147 3.21147
C-2.35978 4.06316 -1.20447 4.54171 0 4.54171
z
" id="C0_5_15324f5f11"/>
     <path d="
M0 4.43002
C1.17485 4.43002 2.30175 3.96324 3.1325 3.1325
C3.96324 2.30175 4.43002 1.17485 4.43002 0
C4.43002 -1.17485 3.96324 -2.30175 3.1325 -3.1325
C2.30175 -3.96324 1.17485 -4.43002 0 -4.43002
C-1.17485 -4.43002 -2.30175 -3.96324 -3.1325 -3.1325
C-3.96324 -2.30175 -4.43002 -1.17485 -4.43002 0
C-4.43002 1.17485 -3.96324 2.30175 -3.1325 3.1325
C-2.30175 3.96324 -1.17485 4.43002 0 4.43002
z
" id="C0_6_178ee37c2f"/>
     <path d="
M0 4.37629
C1.16061 4.37629 2.27383 3.91518 3.0945 3.0945
C3.91518 2.27383 4.37629 1.16061 4.37629 0
C4.37629 -1.16061 3.91518 -2.27383 3.0945 -3.0945
C2.27383 -3.91518 1.16061 -4.37629 0 -4.37629
C-1.16061 -4.37629 -2.27383 -3.91518 -3.0945 -3.0945
C-3.91518 -2.27383 -4.37629 -1.16061 -4.37629 0
C-4.37629 1.16061 -3.91518 2.27383 -3.0945 3.0945
C-2.27383 3.91518 -1.16061 4.37629 0 4.37629
z
" id="C0_7_18c2846b3a"/>
     <path d="
M0 4.37629
C1.16061 4.37629 2.27383 3.91518 3.0945 3.0945
C3.91518 2.27383 4.37629 1.16061 4.37629 0
C4.37629 -1.16061 3.91518 -2.27383 3.0945 -3.0945
C2.27383 -3.91518 1.16061 -4.37629 0 -4.37629
C-1.16061 -4.37629 -2.27383 -3.91518 -3.0945 -3.0945
C-3.91518 -2.27383 -4.37629 -1.16061 -4.37629 0
C-4.37629 1.16061 -3.91518 2.27383 -3.0945 3.0945
C-2.27383 3.91518 -1.16061 4.37629 0 4.37629
z
" id="C0_8_18c2846b3a"/>
     <path d="
M0 4.22205
C1.1197 4.22205 2.19369 3.77719 2.98544 2.98544
C3.77719 2.19369 4.22205 1.1197 4.22205 0
C4.22205 -1.1197 3.77719 -2.19369 2.98544 -2.98544
C2.19369 -3.77719 1.1197 -4.22205 0 -4.22205
C-1.1197 -4.22205 -2.19369 -3.77719 -2.98544 -2.98544
C-3.77719 -2.19369 -4.22205 -1.1197 -4.22205 0
C-4.22205 1.1197 -3.77719 2.19369 -2.98544 2.98544
C-2.19369 3.77719 -1.1197 4.22205 0 4.22205
z
" id="C0_9_4e0fa5a96b"/>
     <path d="
M0 4.17295
C1.10668 4.17295 2.16818 3.73326 2.95072 2.95072
C3.73326 2.16818 4.17295 1.10668 4.17295 0
C4.17295 -1.10668 3.73326 -2.16818 2.95072 -2.95072
C2.16818 -3.73326 1.10668 -4.17295 0 -4.17295
C-1.10668 -4.17295 -2.16818 -3.73326 -2.95072 -2.95072
C-3.73326 -2.16818 -4.17295 -1.10668 -4.17295 0
C-4.17295 1.10668 -3.73326 2.16818 -2.95072 2.95072
C-2.16818 3.73326 -1.10668 4.17295 0 4.17295
z
" id="C0_a_06cbe166eb"/>
     <path d="
M0 4.07718
C1.08128 4.07718 2.11842 3.64759 2.883 2.883
C3.64759 2.11842 4.07718 1.08128 4.07718 0
C4.07718 -1.08128 3.64759 -2.11842 2.883 -2.883
C2.11842 -3.64759 1.08128 -4.07718 0 -4.07718
C-1.08128 -4.07718 -2.11842 -3.64759 -2.883 -2.883
C-3.64759 -2.11842 -4.07718 -1.08128 -4.07718 0
C-4.07718 1.08128 -3.64759 2.11842 -2.883 2.883
C-2.11842 3.64759 -1.08128 4.07718 0 4.07718
z
" id="C0_b_45c227fc1f"/>
     <path d="
M0 3.93956
C1.04478 3.93956 2.04692 3.52446 2.78569 2.78569
C3.52446 2.04692 3.93956 1.04478 3.93956 0
C3.93956 -1.04478 3.52446 -2.04692 2.78569 -2.78569
C2.04692 -3.52446 1.04478 -3.93956 0 -3.93956
C-1.04478 -3.93956 -2.04692 -3.52446 -2.78569 -2.78569
C-3.52446 -2.04692 -3.93956 -1.04478 -3.93956 0
C-3.93956 1.04478 -3.52446 2.04692 -2.78569 2.78569
C-2.04692 3.52446 -1.04478 3.93956 0 3.93956
z
" id="C0_c_7b9d05d0bb"/>
     <path d="
M0 3.80835
C1.00999 3.80835 1.97874 3.40708 2.69291 2.69291
C3.40708 1.97874 3.80835 1.00999 3.80835 0
C3.80835 -1.00999 3.40708 -1.97874 2.69291 -2.69291
C1.97874 -3.40708 1.00999 -3.80835 0 -3.80835
C-1.00999 -3.80835 -1.97874 -3.40708 -2.69291 -2.69291
C-3.40708 -1.97874 -3.80835 -1.00999 -3.80835 0
C-3.80835 1.00999 -3.40708 1.97874 -2.69291 2.69291
C-1.97874 3.40708 -1.00999 3.80835 0 3.80835
z
" id="C0_d_91f12a110c"/>
     <path d="
M0 3.76627
C0.998825 3.76627 1.95688 3.36943 2.66315 2.66315
C3.36943 1.95688 3.76627 0.998825 3.76627 0
C3.76627 -0.998825 3.36943 -1.95688 2.66315 -2.66315
C1.95688 -3.36943 0.998825 -3.76627 0 -3.76627
C-0.998825 -3.76627 -1.95688 -3.36943 -2.66315 -2.66315
C-3.36943 -1.95688 -3.76627 -0.998825 -3.76627 0
C-3.76627 0.998825 -3.36943 1.95688 -2.66315 2.66315
C-1.95688 3.36943 -0.998825 3.76627 0 3.76627
z
" id="C0_e_1b88ddd104"/>
     <path d="
M0 3.56129
C0.944465 3.56129 1.85037 3.18605 2.51821 2.51821
C3.18605 1.85037 3.56129 0.944465 3.56129 0
C3.56129 -0.944465 3.18605 -1.85037 2.51821 -2.51821
C1.85037 -3.18605 0.944465 -3.56129 0 -3.56129
C-0.944465 -3.56129 -1.85037 -3.18605 -2.51821 -2.51821
C-3.18605 -1.85037 -3.56129 -0.944465 -3.56129 0
C-3.56129 0.944465 -3.18605 1.85037 -2.51821 2.51821
C-1.85037 3.18605 -0.944465 3.56129 0 3.56129
z
" id="C0_f_85b16aac16"/>
     <path d="
M0 3.48293
C0.923684 3.48293 1.80966 3.11595 2.4628 2.4628
C3.11595 1.80966 3.48293 0.923684 3.48293 0
C3.48293 -0.923684 3.11595 -1.80966 2.4628 -2.4628
C1.80966 -3.11595 0.923684 -3.48293 0 -3.48293
C-0.923684 -3.48293 -1.80966 -3.11595 -2.4628 -2.4628
C-3.11595 -1.80966 -3.48293 -0.923684 -3.48293 0
C-3.48293 0.923684 -3.11595 1.80966 -2.4628 2.4628
C-1.80966 3.11595 -0.923684 3.48293 0 3.48293
z
" id="C0_10_c6d40848c7"/>
     <path d="
M0 3.44395
C0.913345 3.44395 1.7894 3.08107 2.43524 2.43524
C3.08107 1.7894 3.44395 0.913345 3.44395 0
C3.44395 -0.913345 3.08107 -1.7894 2.43524 -2.43524
C1.7894 -3.08107 0.913345 -3.44395 0 -3.44395
C-0.913345 -3.44395 -1.7894 -3.08107 -2.43524 -2.43524
C-3.08107 -1.7894 -3.44395 -0.913345 -3.44395 0
C-3.44395 0.913345 -3.08107 1.7894 -2.43524 2.43524
C-1.7894 3.08107 -0.913345 3.44395 0 3.44395
z
" id="C0_11_bde729119b"/>
     <path d="
M0 3.44395
C0.913345 3.44395 1.7894 3.08107 2.43524 2.43524
C3.08107 1.7894 3.44395 0.913345 3.44395 0
C3.44395 -0.913345 3.08107 -1.7894 2.43524 -2.43524
C1.7894 -3.08107 0.913345 -3.44395 0 -3.44395
C-0.913345 -3.44395 -1.7894 -3.08107 -2.43524 -2.43524
C-3.08107 -1.7894 -3.44395 -0.913345 -3.44395 0
C-3.44395 0.913345 -3.08107 1.7894 -2.43524 2.43524
C-1.7894 3.08107 -0.913345 3.44395 0 3.44395
z
" id="C0_12_bde729119b"/>
     <path d="
M0 3.32993
C0.883107 3.32993 1.73016 2.97906 2.35461 2.35461
C2.97906 1.73016 3.32993 0.883107 3.32993 0
C3.32993 -0.883107 2.97906 -1.73016 2.35461 -2.35461
C1.73016 -2.97906 0.883107 -3.32993 0 -3.32993
C-0.883107 -3.32993 -1.73016 -2.97906 -2.35461 -2.35461
C-2.97906 -1.73016 -3.32993 -0.883107 -3.32993 0
C-3.32993 0.883107 -2.97906 1.73016 -2.35461 2.35461
C-1.73016 2.97906 -0.883107 3.32993 0 3.32993
z
" id="C0_13_ceb36cd9ac"/>
     <path d="
M0 3.18188
C0.843844 3.18188 1.65324 2.84661 2.24993 2.24993
C2.84661 1.65324 3.18188 0.843844 3.18188 0
C3.18188 -0.843844 2.84661 -1.65324 2.24993 -2.24993
C1.65324 -2.84661 0.843844 -3.18188 0 -3.18188
C-0.843844 -3.18188 -1.65324 -2.84661 -2.24993 -2.24993
C-2.84661 -1.65324 -3.18188 -0.843844 -3.18188 0
C-3.18188 0.843844 -2.84661 1.65324 -2.24993 2.24993
C-1.65324 2.84661 -0.843844 3.18188 0 3.18188
z
" id="C0_14_01270e07b0"/>
     <path d="
M0 2.72131
C0.7217 2.72131 1.41394 2.43458 1.92426 1.92426
C2.43458 1.41394 2.72131 0.7217 2.72131 0
C2.72131 -0.7217 2.43458 -1.41394 1.92426 -1.92426
C1.41394 -2.43458 0.7217 -2.72131 0 -2.72131
C-0.7217 -2.72131 -1.41394 -2.43458 -1.92426 -1.92426
C-2.43458 -1.41394 -2.72131 -0.7217 -2.72131 0
C-2.72131 0.7217 -2.43458 1.41394 -1.92426 1.92426
C-1.41394 2.43458 -0.7217 2.72131 0 2.72131
z
" id="C0_15_5e57d2a341"/>
     <path d="
M0 2.65165
C0.703226 2.65165 1.37774 2.37226 1.875 1.875
C2.37226 1.37774 2.65165 0.703226 2.65165 0
C2.65165 -0.703226 2.37226 -1.37774 1.875 -1.875
C1.37774 -2.37226 0.703226 -2.65165 0 -2.65165
C-0.703226 -2.65165 -1.37774 -2.37226 -1.875 -1.875
C-2.37226 -1.37774 -2.65165 -0.703226 -2.65165 0
C-2.65165 0.703226 -2.37226 1.37774 -1.875 1.875
C-1.37774 2.37226 -0.703226 2.65165 0 2.65165
z
" id="C0_16_66b9e23020"/>
     <path d="
M0 2.61688
C0.694005 2.61688 1.35968 2.34115 1.85041 1.85041
C2.34115 1.35968 2.61688 0.694005 2.61688 0
C2.61688 -0.694005 2.34115 -1.35968 1.85041 -1.85041
C1.35968 -2.34115 0.694005 -2.61688 0 -2.61688
C-0.694005 -2.61688 -1.35968 -2.34115 -1.85041 -1.85041
C-2.34115 -1.35968 -2.61688 -0.694005 -2.61688 0
C-2.61688 0.694005 -2.34115 1.35968 -1.85041 1.85041
C-1.35968 2.34115 -0.694005 2.61688 0 2.61688
z
" id="C0_17_4bbac09b7b"/>
     <path d="
M0 2.27021
C0.602067 2.27021 1.17956 2.03101 1.60528 1.60528
C2.03101 1.17956 2.27021 0.602067 2.27021 0
C2.27021 -0.602067 2.03101 -1.17956 1.60528 -1.60528
C1.17956 -2.03101 0.602067 -2.27021 0 -2.27021
C-0.602067 -2.27021 -1.17956 -2.03101 -1.60528 -1.60528
C-2.03101 -1.17956 -2.27021 -0.602067 -2.27021 0
C-2.27021 0.602067 -2.03101 1.17956 -1.60528 1.60528
C-1.17956 2.03101 -0.602067 2.27021 0 2.27021
z
" id="C0_18_6f24aa9ad6"/>
     <path d="
M0 2.23497
C0.592722 2.23497 1.16125 1.99948 1.58036 1.58036
C1.99948 1.16125 2.23497 0.592722 2.23497 0
C2.23497 -0.592722 1.99948 -1.16125 1.58036 -1.58036
C1.16125 -1.99948 0.592722 -2.23497 0 -2.23497
C-0.592722 -2.23497 -1.16125 -1.99948 -1.58036 -1.58036
C-1.99948 -1.16125 -2.23497 -0.592722 -2.23497 0
C-2.23497 0.592722 -1.99948 1.16125 -1.58036 1.58036
C-1.16125 1.99948 -0.592722 2.23497 0 2.23497
z
" id="C0_19_d08bd04cca"/>
     <path d="
M0 2.09512
C0.555632 2.09512 1.08858 1.87436 1.48147 1.48147
C1.87436 1.08858 2.09512 0.555632 2.09512 0
C2.09512 -0.555632 1.87436 -1.08858 1.48147 -1.48147
C1.08858 -1.87436 0.555632 -2.09512 0 -2.09512
C-0.555632 -2.09512 -1.08858 -1.87436 -1.48147 -1.48147
C-1.87436 -1.08858 -2.09512 -0.555632 -2.09512 0
C-2.09512 0.555632 -1.87436 1.08858 -1.48147 1.48147
C-1.08858 1.87436 -0.555632 2.09512 0 2.09512
z
" id="C0_1a_33b0ff110e"/>
     <path d="
M0 2.09512
C0.555632 2.09512 1.08858 1.87436 1.48147 1.48147
C1.87436 1.08858 2.09512 0.555632 2.09512 0
C2.09512 -0.555632 1.87436 -1.08858 1.48147 -1.48147
C1.08858 -1.87436 0.555632 -2.09512 0 -2.09512
C-0.555632 -2.09512 -1.08858 -1.87436 -1.48147 -1.48147
C-1.87436 -1.08858 -2.09512 -0.555632 -2.09512 0
C-2.09512 0.555632 -1.87436 1.08858 -1.48147 1.48147
C-1.08858 1.87436 -0.555632 2.09512 0 2.09512
z
" id="C0_1b_33b0ff110e"/>
     <path d="
M0 1.9495
C0.517013 1.9495 1.01292 1.74409 1.3785 1.3785
C1.74409 1.01292 1.9495 0.517013 1.9495 0
C1.9495 -0.517013 1.74409 -1.01292 1.3785 -1.3785
C1.01292 -1.74409 0.517013 -1.9495 0 -1.9495
C-0.517013 -1.9495 -1.01292 -1.74409 -1.3785 -1.3785
C-1.74409 -1.01292 -1.9495 -0.517013 -1.9495 0
C-1.9495 0.517013 -1.74409 1.01292 -1.3785 1.3785
C-1.01292 1.74409 -0.517013 1.9495 0 1.9495
z
" id="C0_1c_ff77de0162"/>
     <path d="
M0 1.91242
C0.507181 1.91242 0.993657 1.71092 1.35229 1.35229
C1.71092 0.993657 1.91242 0.507181 1.91242 0
C1.91242 -0.507181 1.71092 -0.993657 1.35229 -1.35229
C0.993657 -1.71092 0.507181 -1.91242 0 -1.91242
C-0.507181 -1.91242 -0.993657 -1.71092 -1.35229 -1.35229
C-1.71092 -0.993657 -1.91242 -0.507181 -1.91242 0
C-1.91242 0.507181 -1.71092 0.993657 -1.35229 1.35229
C-0.993657 1.71092 -0.507181 1.91242 0 1.91242
z
" id="C0_1d_73d5ff6a8d"/>
     <path d="
M0 1.87503
C0.497265 1.87503 0.974229 1.67747 1.32585 1.32585
C1.67747 0.974229 1.87503 0.497265 1.87503 0
C1.87503 -0.497265 1.67747 -0.974229 1.32585 -1.32585
C0.974229 -1.67747 0.497265 -1.87503 0 -1.87503
C-0.497265 -1.87503 -0.974229 -1.67747 -1.32585 -1.32585
C-1.67747 -0.974229 -1.87503 -0.497265 -1.87503 0
C-1.87503 0.497265 -1.67747 0.974229 -1.32585 1.32585
C-0.974229 1.67747 -0.497265 1.87503 0 1.87503
z
" id="C0_1e_6b151c671d"/>
     <path d="
M0 1.83729
C0.487256 1.83729 0.954621 1.64371 1.29916 1.29916
C1.64371 0.954621 1.83729 0.487256 1.83729 0
C1.83729 -0.487256 1.64371 -0.954621 1.29916 -1.29916
C0.954621 -1.64371 0.487256 -1.83729 0 -1.83729
C-0.487256 -1.83729 -0.954621 -1.64371 -1.29916 -1.29916
C-1.64371 -0.954621 -1.83729 -0.487256 -1.83729 0
C-1.83729 0.487256 -1.64371 0.954621 -1.29916 1.29916
C-0.954621 1.64371 -0.487256 1.83729 0 1.83729
z
" id="C0_1f_59b553defe"/>
     <path d="
M0 1.79918
C0.477148 1.79918 0.934817 1.60961 1.27221 1.27221
C1.60961 0.934817 1.79918 0.477148 1.79918 0
C1.79918 -0.477148 1.60961 -0.934817 1.27221 -1.27221
C0.934817 -1.60961 0.477148 -1.79918 0 -1.79918
C-0.477148 -1.79918 -0.934817 -1.60961 -1.27221 -1.27221
C-1.60961 -0.934817 -1.79918 -0.477148 -1.79918 0
C-1.79918 0.477148 -1.60961 0.934817 -1.27221 1.27221
C-0.934817 1.60961 -0.477148 1.79918 0 1.79918
z
" id="C0_20_21801d2c40"/>
    </defs>
    <g clip-path="url(#pbcca78ee25)">
     <use style="fill:#fbf100;stroke:#fbf100;stroke-linecap:butt;" x="392.896969697" xlink:href="#C0_0_9da6ce06a6" y="89.4237297297"/>
    </g>
    <g clip-path="url(#pbcca78ee25)">
     <use style="fill:#0cf4eb;stroke:#0cf4eb;stroke-linecap:butt;" x="339.275348075" xlink:href="#C0_1_e8302df301" y="92.7230450452"/>
    </g>
    <g clip-path="url(#pbcca78ee25)">
     <use style="fill:#00009f;stroke:#00009f;stroke-linecap:butt;" x="364.867485668" xlink:href="#C0_2_09810cbc7e" y="99.1110810807"/>
    </g>
    <g clip-path="url(#pbcca78ee25)">
     <use style="fill:#0000d6;stroke:#0000d6;stroke-linecap:butt;" x="309.214742015" xlink:href="#C0_3_47e1f48e1d" y="81.3509369368"/>
    </g>
    <g clip-path="url(#pbcca78ee25)">
     <use style="fill:#a7ff50;stroke:#a7ff50;stroke-linecap:butt;" x="357.555446356" xlink:href="#C0_4_47e1f48e1d" y="79.3151891888"/>
    </g>
    <g clip-path="url(#pbcca78ee25)">
     <use style="fill:#0000df;stroke:#0000df;stroke-linecap:butt;" x="362.023914824" xlink:href="#C0_5_15324f5f11" y="100.971333333"/>
    </g>
    <g clip-path="url(#pbcca78ee25)">
     <use style="fill:#33ffc4;stroke:#33ffc4;stroke-linecap:butt;" x="356.742997543" xlink:href="#C0_6_178ee37c2f" y="77.314540541"/>
    </g>
    <g clip-path="url(#pbcca78ee25)">
     <use style="fill:#70ff87;stroke:#70ff87;stroke-linecap:butt;" x="352.274529075" xlink:href="#C0_7_18c2846b3a" y="79.3151891888"/>
    </g>
    <g clip-path="url(#pbcca78ee25)">
     <use style="fill:#00a0ff;stroke:#00a0ff;stroke-linecap:butt;" x="386.803603604" xlink:href="#C0_8_18c2846b3a" y="110.237495496"/>
    </g>
    <g clip-path="url(#pbcca78ee25)">
     <use style="fill:#0000bb;stroke:#0000bb;stroke-linecap:butt;" x="319.776576577" xlink:href="#C0_9_4e0fa5a96b" y="123.083765766"/>
    </g>
    <g clip-path="url(#pbcca78ee25)">
     <use style="fill:#0000ed;stroke:#0000ed;stroke-linecap:butt;" x="341.712694512" xlink:href="#C0_a_06cbe166eb" y="85.492630631"/>
    </g>
    <g clip-path="url(#pbcca78ee25)">
     <use style="fill:#ff6f00;stroke:#ff6f00;stroke-linecap:butt;" x="372.585749386" xlink:href="#C0_b_45c227fc1f" y="72.1549729727"/>
    </g>
    <g clip-path="url(#pbcca78ee25)">
     <use style="fill:#ff4a00;stroke:#ff4a00;stroke-linecap:butt;" x="385.991154791" xlink:href="#C0_c_7b9d05d0bb" y="223.46718919"/>
    </g>
    <g clip-path="url(#pbcca78ee25)">
     <use style="fill:#0018ff;stroke:#0018ff;stroke-linecap:butt;" x="323.838820639" xlink:href="#C0_d_91f12a110c" y="123.610252252"/>
    </g>
    <g clip-path="url(#pbcca78ee25)">
     <use style="fill:#00c4ff;stroke:#00c4ff;stroke-linecap:butt;" x="315.714332514" xlink:href="#C0_e_1b88ddd104" y="117.713603603"/>
    </g>
    <g clip-path="url(#pbcca78ee25)">
     <use style="fill:#30ffc7;stroke:#30ffc7;stroke-linecap:butt;" x="335.619328419" xlink:href="#C0_f_85b16aac16" y="136.351225225"/>
    </g>
    <g clip-path="url(#pbcca78ee25)">
     <use style="fill:#97ff60;stroke:#97ff60;stroke-linecap:butt;" x="356.336773137" xlink:href="#C0_10_c6d40848c7" y="70.1543243249"/>
    </g>
    <g clip-path="url(#pbcca78ee25)">
     <use style="fill:#b60000;stroke:#b60000;stroke-linecap:butt;" x="361.617690418" xlink:href="#C0_11_bde729119b" y="204.443477477"/>
    </g>
    <g clip-path="url(#pbcca78ee25)">
     <use style="fill:#00e4f8;stroke:#00e4f8;stroke-linecap:butt;" x="349.024733825" xlink:href="#C0_12_bde729119b" y="209.076558558"/>
    </g>
    <g clip-path="url(#pbcca78ee25)">
     <use style="fill:#0000ff;stroke:#0000ff;stroke-linecap:butt;" x="311.652088452" xlink:href="#C0_13_ceb36cd9ac" y="173.626468468"/>
    </g>
    <g clip-path="url(#pbcca78ee25)">
     <use style="fill:#ffc100;stroke:#ffc100;stroke-linecap:butt;" x="338.869123669" xlink:href="#C0_14_01270e07b0" y="127.716846847"/>
    </g>
    <g clip-path="url(#pbcca78ee25)">
     <use style="fill:#ff2500;stroke:#ff2500;stroke-linecap:butt;" x="381.928910729" xlink:href="#C0_15_5e57d2a341" y="112.273243244"/>
    </g>
    <g clip-path="url(#pbcca78ee25)">
     <use style="fill:#ff8600;stroke:#ff8600;stroke-linecap:butt;" x="384.772481572" xlink:href="#C0_16_66b9e23020" y="116.520234234"/>
    </g>
    <g clip-path="url(#pbcca78ee25)">
     <use style="fill:#ff5d00;stroke:#ff5d00;stroke-linecap:butt;" x="321.401474202" xlink:href="#C0_17_4bbac09b7b" y="115.010972973"/>
    </g>
    <g clip-path="url(#pbcca78ee25)">
     <use style="fill:#ff6f00;stroke:#ff6f00;stroke-linecap:butt;" x="351.055855856" xlink:href="#C0_18_6f24aa9ad6" y="229.469135135"/>
    </g>
    <g clip-path="url(#pbcca78ee25)">
     <use style="fill:#ff9800;stroke:#ff9800;stroke-linecap:butt;" x="377.866666667" xlink:href="#C0_19_d08bd04cca" y="142.598864865"/>
    </g>
    <g clip-path="url(#pbcca78ee25)">
     <use style="fill:#b20000;stroke:#b20000;stroke-linecap:butt;" x="354.305651106" xlink:href="#C0_1a_33b0ff110e" y="181.73436036"/>
    </g>
    <g clip-path="url(#pbcca78ee25)">
     <use style="fill:#00dcfe;stroke:#00dcfe;stroke-linecap:butt;" x="313.276986077" xlink:href="#C0_1b_33b0ff110e" y="181.453567568"/>
    </g>
    <g clip-path="url(#pbcca78ee25)">
     <use style="fill:#ff4e00;stroke:#ff4e00;stroke-linecap:butt;" x="346.181162981" xlink:href="#C0_1c_ff77de0162" y="167.378828829"/>
    </g>
    <g clip-path="url(#pbcca78ee25)">
     <use style="fill:#ff7a00;stroke:#ff7a00;stroke-linecap:butt;" x="363.648812449" xlink:href="#C0_1d_73d5ff6a8d" y="132.27972973"/>
    </g>
    <g clip-path="url(#pbcca78ee25)">
     <use style="fill:#ffe600;stroke:#ffe600;stroke-linecap:butt;" x="354.711875512" xlink:href="#C0_1e_6b151c671d" y="185.138972973"/>
    </g>
    <g clip-path="url(#pbcca78ee25)">
     <use style="fill:#8aff6d;stroke:#8aff6d;stroke-linecap:butt;" x="370.148402948" xlink:href="#C0_1f_59b553defe" y="142.212774775"/>
    </g>
    <g clip-path="url(#pbcca78ee25)">
     <use style="fill:#a40000;stroke:#a40000;stroke-linecap:butt;" x="371.367076167" xlink:href="#C0_20_21801d2c40" y="96.2329549551"/>
    </g>
   </g>
   <g id="patch_3">
    <path clip-path="url(#pbcca78ee25)" d="
M92.2909 359.406
L498.109 359.406
L498.109 67.206
L92.2909 67.206
z
" style="fill:none;stroke:#ff0000;stroke-width:1.5;"/>
   </g>
   <g id="matplotlib.axis_1">
    <g id="xtick_1">
     <g id="line2d_1">
      <defs>
       <path d="
M0 0
L0 -4" id="mcb557df647" style="stroke:#000000;stroke-linecap:butt;stroke-width:0.5;"/>
      </defs>
      <g>
       <use style="stroke:#000000;stroke-linecap:butt;stroke-width:0.5;" x="234.118277243" xlink:href="#mcb557df647" y="394.47"/>
      </g>
     </g>
     <g id="line2d_2">
      <defs>
       <path d="
M0 0
L0 4" id="mdad270ee8e" style="stroke:#000000;stroke-linecap:butt;stroke-width:0.5;"/>
      </defs>
      <g>
       <use style="stroke:#000000;stroke-linecap:butt;stroke-width:0.5;" x="234.118277243" xlink:href="#mdad270ee8e" y="43.83"/>
      </g>
     </g>
     <g id="text_1">
      <!-- $10^{-3}$ -->
      <defs>
       <path d="
M65.9062 23
C67.5938 23 69.4062 23 69.4062 25
C69.4062 27 67.5938 27 65.9062 27
L11.7969 27
C10.0938 27 8.29688 27 8.29688 25
C8.29688 23 10.0938 23 11.7969 23
z
" id="CMSY10-0"/>
       <path d="
M22.0938 33.7031
C31 33.7031 34.9062 25.9688 34.9062 17.0312
C34.9062 5 28.5 0.390625 22.7031 0.390625
C17.4062 0.390625 8.79688 3.03125 6.09375 10.8281
C6.59375 10.625 7.09375 10.625 7.59375 10.625
C10 10.625 11.7969 12.2188 11.7969 14.8125
C11.7969 17.7031 9.59375 19 7.59375 19
C5.90625 19 3.29688 18.2031 3.29688 14.4688
C3.29688 5.23438 12.2969 -2 22.9062 -2
C34 -2 42.5 6.71875 42.5 16.9531
C42.5 26.6719 34.5 33.6875 25 34.7969
C32.5938 36.375 39.9062 43.0625 39.9062 52.0156
C39.9062 59.6875 32 65.2969 23 65.2969
C13.9062 65.2969 5.90625 59.8281 5.90625 52.0156
C5.90625 48.5938 8.5 48 9.79688 48
C11.9062 48 13.7031 49.2969 13.7031 51.8906
C13.7031 54.4688 11.9062 55.7656 9.79688 55.7656
C9.40625 55.7656 8.90625 55.7656 8.5 55.5625
C11.4062 61.8594 19.2969 63 22.7969 63
C26.2969 63 32.9062 61.3281 32.9062 51.875
C32.9062 49.1094 32.5 44.1875 29.0938 39.8438
C26.0938 36 22.7031 36 19.4062 35.5938
C18.9062 35.5938 16.5938 35.5938 16.2031 35.5938
C15.5 35.4844 15.0938 35.3906 15.0938 34.5938
C15.0938 33.8125 15.2031 33.7031 17.2031 33.7031
z
" id="CMR17-51"/>
       <path d="
M26.5938 63.3125
C26.5938 65.4062 26.5 65.5 25.0938 65.5
C21.2031 61.1875 15.2969 59.7969 9.70312 59.7969
C9.40625 59.7969 8.90625 59.7969 8.79688 59.5
C8.70312 59.2969 8.70312 59.0938 8.70312 57
C11.7969 57 17 57.5938 21 59.9844
L21 7.20312
C21 3.6875 20.7969 2.5 12.2031 2.5
L9.20312 2.5
L9.20312 0
C14 0 19 0 23.7969 0
C28.5938 0 33.5938 0 38.4062 0
L38.4062 2.5
L35.4062 2.5
C26.7969 2.5 26.5938 3.59375 26.5938 7.15625
z
" id="CMR17-49"/>
       <path d="
M42 31.6406
C42 37.75 41.9062 48.125 37.7031 56.1094
C34 63.1094 28.0938 65.5938 22.9062 65.5938
C18.0938 65.5938 12 63.4062 8.20312 56.2031
C4.20312 48.7188 3.79688 39.4375 3.79688 31.6406
C3.79688 25.9531 3.90625 17.2812 7 9.67188
C11.2969 -0.609375 19 -2 22.9062 -2
C27.5 -2 34.5 -0.109375 38.5938 9.375
C41.5938 16.2812 42 24.3594 42 31.6406
M22.9062 -0.40625
C16.5 -0.40625 12.7031 5.07812 11.2969 12.6875
C10.2031 18.5625 10.2031 27.1562 10.2031 32.75
C10.2031 40.4375 10.2031 46.8281 11.5 52.9219
C13.4062 61.3906 19 64 22.9062 64
C27 64 32.2969 61.2969 34.2031 53.125
C35.5 47.4375 35.5938 40.7344 35.5938 32.75
C35.5938 26.25 35.5938 18.2656 34.4062 12.375
C32.2969 1.48438 26.4062 -0.40625 22.9062 -0.40625" id="CMR17-48"/>
      </defs>
      <g transform="translate(216.141857944 414.689192068)scale(0.2 -0.2)">
       <use transform="scale(0.996264009963)" xlink:href="#CMR17-49"/>
       <use transform="translate(45.6904771171 0.0)scale(0.996264009963)" xlink:href="#CMR17-48"/>
       <use transform="translate(91.3809542341 36.1536389419)scale(0.697381766617)" xlink:href="#CMSY10-0"/>
       <use transform="translate(145.621947482 36.1536389419)scale(0.697381766617)" xlink:href="#CMR17-51"/>
      </g>
     </g>
    </g>
    <g id="xtick_2">
     <g id="line2d_3">
      <g>
       <use style="stroke:#000000;stroke-linecap:butt;stroke-width:0.5;" x="437.027368153" xlink:href="#mcb557df647" y="394.47"/>
      </g>
     </g>
     <g id="line2d_4">
      <g>
       <use style="stroke:#000000;stroke-linecap:butt;stroke-width:0.5;" x="437.027368153" xlink:href="#mdad270ee8e" y="43.83"/>
      </g>
     </g>
     <g id="text_2">
      <!-- $10^{-2}$ -->
      <defs>
       <path d="
M41.7031 15.4531
L39.9062 15.4531
C38.9062 8.375 38.0938 7.17188 37.7031 6.5625
C37.2031 5.76562 30 5.76562 28.5938 5.76562
L9.40625 5.76562
C13 9.67188 20 16.75 28.5 24.9531
C34.5938 30.7344 41.7031 37.5312 41.7031 47.4219
C41.7031 59.2188 32.2969 66 21.7969 66
C10.7969 66 4.09375 56.3125 4.09375 47.3438
C4.09375 43.4375 7 42.9375 8.20312 42.9375
C9.20312 42.9375 12.2031 43.5469 12.2031 47.0312
C12.2031 50.1094 9.59375 51 8.20312 51
C7.59375 51 7 50.9062 6.59375 50.7031
C8.5 59.2188 14.2969 63.4062 20.4062 63.4062
C29.0938 63.4062 34.7969 56.5156 34.7969 47.4219
C34.7969 38.7344 29.7031 31.25 24 24.75
L4.09375 2.28125
L4.09375 0
L39.2969 0
z
" id="CMR17-50"/>
      </defs>
      <g transform="translate(419.050948853 414.689192068)scale(0.2 -0.2)">
       <use transform="scale(0.996264009963)" xlink:href="#CMR17-49"/>
       <use transform="translate(45.6904771171 0.0)scale(0.996264009963)" xlink:href="#CMR17-48"/>
       <use transform="translate(91.3809542341 36.1536389419)scale(0.697381766617)" xlink:href="#CMSY10-0"/>
       <use transform="translate(145.621947482 36.1536389419)scale(0.697381766617)" xlink:href="#CMR17-50"/>
      </g>
     </g>
    </g>
    <g id="xtick_3">
     <g id="line2d_5">
      <defs>
       <path d="
M0 0
L0 -2" id="m6f8f3139b3" style="stroke:#000000;stroke-linecap:butt;stroke-width:0.5;"/>
      </defs>
      <g>
       <use style="stroke:#000000;stroke-linecap:butt;stroke-width:0.5;" x="92.2909090909" xlink:href="#m6f8f3139b3" y="394.47"/>
      </g>
     </g>
     <g id="line2d_6">
      <defs>
       <path d="
M0 0
L0 2" id="md27378e979" style="stroke:#000000;stroke-linecap:butt;stroke-width:0.5;"/>
      </defs>
      <g>
       <use style="stroke:#000000;stroke-linecap:butt;stroke-width:0.5;" x="92.2909090909" xlink:href="#md27378e979" y="43.83"/>
      </g>
     </g>
    </g>
    <g id="xtick_4">
     <g id="line2d_7">
      <g>
       <use style="stroke:#000000;stroke-linecap:butt;stroke-width:0.5;" x="128.021426383" xlink:href="#m6f8f3139b3" y="394.47"/>
      </g>
     </g>
     <g id="line2d_8">
      <g>
       <use style="stroke:#000000;stroke-linecap:butt;stroke-width:0.5;" x="128.021426383" xlink:href="#md27378e979" y="43.83"/>
      </g>
     </g>
    </g>
    <g id="xtick_5">
     <g id="line2d_9">
      <g>
       <use style="stroke:#000000;stroke-linecap:butt;stroke-width:0.5;" x="153.372631847" xlink:href="#m6f8f3139b3" y="394.47"/>
      </g>
     </g>
     <g id="line2d_10">
      <g>
       <use style="stroke:#000000;stroke-linecap:butt;stroke-width:0.5;" x="153.372631847" xlink:href="#md27378e979" y="43.83"/>
      </g>
     </g>
    </g>
    <g id="xtick_6">
     <g id="line2d_11">
      <g>
       <use style="stroke:#000000;stroke-linecap:butt;stroke-width:0.5;" x="173.036554487" xlink:href="#m6f8f3139b3" y="394.47"/>
      </g>
     </g>
     <g id="line2d_12">
      <g>
       <use style="stroke:#000000;stroke-linecap:butt;stroke-width:0.5;" x="173.036554487" xlink:href="#md27378e979" y="43.83"/>
      </g>
     </g>
    </g>
    <g id="xtick_7">
     <g id="line2d_13">
      <g>
       <use style="stroke:#000000;stroke-linecap:butt;stroke-width:0.5;" x="189.103149139" xlink:href="#m6f8f3139b3" y="394.47"/>
      </g>
     </g>
     <g id="line2d_14">
      <g>
       <use style="stroke:#000000;stroke-linecap:butt;stroke-width:0.5;" x="189.103149139" xlink:href="#md27378e979" y="43.83"/>
      </g>
     </g>
    </g>
    <g id="xtick_8">
     <g id="line2d_15">
      <g>
       <use style="stroke:#000000;stroke-linecap:butt;stroke-width:0.5;" x="202.687261363" xlink:href="#m6f8f3139b3" y="394.47"/>
      </g>
     </g>
     <g id="line2d_16">
      <g>
       <use style="stroke:#000000;stroke-linecap:butt;stroke-width:0.5;" x="202.687261363" xlink:href="#md27378e979" y="43.83"/>
      </g>
     </g>
    </g>
    <g id="xtick_9">
     <g id="line2d_17">
      <g>
       <use style="stroke:#000000;stroke-linecap:butt;stroke-width:0.5;" x="214.454354604" xlink:href="#m6f8f3139b3" y="394.47"/>
      </g>
     </g>
     <g id="line2d_18">
      <g>
       <use style="stroke:#000000;stroke-linecap:butt;stroke-width:0.5;" x="214.454354604" xlink:href="#md27378e979" y="43.83"/>
      </g>
     </g>
    </g>
    <g id="xtick_10">
     <g id="line2d_19">
      <g>
       <use style="stroke:#000000;stroke-linecap:butt;stroke-width:0.5;" x="224.833666432" xlink:href="#m6f8f3139b3" y="394.47"/>
      </g>
     </g>
     <g id="line2d_20">
      <g>
       <use style="stroke:#000000;stroke-linecap:butt;stroke-width:0.5;" x="224.833666432" xlink:href="#md27378e979" y="43.83"/>
      </g>
     </g>
    </g>
    <g id="xtick_11">
     <g id="line2d_21">
      <g>
       <use style="stroke:#000000;stroke-linecap:butt;stroke-width:0.5;" x="295.2" xlink:href="#m6f8f3139b3" y="394.47"/>
      </g>
     </g>
     <g id="line2d_22">
      <g>
       <use style="stroke:#000000;stroke-linecap:butt;stroke-width:0.5;" x="295.2" xlink:href="#md27378e979" y="43.83"/>
      </g>
     </g>
    </g>
    <g id="xtick_12">
     <g id="line2d_23">
      <g>
       <use style="stroke:#000000;stroke-linecap:butt;stroke-width:0.5;" x="330.930517292" xlink:href="#m6f8f3139b3" y="394.47"/>
      </g>
     </g>
     <g id="line2d_24">
      <g>
       <use style="stroke:#000000;stroke-linecap:butt;stroke-width:0.5;" x="330.930517292" xlink:href="#md27378e979" y="43.83"/>
      </g>
     </g>
    </g>
    <g id="xtick_13">
     <g id="line2d_25">
      <g>
       <use style="stroke:#000000;stroke-linecap:butt;stroke-width:0.5;" x="356.281722757" xlink:href="#m6f8f3139b3" y="394.47"/>
      </g>
     </g>
     <g id="line2d_26">
      <g>
       <use style="stroke:#000000;stroke-linecap:butt;stroke-width:0.5;" x="356.281722757" xlink:href="#md27378e979" y="43.83"/>
      </g>
     </g>
    </g>
    <g id="xtick_14">
     <g id="line2d_27">
      <g>
       <use style="stroke:#000000;stroke-linecap:butt;stroke-width:0.5;" x="375.945645396" xlink:href="#m6f8f3139b3" y="394.47"/>
      </g>
     </g>
     <g id="line2d_28">
      <g>
       <use style="stroke:#000000;stroke-linecap:butt;stroke-width:0.5;" x="375.945645396" xlink:href="#md27378e979" y="43.83"/>
      </g>
     </g>
    </g>
    <g id="xtick_15">
     <g id="line2d_29">
      <g>
       <use style="stroke:#000000;stroke-linecap:butt;stroke-width:0.5;" x="392.012240049" xlink:href="#m6f8f3139b3" y="394.47"/>
      </g>
     </g>
     <g id="line2d_30">
      <g>
       <use style="stroke:#000000;stroke-linecap:butt;stroke-width:0.5;" x="392.012240049" xlink:href="#md27378e979" y="43.83"/>
      </g>
     </g>
    </g>
    <g id="xtick_16">
     <g id="line2d_31">
      <g>
       <use style="stroke:#000000;stroke-linecap:butt;stroke-width:0.5;" x="405.596352272" xlink:href="#m6f8f3139b3" y="394.47"/>
      </g>
     </g>
     <g id="line2d_32">
      <g>
       <use style="stroke:#000000;stroke-linecap:butt;stroke-width:0.5;" x="405.596352272" xlink:href="#md27378e979" y="43.83"/>
      </g>
     </g>
    </g>
    <g id="xtick_17">
     <g id="line2d_33">
      <g>
       <use style="stroke:#000000;stroke-linecap:butt;stroke-width:0.5;" x="417.363445513" xlink:href="#m6f8f3139b3" y="394.47"/>
      </g>
     </g>
     <g id="line2d_34">
      <g>
       <use style="stroke:#000000;stroke-linecap:butt;stroke-width:0.5;" x="417.363445513" xlink:href="#md27378e979" y="43.83"/>
      </g>
     </g>
    </g>
    <g id="xtick_18">
     <g id="line2d_35">
      <g>
       <use style="stroke:#000000;stroke-linecap:butt;stroke-width:0.5;" x="427.742757341" xlink:href="#m6f8f3139b3" y="394.47"/>
      </g>
     </g>
     <g id="line2d_36">
      <g>
       <use style="stroke:#000000;stroke-linecap:butt;stroke-width:0.5;" x="427.742757341" xlink:href="#md27378e979" y="43.83"/>
      </g>
     </g>
    </g>
    <g id="xtick_19">
     <g id="line2d_37">
      <g>
       <use style="stroke:#000000;stroke-linecap:butt;stroke-width:0.5;" x="498.109090909" xlink:href="#m6f8f3139b3" y="394.47"/>
      </g>
     </g>
     <g id="line2d_38">
      <g>
       <use style="stroke:#000000;stroke-linecap:butt;stroke-width:0.5;" x="498.109090909" xlink:href="#md27378e979" y="43.83"/>
      </g>
     </g>
    </g>
    <g id="text_3">
     <!-- deleterious effect -->
     <defs>
      <path d="
M51.2969 24
C51.2969 31.875 50.7031 36.5938 49.2031 40.4219
C45.7969 48.875 37.7969 54 28 54
C13.4062 54 4 42.8438 4 25.7031
C4 8.54688 13.0938 -2 27.7969 -2
C39.7969 -2 48.0938 4.875 50.2031 16.375
L41.7969 16.375
C39.5 9.35938 34.7969 5.70312 28.0938 5.70312
C22.7969 5.70312 18.2969 8.14062 15.5 12.6094
C13.5 15.6562 12.7969 18.7188 12.7031 24
z

M12.9062 30.8125
C13.5938 40.1875 19.5 46.2812 27.9062 46.2812
C36.0938 46.2812 42.4062 39.7031 42.4062 31.4062
C42.4062 31.2031 42.4062 31.0156 42.2969 30.8125
z
" id="Nimbus_Sans_L_Regular-101"/>
      <path d="
M25.7969 52
L17.0938 52
L17.0938 60.25
C17.0938 63.7812 19.0938 65.5938 22.9062 65.5938
C23.5938 65.5938 23.9062 65.5938 25.7969 65.5938
L25.7969 72.5
C23.9062 72.9062 22.7969 73 21.0938 73
C13.4062 73 8.79688 68.5625 8.79688 60.9844
L8.79688 52
L1.79688 52
L1.79688 45.1875
L8.79688 45.1875
L8.79688 -0.40625
L17.0938 -0.40625
L17.0938 45.1875
L25.7969 45.1875
z
" id="Nimbus_Sans_L_Regular-102"/>
      <path d="
M48.2031 0.515625
L48.2031 53
L39.9062 53
L39.9062 23.1094
C39.9062 12.3438 34.2969 5.3125 25.5938 5.3125
C19 5.3125 14.7969 9.32812 14.7969 15.6719
L14.7969 53
L6.5 53
L6.5 12.375
C6.5 3.625 13 -2 23.2031 -2
C30.9062 -2 35.7969 0.703125 40.7031 7.625
L40.7031 0.515625
z
" id="Nimbus_Sans_L_Regular-117"/>
      <path d="
M15.2031 73
L6.79688 73
L6.79688 -0.03125
L15.2031 -0.03125
z
" id="Nimbus_Sans_L_Regular-108"/>
      <path d="
M47.0938 34.9375
C46.7031 40.0312 45.5938 43.3281 43.5938 46.2188
C40 51.1094 33.7031 54 26.4062 54
C12.2969 54 3.09375 42.8438 3.09375 25.5
C3.09375 8.65625 12.0938 -2 26.2969 -2
C38.7969 -2 46.7031 5.46875 47.7031 18.2344
L39.2969 18.2344
C37.9062 9.875 33.5938 5.70312 26.5 5.70312
C17.2969 5.70312 11.7969 13.1719 11.7969 25.5
C11.7969 38.5312 17.2031 46.2812 26.2969 46.2812
C33.2969 46.2812 37.7031 42.2031 38.7031 34.9375
z
" id="Nimbus_Sans_L_Regular-99"/>
      <path d="
M15 52.4844
L6.70312 52.4844
L6.70312 0
L15 0
z

M15 73
L6.59375 73
L6.59375 62.4844
L15 62.4844
z
" id="Nimbus_Sans_L_Regular-105"/>
      <path d="
M27.2031 54
C12.5 54 3.59375 43.5312 3.59375 26
C3.59375 8.45312 12.4062 -2 27.2969 -2
C42 -2 51 8.45312 51 25.5938
C51 43.6406 42.2969 54 27.2031 54
M27.2969 46.2812
C36.7031 46.2812 42.2969 38.625 42.2969 25.7031
C42.2969 13.4531 36.5 5.70312 27.2969 5.70312
C18 5.70312 12.2969 13.3594 12.2969 26
C12.2969 38.5312 18 46.2812 27.2969 46.2812" id="Nimbus_Sans_L_Regular-111"/>
      <path d="
M25.4062 52.8125
L16.7969 52.8125
L16.7969 67
L8.5 67
L8.5 52.8125
L1.40625 52.8125
L1.40625 46
L8.5 46
L8.5 6.3125
C8.5 1 12.0938 -2 18.5938 -2
C20.5938 -2 22.5938 -1.8125 25.4062 -1.29688
L25.4062 5.71875
C24.2969 5.40625 23 5.3125 21.4062 5.3125
C17.7969 5.3125 16.7969 6.3125 16.7969 10.0156
L16.7969 46
L25.4062 46
z
" id="Nimbus_Sans_L_Regular-116"/>
      <path d="
M49.5 73
L41.2031 73
L41.2031 45.8906
C37.7031 51.1875 32.0938 54 25.0938 54
C11.5 54 2.59375 43.1406 2.59375 26.4844
C2.59375 8.84375 11.2969 -2 25.4062 -2
C32.5938 -2 37.5938 0.703125 42.0938 7.20312
L42.0938 -0.03125
L49.5 -0.03125
z

M26.5 46.1875
C35.5 46.1875 41.2031 38.2344 41.2031 25.7969
C41.2031 13.7656 35.4062 5.8125 26.5938 5.8125
C17.4062 5.8125 11.2969 13.8594 11.2969 26
C11.2969 38.125 17.4062 46.1875 26.5 46.1875" id="Nimbus_Sans_L_Regular-100"/>
      <path d="
M6.90625 52.4844
L6.90625 0
L15.2969 0
L15.2969 27.25
C15.2969 34.7656 17.2031 39.6719 21.2031 42.5781
C23.7969 44.4844 26.2969 45.0781 32.0938 45.0781
L32.0938 53.7031
C30.7031 53.8906 30 54 28.9062 54
C23.5 54 19.4062 50.7812 14.5938 42.9688
L14.5938 52.4844
z
" id="Nimbus_Sans_L_Regular-114"/>
      <path d="
M43.7969 37.9219
C43.7031 48.2031 36.9062 54 24.7969 54
C12.5938 54 4.70312 47.7188 4.70312 38.0625
C4.70312 29.8906 8.90625 26.0156 21.2969 23.0312
L29.0938 21.1406
C34.9062 19.7344 37.2031 17.6562 37.2031 13.875
C37.2031 9 32.2969 5.70312 25 5.70312
C20.5 5.70312 16.7031 7 14.5938 9.1875
C13.2969 10.6875 12.7031 12.1719 12.2031 15.8438
L3.40625 15.8438
C3.79688 3.76562 10.5938 -2 24.2969 -2
C37.5 -2 45.9062 4.45312 45.9062 14.5156
C45.9062 22.2812 41.5 26.5781 31.0938 29.0625
L23.0938 30.9531
C16.2969 32.5312 13.4062 34.7344 13.4062 38.4062
C13.4062 43.1875 17.7031 46.2812 24.5 46.2812
C31.2031 46.2812 34.7969 43.3906 35 37.9219
z
" id="Nimbus_Sans_L_Regular-115"/>
     </defs>
     <g transform="translate(219.48493856 433.938708998)scale(0.2 -0.2)">
      <use transform="translate(0.0 1.79267018699)scale(0.996264009963)" xlink:href="#Nimbus_Sans_L_Regular-100"/>
      <use transform="translate(55.3916769633 1.79267018699)scale(0.996264009963)" xlink:href="#Nimbus_Sans_L_Regular-101"/>
      <use transform="translate(110.783353927 1.79267018699)scale(0.996264009963)" xlink:href="#Nimbus_Sans_L_Regular-108"/>
      <use transform="translate(132.900138275 1.79267018699)scale(0.996264009963)" xlink:href="#Nimbus_Sans_L_Regular-101"/>
      <use transform="translate(188.291815239 1.79267018699)scale(0.996264009963)" xlink:href="#Nimbus_Sans_L_Regular-116"/>
      <use transform="translate(215.986984842 1.79267018699)scale(0.996264009963)" xlink:href="#Nimbus_Sans_L_Regular-101"/>
      <use transform="translate(271.378661805 1.79267018699)scale(0.996264009963)" xlink:href="#Nimbus_Sans_L_Regular-114"/>
      <use transform="translate(306.04726903 1.79267018699)scale(0.996264009963)" xlink:href="#Nimbus_Sans_L_Regular-105"/>
      <use transform="translate(328.164053379 1.79267018699)scale(0.996264009963)" xlink:href="#Nimbus_Sans_L_Regular-111"/>
      <use transform="translate(383.555730342 1.79267018699)scale(0.996264009963)" xlink:href="#Nimbus_Sans_L_Regular-117"/>
      <use transform="translate(438.947407306 1.79267018699)scale(0.996264009963)" xlink:href="#Nimbus_Sans_L_Regular-115"/>
      <use transform="translate(516.455777407 1.79267018699)scale(0.996264009963)" xlink:href="#Nimbus_Sans_L_Regular-101"/>
      <use transform="translate(571.84745437 1.79267018699)scale(0.996264009963)" xlink:href="#Nimbus_Sans_L_Regular-102"/>
      <use transform="translate(599.542623974 1.79267018699)scale(0.996264009963)" xlink:href="#Nimbus_Sans_L_Regular-102"/>
      <use transform="translate(624.251023384 1.79267018699)scale(0.996264009963)" xlink:href="#Nimbus_Sans_L_Regular-101"/>
      <use transform="translate(679.642700347 1.79267018699)scale(0.996264009963)" xlink:href="#Nimbus_Sans_L_Regular-99"/>
      <use transform="translate(729.455900845 1.79267018699)scale(0.996264009963)" xlink:href="#Nimbus_Sans_L_Regular-116"/>
     </g>
    </g>
   </g>
   <g id="matplotlib.axis_2">
    <g id="ytick_1">
     <g id="line2d_39">
      <defs>
       <path d="
M0 0
L4 0" id="mc8fcea1516" style="stroke:#000000;stroke-linecap:butt;stroke-width:0.5;"/>
      </defs>
      <g>
       <use style="stroke:#000000;stroke-linecap:butt;stroke-width:0.5;" x="72.0" xlink:href="#mc8fcea1516" y="359.406"/>
      </g>
     </g>
     <g id="line2d_40">
      <defs>
       <path d="
M0 0
L-4 0" id="m0d5b0a6425" style="stroke:#000000;stroke-linecap:butt;stroke-width:0.5;"/>
      </defs>
      <g>
       <use style="stroke:#000000;stroke-linecap:butt;stroke-width:0.5;" x="518.4" xlink:href="#m0d5b0a6425" y="359.406"/>
      </g>
     </g>
     <g id="text_4">
      <!-- $0.75$ -->
      <defs>
       <path d="
M11.4062 57.6875
C12.4062 57.2812 16.5 56 20.7031 56
C30 56 35.0938 61.0156 38 63.9219
C38 64.7344 38 65.25 37.4062 65.25
C37.2969 65.25 37.0938 65.25 36.2969 64.8281
C32.7969 63.3125 28.7031 62.0781 23.7031 62.0781
C20.7031 62.0781 16.2031 62.5 11.2969 64.7344
C10.2031 65.25 10 65.25 9.90625 65.25
C9.40625 65.25 9.29688 65.1406 9.29688 63.1562
L9.29688 34.2812
C9.29688 32.5 9.29688 32 10.2969 32
C10.7969 32 11 32.2031 11.5 32.9062
C14.7031 37.4844 19.0938 39.4062 24.0938 39.4062
C27.5938 39.4062 35.0938 37.2188 35.0938 20.1406
C35.0938 16.9531 35.0938 11.1719 32.0938 6.57812
C29.5938 2.48438 25.7031 0.390625 21.4062 0.390625
C14.7969 0.390625 8.09375 5 6.29688 12.7188
C6.70312 12.6094 7.5 12.4219 7.90625 12.4219
C9.20312 12.4219 11.7031 13.125 11.7031 16.2188
C11.7031 18.9062 9.79688 20 7.90625 20
C5.59375 20 4.09375 18.5938 4.09375 15.7969
C4.09375 7.09375 11 -2 21.5938 -2
C31.9062 -2 41.7031 6.875 41.7031 19.75
C41.7031 31.7188 33.9062 41 24.2031 41
C19.0938 41 14.7969 39.0938 11.4062 35.4531
z
" id="CMR17-53"/>
       <path d="
M45.0938 61.5781
L45.0938 63.7656
L21.5938 63.7656
C9.90625 63.7656 9.70312 65.0781 9.29688 67
L7.5 67
L4.59375 48.3438
L6.40625 48.3438
C6.70312 50.2344 7.40625 55.3125 8.59375 57.2031
C9.20312 58 16.5938 58 18.2969 58
L40.2969 58
L29.2031 41.5781
C21.7969 30.5312 16.7031 15.6094 16.7031 2.57812
C16.7031 1.39062 16.7031 -2 20.2969 -2
C23.9062 -2 23.9062 1.39062 23.9062 2.67188
L23.9062 7.26562
C23.9062 23.5625 26.7031 34.3125 31.2969 41.1875
z
" id="CMR17-55"/>
       <path d="
M18.4062 4.79688
C18.4062 7.6875 16 9.67188 13.5938 9.67188
C10.7031 9.67188 8.70312 7.28125 8.70312 4.89062
C8.70312 2 11.0938 0 13.5 0
C16.4062 0 18.4062 2.39062 18.4062 4.79688" id="CMMI12-58"/>
      </defs>
      <g transform="translate(35.1662783118 365.82803097)scale(0.2 -0.2)">
       <use transform="scale(0.996264009963)" xlink:href="#CMR17-48"/>
       <use transform="translate(45.6904771171 0.0)scale(0.996264009963)" xlink:href="#CMMI12-58"/>
       <use transform="translate(72.7876542069 0.0)scale(0.996264009963)" xlink:href="#CMR17-55"/>
       <use transform="translate(118.478131324 0.0)scale(0.996264009963)" xlink:href="#CMR17-53"/>
      </g>
     </g>
    </g>
    <g id="ytick_2">
     <g id="line2d_41">
      <g>
       <use style="stroke:#000000;stroke-linecap:butt;stroke-width:0.5;" x="72.0" xlink:href="#mc8fcea1516" y="300.966"/>
      </g>
     </g>
     <g id="line2d_42">
      <g>
       <use style="stroke:#000000;stroke-linecap:butt;stroke-width:0.5;" x="518.4" xlink:href="#m0d5b0a6425" y="300.966"/>
      </g>
     </g>
     <g id="text_5">
      <!-- $0.80$ -->
      <defs>
       <path d="
M27.2031 35.375
C33.5 38.5625 39.9062 43.3281 39.9062 50.9844
C39.9062 60.0312 31.0938 65.2969 23 65.2969
C13.9062 65.2969 5.90625 58.7344 5.90625 49.6875
C5.90625 47.2031 6.5 42.9219 10.4062 39.1406
C11.4062 38.1562 15.5938 35.1719 18.2969 33.2812
C13.7969 30.9844 3.29688 25.5312 3.29688 14.5938
C3.29688 4.35938 13.0938 -2 22.7969 -2
C33.5 -2 42.5 5.65625 42.5 15.7969
C42.5 24.8438 36.4062 29.0312 32.4062 31.7031
z

M14.0938 44.125
C13.2969 44.625 9.29688 47.7031 9.29688 52.375
C9.29688 58.4375 15.5938 63 22.7969 63
C30.7031 63 36.5 57.4531 36.5 50.9844
C36.5 41.7344 26.0938 36.4688 25.5938 36.4688
C25.5 36.4688 25.4062 36.4688 24.5938 37.0781
z

M32.5 23.7344
C34 22.6406 38.7969 19.375 38.7969 13.2969
C38.7969 5.95312 31.4062 0.390625 23 0.390625
C13.9062 0.390625 7 6.84375 7 14.6875
C7 22.5469 13.0938 29.0938 20 32.1875
z
" id="CMR17-56"/>
      </defs>
      <g transform="translate(35.1662783118 307.38803097)scale(0.2 -0.2)">
       <use transform="scale(0.996264009963)" xlink:href="#CMR17-48"/>
       <use transform="translate(45.6904771171 0.0)scale(0.996264009963)" xlink:href="#CMMI12-58"/>
       <use transform="translate(72.7876542069 0.0)scale(0.996264009963)" xlink:href="#CMR17-56"/>
       <use transform="translate(118.478131324 0.0)scale(0.996264009963)" xlink:href="#CMR17-48"/>
      </g>
     </g>
    </g>
    <g id="ytick_3">
     <g id="line2d_43">
      <g>
       <use style="stroke:#000000;stroke-linecap:butt;stroke-width:0.5;" x="72.0" xlink:href="#mc8fcea1516" y="242.526"/>
      </g>
     </g>
     <g id="line2d_44">
      <g>
       <use style="stroke:#000000;stroke-linecap:butt;stroke-width:0.5;" x="518.4" xlink:href="#m0d5b0a6425" y="242.526"/>
      </g>
     </g>
     <g id="text_6">
      <!-- $0.85$ -->
      <g transform="translate(35.1662783118 248.94803097)scale(0.2 -0.2)">
       <use transform="scale(0.996264009963)" xlink:href="#CMR17-48"/>
       <use transform="translate(45.6904771171 0.0)scale(0.996264009963)" xlink:href="#CMMI12-58"/>
       <use transform="translate(72.7876542069 0.0)scale(0.996264009963)" xlink:href="#CMR17-56"/>
       <use transform="translate(118.478131324 0.0)scale(0.996264009963)" xlink:href="#CMR17-53"/>
      </g>
     </g>
    </g>
    <g id="ytick_4">
     <g id="line2d_45">
      <g>
       <use style="stroke:#000000;stroke-linecap:butt;stroke-width:0.5;" x="72.0" xlink:href="#mc8fcea1516" y="184.086"/>
      </g>
     </g>
     <g id="line2d_46">
      <g>
       <use style="stroke:#000000;stroke-linecap:butt;stroke-width:0.5;" x="518.4" xlink:href="#m0d5b0a6425" y="184.086"/>
      </g>
     </g>
     <g id="text_7">
      <!-- $0.90$ -->
      <defs>
       <path d="
M35.2031 29.125
C35.2031 7.25 26.0938 0.484375 18.5938 0.484375
C16.2969 0.484375 10.7031 0.484375 8.40625 4.59375
C11 4.1875 12.9062 5.57812 12.9062 8.09375
C12.9062 10.8125 10.7031 11.7031 9.29688 11.7031
C8.40625 11.7031 5.70312 11.2969 5.70312 7.90625
C5.70312 1.10938 11.5938 -2 18.7969 -2
C30.2969 -2 42 10.5312 42 32.3906
C42 59.6406 30.7969 65.2969 23.2031 65.2969
C13.2969 65.2969 3.79688 56.6875 3.79688 43.4062
C3.79688 31.1094 11.9062 22 22.0938 22
C30.5 22 34.2031 29.7344 35.2031 33
z

M22.2969 23.5938
C19.5938 23.5938 15.7969 24.0938 12.7031 30.0312
C10.5938 33.8906 10.5938 38.4531 10.5938 43.2969
C10.5938 49.1562 10.5938 53.2031 13.4062 57.5625
C14.7969 59.6406 17.4062 63 23.2031 63
C35 63 35 45.0781 35 41.125
C35 34.0938 31.7969 23.5938 22.2969 23.5938" id="CMR17-57"/>
      </defs>
      <g transform="translate(35.1662783118 190.50803097)scale(0.2 -0.2)">
       <use transform="scale(0.996264009963)" xlink:href="#CMR17-48"/>
       <use transform="translate(45.6904771171 0.0)scale(0.996264009963)" xlink:href="#CMMI12-58"/>
       <use transform="translate(72.7876542069 0.0)scale(0.996264009963)" xlink:href="#CMR17-57"/>
       <use transform="translate(118.478131324 0.0)scale(0.996264009963)" xlink:href="#CMR17-48"/>
      </g>
     </g>
    </g>
    <g id="ytick_5">
     <g id="line2d_47">
      <g>
       <use style="stroke:#000000;stroke-linecap:butt;stroke-width:0.5;" x="72.0" xlink:href="#mc8fcea1516" y="125.646"/>
      </g>
     </g>
     <g id="line2d_48">
      <g>
       <use style="stroke:#000000;stroke-linecap:butt;stroke-width:0.5;" x="518.4" xlink:href="#m0d5b0a6425" y="125.646"/>
      </g>
     </g>
     <g id="text_8">
      <!-- $0.95$ -->
      <g transform="translate(35.1662783118 132.06803097)scale(0.2 -0.2)">
       <use transform="scale(0.996264009963)" xlink:href="#CMR17-48"/>
       <use transform="translate(45.6904771171 0.0)scale(0.996264009963)" xlink:href="#CMMI12-58"/>
       <use transform="translate(72.7876542069 0.0)scale(0.996264009963)" xlink:href="#CMR17-57"/>
       <use transform="translate(118.478131324 0.0)scale(0.996264009963)" xlink:href="#CMR17-53"/>
      </g>
     </g>
    </g>
    <g id="ytick_6">
     <g id="line2d_49">
      <g>
       <use style="stroke:#000000;stroke-linecap:butt;stroke-width:0.5;" x="72.0" xlink:href="#mc8fcea1516" y="67.206"/>
      </g>
     </g>
     <g id="line2d_50">
      <g>
       <use style="stroke:#000000;stroke-linecap:butt;stroke-width:0.5;" x="518.4" xlink:href="#m0d5b0a6425" y="67.206"/>
      </g>
     </g>
     <g id="text_9">
      <!-- $1.00$ -->
      <g transform="translate(35.1662783118 73.6280309703)scale(0.2 -0.2)">
       <use transform="scale(0.996264009963)" xlink:href="#CMR17-49"/>
       <use transform="translate(45.6904771171 0.0)scale(0.996264009963)" xlink:href="#CMMI12-58"/>
       <use transform="translate(72.7876542069 0.0)scale(0.996264009963)" xlink:href="#CMR17-48"/>
       <use transform="translate(118.478131324 0.0)scale(0.996264009963)" xlink:href="#CMR17-48"/>
      </g>
     </g>
    </g>
    <g id="text_10">
     <!-- deleterious fraction -->
     <defs>
      <path d="
M7 52.4844
L7 0
L15.4062 0
L15.4062 28.9531
C15.4062 39.6719 21 46.6875 29.5938 46.6875
C36.2031 46.6875 40.4062 42.6719 40.4062 36.3594
L40.4062 0
L48.7031 0
L48.7031 39.6719
C48.7031 48.3906 42.2031 54 32.0938 54
C24.2969 54 19.2969 50.9844 14.7031 43.6875
L14.7031 52.4844
z
" id="Nimbus_Sans_L_Regular-110"/>
      <path d="
M53.5 5.20312
C52.5938 5 52.2031 5 51.7031 5
C48.7969 5 47.2031 6.48438 47.2031 9.07812
L47.2031 39.7656
C47.2031 49.0156 40.4062 54 27.5 54
C19.9062 54 13.5938 51.8125 10.0938 47.9062
C7.70312 45.2031 6.70312 42.2188 6.5 37.0312
L14.9062 37.0312
C15.5938 43.3906 19.4062 46.2812 27.2031 46.2812
C34.7031 46.2812 38.9062 43.4844 38.9062 38.5156
L38.9062 36.3281
C38.9062 32.8281 36.7969 31.3438 30.2031 30.5469
C18.4062 29.0625 16.5938 28.6562 13.4062 27.3594
C7.29688 24.875 4.20312 20.1875 4.20312 13.4219
C4.20312 3.96875 10.7969 -2 21.4062 -2
C28 -2 33.2969 0.296875 39.2031 5.70312
C39.7969 0.390625 42.4062 -2 47.7969 -2
C49.5 -2 50.7969 -1.8125 53.5 -1.09375
z

M38.9062 16.75
C38.9062 13.9531 38.0938 12.2656 35.5938 9.98438
C32.2031 6.89062 28.0938 5.3125 23.2031 5.3125
C16.7031 5.3125 12.9062 8.39062 12.9062 13.6562
C12.9062 19.1406 16.5938 21.9219 25.5 23.2188
C34.2969 24.4062 36.0938 24.8125 38.9062 26.0938
z
" id="Nimbus_Sans_L_Regular-97"/>
     </defs>
     <g transform="translate(27.36 303.362979403)rotate(-90.0)scale(0.2 -0.2)">
      <use transform="translate(0.0 1.79267018699)scale(0.996264009963)" xlink:href="#Nimbus_Sans_L_Regular-100"/>
      <use transform="translate(55.3916769633 1.79267018699)scale(0.996264009963)" xlink:href="#Nimbus_Sans_L_Regular-101"/>
      <use transform="translate(110.783353927 1.79267018699)scale(0.996264009963)" xlink:href="#Nimbus_Sans_L_Regular-108"/>
      <use transform="translate(132.900138275 1.79267018699)scale(0.996264009963)" xlink:href="#Nimbus_Sans_L_Regular-101"/>
      <use transform="translate(188.291815239 1.79267018699)scale(0.996264009963)" xlink:href="#Nimbus_Sans_L_Regular-116"/>
      <use transform="translate(215.986984842 1.79267018699)scale(0.996264009963)" xlink:href="#Nimbus_Sans_L_Regular-101"/>
      <use transform="translate(271.378661805 1.79267018699)scale(0.996264009963)" xlink:href="#Nimbus_Sans_L_Regular-114"/>
      <use transform="translate(306.04726903 1.79267018699)scale(0.996264009963)" xlink:href="#Nimbus_Sans_L_Regular-105"/>
      <use transform="translate(328.164053379 1.79267018699)scale(0.996264009963)" xlink:href="#Nimbus_Sans_L_Regular-111"/>
      <use transform="translate(383.555730342 1.79267018699)scale(0.996264009963)" xlink:href="#Nimbus_Sans_L_Regular-117"/>
      <use transform="translate(438.947407306 1.79267018699)scale(0.996264009963)" xlink:href="#Nimbus_Sans_L_Regular-115"/>
      <use transform="translate(516.455777407 1.79267018699)scale(0.996264009963)" xlink:href="#Nimbus_Sans_L_Regular-102"/>
      <use transform="translate(544.15094701 1.79267018699)scale(0.996264009963)" xlink:href="#Nimbus_Sans_L_Regular-114"/>
      <use transform="translate(576.330079949 1.79267018699)scale(0.996264009963)" xlink:href="#Nimbus_Sans_L_Regular-97"/>
      <use transform="translate(631.721756913 1.79267018699)scale(0.996264009963)" xlink:href="#Nimbus_Sans_L_Regular-99"/>
      <use transform="translate(681.534957411 1.79267018699)scale(0.996264009963)" xlink:href="#Nimbus_Sans_L_Regular-116"/>
      <use transform="translate(709.230127014 1.79267018699)scale(0.996264009963)" xlink:href="#Nimbus_Sans_L_Regular-105"/>
      <use transform="translate(731.346911363 1.79267018699)scale(0.996264009963)" xlink:href="#Nimbus_Sans_L_Regular-111"/>
      <use transform="translate(786.738588326 1.79267018699)scale(0.996264009963)" xlink:href="#Nimbus_Sans_L_Regular-110"/>
     </g>
    </g>
   </g>
   <g id="patch_4">
    <path d="
M72 43.83
L518.4 43.83" style="fill:none;stroke:#000000;"/>
   </g>
   <g id="patch_5">
    <path d="
M518.4 394.47
L518.4 43.83" style="fill:none;stroke:#000000;"/>
   </g>
   <g id="patch_6">
    <path d="
M72 394.47
L518.4 394.47" style="fill:none;stroke:#000000;"/>
   </g>
   <g id="patch_7">
    <path d="
M72 394.47
L72 43.83" style="fill:none;stroke:#000000;"/>
   </g>
   <g id="text_11">
    <!-- flat prior -->
    <defs>
     <path d="
M5.40625 -22
L13.7969 -22
L13.7969 5
C18.2031 -0.421875 23.0938 -2.8125 29.9062 -2.8125
C43.4062 -2.8125 52.2969 8.15625 52.2969 24.9844
C52.2969 42.7188 43.7031 53.8125 29.7969 53.8125
C22.7031 53.8125 17 50.5938 13.0938 44.3906
L13.0938 52.3281
L5.40625 52.3281
z

M28.4062 46
C37.5938 46 43.5938 37.8125 43.5938 25.1875
C43.5938 13.1719 37.5 5 28.4062 5
C19.5938 5 13.7969 13.0781 13.7969 25.4844
C13.7969 37.9219 19.5938 46 28.4062 46" id="Nimbus_Sans_L_Regular-112"/>
     <path d="
M25.7031 52.8125
L17 52.8125
L17 60.5781
C17 63.8906 19 65.5938 22.7969 65.5938
C23.5 65.5938 23.7969 65.5938 25.7031 65.5938
L25.7031 72.7969
C23.7969 72.9688 22.7031 73 21 73
C13.2969 73 8.70312 68.7344 8.70312 61.4531
L8.70312 52.8125
L1.70312 52.8125
L1.70312 46
L8.70312 46
L8.70312 -0.03125
L17 -0.03125
L17 46
L25.7031 46
z

M43 73
L34.7031 73
L34.7031 -0.03125
L43 -0.03125
z
" id="Nimbus_Sans_L_Regular-3"/>
    </defs>
    <g style="fill:#ff0000;" transform="translate(447.381818182 380.333181278)scale(0.16 -0.16)">
     <use transform="translate(0.0 21.2198791884)scale(0.996264009963)" xlink:href="#Nimbus_Sans_L_Regular-3"/>
     <use transform="translate(49.8132004981 21.2198791884)scale(0.996264009963)" xlink:href="#Nimbus_Sans_L_Regular-97"/>
     <use transform="translate(105.204877461 21.2198791884)scale(0.996264009963)" xlink:href="#Nimbus_Sans_L_Regular-116"/>
     <use transform="translate(160.595216668 21.2198791884)scale(0.996264009963)" xlink:href="#Nimbus_Sans_L_Regular-112"/>
     <use transform="translate(215.986893631 21.2198791884)scale(0.996264009963)" xlink:href="#Nimbus_Sans_L_Regular-114"/>
     <use transform="translate(250.655500856 21.2198791884)scale(0.996264009963)" xlink:href="#Nimbus_Sans_L_Regular-105"/>
     <use transform="translate(272.772285205 21.2198791884)scale(0.996264009963)" xlink:href="#Nimbus_Sans_L_Regular-111"/>
     <use transform="translate(328.163962168 21.2198791884)scale(0.996264009963)" xlink:href="#Nimbus_Sans_L_Regular-114"/>
    </g>
   </g>
  </g>
  <g id="text_12">
   <!-- D -->
   <defs>
    <path d="
M8.90625 0
L37 0
C55.4062 0 66.7031 13.8281 66.7031 36.5469
C66.7031 59.1719 55.5 73 37 73
L8.90625 73
z

M18.2031 8.21875
L18.2031 64.7812
L35.4062 64.7812
C49.7969 64.7812 57.4062 55.0625 57.4062 36.4531
C57.4062 18.0312 49.7969 8.21875 35.4062 8.21875
z
" id="Nimbus_Sans_L_Regular-68"/>
   </defs>
   <g transform="translate(11.52 21.915)scale(0.24 -0.24)">
    <use transform="scale(0.996264009963)" xlink:href="#Nimbus_Sans_L_Regular-68"/>
   </g>
  </g>
 </g>
 <defs>
  <clipPath id="pbcca78ee25">
   <rect height="350.64" width="446.4" x="72.0" y="43.83"/>
  </clipPath>
 </defs>
</svg>
