<?xml version="1.0" encoding="utf-8" standalone="no"?>
<!DOCTYPE svg PUBLIC "-//W3C//DTD SVG 1.1//EN"
  "http://www.w3.org/Graphics/SVG/1.1/DTD/svg11.dtd">
<!-- Created with matplotlib (http://matplotlib.org/) -->
<svg height="432pt" version="1.1" viewBox="0 0 576 432" width="576pt" xmlns="http://www.w3.org/2000/svg" xmlns:xlink="http://www.w3.org/1999/xlink">
 <defs>
  <style type="text/css">
*{stroke-linecap:butt;stroke-linejoin:round;}
  </style>
 </defs>
 <g id="figure_1">
  <g id="patch_1">
   <path d="
M0 432
L576 432
L576 0
L0 0
z
" style="fill:#ffffff;"/>
  </g>
  <g id="axes_1">
   <g id="patch_2">
    <path d="
M66.9037 369.471
L563.04 369.471
L563.04 12.96
L66.9037 12.96
z
" style="fill:#ffffff;"/>
   </g>
   <g id="PathCollection_1">
    <defs>
     <path d="
M0 6.12372
C1.62403 6.12372 3.18176 5.47849 4.33013 4.33013
C5.47849 3.18176 6.12372 1.62403 6.12372 0
C6.12372 -1.62403 5.47849 -3.18176 4.33013 -4.33013
C3.18176 -5.47849 1.62403 -6.12372 0 -6.12372
C-1.62403 -6.12372 -3.18176 -5.47849 -4.33013 -4.33013
C-5.47849 -3.18176 -6.12372 -1.62403 -6.12372 0
C-6.12372 1.62403 -5.47849 3.18176 -4.33013 4.33013
C-3.18176 5.47849 -1.62403 6.12372 0 6.12372
z
" id="C0_0_b6e9a3c12a"/>
    </defs>
    <g clip-path="url(#p7835bb7aad)">
     <use style="fill:none;stroke:#0000ff;stroke-width:2.0;" x="224.765232515" xlink:href="#C0_0_b6e9a3c12a" y="354.616043153"/>
    </g>
   </g>
   <g id="PathCollection_2">
    <defs>
     <path d="
M-6.12372 6.12372
L6.12372 6.12372
L6.12372 -6.12372
L-6.12372 -6.12372
z
" id="C1_0_8bb0782b14"/>
    </defs>
    <g clip-path="url(#p7835bb7aad)">
     <use style="fill:none;stroke:#008000;stroke-width:2.0;" x="224.765232515" xlink:href="#C1_0_8bb0782b14" y="307.903431292"/>
    </g>
   </g>
   <g id="PathCollection_3">
    <defs>
     <path d="
M0 -6.12372
L-6.12372 6.12372
L6.12372 6.12372
z
" id="C2_0_b84ed1ab27"/>
    </defs>
    <g clip-path="url(#p7835bb7aad)">
     <use style="fill:none;stroke:#ff0000;stroke-width:2.0;" x="224.765232515" xlink:href="#C2_0_b84ed1ab27" y="275.126488254"/>
    </g>
   </g>
   <g id="patch_3">
    <path clip-path="url(#p7835bb7aad)" d="
M75.9243 158.535
L310.462 158.535
L310.462 15.9309
L75.9243 15.9309
z
" style="fill:none;stroke:#000000;stroke-width:1.2;"/>
   </g>
   <g id="patch_4">
    <path clip-path="url(#p7835bb7aad)" d="
M75.9243 265.488
L220.255 265.488
L220.255 161.506
L75.9243 161.506
z
" style="fill:none;stroke:#000000;stroke-width:1.2;"/>
   </g>
   <g id="patch_5">
    <path clip-path="url(#p7835bb7aad)" d="
M314.972 336.791
L303.696 301.139
L313.393 311.835
L313.393 235.779
L316.55 235.779
L316.55 311.835
L326.248 301.139
z
" style="stroke:#000000;"/>
   </g>
   <g id="line2d_1">
    <path clip-path="url(#p7835bb7aad)" d="
M89.4553 354.616
L157.11 354.616
L224.765 354.616
L314.972 354.616
L427.73 354.616" style="fill:none;stroke:#0000ff;stroke-linecap:square;stroke-width:2;"/>
   </g>
   <g id="line2d_2">
    <path clip-path="url(#p7835bb7aad)" d="
M89.4553 354.616
L157.11 330.962
L224.765 307.903
L314.972 258.158
L427.73 211.783" style="fill:none;stroke:#008000;stroke-linecap:square;stroke-width:2;"/>
   </g>
   <g id="line2d_3">
    <path clip-path="url(#p7835bb7aad)" d="
M89.4553 354.616
L157.11 316.479
L224.765 275.126
L314.972 209.101
L427.73 148.47" style="fill:none;stroke:#ff0000;stroke-linecap:square;stroke-width:2;"/>
   </g>
   <g id="line2d_4">
    <path clip-path="url(#p7835bb7aad)" d="
M89.4553 354.616
L540.488 57.5238" style="fill:none;stroke:#000000;stroke-dasharray:6.000000,6.000000;stroke-dashoffset:0.0;stroke-width:1.5;"/>
   </g>
   <g id="matplotlib.axis_1">
    <g id="xtick_1">
     <g id="line2d_5">
      <defs>
       <path d="
M0 0
L0 -4" id="m93b0483c22" style="stroke:#000000;stroke-width:0.5;"/>
      </defs>
      <g>
       <use style="stroke:#000000;stroke-width:0.5;" x="89.4553255216" xlink:href="#m93b0483c22" y="369.470653725"/>
      </g>
     </g>
     <g id="line2d_6">
      <defs>
       <path d="
M0 0
L0 4" id="m741efc42ff" style="stroke:#000000;stroke-width:0.5;"/>
      </defs>
      <g>
       <use style="stroke:#000000;stroke-width:0.5;" x="89.4553255216" xlink:href="#m741efc42ff" y="12.96"/>
      </g>
     </g>
     <g id="text_1">
      <!-- $0.0$ -->
      <defs>
       <path d="
M42 31.6406
C42 37.75 41.9062 48.125 37.7031 56.1094
C34 63.1094 28.0938 65.5938 22.9062 65.5938
C18.0938 65.5938 12 63.4062 8.20312 56.2031
C4.20312 48.7188 3.79688 39.4375 3.79688 31.6406
C3.79688 25.9531 3.90625 17.2812 7 9.67188
C11.2969 -0.609375 19 -2 22.9062 -2
C27.5 -2 34.5 -0.109375 38.5938 9.375
C41.5938 16.2812 42 24.3594 42 31.6406
M22.9062 -0.40625
C16.5 -0.40625 12.7031 5.07812 11.2969 12.6875
C10.2031 18.5625 10.2031 27.1562 10.2031 32.75
C10.2031 40.4375 10.2031 46.8281 11.5 52.9219
C13.4062 61.3906 19 64 22.9062 64
C27 64 32.2969 61.2969 34.2031 53.125
C35.5 47.4375 35.5938 40.7344 35.5938 32.75
C35.5938 26.25 35.5938 18.2656 34.4062 12.375
C32.2969 1.48438 26.4062 -0.40625 22.9062 -0.40625" id="CMR17-48"/>
       <path d="
M18.4062 4.79688
C18.4062 7.6875 16 9.67188 13.5938 9.67188
C10.7031 9.67188 8.70312 7.28125 8.70312 4.89062
C8.70312 2 11.0938 0 13.5 0
C16.4062 0 18.4062 2.39062 18.4062 4.79688" id="CMMI12-58"/>
      </defs>
      <g transform="translate(77.6075123892 387.667294253)scale(0.2 -0.2)">
       <use transform="scale(0.996264009963)" xlink:href="#CMR17-48"/>
       <use transform="translate(45.6904771171 0.0)scale(0.996264009963)" xlink:href="#CMMI12-58"/>
       <use transform="translate(72.7876542069 0.0)scale(0.996264009963)" xlink:href="#CMR17-48"/>
      </g>
     </g>
    </g>
    <g id="xtick_2">
     <g id="line2d_7">
      <g>
       <use style="stroke:#000000;stroke-width:0.5;" x="179.661930184" xlink:href="#m93b0483c22" y="369.470653725"/>
      </g>
     </g>
     <g id="line2d_8">
      <g>
       <use style="stroke:#000000;stroke-width:0.5;" x="179.661930184" xlink:href="#m741efc42ff" y="12.96"/>
      </g>
     </g>
     <g id="text_2">
      <!-- $0.2$ -->
      <defs>
       <path d="
M41.7031 15.4531
L39.9062 15.4531
C38.9062 8.375 38.0938 7.17188 37.7031 6.5625
C37.2031 5.76562 30 5.76562 28.5938 5.76562
L9.40625 5.76562
C13 9.67188 20 16.75 28.5 24.9531
C34.5938 30.7344 41.7031 37.5312 41.7031 47.4219
C41.7031 59.2188 32.2969 66 21.7969 66
C10.7969 66 4.09375 56.3125 4.09375 47.3438
C4.09375 43.4375 7 42.9375 8.20312 42.9375
C9.20312 42.9375 12.2031 43.5469 12.2031 47.0312
C12.2031 50.1094 9.59375 51 8.20312 51
C7.59375 51 7 50.9062 6.59375 50.7031
C8.5 59.2188 14.2969 63.4062 20.4062 63.4062
C29.0938 63.4062 34.7969 56.5156 34.7969 47.4219
C34.7969 38.7344 29.7031 31.25 24 24.75
L4.09375 2.28125
L4.09375 0
L39.2969 0
z
" id="CMR17-50"/>
      </defs>
      <g transform="translate(167.814117052 387.667294253)scale(0.2 -0.2)">
       <use transform="scale(0.996264009963)" xlink:href="#CMR17-48"/>
       <use transform="translate(45.6904771171 0.0)scale(0.996264009963)" xlink:href="#CMMI12-58"/>
       <use transform="translate(72.7876542069 0.0)scale(0.996264009963)" xlink:href="#CMR17-50"/>
      </g>
     </g>
    </g>
    <g id="xtick_3">
     <g id="line2d_9">
      <g>
       <use style="stroke:#000000;stroke-width:0.5;" x="269.868534847" xlink:href="#m93b0483c22" y="369.470653725"/>
      </g>
     </g>
     <g id="line2d_10">
      <g>
       <use style="stroke:#000000;stroke-width:0.5;" x="269.868534847" xlink:href="#m741efc42ff" y="12.96"/>
      </g>
     </g>
     <g id="text_3">
      <!-- $0.4$ -->
      <defs>
       <path d="
M33.5938 64.3281
C33.5938 66.4062 33.5 66.5 31.7031 66.5
L2 19.5938
L2 17
L27.7969 17
L27.7969 7.14062
C27.7969 3.5 27.5938 2.5 20.5938 2.5
L18.7031 2.5
L18.7031 0
C21.9062 0 27.2969 0 30.7031 0
C34.0938 0 39.5 0 42.7031 0
L42.7031 2.5
L40.7969 2.5
C33.7969 2.5 33.5938 3.5 33.5938 7.14062
L33.5938 17
L43.7969 17
L43.7969 19.5938
L33.5938 19.5938
z

M28.0938 57.7656
L28.0938 19.5938
L4 19.5938
z
" id="CMR17-52"/>
      </defs>
      <g transform="translate(258.020721714 387.667294253)scale(0.2 -0.2)">
       <use transform="scale(0.996264009963)" xlink:href="#CMR17-48"/>
       <use transform="translate(45.6904771171 0.0)scale(0.996264009963)" xlink:href="#CMMI12-58"/>
       <use transform="translate(72.7876542069 0.0)scale(0.996264009963)" xlink:href="#CMR17-52"/>
      </g>
     </g>
    </g>
    <g id="xtick_4">
     <g id="line2d_11">
      <g>
       <use style="stroke:#000000;stroke-width:0.5;" x="360.075139509" xlink:href="#m93b0483c22" y="369.470653725"/>
      </g>
     </g>
     <g id="line2d_12">
      <g>
       <use style="stroke:#000000;stroke-width:0.5;" x="360.075139509" xlink:href="#m741efc42ff" y="12.96"/>
      </g>
     </g>
     <g id="text_4">
      <!-- $0.6$ -->
      <defs>
       <path d="
M10.5938 34
C10.5938 57.6562 21.7969 63 28.2969 63
C30.4062 63 35.5 62.6406 37.5 59
C35.9062 59 32.9062 59 32.9062 55.5156
C32.9062 52.8281 35.0938 51.9219 36.5 51.9219
C37.4062 51.9219 40.0938 52.3125 40.0938 55.625
C40.0938 61.7812 35.0938 65.2969 28.2031 65.2969
C16.2969 65.2969 3.79688 52.9688 3.79688 31
C3.79688 3.95312 15.0938 -2 23.0938 -2
C32.7969 -2 42 6.67188 42 20.0469
C42 32.5156 33.9062 41.5938 23.7031 41.5938
C17.5938 41.5938 13.0938 37.6094 10.5938 30.625
z

M23.0938 0.390625
C10.7969 0.390625 10.7969 18.75 10.7969 22.4375
C10.7969 29.625 14.2031 40 23.5 40
C25.2031 40 30.0938 40 33.4062 33.125
C35.2031 29.2188 35.2031 25.1406 35.2031 20.1406
C35.2031 14.75 35.2031 10.7812 33.0938 6.78125
C30.9062 2.67188 27.7031 0.390625 23.0938 0.390625" id="CMR17-54"/>
      </defs>
      <g transform="translate(348.227326377 387.667294253)scale(0.2 -0.2)">
       <use transform="scale(0.996264009963)" xlink:href="#CMR17-48"/>
       <use transform="translate(45.6904771171 0.0)scale(0.996264009963)" xlink:href="#CMMI12-58"/>
       <use transform="translate(72.7876542069 0.0)scale(0.996264009963)" xlink:href="#CMR17-54"/>
      </g>
     </g>
    </g>
    <g id="xtick_5">
     <g id="line2d_13">
      <g>
       <use style="stroke:#000000;stroke-width:0.5;" x="450.281744172" xlink:href="#m93b0483c22" y="369.470653725"/>
      </g>
     </g>
     <g id="line2d_14">
      <g>
       <use style="stroke:#000000;stroke-width:0.5;" x="450.281744172" xlink:href="#m741efc42ff" y="12.96"/>
      </g>
     </g>
     <g id="text_5">
      <!-- $0.8$ -->
      <defs>
       <path d="
M27.2031 35.375
C33.5 38.5625 39.9062 43.3281 39.9062 50.9844
C39.9062 60.0312 31.0938 65.2969 23 65.2969
C13.9062 65.2969 5.90625 58.7344 5.90625 49.6875
C5.90625 47.2031 6.5 42.9219 10.4062 39.1406
C11.4062 38.1562 15.5938 35.1719 18.2969 33.2812
C13.7969 30.9844 3.29688 25.5312 3.29688 14.5938
C3.29688 4.35938 13.0938 -2 22.7969 -2
C33.5 -2 42.5 5.65625 42.5 15.7969
C42.5 24.8438 36.4062 29.0312 32.4062 31.7031
z

M14.0938 44.125
C13.2969 44.625 9.29688 47.7031 9.29688 52.375
C9.29688 58.4375 15.5938 63 22.7969 63
C30.7031 63 36.5 57.4531 36.5 50.9844
C36.5 41.7344 26.0938 36.4688 25.5938 36.4688
C25.5 36.4688 25.4062 36.4688 24.5938 37.0781
z

M32.5 23.7344
C34 22.6406 38.7969 19.375 38.7969 13.2969
C38.7969 5.95312 31.4062 0.390625 23 0.390625
C13.9062 0.390625 7 6.84375 7 14.6875
C7 22.5469 13.0938 29.0938 20 32.1875
z
" id="CMR17-56"/>
      </defs>
      <g transform="translate(438.433931039 387.667294253)scale(0.2 -0.2)">
       <use transform="scale(0.996264009963)" xlink:href="#CMR17-48"/>
       <use transform="translate(45.6904771171 0.0)scale(0.996264009963)" xlink:href="#CMMI12-58"/>
       <use transform="translate(72.7876542069 0.0)scale(0.996264009963)" xlink:href="#CMR17-56"/>
      </g>
     </g>
    </g>
    <g id="xtick_6">
     <g id="line2d_15">
      <g>
       <use style="stroke:#000000;stroke-width:0.5;" x="540.488348834" xlink:href="#m93b0483c22" y="369.470653725"/>
      </g>
     </g>
     <g id="line2d_16">
      <g>
       <use style="stroke:#000000;stroke-width:0.5;" x="540.488348834" xlink:href="#m741efc42ff" y="12.96"/>
      </g>
     </g>
     <g id="text_6">
      <!-- $1.0$ -->
      <defs>
       <path d="
M26.5938 63.3125
C26.5938 65.4062 26.5 65.5 25.0938 65.5
C21.2031 61.1875 15.2969 59.7969 9.70312 59.7969
C9.40625 59.7969 8.90625 59.7969 8.79688 59.5
C8.70312 59.2969 8.70312 59.0938 8.70312 57
C11.7969 57 17 57.5938 21 59.9844
L21 7.20312
C21 3.6875 20.7969 2.5 12.2031 2.5
L9.20312 2.5
L9.20312 0
C14 0 19 0 23.7969 0
C28.5938 0 33.5938 0 38.4062 0
L38.4062 2.5
L35.4062 2.5
C26.7969 2.5 26.5938 3.59375 26.5938 7.15625
z
" id="CMR17-49"/>
      </defs>
      <g transform="translate(528.640535702 387.667294253)scale(0.2 -0.2)">
       <use transform="scale(0.996264009963)" xlink:href="#CMR17-49"/>
       <use transform="translate(45.6904771171 0.0)scale(0.996264009963)" xlink:href="#CMMI12-58"/>
       <use transform="translate(72.7876542069 0.0)scale(0.996264009963)" xlink:href="#CMR17-48"/>
      </g>
     </g>
    </g>
    <g id="text_7">
     <!-- $\nu$ -->
     <defs>
      <path d="
M22 43
C22 43.3906 21.7031 44 20.9062 44
C20.2031 44 10.7969 43 9.29688 43
C8.20312 42.8906 7.20312 42.7969 7.20312 41
C7.20312 40 8 40 9.40625 40
C14.0938 40 14.4062 39.2969 14.4062 38.2031
C14.4062 37.7969 14.2031 36.6094 14.0938 36.2031
L5.29688 1
C5.29688 0.59375 5.59375 0 6.29688 0
L8.40625 0
C9.79688 0 25 3.59375 36.7031 15.5625
C49.5938 28.8438 51.4062 41.1094 51.4062 41.5156
C51.4062 43.1094 50.0938 44 48.7969 44
C45.9062 44 45.2031 41.3125 45 40.6094
C39.0938 19.7656 25.4062 7.39062 12.0938 3
z
" id="CMMI12-23"/>
     </defs>
     <g transform="translate(309.188022637 413.947235684)scale(0.24 -0.24)">
      <use transform="scale(0.996264009963)" xlink:href="#CMMI12-23"/>
     </g>
    </g>
   </g>
   <g id="matplotlib.axis_2">
    <g id="ytick_1">
     <g id="line2d_17">
      <defs>
       <path d="
M0 0
L4 0" id="m728421d6d4" style="stroke:#000000;stroke-width:0.5;"/>
      </defs>
      <g>
       <use style="stroke:#000000;stroke-width:0.5;" x="66.9036743559" xlink:href="#m728421d6d4" y="354.616043153"/>
      </g>
     </g>
     <g id="line2d_18">
      <defs>
       <path d="
M0 0
L-4 0" id="mcb0005524f" style="stroke:#000000;stroke-width:0.5;"/>
      </defs>
      <g>
       <use style="stroke:#000000;stroke-width:0.5;" x="563.04" xlink:href="#mcb0005524f" y="354.616043153"/>
      </g>
     </g>
     <g id="text_8">
      <!-- $0.0$ -->
      <g transform="translate(39.2080480911 359.592377019)scale(0.2 -0.2)">
       <use transform="scale(0.996264009963)" xlink:href="#CMR17-48"/>
       <use transform="translate(45.6904771171 0.0)scale(0.996264009963)" xlink:href="#CMMI12-58"/>
       <use transform="translate(72.7876542069 0.0)scale(0.996264009963)" xlink:href="#CMR17-48"/>
      </g>
     </g>
    </g>
    <g id="ytick_2">
     <g id="line2d_19">
      <g>
       <use style="stroke:#000000;stroke-width:0.5;" x="66.9036743559" xlink:href="#m728421d6d4" y="295.197600866"/>
      </g>
     </g>
     <g id="line2d_20">
      <g>
       <use style="stroke:#000000;stroke-width:0.5;" x="563.04" xlink:href="#mcb0005524f" y="295.197600866"/>
      </g>
     </g>
     <g id="text_9">
      <!-- $0.2$ -->
      <g transform="translate(39.2080480911 300.173934731)scale(0.2 -0.2)">
       <use transform="scale(0.996264009963)" xlink:href="#CMR17-48"/>
       <use transform="translate(45.6904771171 0.0)scale(0.996264009963)" xlink:href="#CMMI12-58"/>
       <use transform="translate(72.7876542069 0.0)scale(0.996264009963)" xlink:href="#CMR17-50"/>
      </g>
     </g>
    </g>
    <g id="ytick_3">
     <g id="line2d_21">
      <g>
       <use style="stroke:#000000;stroke-width:0.5;" x="66.9036743559" xlink:href="#m728421d6d4" y="235.779158578"/>
      </g>
     </g>
     <g id="line2d_22">
      <g>
       <use style="stroke:#000000;stroke-width:0.5;" x="563.04" xlink:href="#mcb0005524f" y="235.779158578"/>
      </g>
     </g>
     <g id="text_10">
      <!-- $0.4$ -->
      <g transform="translate(39.2080480911 240.755492443)scale(0.2 -0.2)">
       <use transform="scale(0.996264009963)" xlink:href="#CMR17-48"/>
       <use transform="translate(45.6904771171 0.0)scale(0.996264009963)" xlink:href="#CMMI12-58"/>
       <use transform="translate(72.7876542069 0.0)scale(0.996264009963)" xlink:href="#CMR17-52"/>
      </g>
     </g>
    </g>
    <g id="ytick_4">
     <g id="line2d_23">
      <g>
       <use style="stroke:#000000;stroke-width:0.5;" x="66.9036743559" xlink:href="#m728421d6d4" y="176.360716291"/>
      </g>
     </g>
     <g id="line2d_24">
      <g>
       <use style="stroke:#000000;stroke-width:0.5;" x="563.04" xlink:href="#mcb0005524f" y="176.360716291"/>
      </g>
     </g>
     <g id="text_11">
      <!-- $0.6$ -->
      <g transform="translate(39.2080480911 181.337050156)scale(0.2 -0.2)">
       <use transform="scale(0.996264009963)" xlink:href="#CMR17-48"/>
       <use transform="translate(45.6904771171 0.0)scale(0.996264009963)" xlink:href="#CMMI12-58"/>
       <use transform="translate(72.7876542069 0.0)scale(0.996264009963)" xlink:href="#CMR17-54"/>
      </g>
     </g>
    </g>
    <g id="ytick_5">
     <g id="line2d_25">
      <g>
       <use style="stroke:#000000;stroke-width:0.5;" x="66.9036743559" xlink:href="#m728421d6d4" y="116.942274003"/>
      </g>
     </g>
     <g id="line2d_26">
      <g>
       <use style="stroke:#000000;stroke-width:0.5;" x="563.04" xlink:href="#mcb0005524f" y="116.942274003"/>
      </g>
     </g>
     <g id="text_12">
      <!-- $0.8$ -->
      <g transform="translate(39.2080480911 121.918607868)scale(0.2 -0.2)">
       <use transform="scale(0.996264009963)" xlink:href="#CMR17-48"/>
       <use transform="translate(45.6904771171 0.0)scale(0.996264009963)" xlink:href="#CMMI12-58"/>
       <use transform="translate(72.7876542069 0.0)scale(0.996264009963)" xlink:href="#CMR17-56"/>
      </g>
     </g>
    </g>
    <g id="ytick_6">
     <g id="line2d_27">
      <g>
       <use style="stroke:#000000;stroke-width:0.5;" x="66.9036743559" xlink:href="#m728421d6d4" y="57.5238317157"/>
      </g>
     </g>
     <g id="line2d_28">
      <g>
       <use style="stroke:#000000;stroke-width:0.5;" x="563.04" xlink:href="#mcb0005524f" y="57.5238317157"/>
      </g>
     </g>
     <g id="text_13">
      <!-- $1.0$ -->
      <g transform="translate(39.2080480911 62.5001655809)scale(0.2 -0.2)">
       <use transform="scale(0.996264009963)" xlink:href="#CMR17-49"/>
       <use transform="translate(45.6904771171 0.0)scale(0.996264009963)" xlink:href="#CMMI12-58"/>
       <use transform="translate(72.7876542069 0.0)scale(0.996264009963)" xlink:href="#CMR17-48"/>
      </g>
     </g>
    </g>
    <g id="text_14">
     <!-- $P_{fix}$ -->
     <defs>
      <path d="
M29.5938 31.6094
L46.4062 31.6094
C60.2031 31.6094 74 41.7656 74 53.1406
C74 60.9062 67.4062 68 54.7969 68
L23.9062 68
C22 68 21.0938 68 21.0938 66.1094
C21.0938 65.1094 22 65.1094 23.5 65.1094
C29.5938 65.1094 29.5938 64.3125 29.5938 63.2031
C29.5938 63.0156 29.5938 62.4062 29.2031 60.9219
L15.7031 7.375
C14.7969 3.89062 14.5938 2.89062 7.59375 2.89062
C5.70312 2.89062 4.70312 2.89062 4.70312 1.09375
C4.70312 0 5.59375 0 6.20312 0
C8.09375 0 10.0938 0 12 0
L23.7031 0
C25.5938 0 27.7031 0 29.5938 0
C30.4062 0 31.5 0 31.5 1.89062
C31.5 2.89062 30.5938 2.89062 29.0938 2.89062
C23.0938 2.89062 23 3.59375 23 4.59375
C23 5.07812 23.0938 5.76562 23.2031 6.26562
z

M36.7969 61.2188
C37.7031 64.9062 38.0938 65.1094 42 65.1094
L51.9062 65.1094
C59.4062 65.1094 65.5938 62.7031 65.5938 55.2344
C65.5938 52.6406 64.2969 44.1719 59.7031 39.5938
C58 37.7969 53.2031 34 44.0938 34
L30 34
z
" id="CMMI12-80"/>
      <path d="
M47.4062 40.7188
C44.2031 40.1094 43 37.7188 43 35.8281
C43 33.4219 44.9062 32.625 46.2969 32.625
C49.2969 32.625 51.4062 35.2188 51.4062 37.9219
C51.4062 42.1094 46.5938 44 42.4062 44
C36.2969 44 32.9062 38.0156 32 36.125
C29.7031 44 23.5 44 21.7031 44
C11.5 44 6.09375 30.9375 6.09375 28.7344
C6.09375 28.3438 6.5 27.8438 7.20312 27.8438
C8 27.8438 8.20312 28.4375 8.40625 28.8438
C11.7969 39.9219 18.5 42.0156 21.4062 42.0156
C25.9062 42.0156 26.7969 37.8125 26.7969 35.4219
C26.7969 33.2344 26.2031 30.9375 25 26.1406
L21.5938 12.4688
C20.0938 6.48438 17.2031 1 11.9062 1
C11.4062 1 8.90625 1 6.79688 2.29688
C10.4062 3 11.2031 5.98438 11.2031 7.1875
C11.2031 9.1875 9.70312 10.375 7.79688 10.375
C5.40625 10.375 2.79688 8.28125 2.79688 5.09375
C2.79688 0.890625 7.5 -1 11.7969 -1
C16.5938 -1 20 2.79688 22.0938 6.89062
C23.7031 1 28.7031 -1 32.4062 -1
C42.5938 -1 48 12.0781 48 14.2656
C48 14.7656 47.5938 15.1719 47 15.1719
C46.0938 15.1719 46 14.6719 45.7031 13.875
C43 5.09375 37.2031 1 32.7031 1
C29.2031 1 27.2969 3.59375 27.2969 7.6875
C27.2969 9.875 27.7031 11.4688 29.2969 18.0625
L32.7969 31.625
C34.2969 37.625 37.7031 42.0156 42.2969 42.0156
C42.5 42.0156 45.2969 42.0156 47.4062 40.7188" id="CMMI12-120"/>
      <path d="
M28.2969 14.2656
C28.2969 14.7656 27.9062 15.1719 27.2969 15.1719
C26.4062 15.1719 26.2969 14.875 25.7969 13.1719
C23.2031 4.09375 19.0938 1 15.7969 1
C14.5938 1 13.2031 1.29688 13.2031 4.29688
C13.2031 6.98438 14.4062 9.98438 15.5 12.9688
L22.5 31.5312
C22.7969 32.3281 23.5 34.125 23.5 36.0156
C23.5 40.2188 20.5 44 15.5938 44
C6.40625 44 2.70312 29.5312 2.70312 28.7344
C2.70312 28.3438 3.09375 27.8438 3.79688 27.8438
C4.70312 27.8438 4.79688 28.2344 5.20312 29.625
C7.59375 37.9375 11.4062 41.9062 15.2969 41.9062
C16.2031 41.9062 17.9062 41.9062 17.9062 38.7188
C17.9062 36.125 16.5938 32.8281 15.7969 30.6406
L8.79688 12.0781
C8.20312 10.4844 7.59375 8.875 7.59375 7.07812
C7.59375 2.59375 10.7031 -1 15.5 -1
C24.7031 -1 28.2969 13.5781 28.2969 14.2656
M27.5 62.7031
C27.5 64.2031 26.2969 66 24.0938 66
C21.7969 66 19.2031 63.7969 19.2031 61.2031
C19.2031 58.7188 21.2969 57.9219 22.5 57.9219
C25.2031 57.9219 27.5 60.5156 27.5 62.7031" id="CMMI12-105"/>
      <path d="
M44.5938 40.0938
C46.5938 40.0938 47.4062 40.0938 47.4062 42
C47.4062 43 46.5938 43 44.7969 43
L36.7031 43
C38.5938 53.5781 40 60.8906 40.7969 64.1719
C41.4062 66.6406 43.5 69 46.0938 69
C48.2031 69 50.2969 68.0938 51.2969 67.1562
C47.4062 66.75 46.2031 63.7812 46.2031 62.0156
C46.2031 59.9531 47.7031 58.7344 49.5938 58.7344
C51.5938 58.7344 54.5938 60.4688 54.5938 64.3594
C54.5938 68.6406 50.4062 71 46 71
C41.7031 71 37.5 67.7188 35.5 63.7188
C33.7031 60.125 32.7031 56.4375 30.4062 43
L23.7031 43
C21.7969 43 20.7969 43 20.7969 41.2031
C20.7969 40.0938 21.4062 40.0938 23.4062 40.0938
L29.7969 40.0938
C28 30.875 23.9062 8.46875 21.5938 -2.14062
C19.9062 -10.7656 18.4062 -18 13.4062 -18
C13.0938 -18 10.2031 -18 8.40625 -16.1094
C13.5 -15.7031 13.5 -11.3438 13.5 -11.25
C13.5 -9.26562 12 -8.07812 10.0938 -8.07812
C8.09375 -8.07812 5.09375 -9.76562 5.09375 -13.5469
C5.09375 -17.8125 9.5 -20 13.4062 -20
C23.5938 -20 27.7969 -1.84375 28.9062 3.10938
C30.7031 10.75 35.5938 37.125 36.0938 40.0938
z
" id="CMMI12-102"/>
     </defs>
     <g transform="translate(29.5396871352 209.484091639)rotate(-90.0)scale(0.22 -0.22)">
      <use transform="translate(0.0 14.9439145441)scale(0.996264009963)" xlink:href="#CMMI12-80"/>
      <use transform="translate(62.8772322297 0.0)scale(0.697381766617)" xlink:href="#CMMI12-102"/>
      <use transform="translate(103.981255594 0.0)scale(0.697381766617)" xlink:href="#CMMI12-105"/>
      <use transform="translate(127.276162876 0.0)scale(0.697381766617)" xlink:href="#CMMI12-120"/>
     </g>
    </g>
   </g>
   <g id="patch_6">
    <path d="
M66.9037 12.96
L563.04 12.96" style="fill:none;stroke:#000000;"/>
   </g>
   <g id="patch_7">
    <path d="
M563.04 369.471
L563.04 12.96" style="fill:none;stroke:#000000;"/>
   </g>
   <g id="patch_8">
    <path d="
M66.9037 369.471
L563.04 369.471" style="fill:none;stroke:#000000;"/>
   </g>
   <g id="patch_9">
    <path d="
M66.9037 369.471
L66.9037 12.96" style="fill:none;stroke:#000000;"/>
   </g>
   <g id="text_15">
    <!-- $s_d = $ 0.006 -->
    <defs>
     <path d="
M50.2969 66.5156
C50.4062 66.9062 50.5938 67.5 50.5938 68
C50.5938 69 49.5938 69 49.4062 69
C49.2969 69 44.4062 68.5312 43.9062 68.3906
C42.2031 68.3906 40.7031 68.0938 38.9062 68.0938
C36.4062 67.8906 35.7031 67.7969 35.7031 66
C35.7031 65 36.5 65 37.9062 65
C42.7969 65 42.9062 64.1094 42.9062 63.1094
C42.9062 62.5312 42.7031 61.7344 42.5938 61.4375
L36.5 37.4219
C35.4062 40.0156 32.7031 44 27.5 44
C16.2031 44 4 29.4375 4 14.6719
C4 4.79688 9.79688 -1 16.5938 -1
C22.0938 -1 26.7969 3.29688 29.5938 6.59375
C30.5938 0.703125 35.2969 -1 38.2969 -1
C41.2969 -1 43.7031 0.796875 45.5 4.39062
C47.0938 7.78125 48.5 13.875 48.5 14.2656
C48.5 14.7656 48.0938 15.1719 47.5 15.1719
C46.5938 15.1719 46.5 14.6719 46.0938 13.1719
C44.5938 7.28125 42.7031 1 38.5938 1
C35.7031 1 35.5 3.57812 35.5 5.57812
C35.5 5.96875 35.5 8.04688 36.2031 10.8438
z

M30.0938 11.875
C29.5938 10.1719 29.5938 9.98438 28.2031 8.07812
C26 5.28125 21.5938 1 16.9062 1
C12.7969 1 10.5 4.6875 10.5 10.5781
C10.5 16.0625 13.5938 27.2344 15.5 31.4375
C18.9062 38.4219 23.5938 42.0156 27.5 42.0156
C34.0938 42.0156 35.4062 33.8281 35.4062 33.0312
C35.4062 32.9375 35.0938 31.625 35 31.4375
z
" id="CMMI12-100"/>
     <path d="
M64.2969 31.5156
C65.7969 31.5156 67.2969 31.5156 67.2969 33.2031
C67.2969 35 65.5938 35 63.9062 35
L8 35
C6.29688 35 4.59375 35 4.59375 33.2031
C4.59375 31.5156 6.09375 31.5156 7.59375 31.5156
z

M63.9062 14
C65.5938 14 67.2969 14 67.2969 15.7969
C67.2969 17.4844 65.7969 17.4844 64.2969 17.4844
L7.59375 17.4844
C6.09375 17.4844 4.59375 17.4844 4.59375 15.7969
C4.59375 14 6.29688 14 8 14
z
" id="CMR17-61"/>
     <path d="
M22.7969 20
C24.5 19.7031 27.2031 19.1094 27.7969 19
C29.0938 18.625 33.5938 17.0312 33.5938 12.2344
C33.5938 9.15625 30.7969 1.09375 19.2031 1.09375
C17.0938 1.09375 9.59375 1.09375 7.59375 6.8125
C11.5938 6.3125 13.5938 9.42188 13.5938 11.6406
C13.5938 13.75 12.2031 14.8438 10.2031 14.8438
C8 14.8438 5.09375 13.1406 5.09375 8.625
C5.09375 2.70312 11.0938 -1 19.0938 -1
C34.2969 -1 38.7969 10.1719 38.7969 15.375
C38.7969 16.8594 38.7969 19.6562 35.5938 22.8438
C33.0938 25.25 30.7031 25.75 25.2969 26.8438
C22.5938 27.4375 18.2969 28.3438 18.2969 32.8281
C18.2969 34.8281 20.0938 42.0156 29.5938 42.0156
C33.7969 42.0156 37.9062 40.4531 38.9062 37
C34.5 37 34.2969 33.2031 34.2969 33.1094
C34.2969 31 36.2031 30.4062 37.0938 30.4062
C38.5 30.4062 41.2969 31.4844 41.2969 35.6406
C41.2969 39.7656 37.5 44 29.7031 44
C16.5938 44 13.0938 33.75 13.0938 29.6719
C13.0938 22.0938 20.5 20.5 22.7969 20" id="CMMI12-115"/>
     <path d="
M19.0938 10.4219
L8.70312 10.4219
L8.70312 0
L19.0938 0
z
" id="Nimbus_Sans_L_Regular-46"/>
     <path d="
M49.7969 52.8438
C48.0938 64.2344 40.5 71 29.7031 71
C21.9062 71 14.9062 67.2188 10.7031 60.9375
C6.29688 54.0625 4.29688 45.375 4.29688 32.5156
C4.29688 20.6406 6.09375 13.0625 10.2969 6.78125
C14.0938 1.07812 20.2969 -2 28.0938 -2
C41.5938 -2 51.2969 8.09375 51.2969 22.1094
C51.2969 35.4375 42.2969 44.8125 29.5938 44.8125
C22.5938 44.8125 17.0938 42.1094 13.2969 36.9062
C13.4062 53.8125 19 63.1875 29.0938 63.1875
C35.2969 63.1875 39.5938 59.4219 41 52.8438
z

M28.5 37
C37 37 42.2969 31.0312 42.2969 21.4062
C42.2969 12.3906 36.2969 5.8125 28.2031 5.8125
C20 5.8125 13.7969 12.7031 13.7969 21.9062
C13.7969 30.8281 19.7969 37 28.5 37" id="Nimbus_Sans_L_Regular-54"/>
     <path d="
M27.5 71
C20.9062 71 14.9062 68.125 11.2031 63.2188
C6.59375 57.0469 4.29688 47.5625 4.29688 34.5
C4.29688 10.6719 12.2969 -2 27.5 -2
C42.5 -2 50.7031 10.6719 50.7031 33.9062
C50.7031 47.6562 48.5 56.8438 43.7969 63.2188
C40.0938 68.2188 34.2031 71 27.5 71
M27.5 63.1875
C37 63.1875 41.7031 53.625 41.7031 34.7031
C41.7031 14.6719 37.0938 5.3125 27.2969 5.3125
C18 5.3125 13.2969 15.0781 13.2969 34.4062
C13.2969 53.7188 18 63.1875 27.5 63.1875" id="Nimbus_Sans_L_Regular-48"/>
    </defs>
    <g style="fill:#0000ff;" transform="translate(437.878336031 354.616043153)scale(0.2 -0.2)">
     <use transform="translate(0.0 14.9439145441)scale(0.996264009963)" xlink:href="#CMMI12-115"/>
     <use transform="translate(45.9500475512 0.0)scale(0.697381766617)" xlink:href="#CMMI12-100"/>
     <use transform="translate(109.604394896 14.9439145441)scale(0.996264009963)" xlink:href="#CMR17-61"/>
     <use transform="translate(209.014352915 14.9439145441)scale(0.996264009963)" xlink:href="#Nimbus_Sans_L_Regular-48"/>
     <use transform="translate(264.406029878 14.9439145441)scale(0.996264009963)" xlink:href="#Nimbus_Sans_L_Regular-46"/>
     <use transform="translate(292.101199481 14.9439145441)scale(0.996264009963)" xlink:href="#Nimbus_Sans_L_Regular-48"/>
     <use transform="translate(347.492876445 14.9439145441)scale(0.996264009963)" xlink:href="#Nimbus_Sans_L_Regular-48"/>
     <use transform="translate(402.884553408 14.9439145441)scale(0.996264009963)" xlink:href="#Nimbus_Sans_L_Regular-54"/>
    </g>
   </g>
   <g id="text_16">
    <!-- $s_d = $ 0.002 -->
    <defs>
     <path d="
M50.5938 8.71875
L13.2969 8.71875
C14.2031 14.5312 17.4062 18.2344 26.0938 23.3438
L36.0938 28.75
C46 34.1562 51.0938 41.4531 51.0938 50.1719
C51.0938 56.0781 48.7031 61.5938 44.5 65.3906
C40.2969 69.2031 35.0938 71 28.4062 71
C19.4062 71 12.7031 67.7969 8.79688 61.7969
C6.29688 57.9844 5.20312 53.5781 5 46.3594
L13.7969 46.3594
C14.0938 51.1719 14.7031 54.0781 15.9062 56.375
C18.2031 60.6875 22.7969 63.2969 28.0938 63.2969
C36.0938 63.2969 42.0938 57.5781 42.0938 49.9688
C42.0938 44.3594 38.7969 39.5469 32.5 35.9531
L23.2969 30.75
C8.5 22.3438 4.20312 15.625 3.40625 0
L50.5938 0
z
" id="Nimbus_Sans_L_Regular-50"/>
    </defs>
    <g style="fill:#008000;" transform="translate(437.878336031 226.066528589)scale(0.2 -0.2)">
     <use transform="translate(0.0 14.9439145441)scale(0.996264009963)" xlink:href="#CMMI12-115"/>
     <use transform="translate(45.9500475512 0.0)scale(0.697381766617)" xlink:href="#CMMI12-100"/>
     <use transform="translate(109.604394896 14.9439145441)scale(0.996264009963)" xlink:href="#CMR17-61"/>
     <use transform="translate(209.014352915 14.9439145441)scale(0.996264009963)" xlink:href="#Nimbus_Sans_L_Regular-48"/>
     <use transform="translate(264.406029878 14.9439145441)scale(0.996264009963)" xlink:href="#Nimbus_Sans_L_Regular-46"/>
     <use transform="translate(292.101199481 14.9439145441)scale(0.996264009963)" xlink:href="#Nimbus_Sans_L_Regular-48"/>
     <use transform="translate(347.492876445 14.9439145441)scale(0.996264009963)" xlink:href="#Nimbus_Sans_L_Regular-48"/>
     <use transform="translate(402.884553408 14.9439145441)scale(0.996264009963)" xlink:href="#Nimbus_Sans_L_Regular-50"/>
    </g>
   </g>
   <g id="text_17">
    <!-- $s_d = $ 0.0006 -->
    <g style="fill:#ff0000;" transform="translate(437.878336031 169.084988664)scale(0.2 -0.2)">
     <use transform="translate(0.0 14.9439145441)scale(0.996264009963)" xlink:href="#CMMI12-115"/>
     <use transform="translate(45.9500475512 0.0)scale(0.697381766617)" xlink:href="#CMMI12-100"/>
     <use transform="translate(109.604394896 14.9439145441)scale(0.996264009963)" xlink:href="#CMR17-61"/>
     <use transform="translate(209.014352915 14.9439145441)scale(0.996264009963)" xlink:href="#Nimbus_Sans_L_Regular-48"/>
     <use transform="translate(264.406029878 14.9439145441)scale(0.996264009963)" xlink:href="#Nimbus_Sans_L_Regular-46"/>
     <use transform="translate(292.101199481 14.9439145441)scale(0.996264009963)" xlink:href="#Nimbus_Sans_L_Regular-48"/>
     <use transform="translate(347.492876445 14.9439145441)scale(0.996264009963)" xlink:href="#Nimbus_Sans_L_Regular-48"/>
     <use transform="translate(402.884553408 14.9439145441)scale(0.996264009963)" xlink:href="#Nimbus_Sans_L_Regular-48"/>
     <use transform="translate(458.276230371 14.9439145441)scale(0.996264009963)" xlink:href="#Nimbus_Sans_L_Regular-54"/>
    </g>
   </g>
  </g>
  <g id="axes_2">
   <g id="patch_10">
    <path d="
M144 116.64
L288 116.64
L288 21.6
L144 21.6
z
" style="fill:#ffffff;"/>
   </g>
   <g id="PathCollection_4">
    <defs>
     <path d="
M0 5
C1.32602 5 2.5979 4.47317 3.53553 3.53553
C4.47317 2.5979 5 1.32602 5 0
C5 -1.32602 4.47317 -2.5979 3.53553 -3.53553
C2.5979 -4.47317 1.32602 -5 0 -5
C-1.32602 -5 -2.5979 -4.47317 -3.53553 -3.53553
C-4.47317 -2.5979 -5 -1.32602 -5 0
C-5 1.32602 -4.47317 2.5979 -3.53553 3.53553
C-2.5979 4.47317 -1.32602 5 0 5
z
" id="C3_0_95d0887793"/>
    </defs>
    <g clip-path="url(#pa5aaf27423)">
     <use style="fill:none;stroke:#0000ff;stroke-width:2.0;" x="250.35273034" xlink:href="#C3_0_95d0887793" y="89.1639265954"/>
    </g>
   </g>
   <g id="PathCollection_5">
    <defs>
     <path d="
M-5 5
L5 5
L5 -5
L-5 -5
z
" id="C4_0_4423ab310f"/>
    </defs>
    <g clip-path="url(#pa5aaf27423)">
     <use style="fill:none;stroke:#008000;stroke-width:2.0;" x="216.0" xlink:href="#C4_0_4423ab310f" y="54.793058394"/>
    </g>
   </g>
   <g id="PathCollection_6">
    <defs>
     <path d="
M0 -5
L-5 5
L5 5
z
" id="C5_0_98c72b3335"/>
    </defs>
    <g clip-path="url(#pa5aaf27423)">
     <use style="fill:none;stroke:#ff0000;stroke-width:2.0;" x="178.35273034" xlink:href="#C5_0_98c72b3335" y="39.8504489788"/>
    </g>
   </g>
   <g id="line2d_29">
    <path clip-path="url(#pa5aaf27423)" d="
M250.353 89.1639
L216 54.7931
L178.353 39.8504" style="fill:none;stroke:#000000;stroke-linecap:square;stroke-width:2;"/>
   </g>
   <g id="line2d_30">
    <path clip-path="url(#pa5aaf27423)" d="
M178.353 52.6629
L172.652 78.1377" style="fill:none;stroke:#800080;stroke-linecap:square;stroke-width:1.2;"/>
   </g>
   <g id="line2d_31">
    <path clip-path="url(#pa5aaf27423)" d="
M144 51.1649
L288 51.1649" style="fill:none;stroke:#800080;stroke-dasharray:6.000000,6.000000;stroke-dashoffset:0.0;stroke-width:1.5;"/>
   </g>
   <g id="matplotlib.axis_3">
    <g id="xtick_7">
     <g id="line2d_32">
      <g>
       <use style="stroke:#000000;stroke-width:0.5;" x="144.0" xlink:href="#m93b0483c22" y="116.64"/>
      </g>
     </g>
     <g id="line2d_33">
      <g>
       <use style="stroke:#000000;stroke-width:0.5;" x="144.0" xlink:href="#m741efc42ff" y="21.6"/>
      </g>
     </g>
     <g id="text_18">
      <!-- $10^{-4}$ -->
      <defs>
       <path d="
M65.9062 23
C67.5938 23 69.4062 23 69.4062 25
C69.4062 27 67.5938 27 65.9062 27
L11.7969 27
C10.0938 27 8.29688 27 8.29688 25
C8.29688 23 10.0938 23 11.7969 23
z
" id="CMSY10-0"/>
      </defs>
      <g transform="translate(126.023580701 134.836640528)scale(0.2 -0.2)">
       <use transform="scale(0.996264009963)" xlink:href="#CMR17-49"/>
       <use transform="translate(45.6904771171 0.0)scale(0.996264009963)" xlink:href="#CMR17-48"/>
       <use transform="translate(91.3809542341 36.1536389419)scale(0.697381766617)" xlink:href="#CMSY10-0"/>
       <use transform="translate(145.621947482 36.1536389419)scale(0.697381766617)" xlink:href="#CMR17-52"/>
      </g>
     </g>
    </g>
    <g id="xtick_8">
     <g id="line2d_34">
      <g>
       <use style="stroke:#000000;stroke-width:0.5;" x="216.0" xlink:href="#m93b0483c22" y="116.64"/>
      </g>
     </g>
     <g id="line2d_35">
      <g>
       <use style="stroke:#000000;stroke-width:0.5;" x="216.0" xlink:href="#m741efc42ff" y="21.6"/>
      </g>
     </g>
     <g id="text_19">
      <!-- $10^{-3}$ -->
      <defs>
       <path d="
M22.0938 33.7031
C31 33.7031 34.9062 25.9688 34.9062 17.0312
C34.9062 5 28.5 0.390625 22.7031 0.390625
C17.4062 0.390625 8.79688 3.03125 6.09375 10.8281
C6.59375 10.625 7.09375 10.625 7.59375 10.625
C10 10.625 11.7969 12.2188 11.7969 14.8125
C11.7969 17.7031 9.59375 19 7.59375 19
C5.90625 19 3.29688 18.2031 3.29688 14.4688
C3.29688 5.23438 12.2969 -2 22.9062 -2
C34 -2 42.5 6.71875 42.5 16.9531
C42.5 26.6719 34.5 33.6875 25 34.7969
C32.5938 36.375 39.9062 43.0625 39.9062 52.0156
C39.9062 59.6875 32 65.2969 23 65.2969
C13.9062 65.2969 5.90625 59.8281 5.90625 52.0156
C5.90625 48.5938 8.5 48 9.79688 48
C11.9062 48 13.7031 49.2969 13.7031 51.8906
C13.7031 54.4688 11.9062 55.7656 9.79688 55.7656
C9.40625 55.7656 8.90625 55.7656 8.5 55.5625
C11.4062 61.8594 19.2969 63 22.7969 63
C26.2969 63 32.9062 61.3281 32.9062 51.875
C32.9062 49.1094 32.5 44.1875 29.0938 39.8438
C26.0938 36 22.7031 36 19.4062 35.5938
C18.9062 35.5938 16.5938 35.5938 16.2031 35.5938
C15.5 35.4844 15.0938 35.3906 15.0938 34.5938
C15.0938 33.8125 15.2031 33.7031 17.2031 33.7031
z
" id="CMR17-51"/>
      </defs>
      <g transform="translate(198.023580701 134.836640528)scale(0.2 -0.2)">
       <use transform="scale(0.996264009963)" xlink:href="#CMR17-49"/>
       <use transform="translate(45.6904771171 0.0)scale(0.996264009963)" xlink:href="#CMR17-48"/>
       <use transform="translate(91.3809542341 36.1536389419)scale(0.697381766617)" xlink:href="#CMSY10-0"/>
       <use transform="translate(145.621947482 36.1536389419)scale(0.697381766617)" xlink:href="#CMR17-51"/>
      </g>
     </g>
    </g>
    <g id="xtick_9">
     <g id="line2d_36">
      <g>
       <use style="stroke:#000000;stroke-width:0.5;" x="288.0" xlink:href="#m93b0483c22" y="116.64"/>
      </g>
     </g>
     <g id="line2d_37">
      <g>
       <use style="stroke:#000000;stroke-width:0.5;" x="288.0" xlink:href="#m741efc42ff" y="21.6"/>
      </g>
     </g>
     <g id="text_20">
      <!-- $10^{-2}$ -->
      <g transform="translate(270.023580701 134.836640528)scale(0.2 -0.2)">
       <use transform="scale(0.996264009963)" xlink:href="#CMR17-49"/>
       <use transform="translate(45.6904771171 0.0)scale(0.996264009963)" xlink:href="#CMR17-48"/>
       <use transform="translate(91.3809542341 36.1536389419)scale(0.697381766617)" xlink:href="#CMSY10-0"/>
       <use transform="translate(145.621947482 36.1536389419)scale(0.697381766617)" xlink:href="#CMR17-50"/>
      </g>
     </g>
    </g>
    <g id="xtick_10">
     <g id="line2d_38">
      <defs>
       <path d="
M0 0
L0 -2" id="m177f7580d0" style="stroke:#000000;stroke-width:0.5;"/>
      </defs>
      <g>
       <use style="stroke:#000000;stroke-width:0.5;" x="165.674159688" xlink:href="#m177f7580d0" y="116.64"/>
      </g>
     </g>
     <g id="line2d_39">
      <defs>
       <path d="
M0 0
L0 2" id="m5284c7e2a0" style="stroke:#000000;stroke-width:0.5;"/>
      </defs>
      <g>
       <use style="stroke:#000000;stroke-width:0.5;" x="165.674159688" xlink:href="#m5284c7e2a0" y="21.6"/>
      </g>
     </g>
    </g>
    <g id="xtick_11">
     <g id="line2d_40">
      <g>
       <use style="stroke:#000000;stroke-width:0.5;" x="178.35273034" xlink:href="#m177f7580d0" y="116.64"/>
      </g>
     </g>
     <g id="line2d_41">
      <g>
       <use style="stroke:#000000;stroke-width:0.5;" x="178.35273034" xlink:href="#m5284c7e2a0" y="21.6"/>
      </g>
     </g>
    </g>
    <g id="xtick_12">
     <g id="line2d_42">
      <g>
       <use style="stroke:#000000;stroke-width:0.5;" x="187.348319376" xlink:href="#m177f7580d0" y="116.64"/>
      </g>
     </g>
     <g id="line2d_43">
      <g>
       <use style="stroke:#000000;stroke-width:0.5;" x="187.348319376" xlink:href="#m5284c7e2a0" y="21.6"/>
      </g>
     </g>
    </g>
    <g id="xtick_13">
     <g id="line2d_44">
      <g>
       <use style="stroke:#000000;stroke-width:0.5;" x="194.325840312" xlink:href="#m177f7580d0" y="116.64"/>
      </g>
     </g>
     <g id="line2d_45">
      <g>
       <use style="stroke:#000000;stroke-width:0.5;" x="194.325840312" xlink:href="#m5284c7e2a0" y="21.6"/>
      </g>
     </g>
    </g>
    <g id="xtick_14">
     <g id="line2d_46">
      <g>
       <use style="stroke:#000000;stroke-width:0.5;" x="200.026890028" xlink:href="#m177f7580d0" y="116.64"/>
      </g>
     </g>
     <g id="line2d_47">
      <g>
       <use style="stroke:#000000;stroke-width:0.5;" x="200.026890028" xlink:href="#m5284c7e2a0" y="21.6"/>
      </g>
     </g>
    </g>
    <g id="xtick_15">
     <g id="line2d_48">
      <g>
       <use style="stroke:#000000;stroke-width:0.5;" x="204.847058881" xlink:href="#m177f7580d0" y="116.64"/>
      </g>
     </g>
     <g id="line2d_49">
      <g>
       <use style="stroke:#000000;stroke-width:0.5;" x="204.847058881" xlink:href="#m5284c7e2a0" y="21.6"/>
      </g>
     </g>
    </g>
    <g id="xtick_16">
     <g id="line2d_50">
      <g>
       <use style="stroke:#000000;stroke-width:0.5;" x="209.022479063" xlink:href="#m177f7580d0" y="116.64"/>
      </g>
     </g>
     <g id="line2d_51">
      <g>
       <use style="stroke:#000000;stroke-width:0.5;" x="209.022479063" xlink:href="#m5284c7e2a0" y="21.6"/>
      </g>
     </g>
    </g>
    <g id="xtick_17">
     <g id="line2d_52">
      <g>
       <use style="stroke:#000000;stroke-width:0.5;" x="212.70546068" xlink:href="#m177f7580d0" y="116.64"/>
      </g>
     </g>
     <g id="line2d_53">
      <g>
       <use style="stroke:#000000;stroke-width:0.5;" x="212.70546068" xlink:href="#m5284c7e2a0" y="21.6"/>
      </g>
     </g>
    </g>
    <g id="xtick_18">
     <g id="line2d_54">
      <g>
       <use style="stroke:#000000;stroke-width:0.5;" x="237.674159688" xlink:href="#m177f7580d0" y="116.64"/>
      </g>
     </g>
     <g id="line2d_55">
      <g>
       <use style="stroke:#000000;stroke-width:0.5;" x="237.674159688" xlink:href="#m5284c7e2a0" y="21.6"/>
      </g>
     </g>
    </g>
    <g id="xtick_19">
     <g id="line2d_56">
      <g>
       <use style="stroke:#000000;stroke-width:0.5;" x="250.35273034" xlink:href="#m177f7580d0" y="116.64"/>
      </g>
     </g>
     <g id="line2d_57">
      <g>
       <use style="stroke:#000000;stroke-width:0.5;" x="250.35273034" xlink:href="#m5284c7e2a0" y="21.6"/>
      </g>
     </g>
    </g>
    <g id="xtick_20">
     <g id="line2d_58">
      <g>
       <use style="stroke:#000000;stroke-width:0.5;" x="259.348319376" xlink:href="#m177f7580d0" y="116.64"/>
      </g>
     </g>
     <g id="line2d_59">
      <g>
       <use style="stroke:#000000;stroke-width:0.5;" x="259.348319376" xlink:href="#m5284c7e2a0" y="21.6"/>
      </g>
     </g>
    </g>
    <g id="xtick_21">
     <g id="line2d_60">
      <g>
       <use style="stroke:#000000;stroke-width:0.5;" x="266.325840312" xlink:href="#m177f7580d0" y="116.64"/>
      </g>
     </g>
     <g id="line2d_61">
      <g>
       <use style="stroke:#000000;stroke-width:0.5;" x="266.325840312" xlink:href="#m5284c7e2a0" y="21.6"/>
      </g>
     </g>
    </g>
    <g id="xtick_22">
     <g id="line2d_62">
      <g>
       <use style="stroke:#000000;stroke-width:0.5;" x="272.026890028" xlink:href="#m177f7580d0" y="116.64"/>
      </g>
     </g>
     <g id="line2d_63">
      <g>
       <use style="stroke:#000000;stroke-width:0.5;" x="272.026890028" xlink:href="#m5284c7e2a0" y="21.6"/>
      </g>
     </g>
    </g>
    <g id="xtick_23">
     <g id="line2d_64">
      <g>
       <use style="stroke:#000000;stroke-width:0.5;" x="276.847058881" xlink:href="#m177f7580d0" y="116.64"/>
      </g>
     </g>
     <g id="line2d_65">
      <g>
       <use style="stroke:#000000;stroke-width:0.5;" x="276.847058881" xlink:href="#m5284c7e2a0" y="21.6"/>
      </g>
     </g>
    </g>
    <g id="xtick_24">
     <g id="line2d_66">
      <g>
       <use style="stroke:#000000;stroke-width:0.5;" x="281.022479063" xlink:href="#m177f7580d0" y="116.64"/>
      </g>
     </g>
     <g id="line2d_67">
      <g>
       <use style="stroke:#000000;stroke-width:0.5;" x="281.022479063" xlink:href="#m5284c7e2a0" y="21.6"/>
      </g>
     </g>
    </g>
    <g id="xtick_25">
     <g id="line2d_68">
      <g>
       <use style="stroke:#000000;stroke-width:0.5;" x="284.70546068" xlink:href="#m177f7580d0" y="116.64"/>
      </g>
     </g>
     <g id="line2d_69">
      <g>
       <use style="stroke:#000000;stroke-width:0.5;" x="284.70546068" xlink:href="#m5284c7e2a0" y="21.6"/>
      </g>
     </g>
    </g>
    <g id="text_21">
     <!-- $s_d$ -->
     <g transform="translate(208.671106702 156.8575898)scale(0.18 -0.18)">
      <use transform="translate(0.0 14.9439145441)scale(0.996264009963)" xlink:href="#CMMI12-115"/>
      <use transform="translate(45.9500475512 0.0)scale(0.697381766617)" xlink:href="#CMMI12-100"/>
     </g>
    </g>
   </g>
   <g id="matplotlib.axis_4">
    <g id="ytick_7">
     <g id="line2d_70">
      <g>
       <use style="stroke:#000000;stroke-width:0.5;" x="144.0" xlink:href="#m728421d6d4" y="116.64"/>
      </g>
     </g>
     <g id="line2d_71">
      <g>
       <use style="stroke:#000000;stroke-width:0.5;" x="288.0" xlink:href="#mcb0005524f" y="116.64"/>
      </g>
     </g>
     <g id="text_22">
      <!-- $10^{-4}$ -->
      <g transform="translate(104.047161402 121.616333865)scale(0.2 -0.2)">
       <use transform="scale(0.996264009963)" xlink:href="#CMR17-49"/>
       <use transform="translate(45.6904771171 0.0)scale(0.996264009963)" xlink:href="#CMR17-48"/>
       <use transform="translate(91.3809542341 36.1536389419)scale(0.697381766617)" xlink:href="#CMSY10-0"/>
       <use transform="translate(145.621947482 36.1536389419)scale(0.697381766617)" xlink:href="#CMR17-52"/>
      </g>
     </g>
    </g>
    <g id="ytick_8">
     <g id="line2d_72">
      <g>
       <use style="stroke:#000000;stroke-width:0.5;" x="144.0" xlink:href="#m728421d6d4" y="83.9024684643"/>
      </g>
     </g>
     <g id="line2d_73">
      <g>
       <use style="stroke:#000000;stroke-width:0.5;" x="288.0" xlink:href="#mcb0005524f" y="83.9024684643"/>
      </g>
     </g>
     <g id="text_23">
      <!-- $10^{-3}$ -->
      <g transform="translate(104.047161402 88.8788023295)scale(0.2 -0.2)">
       <use transform="scale(0.996264009963)" xlink:href="#CMR17-49"/>
       <use transform="translate(45.6904771171 0.0)scale(0.996264009963)" xlink:href="#CMR17-48"/>
       <use transform="translate(91.3809542341 36.1536389419)scale(0.697381766617)" xlink:href="#CMSY10-0"/>
       <use transform="translate(145.621947482 36.1536389419)scale(0.697381766617)" xlink:href="#CMR17-51"/>
      </g>
     </g>
    </g>
    <g id="ytick_9">
     <g id="line2d_74">
      <g>
       <use style="stroke:#000000;stroke-width:0.5;" x="144.0" xlink:href="#m728421d6d4" y="51.1649369287"/>
      </g>
     </g>
     <g id="line2d_75">
      <g>
       <use style="stroke:#000000;stroke-width:0.5;" x="288.0" xlink:href="#mcb0005524f" y="51.1649369287"/>
      </g>
     </g>
     <g id="text_24">
      <!-- $10^{-2}$ -->
      <g transform="translate(104.047161402 56.1412707939)scale(0.2 -0.2)">
       <use transform="scale(0.996264009963)" xlink:href="#CMR17-49"/>
       <use transform="translate(45.6904771171 0.0)scale(0.996264009963)" xlink:href="#CMR17-48"/>
       <use transform="translate(91.3809542341 36.1536389419)scale(0.697381766617)" xlink:href="#CMSY10-0"/>
       <use transform="translate(145.621947482 36.1536389419)scale(0.697381766617)" xlink:href="#CMR17-50"/>
      </g>
     </g>
    </g>
    <g id="ytick_10">
     <g id="line2d_76">
      <defs>
       <path d="
M0 0
L2 0" id="mf0c55a9a47" style="stroke:#000000;stroke-width:0.5;"/>
      </defs>
      <g>
       <use style="stroke:#000000;stroke-width:0.5;" x="144.0" xlink:href="#mf0c55a9a47" y="106.785021024"/>
      </g>
     </g>
     <g id="line2d_77">
      <defs>
       <path d="
M0 0
L-2 0" id="ma4f294b3af" style="stroke:#000000;stroke-width:0.5;"/>
      </defs>
      <g>
       <use style="stroke:#000000;stroke-width:0.5;" x="288.0" xlink:href="#ma4f294b3af" y="106.785021024"/>
      </g>
     </g>
    </g>
    <g id="ytick_11">
     <g id="line2d_78">
      <g>
       <use style="stroke:#000000;stroke-width:0.5;" x="144.0" xlink:href="#mf0c55a9a47" y="101.020227877"/>
      </g>
     </g>
     <g id="line2d_79">
      <g>
       <use style="stroke:#000000;stroke-width:0.5;" x="288.0" xlink:href="#ma4f294b3af" y="101.020227877"/>
      </g>
     </g>
    </g>
    <g id="ytick_12">
     <g id="line2d_80">
      <g>
       <use style="stroke:#000000;stroke-width:0.5;" x="144.0" xlink:href="#mf0c55a9a47" y="96.9300420475"/>
      </g>
     </g>
     <g id="line2d_81">
      <g>
       <use style="stroke:#000000;stroke-width:0.5;" x="288.0" xlink:href="#ma4f294b3af" y="96.9300420475"/>
      </g>
     </g>
    </g>
    <g id="ytick_13">
     <g id="line2d_82">
      <g>
       <use style="stroke:#000000;stroke-width:0.5;" x="144.0" xlink:href="#mf0c55a9a47" y="93.7574474406"/>
      </g>
     </g>
     <g id="line2d_83">
      <g>
       <use style="stroke:#000000;stroke-width:0.5;" x="288.0" xlink:href="#ma4f294b3af" y="93.7574474406"/>
      </g>
     </g>
    </g>
    <g id="ytick_14">
     <g id="line2d_84">
      <g>
       <use style="stroke:#000000;stroke-width:0.5;" x="144.0" xlink:href="#mf0c55a9a47" y="91.1652489011"/>
      </g>
     </g>
     <g id="line2d_85">
      <g>
       <use style="stroke:#000000;stroke-width:0.5;" x="288.0" xlink:href="#ma4f294b3af" y="91.1652489011"/>
      </g>
     </g>
    </g>
    <g id="ytick_15">
     <g id="line2d_86">
      <g>
       <use style="stroke:#000000;stroke-width:0.5;" x="144.0" xlink:href="#mf0c55a9a47" y="88.9735762643"/>
      </g>
     </g>
     <g id="line2d_87">
      <g>
       <use style="stroke:#000000;stroke-width:0.5;" x="288.0" xlink:href="#ma4f294b3af" y="88.9735762643"/>
      </g>
     </g>
    </g>
    <g id="ytick_16">
     <g id="line2d_88">
      <g>
       <use style="stroke:#000000;stroke-width:0.5;" x="144.0" xlink:href="#mf0c55a9a47" y="87.0750630713"/>
      </g>
     </g>
     <g id="line2d_89">
      <g>
       <use style="stroke:#000000;stroke-width:0.5;" x="288.0" xlink:href="#ma4f294b3af" y="87.0750630713"/>
      </g>
     </g>
    </g>
    <g id="ytick_17">
     <g id="line2d_90">
      <g>
       <use style="stroke:#000000;stroke-width:0.5;" x="144.0" xlink:href="#mf0c55a9a47" y="85.4004557546"/>
      </g>
     </g>
     <g id="line2d_91">
      <g>
       <use style="stroke:#000000;stroke-width:0.5;" x="288.0" xlink:href="#ma4f294b3af" y="85.4004557546"/>
      </g>
     </g>
    </g>
    <g id="ytick_18">
     <g id="line2d_92">
      <g>
       <use style="stroke:#000000;stroke-width:0.5;" x="144.0" xlink:href="#mf0c55a9a47" y="74.0474894881"/>
      </g>
     </g>
     <g id="line2d_93">
      <g>
       <use style="stroke:#000000;stroke-width:0.5;" x="288.0" xlink:href="#ma4f294b3af" y="74.0474894881"/>
      </g>
     </g>
    </g>
    <g id="ytick_19">
     <g id="line2d_94">
      <g>
       <use style="stroke:#000000;stroke-width:0.5;" x="144.0" xlink:href="#mf0c55a9a47" y="68.2826963416"/>
      </g>
     </g>
     <g id="line2d_95">
      <g>
       <use style="stroke:#000000;stroke-width:0.5;" x="288.0" xlink:href="#ma4f294b3af" y="68.2826963416"/>
      </g>
     </g>
    </g>
    <g id="ytick_20">
     <g id="line2d_96">
      <g>
       <use style="stroke:#000000;stroke-width:0.5;" x="144.0" xlink:href="#mf0c55a9a47" y="64.1925105119"/>
      </g>
     </g>
     <g id="line2d_97">
      <g>
       <use style="stroke:#000000;stroke-width:0.5;" x="288.0" xlink:href="#ma4f294b3af" y="64.1925105119"/>
      </g>
     </g>
    </g>
    <g id="ytick_21">
     <g id="line2d_98">
      <g>
       <use style="stroke:#000000;stroke-width:0.5;" x="144.0" xlink:href="#mf0c55a9a47" y="61.0199159049"/>
      </g>
     </g>
     <g id="line2d_99">
      <g>
       <use style="stroke:#000000;stroke-width:0.5;" x="288.0" xlink:href="#ma4f294b3af" y="61.0199159049"/>
      </g>
     </g>
    </g>
    <g id="ytick_22">
     <g id="line2d_100">
      <g>
       <use style="stroke:#000000;stroke-width:0.5;" x="144.0" xlink:href="#mf0c55a9a47" y="58.4277173654"/>
      </g>
     </g>
     <g id="line2d_101">
      <g>
       <use style="stroke:#000000;stroke-width:0.5;" x="288.0" xlink:href="#ma4f294b3af" y="58.4277173654"/>
      </g>
     </g>
    </g>
    <g id="ytick_23">
     <g id="line2d_102">
      <g>
       <use style="stroke:#000000;stroke-width:0.5;" x="144.0" xlink:href="#mf0c55a9a47" y="56.2360447287"/>
      </g>
     </g>
     <g id="line2d_103">
      <g>
       <use style="stroke:#000000;stroke-width:0.5;" x="288.0" xlink:href="#ma4f294b3af" y="56.2360447287"/>
      </g>
     </g>
    </g>
    <g id="ytick_24">
     <g id="line2d_104">
      <g>
       <use style="stroke:#000000;stroke-width:0.5;" x="144.0" xlink:href="#mf0c55a9a47" y="54.3375315357"/>
      </g>
     </g>
     <g id="line2d_105">
      <g>
       <use style="stroke:#000000;stroke-width:0.5;" x="288.0" xlink:href="#ma4f294b3af" y="54.3375315357"/>
      </g>
     </g>
    </g>
    <g id="ytick_25">
     <g id="line2d_106">
      <g>
       <use style="stroke:#000000;stroke-width:0.5;" x="144.0" xlink:href="#mf0c55a9a47" y="52.6629242189"/>
      </g>
     </g>
     <g id="line2d_107">
      <g>
       <use style="stroke:#000000;stroke-width:0.5;" x="288.0" xlink:href="#ma4f294b3af" y="52.6629242189"/>
      </g>
     </g>
    </g>
    <g id="ytick_26">
     <g id="line2d_108">
      <g>
       <use style="stroke:#000000;stroke-width:0.5;" x="144.0" xlink:href="#mf0c55a9a47" y="41.3099579525"/>
      </g>
     </g>
     <g id="line2d_109">
      <g>
       <use style="stroke:#000000;stroke-width:0.5;" x="288.0" xlink:href="#ma4f294b3af" y="41.3099579525"/>
      </g>
     </g>
    </g>
    <g id="ytick_27">
     <g id="line2d_110">
      <g>
       <use style="stroke:#000000;stroke-width:0.5;" x="144.0" xlink:href="#mf0c55a9a47" y="35.545164806"/>
      </g>
     </g>
     <g id="line2d_111">
      <g>
       <use style="stroke:#000000;stroke-width:0.5;" x="288.0" xlink:href="#ma4f294b3af" y="35.545164806"/>
      </g>
     </g>
    </g>
    <g id="ytick_28">
     <g id="line2d_112">
      <g>
       <use style="stroke:#000000;stroke-width:0.5;" x="144.0" xlink:href="#mf0c55a9a47" y="31.4549789762"/>
      </g>
     </g>
     <g id="line2d_113">
      <g>
       <use style="stroke:#000000;stroke-width:0.5;" x="288.0" xlink:href="#ma4f294b3af" y="31.4549789762"/>
      </g>
     </g>
    </g>
    <g id="ytick_29">
     <g id="line2d_114">
      <g>
       <use style="stroke:#000000;stroke-width:0.5;" x="144.0" xlink:href="#mf0c55a9a47" y="28.2823843693"/>
      </g>
     </g>
     <g id="line2d_115">
      <g>
       <use style="stroke:#000000;stroke-width:0.5;" x="288.0" xlink:href="#ma4f294b3af" y="28.2823843693"/>
      </g>
     </g>
    </g>
    <g id="ytick_30">
     <g id="line2d_116">
      <g>
       <use style="stroke:#000000;stroke-width:0.5;" x="144.0" xlink:href="#mf0c55a9a47" y="25.6901858297"/>
      </g>
     </g>
     <g id="line2d_117">
      <g>
       <use style="stroke:#000000;stroke-width:0.5;" x="288.0" xlink:href="#ma4f294b3af" y="25.6901858297"/>
      </g>
     </g>
    </g>
    <g id="ytick_31">
     <g id="line2d_118">
      <g>
       <use style="stroke:#000000;stroke-width:0.5;" x="144.0" xlink:href="#mf0c55a9a47" y="23.498513193"/>
      </g>
     </g>
     <g id="line2d_119">
      <g>
       <use style="stroke:#000000;stroke-width:0.5;" x="288.0" xlink:href="#ma4f294b3af" y="23.498513193"/>
      </g>
     </g>
    </g>
    <g id="ytick_32">
     <g id="line2d_120">
      <g>
       <use style="stroke:#000000;stroke-width:0.5;" x="144.0" xlink:href="#mf0c55a9a47" y="21.6"/>
      </g>
     </g>
     <g id="line2d_121">
      <g>
       <use style="stroke:#000000;stroke-width:0.5;" x="288.0" xlink:href="#ma4f294b3af" y="21.6"/>
      </g>
     </g>
    </g>
    <g id="text_25">
     <!-- $P_{interm}$ -->
     <defs>
      <path d="
M38.9062 40.8125
C35.7969 40.2188 34.2031 38.0156 34.2031 35.8281
C34.2031 33.4219 36.0938 32.625 37.5 32.625
C40.2969 32.625 42.5938 35.0312 42.5938 38.0156
C42.5938 41.2188 39.5 44 34.5 44
C30.5 44 25.9062 42.2031 21.7031 36.125
C21 41.4062 17 44 13 44
C9.09375 44 7.09375 41.0156 5.90625 38.8125
C4.20312 35.2188 2.70312 29.2344 2.70312 28.7344
C2.70312 28.3438 3.09375 27.8438 3.79688 27.8438
C4.59375 27.8438 4.70312 27.9375 5.29688 30.2344
C6.79688 36.2188 8.70312 42.0156 12.7031 42.0156
C15.0938 42.0156 15.7969 40.3125 15.7969 37.4219
C15.7969 35.2188 14.7969 31.3281 14.0938 28.2344
L11.2969 17.4688
C10.9062 15.5625 9.79688 11.0781 9.29688 9.28125
C8.59375 6.6875 7.5 2 7.5 1.5
C7.5 0.09375 8.59375 -1 10.0938 -1
C11.2031 -1 13.0938 -0.296875 13.7031 1.70312
C14 2.5 17.7031 17.5625 18.2969 19.8594
C18.7969 22.0469 19.4062 24.1562 19.9062 26.3438
C20.2969 27.7344 20.7031 29.3438 21 30.6406
C21.2969 31.5312 24 36.4219 26.5 38.625
C27.7031 39.7188 30.2969 42.0156 34.4062 42.0156
C36 42.0156 37.5938 41.7188 38.9062 40.8125" id="CMMI12-114"/>
      <path d="
M20.0938 40.0938
L29.2969 40.0938
C31.2031 40.0938 32.2031 40.0938 32.2031 41.8906
C32.2031 43 31.5938 43 29.5938 43
L20.7969 43
L24.5 57.6875
C24.9062 59.0781 24.9062 59.2812 24.9062 60
C24.9062 61.6094 23.5938 62.5 22.2969 62.5
C21.5 62.5 19.2031 62.2031 18.4062 58.9844
L14.5 43
L5.09375 43
C3.09375 43 2.20312 43 2.20312 41.0938
C2.20312 40.0938 2.90625 40.0938 4.79688 40.0938
L13.7031 40.0938
L7.09375 13.7656
C6.29688 10.2812 6 9.28125 6 7.98438
C6 3.29688 9.29688 -1 14.9062 -1
C25 -1 30.4062 13.5781 30.4062 14.2656
C30.4062 14.875 30 15.1719 29.4062 15.1719
C29.2031 15.1719 28.7969 15.1719 28.5938 14.7656
C28.5 14.6719 28.4062 14.5625 27.7031 12.9688
C25.5938 7.98438 21 1 15.2031 1
C12.2031 1 12 3.5 12 5.6875
C12 5.78125 12 7.6875 12.2969 8.875
z
" id="CMMI12-116"/>
      <path d="
M20.5938 29.2344
C20.7969 29.8438 23.2969 34.8281 27 38.0156
C29.5938 40.4062 33 42.0156 36.9062 42.0156
C40.9062 42.0156 42.2969 39.0156 42.2969 35.0312
C42.2969 34.4219 42.2969 32.4375 41.0938 27.7344
L38.5938 17.4688
C37.7969 14.4688 35.9062 7.07812 35.7031 5.98438
C35.2969 4.48438 34.7031 1.89062 34.7031 1.5
C34.7031 0.09375 35.7969 -1 37.2969 -1
C40.2969 -1 40.7969 1.29688 41.7031 4.89062
L47.7031 28.7344
C47.9062 29.5312 53.0938 42.0156 64.0938 42.0156
C68.0938 42.0156 69.5 39.0156 69.5 35.0312
C69.5 29.4375 65.5938 18.5625 63.4062 12.5781
C62.5 10.1719 62 8.875 62 7.07812
C62 2.59375 65.0938 -1 69.9062 -1
C79.2031 -1 82.7031 13.6719 82.7031 14.2656
C82.7031 14.7656 82.2969 15.1719 81.7031 15.1719
C80.7969 15.1719 80.7031 14.875 80.2031 13.1719
C77.9062 5.1875 74.2031 1 70.2031 1
C69.2031 1 67.5938 1 67.5938 4.20312
C67.5938 6.8125 68.7969 10 69.2031 11.0938
C71 15.9062 75.5 27.7031 75.5 33.5156
C75.5 39.5 72 44 64.4062 44
C57.7031 44 52.2969 40.2188 48.2969 34.3281
C48 39.7188 44.7031 44 37.2031 44
C28.2969 44 23.5938 37.7344 21.7969 35.2344
C21.5 40.9062 17.4062 44 13 44
C10.0938 44 7.79688 42.6094 5.90625 38.8125
C4.09375 35.2188 2.70312 29.1406 2.70312 28.7344
C2.70312 28.3438 3.09375 27.8438 3.79688 27.8438
C4.59375 27.8438 4.70312 27.9375 5.29688 30.2344
C6.79688 36.125 8.70312 42.0156 12.7031 42.0156
C15 42.0156 15.7969 40.4062 15.7969 37.4219
C15.7969 35.2188 14.7969 31.3281 14.0938 28.2344
L11.2969 17.4688
C10.9062 15.5625 9.79688 11.0781 9.29688 9.28125
C8.59375 6.6875 7.5 2 7.5 1.5
C7.5 0.09375 8.59375 -1 10.0938 -1
C11.2969 -1 12.7031 -0.40625 13.5 1.09375
C13.7031 1.59375 14.5938 5.09375 15.0938 7.07812
L17.2969 16.0625
z
" id="CMMI12-109"/>
      <path d="
M20.5938 29.2344
C20.7969 29.8438 23.2969 34.8281 27 38.0156
C29.5938 40.4062 33 42.0156 36.9062 42.0156
C40.9062 42.0156 42.2969 39.0156 42.2969 35.0312
C42.2969 29.3438 38.2031 17.9688 36.2031 12.5781
C35.2969 10.1719 34.7969 8.875 34.7969 7.07812
C34.7969 2.59375 37.9062 -1 42.7031 -1
C52 -1 55.5 13.6719 55.5 14.2656
C55.5 14.7656 55.0938 15.1719 54.5 15.1719
C53.5938 15.1719 53.5 14.875 53 13.1719
C50.7031 4.98438 46.9062 1 43 1
C42 1 40.4062 1 40.4062 4.20312
C40.4062 6.70312 41.5 9.70312 42.0938 11.0938
C44.0938 16.6094 48.2969 27.8125 48.2969 33.5156
C48.2969 39.5 44.7969 44 37.2031 44
C28.2969 44 23.5938 37.7344 21.7969 35.2344
C21.5 40.9062 17.4062 44 13 44
C9.79688 44 7.59375 42.1094 5.90625 38.7188
C4.09375 35.125 2.70312 29.1406 2.70312 28.7344
C2.70312 28.3438 3.09375 27.8438 3.79688 27.8438
C4.59375 27.8438 4.70312 27.9375 5.29688 30.2344
C6.90625 36.3281 8.70312 42.0156 12.7031 42.0156
C15 42.0156 15.7969 40.4062 15.7969 37.4219
C15.7969 35.2188 14.7969 31.3281 14.0938 28.2344
L11.2969 17.4688
C10.9062 15.5625 9.79688 11.0781 9.29688 9.28125
C8.59375 6.6875 7.5 2 7.5 1.5
C7.5 0.09375 8.59375 -1 10.0938 -1
C11.2969 -1 12.7031 -0.40625 13.5 1.09375
C13.7031 1.59375 14.5938 5.09375 15.0938 7.07812
L17.2969 16.0625
z
" id="CMMI12-110"/>
      <path d="
M17.9062 23.1094
C20.5938 23.1094 27.4062 23.1094 32.2031 24.9219
C39.7969 27.8594 40.5 33.7188 40.5 35.5312
C40.5 39.9688 36.7031 44 30.0938 44
C19.5938 44 4.5 34.5312 4.5 16.7656
C4.5 6.28125 10.5 -1 19.5938 -1
C33.2031 -1 41.7969 9.53125 41.7969 10.8125
C41.7969 11.4062 41.2031 11.9062 40.7969 11.9062
C40.5 11.9062 40.4062 11.8125 39.5 10.9219
C33.0938 2.48438 23.5938 1 19.7969 1
C14.0938 1 11.0938 5.46875 11.0938 12.8438
C11.0938 14.2344 11.0938 16.7344 12.5938 23.1094
z

M13.0938 25
C17.4062 40.5 26.9062 42.0156 30.0938 42.0156
C34.5 42.0156 37.5 39.4062 37.5 35.5781
C37.5 25 21.5 25 17.2969 25
z
" id="CMMI12-101"/>
     </defs>
     <g transform="translate(95.2275919647 93.9273630137)rotate(-90.0)scale(0.18 -0.18)">
      <use transform="translate(0.0 14.9439145441)scale(0.996264009963)" xlink:href="#CMMI12-80"/>
      <use transform="translate(62.8772322297 0.0)scale(0.697381766617)" xlink:href="#CMMI12-105"/>
      <use transform="translate(86.172139511 0.0)scale(0.697381766617)" xlink:href="#CMMI12-110"/>
      <use transform="translate(126.932982638 0.0)scale(0.697381766617)" xlink:href="#CMMI12-116"/>
      <use transform="translate(151.591292176 0.0)scale(0.697381766617)" xlink:href="#CMMI12-101"/>
      <use transform="translate(183.239548471 0.0)scale(0.697381766617)" xlink:href="#CMMI12-114"/>
      <use transform="translate(215.908817277 0.0)scale(0.697381766617)" xlink:href="#CMMI12-109"/>
     </g>
    </g>
   </g>
   <g id="patch_11">
    <path d="
M144 21.6
L288 21.6" style="fill:none;stroke:#000000;"/>
   </g>
   <g id="patch_12">
    <path d="
M288 116.64
L288 21.6" style="fill:none;stroke:#000000;"/>
   </g>
   <g id="patch_13">
    <path d="
M144 116.64
L288 116.64" style="fill:none;stroke:#000000;"/>
   </g>
   <g id="patch_14">
    <path d="
M144 116.64
L144 21.6" style="fill:none;stroke:#000000;"/>
   </g>
   <g id="text_26">
    <!-- observed -->
    <defs>
     <path d="
M5.40625 73
L5.40625 -0.03125
L12.9062 -0.03125
L12.9062 7
C16.9062 0.890625 22.2031 -2 29.5 -2
C43.2969 -2 52.2969 9.25 52.2969 26.5938
C52.2969 43.5312 43.7031 54 29.9062 54
C22.7031 54 17.5938 51.2812 13.7031 45.3906
L13.7031 73
z

M28.2969 46.1875
C37.5938 46.1875 43.5938 38.125 43.5938 25.7031
C43.5938 13.8594 37.4062 5.8125 28.2969 5.8125
C19.5 5.8125 13.7031 13.7656 13.7031 26
C13.7031 38.2344 19.5 46.1875 28.2969 46.1875" id="Nimbus_Sans_L_Regular-98"/>
     <path d="
M28.5 0
L48.5938 52.5
L39.2031 52.5
L24.4062 9.92188
L10.4062 52.5
L1 52.5
L19.4062 0
z
" id="Nimbus_Sans_L_Regular-118"/>
     <path d="
M27.2031 54
C12.5 54 3.59375 43.5312 3.59375 26
C3.59375 8.45312 12.4062 -2 27.2969 -2
C42 -2 51 8.45312 51 25.5938
C51 43.6406 42.2969 54 27.2031 54
M27.2969 46.2812
C36.7031 46.2812 42.2969 38.625 42.2969 25.7031
C42.2969 13.4531 36.5 5.70312 27.2969 5.70312
C18 5.70312 12.2969 13.3594 12.2969 26
C12.2969 38.5312 18 46.2812 27.2969 46.2812" id="Nimbus_Sans_L_Regular-111"/>
     <path d="
M51.2969 24
C51.2969 31.875 50.7031 36.5938 49.2031 40.4219
C45.7969 48.875 37.7969 54 28 54
C13.4062 54 4 42.8438 4 25.7031
C4 8.54688 13.0938 -2 27.7969 -2
C39.7969 -2 48.0938 4.875 50.2031 16.375
L41.7969 16.375
C39.5 9.35938 34.7969 5.70312 28.0938 5.70312
C22.7969 5.70312 18.2969 8.14062 15.5 12.6094
C13.5 15.6562 12.7969 18.7188 12.7031 24
z

M12.9062 30.8125
C13.5938 40.1875 19.5 46.2812 27.9062 46.2812
C36.0938 46.2812 42.4062 39.7031 42.4062 31.4062
C42.4062 31.2031 42.4062 31.0156 42.2969 30.8125
z
" id="Nimbus_Sans_L_Regular-101"/>
     <path d="
M49.5 73
L41.2031 73
L41.2031 45.8906
C37.7031 51.1875 32.0938 54 25.0938 54
C11.5 54 2.59375 43.1406 2.59375 26.4844
C2.59375 8.84375 11.2969 -2 25.4062 -2
C32.5938 -2 37.5938 0.703125 42.0938 7.20312
L42.0938 -0.03125
L49.5 -0.03125
z

M26.5 46.1875
C35.5 46.1875 41.2031 38.2344 41.2031 25.7969
C41.2031 13.7656 35.4062 5.8125 26.5938 5.8125
C17.4062 5.8125 11.2969 13.8594 11.2969 26
C11.2969 38.125 17.4062 46.1875 26.5 46.1875" id="Nimbus_Sans_L_Regular-100"/>
     <path d="
M6.90625 52.4844
L6.90625 0
L15.2969 0
L15.2969 27.25
C15.2969 34.7656 17.2031 39.6719 21.2031 42.5781
C23.7969 44.4844 26.2969 45.0781 32.0938 45.0781
L32.0938 53.7031
C30.7031 53.8906 30 54 28.9062 54
C23.5 54 19.4062 50.7812 14.5938 42.9688
L14.5938 52.4844
z
" id="Nimbus_Sans_L_Regular-114"/>
     <path d="
M43.7969 37.9219
C43.7031 48.2031 36.9062 54 24.7969 54
C12.5938 54 4.70312 47.7188 4.70312 38.0625
C4.70312 29.8906 8.90625 26.0156 21.2969 23.0312
L29.0938 21.1406
C34.9062 19.7344 37.2031 17.6562 37.2031 13.875
C37.2031 9 32.2969 5.70312 25 5.70312
C20.5 5.70312 16.7031 7 14.5938 9.1875
C13.2969 10.6875 12.7031 12.1719 12.2031 15.8438
L3.40625 15.8438
C3.79688 3.76562 10.5938 -2 24.2969 -2
C37.5 -2 45.9062 4.45312 45.9062 14.5156
C45.9062 22.2812 41.5 26.5781 31.0938 29.0625
L23.0938 30.9531
C16.2969 32.5312 13.4062 34.7344 13.4062 38.4062
C13.4062 43.1875 17.7031 46.2812 24.5 46.2812
C31.2031 46.2812 34.7969 43.3906 35 37.9219
z
" id="Nimbus_Sans_L_Regular-115"/>
    </defs>
    <g transform="translate(156.678570652 91.2590521292)scale(0.16 -0.16)">
     <use transform="scale(0.996264009963)" xlink:href="#Nimbus_Sans_L_Regular-111"/>
     <use transform="translate(55.3916769633 0.0)scale(0.996264009963)" xlink:href="#Nimbus_Sans_L_Regular-98"/>
     <use transform="translate(110.783353927 0.0)scale(0.996264009963)" xlink:href="#Nimbus_Sans_L_Regular-115"/>
     <use transform="translate(160.596554425 0.0)scale(0.996264009963)" xlink:href="#Nimbus_Sans_L_Regular-101"/>
     <use transform="translate(215.988231388 0.0)scale(0.996264009963)" xlink:href="#Nimbus_Sans_L_Regular-114"/>
     <use transform="translate(252.151553865 0.0)scale(0.996264009963)" xlink:href="#Nimbus_Sans_L_Regular-118"/>
     <use transform="translate(299.474124742 0.0)scale(0.996264009963)" xlink:href="#Nimbus_Sans_L_Regular-101"/>
     <use transform="translate(354.865801706 0.0)scale(0.996264009963)" xlink:href="#Nimbus_Sans_L_Regular-100"/>
    </g>
    <!-- diversity -->
    <defs>
     <path d="
M15 52.4844
L6.70312 52.4844
L6.70312 0
L15 0
z

M15 73
L6.59375 73
L6.59375 62.4844
L15 62.4844
z
" id="Nimbus_Sans_L_Regular-105"/>
     <path d="
M38.7969 52.5
L24.2969 11.5312
L10.9062 52.5
L2 52.5
L19.7031 -0.328125
L16.5 -8.65625
C15.2031 -12.375 13.2969 -13.7812 9.79688 -13.7812
C8.59375 -13.7812 7.20312 -13.5781 5.40625 -13.1719
L5.40625 -20.7031
C7.09375 -21.5938 8.79688 -22 11 -22
C13.7031 -22 16.5938 -21.0938 18.7969 -19.4844
C21.4062 -17.5781 22.9062 -15.3594 24.5 -11.1406
L47.7969 52.5
z
" id="Nimbus_Sans_L_Regular-121"/>
     <path d="
M25.4062 52.8125
L16.7969 52.8125
L16.7969 67
L8.5 67
L8.5 52.8125
L1.40625 52.8125
L1.40625 46
L8.5 46
L8.5 6.3125
C8.5 1 12.0938 -2 18.5938 -2
C20.5938 -2 22.5938 -1.8125 25.4062 -1.29688
L25.4062 5.71875
C24.2969 5.40625 23 5.3125 21.4062 5.3125
C17.7969 5.3125 16.7969 6.3125 16.7969 10.0156
L16.7969 46
L25.4062 46
z
" id="Nimbus_Sans_L_Regular-116"/>
    </defs>
    <g transform="translate(156.678570652 108.283008314)scale(0.16 -0.16)">
     <use transform="scale(0.996264009963)" xlink:href="#Nimbus_Sans_L_Regular-100"/>
     <use transform="translate(55.3916769633 0.0)scale(0.996264009963)" xlink:href="#Nimbus_Sans_L_Regular-105"/>
     <use transform="translate(77.5084613121 0.0)scale(0.996264009963)" xlink:href="#Nimbus_Sans_L_Regular-118"/>
     <use transform="translate(124.831032189 0.0)scale(0.996264009963)" xlink:href="#Nimbus_Sans_L_Regular-101"/>
     <use transform="translate(180.222709152 0.0)scale(0.996264009963)" xlink:href="#Nimbus_Sans_L_Regular-114"/>
     <use transform="translate(213.397938882 0.0)scale(0.996264009963)" xlink:href="#Nimbus_Sans_L_Regular-115"/>
     <use transform="translate(263.21113938 0.0)scale(0.996264009963)" xlink:href="#Nimbus_Sans_L_Regular-105"/>
     <use transform="translate(285.327923728 0.0)scale(0.996264009963)" xlink:href="#Nimbus_Sans_L_Regular-116"/>
     <use transform="translate(313.023093332 0.0)scale(0.996264009963)" xlink:href="#Nimbus_Sans_L_Regular-121"/>
    </g>
   </g>
  </g>
  <g id="axes_3">
   <g id="patch_15">
    <path d="
M103.68 241.92
L216 241.92
L216 164.16
L103.68 164.16
z
" style="fill:#ffffff;"/>
   </g>
   <g id="PolyCollection_1">
    <defs>
     <path d="
M104.781 -190.842
L104.781 -190.842
L104.891 -190.842
L105.002 -190.842
L105.112 -190.842
L105.222 -190.842
L105.332 -190.842
L105.443 -190.842
L105.553 -190.842
L105.663 -190.842
L105.773 -190.843
L105.883 -190.843
L105.994 -190.843
L106.104 -190.843
L106.214 -190.843
L106.324 -190.843
L106.435 -190.843
L106.545 -190.843
L106.655 -190.843
L106.765 -190.844
L106.876 -190.844
L106.986 -190.844
L107.096 -190.844
L107.206 -190.845
L107.316 -190.845
L107.427 -190.845
L107.537 -190.846
L107.647 -190.846
L107.757 -190.846
L107.868 -190.847
L107.978 -190.847
L108.088 -190.848
L108.198 -190.849
L108.308 -190.849
L108.419 -190.85
L108.529 -190.851
L108.639 -190.851
L108.749 -190.852
L108.86 -190.853
L108.97 -190.854
L109.08 -190.855
L109.19 -190.856
L109.301 -190.857
L109.411 -190.858
L109.521 -190.859
L109.631 -190.86
L109.741 -190.861
L109.852 -190.863
L109.962 -190.864
L110.072 -190.866
L110.182 -190.867
L110.293 -190.869
L110.403 -190.87
L110.513 -190.872
L110.623 -190.874
L110.733 -190.875
L110.844 -190.877
L110.954 -190.879
L111.064 -190.881
L111.174 -190.883
L111.285 -190.885
L111.395 -190.888
L111.505 -190.89
L111.615 -190.892
L111.726 -190.895
L111.836 -190.897
L111.946 -190.9
L112.056 -190.903
L112.166 -190.905
L112.277 -190.908
L112.387 -190.911
L112.497 -190.914
L112.607 -190.917
L112.718 -190.921
L112.828 -190.924
L112.938 -190.927
L113.048 -190.931
L113.158 -190.934
L113.269 -190.938
L113.379 -190.942
L113.489 -190.946
L113.599 -190.95
L113.71 -190.954
L113.82 -190.958
L113.93 -190.962
L114.04 -190.967
L114.151 -190.971
L114.261 -190.976
L114.371 -190.981
L114.481 -190.985
L114.591 -190.99
L114.702 -190.995
L114.812 -191
L114.922 -191.006
L115.032 -191.011
L115.143 -191.017
L115.253 -191.022
L115.363 -191.028
L115.473 -191.034
L115.584 -191.04
L115.694 -191.046
L115.804 -191.052
L115.914 -191.059
L116.024 -191.065
L116.135 -191.072
L116.245 -191.078
L116.355 -191.085
L116.465 -191.092
L116.576 -191.099
L116.686 -191.107
L116.796 -191.114
L116.906 -191.122
L117.016 -191.129
L117.127 -191.137
L117.237 -191.145
L117.347 -191.153
L117.457 -191.161
L117.568 -191.17
L117.678 -191.178
L117.788 -191.187
L117.898 -191.196
L118.009 -191.205
L118.119 -191.214
L118.229 -191.223
L118.339 -191.233
L118.449 -191.242
L118.56 -191.252
L118.67 -191.262
L118.78 -191.272
L118.89 -191.282
L119.001 -191.293
L119.111 -191.303
L119.221 -191.314
L119.331 -191.325
L119.441 -191.336
L119.552 -191.347
L119.662 -191.359
L119.772 -191.37
L119.882 -191.382
L119.993 -191.394
L120.103 -191.406
L120.213 -191.418
L120.323 -191.431
L120.434 -191.443
L120.544 -191.456
L120.654 -191.469
L120.764 -191.482
L120.874 -191.495
L120.985 -191.509
L121.095 -191.523
L121.205 -191.536
L121.315 -191.55
L121.426 -191.565
L121.536 -191.579
L121.646 -191.594
L121.756 -191.609
L121.866 -191.624
L121.977 -191.639
L122.087 -191.654
L122.197 -191.67
L122.307 -191.686
L122.418 -191.702
L122.528 -191.718
L122.638 -191.734
L122.748 -191.751
L122.859 -191.768
L122.969 -191.785
L123.079 -191.802
L123.189 -191.82
L123.299 -191.837
L123.41 -191.855
L123.52 -191.873
L123.63 -191.891
L123.74 -191.91
L123.851 -191.929
L123.961 -191.948
L124.071 -191.967
L124.181 -191.986
L124.292 -192.006
L124.402 -192.026
L124.512 -192.046
L124.622 -192.066
L124.732 -192.087
L124.843 -192.107
L124.953 -192.128
L125.063 -192.149
L125.173 -192.171
L125.284 -192.193
L125.394 -192.214
L125.504 -192.237
L125.614 -192.259
L125.724 -192.281
L125.835 -192.304
L125.945 -192.327
L126.055 -192.351
L126.165 -192.374
L126.276 -192.398
L126.386 -192.422
L126.496 -192.446
L126.606 -192.471
L126.717 -192.496
L126.827 -192.521
L126.937 -192.546
L127.047 -192.572
L127.157 -192.598
L127.268 -192.624
L127.378 -192.65
L127.488 -192.677
L127.598 -192.703
L127.709 -192.73
L127.819 -192.758
L127.929 -192.785
L128.039 -192.813
L128.149 -192.842
L128.26 -192.87
L128.37 -192.899
L128.48 -192.928
L128.59 -192.957
L128.701 -192.986
L128.811 -193.016
L128.921 -193.046
L129.031 -193.077
L129.142 -193.107
L129.252 -193.138
L129.362 -193.169
L129.472 -193.201
L129.582 -193.232
L129.693 -193.264
L129.803 -193.297
L129.913 -193.329
L130.023 -193.362
L130.134 -193.395
L130.244 -193.429
L130.354 -193.462
L130.464 -193.496
L130.574 -193.531
L130.685 -193.565
L130.795 -193.6
L130.905 -193.635
L131.015 -193.671
L131.126 -193.707
L131.236 -193.743
L131.346 -193.779
L131.456 -193.816
L131.567 -193.853
L131.677 -193.89
L131.787 -193.928
L131.897 -193.966
L132.007 -194.004
L132.118 -194.043
L132.228 -194.082
L132.338 -194.121
L132.448 -194.16
L132.559 -194.2
L132.669 -194.24
L132.779 -194.281
L132.889 -194.321
L133 -194.363
L133.11 -194.404
L133.22 -194.446
L133.33 -194.488
L133.44 -194.53
L133.551 -194.573
L133.661 -194.616
L133.771 -194.659
L133.881 -194.703
L133.992 -194.747
L134.102 -194.791
L134.212 -194.836
L134.322 -194.881
L134.432 -194.926
L134.543 -194.972
L134.653 -195.018
L134.763 -195.065
L134.873 -195.111
L134.984 -195.158
L135.094 -195.206
L135.204 -195.254
L135.314 -195.302
L135.425 -195.35
L135.535 -195.399
L135.645 -195.448
L135.755 -195.498
L135.865 -195.548
L135.976 -195.598
L136.086 -195.649
L136.196 -195.699
L136.306 -195.751
L136.417 -195.802
L136.527 -195.854
L136.637 -195.907
L136.747 -195.96
L136.857 -196.013
L136.968 -196.066
L137.078 -196.12
L137.188 -196.174
L137.298 -196.229
L137.409 -196.284
L137.519 -196.339
L137.629 -196.395
L137.739 -196.451
L137.85 -196.507
L137.96 -196.564
L138.07 -196.622
L138.18 -196.679
L138.29 -196.737
L138.401 -196.795
L138.511 -196.854
L138.621 -196.913
L138.731 -196.973
L138.842 -197.033
L138.952 -197.093
L139.062 -197.154
L139.172 -197.215
L139.283 -197.276
L139.393 -197.338
L139.503 -197.4
L139.613 -197.463
L139.723 -197.526
L139.834 -197.59
L139.944 -197.653
L140.054 -197.718
L140.164 -197.782
L140.275 -197.847
L140.385 -197.913
L140.495 -197.979
L140.605 -198.045
L140.715 -198.112
L140.826 -198.179
L140.936 -198.246
L141.046 -198.314
L141.156 -198.383
L141.267 -198.451
L141.377 -198.521
L141.487 -198.59
L141.597 -198.66
L141.708 -198.731
L141.818 -198.801
L141.928 -198.873
L142.038 -198.944
L142.148 -199.017
L142.259 -199.089
L142.369 -199.162
L142.479 -199.235
L142.589 -199.309
L142.7 -199.384
L142.81 -199.458
L142.92 -199.533
L143.03 -199.609
L143.14 -199.685
L143.251 -199.761
L143.361 -199.838
L143.471 -199.916
L143.581 -199.993
L143.692 -200.072
L143.802 -200.15
L143.912 -200.229
L144.022 -200.309
L144.133 -200.389
L144.243 -200.469
L144.353 -200.55
L144.463 -200.632
L144.573 -200.713
L144.684 -200.796
L144.794 -200.878
L144.904 -200.962
L145.014 -201.045
L145.125 -201.129
L145.235 -201.214
L145.345 -201.299
L145.455 -201.384
L145.565 -201.47
L145.676 -201.557
L145.786 -201.644
L145.896 -201.731
L146.006 -201.819
L146.117 -201.907
L146.227 -201.996
L146.337 -202.085
L146.447 -202.175
L146.558 -202.265
L146.668 -202.356
L146.778 -202.447
L146.888 -202.538
L146.998 -202.63
L147.109 -202.723
L147.219 -202.816
L147.329 -202.91
L147.439 -203.004
L147.55 -203.098
L147.66 -203.193
L147.77 -203.289
L147.88 -203.385
L147.991 -203.481
L148.101 -203.578
L148.211 -203.675
L148.321 -203.773
L148.431 -203.872
L148.542 -203.971
L148.652 -204.07
L148.762 -204.17
L148.872 -204.271
L148.983 -204.372
L149.093 -204.473
L149.203 -204.575
L149.313 -204.678
L149.423 -204.781
L149.534 -204.884
L149.644 -204.988
L149.754 -205.093
L149.864 -205.198
L149.975 -205.303
L150.085 -205.409
L150.195 -205.516
L150.305 -205.623
L150.416 -205.731
L150.526 -205.839
L150.636 -205.947
L150.746 -206.057
L150.856 -206.166
L150.967 -206.277
L151.077 -206.387
L151.187 -206.499
L151.297 -206.611
L151.408 -206.723
L151.518 -206.836
L151.628 -206.949
L151.738 -207.063
L151.848 -207.178
L151.959 -207.293
L152.069 -207.408
L152.179 -207.524
L152.289 -207.641
L152.4 -207.758
L152.51 -207.876
L152.62 -207.994
L152.73 -208.113
L152.841 -208.232
L152.951 -208.352
L153.061 -208.473
L153.171 -208.594
L153.281 -208.716
L153.392 -208.838
L153.502 -208.96
L153.612 -209.084
L153.722 -209.207
L153.833 -209.332
L153.943 -209.457
L154.053 -209.582
L154.163 -209.708
L154.273 -209.835
L154.384 -209.962
L154.494 -210.09
L154.604 -210.218
L154.714 -210.347
L154.825 -210.476
L154.935 -210.606
L155.045 -210.737
L155.155 -210.868
L155.266 -211
L155.376 -211.132
L155.486 -211.265
L155.596 -211.399
L155.706 -211.533
L155.817 -211.667
L155.927 -211.803
L156.037 -211.938
L156.147 -212.075
L156.258 -212.212
L156.368 -212.349
L156.478 -212.488
L156.588 -212.626
L156.699 -212.766
L156.809 -212.906
L156.919 -213.046
L157.029 -213.187
L157.139 -213.329
L157.25 -213.471
L157.36 -213.614
L157.47 -213.758
L157.58 -213.902
L157.691 -214.047
L157.801 -214.192
L157.911 -214.338
L158.021 -214.484
L158.131 -214.632
L158.242 -214.779
L158.352 -214.928
L158.462 -215.077
L158.572 -215.226
L158.683 -215.376
L158.793 -215.527
L158.903 -215.679
L159.013 -215.831
L159.124 -215.983
L159.234 -216.137
L159.344 -216.291
L159.454 -216.445
L159.564 -216.6
L159.675 -216.756
L159.785 -216.913
L159.895 -217.07
L160.005 -217.227
L160.116 -217.386
L160.226 -217.545
L160.336 -217.704
L160.446 -217.864
L160.556 -218.025
L160.667 -218.187
L160.777 -218.349
L160.887 -218.512
L160.997 -218.675
L161.108 -218.839
L161.218 -219.004
L161.328 -219.169
L161.438 -219.335
L161.549 -219.502
L161.659 -219.669
L161.769 -219.837
L161.879 -220.005
L161.989 -220.175
L162.1 -220.345
L162.21 -220.515
L162.32 -220.686
L162.43 -220.858
L162.541 -221.031
L162.651 -221.204
L162.761 -221.378
L162.871 -221.552
L162.981 -221.727
L163.092 -221.903
L163.202 -222.079
L163.312 -222.257
L163.422 -222.434
L163.533 -222.613
L163.643 -222.792
L163.753 -222.972
L163.863 -223.152
L163.974 -223.334
L164.084 -223.515
L164.194 -223.698
L164.304 -223.881
L164.414 -224.065
L164.525 -224.25
L164.635 -224.435
L164.745 -224.621
L164.855 -224.807
L164.966 -224.995
L165.076 -225.183
L165.186 -225.371
L165.296 -225.561
L165.407 -225.751
L165.517 -225.942
L165.627 -226.133
L165.737 -226.325
L165.847 -226.518
L165.958 -226.712
L166.068 -226.906
L166.178 -227.101
L166.288 -227.296
L166.399 -227.493
L166.509 -227.69
L166.619 -227.888
L166.729 -228.086
L166.839 -228.285
L166.95 -228.485
L167.06 -228.686
L167.17 -228.887
L167.28 -229.089
L167.391 -229.292
L167.501 -229.495
L167.611 -229.699
L167.721 -229.904
L167.832 -230.11
L167.942 -230.316
L168.052 -230.523
L168.162 -230.731
L168.272 -230.939
L168.383 -231.148
L168.493 -231.358
L168.603 -231.569
L168.713 -231.78
L168.824 -231.993
L168.934 -232.205
L169.044 -232.419
L169.154 -232.633
L169.264 -232.848
L169.375 -233.064
L169.485 -233.281
L169.595 -233.498
L169.705 -233.716
L169.816 -233.935
L169.926 -234.154
L170.036 -234.374
L170.146 -234.595
L170.257 -234.817
L170.367 -235.04
L170.477 -235.263
L170.587 -235.487
L170.697 -235.711
L170.808 -235.937
L170.918 -236.163
L171.028 -236.39
L171.138 -236.618
L171.249 -236.846
L171.249 -236.858
L171.249 -236.858
L171.138 -236.782
L171.028 -236.706
L170.918 -236.629
L170.808 -236.553
L170.697 -236.477
L170.587 -236.4
L170.477 -236.324
L170.367 -236.248
L170.257 -236.171
L170.146 -236.095
L170.036 -236.019
L169.926 -235.943
L169.816 -235.866
L169.705 -235.79
L169.595 -235.714
L169.485 -235.637
L169.375 -235.561
L169.264 -235.485
L169.154 -235.408
L169.044 -235.332
L168.934 -235.256
L168.824 -235.179
L168.713 -235.103
L168.603 -235.027
L168.493 -234.95
L168.383 -234.874
L168.272 -234.798
L168.162 -234.722
L168.052 -234.645
L167.942 -234.569
L167.832 -234.493
L167.721 -234.416
L167.611 -234.34
L167.501 -234.264
L167.391 -234.187
L167.28 -234.111
L167.17 -234.035
L167.06 -233.958
L166.95 -233.882
L166.839 -233.806
L166.729 -233.729
L166.619 -233.653
L166.509 -233.577
L166.399 -233.501
L166.288 -233.424
L166.178 -233.348
L166.068 -233.272
L165.958 -233.195
L165.847 -233.119
L165.737 -233.043
L165.627 -232.966
L165.517 -232.89
L165.407 -232.814
L165.296 -232.737
L165.186 -232.661
L165.076 -232.585
L164.966 -232.508
L164.855 -232.432
L164.745 -232.356
L164.635 -232.28
L164.525 -232.203
L164.414 -232.127
L164.304 -232.051
L164.194 -231.974
L164.084 -231.898
L163.974 -231.822
L163.863 -231.745
L163.753 -231.669
L163.643 -231.593
L163.533 -231.516
L163.422 -231.44
L163.312 -231.364
L163.202 -231.288
L163.092 -231.211
L162.981 -231.135
L162.871 -231.059
L162.761 -230.982
L162.651 -230.906
L162.541 -230.83
L162.43 -230.753
L162.32 -230.677
L162.21 -230.601
L162.1 -230.524
L161.989 -230.448
L161.879 -230.372
L161.769 -230.295
L161.659 -230.219
L161.549 -230.143
L161.438 -230.067
L161.328 -229.99
L161.218 -229.914
L161.108 -229.838
L160.997 -229.761
L160.887 -229.685
L160.777 -229.609
L160.667 -229.532
L160.556 -229.456
L160.446 -229.38
L160.336 -229.303
L160.226 -229.227
L160.116 -229.151
L160.005 -229.074
L159.895 -228.998
L159.785 -228.922
L159.675 -228.846
L159.564 -228.769
L159.454 -228.693
L159.344 -228.617
L159.234 -228.54
L159.124 -228.464
L159.013 -228.388
L158.903 -228.311
L158.793 -228.235
L158.683 -228.159
L158.572 -228.082
L158.462 -228.006
L158.352 -227.93
L158.242 -227.853
L158.131 -227.777
L158.021 -227.701
L157.911 -227.625
L157.801 -227.548
L157.691 -227.472
L157.58 -227.396
L157.47 -227.319
L157.36 -227.243
L157.25 -227.167
L157.139 -227.09
L157.029 -227.014
L156.919 -226.938
L156.809 -226.861
L156.699 -226.785
L156.588 -226.709
L156.478 -226.632
L156.368 -226.556
L156.258 -226.48
L156.147 -226.404
L156.037 -226.327
L155.927 -226.251
L155.817 -226.175
L155.706 -226.098
L155.596 -226.022
L155.486 -225.946
L155.376 -225.869
L155.266 -225.793
L155.155 -225.717
L155.045 -225.64
L154.935 -225.564
L154.825 -225.488
L154.714 -225.412
L154.604 -225.335
L154.494 -225.259
L154.384 -225.183
L154.273 -225.106
L154.163 -225.03
L154.053 -224.954
L153.943 -224.877
L153.833 -224.801
L153.722 -224.725
L153.612 -224.648
L153.502 -224.572
L153.392 -224.496
L153.281 -224.419
L153.171 -224.343
L153.061 -224.267
L152.951 -224.191
L152.841 -224.114
L152.73 -224.038
L152.62 -223.962
L152.51 -223.885
L152.4 -223.809
L152.289 -223.733
L152.179 -223.656
L152.069 -223.58
L151.959 -223.504
L151.848 -223.427
L151.738 -223.351
L151.628 -223.275
L151.518 -223.198
L151.408 -223.122
L151.297 -223.046
L151.187 -222.97
L151.077 -222.893
L150.967 -222.817
L150.856 -222.741
L150.746 -222.664
L150.636 -222.588
L150.526 -222.512
L150.416 -222.435
L150.305 -222.359
L150.195 -222.283
L150.085 -222.206
L149.975 -222.13
L149.864 -222.054
L149.754 -221.977
L149.644 -221.901
L149.534 -221.825
L149.423 -221.749
L149.313 -221.672
L149.203 -221.596
L149.093 -221.52
L148.983 -221.443
L148.872 -221.367
L148.762 -221.291
L148.652 -221.214
L148.542 -221.138
L148.431 -221.062
L148.321 -220.985
L148.211 -220.909
L148.101 -220.833
L147.991 -220.757
L147.88 -220.68
L147.77 -220.604
L147.66 -220.528
L147.55 -220.451
L147.439 -220.375
L147.329 -220.299
L147.219 -220.222
L147.109 -220.146
L146.998 -220.07
L146.888 -219.993
L146.778 -219.917
L146.668 -219.841
L146.558 -219.764
L146.447 -219.688
L146.337 -219.612
L146.227 -219.536
L146.117 -219.459
L146.006 -219.383
L145.896 -219.307
L145.786 -219.23
L145.676 -219.154
L145.565 -219.078
L145.455 -219.001
L145.345 -218.925
L145.235 -218.849
L145.125 -218.772
L145.014 -218.696
L144.904 -218.62
L144.794 -218.543
L144.684 -218.467
L144.573 -218.391
L144.463 -218.315
L144.353 -218.238
L144.243 -218.162
L144.133 -218.086
L144.022 -218.009
L143.912 -217.933
L143.802 -217.857
L143.692 -217.78
L143.581 -217.704
L143.471 -217.628
L143.361 -217.551
L143.251 -217.475
L143.14 -217.399
L143.03 -217.322
L142.92 -217.246
L142.81 -217.17
L142.7 -217.094
L142.589 -217.017
L142.479 -216.941
L142.369 -216.865
L142.259 -216.788
L142.148 -216.712
L142.038 -216.636
L141.928 -216.559
L141.818 -216.483
L141.708 -216.407
L141.597 -216.33
L141.487 -216.254
L141.377 -216.178
L141.267 -216.101
L141.156 -216.025
L141.046 -215.949
L140.936 -215.873
L140.826 -215.796
L140.715 -215.72
L140.605 -215.644
L140.495 -215.567
L140.385 -215.491
L140.275 -215.415
L140.164 -215.338
L140.054 -215.262
L139.944 -215.186
L139.834 -215.109
L139.723 -215.033
L139.613 -214.957
L139.503 -214.881
L139.393 -214.804
L139.283 -214.728
L139.172 -214.652
L139.062 -214.575
L138.952 -214.499
L138.842 -214.423
L138.731 -214.346
L138.621 -214.27
L138.511 -214.194
L138.401 -214.117
L138.29 -214.041
L138.18 -213.965
L138.07 -213.888
L137.96 -213.812
L137.85 -213.736
L137.739 -213.66
L137.629 -213.583
L137.519 -213.507
L137.409 -213.431
L137.298 -213.354
L137.188 -213.278
L137.078 -213.202
L136.968 -213.125
L136.857 -213.049
L136.747 -212.973
L136.637 -212.896
L136.527 -212.82
L136.417 -212.744
L136.306 -212.667
L136.196 -212.591
L136.086 -212.515
L135.976 -212.439
L135.865 -212.362
L135.755 -212.286
L135.645 -212.21
L135.535 -212.133
L135.425 -212.057
L135.314 -211.981
L135.204 -211.904
L135.094 -211.828
L134.984 -211.752
L134.873 -211.675
L134.763 -211.599
L134.653 -211.523
L134.543 -211.446
L134.432 -211.37
L134.322 -211.294
L134.212 -211.218
L134.102 -211.141
L133.992 -211.065
L133.881 -210.989
L133.771 -210.912
L133.661 -210.836
L133.551 -210.76
L133.44 -210.683
L133.33 -210.607
L133.22 -210.531
L133.11 -210.454
L133 -210.378
L132.889 -210.302
L132.779 -210.226
L132.669 -210.149
L132.559 -210.073
L132.448 -209.997
L132.338 -209.92
L132.228 -209.844
L132.118 -209.768
L132.007 -209.691
L131.897 -209.615
L131.787 -209.539
L131.677 -209.462
L131.567 -209.386
L131.456 -209.31
L131.346 -209.233
L131.236 -209.157
L131.126 -209.081
L131.015 -209.005
L130.905 -208.928
L130.795 -208.852
L130.685 -208.776
L130.574 -208.699
L130.464 -208.623
L130.354 -208.547
L130.244 -208.47
L130.134 -208.394
L130.023 -208.318
L129.913 -208.241
L129.803 -208.165
L129.693 -208.089
L129.582 -208.012
L129.472 -207.936
L129.362 -207.86
L129.252 -207.784
L129.142 -207.707
L129.031 -207.631
L128.921 -207.555
L128.811 -207.478
L128.701 -207.402
L128.59 -207.326
L128.48 -207.249
L128.37 -207.173
L128.26 -207.097
L128.149 -207.02
L128.039 -206.944
L127.929 -206.868
L127.819 -206.791
L127.709 -206.715
L127.598 -206.639
L127.488 -206.563
L127.378 -206.486
L127.268 -206.41
L127.157 -206.334
L127.047 -206.257
L126.937 -206.181
L126.827 -206.105
L126.717 -206.028
L126.606 -205.952
L126.496 -205.876
L126.386 -205.799
L126.276 -205.723
L126.165 -205.647
L126.055 -205.57
L125.945 -205.494
L125.835 -205.418
L125.724 -205.342
L125.614 -205.265
L125.504 -205.189
L125.394 -205.113
L125.284 -205.036
L125.173 -204.96
L125.063 -204.884
L124.953 -204.807
L124.843 -204.731
L124.732 -204.655
L124.622 -204.578
L124.512 -204.502
L124.402 -204.426
L124.292 -204.35
L124.181 -204.273
L124.071 -204.197
L123.961 -204.121
L123.851 -204.044
L123.74 -203.968
L123.63 -203.892
L123.52 -203.815
L123.41 -203.739
L123.299 -203.663
L123.189 -203.586
L123.079 -203.51
L122.969 -203.434
L122.859 -203.357
L122.748 -203.281
L122.638 -203.205
L122.528 -203.129
L122.418 -203.052
L122.307 -202.976
L122.197 -202.9
L122.087 -202.823
L121.977 -202.747
L121.866 -202.671
L121.756 -202.594
L121.646 -202.518
L121.536 -202.442
L121.426 -202.365
L121.315 -202.289
L121.205 -202.213
L121.095 -202.136
L120.985 -202.06
L120.874 -201.984
L120.764 -201.908
L120.654 -201.831
L120.544 -201.755
L120.434 -201.679
L120.323 -201.602
L120.213 -201.526
L120.103 -201.45
L119.993 -201.373
L119.882 -201.297
L119.772 -201.221
L119.662 -201.144
L119.552 -201.068
L119.441 -200.992
L119.331 -200.915
L119.221 -200.839
L119.111 -200.763
L119.001 -200.687
L118.89 -200.61
L118.78 -200.534
L118.67 -200.458
L118.56 -200.381
L118.449 -200.305
L118.339 -200.229
L118.229 -200.152
L118.119 -200.076
L118.009 -200
L117.898 -199.923
L117.788 -199.847
L117.678 -199.771
L117.568 -199.694
L117.457 -199.618
L117.347 -199.542
L117.237 -199.466
L117.127 -199.389
L117.016 -199.313
L116.906 -199.237
L116.796 -199.16
L116.686 -199.084
L116.576 -199.008
L116.465 -198.931
L116.355 -198.855
L116.245 -198.779
L116.135 -198.702
L116.024 -198.626
L115.914 -198.55
L115.804 -198.474
L115.694 -198.397
L115.584 -198.321
L115.473 -198.245
L115.363 -198.168
L115.253 -198.092
L115.143 -198.016
L115.032 -197.939
L114.922 -197.863
L114.812 -197.787
L114.702 -197.71
L114.591 -197.634
L114.481 -197.558
L114.371 -197.481
L114.261 -197.405
L114.151 -197.329
L114.04 -197.253
L113.93 -197.176
L113.82 -197.1
L113.71 -197.024
L113.599 -196.947
L113.489 -196.871
L113.379 -196.795
L113.269 -196.718
L113.158 -196.642
L113.048 -196.566
L112.938 -196.489
L112.828 -196.413
L112.718 -196.337
L112.607 -196.26
L112.497 -196.184
L112.387 -196.108
L112.277 -196.032
L112.166 -195.955
L112.056 -195.879
L111.946 -195.803
L111.836 -195.726
L111.726 -195.65
L111.615 -195.574
L111.505 -195.497
L111.395 -195.421
L111.285 -195.345
L111.174 -195.268
L111.064 -195.192
L110.954 -195.116
L110.844 -195.039
L110.733 -194.963
L110.623 -194.887
L110.513 -194.811
L110.403 -194.734
L110.293 -194.658
L110.182 -194.582
L110.072 -194.505
L109.962 -194.429
L109.852 -194.353
L109.741 -194.276
L109.631 -194.2
L109.521 -194.124
L109.411 -194.047
L109.301 -193.971
L109.19 -193.895
L109.08 -193.819
L108.97 -193.742
L108.86 -193.666
L108.749 -193.59
L108.639 -193.513
L108.529 -193.437
L108.419 -193.361
L108.308 -193.284
L108.198 -193.208
L108.088 -193.132
L107.978 -193.055
L107.868 -192.979
L107.757 -192.903
L107.647 -192.826
L107.537 -192.75
L107.427 -192.674
L107.316 -192.598
L107.206 -192.521
L107.096 -192.445
L106.986 -192.369
L106.876 -192.292
L106.765 -192.216
L106.655 -192.14
L106.545 -192.063
L106.435 -191.987
L106.324 -191.911
L106.214 -191.834
L106.104 -191.758
L105.994 -191.682
L105.883 -191.605
L105.773 -191.529
L105.663 -191.453
L105.553 -191.377
L105.443 -191.3
L105.332 -191.224
L105.222 -191.148
L105.112 -191.071
L105.002 -190.995
L104.891 -190.919
L104.781 -190.842
z
" id="C6_0_f06e574794"/>
    </defs>
    <g clip-path="url(#p43695f62f0)">
     <use style="fill:#800080;stroke:#800080;" x="0.0" xlink:href="#C6_0_f06e574794" y="432.0"/>
    </g>
   </g>
   <g id="line2d_122">
    <path clip-path="url(#p43695f62f0)" d="
M104.781 241.158
L214.899 164.922" style="fill:none;stroke:#000000;stroke-dasharray:6.000000,6.000000;stroke-dashoffset:0.0;stroke-width:1.5;"/>
   </g>
   <g id="line2d_123">
    <path clip-path="url(#p43695f62f0)" d="
M132.311 225.148
L129.007 204.565" style="fill:none;stroke:#800080;stroke-linecap:square;stroke-width:1.5;"/>
   </g>
   <g id="matplotlib.axis_5">
    <g id="text_27">
     <!-- $\nu$ -->
     <g transform="translate(155.502140995 259.696976475)scale(0.18 -0.18)">
      <use transform="scale(0.996264009963)" xlink:href="#CMMI12-23"/>
     </g>
    </g>
   </g>
   <g id="matplotlib.axis_6">
    <g id="text_28">
     <!-- $P_{fix}$ -->
     <g transform="translate(95.2848187218 216.512762054)rotate(-90.0)scale(0.16 -0.16)">
      <use transform="translate(0.0 14.9439145441)scale(0.996264009963)" xlink:href="#CMMI12-80"/>
      <use transform="translate(62.8772322297 0.0)scale(0.697381766617)" xlink:href="#CMMI12-102"/>
      <use transform="translate(103.981255594 0.0)scale(0.697381766617)" xlink:href="#CMMI12-105"/>
      <use transform="translate(127.276162876 0.0)scale(0.697381766617)" xlink:href="#CMMI12-120"/>
     </g>
    </g>
   </g>
   <g id="patch_16">
    <path d="
M103.68 164.16
L216 164.16" style="fill:none;stroke:#000000;"/>
   </g>
   <g id="patch_17">
    <path d="
M216 241.92
L216 164.16" style="fill:none;stroke:#000000;"/>
   </g>
   <g id="patch_18">
    <path d="
M103.68 241.92
L216 241.92" style="fill:none;stroke:#000000;"/>
   </g>
   <g id="patch_19">
    <path d="
M103.68 241.92
L103.68 164.16" style="fill:none;stroke:#000000;"/>
   </g>
   <g id="text_29">
    <!-- observed -->
    <g transform="translate(108.084705882 178.392514403)scale(0.16 -0.16)">
     <use transform="scale(0.996264009963)" xlink:href="#Nimbus_Sans_L_Regular-111"/>
     <use transform="translate(55.3916769633 0.0)scale(0.996264009963)" xlink:href="#Nimbus_Sans_L_Regular-98"/>
     <use transform="translate(110.783353927 0.0)scale(0.996264009963)" xlink:href="#Nimbus_Sans_L_Regular-115"/>
     <use transform="translate(160.596554425 0.0)scale(0.996264009963)" xlink:href="#Nimbus_Sans_L_Regular-101"/>
     <use transform="translate(215.988231388 0.0)scale(0.996264009963)" xlink:href="#Nimbus_Sans_L_Regular-114"/>
     <use transform="translate(252.151553865 0.0)scale(0.996264009963)" xlink:href="#Nimbus_Sans_L_Regular-118"/>
     <use transform="translate(299.474124742 0.0)scale(0.996264009963)" xlink:href="#Nimbus_Sans_L_Regular-101"/>
     <use transform="translate(354.865801706 0.0)scale(0.996264009963)" xlink:href="#Nimbus_Sans_L_Regular-100"/>
    </g>
    <!-- area -->
    <defs>
     <path d="
M53.5 5.20312
C52.5938 5 52.2031 5 51.7031 5
C48.7969 5 47.2031 6.48438 47.2031 9.07812
L47.2031 39.7656
C47.2031 49.0156 40.4062 54 27.5 54
C19.9062 54 13.5938 51.8125 10.0938 47.9062
C7.70312 45.2031 6.70312 42.2188 6.5 37.0312
L14.9062 37.0312
C15.5938 43.3906 19.4062 46.2812 27.2031 46.2812
C34.7031 46.2812 38.9062 43.4844 38.9062 38.5156
L38.9062 36.3281
C38.9062 32.8281 36.7969 31.3438 30.2031 30.5469
C18.4062 29.0625 16.5938 28.6562 13.4062 27.3594
C7.29688 24.875 4.20312 20.1875 4.20312 13.4219
C4.20312 3.96875 10.7969 -2 21.4062 -2
C28 -2 33.2969 0.296875 39.2031 5.70312
C39.7969 0.390625 42.4062 -2 47.7969 -2
C49.5 -2 50.7969 -1.8125 53.5 -1.09375
z

M38.9062 16.75
C38.9062 13.9531 38.0938 12.2656 35.5938 9.98438
C32.2031 6.89062 28.0938 5.3125 23.2031 5.3125
C16.7031 5.3125 12.9062 8.39062 12.9062 13.6562
C12.9062 19.1406 16.5938 21.9219 25.5 23.2188
C34.2969 24.4062 36.0938 24.8125 38.9062 26.0938
z
" id="Nimbus_Sans_L_Regular-97"/>
    </defs>
    <g transform="translate(108.084705882 195.416470588)scale(0.16 -0.16)">
     <use transform="scale(0.996264009963)" xlink:href="#Nimbus_Sans_L_Regular-97"/>
     <use transform="translate(55.3916769633 0.0)scale(0.996264009963)" xlink:href="#Nimbus_Sans_L_Regular-114"/>
     <use transform="translate(88.5669066927 0.0)scale(0.996264009963)" xlink:href="#Nimbus_Sans_L_Regular-101"/>
     <use transform="translate(143.958583656 0.0)scale(0.996264009963)" xlink:href="#Nimbus_Sans_L_Regular-97"/>
    </g>
   </g>
  </g>
  <g id="text_30">
   <!-- A -->
   <defs>
    <path d="
M47.4062 22
L54.9062 0
L65.2969 0
L39.7031 73
L27.7031 73
L1.70312 0
L11.5938 0
L19.2969 22
z

M44.7969 29.8125
L21.5938 29.8125
L33.5938 63
z
" id="Nimbus_Sans_L_Regular-65"/>
   </defs>
   <g transform="translate(11.52 34.56)scale(0.24 -0.24)">
    <use transform="scale(0.996264009963)" xlink:href="#Nimbus_Sans_L_Regular-65"/>
   </g>
  </g>
 </g>
 <defs>
  <clipPath id="p7835bb7aad">
   <rect height="356.510653725" width="496.136325644" x="66.9036743559" y="12.96"/>
  </clipPath>
  <clipPath id="pa5aaf27423">
   <rect height="95.04" width="144.0" x="144.0" y="21.6"/>
  </clipPath>
  <clipPath id="p43695f62f0">
   <rect height="77.76" width="112.32" x="103.68" y="164.16"/>
  </clipPath>
 </defs>
</svg>
