<?xml version="1.0" encoding="utf-8" standalone="no"?>
<!DOCTYPE svg PUBLIC "-//W3C//DTD SVG 1.1//EN"
  "http://www.w3.org/Graphics/SVG/1.1/DTD/svg11.dtd">
<!-- Created with matplotlib (http://matplotlib.org/) -->
<svg height="432pt" version="1.1" viewBox="0 0 576 432" width="576pt" xmlns="http://www.w3.org/2000/svg" xmlns:xlink="http://www.w3.org/1999/xlink">
 <defs>
  <style type="text/css">
*{stroke-linecap:butt;stroke-linejoin:round;}
  </style>
 </defs>
 <g id="figure_1">
  <g id="patch_1">
   <path d="
M0 432
L576 432
L576 0
L0 0
z
" style="fill:#ffffff;"/>
  </g>
  <g id="axes_1">
   <g id="patch_2">
    <path d="
M66.9037 369.471
L563.04 369.471
L563.04 12.96
L66.9037 12.96
z
" style="fill:#ffffff;"/>
   </g>
   <g id="PathCollection_1">
    <defs>
     <path d="
M0 6.12372
C1.62403 6.12372 3.18176 5.47849 4.33013 4.33013
C5.47849 3.18176 6.12372 1.62403 6.12372 0
C6.12372 -1.62403 5.47849 -3.18176 4.33013 -4.33013
C3.18176 -5.47849 1.62403 -6.12372 0 -6.12372
C-1.62403 -6.12372 -3.18176 -5.47849 -4.33013 -4.33013
C-5.47849 -3.18176 -6.12372 -1.62403 -6.12372 0
C-6.12372 1.62403 -5.47849 3.18176 -4.33013 4.33013
C-3.18176 5.47849 -1.62403 6.12372 0 6.12372
z
" id="C0_0_b6e9a3c12a"/>
    </defs>
    <g clip-path="url(#p7835bb7aad)">
     <use style="fill:none;stroke:#0000ff;stroke-width:2.0;" x="224.765232515" xlink:href="#C0_0_b6e9a3c12a" y="354.616043153"/>
    </g>
   </g>
   <g id="PathCollection_2">
    <defs>
     <path d="
M-6.12372 6.12372
L6.12372 6.12372
L6.12372 -6.12372
L-6.12372 -6.12372
z
" id="C1_0_8bb0782b14"/>
    </defs>
    <g clip-path="url(#p7835bb7aad)">
     <use style="fill:none;stroke:#008000;stroke-width:2.0;" x="224.765232515" xlink:href="#C1_0_8bb0782b14" y="307.903431292"/>
    </g>
   </g>
   <g id="PathCollection_3">
    <defs>
     <path d="
M0 -6.12372
L-6.12372 6.12372
L6.12372 6.12372
z
" id="C2_0_b84ed1ab27"/>
    </defs>
    <g clip-path="url(#p7835bb7aad)">
     <use style="fill:none;stroke:#ff0000;stroke-width:2.0;" x="224.765232515" xlink:href="#C2_0_b84ed1ab27" y="275.126488254"/>
    </g>
   </g>
   <g id="patch_3">
    <path clip-path="url(#p7835bb7aad)" d="
M75.9243 158.535
L310.462 158.535
L310.462 15.9309
L75.9243 15.9309
z
" style="fill:none;stroke:#000000;stroke-width:1.2;"/>
   </g>
   <g id="patch_4">
    <path clip-path="url(#p7835bb7aad)" d="
M75.9243 262.517
L220.255 262.517
L220.255 158.535
L75.9243 158.535
z
" style="fill:none;stroke:#000000;stroke-width:1.2;"/>
   </g>
   <g id="patch_5">
    <path clip-path="url(#p7835bb7aad)" d="
M314.972 336.791
L303.696 301.139
L313.393 311.835
L313.393 235.779
L316.55 235.779
L316.55 311.835
L326.248 301.139
z
" style="stroke:#000000;"/>
   </g>
   <g id="line2d_1">
    <path clip-path="url(#p7835bb7aad)" d="
M89.4553 354.616
L157.11 354.616
L224.765 354.616
L314.972 354.616
L427.73 354.616" style="fill:none;stroke:#0000ff;stroke-linecap:square;stroke-width:2;"/>
   </g>
   <g id="line2d_2">
    <path clip-path="url(#p7835bb7aad)" d="
M89.4553 354.616
L157.11 330.962
L224.765 307.903
L314.972 258.158
L427.73 211.783" style="fill:none;stroke:#008000;stroke-linecap:square;stroke-width:2;"/>
   </g>
   <g id="line2d_3">
    <path clip-path="url(#p7835bb7aad)" d="
M89.4553 354.616
L157.11 316.479
L224.765 275.126
L314.972 209.101
L427.73 148.47" style="fill:none;stroke:#ff0000;stroke-linecap:square;stroke-width:2;"/>
   </g>
   <g id="line2d_4">
    <path clip-path="url(#p7835bb7aad)" d="
M89.4553 354.616
L540.488 57.5238" style="fill:none;stroke:#000000;stroke-dasharray:6.000000,6.000000;stroke-dashoffset:0.0;stroke-width:1.5;"/>
   </g>
   <g id="matplotlib.axis_1">
    <g id="xtick_1">
     <g id="line2d_5">
      <defs>
       <path d="
M0 0
L0 -4" id="m93b0483c22" style="stroke:#000000;stroke-width:0.5;"/>
      </defs>
      <g>
       <use style="stroke:#000000;stroke-width:0.5;" x="89.4553255216" xlink:href="#m93b0483c22" y="369.470653725"/>
      </g>
     </g>
     <g id="line2d_6">
      <defs>
       <path d="
M0 0
L0 4" id="m741efc42ff" style="stroke:#000000;stroke-width:0.5;"/>
      </defs>
      <g>
       <use style="stroke:#000000;stroke-width:0.5;" x="89.4553255216" xlink:href="#m741efc42ff" y="12.96"/>
      </g>
     </g>
     <g id="text_1">
      <!-- $0.0$ -->
      <defs>
       <path d="
M42 31.6406
C42 37.75 41.9062 48.125 37.7031 56.1094
C34 63.1094 28.0938 65.5938 22.9062 65.5938
C18.0938 65.5938 12 63.4062 8.20312 56.2031
C4.20312 48.7188 3.79688 39.4375 3.79688 31.6406
C3.79688 25.9531 3.90625 17.2812 7 9.67188
C11.2969 -0.609375 19 -2 22.9062 -2
C27.5 -2 34.5 -0.109375 38.5938 9.375
C41.5938 16.2812 42 24.3594 42 31.6406
M22.9062 -0.40625
C16.5 -0.40625 12.7031 5.07812 11.2969 12.6875
C10.2031 18.5625 10.2031 27.1562 10.2031 32.75
C10.2031 40.4375 10.2031 46.8281 11.5 52.9219
C13.4062 61.3906 19 64 22.9062 64
C27 64 32.2969 61.2969 34.2031 53.125
C35.5 47.4375 35.5938 40.7344 35.5938 32.75
C35.5938 26.25 35.5938 18.2656 34.4062 12.375
C32.2969 1.48438 26.4062 -0.40625 22.9062 -0.40625" id="CMR17-48"/>
       <path d="
M18.4062 4.79688
C18.4062 7.6875 16 9.67188 13.5938 9.67188
C10.7031 9.67188 8.70312 7.28125 8.70312 4.89062
C8.70312 2 11.0938 0 13.5 0
C16.4062 0 18.4062 2.39062 18.4062 4.79688" id="CMMI12-58"/>
      </defs>
      <g transform="translate(77.6075123892 387.667294253)scale(0.2 -0.2)">
       <use transform="scale(0.996264009963)" xlink:href="#CMR17-48"/>
       <use transform="translate(45.6904771171 0.0)scale(0.996264009963)" xlink:href="#CMMI12-58"/>
       <use transform="translate(72.7876542069 0.0)scale(0.996264009963)" xlink:href="#CMR17-48"/>
      </g>
     </g>
    </g>
    <g id="xtick_2">
     <g id="line2d_7">
      <g>
       <use style="stroke:#000000;stroke-width:0.5;" x="179.661930184" xlink:href="#m93b0483c22" y="369.470653725"/>
      </g>
     </g>
     <g id="line2d_8">
      <g>
       <use style="stroke:#000000;stroke-width:0.5;" x="179.661930184" xlink:href="#m741efc42ff" y="12.96"/>
      </g>
     </g>
     <g id="text_2">
      <!-- $0.2$ -->
      <defs>
       <path d="
M41.7031 15.4531
L39.9062 15.4531
C38.9062 8.375 38.0938 7.17188 37.7031 6.5625
C37.2031 5.76562 30 5.76562 28.5938 5.76562
L9.40625 5.76562
C13 9.67188 20 16.75 28.5 24.9531
C34.5938 30.7344 41.7031 37.5312 41.7031 47.4219
C41.7031 59.2188 32.2969 66 21.7969 66
C10.7969 66 4.09375 56.3125 4.09375 47.3438
C4.09375 43.4375 7 42.9375 8.20312 42.9375
C9.20312 42.9375 12.2031 43.5469 12.2031 47.0312
C12.2031 50.1094 9.59375 51 8.20312 51
C7.59375 51 7 50.9062 6.59375 50.7031
C8.5 59.2188 14.2969 63.4062 20.4062 63.4062
C29.0938 63.4062 34.7969 56.5156 34.7969 47.4219
C34.7969 38.7344 29.7031 31.25 24 24.75
L4.09375 2.28125
L4.09375 0
L39.2969 0
z
" id="CMR17-50"/>
      </defs>
      <g transform="translate(167.814117052 387.667294253)scale(0.2 -0.2)">
       <use transform="scale(0.996264009963)" xlink:href="#CMR17-48"/>
       <use transform="translate(45.6904771171 0.0)scale(0.996264009963)" xlink:href="#CMMI12-58"/>
       <use transform="translate(72.7876542069 0.0)scale(0.996264009963)" xlink:href="#CMR17-50"/>
      </g>
     </g>
    </g>
    <g id="xtick_3">
     <g id="line2d_9">
      <g>
       <use style="stroke:#000000;stroke-width:0.5;" x="269.868534847" xlink:href="#m93b0483c22" y="369.470653725"/>
      </g>
     </g>
     <g id="line2d_10">
      <g>
       <use style="stroke:#000000;stroke-width:0.5;" x="269.868534847" xlink:href="#m741efc42ff" y="12.96"/>
      </g>
     </g>
     <g id="text_3">
      <!-- $0.4$ -->
      <defs>
       <path d="
M33.5938 64.3281
C33.5938 66.4062 33.5 66.5 31.7031 66.5
L2 19.5938
L2 17
L27.7969 17
L27.7969 7.14062
C27.7969 3.5 27.5938 2.5 20.5938 2.5
L18.7031 2.5
L18.7031 0
C21.9062 0 27.2969 0 30.7031 0
C34.0938 0 39.5 0 42.7031 0
L42.7031 2.5
L40.7969 2.5
C33.7969 2.5 33.5938 3.5 33.5938 7.14062
L33.5938 17
L43.7969 17
L43.7969 19.5938
L33.5938 19.5938
z

M28.0938 57.7656
L28.0938 19.5938
L4 19.5938
z
" id="CMR17-52"/>
      </defs>
      <g transform="translate(258.020721714 387.667294253)scale(0.2 -0.2)">
       <use transform="scale(0.996264009963)" xlink:href="#CMR17-48"/>
       <use transform="translate(45.6904771171 0.0)scale(0.996264009963)" xlink:href="#CMMI12-58"/>
       <use transform="translate(72.7876542069 0.0)scale(0.996264009963)" xlink:href="#CMR17-52"/>
      </g>
     </g>
    </g>
    <g id="xtick_4">
     <g id="line2d_11">
      <g>
       <use style="stroke:#000000;stroke-width:0.5;" x="360.075139509" xlink:href="#m93b0483c22" y="369.470653725"/>
      </g>
     </g>
     <g id="line2d_12">
      <g>
       <use style="stroke:#000000;stroke-width:0.5;" x="360.075139509" xlink:href="#m741efc42ff" y="12.96"/>
      </g>
     </g>
     <g id="text_4">
      <!-- $0.6$ -->
      <defs>
       <path d="
M10.5938 34
C10.5938 57.6562 21.7969 63 28.2969 63
C30.4062 63 35.5 62.6406 37.5 59
C35.9062 59 32.9062 59 32.9062 55.5156
C32.9062 52.8281 35.0938 51.9219 36.5 51.9219
C37.4062 51.9219 40.0938 52.3125 40.0938 55.625
C40.0938 61.7812 35.0938 65.2969 28.2031 65.2969
C16.2969 65.2969 3.79688 52.9688 3.79688 31
C3.79688 3.95312 15.0938 -2 23.0938 -2
C32.7969 -2 42 6.67188 42 20.0469
C42 32.5156 33.9062 41.5938 23.7031 41.5938
C17.5938 41.5938 13.0938 37.6094 10.5938 30.625
z

M23.0938 0.390625
C10.7969 0.390625 10.7969 18.75 10.7969 22.4375
C10.7969 29.625 14.2031 40 23.5 40
C25.2031 40 30.0938 40 33.4062 33.125
C35.2031 29.2188 35.2031 25.1406 35.2031 20.1406
C35.2031 14.75 35.2031 10.7812 33.0938 6.78125
C30.9062 2.67188 27.7031 0.390625 23.0938 0.390625" id="CMR17-54"/>
      </defs>
      <g transform="translate(348.227326377 387.667294253)scale(0.2 -0.2)">
       <use transform="scale(0.996264009963)" xlink:href="#CMR17-48"/>
       <use transform="translate(45.6904771171 0.0)scale(0.996264009963)" xlink:href="#CMMI12-58"/>
       <use transform="translate(72.7876542069 0.0)scale(0.996264009963)" xlink:href="#CMR17-54"/>
      </g>
     </g>
    </g>
    <g id="xtick_5">
     <g id="line2d_13">
      <g>
       <use style="stroke:#000000;stroke-width:0.5;" x="450.281744172" xlink:href="#m93b0483c22" y="369.470653725"/>
      </g>
     </g>
     <g id="line2d_14">
      <g>
       <use style="stroke:#000000;stroke-width:0.5;" x="450.281744172" xlink:href="#m741efc42ff" y="12.96"/>
      </g>
     </g>
     <g id="text_5">
      <!-- $0.8$ -->
      <defs>
       <path d="
M27.2031 35.375
C33.5 38.5625 39.9062 43.3281 39.9062 50.9844
C39.9062 60.0312 31.0938 65.2969 23 65.2969
C13.9062 65.2969 5.90625 58.7344 5.90625 49.6875
C5.90625 47.2031 6.5 42.9219 10.4062 39.1406
C11.4062 38.1562 15.5938 35.1719 18.2969 33.2812
C13.7969 30.9844 3.29688 25.5312 3.29688 14.5938
C3.29688 4.35938 13.0938 -2 22.7969 -2
C33.5 -2 42.5 5.65625 42.5 15.7969
C42.5 24.8438 36.4062 29.0312 32.4062 31.7031
z

M14.0938 44.125
C13.2969 44.625 9.29688 47.7031 9.29688 52.375
C9.29688 58.4375 15.5938 63 22.7969 63
C30.7031 63 36.5 57.4531 36.5 50.9844
C36.5 41.7344 26.0938 36.4688 25.5938 36.4688
C25.5 36.4688 25.4062 36.4688 24.5938 37.0781
z

M32.5 23.7344
C34 22.6406 38.7969 19.375 38.7969 13.2969
C38.7969 5.95312 31.4062 0.390625 23 0.390625
C13.9062 0.390625 7 6.84375 7 14.6875
C7 22.5469 13.0938 29.0938 20 32.1875
z
" id="CMR17-56"/>
      </defs>
      <g transform="translate(438.433931039 387.667294253)scale(0.2 -0.2)">
       <use transform="scale(0.996264009963)" xlink:href="#CMR17-48"/>
       <use transform="translate(45.6904771171 0.0)scale(0.996264009963)" xlink:href="#CMMI12-58"/>
       <use transform="translate(72.7876542069 0.0)scale(0.996264009963)" xlink:href="#CMR17-56"/>
      </g>
     </g>
    </g>
    <g id="xtick_6">
     <g id="line2d_15">
      <g>
       <use style="stroke:#000000;stroke-width:0.5;" x="540.488348834" xlink:href="#m93b0483c22" y="369.470653725"/>
      </g>
     </g>
     <g id="line2d_16">
      <g>
       <use style="stroke:#000000;stroke-width:0.5;" x="540.488348834" xlink:href="#m741efc42ff" y="12.96"/>
      </g>
     </g>
     <g id="text_6">
      <!-- $1.0$ -->
      <defs>
       <path d="
M26.5938 63.3125
C26.5938 65.4062 26.5 65.5 25.0938 65.5
C21.2031 61.1875 15.2969 59.7969 9.70312 59.7969
C9.40625 59.7969 8.90625 59.7969 8.79688 59.5
C8.70312 59.2969 8.70312 59.0938 8.70312 57
C11.7969 57 17 57.5938 21 59.9844
L21 7.20312
C21 3.6875 20.7969 2.5 12.2031 2.5
L9.20312 2.5
L9.20312 0
C14 0 19 0 23.7969 0
C28.5938 0 33.5938 0 38.4062 0
L38.4062 2.5
L35.4062 2.5
C26.7969 2.5 26.5938 3.59375 26.5938 7.15625
z
" id="CMR17-49"/>
      </defs>
      <g transform="translate(528.640535702 387.667294253)scale(0.2 -0.2)">
       <use transform="scale(0.996264009963)" xlink:href="#CMR17-49"/>
       <use transform="translate(45.6904771171 0.0)scale(0.996264009963)" xlink:href="#CMMI12-58"/>
       <use transform="translate(72.7876542069 0.0)scale(0.996264009963)" xlink:href="#CMR17-48"/>
      </g>
     </g>
    </g>
    <g id="text_7">
     <!-- $\nu$ -->
     <defs>
      <path d="
M22 43
C22 43.3906 21.7031 44 20.9062 44
C20.2031 44 10.7969 43 9.29688 43
C8.20312 42.8906 7.20312 42.7969 7.20312 41
C7.20312 40 8 40 9.40625 40
C14.0938 40 14.4062 39.2969 14.4062 38.2031
C14.4062 37.7969 14.2031 36.6094 14.0938 36.2031
L5.29688 1
C5.29688 0.59375 5.59375 0 6.29688 0
L8.40625 0
C9.79688 0 25 3.59375 36.7031 15.5625
C49.5938 28.8438 51.4062 41.1094 51.4062 41.5156
C51.4062 43.1094 50.0938 44 48.7969 44
C45.9062 44 45.2031 41.3125 45 40.6094
C39.0938 19.7656 25.4062 7.39062 12.0938 3
z
" id="CMMI12-23"/>
     </defs>
     <g transform="translate(309.188022637 413.947235684)scale(0.24 -0.24)">
      <use transform="scale(0.996264009963)" xlink:href="#CMMI12-23"/>
     </g>
    </g>
   </g>
   <g id="matplotlib.axis_2">
    <g id="ytick_1">
     <g id="line2d_17">
      <defs>
       <path d="
M0 0
L4 0" id="m728421d6d4" style="stroke:#000000;stroke-width:0.5;"/>
      </defs>
      <g>
       <use style="stroke:#000000;stroke-width:0.5;" x="66.9036743559" xlink:href="#m728421d6d4" y="354.616043153"/>
      </g>
     </g>
     <g id="line2d_18">
      <defs>
       <path d="
M0 0
L-4 0" id="mcb0005524f" style="stroke:#000000;stroke-width:0.5;"/>
      </defs>
      <g>
       <use style="stroke:#000000;stroke-width:0.5;" x="563.04" xlink:href="#mcb0005524f" y="354.616043153"/>
      </g>
     </g>
     <g id="text_8">
      <!-- $0.0$ -->
      <g transform="translate(39.2080480911 359.592377019)scale(0.2 -0.2)">
       <use transform="scale(0.996264009963)" xlink:href="#CMR17-48"/>
       <use transform="translate(45.6904771171 0.0)scale(0.996264009963)" xlink:href="#CMMI12-58"/>
       <use transform="translate(72.7876542069 0.0)scale(0.996264009963)" xlink:href="#CMR17-48"/>
      </g>
     </g>
    </g>
    <g id="ytick_2">
     <g id="line2d_19">
      <g>
       <use style="stroke:#000000;stroke-width:0.5;" x="66.9036743559" xlink:href="#m728421d6d4" y="295.197600866"/>
      </g>
     </g>
     <g id="line2d_20">
      <g>
       <use style="stroke:#000000;stroke-width:0.5;" x="563.04" xlink:href="#mcb0005524f" y="295.197600866"/>
      </g>
     </g>
     <g id="text_9">
      <!-- $0.2$ -->
      <g transform="translate(39.2080480911 300.173934731)scale(0.2 -0.2)">
       <use transform="scale(0.996264009963)" xlink:href="#CMR17-48"/>
       <use transform="translate(45.6904771171 0.0)scale(0.996264009963)" xlink:href="#CMMI12-58"/>
       <use transform="translate(72.7876542069 0.0)scale(0.996264009963)" xlink:href="#CMR17-50"/>
      </g>
     </g>
    </g>
    <g id="ytick_3">
     <g id="line2d_21">
      <g>
       <use style="stroke:#000000;stroke-width:0.5;" x="66.9036743559" xlink:href="#m728421d6d4" y="235.779158578"/>
      </g>
     </g>
     <g id="line2d_22">
      <g>
       <use style="stroke:#000000;stroke-width:0.5;" x="563.04" xlink:href="#mcb0005524f" y="235.779158578"/>
      </g>
     </g>
     <g id="text_10">
      <!-- $0.4$ -->
      <g transform="translate(39.2080480911 240.755492443)scale(0.2 -0.2)">
       <use transform="scale(0.996264009963)" xlink:href="#CMR17-48"/>
       <use transform="translate(45.6904771171 0.0)scale(0.996264009963)" xlink:href="#CMMI12-58"/>
       <use transform="translate(72.7876542069 0.0)scale(0.996264009963)" xlink:href="#CMR17-52"/>
      </g>
     </g>
    </g>
    <g id="ytick_4">
     <g id="line2d_23">
      <g>
       <use style="stroke:#000000;stroke-width:0.5;" x="66.9036743559" xlink:href="#m728421d6d4" y="176.360716291"/>
      </g>
     </g>
     <g id="line2d_24">
      <g>
       <use style="stroke:#000000;stroke-width:0.5;" x="563.04" xlink:href="#mcb0005524f" y="176.360716291"/>
      </g>
     </g>
     <g id="text_11">
      <!-- $0.6$ -->
      <g transform="translate(39.2080480911 181.337050156)scale(0.2 -0.2)">
       <use transform="scale(0.996264009963)" xlink:href="#CMR17-48"/>
       <use transform="translate(45.6904771171 0.0)scale(0.996264009963)" xlink:href="#CMMI12-58"/>
       <use transform="translate(72.7876542069 0.0)scale(0.996264009963)" xlink:href="#CMR17-54"/>
      </g>
     </g>
    </g>
    <g id="ytick_5">
     <g id="line2d_25">
      <g>
       <use style="stroke:#000000;stroke-width:0.5;" x="66.9036743559" xlink:href="#m728421d6d4" y="116.942274003"/>
      </g>
     </g>
     <g id="line2d_26">
      <g>
       <use style="stroke:#000000;stroke-width:0.5;" x="563.04" xlink:href="#mcb0005524f" y="116.942274003"/>
      </g>
     </g>
     <g id="text_12">
      <!-- $0.8$ -->
      <g transform="translate(39.2080480911 121.918607868)scale(0.2 -0.2)">
       <use transform="scale(0.996264009963)" xlink:href="#CMR17-48"/>
       <use transform="translate(45.6904771171 0.0)scale(0.996264009963)" xlink:href="#CMMI12-58"/>
       <use transform="translate(72.7876542069 0.0)scale(0.996264009963)" xlink:href="#CMR17-56"/>
      </g>
     </g>
    </g>
    <g id="ytick_6">
     <g id="line2d_27">
      <g>
       <use style="stroke:#000000;stroke-width:0.5;" x="66.9036743559" xlink:href="#m728421d6d4" y="57.5238317157"/>
      </g>
     </g>
     <g id="line2d_28">
      <g>
       <use style="stroke:#000000;stroke-width:0.5;" x="563.04" xlink:href="#mcb0005524f" y="57.5238317157"/>
      </g>
     </g>
     <g id="text_13">
      <!-- $1.0$ -->
      <g transform="translate(39.2080480911 62.5001655809)scale(0.2 -0.2)">
       <use transform="scale(0.996264009963)" xlink:href="#CMR17-49"/>
       <use transform="translate(45.6904771171 0.0)scale(0.996264009963)" xlink:href="#CMMI12-58"/>
       <use transform="translate(72.7876542069 0.0)scale(0.996264009963)" xlink:href="#CMR17-48"/>
      </g>
     </g>
    </g>
    <g id="text_14">
     <!-- $P_{fix}$ -->
     <defs>
      <path d="
M29.5938 31.6094
L46.4062 31.6094
C60.2031 31.6094 74 41.7656 74 53.1406
C74 60.9062 67.4062 68 54.7969 68
L23.9062 68
C22 68 21.0938 68 21.0938 66.1094
C21.0938 65.1094 22 65.1094 23.5 65.1094
C29.5938 65.1094 29.5938 64.3125 29.5938 63.2031
C29.5938 63.0156 29.5938 62.4062 29.2031 60.9219
L15.7031 7.375
C14.7969 3.89062 14.5938 2.89062 7.59375 2.89062
C5.70312 2.89062 4.70312 2.89062 4.70312 1.09375
C4.70312 0 5.59375 0 6.20312 0
C8.09375 0 10.0938 0 12 0
L23.7031 0
C25.5938 0 27.7031 0 29.5938 0
C30.4062 0 31.5 0 31.5 1.89062
C31.5 2.89062 30.5938 2.89062 29.0938 2.89062
C23.0938 2.89062 23 3.59375 23 4.59375
C23 5.07812 23.0938 5.76562 23.2031 6.26562
z

M36.7969 61.2188
C37.7031 64.9062 38.0938 65.1094 42 65.1094
L51.9062 65.1094
C59.4062 65.1094 65.5938 62.7031 65.5938 55.2344
C65.5938 52.6406 64.2969 44.1719 59.7031 39.5938
C58 37.7969 53.2031 34 44.0938 34
L30 34
z
" id="CMMI12-80"/>
      <path d="
M47.4062 40.7188
C44.2031 40.1094 43 37.7188 43 35.8281
C43 33.4219 44.9062 32.625 46.2969 32.625
C49.2969 32.625 51.4062 35.2188 51.4062 37.9219
C51.4062 42.1094 46.5938 44 42.4062 44
C36.2969 44 32.9062 38.0156 32 36.125
C29.7031 44 23.5 44 21.7031 44
C11.5 44 6.09375 30.9375 6.09375 28.7344
C6.09375 28.3438 6.5 27.8438 7.20312 27.8438
C8 27.8438 8.20312 28.4375 8.40625 28.8438
C11.7969 39.9219 18.5 42.0156 21.4062 42.0156
C25.9062 42.0156 26.7969 37.8125 26.7969 35.4219
C26.7969 33.2344 26.2031 30.9375 25 26.1406
L21.5938 12.4688
C20.0938 6.48438 17.2031 1 11.9062 1
C11.4062 1 8.90625 1 6.79688 2.29688
C10.4062 3 11.2031 5.98438 11.2031 7.1875
C11.2031 9.1875 9.70312 10.375 7.79688 10.375
C5.40625 10.375 2.79688 8.28125 2.79688 5.09375
C2.79688 0.890625 7.5 -1 11.7969 -1
C16.5938 -1 20 2.79688 22.0938 6.89062
C23.7031 1 28.7031 -1 32.4062 -1
C42.5938 -1 48 12.0781 48 14.2656
C48 14.7656 47.5938 15.1719 47 15.1719
C46.0938 15.1719 46 14.6719 45.7031 13.875
C43 5.09375 37.2031 1 32.7031 1
C29.2031 1 27.2969 3.59375 27.2969 7.6875
C27.2969 9.875 27.7031 11.4688 29.2969 18.0625
L32.7969 31.625
C34.2969 37.625 37.7031 42.0156 42.2969 42.0156
C42.5 42.0156 45.2969 42.0156 47.4062 40.7188" id="CMMI12-120"/>
      <path d="
M28.2969 14.2656
C28.2969 14.7656 27.9062 15.1719 27.2969 15.1719
C26.4062 15.1719 26.2969 14.875 25.7969 13.1719
C23.2031 4.09375 19.0938 1 15.7969 1
C14.5938 1 13.2031 1.29688 13.2031 4.29688
C13.2031 6.98438 14.4062 9.98438 15.5 12.9688
L22.5 31.5312
C22.7969 32.3281 23.5 34.125 23.5 36.0156
C23.5 40.2188 20.5 44 15.5938 44
C6.40625 44 2.70312 29.5312 2.70312 28.7344
C2.70312 28.3438 3.09375 27.8438 3.79688 27.8438
C4.70312 27.8438 4.79688 28.2344 5.20312 29.625
C7.59375 37.9375 11.4062 41.9062 15.2969 41.9062
C16.2031 41.9062 17.9062 41.9062 17.9062 38.7188
C17.9062 36.125 16.5938 32.8281 15.7969 30.6406
L8.79688 12.0781
C8.20312 10.4844 7.59375 8.875 7.59375 7.07812
C7.59375 2.59375 10.7031 -1 15.5 -1
C24.7031 -1 28.2969 13.5781 28.2969 14.2656
M27.5 62.7031
C27.5 64.2031 26.2969 66 24.0938 66
C21.7969 66 19.2031 63.7969 19.2031 61.2031
C19.2031 58.7188 21.2969 57.9219 22.5 57.9219
C25.2031 57.9219 27.5 60.5156 27.5 62.7031" id="CMMI12-105"/>
      <path d="
M44.5938 40.0938
C46.5938 40.0938 47.4062 40.0938 47.4062 42
C47.4062 43 46.5938 43 44.7969 43
L36.7031 43
C38.5938 53.5781 40 60.8906 40.7969 64.1719
C41.4062 66.6406 43.5 69 46.0938 69
C48.2031 69 50.2969 68.0938 51.2969 67.1562
C47.4062 66.75 46.2031 63.7812 46.2031 62.0156
C46.2031 59.9531 47.7031 58.7344 49.5938 58.7344
C51.5938 58.7344 54.5938 60.4688 54.5938 64.3594
C54.5938 68.6406 50.4062 71 46 71
C41.7031 71 37.5 67.7188 35.5 63.7188
C33.7031 60.125 32.7031 56.4375 30.4062 43
L23.7031 43
C21.7969 43 20.7969 43 20.7969 41.2031
C20.7969 40.0938 21.4062 40.0938 23.4062 40.0938
L29.7969 40.0938
C28 30.875 23.9062 8.46875 21.5938 -2.14062
C19.9062 -10.7656 18.4062 -18 13.4062 -18
C13.0938 -18 10.2031 -18 8.40625 -16.1094
C13.5 -15.7031 13.5 -11.3438 13.5 -11.25
C13.5 -9.26562 12 -8.07812 10.0938 -8.07812
C8.09375 -8.07812 5.09375 -9.76562 5.09375 -13.5469
C5.09375 -17.8125 9.5 -20 13.4062 -20
C23.5938 -20 27.7969 -1.84375 28.9062 3.10938
C30.7031 10.75 35.5938 37.125 36.0938 40.0938
z
" id="CMMI12-102"/>
     </defs>
     <g transform="translate(29.5396871352 209.484091639)rotate(-90.0)scale(0.22 -0.22)">
      <use transform="translate(0.0 14.9439145441)scale(0.996264009963)" xlink:href="#CMMI12-80"/>
      <use transform="translate(62.8772322297 0.0)scale(0.697381766617)" xlink:href="#CMMI12-102"/>
      <use transform="translate(103.981255594 0.0)scale(0.697381766617)" xlink:href="#CMMI12-105"/>
      <use transform="translate(127.276162876 0.0)scale(0.697381766617)" xlink:href="#CMMI12-120"/>
     </g>
    </g>
   </g>
   <g id="patch_6">
    <path d="
M66.9037 12.96
L563.04 12.96" style="fill:none;stroke:#000000;"/>
   </g>
   <g id="patch_7">
    <path d="
M563.04 369.471
L563.04 12.96" style="fill:none;stroke:#000000;"/>
   </g>
   <g id="patch_8">
    <path d="
M66.9037 369.471
L563.04 369.471" style="fill:none;stroke:#000000;"/>
   </g>
   <g id="patch_9">
    <path d="
M66.9037 369.471
L66.9037 12.96" style="fill:none;stroke:#000000;"/>
   </g>
   <g id="text_15">
    <!-- $s_d = $ 0.006 -->
    <defs>
     <path d="
M50.2969 66.5156
C50.4062 66.9062 50.5938 67.5 50.5938 68
C50.5938 69 49.5938 69 49.4062 69
C49.2969 69 44.4062 68.5312 43.9062 68.3906
C42.2031 68.3906 40.7031 68.0938 38.9062 68.0938
C36.4062 67.8906 35.7031 67.7969 35.7031 66
C35.7031 65 36.5 65 37.9062 65
C42.7969 65 42.9062 64.1094 42.9062 63.1094
C42.9062 62.5312 42.7031 61.7344 42.5938 61.4375
L36.5 37.4219
C35.4062 40.0156 32.7031 44 27.5 44
C16.2031 44 4 29.4375 4 14.6719
C4 4.79688 9.79688 -1 16.5938 -1
C22.0938 -1 26.7969 3.29688 29.5938 6.59375
C30.5938 0.703125 35.2969 -1 38.2969 -1
C41.2969 -1 43.7031 0.796875 45.5 4.39062
C47.0938 7.78125 48.5 13.875 48.5 14.2656
C48.5 14.7656 48.0938 15.1719 47.5 15.1719
C46.5938 15.1719 46.5 14.6719 46.0938 13.1719
C44.5938 7.28125 42.7031 1 38.5938 1
C35.7031 1 35.5 3.57812 35.5 5.57812
C35.5 5.96875 35.5 8.04688 36.2031 10.8438
z

M30.0938 11.875
C29.5938 10.1719 29.5938 9.98438 28.2031 8.07812
C26 5.28125 21.5938 1 16.9062 1
C12.7969 1 10.5 4.6875 10.5 10.5781
C10.5 16.0625 13.5938 27.2344 15.5 31.4375
C18.9062 38.4219 23.5938 42.0156 27.5 42.0156
C34.0938 42.0156 35.4062 33.8281 35.4062 33.0312
C35.4062 32.9375 35.0938 31.625 35 31.4375
z
" id="CMMI12-100"/>
     <path d="
M64.2969 31.5156
C65.7969 31.5156 67.2969 31.5156 67.2969 33.2031
C67.2969 35 65.5938 35 63.9062 35
L8 35
C6.29688 35 4.59375 35 4.59375 33.2031
C4.59375 31.5156 6.09375 31.5156 7.59375 31.5156
z

M63.9062 14
C65.5938 14 67.2969 14 67.2969 15.7969
C67.2969 17.4844 65.7969 17.4844 64.2969 17.4844
L7.59375 17.4844
C6.09375 17.4844 4.59375 17.4844 4.59375 15.7969
C4.59375 14 6.29688 14 8 14
z
" id="CMR17-61"/>
     <path d="
M22.7969 20
C24.5 19.7031 27.2031 19.1094 27.7969 19
C29.0938 18.625 33.5938 17.0312 33.5938 12.2344
C33.5938 9.15625 30.7969 1.09375 19.2031 1.09375
C17.0938 1.09375 9.59375 1.09375 7.59375 6.8125
C11.5938 6.3125 13.5938 9.42188 13.5938 11.6406
C13.5938 13.75 12.2031 14.8438 10.2031 14.8438
C8 14.8438 5.09375 13.1406 5.09375 8.625
C5.09375 2.70312 11.0938 -1 19.0938 -1
C34.2969 -1 38.7969 10.1719 38.7969 15.375
C38.7969 16.8594 38.7969 19.6562 35.5938 22.8438
C33.0938 25.25 30.7031 25.75 25.2969 26.8438
C22.5938 27.4375 18.2969 28.3438 18.2969 32.8281
C18.2969 34.8281 20.0938 42.0156 29.5938 42.0156
C33.7969 42.0156 37.9062 40.4531 38.9062 37
C34.5 37 34.2969 33.2031 34.2969 33.1094
C34.2969 31 36.2031 30.4062 37.0938 30.4062
C38.5 30.4062 41.2969 31.4844 41.2969 35.6406
C41.2969 39.7656 37.5 44 29.7031 44
C16.5938 44 13.0938 33.75 13.0938 29.6719
C13.0938 22.0938 20.5 20.5 22.7969 20" id="CMMI12-115"/>
     <path d="
M19.0938 10.4219
L8.70312 10.4219
L8.70312 0
L19.0938 0
z
" id="Nimbus_Sans_L_Regular-46"/>
     <path d="
M49.7969 52.8438
C48.0938 64.2344 40.5 71 29.7031 71
C21.9062 71 14.9062 67.2188 10.7031 60.9375
C6.29688 54.0625 4.29688 45.375 4.29688 32.5156
C4.29688 20.6406 6.09375 13.0625 10.2969 6.78125
C14.0938 1.07812 20.2969 -2 28.0938 -2
C41.5938 -2 51.2969 8.09375 51.2969 22.1094
C51.2969 35.4375 42.2969 44.8125 29.5938 44.8125
C22.5938 44.8125 17.0938 42.1094 13.2969 36.9062
C13.4062 53.8125 19 63.1875 29.0938 63.1875
C35.2969 63.1875 39.5938 59.4219 41 52.8438
z

M28.5 37
C37 37 42.2969 31.0312 42.2969 21.4062
C42.2969 12.3906 36.2969 5.8125 28.2031 5.8125
C20 5.8125 13.7969 12.7031 13.7969 21.9062
C13.7969 30.8281 19.7969 37 28.5 37" id="Nimbus_Sans_L_Regular-54"/>
     <path d="
M27.5 71
C20.9062 71 14.9062 68.125 11.2031 63.2188
C6.59375 57.0469 4.29688 47.5625 4.29688 34.5
C4.29688 10.6719 12.2969 -2 27.5 -2
C42.5 -2 50.7031 10.6719 50.7031 33.9062
C50.7031 47.6562 48.5 56.8438 43.7969 63.2188
C40.0938 68.2188 34.2031 71 27.5 71
M27.5 63.1875
C37 63.1875 41.7031 53.625 41.7031 34.7031
C41.7031 14.6719 37.0938 5.3125 27.2969 5.3125
C18 5.3125 13.2969 15.0781 13.2969 34.4062
C13.2969 53.7188 18 63.1875 27.5 63.1875" id="Nimbus_Sans_L_Regular-48"/>
    </defs>
    <g style="fill:#0000ff;" transform="translate(437.878336031 354.616043153)scale(0.2 -0.2)">
     <use transform="translate(0.0 14.9439145441)scale(0.996264009963)" xlink:href="#CMMI12-115"/>
     <use transform="translate(45.9500475512 0.0)scale(0.697381766617)" xlink:href="#CMMI12-100"/>
     <use transform="translate(109.604394896 14.9439145441)scale(0.996264009963)" xlink:href="#CMR17-61"/>
     <use transform="translate(209.014352915 14.9439145441)scale(0.996264009963)" xlink:href="#Nimbus_Sans_L_Regular-48"/>
     <use transform="translate(264.406029878 14.9439145441)scale(0.996264009963)" xlink:href="#Nimbus_Sans_L_Regular-46"/>
     <use transform="translate(292.101199481 14.9439145441)scale(0.996264009963)" xlink:href="#Nimbus_Sans_L_Regular-48"/>
     <use transform="translate(347.492876445 14.9439145441)scale(0.996264009963)" xlink:href="#Nimbus_Sans_L_Regular-48"/>
     <use transform="translate(402.884553408 14.9439145441)scale(0.996264009963)" xlink:href="#Nimbus_Sans_L_Regular-54"/>
    </g>
   </g>
   <g id="text_16">
    <!-- $s_d = $ 0.002 -->
    <defs>
     <path d="
M50.5938 8.71875
L13.2969 8.71875
C14.2031 14.5312 17.4062 18.2344 26.0938 23.3438
L36.0938 28.75
C46 34.1562 51.0938 41.4531 51.0938 50.1719
C51.0938 56.0781 48.7031 61.5938 44.5 65.3906
C40.2969 69.2031 35.0938 71 28.4062 71
C19.4062 71 12.7031 67.7969 8.79688 61.7969
C6.29688 57.9844 5.20312 53.5781 5 46.3594
L13.7969 46.3594
C14.0938 51.1719 14.7031 54.0781 15.9062 56.375
C18.2031 60.6875 22.7969 63.2969 28.0938 63.2969
C36.0938 63.2969 42.0938 57.5781 42.0938 49.9688
C42.0938 44.3594 38.7969 39.5469 32.5 35.9531
L23.2969 30.75
C8.5 22.3438 4.20312 15.625 3.40625 0
L50.5938 0
z
" id="Nimbus_Sans_L_Regular-50"/>
    </defs>
    <g style="fill:#008000;" transform="translate(437.878336031 226.066528589)scale(0.2 -0.2)">
     <use transform="translate(0.0 14.9439145441)scale(0.996264009963)" xlink:href="#CMMI12-115"/>
     <use transform="translate(45.9500475512 0.0)scale(0.697381766617)" xlink:href="#CMMI12-100"/>
     <use transform="translate(109.604394896 14.9439145441)scale(0.996264009963)" xlink:href="#CMR17-61"/>
     <use transform="translate(209.014352915 14.9439145441)scale(0.996264009963)" xlink:href="#Nimbus_Sans_L_Regular-48"/>
     <use transform="translate(264.406029878 14.9439145441)scale(0.996264009963)" xlink:href="#Nimbus_Sans_L_Regular-46"/>
     <use transform="translate(292.101199481 14.9439145441)scale(0.996264009963)" xlink:href="#Nimbus_Sans_L_Regular-48"/>
     <use transform="translate(347.492876445 14.9439145441)scale(0.996264009963)" xlink:href="#Nimbus_Sans_L_Regular-48"/>
     <use transform="translate(402.884553408 14.9439145441)scale(0.996264009963)" xlink:href="#Nimbus_Sans_L_Regular-50"/>
    </g>
   </g>
   <g id="text_17">
    <!-- $s_d = $ 0.0006 -->
    <g style="fill:#ff0000;" transform="translate(437.878336031 169.084988664)scale(0.2 -0.2)">
     <use transform="translate(0.0 14.9439145441)scale(0.996264009963)" xlink:href="#CMMI12-115"/>
     <use transform="translate(45.9500475512 0.0)scale(0.697381766617)" xlink:href="#CMMI12-100"/>
     <use transform="translate(109.604394896 14.9439145441)scale(0.996264009963)" xlink:href="#CMR17-61"/>
     <use transform="translate(209.014352915 14.9439145441)scale(0.996264009963)" xlink:href="#Nimbus_Sans_L_Regular-48"/>
     <use transform="translate(264.406029878 14.9439145441)scale(0.996264009963)" xlink:href="#Nimbus_Sans_L_Regular-46"/>
     <use transform="translate(292.101199481 14.9439145441)scale(0.996264009963)" xlink:href="#Nimbus_Sans_L_Regular-48"/>
     <use transform="translate(347.492876445 14.9439145441)scale(0.996264009963)" xlink:href="#Nimbus_Sans_L_Regular-48"/>
     <use transform="translate(402.884553408 14.9439145441)scale(0.996264009963)" xlink:href="#Nimbus_Sans_L_Regular-48"/>
     <use transform="translate(458.276230371 14.9439145441)scale(0.996264009963)" xlink:href="#Nimbus_Sans_L_Regular-54"/>
    </g>
   </g>
  </g>
  <g id="axes_2">
   <g id="patch_10">
    <path d="
M144 112.32
L288 112.32
L288 21.6
L144 21.6
z
" style="fill:#ffffff;"/>
   </g>
   <g id="PathCollection_4">
    <defs>
     <path d="
M0 5
C1.32602 5 2.5979 4.47317 3.53553 3.53553
C4.47317 2.5979 5 1.32602 5 0
C5 -1.32602 4.47317 -2.5979 3.53553 -3.53553
C2.5979 -4.47317 1.32602 -5 0 -5
C-1.32602 -5 -2.5979 -4.47317 -3.53553 -3.53553
C-4.47317 -2.5979 -5 -1.32602 -5 0
C-5 1.32602 -4.47317 2.5979 -3.53553 3.53553
C-2.5979 4.47317 -1.32602 5 0 5
z
" id="C3_0_95d0887793"/>
    </defs>
    <g clip-path="url(#p92b8ab0292)">
     <use style="fill:none;stroke:#0000ff;stroke-width:2.0;" x="250.35273034" xlink:href="#C3_0_95d0887793" y="86.0928390229"/>
    </g>
   </g>
   <g id="PathCollection_5">
    <defs>
     <path d="
M-5 5
L5 5
L5 -5
L-5 -5
z
" id="C4_0_4423ab310f"/>
    </defs>
    <g clip-path="url(#p92b8ab0292)">
     <use style="fill:none;stroke:#008000;stroke-width:2.0;" x="216.0" xlink:href="#C4_0_4423ab310f" y="53.2842830125"/>
    </g>
   </g>
   <g id="PathCollection_6">
    <defs>
     <path d="
M0 -5
L-5 5
L5 5
z
" id="C5_0_98c72b3335"/>
    </defs>
    <g clip-path="url(#p92b8ab0292)">
     <use style="fill:none;stroke:#ff0000;stroke-width:2.0;" x="178.35273034" xlink:href="#C5_0_98c72b3335" y="39.0208831161"/>
    </g>
   </g>
   <g id="line2d_29">
    <path clip-path="url(#p92b8ab0292)" d="
M250.353 86.0928
L216 53.2843
L178.353 39.0209" style="fill:none;stroke:#000000;stroke-linecap:square;stroke-width:2;"/>
   </g>
   <g id="line2d_30">
    <path clip-path="url(#p92b8ab0292)" d="
M178.353 51.251
L172.652 71.6635" style="fill:none;stroke:#800080;stroke-linecap:square;stroke-width:1.2;"/>
   </g>
   <g id="line2d_31">
    <path clip-path="url(#p92b8ab0292)" d="
M144 49.8211
L288 49.8211" style="fill:none;stroke:#800080;stroke-dasharray:6.000000,6.000000;stroke-dashoffset:0.0;stroke-width:1.5;"/>
   </g>
   <g id="matplotlib.axis_3">
    <g id="xtick_7">
     <g id="line2d_32">
      <g>
       <use style="stroke:#000000;stroke-width:0.5;" x="144.0" xlink:href="#m93b0483c22" y="112.32"/>
      </g>
     </g>
     <g id="line2d_33">
      <g>
       <use style="stroke:#000000;stroke-width:0.5;" x="144.0" xlink:href="#m741efc42ff" y="21.6"/>
      </g>
     </g>
     <g id="text_18">
      <!-- $10^{-4}$ -->
      <defs>
       <path d="
M65.9062 23
C67.5938 23 69.4062 23 69.4062 25
C69.4062 27 67.5938 27 65.9062 27
L11.7969 27
C10.0938 27 8.29688 27 8.29688 25
C8.29688 23 10.0938 23 11.7969 23
z
" id="CMSY10-0"/>
      </defs>
      <g transform="translate(126.023580701 130.516640528)scale(0.2 -0.2)">
       <use transform="scale(0.996264009963)" xlink:href="#CMR17-49"/>
       <use transform="translate(45.6904771171 0.0)scale(0.996264009963)" xlink:href="#CMR17-48"/>
       <use transform="translate(91.3809542341 36.1536389419)scale(0.697381766617)" xlink:href="#CMSY10-0"/>
       <use transform="translate(145.621947482 36.1536389419)scale(0.697381766617)" xlink:href="#CMR17-52"/>
      </g>
     </g>
    </g>
    <g id="xtick_8">
     <g id="line2d_34">
      <g>
       <use style="stroke:#000000;stroke-width:0.5;" x="216.0" xlink:href="#m93b0483c22" y="112.32"/>
      </g>
     </g>
     <g id="line2d_35">
      <g>
       <use style="stroke:#000000;stroke-width:0.5;" x="216.0" xlink:href="#m741efc42ff" y="21.6"/>
      </g>
     </g>
     <g id="text_19">
      <!-- $10^{-3}$ -->
      <defs>
       <path d="
M22.0938 33.7031
C31 33.7031 34.9062 25.9688 34.9062 17.0312
C34.9062 5 28.5 0.390625 22.7031 0.390625
C17.4062 0.390625 8.79688 3.03125 6.09375 10.8281
C6.59375 10.625 7.09375 10.625 7.59375 10.625
C10 10.625 11.7969 12.2188 11.7969 14.8125
C11.7969 17.7031 9.59375 19 7.59375 19
C5.90625 19 3.29688 18.2031 3.29688 14.4688
C3.29688 5.23438 12.2969 -2 22.9062 -2
C34 -2 42.5 6.71875 42.5 16.9531
C42.5 26.6719 34.5 33.6875 25 34.7969
C32.5938 36.375 39.9062 43.0625 39.9062 52.0156
C39.9062 59.6875 32 65.2969 23 65.2969
C13.9062 65.2969 5.90625 59.8281 5.90625 52.0156
C5.90625 48.5938 8.5 48 9.79688 48
C11.9062 48 13.7031 49.2969 13.7031 51.8906
C13.7031 54.4688 11.9062 55.7656 9.79688 55.7656
C9.40625 55.7656 8.90625 55.7656 8.5 55.5625
C11.4062 61.8594 19.2969 63 22.7969 63
C26.2969 63 32.9062 61.3281 32.9062 51.875
C32.9062 49.1094 32.5 44.1875 29.0938 39.8438
C26.0938 36 22.7031 36 19.4062 35.5938
C18.9062 35.5938 16.5938 35.5938 16.2031 35.5938
C15.5 35.4844 15.0938 35.3906 15.0938 34.5938
C15.0938 33.8125 15.2031 33.7031 17.2031 33.7031
z
" id="CMR17-51"/>
      </defs>
      <g transform="translate(198.023580701 130.516640528)scale(0.2 -0.2)">
       <use transform="scale(0.996264009963)" xlink:href="#CMR17-49"/>
       <use transform="translate(45.6904771171 0.0)scale(0.996264009963)" xlink:href="#CMR17-48"/>
       <use transform="translate(91.3809542341 36.1536389419)scale(0.697381766617)" xlink:href="#CMSY10-0"/>
       <use transform="translate(145.621947482 36.1536389419)scale(0.697381766617)" xlink:href="#CMR17-51"/>
      </g>
     </g>
    </g>
    <g id="xtick_9">
     <g id="line2d_36">
      <g>
       <use style="stroke:#000000;stroke-width:0.5;" x="288.0" xlink:href="#m93b0483c22" y="112.32"/>
      </g>
     </g>
     <g id="line2d_37">
      <g>
       <use style="stroke:#000000;stroke-width:0.5;" x="288.0" xlink:href="#m741efc42ff" y="21.6"/>
      </g>
     </g>
     <g id="text_20">
      <!-- $10^{-2}$ -->
      <g transform="translate(270.023580701 130.516640528)scale(0.2 -0.2)">
       <use transform="scale(0.996264009963)" xlink:href="#CMR17-49"/>
       <use transform="translate(45.6904771171 0.0)scale(0.996264009963)" xlink:href="#CMR17-48"/>
       <use transform="translate(91.3809542341 36.1536389419)scale(0.697381766617)" xlink:href="#CMSY10-0"/>
       <use transform="translate(145.621947482 36.1536389419)scale(0.697381766617)" xlink:href="#CMR17-50"/>
      </g>
     </g>
    </g>
    <g id="xtick_10">
     <g id="line2d_38">
      <defs>
       <path d="
M0 0
L0 -2" id="m177f7580d0" style="stroke:#000000;stroke-width:0.5;"/>
      </defs>
      <g>
       <use style="stroke:#000000;stroke-width:0.5;" x="165.674159688" xlink:href="#m177f7580d0" y="112.32"/>
      </g>
     </g>
     <g id="line2d_39">
      <defs>
       <path d="
M0 0
L0 2" id="m5284c7e2a0" style="stroke:#000000;stroke-width:0.5;"/>
      </defs>
      <g>
       <use style="stroke:#000000;stroke-width:0.5;" x="165.674159688" xlink:href="#m5284c7e2a0" y="21.6"/>
      </g>
     </g>
    </g>
    <g id="xtick_11">
     <g id="line2d_40">
      <g>
       <use style="stroke:#000000;stroke-width:0.5;" x="178.35273034" xlink:href="#m177f7580d0" y="112.32"/>
      </g>
     </g>
     <g id="line2d_41">
      <g>
       <use style="stroke:#000000;stroke-width:0.5;" x="178.35273034" xlink:href="#m5284c7e2a0" y="21.6"/>
      </g>
     </g>
    </g>
    <g id="xtick_12">
     <g id="line2d_42">
      <g>
       <use style="stroke:#000000;stroke-width:0.5;" x="187.348319376" xlink:href="#m177f7580d0" y="112.32"/>
      </g>
     </g>
     <g id="line2d_43">
      <g>
       <use style="stroke:#000000;stroke-width:0.5;" x="187.348319376" xlink:href="#m5284c7e2a0" y="21.6"/>
      </g>
     </g>
    </g>
    <g id="xtick_13">
     <g id="line2d_44">
      <g>
       <use style="stroke:#000000;stroke-width:0.5;" x="194.325840312" xlink:href="#m177f7580d0" y="112.32"/>
      </g>
     </g>
     <g id="line2d_45">
      <g>
       <use style="stroke:#000000;stroke-width:0.5;" x="194.325840312" xlink:href="#m5284c7e2a0" y="21.6"/>
      </g>
     </g>
    </g>
    <g id="xtick_14">
     <g id="line2d_46">
      <g>
       <use style="stroke:#000000;stroke-width:0.5;" x="200.026890028" xlink:href="#m177f7580d0" y="112.32"/>
      </g>
     </g>
     <g id="line2d_47">
      <g>
       <use style="stroke:#000000;stroke-width:0.5;" x="200.026890028" xlink:href="#m5284c7e2a0" y="21.6"/>
      </g>
     </g>
    </g>
    <g id="xtick_15">
     <g id="line2d_48">
      <g>
       <use style="stroke:#000000;stroke-width:0.5;" x="204.847058881" xlink:href="#m177f7580d0" y="112.32"/>
      </g>
     </g>
     <g id="line2d_49">
      <g>
       <use style="stroke:#000000;stroke-width:0.5;" x="204.847058881" xlink:href="#m5284c7e2a0" y="21.6"/>
      </g>
     </g>
    </g>
    <g id="xtick_16">
     <g id="line2d_50">
      <g>
       <use style="stroke:#000000;stroke-width:0.5;" x="209.022479063" xlink:href="#m177f7580d0" y="112.32"/>
      </g>
     </g>
     <g id="line2d_51">
      <g>
       <use style="stroke:#000000;stroke-width:0.5;" x="209.022479063" xlink:href="#m5284c7e2a0" y="21.6"/>
      </g>
     </g>
    </g>
    <g id="xtick_17">
     <g id="line2d_52">
      <g>
       <use style="stroke:#000000;stroke-width:0.5;" x="212.70546068" xlink:href="#m177f7580d0" y="112.32"/>
      </g>
     </g>
     <g id="line2d_53">
      <g>
       <use style="stroke:#000000;stroke-width:0.5;" x="212.70546068" xlink:href="#m5284c7e2a0" y="21.6"/>
      </g>
     </g>
    </g>
    <g id="xtick_18">
     <g id="line2d_54">
      <g>
       <use style="stroke:#000000;stroke-width:0.5;" x="237.674159688" xlink:href="#m177f7580d0" y="112.32"/>
      </g>
     </g>
     <g id="line2d_55">
      <g>
       <use style="stroke:#000000;stroke-width:0.5;" x="237.674159688" xlink:href="#m5284c7e2a0" y="21.6"/>
      </g>
     </g>
    </g>
    <g id="xtick_19">
     <g id="line2d_56">
      <g>
       <use style="stroke:#000000;stroke-width:0.5;" x="250.35273034" xlink:href="#m177f7580d0" y="112.32"/>
      </g>
     </g>
     <g id="line2d_57">
      <g>
       <use style="stroke:#000000;stroke-width:0.5;" x="250.35273034" xlink:href="#m5284c7e2a0" y="21.6"/>
      </g>
     </g>
    </g>
    <g id="xtick_20">
     <g id="line2d_58">
      <g>
       <use style="stroke:#000000;stroke-width:0.5;" x="259.348319376" xlink:href="#m177f7580d0" y="112.32"/>
      </g>
     </g>
     <g id="line2d_59">
      <g>
       <use style="stroke:#000000;stroke-width:0.5;" x="259.348319376" xlink:href="#m5284c7e2a0" y="21.6"/>
      </g>
     </g>
    </g>
    <g id="xtick_21">
     <g id="line2d_60">
      <g>
       <use style="stroke:#000000;stroke-width:0.5;" x="266.325840312" xlink:href="#m177f7580d0" y="112.32"/>
      </g>
     </g>
     <g id="line2d_61">
      <g>
       <use style="stroke:#000000;stroke-width:0.5;" x="266.325840312" xlink:href="#m5284c7e2a0" y="21.6"/>
      </g>
     </g>
    </g>
    <g id="xtick_22">
     <g id="line2d_62">
      <g>
       <use style="stroke:#000000;stroke-width:0.5;" x="272.026890028" xlink:href="#m177f7580d0" y="112.32"/>
      </g>
     </g>
     <g id="line2d_63">
      <g>
       <use style="stroke:#000000;stroke-width:0.5;" x="272.026890028" xlink:href="#m5284c7e2a0" y="21.6"/>
      </g>
     </g>
    </g>
    <g id="xtick_23">
     <g id="line2d_64">
      <g>
       <use style="stroke:#000000;stroke-width:0.5;" x="276.847058881" xlink:href="#m177f7580d0" y="112.32"/>
      </g>
     </g>
     <g id="line2d_65">
      <g>
       <use style="stroke:#000000;stroke-width:0.5;" x="276.847058881" xlink:href="#m5284c7e2a0" y="21.6"/>
      </g>
     </g>
    </g>
    <g id="xtick_24">
     <g id="line2d_66">
      <g>
       <use style="stroke:#000000;stroke-width:0.5;" x="281.022479063" xlink:href="#m177f7580d0" y="112.32"/>
      </g>
     </g>
     <g id="line2d_67">
      <g>
       <use style="stroke:#000000;stroke-width:0.5;" x="281.022479063" xlink:href="#m5284c7e2a0" y="21.6"/>
      </g>
     </g>
    </g>
    <g id="xtick_25">
     <g id="line2d_68">
      <g>
       <use style="stroke:#000000;stroke-width:0.5;" x="284.70546068" xlink:href="#m177f7580d0" y="112.32"/>
      </g>
     </g>
     <g id="line2d_69">
      <g>
       <use style="stroke:#000000;stroke-width:0.5;" x="284.70546068" xlink:href="#m5284c7e2a0" y="21.6"/>
      </g>
     </g>
    </g>
    <g id="text_21">
     <!-- $s_d$ -->
     <g transform="translate(208.671106702 152.5375898)scale(0.18 -0.18)">
      <use transform="translate(0.0 14.9439145441)scale(0.996264009963)" xlink:href="#CMMI12-115"/>
      <use transform="translate(45.9500475512 0.0)scale(0.697381766617)" xlink:href="#CMMI12-100"/>
     </g>
    </g>
   </g>
   <g id="matplotlib.axis_4">
    <g id="ytick_7">
     <g id="line2d_70">
      <g>
       <use style="stroke:#000000;stroke-width:0.5;" x="144.0" xlink:href="#m728421d6d4" y="112.32"/>
      </g>
     </g>
     <g id="line2d_71">
      <g>
       <use style="stroke:#000000;stroke-width:0.5;" x="288.0" xlink:href="#mcb0005524f" y="112.32"/>
      </g>
     </g>
     <g id="text_22">
      <!-- $10^{-4}$ -->
      <g transform="translate(104.047161402 117.296333865)scale(0.2 -0.2)">
       <use transform="scale(0.996264009963)" xlink:href="#CMR17-49"/>
       <use transform="translate(45.6904771171 0.0)scale(0.996264009963)" xlink:href="#CMR17-48"/>
       <use transform="translate(91.3809542341 36.1536389419)scale(0.697381766617)" xlink:href="#CMSY10-0"/>
       <use transform="translate(145.621947482 36.1536389419)scale(0.697381766617)" xlink:href="#CMR17-52"/>
      </g>
     </g>
    </g>
    <g id="ytick_8">
     <g id="line2d_72">
      <g>
       <use style="stroke:#000000;stroke-width:0.5;" x="144.0" xlink:href="#m728421d6d4" y="81.0705380796"/>
      </g>
     </g>
     <g id="line2d_73">
      <g>
       <use style="stroke:#000000;stroke-width:0.5;" x="288.0" xlink:href="#mcb0005524f" y="81.0705380796"/>
      </g>
     </g>
     <g id="text_23">
      <!-- $10^{-3}$ -->
      <g transform="translate(104.047161402 86.0468719448)scale(0.2 -0.2)">
       <use transform="scale(0.996264009963)" xlink:href="#CMR17-49"/>
       <use transform="translate(45.6904771171 0.0)scale(0.996264009963)" xlink:href="#CMR17-48"/>
       <use transform="translate(91.3809542341 36.1536389419)scale(0.697381766617)" xlink:href="#CMSY10-0"/>
       <use transform="translate(145.621947482 36.1536389419)scale(0.697381766617)" xlink:href="#CMR17-51"/>
      </g>
     </g>
    </g>
    <g id="ytick_9">
     <g id="line2d_74">
      <g>
       <use style="stroke:#000000;stroke-width:0.5;" x="144.0" xlink:href="#m728421d6d4" y="49.8210761592"/>
      </g>
     </g>
     <g id="line2d_75">
      <g>
       <use style="stroke:#000000;stroke-width:0.5;" x="288.0" xlink:href="#mcb0005524f" y="49.8210761592"/>
      </g>
     </g>
     <g id="text_24">
      <!-- $10^{-2}$ -->
      <g transform="translate(104.047161402 54.7974100244)scale(0.2 -0.2)">
       <use transform="scale(0.996264009963)" xlink:href="#CMR17-49"/>
       <use transform="translate(45.6904771171 0.0)scale(0.996264009963)" xlink:href="#CMR17-48"/>
       <use transform="translate(91.3809542341 36.1536389419)scale(0.697381766617)" xlink:href="#CMSY10-0"/>
       <use transform="translate(145.621947482 36.1536389419)scale(0.697381766617)" xlink:href="#CMR17-50"/>
      </g>
     </g>
    </g>
    <g id="ytick_10">
     <g id="line2d_76">
      <defs>
       <path d="
M0 0
L2 0" id="mf0c55a9a47" style="stroke:#000000;stroke-width:0.5;"/>
      </defs>
      <g>
       <use style="stroke:#000000;stroke-width:0.5;" x="144.0" xlink:href="#mf0c55a9a47" y="102.912974614"/>
      </g>
     </g>
     <g id="line2d_77">
      <defs>
       <path d="
M0 0
L-2 0" id="ma4f294b3af" style="stroke:#000000;stroke-width:0.5;"/>
      </defs>
      <g>
       <use style="stroke:#000000;stroke-width:0.5;" x="288.0" xlink:href="#ma4f294b3af" y="102.912974614"/>
      </g>
     </g>
    </g>
    <g id="ytick_11">
     <g id="line2d_78">
      <g>
       <use style="stroke:#000000;stroke-width:0.5;" x="144.0" xlink:href="#mf0c55a9a47" y="97.4102175192"/>
      </g>
     </g>
     <g id="line2d_79">
      <g>
       <use style="stroke:#000000;stroke-width:0.5;" x="288.0" xlink:href="#ma4f294b3af" y="97.4102175192"/>
      </g>
     </g>
    </g>
    <g id="ytick_12">
     <g id="line2d_80">
      <g>
       <use style="stroke:#000000;stroke-width:0.5;" x="144.0" xlink:href="#mf0c55a9a47" y="93.5059492272"/>
      </g>
     </g>
     <g id="line2d_81">
      <g>
       <use style="stroke:#000000;stroke-width:0.5;" x="288.0" xlink:href="#ma4f294b3af" y="93.5059492272"/>
      </g>
     </g>
    </g>
    <g id="ytick_13">
     <g id="line2d_82">
      <g>
       <use style="stroke:#000000;stroke-width:0.5;" x="144.0" xlink:href="#mf0c55a9a47" y="90.477563466"/>
      </g>
     </g>
     <g id="line2d_83">
      <g>
       <use style="stroke:#000000;stroke-width:0.5;" x="288.0" xlink:href="#ma4f294b3af" y="90.477563466"/>
      </g>
     </g>
    </g>
    <g id="ytick_14">
     <g id="line2d_84">
      <g>
       <use style="stroke:#000000;stroke-width:0.5;" x="144.0" xlink:href="#mf0c55a9a47" y="88.0031921328"/>
      </g>
     </g>
     <g id="line2d_85">
      <g>
       <use style="stroke:#000000;stroke-width:0.5;" x="288.0" xlink:href="#ma4f294b3af" y="88.0031921328"/>
      </g>
     </g>
    </g>
    <g id="ytick_15">
     <g id="line2d_86">
      <g>
       <use style="stroke:#000000;stroke-width:0.5;" x="144.0" xlink:href="#mf0c55a9a47" y="85.9111409796"/>
      </g>
     </g>
     <g id="line2d_87">
      <g>
       <use style="stroke:#000000;stroke-width:0.5;" x="288.0" xlink:href="#ma4f294b3af" y="85.9111409796"/>
      </g>
     </g>
    </g>
    <g id="ytick_16">
     <g id="line2d_88">
      <g>
       <use style="stroke:#000000;stroke-width:0.5;" x="144.0" xlink:href="#mf0c55a9a47" y="84.0989238408"/>
      </g>
     </g>
     <g id="line2d_89">
      <g>
       <use style="stroke:#000000;stroke-width:0.5;" x="288.0" xlink:href="#ma4f294b3af" y="84.0989238408"/>
      </g>
     </g>
    </g>
    <g id="ytick_17">
     <g id="line2d_90">
      <g>
       <use style="stroke:#000000;stroke-width:0.5;" x="144.0" xlink:href="#mf0c55a9a47" y="82.5004350384"/>
      </g>
     </g>
     <g id="line2d_91">
      <g>
       <use style="stroke:#000000;stroke-width:0.5;" x="288.0" xlink:href="#ma4f294b3af" y="82.5004350384"/>
      </g>
     </g>
    </g>
    <g id="ytick_18">
     <g id="line2d_92">
      <g>
       <use style="stroke:#000000;stroke-width:0.5;" x="144.0" xlink:href="#mf0c55a9a47" y="71.6635126932"/>
      </g>
     </g>
     <g id="line2d_93">
      <g>
       <use style="stroke:#000000;stroke-width:0.5;" x="288.0" xlink:href="#ma4f294b3af" y="71.6635126932"/>
      </g>
     </g>
    </g>
    <g id="ytick_19">
     <g id="line2d_94">
      <g>
       <use style="stroke:#000000;stroke-width:0.5;" x="144.0" xlink:href="#mf0c55a9a47" y="66.1607555988"/>
      </g>
     </g>
     <g id="line2d_95">
      <g>
       <use style="stroke:#000000;stroke-width:0.5;" x="288.0" xlink:href="#ma4f294b3af" y="66.1607555988"/>
      </g>
     </g>
    </g>
    <g id="ytick_20">
     <g id="line2d_96">
      <g>
       <use style="stroke:#000000;stroke-width:0.5;" x="144.0" xlink:href="#mf0c55a9a47" y="62.2564873068"/>
      </g>
     </g>
     <g id="line2d_97">
      <g>
       <use style="stroke:#000000;stroke-width:0.5;" x="288.0" xlink:href="#ma4f294b3af" y="62.2564873068"/>
      </g>
     </g>
    </g>
    <g id="ytick_21">
     <g id="line2d_98">
      <g>
       <use style="stroke:#000000;stroke-width:0.5;" x="144.0" xlink:href="#mf0c55a9a47" y="59.2281015456"/>
      </g>
     </g>
     <g id="line2d_99">
      <g>
       <use style="stroke:#000000;stroke-width:0.5;" x="288.0" xlink:href="#ma4f294b3af" y="59.2281015456"/>
      </g>
     </g>
    </g>
    <g id="ytick_22">
     <g id="line2d_100">
      <g>
       <use style="stroke:#000000;stroke-width:0.5;" x="144.0" xlink:href="#mf0c55a9a47" y="56.7537302124"/>
      </g>
     </g>
     <g id="line2d_101">
      <g>
       <use style="stroke:#000000;stroke-width:0.5;" x="288.0" xlink:href="#ma4f294b3af" y="56.7537302124"/>
      </g>
     </g>
    </g>
    <g id="ytick_23">
     <g id="line2d_102">
      <g>
       <use style="stroke:#000000;stroke-width:0.5;" x="144.0" xlink:href="#mf0c55a9a47" y="54.6616790592"/>
      </g>
     </g>
     <g id="line2d_103">
      <g>
       <use style="stroke:#000000;stroke-width:0.5;" x="288.0" xlink:href="#ma4f294b3af" y="54.6616790592"/>
      </g>
     </g>
    </g>
    <g id="ytick_24">
     <g id="line2d_104">
      <g>
       <use style="stroke:#000000;stroke-width:0.5;" x="144.0" xlink:href="#mf0c55a9a47" y="52.8494619204"/>
      </g>
     </g>
     <g id="line2d_105">
      <g>
       <use style="stroke:#000000;stroke-width:0.5;" x="288.0" xlink:href="#ma4f294b3af" y="52.8494619204"/>
      </g>
     </g>
    </g>
    <g id="ytick_25">
     <g id="line2d_106">
      <g>
       <use style="stroke:#000000;stroke-width:0.5;" x="144.0" xlink:href="#mf0c55a9a47" y="51.250973118"/>
      </g>
     </g>
     <g id="line2d_107">
      <g>
       <use style="stroke:#000000;stroke-width:0.5;" x="288.0" xlink:href="#ma4f294b3af" y="51.250973118"/>
      </g>
     </g>
    </g>
    <g id="ytick_26">
     <g id="line2d_108">
      <g>
       <use style="stroke:#000000;stroke-width:0.5;" x="144.0" xlink:href="#mf0c55a9a47" y="40.4140507728"/>
      </g>
     </g>
     <g id="line2d_109">
      <g>
       <use style="stroke:#000000;stroke-width:0.5;" x="288.0" xlink:href="#ma4f294b3af" y="40.4140507728"/>
      </g>
     </g>
    </g>
    <g id="ytick_27">
     <g id="line2d_110">
      <g>
       <use style="stroke:#000000;stroke-width:0.5;" x="144.0" xlink:href="#mf0c55a9a47" y="34.9112936784"/>
      </g>
     </g>
     <g id="line2d_111">
      <g>
       <use style="stroke:#000000;stroke-width:0.5;" x="288.0" xlink:href="#ma4f294b3af" y="34.9112936784"/>
      </g>
     </g>
    </g>
    <g id="ytick_28">
     <g id="line2d_112">
      <g>
       <use style="stroke:#000000;stroke-width:0.5;" x="144.0" xlink:href="#mf0c55a9a47" y="31.0070253864"/>
      </g>
     </g>
     <g id="line2d_113">
      <g>
       <use style="stroke:#000000;stroke-width:0.5;" x="288.0" xlink:href="#ma4f294b3af" y="31.0070253864"/>
      </g>
     </g>
    </g>
    <g id="ytick_29">
     <g id="line2d_114">
      <g>
       <use style="stroke:#000000;stroke-width:0.5;" x="144.0" xlink:href="#mf0c55a9a47" y="27.9786396252"/>
      </g>
     </g>
     <g id="line2d_115">
      <g>
       <use style="stroke:#000000;stroke-width:0.5;" x="288.0" xlink:href="#ma4f294b3af" y="27.9786396252"/>
      </g>
     </g>
    </g>
    <g id="ytick_30">
     <g id="line2d_116">
      <g>
       <use style="stroke:#000000;stroke-width:0.5;" x="144.0" xlink:href="#mf0c55a9a47" y="25.504268292"/>
      </g>
     </g>
     <g id="line2d_117">
      <g>
       <use style="stroke:#000000;stroke-width:0.5;" x="288.0" xlink:href="#ma4f294b3af" y="25.504268292"/>
      </g>
     </g>
    </g>
    <g id="ytick_31">
     <g id="line2d_118">
      <g>
       <use style="stroke:#000000;stroke-width:0.5;" x="144.0" xlink:href="#mf0c55a9a47" y="23.4122171388"/>
      </g>
     </g>
     <g id="line2d_119">
      <g>
       <use style="stroke:#000000;stroke-width:0.5;" x="288.0" xlink:href="#ma4f294b3af" y="23.4122171388"/>
      </g>
     </g>
    </g>
    <g id="ytick_32">
     <g id="line2d_120">
      <g>
       <use style="stroke:#000000;stroke-width:0.5;" x="144.0" xlink:href="#mf0c55a9a47" y="21.6"/>
      </g>
     </g>
     <g id="line2d_121">
      <g>
       <use style="stroke:#000000;stroke-width:0.5;" x="288.0" xlink:href="#ma4f294b3af" y="21.6"/>
      </g>
     </g>
    </g>
    <g id="text_25">
     <!-- $P_{interm}$ -->
     <defs>
      <path d="
M38.9062 40.8125
C35.7969 40.2188 34.2031 38.0156 34.2031 35.8281
C34.2031 33.4219 36.0938 32.625 37.5 32.625
C40.2969 32.625 42.5938 35.0312 42.5938 38.0156
C42.5938 41.2188 39.5 44 34.5 44
C30.5 44 25.9062 42.2031 21.7031 36.125
C21 41.4062 17 44 13 44
C9.09375 44 7.09375 41.0156 5.90625 38.8125
C4.20312 35.2188 2.70312 29.2344 2.70312 28.7344
C2.70312 28.3438 3.09375 27.8438 3.79688 27.8438
C4.59375 27.8438 4.70312 27.9375 5.29688 30.2344
C6.79688 36.2188 8.70312 42.0156 12.7031 42.0156
C15.0938 42.0156 15.7969 40.3125 15.7969 37.4219
C15.7969 35.2188 14.7969 31.3281 14.0938 28.2344
L11.2969 17.4688
C10.9062 15.5625 9.79688 11.0781 9.29688 9.28125
C8.59375 6.6875 7.5 2 7.5 1.5
C7.5 0.09375 8.59375 -1 10.0938 -1
C11.2031 -1 13.0938 -0.296875 13.7031 1.70312
C14 2.5 17.7031 17.5625 18.2969 19.8594
C18.7969 22.0469 19.4062 24.1562 19.9062 26.3438
C20.2969 27.7344 20.7031 29.3438 21 30.6406
C21.2969 31.5312 24 36.4219 26.5 38.625
C27.7031 39.7188 30.2969 42.0156 34.4062 42.0156
C36 42.0156 37.5938 41.7188 38.9062 40.8125" id="CMMI12-114"/>
      <path d="
M20.0938 40.0938
L29.2969 40.0938
C31.2031 40.0938 32.2031 40.0938 32.2031 41.8906
C32.2031 43 31.5938 43 29.5938 43
L20.7969 43
L24.5 57.6875
C24.9062 59.0781 24.9062 59.2812 24.9062 60
C24.9062 61.6094 23.5938 62.5 22.2969 62.5
C21.5 62.5 19.2031 62.2031 18.4062 58.9844
L14.5 43
L5.09375 43
C3.09375 43 2.20312 43 2.20312 41.0938
C2.20312 40.0938 2.90625 40.0938 4.79688 40.0938
L13.7031 40.0938
L7.09375 13.7656
C6.29688 10.2812 6 9.28125 6 7.98438
C6 3.29688 9.29688 -1 14.9062 -1
C25 -1 30.4062 13.5781 30.4062 14.2656
C30.4062 14.875 30 15.1719 29.4062 15.1719
C29.2031 15.1719 28.7969 15.1719 28.5938 14.7656
C28.5 14.6719 28.4062 14.5625 27.7031 12.9688
C25.5938 7.98438 21 1 15.2031 1
C12.2031 1 12 3.5 12 5.6875
C12 5.78125 12 7.6875 12.2969 8.875
z
" id="CMMI12-116"/>
      <path d="
M20.5938 29.2344
C20.7969 29.8438 23.2969 34.8281 27 38.0156
C29.5938 40.4062 33 42.0156 36.9062 42.0156
C40.9062 42.0156 42.2969 39.0156 42.2969 35.0312
C42.2969 34.4219 42.2969 32.4375 41.0938 27.7344
L38.5938 17.4688
C37.7969 14.4688 35.9062 7.07812 35.7031 5.98438
C35.2969 4.48438 34.7031 1.89062 34.7031 1.5
C34.7031 0.09375 35.7969 -1 37.2969 -1
C40.2969 -1 40.7969 1.29688 41.7031 4.89062
L47.7031 28.7344
C47.9062 29.5312 53.0938 42.0156 64.0938 42.0156
C68.0938 42.0156 69.5 39.0156 69.5 35.0312
C69.5 29.4375 65.5938 18.5625 63.4062 12.5781
C62.5 10.1719 62 8.875 62 7.07812
C62 2.59375 65.0938 -1 69.9062 -1
C79.2031 -1 82.7031 13.6719 82.7031 14.2656
C82.7031 14.7656 82.2969 15.1719 81.7031 15.1719
C80.7969 15.1719 80.7031 14.875 80.2031 13.1719
C77.9062 5.1875 74.2031 1 70.2031 1
C69.2031 1 67.5938 1 67.5938 4.20312
C67.5938 6.8125 68.7969 10 69.2031 11.0938
C71 15.9062 75.5 27.7031 75.5 33.5156
C75.5 39.5 72 44 64.4062 44
C57.7031 44 52.2969 40.2188 48.2969 34.3281
C48 39.7188 44.7031 44 37.2031 44
C28.2969 44 23.5938 37.7344 21.7969 35.2344
C21.5 40.9062 17.4062 44 13 44
C10.0938 44 7.79688 42.6094 5.90625 38.8125
C4.09375 35.2188 2.70312 29.1406 2.70312 28.7344
C2.70312 28.3438 3.09375 27.8438 3.79688 27.8438
C4.59375 27.8438 4.70312 27.9375 5.29688 30.2344
C6.79688 36.125 8.70312 42.0156 12.7031 42.0156
C15 42.0156 15.7969 40.4062 15.7969 37.4219
C15.7969 35.2188 14.7969 31.3281 14.0938 28.2344
L11.2969 17.4688
C10.9062 15.5625 9.79688 11.0781 9.29688 9.28125
C8.59375 6.6875 7.5 2 7.5 1.5
C7.5 0.09375 8.59375 -1 10.0938 -1
C11.2969 -1 12.7031 -0.40625 13.5 1.09375
C13.7031 1.59375 14.5938 5.09375 15.0938 7.07812
L17.2969 16.0625
z
" id="CMMI12-109"/>
      <path d="
M20.5938 29.2344
C20.7969 29.8438 23.2969 34.8281 27 38.0156
C29.5938 40.4062 33 42.0156 36.9062 42.0156
C40.9062 42.0156 42.2969 39.0156 42.2969 35.0312
C42.2969 29.3438 38.2031 17.9688 36.2031 12.5781
C35.2969 10.1719 34.7969 8.875 34.7969 7.07812
C34.7969 2.59375 37.9062 -1 42.7031 -1
C52 -1 55.5 13.6719 55.5 14.2656
C55.5 14.7656 55.0938 15.1719 54.5 15.1719
C53.5938 15.1719 53.5 14.875 53 13.1719
C50.7031 4.98438 46.9062 1 43 1
C42 1 40.4062 1 40.4062 4.20312
C40.4062 6.70312 41.5 9.70312 42.0938 11.0938
C44.0938 16.6094 48.2969 27.8125 48.2969 33.5156
C48.2969 39.5 44.7969 44 37.2031 44
C28.2969 44 23.5938 37.7344 21.7969 35.2344
C21.5 40.9062 17.4062 44 13 44
C9.79688 44 7.59375 42.1094 5.90625 38.7188
C4.09375 35.125 2.70312 29.1406 2.70312 28.7344
C2.70312 28.3438 3.09375 27.8438 3.79688 27.8438
C4.59375 27.8438 4.70312 27.9375 5.29688 30.2344
C6.90625 36.3281 8.70312 42.0156 12.7031 42.0156
C15 42.0156 15.7969 40.4062 15.7969 37.4219
C15.7969 35.2188 14.7969 31.3281 14.0938 28.2344
L11.2969 17.4688
C10.9062 15.5625 9.79688 11.0781 9.29688 9.28125
C8.59375 6.6875 7.5 2 7.5 1.5
C7.5 0.09375 8.59375 -1 10.0938 -1
C11.2969 -1 12.7031 -0.40625 13.5 1.09375
C13.7031 1.59375 14.5938 5.09375 15.0938 7.07812
L17.2969 16.0625
z
" id="CMMI12-110"/>
      <path d="
M17.9062 23.1094
C20.5938 23.1094 27.4062 23.1094 32.2031 24.9219
C39.7969 27.8594 40.5 33.7188 40.5 35.5312
C40.5 39.9688 36.7031 44 30.0938 44
C19.5938 44 4.5 34.5312 4.5 16.7656
C4.5 6.28125 10.5 -1 19.5938 -1
C33.2031 -1 41.7969 9.53125 41.7969 10.8125
C41.7969 11.4062 41.2031 11.9062 40.7969 11.9062
C40.5 11.9062 40.4062 11.8125 39.5 10.9219
C33.0938 2.48438 23.5938 1 19.7969 1
C14.0938 1 11.0938 5.46875 11.0938 12.8438
C11.0938 14.2344 11.0938 16.7344 12.5938 23.1094
z

M13.0938 25
C17.4062 40.5 26.9062 42.0156 30.0938 42.0156
C34.5 42.0156 37.5 39.4062 37.5 35.5781
C37.5 25 21.5 25 17.2969 25
z
" id="CMMI12-101"/>
     </defs>
     <g transform="translate(95.2275919647 91.7673630137)rotate(-90.0)scale(0.18 -0.18)">
      <use transform="translate(0.0 14.9439145441)scale(0.996264009963)" xlink:href="#CMMI12-80"/>
      <use transform="translate(62.8772322297 0.0)scale(0.697381766617)" xlink:href="#CMMI12-105"/>
      <use transform="translate(86.172139511 0.0)scale(0.697381766617)" xlink:href="#CMMI12-110"/>
      <use transform="translate(126.932982638 0.0)scale(0.697381766617)" xlink:href="#CMMI12-116"/>
      <use transform="translate(151.591292176 0.0)scale(0.697381766617)" xlink:href="#CMMI12-101"/>
      <use transform="translate(183.239548471 0.0)scale(0.697381766617)" xlink:href="#CMMI12-114"/>
      <use transform="translate(215.908817277 0.0)scale(0.697381766617)" xlink:href="#CMMI12-109"/>
     </g>
    </g>
   </g>
   <g id="patch_11">
    <path d="
M144 21.6
L288 21.6" style="fill:none;stroke:#000000;"/>
   </g>
   <g id="patch_12">
    <path d="
M288 112.32
L288 21.6" style="fill:none;stroke:#000000;"/>
   </g>
   <g id="patch_13">
    <path d="
M144 112.32
L288 112.32" style="fill:none;stroke:#000000;"/>
   </g>
   <g id="patch_14">
    <path d="
M144 112.32
L144 21.6" style="fill:none;stroke:#000000;"/>
   </g>
   <g id="text_26">
    <!-- observed -->
    <defs>
     <path d="
M5.40625 73
L5.40625 -0.03125
L12.9062 -0.03125
L12.9062 7
C16.9062 0.890625 22.2031 -2 29.5 -2
C43.2969 -2 52.2969 9.25 52.2969 26.5938
C52.2969 43.5312 43.7031 54 29.9062 54
C22.7031 54 17.5938 51.2812 13.7031 45.3906
L13.7031 73
z

M28.2969 46.1875
C37.5938 46.1875 43.5938 38.125 43.5938 25.7031
C43.5938 13.8594 37.4062 5.8125 28.2969 5.8125
C19.5 5.8125 13.7031 13.7656 13.7031 26
C13.7031 38.2344 19.5 46.1875 28.2969 46.1875" id="Nimbus_Sans_L_Regular-98"/>
     <path d="
M28.5 0
L48.5938 52.5
L39.2031 52.5
L24.4062 9.92188
L10.4062 52.5
L1 52.5
L19.4062 0
z
" id="Nimbus_Sans_L_Regular-118"/>
     <path d="
M27.2031 54
C12.5 54 3.59375 43.5312 3.59375 26
C3.59375 8.45312 12.4062 -2 27.2969 -2
C42 -2 51 8.45312 51 25.5938
C51 43.6406 42.2969 54 27.2031 54
M27.2969 46.2812
C36.7031 46.2812 42.2969 38.625 42.2969 25.7031
C42.2969 13.4531 36.5 5.70312 27.2969 5.70312
C18 5.70312 12.2969 13.3594 12.2969 26
C12.2969 38.5312 18 46.2812 27.2969 46.2812" id="Nimbus_Sans_L_Regular-111"/>
     <path d="
M51.2969 24
C51.2969 31.875 50.7031 36.5938 49.2031 40.4219
C45.7969 48.875 37.7969 54 28 54
C13.4062 54 4 42.8438 4 25.7031
C4 8.54688 13.0938 -2 27.7969 -2
C39.7969 -2 48.0938 4.875 50.2031 16.375
L41.7969 16.375
C39.5 9.35938 34.7969 5.70312 28.0938 5.70312
C22.7969 5.70312 18.2969 8.14062 15.5 12.6094
C13.5 15.6562 12.7969 18.7188 12.7031 24
z

M12.9062 30.8125
C13.5938 40.1875 19.5 46.2812 27.9062 46.2812
C36.0938 46.2812 42.4062 39.7031 42.4062 31.4062
C42.4062 31.2031 42.4062 31.0156 42.2969 30.8125
z
" id="Nimbus_Sans_L_Regular-101"/>
     <path d="
M49.5 73
L41.2031 73
L41.2031 45.8906
C37.7031 51.1875 32.0938 54 25.0938 54
C11.5 54 2.59375 43.1406 2.59375 26.4844
C2.59375 8.84375 11.2969 -2 25.4062 -2
C32.5938 -2 37.5938 0.703125 42.0938 7.20312
L42.0938 -0.03125
L49.5 -0.03125
z

M26.5 46.1875
C35.5 46.1875 41.2031 38.2344 41.2031 25.7969
C41.2031 13.7656 35.4062 5.8125 26.5938 5.8125
C17.4062 5.8125 11.2969 13.8594 11.2969 26
C11.2969 38.125 17.4062 46.1875 26.5 46.1875" id="Nimbus_Sans_L_Regular-100"/>
     <path d="
M6.90625 52.4844
L6.90625 0
L15.2969 0
L15.2969 27.25
C15.2969 34.7656 17.2031 39.6719 21.2031 42.5781
C23.7969 44.4844 26.2969 45.0781 32.0938 45.0781
L32.0938 53.7031
C30.7031 53.8906 30 54 28.9062 54
C23.5 54 19.4062 50.7812 14.5938 42.9688
L14.5938 52.4844
z
" id="Nimbus_Sans_L_Regular-114"/>
     <path d="
M43.7969 37.9219
C43.7031 48.2031 36.9062 54 24.7969 54
C12.5938 54 4.70312 47.7188 4.70312 38.0625
C4.70312 29.8906 8.90625 26.0156 21.2969 23.0312
L29.0938 21.1406
C34.9062 19.7344 37.2031 17.6562 37.2031 13.875
C37.2031 9 32.2969 5.70312 25 5.70312
C20.5 5.70312 16.7031 7 14.5938 9.1875
C13.2969 10.6875 12.7031 12.1719 12.2031 15.8438
L3.40625 15.8438
C3.79688 3.76562 10.5938 -2 24.2969 -2
C37.5 -2 45.9062 4.45312 45.9062 14.5156
C45.9062 22.2812 41.5 26.5781 31.0938 29.0625
L23.0938 30.9531
C16.2969 32.5312 13.4062 34.7344 13.4062 38.4062
C13.4062 43.1875 17.7031 46.2812 24.5 46.2812
C31.2031 46.2812 34.7969 43.3906 35 37.9219
z
" id="Nimbus_Sans_L_Regular-115"/>
    </defs>
    <g transform="translate(156.678570652 87.3189153876)scale(0.16 -0.16)">
     <use transform="scale(0.996264009963)" xlink:href="#Nimbus_Sans_L_Regular-111"/>
     <use transform="translate(55.3916769633 0.0)scale(0.996264009963)" xlink:href="#Nimbus_Sans_L_Regular-98"/>
     <use transform="translate(110.783353927 0.0)scale(0.996264009963)" xlink:href="#Nimbus_Sans_L_Regular-115"/>
     <use transform="translate(160.596554425 0.0)scale(0.996264009963)" xlink:href="#Nimbus_Sans_L_Regular-101"/>
     <use transform="translate(215.988231388 0.0)scale(0.996264009963)" xlink:href="#Nimbus_Sans_L_Regular-114"/>
     <use transform="translate(252.151553865 0.0)scale(0.996264009963)" xlink:href="#Nimbus_Sans_L_Regular-118"/>
     <use transform="translate(299.474124742 0.0)scale(0.996264009963)" xlink:href="#Nimbus_Sans_L_Regular-101"/>
     <use transform="translate(354.865801706 0.0)scale(0.996264009963)" xlink:href="#Nimbus_Sans_L_Regular-100"/>
    </g>
    <!-- diversity -->
    <defs>
     <path d="
M15 52.4844
L6.70312 52.4844
L6.70312 0
L15 0
z

M15 73
L6.59375 73
L6.59375 62.4844
L15 62.4844
z
" id="Nimbus_Sans_L_Regular-105"/>
     <path d="
M38.7969 52.5
L24.2969 11.5312
L10.9062 52.5
L2 52.5
L19.7031 -0.328125
L16.5 -8.65625
C15.2031 -12.375 13.2969 -13.7812 9.79688 -13.7812
C8.59375 -13.7812 7.20312 -13.5781 5.40625 -13.1719
L5.40625 -20.7031
C7.09375 -21.5938 8.79688 -22 11 -22
C13.7031 -22 16.5938 -21.0938 18.7969 -19.4844
C21.4062 -17.5781 22.9062 -15.3594 24.5 -11.1406
L47.7969 52.5
z
" id="Nimbus_Sans_L_Regular-121"/>
     <path d="
M25.4062 52.8125
L16.7969 52.8125
L16.7969 67
L8.5 67
L8.5 52.8125
L1.40625 52.8125
L1.40625 46
L8.5 46
L8.5 6.3125
C8.5 1 12.0938 -2 18.5938 -2
C20.5938 -2 22.5938 -1.8125 25.4062 -1.29688
L25.4062 5.71875
C24.2969 5.40625 23 5.3125 21.4062 5.3125
C17.7969 5.3125 16.7969 6.3125 16.7969 10.0156
L16.7969 46
L25.4062 46
z
" id="Nimbus_Sans_L_Regular-116"/>
    </defs>
    <g transform="translate(156.678570652 104.342871572)scale(0.16 -0.16)">
     <use transform="scale(0.996264009963)" xlink:href="#Nimbus_Sans_L_Regular-100"/>
     <use transform="translate(55.3916769633 0.0)scale(0.996264009963)" xlink:href="#Nimbus_Sans_L_Regular-105"/>
     <use transform="translate(77.5084613121 0.0)scale(0.996264009963)" xlink:href="#Nimbus_Sans_L_Regular-118"/>
     <use transform="translate(124.831032189 0.0)scale(0.996264009963)" xlink:href="#Nimbus_Sans_L_Regular-101"/>
     <use transform="translate(180.222709152 0.0)scale(0.996264009963)" xlink:href="#Nimbus_Sans_L_Regular-114"/>
     <use transform="translate(213.397938882 0.0)scale(0.996264009963)" xlink:href="#Nimbus_Sans_L_Regular-115"/>
     <use transform="translate(263.21113938 0.0)scale(0.996264009963)" xlink:href="#Nimbus_Sans_L_Regular-105"/>
     <use transform="translate(285.327923728 0.0)scale(0.996264009963)" xlink:href="#Nimbus_Sans_L_Regular-116"/>
     <use transform="translate(313.023093332 0.0)scale(0.996264009963)" xlink:href="#Nimbus_Sans_L_Regular-121"/>
    </g>
   </g>
  </g>
  <g id="axes_3">
   <g id="patch_15">
    <path d="
M103.68 239.76
L216 239.76
L216 162
L103.68 162
z
" style="fill:#ffffff;"/>
   </g>
   <g id="PolyCollection_1">
    <defs>
     <path d="
M104.781 -193.002
L104.781 -193.002
L104.891 -193.002
L105.002 -193.002
L105.112 -193.002
L105.222 -193.002
L105.332 -193.002
L105.443 -193.002
L105.553 -193.002
L105.663 -193.002
L105.773 -193.003
L105.883 -193.003
L105.994 -193.003
L106.104 -193.003
L106.214 -193.003
L106.324 -193.003
L106.435 -193.003
L106.545 -193.003
L106.655 -193.003
L106.765 -193.004
L106.876 -193.004
L106.986 -193.004
L107.096 -193.004
L107.206 -193.005
L107.316 -193.005
L107.427 -193.005
L107.537 -193.006
L107.647 -193.006
L107.757 -193.006
L107.868 -193.007
L107.978 -193.007
L108.088 -193.008
L108.198 -193.009
L108.308 -193.009
L108.419 -193.01
L108.529 -193.011
L108.639 -193.011
L108.749 -193.012
L108.86 -193.013
L108.97 -193.014
L109.08 -193.015
L109.19 -193.016
L109.301 -193.017
L109.411 -193.018
L109.521 -193.019
L109.631 -193.02
L109.741 -193.021
L109.852 -193.023
L109.962 -193.024
L110.072 -193.026
L110.182 -193.027
L110.293 -193.029
L110.403 -193.03
L110.513 -193.032
L110.623 -193.034
L110.733 -193.035
L110.844 -193.037
L110.954 -193.039
L111.064 -193.041
L111.174 -193.043
L111.285 -193.045
L111.395 -193.048
L111.505 -193.05
L111.615 -193.052
L111.726 -193.055
L111.836 -193.057
L111.946 -193.06
L112.056 -193.063
L112.166 -193.065
L112.277 -193.068
L112.387 -193.071
L112.497 -193.074
L112.607 -193.077
L112.718 -193.081
L112.828 -193.084
L112.938 -193.087
L113.048 -193.091
L113.158 -193.094
L113.269 -193.098
L113.379 -193.102
L113.489 -193.106
L113.599 -193.11
L113.71 -193.114
L113.82 -193.118
L113.93 -193.122
L114.04 -193.127
L114.151 -193.131
L114.261 -193.136
L114.371 -193.141
L114.481 -193.145
L114.591 -193.15
L114.702 -193.155
L114.812 -193.16
L114.922 -193.166
L115.032 -193.171
L115.143 -193.177
L115.253 -193.182
L115.363 -193.188
L115.473 -193.194
L115.584 -193.2
L115.694 -193.206
L115.804 -193.212
L115.914 -193.219
L116.024 -193.225
L116.135 -193.232
L116.245 -193.238
L116.355 -193.245
L116.465 -193.252
L116.576 -193.259
L116.686 -193.267
L116.796 -193.274
L116.906 -193.282
L117.016 -193.289
L117.127 -193.297
L117.237 -193.305
L117.347 -193.313
L117.457 -193.321
L117.568 -193.33
L117.678 -193.338
L117.788 -193.347
L117.898 -193.356
L118.009 -193.365
L118.119 -193.374
L118.229 -193.383
L118.339 -193.393
L118.449 -193.402
L118.56 -193.412
L118.67 -193.422
L118.78 -193.432
L118.89 -193.442
L119.001 -193.453
L119.111 -193.463
L119.221 -193.474
L119.331 -193.485
L119.441 -193.496
L119.552 -193.507
L119.662 -193.519
L119.772 -193.53
L119.882 -193.542
L119.993 -193.554
L120.103 -193.566
L120.213 -193.578
L120.323 -193.591
L120.434 -193.603
L120.544 -193.616
L120.654 -193.629
L120.764 -193.642
L120.874 -193.655
L120.985 -193.669
L121.095 -193.683
L121.205 -193.696
L121.315 -193.71
L121.426 -193.725
L121.536 -193.739
L121.646 -193.754
L121.756 -193.769
L121.866 -193.784
L121.977 -193.799
L122.087 -193.814
L122.197 -193.83
L122.307 -193.846
L122.418 -193.862
L122.528 -193.878
L122.638 -193.894
L122.748 -193.911
L122.859 -193.928
L122.969 -193.945
L123.079 -193.962
L123.189 -193.98
L123.299 -193.997
L123.41 -194.015
L123.52 -194.033
L123.63 -194.051
L123.74 -194.07
L123.851 -194.089
L123.961 -194.108
L124.071 -194.127
L124.181 -194.146
L124.292 -194.166
L124.402 -194.186
L124.512 -194.206
L124.622 -194.226
L124.732 -194.247
L124.843 -194.267
L124.953 -194.288
L125.063 -194.309
L125.173 -194.331
L125.284 -194.353
L125.394 -194.374
L125.504 -194.397
L125.614 -194.419
L125.724 -194.441
L125.835 -194.464
L125.945 -194.487
L126.055 -194.511
L126.165 -194.534
L126.276 -194.558
L126.386 -194.582
L126.496 -194.606
L126.606 -194.631
L126.717 -194.656
L126.827 -194.681
L126.937 -194.706
L127.047 -194.732
L127.157 -194.758
L127.268 -194.784
L127.378 -194.81
L127.488 -194.837
L127.598 -194.863
L127.709 -194.89
L127.819 -194.918
L127.929 -194.945
L128.039 -194.973
L128.149 -195.002
L128.26 -195.03
L128.37 -195.059
L128.48 -195.088
L128.59 -195.117
L128.701 -195.146
L128.811 -195.176
L128.921 -195.206
L129.031 -195.237
L129.142 -195.267
L129.252 -195.298
L129.362 -195.329
L129.472 -195.361
L129.582 -195.392
L129.693 -195.424
L129.803 -195.457
L129.913 -195.489
L130.023 -195.522
L130.134 -195.555
L130.244 -195.589
L130.354 -195.622
L130.464 -195.656
L130.574 -195.691
L130.685 -195.725
L130.795 -195.76
L130.905 -195.795
L131.015 -195.831
L131.126 -195.867
L131.236 -195.903
L131.346 -195.939
L131.456 -195.976
L131.567 -196.013
L131.677 -196.05
L131.787 -196.088
L131.897 -196.126
L132.007 -196.164
L132.118 -196.203
L132.228 -196.242
L132.338 -196.281
L132.448 -196.32
L132.559 -196.36
L132.669 -196.4
L132.779 -196.441
L132.889 -196.481
L133 -196.523
L133.11 -196.564
L133.22 -196.606
L133.33 -196.648
L133.44 -196.69
L133.551 -196.733
L133.661 -196.776
L133.771 -196.819
L133.881 -196.863
L133.992 -196.907
L134.102 -196.951
L134.212 -196.996
L134.322 -197.041
L134.432 -197.086
L134.543 -197.132
L134.653 -197.178
L134.763 -197.225
L134.873 -197.271
L134.984 -197.318
L135.094 -197.366
L135.204 -197.414
L135.314 -197.462
L135.425 -197.51
L135.535 -197.559
L135.645 -197.608
L135.755 -197.658
L135.865 -197.708
L135.976 -197.758
L136.086 -197.809
L136.196 -197.859
L136.306 -197.911
L136.417 -197.962
L136.527 -198.014
L136.637 -198.067
L136.747 -198.12
L136.857 -198.173
L136.968 -198.226
L137.078 -198.28
L137.188 -198.334
L137.298 -198.389
L137.409 -198.444
L137.519 -198.499
L137.629 -198.555
L137.739 -198.611
L137.85 -198.667
L137.96 -198.724
L138.07 -198.782
L138.18 -198.839
L138.29 -198.897
L138.401 -198.955
L138.511 -199.014
L138.621 -199.073
L138.731 -199.133
L138.842 -199.193
L138.952 -199.253
L139.062 -199.314
L139.172 -199.375
L139.283 -199.436
L139.393 -199.498
L139.503 -199.56
L139.613 -199.623
L139.723 -199.686
L139.834 -199.75
L139.944 -199.813
L140.054 -199.878
L140.164 -199.942
L140.275 -200.007
L140.385 -200.073
L140.495 -200.139
L140.605 -200.205
L140.715 -200.272
L140.826 -200.339
L140.936 -200.406
L141.046 -200.474
L141.156 -200.543
L141.267 -200.611
L141.377 -200.681
L141.487 -200.75
L141.597 -200.82
L141.708 -200.891
L141.818 -200.961
L141.928 -201.033
L142.038 -201.104
L142.148 -201.177
L142.259 -201.249
L142.369 -201.322
L142.479 -201.395
L142.589 -201.469
L142.7 -201.544
L142.81 -201.618
L142.92 -201.693
L143.03 -201.769
L143.14 -201.845
L143.251 -201.921
L143.361 -201.998
L143.471 -202.076
L143.581 -202.153
L143.692 -202.232
L143.802 -202.31
L143.912 -202.389
L144.022 -202.469
L144.133 -202.549
L144.243 -202.629
L144.353 -202.71
L144.463 -202.792
L144.573 -202.873
L144.684 -202.956
L144.794 -203.038
L144.904 -203.122
L145.014 -203.205
L145.125 -203.289
L145.235 -203.374
L145.345 -203.459
L145.455 -203.544
L145.565 -203.63
L145.676 -203.717
L145.786 -203.804
L145.896 -203.891
L146.006 -203.979
L146.117 -204.067
L146.227 -204.156
L146.337 -204.245
L146.447 -204.335
L146.558 -204.425
L146.668 -204.516
L146.778 -204.607
L146.888 -204.698
L146.998 -204.79
L147.109 -204.883
L147.219 -204.976
L147.329 -205.07
L147.439 -205.164
L147.55 -205.258
L147.66 -205.353
L147.77 -205.449
L147.88 -205.545
L147.991 -205.641
L148.101 -205.738
L148.211 -205.835
L148.321 -205.933
L148.431 -206.032
L148.542 -206.131
L148.652 -206.23
L148.762 -206.33
L148.872 -206.431
L148.983 -206.532
L149.093 -206.633
L149.203 -206.735
L149.313 -206.838
L149.423 -206.941
L149.534 -207.044
L149.644 -207.148
L149.754 -207.253
L149.864 -207.358
L149.975 -207.463
L150.085 -207.569
L150.195 -207.676
L150.305 -207.783
L150.416 -207.891
L150.526 -207.999
L150.636 -208.107
L150.746 -208.217
L150.856 -208.326
L150.967 -208.437
L151.077 -208.547
L151.187 -208.659
L151.297 -208.771
L151.408 -208.883
L151.518 -208.996
L151.628 -209.109
L151.738 -209.223
L151.848 -209.338
L151.959 -209.453
L152.069 -209.568
L152.179 -209.684
L152.289 -209.801
L152.4 -209.918
L152.51 -210.036
L152.62 -210.154
L152.73 -210.273
L152.841 -210.392
L152.951 -210.512
L153.061 -210.633
L153.171 -210.754
L153.281 -210.876
L153.392 -210.998
L153.502 -211.12
L153.612 -211.244
L153.722 -211.367
L153.833 -211.492
L153.943 -211.617
L154.053 -211.742
L154.163 -211.868
L154.273 -211.995
L154.384 -212.122
L154.494 -212.25
L154.604 -212.378
L154.714 -212.507
L154.825 -212.636
L154.935 -212.766
L155.045 -212.897
L155.155 -213.028
L155.266 -213.16
L155.376 -213.292
L155.486 -213.425
L155.596 -213.559
L155.706 -213.693
L155.817 -213.827
L155.927 -213.963
L156.037 -214.098
L156.147 -214.235
L156.258 -214.372
L156.368 -214.509
L156.478 -214.648
L156.588 -214.786
L156.699 -214.926
L156.809 -215.066
L156.919 -215.206
L157.029 -215.347
L157.139 -215.489
L157.25 -215.631
L157.36 -215.774
L157.47 -215.918
L157.58 -216.062
L157.691 -216.207
L157.801 -216.352
L157.911 -216.498
L158.021 -216.644
L158.131 -216.792
L158.242 -216.939
L158.352 -217.088
L158.462 -217.237
L158.572 -217.386
L158.683 -217.536
L158.793 -217.687
L158.903 -217.839
L159.013 -217.991
L159.124 -218.143
L159.234 -218.297
L159.344 -218.451
L159.454 -218.605
L159.564 -218.76
L159.675 -218.916
L159.785 -219.073
L159.895 -219.23
L160.005 -219.387
L160.116 -219.546
L160.226 -219.705
L160.336 -219.864
L160.446 -220.024
L160.556 -220.185
L160.667 -220.347
L160.777 -220.509
L160.887 -220.672
L160.997 -220.835
L161.108 -220.999
L161.218 -221.164
L161.328 -221.329
L161.438 -221.495
L161.549 -221.662
L161.659 -221.829
L161.769 -221.997
L161.879 -222.165
L161.989 -222.335
L162.1 -222.505
L162.21 -222.675
L162.32 -222.846
L162.43 -223.018
L162.541 -223.191
L162.651 -223.364
L162.761 -223.538
L162.871 -223.712
L162.981 -223.887
L163.092 -224.063
L163.202 -224.239
L163.312 -224.417
L163.422 -224.594
L163.533 -224.773
L163.643 -224.952
L163.753 -225.132
L163.863 -225.312
L163.974 -225.494
L164.084 -225.675
L164.194 -225.858
L164.304 -226.041
L164.414 -226.225
L164.525 -226.41
L164.635 -226.595
L164.745 -226.781
L164.855 -226.967
L164.966 -227.155
L165.076 -227.343
L165.186 -227.531
L165.296 -227.721
L165.407 -227.911
L165.517 -228.102
L165.627 -228.293
L165.737 -228.485
L165.847 -228.678
L165.958 -228.872
L166.068 -229.066
L166.178 -229.261
L166.288 -229.456
L166.399 -229.653
L166.509 -229.85
L166.619 -230.048
L166.729 -230.246
L166.839 -230.445
L166.95 -230.645
L167.06 -230.846
L167.17 -231.047
L167.28 -231.249
L167.391 -231.452
L167.501 -231.655
L167.611 -231.859
L167.721 -232.064
L167.832 -232.27
L167.942 -232.476
L168.052 -232.683
L168.162 -232.891
L168.272 -233.099
L168.383 -233.308
L168.493 -233.518
L168.603 -233.729
L168.713 -233.94
L168.824 -234.153
L168.934 -234.365
L169.044 -234.579
L169.154 -234.793
L169.264 -235.008
L169.375 -235.224
L169.485 -235.441
L169.595 -235.658
L169.705 -235.876
L169.816 -236.095
L169.926 -236.314
L170.036 -236.534
L170.146 -236.755
L170.257 -236.977
L170.367 -237.2
L170.477 -237.423
L170.587 -237.647
L170.697 -237.871
L170.808 -238.097
L170.918 -238.323
L171.028 -238.55
L171.138 -238.778
L171.249 -239.006
L171.249 -239.018
L171.249 -239.018
L171.138 -238.942
L171.028 -238.866
L170.918 -238.789
L170.808 -238.713
L170.697 -238.637
L170.587 -238.56
L170.477 -238.484
L170.367 -238.408
L170.257 -238.331
L170.146 -238.255
L170.036 -238.179
L169.926 -238.103
L169.816 -238.026
L169.705 -237.95
L169.595 -237.874
L169.485 -237.797
L169.375 -237.721
L169.264 -237.645
L169.154 -237.568
L169.044 -237.492
L168.934 -237.416
L168.824 -237.339
L168.713 -237.263
L168.603 -237.187
L168.493 -237.11
L168.383 -237.034
L168.272 -236.958
L168.162 -236.882
L168.052 -236.805
L167.942 -236.729
L167.832 -236.653
L167.721 -236.576
L167.611 -236.5
L167.501 -236.424
L167.391 -236.347
L167.28 -236.271
L167.17 -236.195
L167.06 -236.118
L166.95 -236.042
L166.839 -235.966
L166.729 -235.889
L166.619 -235.813
L166.509 -235.737
L166.399 -235.661
L166.288 -235.584
L166.178 -235.508
L166.068 -235.432
L165.958 -235.355
L165.847 -235.279
L165.737 -235.203
L165.627 -235.126
L165.517 -235.05
L165.407 -234.974
L165.296 -234.897
L165.186 -234.821
L165.076 -234.745
L164.966 -234.668
L164.855 -234.592
L164.745 -234.516
L164.635 -234.44
L164.525 -234.363
L164.414 -234.287
L164.304 -234.211
L164.194 -234.134
L164.084 -234.058
L163.974 -233.982
L163.863 -233.905
L163.753 -233.829
L163.643 -233.753
L163.533 -233.676
L163.422 -233.6
L163.312 -233.524
L163.202 -233.448
L163.092 -233.371
L162.981 -233.295
L162.871 -233.219
L162.761 -233.142
L162.651 -233.066
L162.541 -232.99
L162.43 -232.913
L162.32 -232.837
L162.21 -232.761
L162.1 -232.684
L161.989 -232.608
L161.879 -232.532
L161.769 -232.455
L161.659 -232.379
L161.549 -232.303
L161.438 -232.227
L161.328 -232.15
L161.218 -232.074
L161.108 -231.998
L160.997 -231.921
L160.887 -231.845
L160.777 -231.769
L160.667 -231.692
L160.556 -231.616
L160.446 -231.54
L160.336 -231.463
L160.226 -231.387
L160.116 -231.311
L160.005 -231.234
L159.895 -231.158
L159.785 -231.082
L159.675 -231.006
L159.564 -230.929
L159.454 -230.853
L159.344 -230.777
L159.234 -230.7
L159.124 -230.624
L159.013 -230.548
L158.903 -230.471
L158.793 -230.395
L158.683 -230.319
L158.572 -230.242
L158.462 -230.166
L158.352 -230.09
L158.242 -230.013
L158.131 -229.937
L158.021 -229.861
L157.911 -229.785
L157.801 -229.708
L157.691 -229.632
L157.58 -229.556
L157.47 -229.479
L157.36 -229.403
L157.25 -229.327
L157.139 -229.25
L157.029 -229.174
L156.919 -229.098
L156.809 -229.021
L156.699 -228.945
L156.588 -228.869
L156.478 -228.792
L156.368 -228.716
L156.258 -228.64
L156.147 -228.564
L156.037 -228.487
L155.927 -228.411
L155.817 -228.335
L155.706 -228.258
L155.596 -228.182
L155.486 -228.106
L155.376 -228.029
L155.266 -227.953
L155.155 -227.877
L155.045 -227.8
L154.935 -227.724
L154.825 -227.648
L154.714 -227.572
L154.604 -227.495
L154.494 -227.419
L154.384 -227.343
L154.273 -227.266
L154.163 -227.19
L154.053 -227.114
L153.943 -227.037
L153.833 -226.961
L153.722 -226.885
L153.612 -226.808
L153.502 -226.732
L153.392 -226.656
L153.281 -226.579
L153.171 -226.503
L153.061 -226.427
L152.951 -226.351
L152.841 -226.274
L152.73 -226.198
L152.62 -226.122
L152.51 -226.045
L152.4 -225.969
L152.289 -225.893
L152.179 -225.816
L152.069 -225.74
L151.959 -225.664
L151.848 -225.587
L151.738 -225.511
L151.628 -225.435
L151.518 -225.358
L151.408 -225.282
L151.297 -225.206
L151.187 -225.13
L151.077 -225.053
L150.967 -224.977
L150.856 -224.901
L150.746 -224.824
L150.636 -224.748
L150.526 -224.672
L150.416 -224.595
L150.305 -224.519
L150.195 -224.443
L150.085 -224.366
L149.975 -224.29
L149.864 -224.214
L149.754 -224.137
L149.644 -224.061
L149.534 -223.985
L149.423 -223.909
L149.313 -223.832
L149.203 -223.756
L149.093 -223.68
L148.983 -223.603
L148.872 -223.527
L148.762 -223.451
L148.652 -223.374
L148.542 -223.298
L148.431 -223.222
L148.321 -223.145
L148.211 -223.069
L148.101 -222.993
L147.991 -222.917
L147.88 -222.84
L147.77 -222.764
L147.66 -222.688
L147.55 -222.611
L147.439 -222.535
L147.329 -222.459
L147.219 -222.382
L147.109 -222.306
L146.998 -222.23
L146.888 -222.153
L146.778 -222.077
L146.668 -222.001
L146.558 -221.924
L146.447 -221.848
L146.337 -221.772
L146.227 -221.696
L146.117 -221.619
L146.006 -221.543
L145.896 -221.467
L145.786 -221.39
L145.676 -221.314
L145.565 -221.238
L145.455 -221.161
L145.345 -221.085
L145.235 -221.009
L145.125 -220.932
L145.014 -220.856
L144.904 -220.78
L144.794 -220.703
L144.684 -220.627
L144.573 -220.551
L144.463 -220.475
L144.353 -220.398
L144.243 -220.322
L144.133 -220.246
L144.022 -220.169
L143.912 -220.093
L143.802 -220.017
L143.692 -219.94
L143.581 -219.864
L143.471 -219.788
L143.361 -219.711
L143.251 -219.635
L143.14 -219.559
L143.03 -219.482
L142.92 -219.406
L142.81 -219.33
L142.7 -219.254
L142.589 -219.177
L142.479 -219.101
L142.369 -219.025
L142.259 -218.948
L142.148 -218.872
L142.038 -218.796
L141.928 -218.719
L141.818 -218.643
L141.708 -218.567
L141.597 -218.49
L141.487 -218.414
L141.377 -218.338
L141.267 -218.261
L141.156 -218.185
L141.046 -218.109
L140.936 -218.033
L140.826 -217.956
L140.715 -217.88
L140.605 -217.804
L140.495 -217.727
L140.385 -217.651
L140.275 -217.575
L140.164 -217.498
L140.054 -217.422
L139.944 -217.346
L139.834 -217.269
L139.723 -217.193
L139.613 -217.117
L139.503 -217.041
L139.393 -216.964
L139.283 -216.888
L139.172 -216.812
L139.062 -216.735
L138.952 -216.659
L138.842 -216.583
L138.731 -216.506
L138.621 -216.43
L138.511 -216.354
L138.401 -216.277
L138.29 -216.201
L138.18 -216.125
L138.07 -216.048
L137.96 -215.972
L137.85 -215.896
L137.739 -215.82
L137.629 -215.743
L137.519 -215.667
L137.409 -215.591
L137.298 -215.514
L137.188 -215.438
L137.078 -215.362
L136.968 -215.285
L136.857 -215.209
L136.747 -215.133
L136.637 -215.056
L136.527 -214.98
L136.417 -214.904
L136.306 -214.827
L136.196 -214.751
L136.086 -214.675
L135.976 -214.599
L135.865 -214.522
L135.755 -214.446
L135.645 -214.37
L135.535 -214.293
L135.425 -214.217
L135.314 -214.141
L135.204 -214.064
L135.094 -213.988
L134.984 -213.912
L134.873 -213.835
L134.763 -213.759
L134.653 -213.683
L134.543 -213.606
L134.432 -213.53
L134.322 -213.454
L134.212 -213.378
L134.102 -213.301
L133.992 -213.225
L133.881 -213.149
L133.771 -213.072
L133.661 -212.996
L133.551 -212.92
L133.44 -212.843
L133.33 -212.767
L133.22 -212.691
L133.11 -212.614
L133 -212.538
L132.889 -212.462
L132.779 -212.386
L132.669 -212.309
L132.559 -212.233
L132.448 -212.157
L132.338 -212.08
L132.228 -212.004
L132.118 -211.928
L132.007 -211.851
L131.897 -211.775
L131.787 -211.699
L131.677 -211.622
L131.567 -211.546
L131.456 -211.47
L131.346 -211.393
L131.236 -211.317
L131.126 -211.241
L131.015 -211.165
L130.905 -211.088
L130.795 -211.012
L130.685 -210.936
L130.574 -210.859
L130.464 -210.783
L130.354 -210.707
L130.244 -210.63
L130.134 -210.554
L130.023 -210.478
L129.913 -210.401
L129.803 -210.325
L129.693 -210.249
L129.582 -210.172
L129.472 -210.096
L129.362 -210.02
L129.252 -209.944
L129.142 -209.867
L129.031 -209.791
L128.921 -209.715
L128.811 -209.638
L128.701 -209.562
L128.59 -209.486
L128.48 -209.409
L128.37 -209.333
L128.26 -209.257
L128.149 -209.18
L128.039 -209.104
L127.929 -209.028
L127.819 -208.951
L127.709 -208.875
L127.598 -208.799
L127.488 -208.723
L127.378 -208.646
L127.268 -208.57
L127.157 -208.494
L127.047 -208.417
L126.937 -208.341
L126.827 -208.265
L126.717 -208.188
L126.606 -208.112
L126.496 -208.036
L126.386 -207.959
L126.276 -207.883
L126.165 -207.807
L126.055 -207.73
L125.945 -207.654
L125.835 -207.578
L125.724 -207.502
L125.614 -207.425
L125.504 -207.349
L125.394 -207.273
L125.284 -207.196
L125.173 -207.12
L125.063 -207.044
L124.953 -206.967
L124.843 -206.891
L124.732 -206.815
L124.622 -206.738
L124.512 -206.662
L124.402 -206.586
L124.292 -206.51
L124.181 -206.433
L124.071 -206.357
L123.961 -206.281
L123.851 -206.204
L123.74 -206.128
L123.63 -206.052
L123.52 -205.975
L123.41 -205.899
L123.299 -205.823
L123.189 -205.746
L123.079 -205.67
L122.969 -205.594
L122.859 -205.517
L122.748 -205.441
L122.638 -205.365
L122.528 -205.289
L122.418 -205.212
L122.307 -205.136
L122.197 -205.06
L122.087 -204.983
L121.977 -204.907
L121.866 -204.831
L121.756 -204.754
L121.646 -204.678
L121.536 -204.602
L121.426 -204.525
L121.315 -204.449
L121.205 -204.373
L121.095 -204.296
L120.985 -204.22
L120.874 -204.144
L120.764 -204.068
L120.654 -203.991
L120.544 -203.915
L120.434 -203.839
L120.323 -203.762
L120.213 -203.686
L120.103 -203.61
L119.993 -203.533
L119.882 -203.457
L119.772 -203.381
L119.662 -203.304
L119.552 -203.228
L119.441 -203.152
L119.331 -203.075
L119.221 -202.999
L119.111 -202.923
L119.001 -202.847
L118.89 -202.77
L118.78 -202.694
L118.67 -202.618
L118.56 -202.541
L118.449 -202.465
L118.339 -202.389
L118.229 -202.312
L118.119 -202.236
L118.009 -202.16
L117.898 -202.083
L117.788 -202.007
L117.678 -201.931
L117.568 -201.854
L117.457 -201.778
L117.347 -201.702
L117.237 -201.626
L117.127 -201.549
L117.016 -201.473
L116.906 -201.397
L116.796 -201.32
L116.686 -201.244
L116.576 -201.168
L116.465 -201.091
L116.355 -201.015
L116.245 -200.939
L116.135 -200.862
L116.024 -200.786
L115.914 -200.71
L115.804 -200.634
L115.694 -200.557
L115.584 -200.481
L115.473 -200.405
L115.363 -200.328
L115.253 -200.252
L115.143 -200.176
L115.032 -200.099
L114.922 -200.023
L114.812 -199.947
L114.702 -199.87
L114.591 -199.794
L114.481 -199.718
L114.371 -199.641
L114.261 -199.565
L114.151 -199.489
L114.04 -199.413
L113.93 -199.336
L113.82 -199.26
L113.71 -199.184
L113.599 -199.107
L113.489 -199.031
L113.379 -198.955
L113.269 -198.878
L113.158 -198.802
L113.048 -198.726
L112.938 -198.649
L112.828 -198.573
L112.718 -198.497
L112.607 -198.42
L112.497 -198.344
L112.387 -198.268
L112.277 -198.192
L112.166 -198.115
L112.056 -198.039
L111.946 -197.963
L111.836 -197.886
L111.726 -197.81
L111.615 -197.734
L111.505 -197.657
L111.395 -197.581
L111.285 -197.505
L111.174 -197.428
L111.064 -197.352
L110.954 -197.276
L110.844 -197.199
L110.733 -197.123
L110.623 -197.047
L110.513 -196.971
L110.403 -196.894
L110.293 -196.818
L110.182 -196.742
L110.072 -196.665
L109.962 -196.589
L109.852 -196.513
L109.741 -196.436
L109.631 -196.36
L109.521 -196.284
L109.411 -196.207
L109.301 -196.131
L109.19 -196.055
L109.08 -195.979
L108.97 -195.902
L108.86 -195.826
L108.749 -195.75
L108.639 -195.673
L108.529 -195.597
L108.419 -195.521
L108.308 -195.444
L108.198 -195.368
L108.088 -195.292
L107.978 -195.215
L107.868 -195.139
L107.757 -195.063
L107.647 -194.986
L107.537 -194.91
L107.427 -194.834
L107.316 -194.758
L107.206 -194.681
L107.096 -194.605
L106.986 -194.529
L106.876 -194.452
L106.765 -194.376
L106.655 -194.3
L106.545 -194.223
L106.435 -194.147
L106.324 -194.071
L106.214 -193.994
L106.104 -193.918
L105.994 -193.842
L105.883 -193.765
L105.773 -193.689
L105.663 -193.613
L105.553 -193.537
L105.443 -193.46
L105.332 -193.384
L105.222 -193.308
L105.112 -193.231
L105.002 -193.155
L104.891 -193.079
L104.781 -193.002
z
" id="C6_0_262df1ec3f"/>
    </defs>
    <g clip-path="url(#pb8368205c6)">
     <use style="fill:#800080;stroke:#800080;" x="0.0" xlink:href="#C6_0_262df1ec3f" y="432.0"/>
    </g>
   </g>
   <g id="line2d_122">
    <path clip-path="url(#pb8368205c6)" d="
M104.781 238.998
L214.899 162.762" style="fill:none;stroke:#000000;stroke-dasharray:6.000000,6.000000;stroke-dashoffset:0.0;stroke-width:1.5;"/>
   </g>
   <g id="line2d_123">
    <path clip-path="url(#pb8368205c6)" d="
M132.311 222.988
L129.007 202.405" style="fill:none;stroke:#800080;stroke-linecap:square;stroke-width:1.5;"/>
   </g>
   <g id="matplotlib.axis_5">
    <g id="text_27">
     <!-- $\nu$ -->
     <g transform="translate(155.502140995 257.536976475)scale(0.18 -0.18)">
      <use transform="scale(0.996264009963)" xlink:href="#CMMI12-23"/>
     </g>
    </g>
   </g>
   <g id="matplotlib.axis_6">
    <g id="text_28">
     <!-- $P_{fix}$ -->
     <g transform="translate(95.2848187218 214.352762054)rotate(-90.0)scale(0.16 -0.16)">
      <use transform="translate(0.0 14.9439145441)scale(0.996264009963)" xlink:href="#CMMI12-80"/>
      <use transform="translate(62.8772322297 0.0)scale(0.697381766617)" xlink:href="#CMMI12-102"/>
      <use transform="translate(103.981255594 0.0)scale(0.697381766617)" xlink:href="#CMMI12-105"/>
      <use transform="translate(127.276162876 0.0)scale(0.697381766617)" xlink:href="#CMMI12-120"/>
     </g>
    </g>
   </g>
   <g id="patch_16">
    <path d="
M103.68 162
L216 162" style="fill:none;stroke:#000000;"/>
   </g>
   <g id="patch_17">
    <path d="
M216 239.76
L216 162" style="fill:none;stroke:#000000;"/>
   </g>
   <g id="patch_18">
    <path d="
M103.68 239.76
L216 239.76" style="fill:none;stroke:#000000;"/>
   </g>
   <g id="patch_19">
    <path d="
M103.68 239.76
L103.68 162" style="fill:none;stroke:#000000;"/>
   </g>
   <g id="text_29">
    <!-- observed -->
    <g transform="translate(108.084705882 176.232514403)scale(0.16 -0.16)">
     <use transform="scale(0.996264009963)" xlink:href="#Nimbus_Sans_L_Regular-111"/>
     <use transform="translate(55.3916769633 0.0)scale(0.996264009963)" xlink:href="#Nimbus_Sans_L_Regular-98"/>
     <use transform="translate(110.783353927 0.0)scale(0.996264009963)" xlink:href="#Nimbus_Sans_L_Regular-115"/>
     <use transform="translate(160.596554425 0.0)scale(0.996264009963)" xlink:href="#Nimbus_Sans_L_Regular-101"/>
     <use transform="translate(215.988231388 0.0)scale(0.996264009963)" xlink:href="#Nimbus_Sans_L_Regular-114"/>
     <use transform="translate(252.151553865 0.0)scale(0.996264009963)" xlink:href="#Nimbus_Sans_L_Regular-118"/>
     <use transform="translate(299.474124742 0.0)scale(0.996264009963)" xlink:href="#Nimbus_Sans_L_Regular-101"/>
     <use transform="translate(354.865801706 0.0)scale(0.996264009963)" xlink:href="#Nimbus_Sans_L_Regular-100"/>
    </g>
    <!-- area -->
    <defs>
     <path d="
M53.5 5.20312
C52.5938 5 52.2031 5 51.7031 5
C48.7969 5 47.2031 6.48438 47.2031 9.07812
L47.2031 39.7656
C47.2031 49.0156 40.4062 54 27.5 54
C19.9062 54 13.5938 51.8125 10.0938 47.9062
C7.70312 45.2031 6.70312 42.2188 6.5 37.0312
L14.9062 37.0312
C15.5938 43.3906 19.4062 46.2812 27.2031 46.2812
C34.7031 46.2812 38.9062 43.4844 38.9062 38.5156
L38.9062 36.3281
C38.9062 32.8281 36.7969 31.3438 30.2031 30.5469
C18.4062 29.0625 16.5938 28.6562 13.4062 27.3594
C7.29688 24.875 4.20312 20.1875 4.20312 13.4219
C4.20312 3.96875 10.7969 -2 21.4062 -2
C28 -2 33.2969 0.296875 39.2031 5.70312
C39.7969 0.390625 42.4062 -2 47.7969 -2
C49.5 -2 50.7969 -1.8125 53.5 -1.09375
z

M38.9062 16.75
C38.9062 13.9531 38.0938 12.2656 35.5938 9.98438
C32.2031 6.89062 28.0938 5.3125 23.2031 5.3125
C16.7031 5.3125 12.9062 8.39062 12.9062 13.6562
C12.9062 19.1406 16.5938 21.9219 25.5 23.2188
C34.2969 24.4062 36.0938 24.8125 38.9062 26.0938
z
" id="Nimbus_Sans_L_Regular-97"/>
    </defs>
    <g transform="translate(108.084705882 193.256470588)scale(0.16 -0.16)">
     <use transform="scale(0.996264009963)" xlink:href="#Nimbus_Sans_L_Regular-97"/>
     <use transform="translate(55.3916769633 0.0)scale(0.996264009963)" xlink:href="#Nimbus_Sans_L_Regular-114"/>
     <use transform="translate(88.5669066927 0.0)scale(0.996264009963)" xlink:href="#Nimbus_Sans_L_Regular-101"/>
     <use transform="translate(143.958583656 0.0)scale(0.996264009963)" xlink:href="#Nimbus_Sans_L_Regular-97"/>
    </g>
   </g>
  </g>
  <g id="text_30">
   <!-- A -->
   <defs>
    <path d="
M47.4062 22
L54.9062 0
L65.2969 0
L39.7031 73
L27.7031 73
L1.70312 0
L11.5938 0
L19.2969 22
z

M44.7969 29.8125
L21.5938 29.8125
L33.5938 63
z
" id="Nimbus_Sans_L_Regular-65"/>
   </defs>
   <g transform="translate(11.52 34.56)scale(0.24 -0.24)">
    <use transform="scale(0.996264009963)" xlink:href="#Nimbus_Sans_L_Regular-65"/>
   </g>
  </g>
 </g>
 <defs>
  <clipPath id="pb8368205c6">
   <rect height="77.76" width="112.32" x="103.68" y="162.0"/>
  </clipPath>
  <clipPath id="p7835bb7aad">
   <rect height="356.510653725" width="496.136325644" x="66.9036743559" y="12.96"/>
  </clipPath>
  <clipPath id="p92b8ab0292">
   <rect height="90.72" width="144.0" x="144.0" y="21.6"/>
  </clipPath>
 </defs>
</svg>
