<?xml version="1.0" encoding="utf-8" standalone="no"?>
<!DOCTYPE svg PUBLIC "-//W3C//DTD SVG 1.1//EN"
  "http://www.w3.org/Graphics/SVG/1.1/DTD/svg11.dtd">
<!-- Created with matplotlib (http://matplotlib.org/) -->
<svg height="432pt" version="1.1" viewBox="0 0 576 432" width="576pt" xmlns="http://www.w3.org/2000/svg" xmlns:xlink="http://www.w3.org/1999/xlink">
 <defs>
  <style type="text/css">
*{stroke-linecap:square;stroke-linejoin:round;}
  </style>
 </defs>
 <g id="figure_1">
  <g id="patch_1">
   <path d="
M0 432
L576 432
L576 0
L0 0
z
" style="fill:#ffffff;"/>
  </g>
  <g id="axes_1">
   <g id="patch_2">
    <path d="
M49.1887 379.128
L543.185 379.128
L543.185 22.7387
L49.1887 22.7387
z
" style="fill:#ffffff;"/>
   </g>
   <g id="line2d_1">
    <path clip-path="url(#pb9177e343b)" d="
M51.3058 376.455
L52.7172 376.01
L54.1286 376.455
L55.54 375.564
L56.9515 373.782
L58.3629 372.891
L59.7743 374.673
L61.1857 372.446
L62.5971 372
L64.0086 373.782
L65.42 369.773
L66.8314 369.773
L68.2428 365.318
L69.6542 367.991
L71.0657 371.555
L72.4771 369.327
L73.8885 367.991
L75.2999 365.318
L76.7113 369.773
L78.1227 371.109
L79.5342 368.882
L80.9456 366.209
L82.357 364.427
L83.7684 363.536
L85.1798 368.436
L88.0027 364.872
L89.4141 363.981
L90.8255 361.754
L92.2369 363.091
L93.6484 359.972
L95.0598 367.991
L96.4712 367.991
L97.8826 363.091
L99.294 367.545
L100.705 364.872
L102.117 363.536
L103.528 362.645
L104.94 365.318
L106.351 359.972
L109.174 362.645
L110.585 366.209
L111.997 363.091
L113.408 365.763
L114.82 355.072
L116.231 363.981
L117.642 363.091
L119.054 350.617
L120.465 362.2
L121.877 355.963
L123.288 356.854
L124.7 358.19
L126.111 358.19
L127.522 360.418
L128.934 356.854
L130.345 359.527
L131.757 356.408
L133.168 357.299
L134.579 357.745
L135.991 360.863
L137.402 348.389
L138.814 349.28
L141.637 351.953
L143.048 352.399
L144.459 351.953
L145.871 345.717
L147.282 347.498
L148.694 339.034
L150.105 345.271
L151.517 343.489
L154.339 337.252
L155.751 339.48
L157.162 340.371
L158.574 338.589
L159.985 341.262
L161.396 338.589
L162.808 337.252
L164.219 334.579
L165.631 338.589
L167.042 337.252
L168.454 330.57
L169.865 335.025
L171.276 332.797
L172.688 320.769
L175.511 318.096
L176.922 322.106
L178.333 318.542
L179.745 310.969
L181.156 314.978
L182.568 322.551
L183.979 307.85
L185.391 309.187
L186.802 306.959
L188.213 310.969
L189.625 301.168
L191.036 306.514
L192.448 310.078
L193.859 306.959
L195.271 308.741
L196.682 307.405
L198.093 299.831
L200.916 298.94
L202.328 301.168
L203.739 304.286
L205.15 294.931
L206.562 296.713
L207.973 292.704
L209.385 292.704
L210.796 288.694
L212.208 291.813
L213.619 292.258
L215.03 294.486
L216.442 290.922
L217.853 290.031
L219.265 290.922
L220.676 293.595
L222.087 293.595
L223.499 293.149
L224.91 286.021
L226.322 282.457
L227.733 285.576
L229.145 286.021
L230.556 290.031
L231.967 287.803
L233.379 291.367
L234.79 285.13
L236.202 285.13
L237.613 289.14
L239.024 285.576
L240.436 291.367
L241.847 286.467
L243.259 286.467
L244.67 286.912
L246.082 283.348
L247.493 281.121
L248.904 284.239
L250.316 286.021
L251.727 286.467
L253.139 283.348
L254.55 279.785
L255.962 285.576
L257.373 278.448
L258.784 281.121
L260.196 284.239
L261.607 283.348
L263.019 275.33
L264.43 277.112
L265.841 277.557
L267.253 277.557
L268.664 271.32
L270.076 273.993
L271.487 273.102
L272.899 267.756
L274.31 272.211
L275.721 270.429
L277.133 270.875
L279.956 263.747
L281.367 266.42
L282.778 265.529
L284.19 267.311
L285.601 269.538
L287.013 258.401
L288.424 257.065
L289.836 260.629
L291.247 261.52
L292.658 254.837
L294.07 257.51
L295.481 255.728
L296.893 254.392
L298.304 252.164
L299.715 246.373
L302.538 241.918
L303.95 250.828
L305.361 241.027
L306.773 247.264
L308.184 241.473
L309.595 241.918
L311.007 241.027
L312.418 236.127
L313.83 240.582
L315.241 238.8
L316.653 233.454
L318.064 237.909
L319.475 237.909
L320.887 241.918
L322.298 236.572
L323.71 226.326
L325.121 224.99
L326.532 230.781
L327.944 216.08
L329.355 204.497
L330.767 224.544
L332.178 199.151
L333.59 212.962
L335.001 206.279
L336.412 205.834
L337.824 204.943
L339.235 205.834
L340.647 210.289
L342.058 200.933
L343.469 205.834
L344.881 193.36
L346.292 204.497
L347.704 194.697
L349.115 190.687
L350.527 195.588
L351.938 188.014
L353.349 178.659
L354.761 171.531
L356.172 172.868
L357.584 170.195
L358.995 167.076
L360.407 167.522
L361.818 164.403
L363.229 165.294
L364.641 161.285
L366.052 167.967
L367.464 161.731
L368.875 157.276
L370.286 162.176
L373.109 156.83
L374.521 161.731
L375.932 156.385
L377.344 153.266
L378.755 156.385
L380.166 149.257
L381.578 146.584
L382.989 148.366
L384.401 151.039
L385.812 146.584
L387.223 143.466
L388.635 150.148
L390.046 143.466
L391.458 138.12
L392.869 137.229
L394.281 140.793
L395.692 138.12
L397.103 131.437
L398.515 133.665
L399.926 130.992
L401.338 123.419
L402.749 126.983
L404.16 121.637
L405.572 120.3
L406.983 124.755
L408.395 120.3
L409.806 122.082
L411.218 121.191
L412.629 118.518
L414.04 114.509
L415.452 114.509
L416.863 115.4
L418.275 118.964
L419.686 114.063
L421.098 122.973
L422.509 115.4
L423.92 119.855
L425.332 111.836
L428.155 108.272
L429.566 94.9076
L430.977 98.9169
L432.389 86.8888
L433.8 94.4621
L435.212 104.708
L436.623 93.1256
L438.035 93.1256
L439.446 97.135
L440.857 82.4339
L442.269 82.8794
L443.68 87.7798
L445.092 82.4339
L446.503 75.7516
L447.914 80.652
L449.326 76.6426
L452.149 76.6426
L453.56 75.7516
L454.972 73.5242
L456.383 72.6332
L457.794 76.6426
L459.206 74.8607
L460.617 69.0693
L462.029 75.3061
L463.44 76.1971
L464.851 71.7423
L466.263 73.5242
L467.674 67.7329
L469.086 73.0787
L470.497 57.0412
L471.909 57.9322
L473.32 69.0693
L473.32 69.0693" style="fill:none;stroke:#0000ff;stroke-width:2;"/>
   </g>
   <g id="line2d_2">
    <path clip-path="url(#pb9177e343b)" d="
M51.3058 374.228
L52.7172 373.337
L54.1286 372
L55.54 371.555
L56.9515 375.119
L58.3629 366.654
L59.7743 372
L61.1857 365.318
L62.5971 366.654
L64.0086 370.218
L65.42 359.527
L66.8314 369.327
L68.2428 357.745
L69.6542 357.299
L71.0657 367.545
L72.4771 362.645
L73.8885 362.2
L75.2999 355.517
L76.7113 365.763
L78.1227 365.763
L79.5342 357.299
L80.9456 351.953
L82.357 355.963
L83.7684 349.28
L85.1798 363.536
L86.5913 360.863
L88.0027 352.399
L89.4141 353.29
L90.8255 345.271
L92.2369 350.171
L93.6484 352.844
L95.0598 358.636
L96.4712 359.527
L97.8826 357.299
L99.294 355.517
L100.705 346.608
L102.117 349.28
L103.528 348.389
L104.94 355.963
L106.351 344.38
L107.763 349.726
L109.174 349.28
L110.585 355.072
L111.997 341.707
L113.408 361.309
L114.82 334.579
L116.231 358.19
L117.642 349.726
L119.054 336.361
L120.465 353.735
L121.877 335.47
L123.288 351.508
L124.7 345.271
L126.111 349.28
L127.522 349.726
L128.934 338.589
L130.345 347.944
L131.757 353.735
L133.168 345.271
L134.579 346.162
L135.991 348.835
L137.402 335.025
L138.814 344.38
L140.225 333.243
L141.637 344.38
L143.048 350.171
L144.459 350.171
L145.871 327.452
L147.282 332.352
L148.694 318.096
L150.105 331.015
L151.517 340.371
L152.928 330.125
L154.339 345.717
L155.751 346.162
L157.162 338.143
L158.574 328.788
L159.985 333.243
L161.396 336.807
L164.219 334.134
L165.631 347.498
L167.042 340.371
L168.454 328.788
L169.865 347.053
L171.276 344.38
L172.688 316.314
L174.099 325.224
L175.511 325.67
L176.922 321.215
L178.333 315.869
L179.745 302.504
L181.156 329.234
L182.568 337.252
L183.979 327.897
L185.391 335.025
L186.802 326.115
L188.213 346.162
L189.625 333.688
L191.036 335.025
L192.448 332.352
L193.859 339.034
L195.271 344.38
L196.682 327.006
L198.093 339.925
L199.505 318.096
L200.916 322.997
L202.328 331.015
L203.739 331.015
L205.15 327.452
L206.562 338.143
L207.973 320.769
L209.385 327.006
L210.796 328.343
L212.208 322.551
L213.619 304.286
L215.03 320.769
L216.442 328.788
L217.853 323.442
L219.265 336.361
L220.676 326.115
L222.087 355.517
L223.499 346.162
L224.91 324.779
L226.322 329.234
L227.733 350.617
L229.145 340.816
L230.556 312.751
L231.967 333.243
L233.379 349.28
L234.79 334.579
L236.202 329.234
L237.613 335.916
L239.024 333.688
L240.436 336.807
L241.847 340.371
L243.259 336.361
L244.67 352.399
L246.082 341.262
L247.493 337.698
L248.904 338.589
L250.316 342.153
L251.727 352.844
L253.139 347.944
L254.55 347.944
L255.962 350.617
L257.373 342.598
L258.784 348.389
L260.196 341.707
L261.607 354.626
L263.019 339.925
L264.43 348.835
L265.841 350.617
L267.253 350.617
L268.664 338.589
L270.076 339.925
L271.487 342.598
L272.899 332.797
L274.31 341.262
L275.721 333.243
L277.133 329.679
L278.544 337.698
L279.956 320.324
L281.367 334.134
L282.778 326.561
L284.19 340.371
L285.601 349.28
L287.013 323.888
L288.424 328.788
L289.836 331.906
L291.247 337.698
L292.658 331.015
L294.07 339.925
L295.481 321.66
L296.893 334.579
L298.304 330.125
L299.715 313.642
L301.127 335.916
L302.538 327.452
L303.95 331.015
L305.361 339.925
L306.773 339.034
L308.184 327.452
L309.595 310.969
L311.007 326.561
L312.418 315.869
L313.83 337.252
L315.241 330.125
L316.653 343.935
L318.064 337.252
L319.475 335.916
L320.887 343.935
L322.298 332.797
L323.71 329.679
L325.121 325.67
L326.532 324.779
L327.944 310.969
L329.355 333.243
L330.767 323.888
L332.178 313.196
L333.59 323.442
L335.001 314.532
L336.412 324.333
L337.824 333.243
L339.235 315.423
L340.647 317.205
L342.058 302.504
L343.469 314.532
L344.881 311.86
L346.292 308.741
L347.704 318.096
L349.115 301.613
L350.527 329.234
L351.938 312.751
L353.349 327.897
L354.761 314.978
L356.172 320.769
L357.584 329.679
L358.995 322.106
L360.407 340.816
L361.818 325.67
L363.229 339.48
L364.641 310.523
L366.052 322.551
L367.464 327.897
L368.875 343.489
L370.286 325.224
L371.698 340.816
L373.109 343.935
L374.521 340.816
L375.932 323.442
L377.344 316.314
L378.755 329.679
L380.166 310.969
L381.578 314.978
L382.989 298.495
L384.401 323.442
L385.812 305.623
L387.223 314.978
L388.635 335.47
L390.046 333.243
L391.458 312.751
L392.869 317.651
L394.281 308.741
L395.692 318.542
L397.103 296.268
L398.515 317.205
L399.926 312.751
L401.338 332.352
L402.749 317.205
L404.16 288.694
L405.572 335.916
L406.983 343.489
L408.395 337.698
L411.218 351.953
L412.629 339.034
L414.04 335.025
L415.452 314.978
L416.863 297.604
L418.275 330.125
L419.686 324.333
L421.098 344.38
L422.509 327.006
L423.92 324.779
L425.332 313.196
L426.743 309.187
L428.155 321.66
L429.566 322.551
L430.977 298.94
L432.389 303.395
L433.8 303.395
L435.212 300.277
L436.623 307.85
L438.035 298.495
L439.446 312.305
L440.857 306.514
L443.68 322.106
L445.092 300.722
L446.503 325.224
L447.914 338.589
L449.326 308.296
L450.737 334.579
L452.149 318.096
L453.56 351.508
L454.972 312.305
L456.383 328.343
L457.794 322.551
L459.206 344.826
L460.617 318.987
L462.029 336.807
L463.44 339.48
L464.851 321.215
L466.263 344.38
L467.674 337.252
L469.086 344.38
L470.497 318.542
L471.909 308.296
L473.32 326.561
L473.32 326.561" style="fill:none;stroke:#ff0000;stroke-width:2;"/>
   </g>
   <g id="matplotlib.axis_1">
    <g id="xtick_1">
     <g id="line2d_3">
      <defs>
       <path d="
M0 0
L0 -4" id="mcb557df647" style="stroke:#000000;stroke-linecap:butt;stroke-width:0.5;"/>
      </defs>
      <g>
       <use style="stroke:#000000;stroke-linecap:butt;stroke-width:0.5;" x="49.188663435" xlink:href="#mcb557df647" y="379.128038946"/>
      </g>
     </g>
     <g id="line2d_4">
      <defs>
       <path d="
M0 0
L0 4" id="mdad270ee8e" style="stroke:#000000;stroke-linecap:butt;stroke-width:0.5;"/>
      </defs>
      <g>
       <use style="stroke:#000000;stroke-linecap:butt;stroke-width:0.5;" x="49.188663435" xlink:href="#mdad270ee8e" y="22.7387244245"/>
      </g>
     </g>
     <g id="text_1">
      <!-- $0$ -->
      <defs>
       <path d="
M42 31.6406
C42 37.75 41.9062 48.125 37.7031 56.1094
C34 63.1094 28.0938 65.5938 22.9062 65.5938
C18.0938 65.5938 12 63.4062 8.20312 56.2031
C4.20312 48.7188 3.79688 39.4375 3.79688 31.6406
C3.79688 25.9531 3.90625 17.2812 7 9.67188
C11.2969 -0.609375 19 -2 22.9062 -2
C27.5 -2 34.5 -0.109375 38.5938 9.375
C41.5938 16.2812 42 24.3594 42 31.6406
M22.9062 -0.40625
C16.5 -0.40625 12.7031 5.07812 11.2969 12.6875
C10.2031 18.5625 10.2031 27.1562 10.2031 32.75
C10.2031 40.4375 10.2031 46.8281 11.5 52.9219
C13.4062 61.3906 19 64 22.9062 64
C27 64 32.2969 61.2969 34.2031 53.125
C35.5 47.4375 35.5938 40.7344 35.5938 32.75
C35.5938 26.25 35.5938 18.2656 34.4062 12.375
C32.2969 1.48438 26.4062 -0.40625 22.9062 -0.40625" id="CMR17-48"/>
      </defs>
      <g transform="translate(45.30497288 394.045487795)scale(0.17 -0.17)">
       <use transform="scale(0.996264009963)" xlink:href="#CMR17-48"/>
      </g>
     </g>
    </g>
    <g id="xtick_2">
     <g id="line2d_5">
      <g>
       <use style="stroke:#000000;stroke-linecap:butt;stroke-width:0.5;" x="119.759602627" xlink:href="#mcb557df647" y="379.128038946"/>
      </g>
     </g>
     <g id="line2d_6">
      <g>
       <use style="stroke:#000000;stroke-linecap:butt;stroke-width:0.5;" x="119.759602627" xlink:href="#mdad270ee8e" y="22.7387244245"/>
      </g>
     </g>
     <g id="text_2">
      <!-- $1000$ -->
      <defs>
       <path d="
M26.5938 63.3125
C26.5938 65.4062 26.5 65.5 25.0938 65.5
C21.2031 61.1875 15.2969 59.7969 9.70312 59.7969
C9.40625 59.7969 8.90625 59.7969 8.79688 59.5
C8.70312 59.2969 8.70312 59.0938 8.70312 57
C11.7969 57 17 57.5938 21 59.9844
L21 7.20312
C21 3.6875 20.7969 2.5 12.2031 2.5
L9.20312 2.5
L9.20312 0
C14 0 19 0 23.7969 0
C28.5938 0 33.5938 0 38.4062 0
L38.4062 2.5
L35.4062 2.5
C26.7969 2.5 26.5938 3.59375 26.5938 7.15625
z
" id="CMR17-49"/>
      </defs>
      <g transform="translate(104.224840407 394.045487795)scale(0.17 -0.17)">
       <use transform="scale(0.996264009963)" xlink:href="#CMR17-49"/>
       <use transform="translate(45.6904771171 0.0)scale(0.996264009963)" xlink:href="#CMR17-48"/>
       <use transform="translate(91.3809542341 0.0)scale(0.996264009963)" xlink:href="#CMR17-48"/>
       <use transform="translate(137.071431351 0.0)scale(0.996264009963)" xlink:href="#CMR17-48"/>
      </g>
     </g>
    </g>
    <g id="xtick_3">
     <g id="line2d_7">
      <g>
       <use style="stroke:#000000;stroke-linecap:butt;stroke-width:0.5;" x="190.330541819" xlink:href="#mcb557df647" y="379.128038946"/>
      </g>
     </g>
     <g id="line2d_8">
      <g>
       <use style="stroke:#000000;stroke-linecap:butt;stroke-width:0.5;" x="190.330541819" xlink:href="#mdad270ee8e" y="22.7387244245"/>
      </g>
     </g>
     <g id="text_3">
      <!-- $2000$ -->
      <defs>
       <path d="
M41.7031 15.4531
L39.9062 15.4531
C38.9062 8.375 38.0938 7.17188 37.7031 6.5625
C37.2031 5.76562 30 5.76562 28.5938 5.76562
L9.40625 5.76562
C13 9.67188 20 16.75 28.5 24.9531
C34.5938 30.7344 41.7031 37.5312 41.7031 47.4219
C41.7031 59.2188 32.2969 66 21.7969 66
C10.7969 66 4.09375 56.3125 4.09375 47.3438
C4.09375 43.4375 7 42.9375 8.20312 42.9375
C9.20312 42.9375 12.2031 43.5469 12.2031 47.0312
C12.2031 50.1094 9.59375 51 8.20312 51
C7.59375 51 7 50.9062 6.59375 50.7031
C8.5 59.2188 14.2969 63.4062 20.4062 63.4062
C29.0938 63.4062 34.7969 56.5156 34.7969 47.4219
C34.7969 38.7344 29.7031 31.25 24 24.75
L4.09375 2.28125
L4.09375 0
L39.2969 0
z
" id="CMR17-50"/>
      </defs>
      <g transform="translate(174.7957796 394.045487795)scale(0.17 -0.17)">
       <use transform="scale(0.996264009963)" xlink:href="#CMR17-50"/>
       <use transform="translate(45.6904771171 0.0)scale(0.996264009963)" xlink:href="#CMR17-48"/>
       <use transform="translate(91.3809542341 0.0)scale(0.996264009963)" xlink:href="#CMR17-48"/>
       <use transform="translate(137.071431351 0.0)scale(0.996264009963)" xlink:href="#CMR17-48"/>
      </g>
     </g>
    </g>
    <g id="xtick_4">
     <g id="line2d_9">
      <g>
       <use style="stroke:#000000;stroke-linecap:butt;stroke-width:0.5;" x="260.901481011" xlink:href="#mcb557df647" y="379.128038946"/>
      </g>
     </g>
     <g id="line2d_10">
      <g>
       <use style="stroke:#000000;stroke-linecap:butt;stroke-width:0.5;" x="260.901481011" xlink:href="#mdad270ee8e" y="22.7387244245"/>
      </g>
     </g>
     <g id="text_4">
      <!-- $3000$ -->
      <defs>
       <path d="
M22.0938 33.7031
C31 33.7031 34.9062 25.9688 34.9062 17.0312
C34.9062 5 28.5 0.390625 22.7031 0.390625
C17.4062 0.390625 8.79688 3.03125 6.09375 10.8281
C6.59375 10.625 7.09375 10.625 7.59375 10.625
C10 10.625 11.7969 12.2188 11.7969 14.8125
C11.7969 17.7031 9.59375 19 7.59375 19
C5.90625 19 3.29688 18.2031 3.29688 14.4688
C3.29688 5.23438 12.2969 -2 22.9062 -2
C34 -2 42.5 6.71875 42.5 16.9531
C42.5 26.6719 34.5 33.6875 25 34.7969
C32.5938 36.375 39.9062 43.0625 39.9062 52.0156
C39.9062 59.6875 32 65.2969 23 65.2969
C13.9062 65.2969 5.90625 59.8281 5.90625 52.0156
C5.90625 48.5938 8.5 48 9.79688 48
C11.9062 48 13.7031 49.2969 13.7031 51.8906
C13.7031 54.4688 11.9062 55.7656 9.79688 55.7656
C9.40625 55.7656 8.90625 55.7656 8.5 55.5625
C11.4062 61.8594 19.2969 63 22.7969 63
C26.2969 63 32.9062 61.3281 32.9062 51.875
C32.9062 49.1094 32.5 44.1875 29.0938 39.8438
C26.0938 36 22.7031 36 19.4062 35.5938
C18.9062 35.5938 16.5938 35.5938 16.2031 35.5938
C15.5 35.4844 15.0938 35.3906 15.0938 34.5938
C15.0938 33.8125 15.2031 33.7031 17.2031 33.7031
z
" id="CMR17-51"/>
      </defs>
      <g transform="translate(245.366718792 394.045487795)scale(0.17 -0.17)">
       <use transform="scale(0.996264009963)" xlink:href="#CMR17-51"/>
       <use transform="translate(45.6904771171 0.0)scale(0.996264009963)" xlink:href="#CMR17-48"/>
       <use transform="translate(91.3809542341 0.0)scale(0.996264009963)" xlink:href="#CMR17-48"/>
       <use transform="translate(137.071431351 0.0)scale(0.996264009963)" xlink:href="#CMR17-48"/>
      </g>
     </g>
    </g>
    <g id="xtick_5">
     <g id="line2d_11">
      <g>
       <use style="stroke:#000000;stroke-linecap:butt;stroke-width:0.5;" x="331.472420204" xlink:href="#mcb557df647" y="379.128038946"/>
      </g>
     </g>
     <g id="line2d_12">
      <g>
       <use style="stroke:#000000;stroke-linecap:butt;stroke-width:0.5;" x="331.472420204" xlink:href="#mdad270ee8e" y="22.7387244245"/>
      </g>
     </g>
     <g id="text_5">
      <!-- $4000$ -->
      <defs>
       <path d="
M33.5938 64.3281
C33.5938 66.4062 33.5 66.5 31.7031 66.5
L2 19.5938
L2 17
L27.7969 17
L27.7969 7.14062
C27.7969 3.5 27.5938 2.5 20.5938 2.5
L18.7031 2.5
L18.7031 0
C21.9062 0 27.2969 0 30.7031 0
C34.0938 0 39.5 0 42.7031 0
L42.7031 2.5
L40.7969 2.5
C33.7969 2.5 33.5938 3.5 33.5938 7.14062
L33.5938 17
L43.7969 17
L43.7969 19.5938
L33.5938 19.5938
z

M28.0938 57.7656
L28.0938 19.5938
L4 19.5938
z
" id="CMR17-52"/>
      </defs>
      <g transform="translate(315.937657984 394.045487795)scale(0.17 -0.17)">
       <use transform="scale(0.996264009963)" xlink:href="#CMR17-52"/>
       <use transform="translate(45.6904771171 0.0)scale(0.996264009963)" xlink:href="#CMR17-48"/>
       <use transform="translate(91.3809542341 0.0)scale(0.996264009963)" xlink:href="#CMR17-48"/>
       <use transform="translate(137.071431351 0.0)scale(0.996264009963)" xlink:href="#CMR17-48"/>
      </g>
     </g>
    </g>
    <g id="xtick_6">
     <g id="line2d_13">
      <g>
       <use style="stroke:#000000;stroke-linecap:butt;stroke-width:0.5;" x="402.043359396" xlink:href="#mcb557df647" y="379.128038946"/>
      </g>
     </g>
     <g id="line2d_14">
      <g>
       <use style="stroke:#000000;stroke-linecap:butt;stroke-width:0.5;" x="402.043359396" xlink:href="#mdad270ee8e" y="22.7387244245"/>
      </g>
     </g>
     <g id="text_6">
      <!-- $5000$ -->
      <defs>
       <path d="
M11.4062 57.6875
C12.4062 57.2812 16.5 56 20.7031 56
C30 56 35.0938 61.0156 38 63.9219
C38 64.7344 38 65.25 37.4062 65.25
C37.2969 65.25 37.0938 65.25 36.2969 64.8281
C32.7969 63.3125 28.7031 62.0781 23.7031 62.0781
C20.7031 62.0781 16.2031 62.5 11.2969 64.7344
C10.2031 65.25 10 65.25 9.90625 65.25
C9.40625 65.25 9.29688 65.1406 9.29688 63.1562
L9.29688 34.2812
C9.29688 32.5 9.29688 32 10.2969 32
C10.7969 32 11 32.2031 11.5 32.9062
C14.7031 37.4844 19.0938 39.4062 24.0938 39.4062
C27.5938 39.4062 35.0938 37.2188 35.0938 20.1406
C35.0938 16.9531 35.0938 11.1719 32.0938 6.57812
C29.5938 2.48438 25.7031 0.390625 21.4062 0.390625
C14.7969 0.390625 8.09375 5 6.29688 12.7188
C6.70312 12.6094 7.5 12.4219 7.90625 12.4219
C9.20312 12.4219 11.7031 13.125 11.7031 16.2188
C11.7031 18.9062 9.79688 20 7.90625 20
C5.59375 20 4.09375 18.5938 4.09375 15.7969
C4.09375 7.09375 11 -2 21.5938 -2
C31.9062 -2 41.7031 6.875 41.7031 19.75
C41.7031 31.7188 33.9062 41 24.2031 41
C19.0938 41 14.7969 39.0938 11.4062 35.4531
z
" id="CMR17-53"/>
      </defs>
      <g transform="translate(386.508597176 394.045487795)scale(0.17 -0.17)">
       <use transform="scale(0.996264009963)" xlink:href="#CMR17-53"/>
       <use transform="translate(45.6904771171 0.0)scale(0.996264009963)" xlink:href="#CMR17-48"/>
       <use transform="translate(91.3809542341 0.0)scale(0.996264009963)" xlink:href="#CMR17-48"/>
       <use transform="translate(137.071431351 0.0)scale(0.996264009963)" xlink:href="#CMR17-48"/>
      </g>
     </g>
    </g>
    <g id="xtick_7">
     <g id="line2d_15">
      <g>
       <use style="stroke:#000000;stroke-linecap:butt;stroke-width:0.5;" x="472.614298588" xlink:href="#mcb557df647" y="379.128038946"/>
      </g>
     </g>
     <g id="line2d_16">
      <g>
       <use style="stroke:#000000;stroke-linecap:butt;stroke-width:0.5;" x="472.614298588" xlink:href="#mdad270ee8e" y="22.7387244245"/>
      </g>
     </g>
     <g id="text_7">
      <!-- $6000$ -->
      <defs>
       <path d="
M10.5938 34
C10.5938 57.6562 21.7969 63 28.2969 63
C30.4062 63 35.5 62.6406 37.5 59
C35.9062 59 32.9062 59 32.9062 55.5156
C32.9062 52.8281 35.0938 51.9219 36.5 51.9219
C37.4062 51.9219 40.0938 52.3125 40.0938 55.625
C40.0938 61.7812 35.0938 65.2969 28.2031 65.2969
C16.2969 65.2969 3.79688 52.9688 3.79688 31
C3.79688 3.95312 15.0938 -2 23.0938 -2
C32.7969 -2 42 6.67188 42 20.0469
C42 32.5156 33.9062 41.5938 23.7031 41.5938
C17.5938 41.5938 13.0938 37.6094 10.5938 30.625
z

M23.0938 0.390625
C10.7969 0.390625 10.7969 18.75 10.7969 22.4375
C10.7969 29.625 14.2031 40 23.5 40
C25.2031 40 30.0938 40 33.4062 33.125
C35.2031 29.2188 35.2031 25.1406 35.2031 20.1406
C35.2031 14.75 35.2031 10.7812 33.0938 6.78125
C30.9062 2.67188 27.7031 0.390625 23.0938 0.390625" id="CMR17-54"/>
      </defs>
      <g transform="translate(457.079536368 394.045487795)scale(0.17 -0.17)">
       <use transform="scale(0.996264009963)" xlink:href="#CMR17-54"/>
       <use transform="translate(45.6904771171 0.0)scale(0.996264009963)" xlink:href="#CMR17-48"/>
       <use transform="translate(91.3809542341 0.0)scale(0.996264009963)" xlink:href="#CMR17-48"/>
       <use transform="translate(137.071431351 0.0)scale(0.996264009963)" xlink:href="#CMR17-48"/>
      </g>
     </g>
    </g>
    <g id="xtick_8">
     <g id="line2d_17">
      <g>
       <use style="stroke:#000000;stroke-linecap:butt;stroke-width:0.5;" x="543.18523778" xlink:href="#mcb557df647" y="379.128038946"/>
      </g>
     </g>
     <g id="line2d_18">
      <g>
       <use style="stroke:#000000;stroke-linecap:butt;stroke-width:0.5;" x="543.18523778" xlink:href="#mdad270ee8e" y="22.7387244245"/>
      </g>
     </g>
     <g id="text_8">
      <!-- $7000$ -->
      <defs>
       <path d="
M45.0938 61.5781
L45.0938 63.7656
L21.5938 63.7656
C9.90625 63.7656 9.70312 65.0781 9.29688 67
L7.5 67
L4.59375 48.3438
L6.40625 48.3438
C6.70312 50.2344 7.40625 55.3125 8.59375 57.2031
C9.20312 58 16.5938 58 18.2969 58
L40.2969 58
L29.2031 41.5781
C21.7969 30.5312 16.7031 15.6094 16.7031 2.57812
C16.7031 1.39062 16.7031 -2 20.2969 -2
C23.9062 -2 23.9062 1.39062 23.9062 2.67188
L23.9062 7.26562
C23.9062 23.5625 26.7031 34.3125 31.2969 41.1875
z
" id="CMR17-55"/>
      </defs>
      <g transform="translate(527.65047556 394.045487795)scale(0.17 -0.17)">
       <use transform="scale(0.996264009963)" xlink:href="#CMR17-55"/>
       <use transform="translate(45.6904771171 0.0)scale(0.996264009963)" xlink:href="#CMR17-48"/>
       <use transform="translate(91.3809542341 0.0)scale(0.996264009963)" xlink:href="#CMR17-48"/>
       <use transform="translate(137.071431351 0.0)scale(0.996264009963)" xlink:href="#CMR17-48"/>
      </g>
     </g>
    </g>
    <g id="text_9">
     <!-- Time [generations] -->
     <defs>
      <path d="
M25 73
L6.40625 73
L6.40625 -21.2031
L25 -21.2031
L25 -14
L14.7031 -14
L14.7031 65.7812
L25 65.7812
z
" id="Nimbus_Sans_L_Regular-91"/>
      <path d="
M27.2031 54
C12.5 54 3.59375 43.5312 3.59375 26
C3.59375 8.45312 12.4062 -2 27.2969 -2
C42 -2 51 8.45312 51 25.5938
C51 43.6406 42.2969 54 27.2031 54
M27.2969 46.2812
C36.7031 46.2812 42.2969 38.625 42.2969 25.7031
C42.2969 13.4531 36.5 5.70312 27.2969 5.70312
C18 5.70312 12.2969 13.3594 12.2969 26
C12.2969 38.5312 18 46.2812 27.2969 46.2812" id="Nimbus_Sans_L_Regular-111"/>
      <path d="
M53.5 5.20312
C52.5938 5 52.2031 5 51.7031 5
C48.7969 5 47.2031 6.48438 47.2031 9.07812
L47.2031 39.7656
C47.2031 49.0156 40.4062 54 27.5 54
C19.9062 54 13.5938 51.8125 10.0938 47.9062
C7.70312 45.2031 6.70312 42.2188 6.5 37.0312
L14.9062 37.0312
C15.5938 43.3906 19.4062 46.2812 27.2031 46.2812
C34.7031 46.2812 38.9062 43.4844 38.9062 38.5156
L38.9062 36.3281
C38.9062 32.8281 36.7969 31.3438 30.2031 30.5469
C18.4062 29.0625 16.5938 28.6562 13.4062 27.3594
C7.29688 24.875 4.20312 20.1875 4.20312 13.4219
C4.20312 3.96875 10.7969 -2 21.4062 -2
C28 -2 33.2969 0.296875 39.2031 5.70312
C39.7969 0.390625 42.4062 -2 47.7969 -2
C49.5 -2 50.7969 -1.8125 53.5 -1.09375
z

M38.9062 16.75
C38.9062 13.9531 38.0938 12.2656 35.5938 9.98438
C32.2031 6.89062 28.0938 5.3125 23.2031 5.3125
C16.7031 5.3125 12.9062 8.39062 12.9062 13.6562
C12.9062 19.1406 16.5938 21.9219 25.5 23.2188
C34.2969 24.4062 36.0938 24.8125 38.9062 26.0938
z
" id="Nimbus_Sans_L_Regular-97"/>
      <path d="
M25.4062 52.8125
L16.7969 52.8125
L16.7969 67
L8.5 67
L8.5 52.8125
L1.40625 52.8125
L1.40625 46
L8.5 46
L8.5 6.3125
C8.5 1 12.0938 -2 18.5938 -2
C20.5938 -2 22.5938 -1.8125 25.4062 -1.29688
L25.4062 5.71875
C24.2969 5.40625 23 5.3125 21.4062 5.3125
C17.7969 5.3125 16.7969 6.3125 16.7969 10.0156
L16.7969 46
L25.4062 46
z
" id="Nimbus_Sans_L_Regular-116"/>
      <path d="
M2.29688 -21.2031
L20.9062 -21.2031
L20.9062 73
L2.29688 73
L2.29688 65.7812
L12.5938 65.7812
L12.5938 -14
L2.29688 -14
z
" id="Nimbus_Sans_L_Regular-93"/>
      <path d="
M7 52.4844
L7 0
L15.4062 0
L15.4062 32.9531
C15.4062 40.5781 20.9062 46.6875 27.7031 46.6875
C33.9062 46.6875 37.4062 42.875 37.4062 36.1562
L37.4062 0
L45.7969 0
L45.7969 32.9531
C45.7969 40.5781 51.2969 46.6875 58.0938 46.6875
C64.2031 46.6875 67.7969 42.7812 67.7969 36.1562
L67.7969 0
L76.2031 0
L76.2031 39.375
C76.2031 48.7812 70.7969 54 61 54
C54 54 49.7969 51.8906 44.9062 45.9844
C41.7969 51.5938 37.5938 54 30.7969 54
C23.7969 54 19.2031 51.3906 14.7031 45.0781
L14.7031 52.4844
z
" id="Nimbus_Sans_L_Regular-109"/>
      <path d="
M6.90625 52.4844
L6.90625 0
L15.2969 0
L15.2969 27.25
C15.2969 34.7656 17.2031 39.6719 21.2031 42.5781
C23.7969 44.4844 26.2969 45.0781 32.0938 45.0781
L32.0938 53.7031
C30.7031 53.8906 30 54 28.9062 54
C23.5 54 19.4062 50.7812 14.5938 42.9688
L14.5938 52.4844
z
" id="Nimbus_Sans_L_Regular-114"/>
      <path d="
M15 52.4844
L6.70312 52.4844
L6.70312 0
L15 0
z

M15 73
L6.59375 73
L6.59375 62.4844
L15 62.4844
z
" id="Nimbus_Sans_L_Regular-105"/>
      <path d="
M7 52.4844
L7 0
L15.4062 0
L15.4062 28.9531
C15.4062 39.6719 21 46.6875 29.5938 46.6875
C36.2031 46.6875 40.4062 42.6719 40.4062 36.3594
L40.4062 0
L48.7031 0
L48.7031 39.6719
C48.7031 48.3906 42.2031 54 32.0938 54
C24.2969 54 19.2969 50.9844 14.7031 43.6875
L14.7031 52.4844
z
" id="Nimbus_Sans_L_Regular-110"/>
      <path d="
M35.4062 64.7812
L59.2969 64.7812
L59.2969 73
L2.09375 73
L2.09375 64.7812
L26.0938 64.7812
L26.0938 -0.21875
L35.4062 -0.21875
z
" id="Nimbus_Sans_L_Regular-84"/>
      <path d="
M51.2969 24
C51.2969 31.875 50.7031 36.5938 49.2031 40.4219
C45.7969 48.875 37.7969 54 28 54
C13.4062 54 4 42.8438 4 25.7031
C4 8.54688 13.0938 -2 27.7969 -2
C39.7969 -2 48.0938 4.875 50.2031 16.375
L41.7969 16.375
C39.5 9.35938 34.7969 5.70312 28.0938 5.70312
C22.7969 5.70312 18.2969 8.14062 15.5 12.6094
C13.5 15.6562 12.7969 18.7188 12.7031 24
z

M12.9062 30.8125
C13.5938 40.1875 19.5 46.2812 27.9062 46.2812
C36.0938 46.2812 42.4062 39.7031 42.4062 31.4062
C42.4062 31.2031 42.4062 31.0156 42.2969 30.8125
z
" id="Nimbus_Sans_L_Regular-101"/>
      <path d="
M41.2031 52.2031
L41.2031 44.5938
C37 50.8125 31.9062 53.7188 25.2031 53.7188
C11.9062 53.7188 2.90625 42.0625 2.90625 25
C2.90625 16.375 5.20312 9.34375 9.5 4.3125
C13.4062 -0.109375 19 -2.70312 24.5 -2.70312
C31.0938 -2.70312 35.7031 0.09375 40.4062 6.70312
L40.4062 4.03125
C40.4062 -3 39.5 -7.26562 37.4062 -10.1406
C35.2031 -13.1875 30.9062 -14.9844 25.7969 -14.9844
C22 -14.9844 18.5938 -14 16.2969 -12.2344
C14.4062 -10.75 13.5938 -9.375 13.0938 -6.34375
L4.59375 -6.34375
C5.5 -16.1406 13.2031 -22 25.5 -22
C33.2969 -22 40 -19.4844 43.4062 -15.2969
C47.4062 -10.4844 48.9062 -3.89062 48.9062 8.40625
L48.9062 52.2031
z

M26.0938 46
C35.0938 46 40.4062 38.375 40.4062 25.2031
C40.4062 12.625 35 5 26.2031 5
C17.0938 5 11.5938 12.75 11.5938 25.5
C11.5938 38.1562 17.2031 46 26.0938 46" id="Nimbus_Sans_L_Regular-103"/>
      <path d="
M43.7969 37.9219
C43.7031 48.2031 36.9062 54 24.7969 54
C12.5938 54 4.70312 47.7188 4.70312 38.0625
C4.70312 29.8906 8.90625 26.0156 21.2969 23.0312
L29.0938 21.1406
C34.9062 19.7344 37.2031 17.6562 37.2031 13.875
C37.2031 9 32.2969 5.70312 25 5.70312
C20.5 5.70312 16.7031 7 14.5938 9.1875
C13.2969 10.6875 12.7031 12.1719 12.2031 15.8438
L3.40625 15.8438
C3.79688 3.76562 10.5938 -2 24.2969 -2
C37.5 -2 45.9062 4.45312 45.9062 14.5156
C45.9062 22.2812 41.5 26.5781 31.0938 29.0625
L23.0938 30.9531
C16.2969 32.5312 13.4062 34.7344 13.4062 38.4062
C13.4062 43.1875 17.7031 46.2812 24.5 46.2812
C31.2031 46.2812 34.7969 43.3906 35 37.9219
z
" id="Nimbus_Sans_L_Regular-115"/>
     </defs>
     <g transform="translate(226.147010965 414.72)scale(0.17 -0.17)">
      <use transform="translate(0.0 21.2198791884)scale(0.996264009963)" xlink:href="#Nimbus_Sans_L_Regular-84"/>
      <use transform="translate(60.871630677 21.2198791884)scale(0.996264009963)" xlink:href="#Nimbus_Sans_L_Regular-105"/>
      <use transform="translate(82.9884150257 21.2198791884)scale(0.996264009963)" xlink:href="#Nimbus_Sans_L_Regular-109"/>
      <use transform="translate(165.976845253 21.2198791884)scale(0.996264009963)" xlink:href="#Nimbus_Sans_L_Regular-101"/>
      <use transform="translate(249.06369182 21.2198791884)scale(0.996264009963)" xlink:href="#Nimbus_Sans_L_Regular-91"/>
      <use transform="translate(276.758861423 21.2198791884)scale(0.996264009963)" xlink:href="#Nimbus_Sans_L_Regular-103"/>
      <use transform="translate(332.150538386 21.2198791884)scale(0.996264009963)" xlink:href="#Nimbus_Sans_L_Regular-101"/>
      <use transform="translate(387.54221535 21.2198791884)scale(0.996264009963)" xlink:href="#Nimbus_Sans_L_Regular-110"/>
      <use transform="translate(442.933892313 21.2198791884)scale(0.996264009963)" xlink:href="#Nimbus_Sans_L_Regular-101"/>
      <use transform="translate(498.325569276 21.2198791884)scale(0.996264009963)" xlink:href="#Nimbus_Sans_L_Regular-114"/>
      <use transform="translate(530.504702215 21.2198791884)scale(0.996264009963)" xlink:href="#Nimbus_Sans_L_Regular-97"/>
      <use transform="translate(585.896379179 21.2198791884)scale(0.996264009963)" xlink:href="#Nimbus_Sans_L_Regular-116"/>
      <use transform="translate(613.591548782 21.2198791884)scale(0.996264009963)" xlink:href="#Nimbus_Sans_L_Regular-105"/>
      <use transform="translate(635.708333131 21.2198791884)scale(0.996264009963)" xlink:href="#Nimbus_Sans_L_Regular-111"/>
      <use transform="translate(691.100010094 21.2198791884)scale(0.996264009963)" xlink:href="#Nimbus_Sans_L_Regular-110"/>
      <use transform="translate(746.491687057 21.2198791884)scale(0.996264009963)" xlink:href="#Nimbus_Sans_L_Regular-115"/>
      <use transform="translate(796.304887555 21.2198791884)scale(0.996264009963)" xlink:href="#Nimbus_Sans_L_Regular-93"/>
     </g>
    </g>
   </g>
   <g id="matplotlib.axis_2">
    <g id="ytick_1">
     <g id="line2d_19">
      <defs>
       <path d="
M0 0
L4 0" id="mc8fcea1516" style="stroke:#000000;stroke-linecap:butt;stroke-width:0.5;"/>
      </defs>
      <g>
       <use style="stroke:#000000;stroke-linecap:butt;stroke-width:0.5;" x="49.188663435" xlink:href="#mc8fcea1516" y="379.128038946"/>
      </g>
     </g>
     <g id="line2d_20">
      <defs>
       <path d="
M0 0
L-4 0" id="m0d5b0a6425" style="stroke:#000000;stroke-linecap:butt;stroke-width:0.5;"/>
      </defs>
      <g>
       <use style="stroke:#000000;stroke-linecap:butt;stroke-width:0.5;" x="543.18523778" xlink:href="#m0d5b0a6425" y="379.128038946"/>
      </g>
     </g>
     <g id="text_10">
      <!-- $0.00$ -->
      <defs>
       <path d="
M18.4062 4.79688
C18.4062 7.6875 16 9.67188 13.5938 9.67188
C10.7031 9.67188 8.70312 7.28125 8.70312 4.89062
C8.70312 2 11.0938 0 13.5 0
C16.4062 0 18.4062 2.39062 18.4062 4.79688" id="CMMI12-58"/>
      </defs>
      <g transform="translate(17.28 384.58676337)scale(0.17 -0.17)">
       <use transform="scale(0.996264009963)" xlink:href="#CMR17-48"/>
       <use transform="translate(45.6904771171 0.0)scale(0.996264009963)" xlink:href="#CMMI12-58"/>
       <use transform="translate(72.7876542069 0.0)scale(0.996264009963)" xlink:href="#CMR17-48"/>
       <use transform="translate(118.478131324 0.0)scale(0.996264009963)" xlink:href="#CMR17-48"/>
      </g>
     </g>
    </g>
    <g id="ytick_2">
     <g id="line2d_21">
      <g>
       <use style="stroke:#000000;stroke-linecap:butt;stroke-width:0.5;" x="49.188663435" xlink:href="#mc8fcea1516" y="334.579374631"/>
      </g>
     </g>
     <g id="line2d_22">
      <g>
       <use style="stroke:#000000;stroke-linecap:butt;stroke-width:0.5;" x="543.18523778" xlink:href="#m0d5b0a6425" y="334.579374631"/>
      </g>
     </g>
     <g id="text_11">
      <!-- $0.01$ -->
      <g transform="translate(17.28 340.038099055)scale(0.17 -0.17)">
       <use transform="scale(0.996264009963)" xlink:href="#CMR17-48"/>
       <use transform="translate(45.6904771171 0.0)scale(0.996264009963)" xlink:href="#CMMI12-58"/>
       <use transform="translate(72.7876542069 0.0)scale(0.996264009963)" xlink:href="#CMR17-48"/>
       <use transform="translate(118.478131324 0.0)scale(0.996264009963)" xlink:href="#CMR17-49"/>
      </g>
     </g>
    </g>
    <g id="ytick_3">
     <g id="line2d_23">
      <g>
       <use style="stroke:#000000;stroke-linecap:butt;stroke-width:0.5;" x="49.188663435" xlink:href="#mc8fcea1516" y="290.030710315"/>
      </g>
     </g>
     <g id="line2d_24">
      <g>
       <use style="stroke:#000000;stroke-linecap:butt;stroke-width:0.5;" x="543.18523778" xlink:href="#m0d5b0a6425" y="290.030710315"/>
      </g>
     </g>
     <g id="text_12">
      <!-- $0.02$ -->
      <g transform="translate(17.28 295.48943474)scale(0.17 -0.17)">
       <use transform="scale(0.996264009963)" xlink:href="#CMR17-48"/>
       <use transform="translate(45.6904771171 0.0)scale(0.996264009963)" xlink:href="#CMMI12-58"/>
       <use transform="translate(72.7876542069 0.0)scale(0.996264009963)" xlink:href="#CMR17-48"/>
       <use transform="translate(118.478131324 0.0)scale(0.996264009963)" xlink:href="#CMR17-50"/>
      </g>
     </g>
    </g>
    <g id="ytick_4">
     <g id="line2d_25">
      <g>
       <use style="stroke:#000000;stroke-linecap:butt;stroke-width:0.5;" x="49.188663435" xlink:href="#mc8fcea1516" y="245.482046"/>
      </g>
     </g>
     <g id="line2d_26">
      <g>
       <use style="stroke:#000000;stroke-linecap:butt;stroke-width:0.5;" x="543.18523778" xlink:href="#m0d5b0a6425" y="245.482046"/>
      </g>
     </g>
     <g id="text_13">
      <!-- $0.03$ -->
      <g transform="translate(17.28 250.940770425)scale(0.17 -0.17)">
       <use transform="scale(0.996264009963)" xlink:href="#CMR17-48"/>
       <use transform="translate(45.6904771171 0.0)scale(0.996264009963)" xlink:href="#CMMI12-58"/>
       <use transform="translate(72.7876542069 0.0)scale(0.996264009963)" xlink:href="#CMR17-48"/>
       <use transform="translate(118.478131324 0.0)scale(0.996264009963)" xlink:href="#CMR17-51"/>
      </g>
     </g>
    </g>
    <g id="ytick_5">
     <g id="line2d_27">
      <g>
       <use style="stroke:#000000;stroke-linecap:butt;stroke-width:0.5;" x="49.188663435" xlink:href="#mc8fcea1516" y="200.933381685"/>
      </g>
     </g>
     <g id="line2d_28">
      <g>
       <use style="stroke:#000000;stroke-linecap:butt;stroke-width:0.5;" x="543.18523778" xlink:href="#m0d5b0a6425" y="200.933381685"/>
      </g>
     </g>
     <g id="text_14">
      <!-- $0.04$ -->
      <g transform="translate(17.28 206.39210611)scale(0.17 -0.17)">
       <use transform="scale(0.996264009963)" xlink:href="#CMR17-48"/>
       <use transform="translate(45.6904771171 0.0)scale(0.996264009963)" xlink:href="#CMMI12-58"/>
       <use transform="translate(72.7876542069 0.0)scale(0.996264009963)" xlink:href="#CMR17-48"/>
       <use transform="translate(118.478131324 0.0)scale(0.996264009963)" xlink:href="#CMR17-52"/>
      </g>
     </g>
    </g>
    <g id="ytick_6">
     <g id="line2d_29">
      <g>
       <use style="stroke:#000000;stroke-linecap:butt;stroke-width:0.5;" x="49.188663435" xlink:href="#mc8fcea1516" y="156.38471737"/>
      </g>
     </g>
     <g id="line2d_30">
      <g>
       <use style="stroke:#000000;stroke-linecap:butt;stroke-width:0.5;" x="543.18523778" xlink:href="#m0d5b0a6425" y="156.38471737"/>
      </g>
     </g>
     <g id="text_15">
      <!-- $0.05$ -->
      <g transform="translate(17.28 161.843441795)scale(0.17 -0.17)">
       <use transform="scale(0.996264009963)" xlink:href="#CMR17-48"/>
       <use transform="translate(45.6904771171 0.0)scale(0.996264009963)" xlink:href="#CMMI12-58"/>
       <use transform="translate(72.7876542069 0.0)scale(0.996264009963)" xlink:href="#CMR17-48"/>
       <use transform="translate(118.478131324 0.0)scale(0.996264009963)" xlink:href="#CMR17-53"/>
      </g>
     </g>
    </g>
    <g id="ytick_7">
     <g id="line2d_31">
      <g>
       <use style="stroke:#000000;stroke-linecap:butt;stroke-width:0.5;" x="49.188663435" xlink:href="#mc8fcea1516" y="111.836053055"/>
      </g>
     </g>
     <g id="line2d_32">
      <g>
       <use style="stroke:#000000;stroke-linecap:butt;stroke-width:0.5;" x="543.18523778" xlink:href="#m0d5b0a6425" y="111.836053055"/>
      </g>
     </g>
     <g id="text_16">
      <!-- $0.06$ -->
      <g transform="translate(17.28 117.294777479)scale(0.17 -0.17)">
       <use transform="scale(0.996264009963)" xlink:href="#CMR17-48"/>
       <use transform="translate(45.6904771171 0.0)scale(0.996264009963)" xlink:href="#CMMI12-58"/>
       <use transform="translate(72.7876542069 0.0)scale(0.996264009963)" xlink:href="#CMR17-48"/>
       <use transform="translate(118.478131324 0.0)scale(0.996264009963)" xlink:href="#CMR17-54"/>
      </g>
     </g>
    </g>
    <g id="ytick_8">
     <g id="line2d_33">
      <g>
       <use style="stroke:#000000;stroke-linecap:butt;stroke-width:0.5;" x="49.188663435" xlink:href="#mc8fcea1516" y="67.2873887397"/>
      </g>
     </g>
     <g id="line2d_34">
      <g>
       <use style="stroke:#000000;stroke-linecap:butt;stroke-width:0.5;" x="543.18523778" xlink:href="#m0d5b0a6425" y="67.2873887397"/>
      </g>
     </g>
     <g id="text_17">
      <!-- $0.07$ -->
      <g transform="translate(17.28 72.7461131642)scale(0.17 -0.17)">
       <use transform="scale(0.996264009963)" xlink:href="#CMR17-48"/>
       <use transform="translate(45.6904771171 0.0)scale(0.996264009963)" xlink:href="#CMMI12-58"/>
       <use transform="translate(72.7876542069 0.0)scale(0.996264009963)" xlink:href="#CMR17-48"/>
       <use transform="translate(118.478131324 0.0)scale(0.996264009963)" xlink:href="#CMR17-55"/>
      </g>
     </g>
    </g>
    <g id="ytick_9">
     <g id="line2d_35">
      <g>
       <use style="stroke:#000000;stroke-linecap:butt;stroke-width:0.5;" x="49.188663435" xlink:href="#mc8fcea1516" y="22.7387244245"/>
      </g>
     </g>
     <g id="line2d_36">
      <g>
       <use style="stroke:#000000;stroke-linecap:butt;stroke-width:0.5;" x="543.18523778" xlink:href="#m0d5b0a6425" y="22.7387244245"/>
      </g>
     </g>
     <g id="text_18">
      <!-- $0.08$ -->
      <defs>
       <path d="
M27.2031 35.375
C33.5 38.5625 39.9062 43.3281 39.9062 50.9844
C39.9062 60.0312 31.0938 65.2969 23 65.2969
C13.9062 65.2969 5.90625 58.7344 5.90625 49.6875
C5.90625 47.2031 6.5 42.9219 10.4062 39.1406
C11.4062 38.1562 15.5938 35.1719 18.2969 33.2812
C13.7969 30.9844 3.29688 25.5312 3.29688 14.5938
C3.29688 4.35938 13.0938 -2 22.7969 -2
C33.5 -2 42.5 5.65625 42.5 15.7969
C42.5 24.8438 36.4062 29.0312 32.4062 31.7031
z

M14.0938 44.125
C13.2969 44.625 9.29688 47.7031 9.29688 52.375
C9.29688 58.4375 15.5938 63 22.7969 63
C30.7031 63 36.5 57.4531 36.5 50.9844
C36.5 41.7344 26.0938 36.4688 25.5938 36.4688
C25.5 36.4688 25.4062 36.4688 24.5938 37.0781
z

M32.5 23.7344
C34 22.6406 38.7969 19.375 38.7969 13.2969
C38.7969 5.95312 31.4062 0.390625 23 0.390625
C13.9062 0.390625 7 6.84375 7 14.6875
C7 22.5469 13.0938 29.0938 20 32.1875
z
" id="CMR17-56"/>
      </defs>
      <g transform="translate(17.28 28.197448849)scale(0.17 -0.17)">
       <use transform="scale(0.996264009963)" xlink:href="#CMR17-48"/>
       <use transform="translate(45.6904771171 0.0)scale(0.996264009963)" xlink:href="#CMMI12-58"/>
       <use transform="translate(72.7876542069 0.0)scale(0.996264009963)" xlink:href="#CMR17-48"/>
       <use transform="translate(118.478131324 0.0)scale(0.996264009963)" xlink:href="#CMR17-56"/>
      </g>
     </g>
    </g>
   </g>
   <g id="patch_3">
    <path d="
M49.1887 22.7387
L543.185 22.7387" style="fill:none;stroke:#000000;"/>
   </g>
   <g id="patch_4">
    <path d="
M543.185 379.128
L543.185 22.7387" style="fill:none;stroke:#000000;"/>
   </g>
   <g id="patch_5">
    <path d="
M49.1887 379.128
L543.185 379.128" style="fill:none;stroke:#000000;"/>
   </g>
   <g id="patch_6">
    <path d="
M49.1887 379.128
L49.1887 22.7387" style="fill:none;stroke:#000000;"/>
   </g>
   <g id="legend_1">
    <g id="patch_7">
     <path d="
M57.6887 84.6877
L204.112 84.6877
L204.112 31.2387
L57.6887 31.2387
L57.6887 84.6877
z
" style="fill:#ffffff;stroke:#000000;"/>
    </g>
    <g id="line2d_37">
     <path d="
M69.5887 44.1559
L93.3887 44.1559" style="fill:none;stroke:#0000ff;stroke-width:2;"/>
    </g>
    <g id="line2d_38"/>
    <g id="text_19">
     <!-- Divergence -->
     <defs>
      <path d="
M8.90625 0
L37 0
C55.4062 0 66.7031 13.8281 66.7031 36.5469
C66.7031 59.1719 55.5 73 37 73
L8.90625 73
z

M18.2031 8.21875
L18.2031 64.7812
L35.4062 64.7812
C49.7969 64.7812 57.4062 55.0625 57.4062 36.4531
C57.4062 18.0312 49.7969 8.21875 35.4062 8.21875
z
" id="Nimbus_Sans_L_Regular-68"/>
      <path d="
M28.5 0
L48.5938 52.5
L39.2031 52.5
L24.4062 9.92188
L10.4062 52.5
L1 52.5
L19.4062 0
z
" id="Nimbus_Sans_L_Regular-118"/>
      <path d="
M47.0938 34.9375
C46.7031 40.0312 45.5938 43.3281 43.5938 46.2188
C40 51.1094 33.7031 54 26.4062 54
C12.2969 54 3.09375 42.8438 3.09375 25.5
C3.09375 8.65625 12.0938 -2 26.2969 -2
C38.7969 -2 46.7031 5.46875 47.7031 18.2344
L39.2969 18.2344
C37.9062 9.875 33.5938 5.70312 26.5 5.70312
C17.2969 5.70312 11.7969 13.1719 11.7969 25.5
C11.7969 38.5312 17.2031 46.2812 26.2969 46.2812
C33.2969 46.2812 37.7031 42.2031 38.7031 34.9375
z
" id="Nimbus_Sans_L_Regular-99"/>
     </defs>
     <g transform="translate(112.088663435 53.7132366297)scale(0.17 -0.17)">
      <use transform="translate(0.0 21.2198791884)scale(0.996264009963)" xlink:href="#Nimbus_Sans_L_Regular-68"/>
      <use transform="translate(71.9299848469 21.2198791884)scale(0.996264009963)" xlink:href="#Nimbus_Sans_L_Regular-105"/>
      <use transform="translate(94.0467691956 21.2198791884)scale(0.996264009963)" xlink:href="#Nimbus_Sans_L_Regular-118"/>
      <use transform="translate(141.369340072 21.2198791884)scale(0.996264009963)" xlink:href="#Nimbus_Sans_L_Regular-101"/>
      <use transform="translate(196.761017036 21.2198791884)scale(0.996264009963)" xlink:href="#Nimbus_Sans_L_Regular-114"/>
      <use transform="translate(229.936246765 21.2198791884)scale(0.996264009963)" xlink:href="#Nimbus_Sans_L_Regular-103"/>
      <use transform="translate(285.327923728 21.2198791884)scale(0.996264009963)" xlink:href="#Nimbus_Sans_L_Regular-101"/>
      <use transform="translate(340.719600692 21.2198791884)scale(0.996264009963)" xlink:href="#Nimbus_Sans_L_Regular-110"/>
      <use transform="translate(396.111277655 21.2198791884)scale(0.996264009963)" xlink:href="#Nimbus_Sans_L_Regular-99"/>
      <use transform="translate(445.924478153 21.2198791884)scale(0.996264009963)" xlink:href="#Nimbus_Sans_L_Regular-101"/>
     </g>
    </g>
    <g id="line2d_39">
     <path d="
M69.5887 68.3304
L93.3887 68.3304" style="fill:none;stroke:#ff0000;stroke-width:2;"/>
    </g>
    <g id="line2d_40"/>
    <g id="text_20">
     <!-- Diversity -->
     <defs>
      <path d="
M38.7969 52.5
L24.2969 11.5312
L10.9062 52.5
L2 52.5
L19.7031 -0.328125
L16.5 -8.65625
C15.2031 -12.375 13.2969 -13.7812 9.79688 -13.7812
C8.59375 -13.7812 7.20312 -13.5781 5.40625 -13.1719
L5.40625 -20.7031
C7.09375 -21.5938 8.79688 -22 11 -22
C13.7031 -22 16.5938 -21.0938 18.7969 -19.4844
C21.4062 -17.5781 22.9062 -15.3594 24.5 -11.1406
L47.7969 52.5
z
" id="Nimbus_Sans_L_Regular-121"/>
     </defs>
     <g transform="translate(112.088663435 77.8877488349)scale(0.17 -0.17)">
      <use transform="translate(0.0 21.2198791884)scale(0.996264009963)" xlink:href="#Nimbus_Sans_L_Regular-68"/>
      <use transform="translate(71.9299848469 21.2198791884)scale(0.996264009963)" xlink:href="#Nimbus_Sans_L_Regular-105"/>
      <use transform="translate(94.0467691956 21.2198791884)scale(0.996264009963)" xlink:href="#Nimbus_Sans_L_Regular-118"/>
      <use transform="translate(141.369340072 21.2198791884)scale(0.996264009963)" xlink:href="#Nimbus_Sans_L_Regular-101"/>
      <use transform="translate(196.761017036 21.2198791884)scale(0.996264009963)" xlink:href="#Nimbus_Sans_L_Regular-114"/>
      <use transform="translate(229.936246765 21.2198791884)scale(0.996264009963)" xlink:href="#Nimbus_Sans_L_Regular-115"/>
      <use transform="translate(279.749447263 21.2198791884)scale(0.996264009963)" xlink:href="#Nimbus_Sans_L_Regular-105"/>
      <use transform="translate(301.866231612 21.2198791884)scale(0.996264009963)" xlink:href="#Nimbus_Sans_L_Regular-116"/>
      <use transform="translate(329.561401215 21.2198791884)scale(0.996264009963)" xlink:href="#Nimbus_Sans_L_Regular-121"/>
     </g>
    </g>
   </g>
  </g>
 </g>
 <defs>
  <clipPath id="pb9177e343b">
   <rect height="356.389314521" width="493.996574345" x="49.188663435" y="22.7387244245"/>
  </clipPath>
 </defs>
</svg>
