<?xml version="1.0" encoding="utf-8" standalone="no"?>
<!DOCTYPE svg PUBLIC "-//W3C//DTD SVG 1.1//EN"
  "http://www.w3.org/Graphics/SVG/1.1/DTD/svg11.dtd">
<!-- Created with matplotlib (http://matplotlib.org/) -->
<svg height="432pt" version="1.1" viewBox="0 0 576 432" width="576pt" xmlns="http://www.w3.org/2000/svg" xmlns:xlink="http://www.w3.org/1999/xlink">
 <defs>
  <style type="text/css">
*{stroke-linecap:butt;stroke-linejoin:round;}
  </style>
 </defs>
 <g id="figure_1">
  <g id="patch_1">
   <path d="
M0 432
L576 432
L576 0
L0 0
z
" style="fill:#ffffff;"/>
  </g>
  <g id="axes_1">
   <g id="patch_2">
    <path d="
M44.8687 378.691
L547.505 378.691
L547.505 20.7973
L44.8687 20.7973
z
" style="fill:#ffffff;"/>
   </g>
   <g id="line2d_1">
    <path clip-path="url(#p85e5f004fc)" d="
M45.7064 334.551
L47.3818 326.2
L49.0573 328.586
L50.7328 333.954
L52.4082 328.586
L54.0837 327.989
L55.7591 324.41
L57.4346 324.41
L59.11 318.446
L60.7855 322.621
L62.4609 322.621
L64.1364 314.27
L65.8119 321.428
L67.4873 313.674
L69.1628 319.042
L70.8382 317.849
L72.5137 316.06
L74.1891 313.077
L75.8646 306.516
L77.54 310.095
L79.2155 306.516
L80.891 310.095
L82.5664 310.095
L84.2419 298.165
L85.9173 307.112
L87.5928 304.726
L89.2682 299.358
L90.9437 295.182
L92.6191 300.551
L94.2946 296.375
L95.97 300.551
L97.6455 298.165
L99.321 293.989
L100.996 297.568
L102.672 298.165
L104.347 296.972
L106.023 298.165
L107.698 291.604
L109.374 292.2
L111.049 286.235
L112.725 282.656
L114.4 286.235
L116.076 291.007
L117.751 279.077
L119.426 281.463
L121.102 275.498
L122.777 283.849
L124.453 288.025
L126.128 281.463
L127.804 283.849
L129.479 276.691
L131.155 282.06
L132.83 277.288
L134.506 283.849
L136.181 278.481
L137.856 282.656
L139.532 276.691
L141.207 277.884
L142.883 273.709
L144.558 279.674
L146.234 272.516
L147.909 273.709
L149.585 278.481
L151.26 284.446
L152.936 268.34
L154.611 274.305
L156.286 278.481
L157.962 283.849
L159.637 279.077
L161.313 275.498
L162.988 272.516
L164.664 278.481
L166.339 273.112
L168.015 269.533
L169.69 277.884
L171.366 271.323
L173.041 275.498
L174.716 268.937
L176.392 267.147
L178.067 263.568
L179.743 266.551
L181.418 259.99
L183.094 260.586
L184.769 260.586
L186.445 259.393
L189.796 255.814
L191.471 254.621
L193.146 258.2
L194.822 255.218
L198.173 258.797
L199.848 250.446
L201.524 240.902
L203.199 252.832
L204.875 240.305
L206.55 248.656
L208.226 248.06
L209.901 252.832
L211.576 244.481
L213.252 244.481
L214.927 239.112
L216.603 239.709
L218.278 233.744
L219.954 226.586
L221.629 236.13
L223.305 232.551
L224.98 225.99
L226.656 231.358
L228.331 224.797
L230.006 225.393
L231.682 221.218
L233.357 222.411
L235.033 224.797
L236.708 219.428
L238.384 220.621
L240.059 220.025
L241.735 220.025
L243.41 212.867
L245.086 220.025
L246.761 214.06
L248.436 214.06
L250.112 214.656
L251.787 212.27
L253.463 201.534
L255.138 213.463
L256.814 211.077
L258.489 214.656
L260.165 211.077
L261.84 213.463
L263.516 205.709
L265.191 217.639
L266.866 216.446
L268.542 213.463
L270.217 208.691
L271.893 207.498
L273.568 209.288
L275.244 210.481
L276.919 202.13
L278.595 208.095
L280.27 210.481
L281.946 196.762
L283.621 201.534
L285.296 203.323
L286.972 214.656
L288.647 199.744
L290.323 182.446
L291.998 191.393
L293.674 172.902
L295.349 174.692
L297.025 183.639
L298.7 172.306
L300.376 171.113
L302.051 172.306
L303.726 168.13
L305.402 167.534
L307.077 171.709
L308.753 161.569
L310.428 171.709
L312.104 165.148
L313.779 159.779
L317.13 158.586
L318.806 166.341
L320.481 160.972
L322.157 160.972
L323.832 159.779
L325.507 155.007
L327.183 159.183
L328.858 152.025
L330.534 153.814
L332.209 150.832
L333.885 157.393
L335.56 146.657
L337.236 153.218
L338.911 147.253
L340.587 149.043
L342.262 144.867
L343.937 146.06
L345.613 149.043
L347.288 137.709
L348.964 141.885
L350.639 138.902
L352.315 131.148
L353.99 135.92
L355.666 134.727
L357.341 137.709
L359.017 135.323
L360.692 126.972
L362.367 132.341
L364.043 125.183
L365.718 130.551
L367.394 127.569
L369.069 131.148
L370.745 123.99
L372.42 120.411
L374.096 123.393
L375.771 116.236
L377.447 122.797
L379.122 126.376
L380.797 116.832
L382.473 125.779
L384.148 124.586
L385.824 125.779
L387.499 109.078
L389.175 113.85
L390.85 124.586
L392.526 123.99
L394.201 123.99
L395.877 113.253
L397.552 117.429
L399.227 104.902
L400.903 110.867
L402.578 103.709
L404.254 107.288
L405.929 97.1479
L407.605 106.692
L410.956 103.113
L412.631 103.709
L414.307 103.113
L415.982 101.92
L417.657 98.9374
L419.333 96.5514
L421.008 94.762
L422.684 95.3584
L424.359 91.7795
L426.035 78.6567
L427.71 87.6041
L429.386 87.6041
L431.061 89.3936
L432.737 81.0427
L434.412 100.727
L436.087 88.7971
L437.763 91.7795
L439.438 84.6216
L441.114 84.0251
L442.789 84.0251
L444.465 77.4638
L446.14 67.9199
L447.816 76.2708
L449.491 80.4462
L451.167 96.5514
L452.842 71.4989
L454.517 92.376
L456.193 85.8146
L457.868 82.2357
L459.544 90.5865
L461.219 84.0251
L462.895 91.7795
L464.57 88.7971
L464.57 88.7971" style="fill:none;stroke:#0000ff;stroke-linecap:square;stroke-width:2;"/>
   </g>
   <g id="line2d_2">
    <path clip-path="url(#p85e5f004fc)" d="
M45.7064 359.603
L47.3818 335.147
L49.0573 337.533
L50.7328 353.638
L52.4082 339.323
L54.0837 335.744
L55.7591 344.095
L57.4346 343.498
L59.11 315.463
L60.7855 336.34
L62.4609 341.112
L64.1364 329.779
L65.8119 327.393
L67.4873 327.393
L69.1628 327.989
L70.8382 333.954
L72.5137 341.709
L74.1891 327.393
L75.8646 311.884
L77.54 321.428
L79.2155 299.358
L80.891 323.217
L82.5664 316.656
L84.2419 325.007
L85.9173 313.674
L87.5928 332.761
L89.2682 337.533
L90.9437 337.533
L92.6191 315.463
L94.2946 326.796
L97.6455 308.902
L99.321 319.042
L100.996 316.06
L102.672 348.27
L104.347 316.06
L106.023 314.27
L107.698 334.551
L109.374 316.656
L111.049 321.428
L112.725 317.253
L114.4 304.13
L116.076 348.27
L117.751 308.902
L119.426 333.358
L121.102 305.323
L122.777 308.902
L124.453 308.902
L126.128 303.533
L127.804 314.27
L129.479 317.253
L131.155 326.796
L132.83 324.41
L134.506 319.042
L136.181 325.007
L137.856 335.744
L139.532 320.235
L141.207 327.393
L142.883 319.042
L144.558 316.656
L146.234 338.726
L147.909 330.375
L149.585 320.235
L151.26 342.305
L152.936 299.358
L154.611 325.007
L157.962 347.077
L159.637 338.13
L161.313 314.27
L162.988 316.06
L164.664 331.568
L166.339 326.796
L168.015 317.253
L169.69 342.305
L171.366 305.323
L173.041 325.007
L174.716 331.568
L176.392 317.253
L178.067 318.446
L179.743 326.2
L181.418 334.551
L183.094 313.077
L184.769 321.428
L186.445 327.393
L188.12 323.217
L189.796 320.831
L191.471 311.884
L193.146 317.849
L194.822 305.323
L196.497 324.41
L198.173 303.533
L199.848 290.411
L201.524 298.165
L203.199 323.217
L204.875 310.095
L206.55 303.533
L208.226 294.586
L209.901 326.2
L211.576 297.568
L213.252 302.34
L214.927 298.761
L216.603 292.796
L218.278 302.34
L219.954 295.182
L221.629 302.34
L223.305 301.744
L224.98 289.218
L226.656 297.568
L228.331 316.06
L230.006 310.095
L231.682 320.235
L233.357 293.989
L235.033 304.726
L236.708 307.709
L238.384 337.533
L240.059 313.674
L241.735 298.165
L243.41 310.095
L245.086 332.761
L246.761 341.709
L248.436 326.2
L250.112 336.34
L251.787 296.972
L253.463 299.954
L255.138 304.13
L256.814 315.463
L258.489 299.358
L260.165 290.411
L261.84 302.937
L265.191 320.235
L266.866 327.989
L268.542 348.27
L270.217 297.568
L271.893 300.551
L273.568 293.393
L275.244 295.779
L276.919 307.709
L278.595 294.586
L280.27 302.937
L281.946 279.674
L283.621 288.621
L285.296 271.919
L286.972 312.481
L288.647 289.218
L290.323 249.849
L291.998 267.744
L293.674 273.112
L295.349 268.34
L297.025 216.446
L298.7 323.217
L300.376 258.2
L302.051 266.551
L303.726 268.937
L305.402 293.393
L307.077 245.674
L308.753 250.446
L310.428 307.112
L312.104 228.972
L313.779 269.533
L315.455 228.376
L317.13 273.709
L318.806 295.779
L320.481 270.726
L322.157 283.253
L323.832 322.024
L325.507 323.814
L327.183 289.814
L328.858 295.182
L330.534 316.656
L332.209 256.411
L333.885 291.007
L335.56 328.586
L337.236 267.147
L338.911 281.463
L340.587 278.481
L342.262 282.06
L343.937 314.867
L345.613 324.41
L347.288 260.586
L348.964 269.533
L350.639 310.691
L352.315 297.568
L353.99 301.744
L355.666 319.042
L357.341 325.007
L359.017 336.937
L360.692 298.761
L362.367 340.516
L364.043 300.551
L365.718 296.972
L367.394 309.498
L369.069 323.217
L370.745 281.463
L372.42 292.796
L374.096 299.358
L375.771 295.779
L377.447 307.112
L379.122 305.323
L380.797 281.463
L382.473 295.779
L384.148 325.007
L385.824 302.937
L387.499 274.902
L389.175 283.253
L390.85 287.428
L392.526 326.2
L395.877 283.849
L397.552 325.007
L399.227 289.218
L400.903 299.954
L402.578 296.972
L404.254 282.656
L405.929 293.393
L407.605 287.428
L409.28 279.674
L410.956 269.533
L412.631 276.095
L414.307 281.463
L415.982 290.411
L417.657 279.077
L419.333 264.761
L421.008 286.832
L422.684 268.34
L424.359 252.235
L426.035 247.463
L427.71 267.147
L429.386 267.744
L431.061 282.656
L432.737 242.691
L434.412 273.112
L436.087 277.288
L437.763 262.376
L439.438 267.147
L441.114 254.621
L442.789 264.165
L444.465 288.025
L446.14 234.937
L447.816 252.235
L449.491 230.165
L451.167 262.972
L452.842 250.446
L454.517 267.147
L456.193 261.183
L457.868 218.235
L459.544 294.586
L461.219 257.007
L462.895 236.13
L464.57 289.814
L464.57 289.814" style="fill:none;stroke:#ff0000;stroke-linecap:square;stroke-width:2;"/>
   </g>
   <g id="matplotlib.axis_1">
    <g id="xtick_1">
     <g id="line2d_3">
      <defs>
       <path d="
M0 0
L0 -4" id="m93b0483c22" style="stroke:#000000;stroke-width:0.5;"/>
      </defs>
      <g>
       <use style="stroke:#000000;stroke-width:0.5;" x="44.868663435" xlink:href="#m93b0483c22" y="378.69097559"/>
      </g>
     </g>
     <g id="line2d_4">
      <defs>
       <path d="
M0 0
L0 4" id="m741efc42ff" style="stroke:#000000;stroke-width:0.5;"/>
      </defs>
      <g>
       <use style="stroke:#000000;stroke-width:0.5;" x="44.868663435" xlink:href="#m741efc42ff" y="20.7972561026"/>
      </g>
     </g>
     <g id="text_1">
      <!-- $1000$ -->
      <defs>
       <path d="
M26.5938 63.3125
C26.5938 65.4062 26.5 65.5 25.0938 65.5
C21.2031 61.1875 15.2969 59.7969 9.70312 59.7969
C9.40625 59.7969 8.90625 59.7969 8.79688 59.5
C8.70312 59.2969 8.70312 59.0938 8.70312 57
C11.7969 57 17 57.5938 21 59.9844
L21 7.20312
C21 3.6875 20.7969 2.5 12.2031 2.5
L9.20312 2.5
L9.20312 0
C14 0 19 0 23.7969 0
C28.5938 0 33.5938 0 38.4062 0
L38.4062 2.5
L35.4062 2.5
C26.7969 2.5 26.5938 3.59375 26.5938 7.15625
z
" id="CMR17-49"/>
       <path d="
M42 31.6406
C42 37.75 41.9062 48.125 37.7031 56.1094
C34 63.1094 28.0938 65.5938 22.9062 65.5938
C18.0938 65.5938 12 63.4062 8.20312 56.2031
C4.20312 48.7188 3.79688 39.4375 3.79688 31.6406
C3.79688 25.9531 3.90625 17.2812 7 9.67188
C11.2969 -0.609375 19 -2 22.9062 -2
C27.5 -2 34.5 -0.109375 38.5938 9.375
C41.5938 16.2812 42 24.3594 42 31.6406
M22.9062 -0.40625
C16.5 -0.40625 12.7031 5.07812 11.2969 12.6875
C10.2031 18.5625 10.2031 27.1562 10.2031 32.75
C10.2031 40.4375 10.2031 46.8281 11.5 52.9219
C13.4062 61.3906 19 64 22.9062 64
C27 64 32.2969 61.2969 34.2031 53.125
C35.5 47.4375 35.5938 40.7344 35.5938 32.75
C35.5938 26.25 35.5938 18.2656 34.4062 12.375
C32.2969 1.48438 26.4062 -0.40625 22.9062 -0.40625" id="CMR17-48"/>
      </defs>
      <g transform="translate(29.3339012152 394.758120038)scale(0.17 -0.17)">
       <use transform="scale(0.996264009963)" xlink:href="#CMR17-49"/>
       <use transform="translate(45.6904771171 0.0)scale(0.996264009963)" xlink:href="#CMR17-48"/>
       <use transform="translate(91.3809542341 0.0)scale(0.996264009963)" xlink:href="#CMR17-48"/>
       <use transform="translate(137.071431351 0.0)scale(0.996264009963)" xlink:href="#CMR17-48"/>
      </g>
     </g>
    </g>
    <g id="xtick_2">
     <g id="line2d_5">
      <g>
       <use style="stroke:#000000;stroke-width:0.5;" x="128.641425826" xlink:href="#m93b0483c22" y="378.69097559"/>
      </g>
     </g>
     <g id="line2d_6">
      <g>
       <use style="stroke:#000000;stroke-width:0.5;" x="128.641425826" xlink:href="#m741efc42ff" y="20.7972561026"/>
      </g>
     </g>
     <g id="text_2">
      <!-- $2000$ -->
      <defs>
       <path d="
M41.7031 15.4531
L39.9062 15.4531
C38.9062 8.375 38.0938 7.17188 37.7031 6.5625
C37.2031 5.76562 30 5.76562 28.5938 5.76562
L9.40625 5.76562
C13 9.67188 20 16.75 28.5 24.9531
C34.5938 30.7344 41.7031 37.5312 41.7031 47.4219
C41.7031 59.2188 32.2969 66 21.7969 66
C10.7969 66 4.09375 56.3125 4.09375 47.3438
C4.09375 43.4375 7 42.9375 8.20312 42.9375
C9.20312 42.9375 12.2031 43.5469 12.2031 47.0312
C12.2031 50.1094 9.59375 51 8.20312 51
C7.59375 51 7 50.9062 6.59375 50.7031
C8.5 59.2188 14.2969 63.4062 20.4062 63.4062
C29.0938 63.4062 34.7969 56.5156 34.7969 47.4219
C34.7969 38.7344 29.7031 31.25 24 24.75
L4.09375 2.28125
L4.09375 0
L39.2969 0
z
" id="CMR17-50"/>
      </defs>
      <g transform="translate(113.106663606 394.758120038)scale(0.17 -0.17)">
       <use transform="scale(0.996264009963)" xlink:href="#CMR17-50"/>
       <use transform="translate(45.6904771171 0.0)scale(0.996264009963)" xlink:href="#CMR17-48"/>
       <use transform="translate(91.3809542341 0.0)scale(0.996264009963)" xlink:href="#CMR17-48"/>
       <use transform="translate(137.071431351 0.0)scale(0.996264009963)" xlink:href="#CMR17-48"/>
      </g>
     </g>
    </g>
    <g id="xtick_3">
     <g id="line2d_7">
      <g>
       <use style="stroke:#000000;stroke-width:0.5;" x="212.414188217" xlink:href="#m93b0483c22" y="378.69097559"/>
      </g>
     </g>
     <g id="line2d_8">
      <g>
       <use style="stroke:#000000;stroke-width:0.5;" x="212.414188217" xlink:href="#m741efc42ff" y="20.7972561026"/>
      </g>
     </g>
     <g id="text_3">
      <!-- $3000$ -->
      <defs>
       <path d="
M22.0938 33.7031
C31 33.7031 34.9062 25.9688 34.9062 17.0312
C34.9062 5 28.5 0.390625 22.7031 0.390625
C17.4062 0.390625 8.79688 3.03125 6.09375 10.8281
C6.59375 10.625 7.09375 10.625 7.59375 10.625
C10 10.625 11.7969 12.2188 11.7969 14.8125
C11.7969 17.7031 9.59375 19 7.59375 19
C5.90625 19 3.29688 18.2031 3.29688 14.4688
C3.29688 5.23438 12.2969 -2 22.9062 -2
C34 -2 42.5 6.71875 42.5 16.9531
C42.5 26.6719 34.5 33.6875 25 34.7969
C32.5938 36.375 39.9062 43.0625 39.9062 52.0156
C39.9062 59.6875 32 65.2969 23 65.2969
C13.9062 65.2969 5.90625 59.8281 5.90625 52.0156
C5.90625 48.5938 8.5 48 9.79688 48
C11.9062 48 13.7031 49.2969 13.7031 51.8906
C13.7031 54.4688 11.9062 55.7656 9.79688 55.7656
C9.40625 55.7656 8.90625 55.7656 8.5 55.5625
C11.4062 61.8594 19.2969 63 22.7969 63
C26.2969 63 32.9062 61.3281 32.9062 51.875
C32.9062 49.1094 32.5 44.1875 29.0938 39.8438
C26.0938 36 22.7031 36 19.4062 35.5938
C18.9062 35.5938 16.5938 35.5938 16.2031 35.5938
C15.5 35.4844 15.0938 35.3906 15.0938 34.5938
C15.0938 33.8125 15.2031 33.7031 17.2031 33.7031
z
" id="CMR17-51"/>
      </defs>
      <g transform="translate(196.879425997 394.758120038)scale(0.17 -0.17)">
       <use transform="scale(0.996264009963)" xlink:href="#CMR17-51"/>
       <use transform="translate(45.6904771171 0.0)scale(0.996264009963)" xlink:href="#CMR17-48"/>
       <use transform="translate(91.3809542341 0.0)scale(0.996264009963)" xlink:href="#CMR17-48"/>
       <use transform="translate(137.071431351 0.0)scale(0.996264009963)" xlink:href="#CMR17-48"/>
      </g>
     </g>
    </g>
    <g id="xtick_4">
     <g id="line2d_9">
      <g>
       <use style="stroke:#000000;stroke-width:0.5;" x="296.186950608" xlink:href="#m93b0483c22" y="378.69097559"/>
      </g>
     </g>
     <g id="line2d_10">
      <g>
       <use style="stroke:#000000;stroke-width:0.5;" x="296.186950608" xlink:href="#m741efc42ff" y="20.7972561026"/>
      </g>
     </g>
     <g id="text_4">
      <!-- $4000$ -->
      <defs>
       <path d="
M33.5938 64.3281
C33.5938 66.4062 33.5 66.5 31.7031 66.5
L2 19.5938
L2 17
L27.7969 17
L27.7969 7.14062
C27.7969 3.5 27.5938 2.5 20.5938 2.5
L18.7031 2.5
L18.7031 0
C21.9062 0 27.2969 0 30.7031 0
C34.0938 0 39.5 0 42.7031 0
L42.7031 2.5
L40.7969 2.5
C33.7969 2.5 33.5938 3.5 33.5938 7.14062
L33.5938 17
L43.7969 17
L43.7969 19.5938
L33.5938 19.5938
z

M28.0938 57.7656
L28.0938 19.5938
L4 19.5938
z
" id="CMR17-52"/>
      </defs>
      <g transform="translate(280.652188388 394.758120038)scale(0.17 -0.17)">
       <use transform="scale(0.996264009963)" xlink:href="#CMR17-52"/>
       <use transform="translate(45.6904771171 0.0)scale(0.996264009963)" xlink:href="#CMR17-48"/>
       <use transform="translate(91.3809542341 0.0)scale(0.996264009963)" xlink:href="#CMR17-48"/>
       <use transform="translate(137.071431351 0.0)scale(0.996264009963)" xlink:href="#CMR17-48"/>
      </g>
     </g>
    </g>
    <g id="xtick_5">
     <g id="line2d_11">
      <g>
       <use style="stroke:#000000;stroke-width:0.5;" x="379.959712998" xlink:href="#m93b0483c22" y="378.69097559"/>
      </g>
     </g>
     <g id="line2d_12">
      <g>
       <use style="stroke:#000000;stroke-width:0.5;" x="379.959712998" xlink:href="#m741efc42ff" y="20.7972561026"/>
      </g>
     </g>
     <g id="text_5">
      <!-- $5000$ -->
      <defs>
       <path d="
M11.4062 57.6875
C12.4062 57.2812 16.5 56 20.7031 56
C30 56 35.0938 61.0156 38 63.9219
C38 64.7344 38 65.25 37.4062 65.25
C37.2969 65.25 37.0938 65.25 36.2969 64.8281
C32.7969 63.3125 28.7031 62.0781 23.7031 62.0781
C20.7031 62.0781 16.2031 62.5 11.2969 64.7344
C10.2031 65.25 10 65.25 9.90625 65.25
C9.40625 65.25 9.29688 65.1406 9.29688 63.1562
L9.29688 34.2812
C9.29688 32.5 9.29688 32 10.2969 32
C10.7969 32 11 32.2031 11.5 32.9062
C14.7031 37.4844 19.0938 39.4062 24.0938 39.4062
C27.5938 39.4062 35.0938 37.2188 35.0938 20.1406
C35.0938 16.9531 35.0938 11.1719 32.0938 6.57812
C29.5938 2.48438 25.7031 0.390625 21.4062 0.390625
C14.7969 0.390625 8.09375 5 6.29688 12.7188
C6.70312 12.6094 7.5 12.4219 7.90625 12.4219
C9.20312 12.4219 11.7031 13.125 11.7031 16.2188
C11.7031 18.9062 9.79688 20 7.90625 20
C5.59375 20 4.09375 18.5938 4.09375 15.7969
C4.09375 7.09375 11 -2 21.5938 -2
C31.9062 -2 41.7031 6.875 41.7031 19.75
C41.7031 31.7188 33.9062 41 24.2031 41
C19.0938 41 14.7969 39.0938 11.4062 35.4531
z
" id="CMR17-53"/>
      </defs>
      <g transform="translate(364.424950779 394.758120038)scale(0.17 -0.17)">
       <use transform="scale(0.996264009963)" xlink:href="#CMR17-53"/>
       <use transform="translate(45.6904771171 0.0)scale(0.996264009963)" xlink:href="#CMR17-48"/>
       <use transform="translate(91.3809542341 0.0)scale(0.996264009963)" xlink:href="#CMR17-48"/>
       <use transform="translate(137.071431351 0.0)scale(0.996264009963)" xlink:href="#CMR17-48"/>
      </g>
     </g>
    </g>
    <g id="xtick_6">
     <g id="line2d_13">
      <g>
       <use style="stroke:#000000;stroke-width:0.5;" x="463.732475389" xlink:href="#m93b0483c22" y="378.69097559"/>
      </g>
     </g>
     <g id="line2d_14">
      <g>
       <use style="stroke:#000000;stroke-width:0.5;" x="463.732475389" xlink:href="#m741efc42ff" y="20.7972561026"/>
      </g>
     </g>
     <g id="text_6">
      <!-- $6000$ -->
      <defs>
       <path d="
M10.5938 34
C10.5938 57.6562 21.7969 63 28.2969 63
C30.4062 63 35.5 62.6406 37.5 59
C35.9062 59 32.9062 59 32.9062 55.5156
C32.9062 52.8281 35.0938 51.9219 36.5 51.9219
C37.4062 51.9219 40.0938 52.3125 40.0938 55.625
C40.0938 61.7812 35.0938 65.2969 28.2031 65.2969
C16.2969 65.2969 3.79688 52.9688 3.79688 31
C3.79688 3.95312 15.0938 -2 23.0938 -2
C32.7969 -2 42 6.67188 42 20.0469
C42 32.5156 33.9062 41.5938 23.7031 41.5938
C17.5938 41.5938 13.0938 37.6094 10.5938 30.625
z

M23.0938 0.390625
C10.7969 0.390625 10.7969 18.75 10.7969 22.4375
C10.7969 29.625 14.2031 40 23.5 40
C25.2031 40 30.0938 40 33.4062 33.125
C35.2031 29.2188 35.2031 25.1406 35.2031 20.1406
C35.2031 14.75 35.2031 10.7812 33.0938 6.78125
C30.9062 2.67188 27.7031 0.390625 23.0938 0.390625" id="CMR17-54"/>
      </defs>
      <g transform="translate(448.19771317 394.758120038)scale(0.17 -0.17)">
       <use transform="scale(0.996264009963)" xlink:href="#CMR17-54"/>
       <use transform="translate(45.6904771171 0.0)scale(0.996264009963)" xlink:href="#CMR17-48"/>
       <use transform="translate(91.3809542341 0.0)scale(0.996264009963)" xlink:href="#CMR17-48"/>
       <use transform="translate(137.071431351 0.0)scale(0.996264009963)" xlink:href="#CMR17-48"/>
      </g>
     </g>
    </g>
    <g id="xtick_7">
     <g id="line2d_15">
      <g>
       <use style="stroke:#000000;stroke-width:0.5;" x="547.50523778" xlink:href="#m93b0483c22" y="378.69097559"/>
      </g>
     </g>
     <g id="line2d_16">
      <g>
       <use style="stroke:#000000;stroke-width:0.5;" x="547.50523778" xlink:href="#m741efc42ff" y="20.7972561026"/>
      </g>
     </g>
     <g id="text_7">
      <!-- $7000$ -->
      <defs>
       <path d="
M45.0938 61.5781
L45.0938 63.7656
L21.5938 63.7656
C9.90625 63.7656 9.70312 65.0781 9.29688 67
L7.5 67
L4.59375 48.3438
L6.40625 48.3438
C6.70312 50.2344 7.40625 55.3125 8.59375 57.2031
C9.20312 58 16.5938 58 18.2969 58
L40.2969 58
L29.2031 41.5781
C21.7969 30.5312 16.7031 15.6094 16.7031 2.57812
C16.7031 1.39062 16.7031 -2 20.2969 -2
C23.9062 -2 23.9062 1.39062 23.9062 2.67188
L23.9062 7.26562
C23.9062 23.5625 26.7031 34.3125 31.2969 41.1875
z
" id="CMR17-55"/>
      </defs>
      <g transform="translate(531.97047556 394.758120038)scale(0.17 -0.17)">
       <use transform="scale(0.996264009963)" xlink:href="#CMR17-55"/>
       <use transform="translate(45.6904771171 0.0)scale(0.996264009963)" xlink:href="#CMR17-48"/>
       <use transform="translate(91.3809542341 0.0)scale(0.996264009963)" xlink:href="#CMR17-48"/>
       <use transform="translate(137.071431351 0.0)scale(0.996264009963)" xlink:href="#CMR17-48"/>
      </g>
     </g>
    </g>
    <g id="text_8">
     <!-- Time [generations] -->
     <defs>
      <path d="
M25 73
L6.40625 73
L6.40625 -21.2031
L25 -21.2031
L25 -14
L14.7031 -14
L14.7031 65.7812
L25 65.7812
z
" id="Nimbus_Sans_L_Regular-91"/>
      <path d="
M27.2031 54
C12.5 54 3.59375 43.5312 3.59375 26
C3.59375 8.45312 12.4062 -2 27.2969 -2
C42 -2 51 8.45312 51 25.5938
C51 43.6406 42.2969 54 27.2031 54
M27.2969 46.2812
C36.7031 46.2812 42.2969 38.625 42.2969 25.7031
C42.2969 13.4531 36.5 5.70312 27.2969 5.70312
C18 5.70312 12.2969 13.3594 12.2969 26
C12.2969 38.5312 18 46.2812 27.2969 46.2812" id="Nimbus_Sans_L_Regular-111"/>
      <path d="
M53.5 5.20312
C52.5938 5 52.2031 5 51.7031 5
C48.7969 5 47.2031 6.48438 47.2031 9.07812
L47.2031 39.7656
C47.2031 49.0156 40.4062 54 27.5 54
C19.9062 54 13.5938 51.8125 10.0938 47.9062
C7.70312 45.2031 6.70312 42.2188 6.5 37.0312
L14.9062 37.0312
C15.5938 43.3906 19.4062 46.2812 27.2031 46.2812
C34.7031 46.2812 38.9062 43.4844 38.9062 38.5156
L38.9062 36.3281
C38.9062 32.8281 36.7969 31.3438 30.2031 30.5469
C18.4062 29.0625 16.5938 28.6562 13.4062 27.3594
C7.29688 24.875 4.20312 20.1875 4.20312 13.4219
C4.20312 3.96875 10.7969 -2 21.4062 -2
C28 -2 33.2969 0.296875 39.2031 5.70312
C39.7969 0.390625 42.4062 -2 47.7969 -2
C49.5 -2 50.7969 -1.8125 53.5 -1.09375
z

M38.9062 16.75
C38.9062 13.9531 38.0938 12.2656 35.5938 9.98438
C32.2031 6.89062 28.0938 5.3125 23.2031 5.3125
C16.7031 5.3125 12.9062 8.39062 12.9062 13.6562
C12.9062 19.1406 16.5938 21.9219 25.5 23.2188
C34.2969 24.4062 36.0938 24.8125 38.9062 26.0938
z
" id="Nimbus_Sans_L_Regular-97"/>
      <path d="
M25.4062 52.8125
L16.7969 52.8125
L16.7969 67
L8.5 67
L8.5 52.8125
L1.40625 52.8125
L1.40625 46
L8.5 46
L8.5 6.3125
C8.5 1 12.0938 -2 18.5938 -2
C20.5938 -2 22.5938 -1.8125 25.4062 -1.29688
L25.4062 5.71875
C24.2969 5.40625 23 5.3125 21.4062 5.3125
C17.7969 5.3125 16.7969 6.3125 16.7969 10.0156
L16.7969 46
L25.4062 46
z
" id="Nimbus_Sans_L_Regular-116"/>
      <path d="
M2.29688 -21.2031
L20.9062 -21.2031
L20.9062 73
L2.29688 73
L2.29688 65.7812
L12.5938 65.7812
L12.5938 -14
L2.29688 -14
z
" id="Nimbus_Sans_L_Regular-93"/>
      <path d="
M7 52.4844
L7 0
L15.4062 0
L15.4062 32.9531
C15.4062 40.5781 20.9062 46.6875 27.7031 46.6875
C33.9062 46.6875 37.4062 42.875 37.4062 36.1562
L37.4062 0
L45.7969 0
L45.7969 32.9531
C45.7969 40.5781 51.2969 46.6875 58.0938 46.6875
C64.2031 46.6875 67.7969 42.7812 67.7969 36.1562
L67.7969 0
L76.2031 0
L76.2031 39.375
C76.2031 48.7812 70.7969 54 61 54
C54 54 49.7969 51.8906 44.9062 45.9844
C41.7969 51.5938 37.5938 54 30.7969 54
C23.7969 54 19.2031 51.3906 14.7031 45.0781
L14.7031 52.4844
z
" id="Nimbus_Sans_L_Regular-109"/>
      <path d="
M6.90625 52.4844
L6.90625 0
L15.2969 0
L15.2969 27.25
C15.2969 34.7656 17.2031 39.6719 21.2031 42.5781
C23.7969 44.4844 26.2969 45.0781 32.0938 45.0781
L32.0938 53.7031
C30.7031 53.8906 30 54 28.9062 54
C23.5 54 19.4062 50.7812 14.5938 42.9688
L14.5938 52.4844
z
" id="Nimbus_Sans_L_Regular-114"/>
      <path d="
M15 52.4844
L6.70312 52.4844
L6.70312 0
L15 0
z

M15 73
L6.59375 73
L6.59375 62.4844
L15 62.4844
z
" id="Nimbus_Sans_L_Regular-105"/>
      <path d="
M7 52.4844
L7 0
L15.4062 0
L15.4062 28.9531
C15.4062 39.6719 21 46.6875 29.5938 46.6875
C36.2031 46.6875 40.4062 42.6719 40.4062 36.3594
L40.4062 0
L48.7031 0
L48.7031 39.6719
C48.7031 48.3906 42.2031 54 32.0938 54
C24.2969 54 19.2969 50.9844 14.7031 43.6875
L14.7031 52.4844
z
" id="Nimbus_Sans_L_Regular-110"/>
      <path d="
M35.4062 64.7812
L59.2969 64.7812
L59.2969 73
L2.09375 73
L2.09375 64.7812
L26.0938 64.7812
L26.0938 -0.21875
L35.4062 -0.21875
z
" id="Nimbus_Sans_L_Regular-84"/>
      <path d="
M51.2969 24
C51.2969 31.875 50.7031 36.5938 49.2031 40.4219
C45.7969 48.875 37.7969 54 28 54
C13.4062 54 4 42.8438 4 25.7031
C4 8.54688 13.0938 -2 27.7969 -2
C39.7969 -2 48.0938 4.875 50.2031 16.375
L41.7969 16.375
C39.5 9.35938 34.7969 5.70312 28.0938 5.70312
C22.7969 5.70312 18.2969 8.14062 15.5 12.6094
C13.5 15.6562 12.7969 18.7188 12.7031 24
z

M12.9062 30.8125
C13.5938 40.1875 19.5 46.2812 27.9062 46.2812
C36.0938 46.2812 42.4062 39.7031 42.4062 31.4062
C42.4062 31.2031 42.4062 31.0156 42.2969 30.8125
z
" id="Nimbus_Sans_L_Regular-101"/>
      <path d="
M41.2031 52.2031
L41.2031 44.5938
C37 50.8125 31.9062 53.7188 25.2031 53.7188
C11.9062 53.7188 2.90625 42.0625 2.90625 25
C2.90625 16.375 5.20312 9.34375 9.5 4.3125
C13.4062 -0.109375 19 -2.70312 24.5 -2.70312
C31.0938 -2.70312 35.7031 0.09375 40.4062 6.70312
L40.4062 4.03125
C40.4062 -3 39.5 -7.26562 37.4062 -10.1406
C35.2031 -13.1875 30.9062 -14.9844 25.7969 -14.9844
C22 -14.9844 18.5938 -14 16.2969 -12.2344
C14.4062 -10.75 13.5938 -9.375 13.0938 -6.34375
L4.59375 -6.34375
C5.5 -16.1406 13.2031 -22 25.5 -22
C33.2969 -22 40 -19.4844 43.4062 -15.2969
C47.4062 -10.4844 48.9062 -3.89062 48.9062 8.40625
L48.9062 52.2031
z

M26.0938 46
C35.0938 46 40.4062 38.375 40.4062 25.2031
C40.4062 12.625 35 5 26.2031 5
C17.0938 5 11.5938 12.75 11.5938 25.5
C11.5938 38.1562 17.2031 46 26.0938 46" id="Nimbus_Sans_L_Regular-103"/>
      <path d="
M43.7969 37.9219
C43.7031 48.2031 36.9062 54 24.7969 54
C12.5938 54 4.70312 47.7188 4.70312 38.0625
C4.70312 29.8906 8.90625 26.0156 21.2969 23.0312
L29.0938 21.1406
C34.9062 19.7344 37.2031 17.6562 37.2031 13.875
C37.2031 9 32.2969 5.70312 25 5.70312
C20.5 5.70312 16.7031 7 14.5938 9.1875
C13.2969 10.6875 12.7031 12.1719 12.2031 15.8438
L3.40625 15.8438
C3.79688 3.76562 10.5938 -2 24.2969 -2
C37.5 -2 45.9062 4.45312 45.9062 14.5156
C45.9062 22.2812 41.5 26.5781 31.0938 29.0625
L23.0938 30.9531
C16.2969 32.5312 13.4062 34.7344 13.4062 38.4062
C13.4062 43.1875 17.7031 46.2812 24.5 46.2812
C31.2031 46.2812 34.7969 43.3906 35 37.9219
z
" id="Nimbus_Sans_L_Regular-115"/>
     </defs>
     <g transform="translate(226.147010965 415.432632243)scale(0.17 -0.17)">
      <use transform="scale(0.996264009963)" xlink:href="#Nimbus_Sans_L_Regular-84"/>
      <use transform="translate(60.871630677 0.0)scale(0.996264009963)" xlink:href="#Nimbus_Sans_L_Regular-105"/>
      <use transform="translate(82.9884150257 0.0)scale(0.996264009963)" xlink:href="#Nimbus_Sans_L_Regular-109"/>
      <use transform="translate(165.976845253 0.0)scale(0.996264009963)" xlink:href="#Nimbus_Sans_L_Regular-101"/>
      <use transform="translate(249.06369182 0.0)scale(0.996264009963)" xlink:href="#Nimbus_Sans_L_Regular-91"/>
      <use transform="translate(276.758861423 0.0)scale(0.996264009963)" xlink:href="#Nimbus_Sans_L_Regular-103"/>
      <use transform="translate(332.150538386 0.0)scale(0.996264009963)" xlink:href="#Nimbus_Sans_L_Regular-101"/>
      <use transform="translate(387.54221535 0.0)scale(0.996264009963)" xlink:href="#Nimbus_Sans_L_Regular-110"/>
      <use transform="translate(442.933892313 0.0)scale(0.996264009963)" xlink:href="#Nimbus_Sans_L_Regular-101"/>
      <use transform="translate(498.325569276 0.0)scale(0.996264009963)" xlink:href="#Nimbus_Sans_L_Regular-114"/>
      <use transform="translate(530.504702215 0.0)scale(0.996264009963)" xlink:href="#Nimbus_Sans_L_Regular-97"/>
      <use transform="translate(585.896379179 0.0)scale(0.996264009963)" xlink:href="#Nimbus_Sans_L_Regular-116"/>
      <use transform="translate(613.591548782 0.0)scale(0.996264009963)" xlink:href="#Nimbus_Sans_L_Regular-105"/>
      <use transform="translate(635.708333131 0.0)scale(0.996264009963)" xlink:href="#Nimbus_Sans_L_Regular-111"/>
      <use transform="translate(691.100010094 0.0)scale(0.996264009963)" xlink:href="#Nimbus_Sans_L_Regular-110"/>
      <use transform="translate(746.491687057 0.0)scale(0.996264009963)" xlink:href="#Nimbus_Sans_L_Regular-115"/>
      <use transform="translate(796.304887555 0.0)scale(0.996264009963)" xlink:href="#Nimbus_Sans_L_Regular-93"/>
     </g>
    </g>
   </g>
   <g id="matplotlib.axis_2">
    <g id="ytick_1">
     <g id="line2d_17">
      <defs>
       <path d="
M0 0
L4 0" id="m728421d6d4" style="stroke:#000000;stroke-width:0.5;"/>
      </defs>
      <g>
       <use style="stroke:#000000;stroke-width:0.5;" x="44.868663435" xlink:href="#m728421d6d4" y="378.69097559"/>
      </g>
     </g>
     <g id="line2d_18">
      <defs>
       <path d="
M0 0
L-4 0" id="mcb0005524f" style="stroke:#000000;stroke-width:0.5;"/>
      </defs>
      <g>
       <use style="stroke:#000000;stroke-width:0.5;" x="547.50523778" xlink:href="#mcb0005524f" y="378.69097559"/>
      </g>
     </g>
     <g id="text_9">
      <!-- $0.00$ -->
      <defs>
       <path d="
M18.4062 4.79688
C18.4062 7.6875 16 9.67188 13.5938 9.67188
C10.7031 9.67188 8.70312 7.28125 8.70312 4.89062
C8.70312 2 11.0938 0 13.5 0
C16.4062 0 18.4062 2.39062 18.4062 4.79688" id="CMMI12-58"/>
      </defs>
      <g transform="translate(12.96 382.920863936)scale(0.17 -0.17)">
       <use transform="scale(0.996264009963)" xlink:href="#CMR17-48"/>
       <use transform="translate(45.6904771171 0.0)scale(0.996264009963)" xlink:href="#CMMI12-58"/>
       <use transform="translate(72.7876542069 0.0)scale(0.996264009963)" xlink:href="#CMR17-48"/>
       <use transform="translate(118.478131324 0.0)scale(0.996264009963)" xlink:href="#CMR17-48"/>
      </g>
     </g>
    </g>
    <g id="ytick_2">
     <g id="line2d_19">
      <g>
       <use style="stroke:#000000;stroke-width:0.5;" x="44.868663435" xlink:href="#m728421d6d4" y="319.042022342"/>
      </g>
     </g>
     <g id="line2d_20">
      <g>
       <use style="stroke:#000000;stroke-width:0.5;" x="547.50523778" xlink:href="#mcb0005524f" y="319.042022342"/>
      </g>
     </g>
     <g id="text_10">
      <!-- $0.01$ -->
      <g transform="translate(12.96 323.271910688)scale(0.17 -0.17)">
       <use transform="scale(0.996264009963)" xlink:href="#CMR17-48"/>
       <use transform="translate(45.6904771171 0.0)scale(0.996264009963)" xlink:href="#CMMI12-58"/>
       <use transform="translate(72.7876542069 0.0)scale(0.996264009963)" xlink:href="#CMR17-48"/>
       <use transform="translate(118.478131324 0.0)scale(0.996264009963)" xlink:href="#CMR17-49"/>
      </g>
     </g>
    </g>
    <g id="ytick_3">
     <g id="line2d_21">
      <g>
       <use style="stroke:#000000;stroke-width:0.5;" x="44.868663435" xlink:href="#m728421d6d4" y="259.393069094"/>
      </g>
     </g>
     <g id="line2d_22">
      <g>
       <use style="stroke:#000000;stroke-width:0.5;" x="547.50523778" xlink:href="#mcb0005524f" y="259.393069094"/>
      </g>
     </g>
     <g id="text_11">
      <!-- $0.02$ -->
      <g transform="translate(12.96 263.62295744)scale(0.17 -0.17)">
       <use transform="scale(0.996264009963)" xlink:href="#CMR17-48"/>
       <use transform="translate(45.6904771171 0.0)scale(0.996264009963)" xlink:href="#CMMI12-58"/>
       <use transform="translate(72.7876542069 0.0)scale(0.996264009963)" xlink:href="#CMR17-48"/>
       <use transform="translate(118.478131324 0.0)scale(0.996264009963)" xlink:href="#CMR17-50"/>
      </g>
     </g>
    </g>
    <g id="ytick_4">
     <g id="line2d_23">
      <g>
       <use style="stroke:#000000;stroke-width:0.5;" x="44.868663435" xlink:href="#m728421d6d4" y="199.744115846"/>
      </g>
     </g>
     <g id="line2d_24">
      <g>
       <use style="stroke:#000000;stroke-width:0.5;" x="547.50523778" xlink:href="#mcb0005524f" y="199.744115846"/>
      </g>
     </g>
     <g id="text_12">
      <!-- $0.03$ -->
      <g transform="translate(12.96 203.974004192)scale(0.17 -0.17)">
       <use transform="scale(0.996264009963)" xlink:href="#CMR17-48"/>
       <use transform="translate(45.6904771171 0.0)scale(0.996264009963)" xlink:href="#CMMI12-58"/>
       <use transform="translate(72.7876542069 0.0)scale(0.996264009963)" xlink:href="#CMR17-48"/>
       <use transform="translate(118.478131324 0.0)scale(0.996264009963)" xlink:href="#CMR17-51"/>
      </g>
     </g>
    </g>
    <g id="ytick_5">
     <g id="line2d_25">
      <g>
       <use style="stroke:#000000;stroke-width:0.5;" x="44.868663435" xlink:href="#m728421d6d4" y="140.095162598"/>
      </g>
     </g>
     <g id="line2d_26">
      <g>
       <use style="stroke:#000000;stroke-width:0.5;" x="547.50523778" xlink:href="#mcb0005524f" y="140.095162598"/>
      </g>
     </g>
     <g id="text_13">
      <!-- $0.04$ -->
      <g transform="translate(12.96 144.325050944)scale(0.17 -0.17)">
       <use transform="scale(0.996264009963)" xlink:href="#CMR17-48"/>
       <use transform="translate(45.6904771171 0.0)scale(0.996264009963)" xlink:href="#CMMI12-58"/>
       <use transform="translate(72.7876542069 0.0)scale(0.996264009963)" xlink:href="#CMR17-48"/>
       <use transform="translate(118.478131324 0.0)scale(0.996264009963)" xlink:href="#CMR17-52"/>
      </g>
     </g>
    </g>
    <g id="ytick_6">
     <g id="line2d_27">
      <g>
       <use style="stroke:#000000;stroke-width:0.5;" x="44.868663435" xlink:href="#m728421d6d4" y="80.4462093504"/>
      </g>
     </g>
     <g id="line2d_28">
      <g>
       <use style="stroke:#000000;stroke-width:0.5;" x="547.50523778" xlink:href="#mcb0005524f" y="80.4462093504"/>
      </g>
     </g>
     <g id="text_14">
      <!-- $0.05$ -->
      <g transform="translate(12.96 84.6760976964)scale(0.17 -0.17)">
       <use transform="scale(0.996264009963)" xlink:href="#CMR17-48"/>
       <use transform="translate(45.6904771171 0.0)scale(0.996264009963)" xlink:href="#CMMI12-58"/>
       <use transform="translate(72.7876542069 0.0)scale(0.996264009963)" xlink:href="#CMR17-48"/>
       <use transform="translate(118.478131324 0.0)scale(0.996264009963)" xlink:href="#CMR17-53"/>
      </g>
     </g>
    </g>
    <g id="ytick_7">
     <g id="line2d_29">
      <g>
       <use style="stroke:#000000;stroke-width:0.5;" x="44.868663435" xlink:href="#m728421d6d4" y="20.7972561026"/>
      </g>
     </g>
     <g id="line2d_30">
      <g>
       <use style="stroke:#000000;stroke-width:0.5;" x="547.50523778" xlink:href="#mcb0005524f" y="20.7972561026"/>
      </g>
     </g>
     <g id="text_15">
      <!-- $0.06$ -->
      <g transform="translate(12.96 25.0271444486)scale(0.17 -0.17)">
       <use transform="scale(0.996264009963)" xlink:href="#CMR17-48"/>
       <use transform="translate(45.6904771171 0.0)scale(0.996264009963)" xlink:href="#CMMI12-58"/>
       <use transform="translate(72.7876542069 0.0)scale(0.996264009963)" xlink:href="#CMR17-48"/>
       <use transform="translate(118.478131324 0.0)scale(0.996264009963)" xlink:href="#CMR17-54"/>
      </g>
     </g>
    </g>
   </g>
   <g id="patch_3">
    <path d="
M44.8687 20.7973
L547.505 20.7973" style="fill:none;stroke:#000000;"/>
   </g>
   <g id="patch_4">
    <path d="
M547.505 378.691
L547.505 20.7973" style="fill:none;stroke:#000000;"/>
   </g>
   <g id="patch_5">
    <path d="
M44.8687 378.691
L547.505 378.691" style="fill:none;stroke:#000000;"/>
   </g>
   <g id="patch_6">
    <path d="
M44.8687 378.691
L44.8687 20.7973" style="fill:none;stroke:#000000;"/>
   </g>
   <g id="legend_1">
    <g id="patch_7">
     <path d="
M53.3687 82.7463
L199.792 82.7463
L199.792 29.2973
L53.3687 29.2973
L53.3687 82.7463
z
" style="fill:#ffffff;stroke:#000000;"/>
    </g>
    <g id="line2d_31">
     <path d="
M65.2687 42.2144
L89.0687 42.2144" style="fill:none;stroke:#0000ff;stroke-linecap:square;stroke-width:2;"/>
    </g>
    <g id="line2d_32"/>
    <g id="text_16">
     <!-- Divergence -->
     <defs>
      <path d="
M8.90625 0
L37 0
C55.4062 0 66.7031 13.8281 66.7031 36.5469
C66.7031 59.1719 55.5 73 37 73
L8.90625 73
z

M18.2031 8.21875
L18.2031 64.7812
L35.4062 64.7812
C49.7969 64.7812 57.4062 55.0625 57.4062 36.4531
C57.4062 18.0312 49.7969 8.21875 35.4062 8.21875
z
" id="Nimbus_Sans_L_Regular-68"/>
      <path d="
M28.5 0
L48.5938 52.5
L39.2031 52.5
L24.4062 9.92188
L10.4062 52.5
L1 52.5
L19.4062 0
z
" id="Nimbus_Sans_L_Regular-118"/>
      <path d="
M47.0938 34.9375
C46.7031 40.0312 45.5938 43.3281 43.5938 46.2188
C40 51.1094 33.7031 54 26.4062 54
C12.2969 54 3.09375 42.8438 3.09375 25.5
C3.09375 8.65625 12.0938 -2 26.2969 -2
C38.7969 -2 46.7031 5.46875 47.7031 18.2344
L39.2969 18.2344
C37.9062 9.875 33.5938 5.70312 26.5 5.70312
C17.2969 5.70312 11.7969 13.1719 11.7969 25.5
C11.7969 38.5312 17.2031 46.2812 26.2969 46.2812
C33.2969 46.2812 37.7031 42.2031 38.7031 34.9375
z
" id="Nimbus_Sans_L_Regular-99"/>
     </defs>
     <g transform="translate(107.768663435 48.1644005512)scale(0.17 -0.17)">
      <use transform="scale(0.996264009963)" xlink:href="#Nimbus_Sans_L_Regular-68"/>
      <use transform="translate(71.9299848469 0.0)scale(0.996264009963)" xlink:href="#Nimbus_Sans_L_Regular-105"/>
      <use transform="translate(94.0467691956 0.0)scale(0.996264009963)" xlink:href="#Nimbus_Sans_L_Regular-118"/>
      <use transform="translate(141.369340072 0.0)scale(0.996264009963)" xlink:href="#Nimbus_Sans_L_Regular-101"/>
      <use transform="translate(196.761017036 0.0)scale(0.996264009963)" xlink:href="#Nimbus_Sans_L_Regular-114"/>
      <use transform="translate(229.936246765 0.0)scale(0.996264009963)" xlink:href="#Nimbus_Sans_L_Regular-103"/>
      <use transform="translate(285.327923728 0.0)scale(0.996264009963)" xlink:href="#Nimbus_Sans_L_Regular-101"/>
      <use transform="translate(340.719600692 0.0)scale(0.996264009963)" xlink:href="#Nimbus_Sans_L_Regular-110"/>
      <use transform="translate(396.111277655 0.0)scale(0.996264009963)" xlink:href="#Nimbus_Sans_L_Regular-99"/>
      <use transform="translate(445.924478153 0.0)scale(0.996264009963)" xlink:href="#Nimbus_Sans_L_Regular-101"/>
     </g>
    </g>
    <g id="line2d_33">
     <path d="
M65.2687 66.3889
L89.0687 66.3889" style="fill:none;stroke:#ff0000;stroke-linecap:square;stroke-width:2;"/>
    </g>
    <g id="line2d_34"/>
    <g id="text_17">
     <!-- Diversity -->
     <defs>
      <path d="
M38.7969 52.5
L24.2969 11.5312
L10.9062 52.5
L2 52.5
L19.7031 -0.328125
L16.5 -8.65625
C15.2031 -12.375 13.2969 -13.7812 9.79688 -13.7812
C8.59375 -13.7812 7.20312 -13.5781 5.40625 -13.1719
L5.40625 -20.7031
C7.09375 -21.5938 8.79688 -22 11 -22
C13.7031 -22 16.5938 -21.0938 18.7969 -19.4844
C21.4062 -17.5781 22.9062 -15.3594 24.5 -11.1406
L47.7969 52.5
z
" id="Nimbus_Sans_L_Regular-121"/>
     </defs>
     <g transform="translate(107.768663435 72.3389127564)scale(0.17 -0.17)">
      <use transform="scale(0.996264009963)" xlink:href="#Nimbus_Sans_L_Regular-68"/>
      <use transform="translate(71.9299848469 0.0)scale(0.996264009963)" xlink:href="#Nimbus_Sans_L_Regular-105"/>
      <use transform="translate(94.0467691956 0.0)scale(0.996264009963)" xlink:href="#Nimbus_Sans_L_Regular-118"/>
      <use transform="translate(141.369340072 0.0)scale(0.996264009963)" xlink:href="#Nimbus_Sans_L_Regular-101"/>
      <use transform="translate(196.761017036 0.0)scale(0.996264009963)" xlink:href="#Nimbus_Sans_L_Regular-114"/>
      <use transform="translate(229.936246765 0.0)scale(0.996264009963)" xlink:href="#Nimbus_Sans_L_Regular-115"/>
      <use transform="translate(279.749447263 0.0)scale(0.996264009963)" xlink:href="#Nimbus_Sans_L_Regular-105"/>
      <use transform="translate(301.866231612 0.0)scale(0.996264009963)" xlink:href="#Nimbus_Sans_L_Regular-116"/>
      <use transform="translate(329.561401215 0.0)scale(0.996264009963)" xlink:href="#Nimbus_Sans_L_Regular-121"/>
     </g>
    </g>
   </g>
  </g>
 </g>
 <defs>
  <clipPath id="p85e5f004fc">
   <rect height="357.893719487" width="502.636574345" x="44.868663435" y="20.7972561026"/>
  </clipPath>
 </defs>
</svg>
