<?xml version="1.0" encoding="utf-8" standalone="no"?>
<!DOCTYPE svg PUBLIC "-//W3C//DTD SVG 1.1//EN"
  "http://www.w3.org/Graphics/SVG/1.1/DTD/svg11.dtd">
<!-- Created with matplotlib (http://matplotlib.org/) -->
<svg height="432pt" version="1.1" viewBox="0 0 576 432" width="576pt" xmlns="http://www.w3.org/2000/svg" xmlns:xlink="http://www.w3.org/1999/xlink">
 <defs>
  <style type="text/css">
*{stroke-linecap:butt;stroke-linejoin:round;}
  </style>
 </defs>
 <g id="figure_1">
  <g id="patch_1">
   <path d="
M0 432
L576 432
L576 0
L0 0
z
" style="fill:#ffffff;"/>
  </g>
  <g id="axes_1">
   <g id="patch_2">
    <path d="
M52.636 378.691
L547.505 378.691
L547.505 20.7973
L52.636 20.7973
z
" style="fill:#ffffff;"/>
   </g>
   <g id="line2d_1">
    <path clip-path="url(#p962e812be7)" d="
M53.4608 302.639
L55.1104 298.165
L56.76 300.849
L58.4095 286.533
L60.0591 292.796
L61.7086 303.533
L63.3582 283.849
L65.0078 289.218
L66.6573 288.323
L68.3069 288.323
L69.9565 275.797
L71.606 282.06
L73.2556 271.323
L74.9052 268.639
L76.5547 276.691
L78.2043 274.007
L79.8539 268.639
L81.5034 274.007
L83.153 260.586
L84.8025 276.691
L86.4521 270.428
L88.1017 258.797
L89.7512 254.323
L91.4008 274.007
L93.0504 268.639
L94.6999 260.586
L96.3495 263.27
L97.9991 260.586
L99.6486 265.954
L101.298 254.323
L102.948 258.797
L104.597 258.797
L106.247 249.849
L107.896 259.691
L109.546 261.481
L111.196 257.902
L112.845 249.849
L114.495 257.902
L116.144 249.849
L117.794 255.218
L119.443 261.481
L121.093 259.691
L122.743 260.586
L124.392 241.797
L126.042 255.218
L127.691 248.955
L129.341 256.112
L130.99 246.27
L132.64 250.744
L134.289 248.06
L135.939 255.218
L137.589 248.955
L139.238 253.428
L140.888 245.376
L142.537 244.481
L144.187 254.323
L145.836 240.902
L147.486 241.797
L149.136 245.376
L150.785 248.06
L152.435 241.797
L154.084 247.165
L155.734 249.849
L157.383 240.902
L159.033 248.955
L160.682 246.27
L162.332 237.323
L163.982 255.218
L165.631 248.955
L167.281 240.007
L168.93 234.639
L170.58 248.06
L172.229 242.691
L173.879 251.639
L177.178 233.744
L180.477 237.323
L182.127 235.533
L183.776 239.112
L185.426 236.428
L187.076 231.06
L188.725 238.218
L190.375 231.06
L193.674 238.218
L195.323 237.323
L198.622 242.691
L200.272 240.902
L201.922 244.481
L203.571 244.481
L205.221 240.007
L206.87 236.428
L208.52 242.691
L210.169 227.481
L211.819 243.586
L213.469 233.744
L215.118 240.902
L216.768 228.376
L218.417 233.744
L220.067 235.533
L221.716 239.112
L223.366 235.533
L225.015 214.955
L226.665 223.007
L228.315 223.007
L229.964 231.06
L231.614 229.27
L233.263 222.112
L234.913 214.06
L236.562 224.797
L238.212 222.112
L239.862 206.902
L241.511 197.06
L243.161 206.007
L244.81 205.113
L248.109 212.27
L249.759 206.007
L251.409 208.691
L253.058 195.27
L254.708 190.797
L256.357 194.376
L258.007 195.27
L259.656 186.323
L261.306 175.586
L262.955 180.955
L264.605 179.165
L266.255 179.165
L267.904 180.955
L269.554 191.692
L271.203 181.849
L272.853 191.692
L274.502 177.376
L276.152 172.007
L277.802 189.902
L281.101 180.955
L282.75 185.428
L284.4 180.06
L286.049 181.849
L287.699 170.218
L289.348 174.692
L290.998 162.165
L292.648 171.113
L294.297 181.849
L295.947 179.165
L297.596 174.692
L299.246 171.113
L300.895 184.534
L302.545 172.902
L304.195 170.218
L305.844 188.113
L307.494 171.113
L309.143 180.06
L310.793 171.113
L312.442 166.639
L314.092 172.902
L315.741 176.481
L317.391 178.27
L319.041 170.218
L320.69 177.376
L322.34 179.165
L323.989 172.902
L325.639 175.586
L327.288 172.007
L328.938 167.534
L330.588 164.849
L332.237 174.692
L333.887 169.323
L335.536 175.586
L337.186 161.271
L338.835 171.113
L340.485 168.428
L342.135 155.007
L343.784 155.902
L345.434 150.534
L347.083 156.797
L348.733 153.218
L350.382 137.113
L352.032 142.481
L353.681 146.955
L355.331 138.007
L356.981 132.639
L358.63 138.902
L360.28 138.007
L361.929 134.429
L363.579 126.376
L365.228 131.744
L366.878 125.481
L368.528 128.165
L370.177 135.323
L371.827 128.165
L373.476 133.534
L375.126 130.85
L376.775 127.271
L378.425 117.429
L380.074 121.902
L381.724 122.797
L383.374 117.429
L385.023 120.113
L386.673 121.902
L388.322 117.429
L389.972 127.271
L391.621 119.218
L393.271 121.902
L394.921 119.218
L396.57 121.007
L398.22 120.113
L399.869 121.007
L401.519 127.271
L403.168 116.534
L404.818 113.85
L406.468 119.218
L408.117 110.271
L409.767 103.113
L411.416 96.8497
L413.066 96.8497
L414.715 99.5339
L416.365 95.9549
L418.014 107.586
L419.664 92.376
L421.314 87.9023
L422.963 87.9023
L424.613 78.0603
L426.262 81.6392
L427.912 93.2707
L429.561 81.6392
L431.211 83.4287
L432.861 86.1129
L434.51 85.2181
L436.16 79.8497
L437.809 84.3234
L439.459 89.6918
L441.108 79.8497
L442.758 84.3234
L444.407 67.3234
L446.057 64.6392
L447.707 61.0603
L449.356 64.6392
L451.006 65.534
L452.655 50.3235
L454.305 68.2182
L455.954 61.0603
L457.604 50.3235
L459.254 58.3761
L460.903 52.113
L464.202 50.3235
L465.852 55.6919
L465.852 55.6919" style="fill:none;stroke:#0000ff;stroke-linecap:square;stroke-width:2;"/>
   </g>
   <g id="line2d_2">
    <path clip-path="url(#p962e812be7)" d="
M53.4608 317.849
L55.1104 319.639
L56.76 295.481
L58.4095 286.533
L60.0591 294.586
L61.7086 306.217
L63.3582 319.639
L65.0078 302.639
L66.6573 288.323
L68.3069 290.112
L69.9565 316.06
L71.606 317.849
L73.2556 293.691
L74.9052 282.954
L76.5547 286.533
L78.2043 302.639
L79.8539 306.217
L81.5034 298.165
L83.153 317.849
L84.8025 313.375
L86.4521 325.007
L88.1017 309.796
L89.7512 301.744
L91.4008 362.586
L93.0504 322.323
L94.6999 299.954
L96.3495 326.796
L97.9991 316.06
L99.6486 319.639
L101.298 291.007
L102.948 325.007
L104.597 326.796
L106.247 298.165
L107.896 343.796
L109.546 325.007
L111.196 328.586
L112.845 334.849
L114.495 324.112
L116.144 316.954
L117.794 349.165
L119.443 324.112
L121.093 325.902
L122.743 336.638
L124.392 298.165
L126.042 323.217
L127.691 308.007
L129.341 310.691
L130.99 288.323
L132.64 313.375
L134.289 329.481
L137.589 281.165
L139.238 316.954
L140.888 299.06
L142.537 303.533
L144.187 315.165
L145.836 291.902
L147.486 314.27
L149.136 306.217
L150.785 315.165
L152.435 288.323
L154.084 318.744
L155.734 325.007
L157.383 301.744
L159.033 309.796
L160.682 305.323
L162.332 307.112
L163.982 326.796
L165.631 305.323
L167.281 294.586
L168.93 285.639
L170.58 302.639
L172.229 298.165
L173.879 324.112
L175.529 289.218
L177.178 285.639
L178.828 288.323
L180.477 297.27
L182.127 291.902
L183.776 291.007
L185.426 304.428
L187.076 294.586
L188.725 311.586
L190.375 287.428
L192.024 299.954
L193.674 307.112
L195.323 290.112
L196.973 321.428
L198.622 330.375
L200.272 316.954
L201.922 309.796
L203.571 313.375
L205.221 322.323
L206.87 292.796
L208.52 309.796
L210.169 290.112
L211.819 312.481
L213.469 318.744
L215.118 338.428
L216.768 312.481
L218.417 291.902
L220.067 316.954
L221.716 298.165
L223.366 313.375
L225.015 276.691
L226.665 278.481
L228.315 290.112
L229.964 309.796
L231.614 303.533
L233.263 282.06
L234.913 280.27
L236.562 294.586
L238.212 296.375
L239.862 274.007
L241.511 273.112
L243.161 320.533
L244.81 282.954
L246.46 318.744
L248.109 321.428
L249.759 304.428
L251.409 298.165
L253.058 307.112
L254.708 273.112
L256.357 325.007
L258.007 319.639
L259.656 312.481
L261.306 318.744
L262.955 335.744
L264.605 342.902
L266.255 324.112
L267.904 309.796
L269.554 333.954
L271.203 316.06
L272.853 345.586
L274.502 313.375
L276.152 317.849
L277.802 350.954
L279.451 341.112
L281.101 323.217
L282.75 333.954
L284.4 326.796
L286.049 336.638
L287.699 330.375
L289.348 307.112
L290.998 302.639
L292.648 304.428
L294.297 341.112
L295.947 326.796
L297.596 319.639
L299.246 299.06
L300.895 308.902
L302.545 314.27
L304.195 314.27
L305.844 345.586
L307.494 316.954
L309.143 324.112
L310.793 309.796
L312.442 310.691
L314.092 314.27
L315.741 344.691
L317.391 333.954
L319.041 324.112
L320.69 334.849
L322.34 332.165
L323.989 323.217
L325.639 332.165
L328.938 323.217
L330.588 317.849
L332.237 327.691
L333.887 322.323
L335.536 323.217
L337.186 292.796
L338.835 312.481
L340.485 308.902
L342.135 286.533
L343.784 305.323
L345.434 302.639
L347.083 333.954
L348.733 320.533
L350.382 314.27
L352.032 334.849
L353.681 315.165
L355.331 333.06
L356.981 320.533
L358.63 321.428
L360.28 318.744
L361.929 308.902
L363.579 307.112
L365.228 337.533
L366.878 325.007
L368.528 298.165
L370.177 326.796
L371.827 297.27
L373.476 341.112
L375.126 329.481
L376.775 339.323
L378.425 304.428
L380.074 307.112
L381.724 302.639
L383.374 321.428
L385.023 316.06
L386.673 303.533
L388.322 325.007
L389.972 334.849
L391.621 325.007
L393.271 323.217
L394.921 316.954
L396.57 318.744
L398.22 312.481
L399.869 309.796
L401.519 314.27
L403.168 291.007
L404.818 302.639
L406.468 326.796
L408.117 320.533
L409.767 297.27
L411.416 329.481
L413.066 331.27
L414.715 339.323
L416.365 333.06
L418.014 342.007
L419.664 308.902
L421.314 303.533
L422.963 307.112
L424.613 307.112
L426.262 308.007
L427.912 314.27
L429.561 289.218
L431.211 318.744
L432.861 322.323
L434.51 320.533
L436.16 303.533
L437.809 300.849
L439.459 319.639
L441.108 314.27
L442.758 304.428
L444.407 322.323
L446.057 327.691
L447.707 322.323
L449.356 320.533
L451.006 345.586
L452.655 295.481
L454.305 319.639
L455.954 323.217
L457.604 319.639
L459.254 318.744
L460.903 323.217
L462.553 306.217
L464.202 322.323
L465.852 312.481
L465.852 312.481" style="fill:none;stroke:#ff0000;stroke-linecap:square;stroke-width:2;"/>
   </g>
   <g id="matplotlib.axis_1">
    <g id="xtick_1">
     <g id="line2d_3">
      <defs>
       <path d="
M0 0
L0 -4" id="m93b0483c22" style="stroke:#000000;stroke-width:0.5;"/>
      </defs>
      <g>
       <use style="stroke:#000000;stroke-width:0.5;" x="52.6360445449" xlink:href="#m93b0483c22" y="378.69097559"/>
      </g>
     </g>
     <g id="line2d_4">
      <defs>
       <path d="
M0 0
L0 4" id="m741efc42ff" style="stroke:#000000;stroke-width:0.5;"/>
      </defs>
      <g>
       <use style="stroke:#000000;stroke-width:0.5;" x="52.6360445449" xlink:href="#m741efc42ff" y="20.7972561026"/>
      </g>
     </g>
     <g id="text_1">
      <!-- $1000$ -->
      <defs>
       <path d="
M26.5938 63.3125
C26.5938 65.4062 26.5 65.5 25.0938 65.5
C21.2031 61.1875 15.2969 59.7969 9.70312 59.7969
C9.40625 59.7969 8.90625 59.7969 8.79688 59.5
C8.70312 59.2969 8.70312 59.0938 8.70312 57
C11.7969 57 17 57.5938 21 59.9844
L21 7.20312
C21 3.6875 20.7969 2.5 12.2031 2.5
L9.20312 2.5
L9.20312 0
C14 0 19 0 23.7969 0
C28.5938 0 33.5938 0 38.4062 0
L38.4062 2.5
L35.4062 2.5
C26.7969 2.5 26.5938 3.59375 26.5938 7.15625
z
" id="CMR17-49"/>
       <path d="
M42 31.6406
C42 37.75 41.9062 48.125 37.7031 56.1094
C34 63.1094 28.0938 65.5938 22.9062 65.5938
C18.0938 65.5938 12 63.4062 8.20312 56.2031
C4.20312 48.7188 3.79688 39.4375 3.79688 31.6406
C3.79688 25.9531 3.90625 17.2812 7 9.67188
C11.2969 -0.609375 19 -2 22.9062 -2
C27.5 -2 34.5 -0.109375 38.5938 9.375
C41.5938 16.2812 42 24.3594 42 31.6406
M22.9062 -0.40625
C16.5 -0.40625 12.7031 5.07812 11.2969 12.6875
C10.2031 18.5625 10.2031 27.1562 10.2031 32.75
C10.2031 40.4375 10.2031 46.8281 11.5 52.9219
C13.4062 61.3906 19 64 22.9062 64
C27 64 32.2969 61.2969 34.2031 53.125
C35.5 47.4375 35.5938 40.7344 35.5938 32.75
C35.5938 26.25 35.5938 18.2656 34.4062 12.375
C32.2969 1.48438 26.4062 -0.40625 22.9062 -0.40625" id="CMR17-48"/>
      </defs>
      <g transform="translate(37.1012823251 394.758120038)scale(0.17 -0.17)">
       <use transform="scale(0.996264009963)" xlink:href="#CMR17-49"/>
       <use transform="translate(45.6904771171 0.0)scale(0.996264009963)" xlink:href="#CMR17-48"/>
       <use transform="translate(91.3809542341 0.0)scale(0.996264009963)" xlink:href="#CMR17-48"/>
       <use transform="translate(137.071431351 0.0)scale(0.996264009963)" xlink:href="#CMR17-48"/>
      </g>
     </g>
    </g>
    <g id="xtick_2">
     <g id="line2d_5">
      <g>
       <use style="stroke:#000000;stroke-width:0.5;" x="135.114243417" xlink:href="#m93b0483c22" y="378.69097559"/>
      </g>
     </g>
     <g id="line2d_6">
      <g>
       <use style="stroke:#000000;stroke-width:0.5;" x="135.114243417" xlink:href="#m741efc42ff" y="20.7972561026"/>
      </g>
     </g>
     <g id="text_2">
      <!-- $2000$ -->
      <defs>
       <path d="
M41.7031 15.4531
L39.9062 15.4531
C38.9062 8.375 38.0938 7.17188 37.7031 6.5625
C37.2031 5.76562 30 5.76562 28.5938 5.76562
L9.40625 5.76562
C13 9.67188 20 16.75 28.5 24.9531
C34.5938 30.7344 41.7031 37.5312 41.7031 47.4219
C41.7031 59.2188 32.2969 66 21.7969 66
C10.7969 66 4.09375 56.3125 4.09375 47.3438
C4.09375 43.4375 7 42.9375 8.20312 42.9375
C9.20312 42.9375 12.2031 43.5469 12.2031 47.0312
C12.2031 50.1094 9.59375 51 8.20312 51
C7.59375 51 7 50.9062 6.59375 50.7031
C8.5 59.2188 14.2969 63.4062 20.4062 63.4062
C29.0938 63.4062 34.7969 56.5156 34.7969 47.4219
C34.7969 38.7344 29.7031 31.25 24 24.75
L4.09375 2.28125
L4.09375 0
L39.2969 0
z
" id="CMR17-50"/>
      </defs>
      <g transform="translate(119.579481198 394.758120038)scale(0.17 -0.17)">
       <use transform="scale(0.996264009963)" xlink:href="#CMR17-50"/>
       <use transform="translate(45.6904771171 0.0)scale(0.996264009963)" xlink:href="#CMR17-48"/>
       <use transform="translate(91.3809542341 0.0)scale(0.996264009963)" xlink:href="#CMR17-48"/>
       <use transform="translate(137.071431351 0.0)scale(0.996264009963)" xlink:href="#CMR17-48"/>
      </g>
     </g>
    </g>
    <g id="xtick_3">
     <g id="line2d_7">
      <g>
       <use style="stroke:#000000;stroke-width:0.5;" x="217.59244229" xlink:href="#m93b0483c22" y="378.69097559"/>
      </g>
     </g>
     <g id="line2d_8">
      <g>
       <use style="stroke:#000000;stroke-width:0.5;" x="217.59244229" xlink:href="#m741efc42ff" y="20.7972561026"/>
      </g>
     </g>
     <g id="text_3">
      <!-- $3000$ -->
      <defs>
       <path d="
M22.0938 33.7031
C31 33.7031 34.9062 25.9688 34.9062 17.0312
C34.9062 5 28.5 0.390625 22.7031 0.390625
C17.4062 0.390625 8.79688 3.03125 6.09375 10.8281
C6.59375 10.625 7.09375 10.625 7.59375 10.625
C10 10.625 11.7969 12.2188 11.7969 14.8125
C11.7969 17.7031 9.59375 19 7.59375 19
C5.90625 19 3.29688 18.2031 3.29688 14.4688
C3.29688 5.23438 12.2969 -2 22.9062 -2
C34 -2 42.5 6.71875 42.5 16.9531
C42.5 26.6719 34.5 33.6875 25 34.7969
C32.5938 36.375 39.9062 43.0625 39.9062 52.0156
C39.9062 59.6875 32 65.2969 23 65.2969
C13.9062 65.2969 5.90625 59.8281 5.90625 52.0156
C5.90625 48.5938 8.5 48 9.79688 48
C11.9062 48 13.7031 49.2969 13.7031 51.8906
C13.7031 54.4688 11.9062 55.7656 9.79688 55.7656
C9.40625 55.7656 8.90625 55.7656 8.5 55.5625
C11.4062 61.8594 19.2969 63 22.7969 63
C26.2969 63 32.9062 61.3281 32.9062 51.875
C32.9062 49.1094 32.5 44.1875 29.0938 39.8438
C26.0938 36 22.7031 36 19.4062 35.5938
C18.9062 35.5938 16.5938 35.5938 16.2031 35.5938
C15.5 35.4844 15.0938 35.3906 15.0938 34.5938
C15.0938 33.8125 15.2031 33.7031 17.2031 33.7031
z
" id="CMR17-51"/>
      </defs>
      <g transform="translate(202.05768007 394.758120038)scale(0.17 -0.17)">
       <use transform="scale(0.996264009963)" xlink:href="#CMR17-51"/>
       <use transform="translate(45.6904771171 0.0)scale(0.996264009963)" xlink:href="#CMR17-48"/>
       <use transform="translate(91.3809542341 0.0)scale(0.996264009963)" xlink:href="#CMR17-48"/>
       <use transform="translate(137.071431351 0.0)scale(0.996264009963)" xlink:href="#CMR17-48"/>
      </g>
     </g>
    </g>
    <g id="xtick_4">
     <g id="line2d_9">
      <g>
       <use style="stroke:#000000;stroke-width:0.5;" x="300.070641163" xlink:href="#m93b0483c22" y="378.69097559"/>
      </g>
     </g>
     <g id="line2d_10">
      <g>
       <use style="stroke:#000000;stroke-width:0.5;" x="300.070641163" xlink:href="#m741efc42ff" y="20.7972561026"/>
      </g>
     </g>
     <g id="text_4">
      <!-- $4000$ -->
      <defs>
       <path d="
M33.5938 64.3281
C33.5938 66.4062 33.5 66.5 31.7031 66.5
L2 19.5938
L2 17
L27.7969 17
L27.7969 7.14062
C27.7969 3.5 27.5938 2.5 20.5938 2.5
L18.7031 2.5
L18.7031 0
C21.9062 0 27.2969 0 30.7031 0
C34.0938 0 39.5 0 42.7031 0
L42.7031 2.5
L40.7969 2.5
C33.7969 2.5 33.5938 3.5 33.5938 7.14062
L33.5938 17
L43.7969 17
L43.7969 19.5938
L33.5938 19.5938
z

M28.0938 57.7656
L28.0938 19.5938
L4 19.5938
z
" id="CMR17-52"/>
      </defs>
      <g transform="translate(284.535878943 394.758120038)scale(0.17 -0.17)">
       <use transform="scale(0.996264009963)" xlink:href="#CMR17-52"/>
       <use transform="translate(45.6904771171 0.0)scale(0.996264009963)" xlink:href="#CMR17-48"/>
       <use transform="translate(91.3809542341 0.0)scale(0.996264009963)" xlink:href="#CMR17-48"/>
       <use transform="translate(137.071431351 0.0)scale(0.996264009963)" xlink:href="#CMR17-48"/>
      </g>
     </g>
    </g>
    <g id="xtick_5">
     <g id="line2d_11">
      <g>
       <use style="stroke:#000000;stroke-width:0.5;" x="382.548840035" xlink:href="#m93b0483c22" y="378.69097559"/>
      </g>
     </g>
     <g id="line2d_12">
      <g>
       <use style="stroke:#000000;stroke-width:0.5;" x="382.548840035" xlink:href="#m741efc42ff" y="20.7972561026"/>
      </g>
     </g>
     <g id="text_5">
      <!-- $5000$ -->
      <defs>
       <path d="
M11.4062 57.6875
C12.4062 57.2812 16.5 56 20.7031 56
C30 56 35.0938 61.0156 38 63.9219
C38 64.7344 38 65.25 37.4062 65.25
C37.2969 65.25 37.0938 65.25 36.2969 64.8281
C32.7969 63.3125 28.7031 62.0781 23.7031 62.0781
C20.7031 62.0781 16.2031 62.5 11.2969 64.7344
C10.2031 65.25 10 65.25 9.90625 65.25
C9.40625 65.25 9.29688 65.1406 9.29688 63.1562
L9.29688 34.2812
C9.29688 32.5 9.29688 32 10.2969 32
C10.7969 32 11 32.2031 11.5 32.9062
C14.7031 37.4844 19.0938 39.4062 24.0938 39.4062
C27.5938 39.4062 35.0938 37.2188 35.0938 20.1406
C35.0938 16.9531 35.0938 11.1719 32.0938 6.57812
C29.5938 2.48438 25.7031 0.390625 21.4062 0.390625
C14.7969 0.390625 8.09375 5 6.29688 12.7188
C6.70312 12.6094 7.5 12.4219 7.90625 12.4219
C9.20312 12.4219 11.7031 13.125 11.7031 16.2188
C11.7031 18.9062 9.79688 20 7.90625 20
C5.59375 20 4.09375 18.5938 4.09375 15.7969
C4.09375 7.09375 11 -2 21.5938 -2
C31.9062 -2 41.7031 6.875 41.7031 19.75
C41.7031 31.7188 33.9062 41 24.2031 41
C19.0938 41 14.7969 39.0938 11.4062 35.4531
z
" id="CMR17-53"/>
      </defs>
      <g transform="translate(367.014077815 394.758120038)scale(0.17 -0.17)">
       <use transform="scale(0.996264009963)" xlink:href="#CMR17-53"/>
       <use transform="translate(45.6904771171 0.0)scale(0.996264009963)" xlink:href="#CMR17-48"/>
       <use transform="translate(91.3809542341 0.0)scale(0.996264009963)" xlink:href="#CMR17-48"/>
       <use transform="translate(137.071431351 0.0)scale(0.996264009963)" xlink:href="#CMR17-48"/>
      </g>
     </g>
    </g>
    <g id="xtick_6">
     <g id="line2d_13">
      <g>
       <use style="stroke:#000000;stroke-width:0.5;" x="465.027038908" xlink:href="#m93b0483c22" y="378.69097559"/>
      </g>
     </g>
     <g id="line2d_14">
      <g>
       <use style="stroke:#000000;stroke-width:0.5;" x="465.027038908" xlink:href="#m741efc42ff" y="20.7972561026"/>
      </g>
     </g>
     <g id="text_6">
      <!-- $6000$ -->
      <defs>
       <path d="
M10.5938 34
C10.5938 57.6562 21.7969 63 28.2969 63
C30.4062 63 35.5 62.6406 37.5 59
C35.9062 59 32.9062 59 32.9062 55.5156
C32.9062 52.8281 35.0938 51.9219 36.5 51.9219
C37.4062 51.9219 40.0938 52.3125 40.0938 55.625
C40.0938 61.7812 35.0938 65.2969 28.2031 65.2969
C16.2969 65.2969 3.79688 52.9688 3.79688 31
C3.79688 3.95312 15.0938 -2 23.0938 -2
C32.7969 -2 42 6.67188 42 20.0469
C42 32.5156 33.9062 41.5938 23.7031 41.5938
C17.5938 41.5938 13.0938 37.6094 10.5938 30.625
z

M23.0938 0.390625
C10.7969 0.390625 10.7969 18.75 10.7969 22.4375
C10.7969 29.625 14.2031 40 23.5 40
C25.2031 40 30.0938 40 33.4062 33.125
C35.2031 29.2188 35.2031 25.1406 35.2031 20.1406
C35.2031 14.75 35.2031 10.7812 33.0938 6.78125
C30.9062 2.67188 27.7031 0.390625 23.0938 0.390625" id="CMR17-54"/>
      </defs>
      <g transform="translate(449.492276688 394.758120038)scale(0.17 -0.17)">
       <use transform="scale(0.996264009963)" xlink:href="#CMR17-54"/>
       <use transform="translate(45.6904771171 0.0)scale(0.996264009963)" xlink:href="#CMR17-48"/>
       <use transform="translate(91.3809542341 0.0)scale(0.996264009963)" xlink:href="#CMR17-48"/>
       <use transform="translate(137.071431351 0.0)scale(0.996264009963)" xlink:href="#CMR17-48"/>
      </g>
     </g>
    </g>
    <g id="xtick_7">
     <g id="line2d_15">
      <g>
       <use style="stroke:#000000;stroke-width:0.5;" x="547.50523778" xlink:href="#m93b0483c22" y="378.69097559"/>
      </g>
     </g>
     <g id="line2d_16">
      <g>
       <use style="stroke:#000000;stroke-width:0.5;" x="547.50523778" xlink:href="#m741efc42ff" y="20.7972561026"/>
      </g>
     </g>
     <g id="text_7">
      <!-- $7000$ -->
      <defs>
       <path d="
M45.0938 61.5781
L45.0938 63.7656
L21.5938 63.7656
C9.90625 63.7656 9.70312 65.0781 9.29688 67
L7.5 67
L4.59375 48.3438
L6.40625 48.3438
C6.70312 50.2344 7.40625 55.3125 8.59375 57.2031
C9.20312 58 16.5938 58 18.2969 58
L40.2969 58
L29.2031 41.5781
C21.7969 30.5312 16.7031 15.6094 16.7031 2.57812
C16.7031 1.39062 16.7031 -2 20.2969 -2
C23.9062 -2 23.9062 1.39062 23.9062 2.67188
L23.9062 7.26562
C23.9062 23.5625 26.7031 34.3125 31.2969 41.1875
z
" id="CMR17-55"/>
      </defs>
      <g transform="translate(531.97047556 394.758120038)scale(0.17 -0.17)">
       <use transform="scale(0.996264009963)" xlink:href="#CMR17-55"/>
       <use transform="translate(45.6904771171 0.0)scale(0.996264009963)" xlink:href="#CMR17-48"/>
       <use transform="translate(91.3809542341 0.0)scale(0.996264009963)" xlink:href="#CMR17-48"/>
       <use transform="translate(137.071431351 0.0)scale(0.996264009963)" xlink:href="#CMR17-48"/>
      </g>
     </g>
    </g>
    <g id="text_8">
     <!-- Time [generations] -->
     <defs>
      <path d="
M25 73
L6.40625 73
L6.40625 -21.2031
L25 -21.2031
L25 -14
L14.7031 -14
L14.7031 65.7812
L25 65.7812
z
" id="Nimbus_Sans_L_Regular-91"/>
      <path d="
M27.2031 54
C12.5 54 3.59375 43.5312 3.59375 26
C3.59375 8.45312 12.4062 -2 27.2969 -2
C42 -2 51 8.45312 51 25.5938
C51 43.6406 42.2969 54 27.2031 54
M27.2969 46.2812
C36.7031 46.2812 42.2969 38.625 42.2969 25.7031
C42.2969 13.4531 36.5 5.70312 27.2969 5.70312
C18 5.70312 12.2969 13.3594 12.2969 26
C12.2969 38.5312 18 46.2812 27.2969 46.2812" id="Nimbus_Sans_L_Regular-111"/>
      <path d="
M53.5 5.20312
C52.5938 5 52.2031 5 51.7031 5
C48.7969 5 47.2031 6.48438 47.2031 9.07812
L47.2031 39.7656
C47.2031 49.0156 40.4062 54 27.5 54
C19.9062 54 13.5938 51.8125 10.0938 47.9062
C7.70312 45.2031 6.70312 42.2188 6.5 37.0312
L14.9062 37.0312
C15.5938 43.3906 19.4062 46.2812 27.2031 46.2812
C34.7031 46.2812 38.9062 43.4844 38.9062 38.5156
L38.9062 36.3281
C38.9062 32.8281 36.7969 31.3438 30.2031 30.5469
C18.4062 29.0625 16.5938 28.6562 13.4062 27.3594
C7.29688 24.875 4.20312 20.1875 4.20312 13.4219
C4.20312 3.96875 10.7969 -2 21.4062 -2
C28 -2 33.2969 0.296875 39.2031 5.70312
C39.7969 0.390625 42.4062 -2 47.7969 -2
C49.5 -2 50.7969 -1.8125 53.5 -1.09375
z

M38.9062 16.75
C38.9062 13.9531 38.0938 12.2656 35.5938 9.98438
C32.2031 6.89062 28.0938 5.3125 23.2031 5.3125
C16.7031 5.3125 12.9062 8.39062 12.9062 13.6562
C12.9062 19.1406 16.5938 21.9219 25.5 23.2188
C34.2969 24.4062 36.0938 24.8125 38.9062 26.0938
z
" id="Nimbus_Sans_L_Regular-97"/>
      <path d="
M25.4062 52.8125
L16.7969 52.8125
L16.7969 67
L8.5 67
L8.5 52.8125
L1.40625 52.8125
L1.40625 46
L8.5 46
L8.5 6.3125
C8.5 1 12.0938 -2 18.5938 -2
C20.5938 -2 22.5938 -1.8125 25.4062 -1.29688
L25.4062 5.71875
C24.2969 5.40625 23 5.3125 21.4062 5.3125
C17.7969 5.3125 16.7969 6.3125 16.7969 10.0156
L16.7969 46
L25.4062 46
z
" id="Nimbus_Sans_L_Regular-116"/>
      <path d="
M2.29688 -21.2031
L20.9062 -21.2031
L20.9062 73
L2.29688 73
L2.29688 65.7812
L12.5938 65.7812
L12.5938 -14
L2.29688 -14
z
" id="Nimbus_Sans_L_Regular-93"/>
      <path d="
M7 52.4844
L7 0
L15.4062 0
L15.4062 32.9531
C15.4062 40.5781 20.9062 46.6875 27.7031 46.6875
C33.9062 46.6875 37.4062 42.875 37.4062 36.1562
L37.4062 0
L45.7969 0
L45.7969 32.9531
C45.7969 40.5781 51.2969 46.6875 58.0938 46.6875
C64.2031 46.6875 67.7969 42.7812 67.7969 36.1562
L67.7969 0
L76.2031 0
L76.2031 39.375
C76.2031 48.7812 70.7969 54 61 54
C54 54 49.7969 51.8906 44.9062 45.9844
C41.7969 51.5938 37.5938 54 30.7969 54
C23.7969 54 19.2031 51.3906 14.7031 45.0781
L14.7031 52.4844
z
" id="Nimbus_Sans_L_Regular-109"/>
      <path d="
M6.90625 52.4844
L6.90625 0
L15.2969 0
L15.2969 27.25
C15.2969 34.7656 17.2031 39.6719 21.2031 42.5781
C23.7969 44.4844 26.2969 45.0781 32.0938 45.0781
L32.0938 53.7031
C30.7031 53.8906 30 54 28.9062 54
C23.5 54 19.4062 50.7812 14.5938 42.9688
L14.5938 52.4844
z
" id="Nimbus_Sans_L_Regular-114"/>
      <path d="
M15 52.4844
L6.70312 52.4844
L6.70312 0
L15 0
z

M15 73
L6.59375 73
L6.59375 62.4844
L15 62.4844
z
" id="Nimbus_Sans_L_Regular-105"/>
      <path d="
M7 52.4844
L7 0
L15.4062 0
L15.4062 28.9531
C15.4062 39.6719 21 46.6875 29.5938 46.6875
C36.2031 46.6875 40.4062 42.6719 40.4062 36.3594
L40.4062 0
L48.7031 0
L48.7031 39.6719
C48.7031 48.3906 42.2031 54 32.0938 54
C24.2969 54 19.2969 50.9844 14.7031 43.6875
L14.7031 52.4844
z
" id="Nimbus_Sans_L_Regular-110"/>
      <path d="
M35.4062 64.7812
L59.2969 64.7812
L59.2969 73
L2.09375 73
L2.09375 64.7812
L26.0938 64.7812
L26.0938 -0.21875
L35.4062 -0.21875
z
" id="Nimbus_Sans_L_Regular-84"/>
      <path d="
M51.2969 24
C51.2969 31.875 50.7031 36.5938 49.2031 40.4219
C45.7969 48.875 37.7969 54 28 54
C13.4062 54 4 42.8438 4 25.7031
C4 8.54688 13.0938 -2 27.7969 -2
C39.7969 -2 48.0938 4.875 50.2031 16.375
L41.7969 16.375
C39.5 9.35938 34.7969 5.70312 28.0938 5.70312
C22.7969 5.70312 18.2969 8.14062 15.5 12.6094
C13.5 15.6562 12.7969 18.7188 12.7031 24
z

M12.9062 30.8125
C13.5938 40.1875 19.5 46.2812 27.9062 46.2812
C36.0938 46.2812 42.4062 39.7031 42.4062 31.4062
C42.4062 31.2031 42.4062 31.0156 42.2969 30.8125
z
" id="Nimbus_Sans_L_Regular-101"/>
      <path d="
M41.2031 52.2031
L41.2031 44.5938
C37 50.8125 31.9062 53.7188 25.2031 53.7188
C11.9062 53.7188 2.90625 42.0625 2.90625 25
C2.90625 16.375 5.20312 9.34375 9.5 4.3125
C13.4062 -0.109375 19 -2.70312 24.5 -2.70312
C31.0938 -2.70312 35.7031 0.09375 40.4062 6.70312
L40.4062 4.03125
C40.4062 -3 39.5 -7.26562 37.4062 -10.1406
C35.2031 -13.1875 30.9062 -14.9844 25.7969 -14.9844
C22 -14.9844 18.5938 -14 16.2969 -12.2344
C14.4062 -10.75 13.5938 -9.375 13.0938 -6.34375
L4.59375 -6.34375
C5.5 -16.1406 13.2031 -22 25.5 -22
C33.2969 -22 40 -19.4844 43.4062 -15.2969
C47.4062 -10.4844 48.9062 -3.89062 48.9062 8.40625
L48.9062 52.2031
z

M26.0938 46
C35.0938 46 40.4062 38.375 40.4062 25.2031
C40.4062 12.625 35 5 26.2031 5
C17.0938 5 11.5938 12.75 11.5938 25.5
C11.5938 38.1562 17.2031 46 26.0938 46" id="Nimbus_Sans_L_Regular-103"/>
      <path d="
M43.7969 37.9219
C43.7031 48.2031 36.9062 54 24.7969 54
C12.5938 54 4.70312 47.7188 4.70312 38.0625
C4.70312 29.8906 8.90625 26.0156 21.2969 23.0312
L29.0938 21.1406
C34.9062 19.7344 37.2031 17.6562 37.2031 13.875
C37.2031 9 32.2969 5.70312 25 5.70312
C20.5 5.70312 16.7031 7 14.5938 9.1875
C13.2969 10.6875 12.7031 12.1719 12.2031 15.8438
L3.40625 15.8438
C3.79688 3.76562 10.5938 -2 24.2969 -2
C37.5 -2 45.9062 4.45312 45.9062 14.5156
C45.9062 22.2812 41.5 26.5781 31.0938 29.0625
L23.0938 30.9531
C16.2969 32.5312 13.4062 34.7344 13.4062 38.4062
C13.4062 43.1875 17.7031 46.2812 24.5 46.2812
C31.2031 46.2812 34.7969 43.3906 35 37.9219
z
" id="Nimbus_Sans_L_Regular-115"/>
     </defs>
     <g transform="translate(230.03070152 415.432632243)scale(0.17 -0.17)">
      <use transform="scale(0.996264009963)" xlink:href="#Nimbus_Sans_L_Regular-84"/>
      <use transform="translate(60.871630677 0.0)scale(0.996264009963)" xlink:href="#Nimbus_Sans_L_Regular-105"/>
      <use transform="translate(82.9884150257 0.0)scale(0.996264009963)" xlink:href="#Nimbus_Sans_L_Regular-109"/>
      <use transform="translate(165.976845253 0.0)scale(0.996264009963)" xlink:href="#Nimbus_Sans_L_Regular-101"/>
      <use transform="translate(249.06369182 0.0)scale(0.996264009963)" xlink:href="#Nimbus_Sans_L_Regular-91"/>
      <use transform="translate(276.758861423 0.0)scale(0.996264009963)" xlink:href="#Nimbus_Sans_L_Regular-103"/>
      <use transform="translate(332.150538386 0.0)scale(0.996264009963)" xlink:href="#Nimbus_Sans_L_Regular-101"/>
      <use transform="translate(387.54221535 0.0)scale(0.996264009963)" xlink:href="#Nimbus_Sans_L_Regular-110"/>
      <use transform="translate(442.933892313 0.0)scale(0.996264009963)" xlink:href="#Nimbus_Sans_L_Regular-101"/>
      <use transform="translate(498.325569276 0.0)scale(0.996264009963)" xlink:href="#Nimbus_Sans_L_Regular-114"/>
      <use transform="translate(530.504702215 0.0)scale(0.996264009963)" xlink:href="#Nimbus_Sans_L_Regular-97"/>
      <use transform="translate(585.896379179 0.0)scale(0.996264009963)" xlink:href="#Nimbus_Sans_L_Regular-116"/>
      <use transform="translate(613.591548782 0.0)scale(0.996264009963)" xlink:href="#Nimbus_Sans_L_Regular-105"/>
      <use transform="translate(635.708333131 0.0)scale(0.996264009963)" xlink:href="#Nimbus_Sans_L_Regular-111"/>
      <use transform="translate(691.100010094 0.0)scale(0.996264009963)" xlink:href="#Nimbus_Sans_L_Regular-110"/>
      <use transform="translate(746.491687057 0.0)scale(0.996264009963)" xlink:href="#Nimbus_Sans_L_Regular-115"/>
      <use transform="translate(796.304887555 0.0)scale(0.996264009963)" xlink:href="#Nimbus_Sans_L_Regular-93"/>
     </g>
    </g>
   </g>
   <g id="matplotlib.axis_2">
    <g id="ytick_1">
     <g id="line2d_17">
      <defs>
       <path d="
M0 0
L4 0" id="m728421d6d4" style="stroke:#000000;stroke-width:0.5;"/>
      </defs>
      <g>
       <use style="stroke:#000000;stroke-width:0.5;" x="52.6360445449" xlink:href="#m728421d6d4" y="378.69097559"/>
      </g>
     </g>
     <g id="line2d_18">
      <defs>
       <path d="
M0 0
L-4 0" id="mcb0005524f" style="stroke:#000000;stroke-width:0.5;"/>
      </defs>
      <g>
       <use style="stroke:#000000;stroke-width:0.5;" x="547.50523778" xlink:href="#mcb0005524f" y="378.69097559"/>
      </g>
     </g>
     <g id="text_9">
      <!-- $0.000$ -->
      <defs>
       <path d="
M18.4062 4.79688
C18.4062 7.6875 16 9.67188 13.5938 9.67188
C10.7031 9.67188 8.70312 7.28125 8.70312 4.89062
C8.70312 2 11.0938 0 13.5 0
C16.4062 0 18.4062 2.39062 18.4062 4.79688" id="CMMI12-58"/>
      </defs>
      <g transform="translate(12.96 382.920863936)scale(0.17 -0.17)">
       <use transform="scale(0.996264009963)" xlink:href="#CMR17-48"/>
       <use transform="translate(45.6904771171 0.0)scale(0.996264009963)" xlink:href="#CMMI12-58"/>
       <use transform="translate(72.7876542069 0.0)scale(0.996264009963)" xlink:href="#CMR17-48"/>
       <use transform="translate(118.478131324 0.0)scale(0.996264009963)" xlink:href="#CMR17-48"/>
       <use transform="translate(164.168608441 0.0)scale(0.996264009963)" xlink:href="#CMR17-48"/>
      </g>
     </g>
    </g>
    <g id="ytick_2">
     <g id="line2d_19">
      <g>
       <use style="stroke:#000000;stroke-width:0.5;" x="52.6360445449" xlink:href="#m728421d6d4" y="333.954260654"/>
      </g>
     </g>
     <g id="line2d_20">
      <g>
       <use style="stroke:#000000;stroke-width:0.5;" x="547.50523778" xlink:href="#mcb0005524f" y="333.954260654"/>
      </g>
     </g>
     <g id="text_10">
      <!-- $0.005$ -->
      <g transform="translate(12.96 338.184149)scale(0.17 -0.17)">
       <use transform="scale(0.996264009963)" xlink:href="#CMR17-48"/>
       <use transform="translate(45.6904771171 0.0)scale(0.996264009963)" xlink:href="#CMMI12-58"/>
       <use transform="translate(72.7876542069 0.0)scale(0.996264009963)" xlink:href="#CMR17-48"/>
       <use transform="translate(118.478131324 0.0)scale(0.996264009963)" xlink:href="#CMR17-48"/>
       <use transform="translate(164.168608441 0.0)scale(0.996264009963)" xlink:href="#CMR17-53"/>
      </g>
     </g>
    </g>
    <g id="ytick_3">
     <g id="line2d_21">
      <g>
       <use style="stroke:#000000;stroke-width:0.5;" x="52.6360445449" xlink:href="#m728421d6d4" y="289.217545718"/>
      </g>
     </g>
     <g id="line2d_22">
      <g>
       <use style="stroke:#000000;stroke-width:0.5;" x="547.50523778" xlink:href="#mcb0005524f" y="289.217545718"/>
      </g>
     </g>
     <g id="text_11">
      <!-- $0.010$ -->
      <g transform="translate(12.96 293.447434064)scale(0.17 -0.17)">
       <use transform="scale(0.996264009963)" xlink:href="#CMR17-48"/>
       <use transform="translate(45.6904771171 0.0)scale(0.996264009963)" xlink:href="#CMMI12-58"/>
       <use transform="translate(72.7876542069 0.0)scale(0.996264009963)" xlink:href="#CMR17-48"/>
       <use transform="translate(118.478131324 0.0)scale(0.996264009963)" xlink:href="#CMR17-49"/>
       <use transform="translate(164.168608441 0.0)scale(0.996264009963)" xlink:href="#CMR17-48"/>
      </g>
     </g>
    </g>
    <g id="ytick_4">
     <g id="line2d_23">
      <g>
       <use style="stroke:#000000;stroke-width:0.5;" x="52.6360445449" xlink:href="#m728421d6d4" y="244.480830782"/>
      </g>
     </g>
     <g id="line2d_24">
      <g>
       <use style="stroke:#000000;stroke-width:0.5;" x="547.50523778" xlink:href="#mcb0005524f" y="244.480830782"/>
      </g>
     </g>
     <g id="text_12">
      <!-- $0.015$ -->
      <g transform="translate(12.96 248.710719128)scale(0.17 -0.17)">
       <use transform="scale(0.996264009963)" xlink:href="#CMR17-48"/>
       <use transform="translate(45.6904771171 0.0)scale(0.996264009963)" xlink:href="#CMMI12-58"/>
       <use transform="translate(72.7876542069 0.0)scale(0.996264009963)" xlink:href="#CMR17-48"/>
       <use transform="translate(118.478131324 0.0)scale(0.996264009963)" xlink:href="#CMR17-49"/>
       <use transform="translate(164.168608441 0.0)scale(0.996264009963)" xlink:href="#CMR17-53"/>
      </g>
     </g>
    </g>
    <g id="ytick_5">
     <g id="line2d_25">
      <g>
       <use style="stroke:#000000;stroke-width:0.5;" x="52.6360445449" xlink:href="#m728421d6d4" y="199.744115846"/>
      </g>
     </g>
     <g id="line2d_26">
      <g>
       <use style="stroke:#000000;stroke-width:0.5;" x="547.50523778" xlink:href="#mcb0005524f" y="199.744115846"/>
      </g>
     </g>
     <g id="text_13">
      <!-- $0.020$ -->
      <g transform="translate(12.96 203.974004192)scale(0.17 -0.17)">
       <use transform="scale(0.996264009963)" xlink:href="#CMR17-48"/>
       <use transform="translate(45.6904771171 0.0)scale(0.996264009963)" xlink:href="#CMMI12-58"/>
       <use transform="translate(72.7876542069 0.0)scale(0.996264009963)" xlink:href="#CMR17-48"/>
       <use transform="translate(118.478131324 0.0)scale(0.996264009963)" xlink:href="#CMR17-50"/>
       <use transform="translate(164.168608441 0.0)scale(0.996264009963)" xlink:href="#CMR17-48"/>
      </g>
     </g>
    </g>
    <g id="ytick_6">
     <g id="line2d_27">
      <g>
       <use style="stroke:#000000;stroke-width:0.5;" x="52.6360445449" xlink:href="#m728421d6d4" y="155.00740091"/>
      </g>
     </g>
     <g id="line2d_28">
      <g>
       <use style="stroke:#000000;stroke-width:0.5;" x="547.50523778" xlink:href="#mcb0005524f" y="155.00740091"/>
      </g>
     </g>
     <g id="text_14">
      <!-- $0.025$ -->
      <g transform="translate(12.96 159.237289256)scale(0.17 -0.17)">
       <use transform="scale(0.996264009963)" xlink:href="#CMR17-48"/>
       <use transform="translate(45.6904771171 0.0)scale(0.996264009963)" xlink:href="#CMMI12-58"/>
       <use transform="translate(72.7876542069 0.0)scale(0.996264009963)" xlink:href="#CMR17-48"/>
       <use transform="translate(118.478131324 0.0)scale(0.996264009963)" xlink:href="#CMR17-50"/>
       <use transform="translate(164.168608441 0.0)scale(0.996264009963)" xlink:href="#CMR17-53"/>
      </g>
     </g>
    </g>
    <g id="ytick_7">
     <g id="line2d_29">
      <g>
       <use style="stroke:#000000;stroke-width:0.5;" x="52.6360445449" xlink:href="#m728421d6d4" y="110.270685974"/>
      </g>
     </g>
     <g id="line2d_30">
      <g>
       <use style="stroke:#000000;stroke-width:0.5;" x="547.50523778" xlink:href="#mcb0005524f" y="110.270685974"/>
      </g>
     </g>
     <g id="text_15">
      <!-- $0.030$ -->
      <g transform="translate(12.96 114.50057432)scale(0.17 -0.17)">
       <use transform="scale(0.996264009963)" xlink:href="#CMR17-48"/>
       <use transform="translate(45.6904771171 0.0)scale(0.996264009963)" xlink:href="#CMMI12-58"/>
       <use transform="translate(72.7876542069 0.0)scale(0.996264009963)" xlink:href="#CMR17-48"/>
       <use transform="translate(118.478131324 0.0)scale(0.996264009963)" xlink:href="#CMR17-51"/>
       <use transform="translate(164.168608441 0.0)scale(0.996264009963)" xlink:href="#CMR17-48"/>
      </g>
     </g>
    </g>
    <g id="ytick_8">
     <g id="line2d_31">
      <g>
       <use style="stroke:#000000;stroke-width:0.5;" x="52.6360445449" xlink:href="#m728421d6d4" y="65.5339710385"/>
      </g>
     </g>
     <g id="line2d_32">
      <g>
       <use style="stroke:#000000;stroke-width:0.5;" x="547.50523778" xlink:href="#mcb0005524f" y="65.5339710385"/>
      </g>
     </g>
     <g id="text_16">
      <!-- $0.035$ -->
      <g transform="translate(12.96 69.7638593844)scale(0.17 -0.17)">
       <use transform="scale(0.996264009963)" xlink:href="#CMR17-48"/>
       <use transform="translate(45.6904771171 0.0)scale(0.996264009963)" xlink:href="#CMMI12-58"/>
       <use transform="translate(72.7876542069 0.0)scale(0.996264009963)" xlink:href="#CMR17-48"/>
       <use transform="translate(118.478131324 0.0)scale(0.996264009963)" xlink:href="#CMR17-51"/>
       <use transform="translate(164.168608441 0.0)scale(0.996264009963)" xlink:href="#CMR17-53"/>
      </g>
     </g>
    </g>
    <g id="ytick_9">
     <g id="line2d_33">
      <g>
       <use style="stroke:#000000;stroke-width:0.5;" x="52.6360445449" xlink:href="#m728421d6d4" y="20.7972561026"/>
      </g>
     </g>
     <g id="line2d_34">
      <g>
       <use style="stroke:#000000;stroke-width:0.5;" x="547.50523778" xlink:href="#mcb0005524f" y="20.7972561026"/>
      </g>
     </g>
     <g id="text_17">
      <!-- $0.040$ -->
      <g transform="translate(12.96 25.0271444486)scale(0.17 -0.17)">
       <use transform="scale(0.996264009963)" xlink:href="#CMR17-48"/>
       <use transform="translate(45.6904771171 0.0)scale(0.996264009963)" xlink:href="#CMMI12-58"/>
       <use transform="translate(72.7876542069 0.0)scale(0.996264009963)" xlink:href="#CMR17-48"/>
       <use transform="translate(118.478131324 0.0)scale(0.996264009963)" xlink:href="#CMR17-52"/>
       <use transform="translate(164.168608441 0.0)scale(0.996264009963)" xlink:href="#CMR17-48"/>
      </g>
     </g>
    </g>
   </g>
   <g id="patch_3">
    <path d="
M52.636 20.7973
L547.505 20.7973" style="fill:none;stroke:#000000;"/>
   </g>
   <g id="patch_4">
    <path d="
M547.505 378.691
L547.505 20.7973" style="fill:none;stroke:#000000;"/>
   </g>
   <g id="patch_5">
    <path d="
M52.636 378.691
L547.505 378.691" style="fill:none;stroke:#000000;"/>
   </g>
   <g id="patch_6">
    <path d="
M52.636 378.691
L52.636 20.7973" style="fill:none;stroke:#000000;"/>
   </g>
   <g id="legend_1">
    <g id="patch_7">
     <path d="
M61.136 82.7463
L207.56 82.7463
L207.56 29.2973
L61.136 29.2973
L61.136 82.7463
z
" style="fill:#ffffff;stroke:#000000;"/>
    </g>
    <g id="line2d_35">
     <path d="
M73.036 42.2144
L96.836 42.2144" style="fill:none;stroke:#0000ff;stroke-linecap:square;stroke-width:2;"/>
    </g>
    <g id="line2d_36"/>
    <g id="text_18">
     <!-- Divergence -->
     <defs>
      <path d="
M8.90625 0
L37 0
C55.4062 0 66.7031 13.8281 66.7031 36.5469
C66.7031 59.1719 55.5 73 37 73
L8.90625 73
z

M18.2031 8.21875
L18.2031 64.7812
L35.4062 64.7812
C49.7969 64.7812 57.4062 55.0625 57.4062 36.4531
C57.4062 18.0312 49.7969 8.21875 35.4062 8.21875
z
" id="Nimbus_Sans_L_Regular-68"/>
      <path d="
M28.5 0
L48.5938 52.5
L39.2031 52.5
L24.4062 9.92188
L10.4062 52.5
L1 52.5
L19.4062 0
z
" id="Nimbus_Sans_L_Regular-118"/>
      <path d="
M47.0938 34.9375
C46.7031 40.0312 45.5938 43.3281 43.5938 46.2188
C40 51.1094 33.7031 54 26.4062 54
C12.2969 54 3.09375 42.8438 3.09375 25.5
C3.09375 8.65625 12.0938 -2 26.2969 -2
C38.7969 -2 46.7031 5.46875 47.7031 18.2344
L39.2969 18.2344
C37.9062 9.875 33.5938 5.70312 26.5 5.70312
C17.2969 5.70312 11.7969 13.1719 11.7969 25.5
C11.7969 38.5312 17.2031 46.2812 26.2969 46.2812
C33.2969 46.2812 37.7031 42.2031 38.7031 34.9375
z
" id="Nimbus_Sans_L_Regular-99"/>
     </defs>
     <g transform="translate(115.536044545 48.1644005512)scale(0.17 -0.17)">
      <use transform="scale(0.996264009963)" xlink:href="#Nimbus_Sans_L_Regular-68"/>
      <use transform="translate(71.9299848469 0.0)scale(0.996264009963)" xlink:href="#Nimbus_Sans_L_Regular-105"/>
      <use transform="translate(94.0467691956 0.0)scale(0.996264009963)" xlink:href="#Nimbus_Sans_L_Regular-118"/>
      <use transform="translate(141.369340072 0.0)scale(0.996264009963)" xlink:href="#Nimbus_Sans_L_Regular-101"/>
      <use transform="translate(196.761017036 0.0)scale(0.996264009963)" xlink:href="#Nimbus_Sans_L_Regular-114"/>
      <use transform="translate(229.936246765 0.0)scale(0.996264009963)" xlink:href="#Nimbus_Sans_L_Regular-103"/>
      <use transform="translate(285.327923728 0.0)scale(0.996264009963)" xlink:href="#Nimbus_Sans_L_Regular-101"/>
      <use transform="translate(340.719600692 0.0)scale(0.996264009963)" xlink:href="#Nimbus_Sans_L_Regular-110"/>
      <use transform="translate(396.111277655 0.0)scale(0.996264009963)" xlink:href="#Nimbus_Sans_L_Regular-99"/>
      <use transform="translate(445.924478153 0.0)scale(0.996264009963)" xlink:href="#Nimbus_Sans_L_Regular-101"/>
     </g>
    </g>
    <g id="line2d_37">
     <path d="
M73.036 66.3889
L96.836 66.3889" style="fill:none;stroke:#ff0000;stroke-linecap:square;stroke-width:2;"/>
    </g>
    <g id="line2d_38"/>
    <g id="text_19">
     <!-- Diversity -->
     <defs>
      <path d="
M38.7969 52.5
L24.2969 11.5312
L10.9062 52.5
L2 52.5
L19.7031 -0.328125
L16.5 -8.65625
C15.2031 -12.375 13.2969 -13.7812 9.79688 -13.7812
C8.59375 -13.7812 7.20312 -13.5781 5.40625 -13.1719
L5.40625 -20.7031
C7.09375 -21.5938 8.79688 -22 11 -22
C13.7031 -22 16.5938 -21.0938 18.7969 -19.4844
C21.4062 -17.5781 22.9062 -15.3594 24.5 -11.1406
L47.7969 52.5
z
" id="Nimbus_Sans_L_Regular-121"/>
     </defs>
     <g transform="translate(115.536044545 72.3389127564)scale(0.17 -0.17)">
      <use transform="scale(0.996264009963)" xlink:href="#Nimbus_Sans_L_Regular-68"/>
      <use transform="translate(71.9299848469 0.0)scale(0.996264009963)" xlink:href="#Nimbus_Sans_L_Regular-105"/>
      <use transform="translate(94.0467691956 0.0)scale(0.996264009963)" xlink:href="#Nimbus_Sans_L_Regular-118"/>
      <use transform="translate(141.369340072 0.0)scale(0.996264009963)" xlink:href="#Nimbus_Sans_L_Regular-101"/>
      <use transform="translate(196.761017036 0.0)scale(0.996264009963)" xlink:href="#Nimbus_Sans_L_Regular-114"/>
      <use transform="translate(229.936246765 0.0)scale(0.996264009963)" xlink:href="#Nimbus_Sans_L_Regular-115"/>
      <use transform="translate(279.749447263 0.0)scale(0.996264009963)" xlink:href="#Nimbus_Sans_L_Regular-105"/>
      <use transform="translate(301.866231612 0.0)scale(0.996264009963)" xlink:href="#Nimbus_Sans_L_Regular-116"/>
      <use transform="translate(329.561401215 0.0)scale(0.996264009963)" xlink:href="#Nimbus_Sans_L_Regular-121"/>
     </g>
    </g>
   </g>
  </g>
 </g>
 <defs>
  <clipPath id="p962e812be7">
   <rect height="357.893719487" width="494.869193235" x="52.6360445449" y="20.7972561026"/>
  </clipPath>
 </defs>
</svg>
