<?xml version="1.0" encoding="utf-8" standalone="no"?>
<!DOCTYPE svg PUBLIC "-//W3C//DTD SVG 1.1//EN"
  "http://www.w3.org/Graphics/SVG/1.1/DTD/svg11.dtd">
<!-- Created with matplotlib (http://matplotlib.org/) -->
<svg height="438pt" version="1.1" viewBox="0 0 576 438" width="576pt" xmlns="http://www.w3.org/2000/svg" xmlns:xlink="http://www.w3.org/1999/xlink">
 <defs>
  <style type="text/css">
*{stroke-linecap:butt;stroke-linejoin:round;}
  </style>
 </defs>
 <g id="figure_1">
  <g id="patch_1">
   <path d="
M0 438.3
L576 438.3
L576 0
L0 0
z
" style="fill:#ffffff;"/>
  </g>
  <g id="axes_1">
   <g id="patch_2">
    <path d="
M80.015 372.343
L489.475 372.343
L489.475 26.5633
L80.015 26.5633
z
" style="fill:#ffffff;"/>
   </g>
   <g id="PathCollection_1">
    <defs>
     <path d="
M80.015 -65.9567
L131.293 -65.9567
L97.171 -123.587
L148.258 -145.158
L169.608 -181.217
L159.696 -238.847
L216.502 -286.818
L284.745 -290.682
L296.182 -296.477
L318.93 -354.107
L352.988 -375.678
L387.047 -354.107
L395.593 -296.477
L421.232 -282.042
L482.613 -238.847
L489.475 -229.188
L489.475 -238.847
L489.475 -296.477
L489.475 -354.107
L489.475 -411.737
L421.232 -411.737
L352.988 -411.737
L284.745 -411.737
L216.502 -411.737
L148.258 -411.737
L80.015 -411.737
L80.015 -354.107
L80.015 -296.477
L80.015 -238.847
L80.015 -181.217
L80.015 -123.587
L80.015 -65.9567" id="C0_0_387dec757e"/>
     <path d="
M386.92 -65.9567
L421.232 -65.9567
L489.475 -65.9567
L489.475 -109.26
L421.232 -69.5787
L386.92 -65.9567" id="C0_1_194776a2c4"/>
    </defs>
    <g clip-path="url(#p7bb22eff51)">
     <use style="fill:#0000d1;" x="0.0" xlink:href="#C0_0_387dec757e" y="438.3"/>
    </g>
    <g clip-path="url(#p7bb22eff51)">
     <use style="fill:#0000d1;" x="0.0" xlink:href="#C0_1_194776a2c4" y="438.3"/>
    </g>
   </g>
   <g id="PathCollection_2">
    <defs>
     <path d="
M131.293 -65.9567
L148.258 -65.9567
L175.632 -65.9567
L165.414 -123.587
L190.958 -181.217
L216.502 -238.74
L216.692 -238.847
L284.745 -261.834
L318.771 -238.847
L352.988 -224.399
L387.205 -238.847
L421.232 -258.003
L448.453 -238.847
L421.232 -210.112
L404.123 -181.217
L421.232 -164.705
L469.923 -123.587
L421.232 -87.6082
L353.064 -123.587
L352.988 -123.64
L352.957 -123.587
L330.177 -65.9567
L352.988 -65.9567
L386.92 -65.9567
L421.232 -69.5787
L489.475 -109.26
L489.475 -123.587
L489.475 -181.217
L489.475 -229.188
L482.613 -238.847
L421.232 -282.042
L395.593 -296.477
L387.047 -354.107
L352.988 -375.678
L318.93 -354.107
L296.182 -296.477
L284.745 -290.682
L216.502 -286.818
L159.696 -238.847
L169.608 -181.217
L148.258 -145.158
L97.171 -123.587
L131.293 -65.9567" id="C1_0_d3fc286dc2"/>
     <path d="
M284.745 -181.19
L284.808 -181.217
L284.745 -181.378
L284.618 -181.217
L284.745 -181.19" id="C1_1_63e466642e"/>
    </defs>
    <g clip-path="url(#p7bb22eff51)">
     <use style="fill:#0058ff;" x="0.0" xlink:href="#C1_0_d3fc286dc2" y="438.3"/>
    </g>
    <g clip-path="url(#p7bb22eff51)">
     <use style="fill:#0058ff;" x="0.0" xlink:href="#C1_1_63e466642e" y="438.3"/>
    </g>
   </g>
   <g id="PathCollection_3">
    <defs>
     <path d="
M175.632 -65.9567
L209.792 -65.9567
L208.114 -123.587
L212.308 -181.217
L216.502 -190.661
L227.685 -181.217
L284.745 -169.17
L313.275 -181.217
L352.988 -206.37
L382.773 -181.217
L352.988 -147.68
L338.723 -123.587
L301.711 -65.9567
L330.177 -65.9567
L352.957 -123.587
L352.988 -123.64
L353.064 -123.587
L421.232 -87.6082
L469.923 -123.587
L421.232 -164.705
L404.123 -181.217
L421.232 -210.112
L448.453 -238.847
L421.232 -258.003
L387.205 -238.847
L352.988 -224.399
L318.771 -238.847
L284.745 -261.834
L216.692 -238.847
L216.502 -238.74
L190.958 -181.217
L165.414 -123.587
L175.632 -65.9567
M284.745 -181.19
L284.618 -181.217
L284.745 -181.378
L284.808 -181.217
L284.745 -181.19
M421.232 -105.638
L387.224 -123.587
L421.232 -144.1
L445.523 -123.587
L421.232 -105.638" id="C2_0_30f44e1c07"/>
    </defs>
    <g clip-path="url(#p7bb22eff51)">
     <use style="fill:#06ecf1;" x="0.0" xlink:href="#C2_0_30f44e1c07" y="438.3"/>
    </g>
   </g>
   <g id="PathCollection_4">
    <defs>
     <path d="
M209.792 -65.9567
L216.502 -65.9567
L284.745 -65.9567
L301.711 -65.9567
L338.723 -123.587
L352.988 -147.68
L382.773 -181.217
L352.988 -206.37
L313.275 -181.217
L284.745 -169.17
L227.685 -181.217
L216.502 -190.661
L212.308 -181.217
L208.114 -123.587
L209.792 -65.9567
M284.745 -73.2409
L231.751 -123.587
L284.745 -157.151
L324.49 -123.587
L284.745 -73.2409
M352.988 -171.719
L341.741 -181.217
L352.988 -188.34
L361.424 -181.217
L352.988 -171.719" id="C3_0_e3fb0cb3b3"/>
     <path d="
M421.232 -105.638
L445.523 -123.587
L421.232 -144.1
L387.224 -123.587
L421.232 -105.638" id="C3_1_d52f80d0a4"/>
    </defs>
    <g clip-path="url(#p7bb22eff51)">
     <use style="fill:#7dff7a;" x="0.0" xlink:href="#C3_0_e3fb0cb3b3" y="438.3"/>
    </g>
    <g clip-path="url(#p7bb22eff51)">
     <use style="fill:#7dff7a;" x="0.0" xlink:href="#C3_1_d52f80d0a4" y="438.3"/>
    </g>
   </g>
   <g id="PathCollection_5">
    <defs>
     <path d="
M284.745 -73.2409
L324.49 -123.587
L284.745 -157.151
L231.751 -123.587
L284.745 -73.2409
M284.745 -91.2704
L250.729 -123.587
L284.745 -145.131
L310.257 -123.587
L284.745 -91.2704" id="C4_0_a9147b0f3a"/>
     <path d="
M352.988 -171.719
L361.424 -181.217
L352.988 -188.34
L341.741 -181.217
L352.988 -171.719" id="C4_1_2517bb5d0c"/>
    </defs>
    <g clip-path="url(#p7bb22eff51)">
     <use style="fill:#f1fc06;" x="0.0" xlink:href="#C4_0_a9147b0f3a" y="438.3"/>
    </g>
    <g clip-path="url(#p7bb22eff51)">
     <use style="fill:#f1fc06;" x="0.0" xlink:href="#C4_1_2517bb5d0c" y="438.3"/>
    </g>
   </g>
   <g id="PathCollection_6">
    <defs>
     <path d="
M284.745 -91.2704
L310.257 -123.587
L284.745 -145.131
L250.729 -123.587
L284.745 -91.2704
M284.745 -109.3
L269.707 -123.587
L284.745 -133.111
L296.024 -123.587
L284.745 -109.3" id="C5_0_ed8ef37216"/>
    </defs>
    <g clip-path="url(#p7bb22eff51)">
     <use style="fill:#ff7300;" x="0.0" xlink:href="#C5_0_ed8ef37216" y="438.3"/>
    </g>
   </g>
   <g id="PathCollection_7">
    <defs>
     <path d="
M284.745 -109.3
L296.024 -123.587
L284.745 -133.111
L269.707 -123.587
L284.745 -109.3" id="C6_0_c739946f8c"/>
    </defs>
    <g clip-path="url(#p7bb22eff51)">
     <use style="fill:#d10000;" x="0.0" xlink:href="#C6_0_c739946f8c" y="438.3"/>
    </g>
   </g>
   <g id="matplotlib.axis_1">
    <g id="xtick_1">
     <g id="line2d_1">
      <defs>
       <path d="
M0 0
L0 -4" id="m93b0483c22" style="stroke:#000000;stroke-width:0.5;"/>
      </defs>
      <g>
       <use style="stroke:#000000;stroke-width:0.5;" x="216.501676438" xlink:href="#m93b0483c22" y="372.343252242"/>
      </g>
     </g>
     <g id="line2d_2">
      <defs>
       <path d="
M0 0
L0 4" id="m741efc42ff" style="stroke:#000000;stroke-width:0.5;"/>
      </defs>
      <g>
       <use style="stroke:#000000;stroke-width:0.5;" x="216.501676438" xlink:href="#m741efc42ff" y="26.5633066625"/>
      </g>
     </g>
     <g id="text_1">
      <!-- $10^{-3}$ -->
      <defs>
       <path d="
M65.9062 23
C67.5938 23 69.4062 23 69.4062 25
C69.4062 27 67.5938 27 65.9062 27
L11.7969 27
C10.0938 27 8.29688 27 8.29688 25
C8.29688 23 10.0938 23 11.7969 23
z
" id="CMSY10-0"/>
       <path d="
M22.0938 33.7031
C31 33.7031 34.9062 25.9688 34.9062 17.0312
C34.9062 5 28.5 0.390625 22.7031 0.390625
C17.4062 0.390625 8.79688 3.03125 6.09375 10.8281
C6.59375 10.625 7.09375 10.625 7.59375 10.625
C10 10.625 11.7969 12.2188 11.7969 14.8125
C11.7969 17.7031 9.59375 19 7.59375 19
C5.90625 19 3.29688 18.2031 3.29688 14.4688
C3.29688 5.23438 12.2969 -2 22.9062 -2
C34 -2 42.5 6.71875 42.5 16.9531
C42.5 26.6719 34.5 33.6875 25 34.7969
C32.5938 36.375 39.9062 43.0625 39.9062 52.0156
C39.9062 59.6875 32 65.2969 23 65.2969
C13.9062 65.2969 5.90625 59.8281 5.90625 52.0156
C5.90625 48.5938 8.5 48 9.79688 48
C11.9062 48 13.7031 49.2969 13.7031 51.8906
C13.7031 54.4688 11.9062 55.7656 9.79688 55.7656
C9.40625 55.7656 8.90625 55.7656 8.5 55.5625
C11.4062 61.8594 19.2969 63 22.7969 63
C26.2969 63 32.9062 61.3281 32.9062 51.875
C32.9062 49.1094 32.5 44.1875 29.0938 39.8438
C26.0938 36 22.7031 36 19.4062 35.5938
C18.9062 35.5938 16.5938 35.5938 16.2031 35.5938
C15.5 35.4844 15.0938 35.3906 15.0938 34.5938
C15.0938 33.8125 15.2031 33.7031 17.2031 33.7031
z
" id="CMR17-51"/>
       <path d="
M26.5938 63.3125
C26.5938 65.4062 26.5 65.5 25.0938 65.5
C21.2031 61.1875 15.2969 59.7969 9.70312 59.7969
C9.40625 59.7969 8.90625 59.7969 8.79688 59.5
C8.70312 59.2969 8.70312 59.0938 8.70312 57
C11.7969 57 17 57.5938 21 59.9844
L21 7.20312
C21 3.6875 20.7969 2.5 12.2031 2.5
L9.20312 2.5
L9.20312 0
C14 0 19 0 23.7969 0
C28.5938 0 33.5938 0 38.4062 0
L38.4062 2.5
L35.4062 2.5
C26.7969 2.5 26.5938 3.59375 26.5938 7.15625
z
" id="CMR17-49"/>
       <path d="
M42 31.6406
C42 37.75 41.9062 48.125 37.7031 56.1094
C34 63.1094 28.0938 65.5938 22.9062 65.5938
C18.0938 65.5938 12 63.4062 8.20312 56.2031
C4.20312 48.7188 3.79688 39.4375 3.79688 31.6406
C3.79688 25.9531 3.90625 17.2812 7 9.67188
C11.2969 -0.609375 19 -2 22.9062 -2
C27.5 -2 34.5 -0.109375 38.5938 9.375
C41.5938 16.2812 42 24.3594 42 31.6406
M22.9062 -0.40625
C16.5 -0.40625 12.7031 5.07812 11.2969 12.6875
C10.2031 18.5625 10.2031 27.1562 10.2031 32.75
C10.2031 40.4375 10.2031 46.8281 11.5 52.9219
C13.4062 61.3906 19 64 22.9062 64
C27 64 32.2969 61.2969 34.2031 53.125
C35.5 47.4375 35.5938 40.7344 35.5938 32.75
C35.5938 26.25 35.5938 18.2656 34.4062 12.375
C32.2969 1.48438 26.4062 -0.40625 22.9062 -0.40625" id="CMR17-48"/>
      </defs>
      <g transform="translate(198.525257139 393.997692225)scale(0.2 -0.2)">
       <use transform="scale(0.996264009963)" xlink:href="#CMR17-49"/>
       <use transform="translate(45.6904771171 0.0)scale(0.996264009963)" xlink:href="#CMR17-48"/>
       <use transform="translate(91.3809542341 36.1536389419)scale(0.697381766617)" xlink:href="#CMSY10-0"/>
       <use transform="translate(145.621947482 36.1536389419)scale(0.697381766617)" xlink:href="#CMR17-51"/>
      </g>
     </g>
    </g>
    <g id="xtick_2">
     <g id="line2d_3">
      <g>
       <use style="stroke:#000000;stroke-width:0.5;" x="443.979448294" xlink:href="#m93b0483c22" y="372.343252242"/>
      </g>
     </g>
     <g id="line2d_4">
      <g>
       <use style="stroke:#000000;stroke-width:0.5;" x="443.979448294" xlink:href="#m741efc42ff" y="26.5633066625"/>
      </g>
     </g>
     <g id="text_2">
      <!-- $10^{-2}$ -->
      <defs>
       <path d="
M41.7031 15.4531
L39.9062 15.4531
C38.9062 8.375 38.0938 7.17188 37.7031 6.5625
C37.2031 5.76562 30 5.76562 28.5938 5.76562
L9.40625 5.76562
C13 9.67188 20 16.75 28.5 24.9531
C34.5938 30.7344 41.7031 37.5312 41.7031 47.4219
C41.7031 59.2188 32.2969 66 21.7969 66
C10.7969 66 4.09375 56.3125 4.09375 47.3438
C4.09375 43.4375 7 42.9375 8.20312 42.9375
C9.20312 42.9375 12.2031 43.5469 12.2031 47.0312
C12.2031 50.1094 9.59375 51 8.20312 51
C7.59375 51 7 50.9062 6.59375 50.7031
C8.5 59.2188 14.2969 63.4062 20.4062 63.4062
C29.0938 63.4062 34.7969 56.5156 34.7969 47.4219
C34.7969 38.7344 29.7031 31.25 24 24.75
L4.09375 2.28125
L4.09375 0
L39.2969 0
z
" id="CMR17-50"/>
      </defs>
      <g transform="translate(426.003028995 393.997692225)scale(0.2 -0.2)">
       <use transform="scale(0.996264009963)" xlink:href="#CMR17-49"/>
       <use transform="translate(45.6904771171 0.0)scale(0.996264009963)" xlink:href="#CMR17-48"/>
       <use transform="translate(91.3809542341 36.1536389419)scale(0.697381766617)" xlink:href="#CMSY10-0"/>
       <use transform="translate(145.621947482 36.1536389419)scale(0.697381766617)" xlink:href="#CMR17-50"/>
      </g>
     </g>
    </g>
    <g id="xtick_3">
     <g id="line2d_5">
      <defs>
       <path d="
M0 0
L0 -2" id="m177f7580d0" style="stroke:#000000;stroke-width:0.5;"/>
      </defs>
      <g>
       <use style="stroke:#000000;stroke-width:0.5;" x="97.5583845114" xlink:href="#m177f7580d0" y="372.343252242"/>
      </g>
     </g>
     <g id="line2d_6">
      <defs>
       <path d="
M0 0
L0 2" id="m5284c7e2a0" style="stroke:#000000;stroke-width:0.5;"/>
      </defs>
      <g>
       <use style="stroke:#000000;stroke-width:0.5;" x="97.5583845114" xlink:href="#m5284c7e2a0" y="26.5633066625"/>
      </g>
     </g>
    </g>
    <g id="xtick_4">
     <g id="line2d_7">
      <g>
       <use style="stroke:#000000;stroke-width:0.5;" x="125.979169933" xlink:href="#m177f7580d0" y="372.343252242"/>
      </g>
     </g>
     <g id="line2d_8">
      <g>
       <use style="stroke:#000000;stroke-width:0.5;" x="125.979169933" xlink:href="#m5284c7e2a0" y="26.5633066625"/>
      </g>
     </g>
    </g>
    <g id="xtick_5">
     <g id="line2d_9">
      <g>
       <use style="stroke:#000000;stroke-width:0.5;" x="148.024043763" xlink:href="#m177f7580d0" y="372.343252242"/>
      </g>
     </g>
     <g id="line2d_10">
      <g>
       <use style="stroke:#000000;stroke-width:0.5;" x="148.024043763" xlink:href="#m5284c7e2a0" y="26.5633066625"/>
      </g>
     </g>
    </g>
    <g id="xtick_6">
     <g id="line2d_11">
      <g>
       <use style="stroke:#000000;stroke-width:0.5;" x="166.036017187" xlink:href="#m177f7580d0" y="372.343252242"/>
      </g>
     </g>
     <g id="line2d_12">
      <g>
       <use style="stroke:#000000;stroke-width:0.5;" x="166.036017187" xlink:href="#m5284c7e2a0" y="26.5633066625"/>
      </g>
     </g>
    </g>
    <g id="xtick_7">
     <g id="line2d_13">
      <g>
       <use style="stroke:#000000;stroke-width:0.5;" x="181.264923725" xlink:href="#m177f7580d0" y="372.343252242"/>
      </g>
     </g>
     <g id="line2d_14">
      <g>
       <use style="stroke:#000000;stroke-width:0.5;" x="181.264923725" xlink:href="#m5284c7e2a0" y="26.5633066625"/>
      </g>
     </g>
    </g>
    <g id="xtick_8">
     <g id="line2d_15">
      <g>
       <use style="stroke:#000000;stroke-width:0.5;" x="194.456802609" xlink:href="#m177f7580d0" y="372.343252242"/>
      </g>
     </g>
     <g id="line2d_16">
      <g>
       <use style="stroke:#000000;stroke-width:0.5;" x="194.456802609" xlink:href="#m5284c7e2a0" y="26.5633066625"/>
      </g>
     </g>
    </g>
    <g id="xtick_9">
     <g id="line2d_17">
      <g>
       <use style="stroke:#000000;stroke-width:0.5;" x="206.09286444" xlink:href="#m177f7580d0" y="372.343252242"/>
      </g>
     </g>
     <g id="line2d_18">
      <g>
       <use style="stroke:#000000;stroke-width:0.5;" x="206.09286444" xlink:href="#m5284c7e2a0" y="26.5633066625"/>
      </g>
     </g>
    </g>
    <g id="xtick_10">
     <g id="line2d_19">
      <g>
       <use style="stroke:#000000;stroke-width:0.5;" x="284.979309114" xlink:href="#m177f7580d0" y="372.343252242"/>
      </g>
     </g>
     <g id="line2d_20">
      <g>
       <use style="stroke:#000000;stroke-width:0.5;" x="284.979309114" xlink:href="#m5284c7e2a0" y="26.5633066625"/>
      </g>
     </g>
    </g>
    <g id="xtick_11">
     <g id="line2d_21">
      <g>
       <use style="stroke:#000000;stroke-width:0.5;" x="325.036156367" xlink:href="#m177f7580d0" y="372.343252242"/>
      </g>
     </g>
     <g id="line2d_22">
      <g>
       <use style="stroke:#000000;stroke-width:0.5;" x="325.036156367" xlink:href="#m5284c7e2a0" y="26.5633066625"/>
      </g>
     </g>
    </g>
    <g id="xtick_12">
     <g id="line2d_23">
      <g>
       <use style="stroke:#000000;stroke-width:0.5;" x="353.456941789" xlink:href="#m177f7580d0" y="372.343252242"/>
      </g>
     </g>
     <g id="line2d_24">
      <g>
       <use style="stroke:#000000;stroke-width:0.5;" x="353.456941789" xlink:href="#m5284c7e2a0" y="26.5633066625"/>
      </g>
     </g>
    </g>
    <g id="xtick_13">
     <g id="line2d_25">
      <g>
       <use style="stroke:#000000;stroke-width:0.5;" x="375.501815619" xlink:href="#m177f7580d0" y="372.343252242"/>
      </g>
     </g>
     <g id="line2d_26">
      <g>
       <use style="stroke:#000000;stroke-width:0.5;" x="375.501815619" xlink:href="#m5284c7e2a0" y="26.5633066625"/>
      </g>
     </g>
    </g>
    <g id="xtick_14">
     <g id="line2d_27">
      <g>
       <use style="stroke:#000000;stroke-width:0.5;" x="393.513789042" xlink:href="#m177f7580d0" y="372.343252242"/>
      </g>
     </g>
     <g id="line2d_28">
      <g>
       <use style="stroke:#000000;stroke-width:0.5;" x="393.513789042" xlink:href="#m5284c7e2a0" y="26.5633066625"/>
      </g>
     </g>
    </g>
    <g id="xtick_15">
     <g id="line2d_29">
      <g>
       <use style="stroke:#000000;stroke-width:0.5;" x="408.74269558" xlink:href="#m177f7580d0" y="372.343252242"/>
      </g>
     </g>
     <g id="line2d_30">
      <g>
       <use style="stroke:#000000;stroke-width:0.5;" x="408.74269558" xlink:href="#m5284c7e2a0" y="26.5633066625"/>
      </g>
     </g>
    </g>
    <g id="xtick_16">
     <g id="line2d_31">
      <g>
       <use style="stroke:#000000;stroke-width:0.5;" x="421.934574464" xlink:href="#m177f7580d0" y="372.343252242"/>
      </g>
     </g>
     <g id="line2d_32">
      <g>
       <use style="stroke:#000000;stroke-width:0.5;" x="421.934574464" xlink:href="#m5284c7e2a0" y="26.5633066625"/>
      </g>
     </g>
    </g>
    <g id="xtick_17">
     <g id="line2d_33">
      <g>
       <use style="stroke:#000000;stroke-width:0.5;" x="433.570636295" xlink:href="#m177f7580d0" y="372.343252242"/>
      </g>
     </g>
     <g id="line2d_34">
      <g>
       <use style="stroke:#000000;stroke-width:0.5;" x="433.570636295" xlink:href="#m5284c7e2a0" y="26.5633066625"/>
      </g>
     </g>
    </g>
    <g id="text_3">
     <!-- deleterious effect -->
     <defs>
      <path d="
M51.2969 24
C51.2969 31.875 50.7031 36.5938 49.2031 40.4219
C45.7969 48.875 37.7969 54 28 54
C13.4062 54 4 42.8438 4 25.7031
C4 8.54688 13.0938 -2 27.7969 -2
C39.7969 -2 48.0938 4.875 50.2031 16.375
L41.7969 16.375
C39.5 9.35938 34.7969 5.70312 28.0938 5.70312
C22.7969 5.70312 18.2969 8.14062 15.5 12.6094
C13.5 15.6562 12.7969 18.7188 12.7031 24
z

M12.9062 30.8125
C13.5938 40.1875 19.5 46.2812 27.9062 46.2812
C36.0938 46.2812 42.4062 39.7031 42.4062 31.4062
C42.4062 31.2031 42.4062 31.0156 42.2969 30.8125
z
" id="Nimbus_Sans_L_Regular-101"/>
      <path d="
M25.7969 52
L17.0938 52
L17.0938 60.25
C17.0938 63.7812 19.0938 65.5938 22.9062 65.5938
C23.5938 65.5938 23.9062 65.5938 25.7969 65.5938
L25.7969 72.5
C23.9062 72.9062 22.7969 73 21.0938 73
C13.4062 73 8.79688 68.5625 8.79688 60.9844
L8.79688 52
L1.79688 52
L1.79688 45.1875
L8.79688 45.1875
L8.79688 -0.40625
L17.0938 -0.40625
L17.0938 45.1875
L25.7969 45.1875
z
" id="Nimbus_Sans_L_Regular-102"/>
      <path d="
M48.2031 0.515625
L48.2031 53
L39.9062 53
L39.9062 23.1094
C39.9062 12.3438 34.2969 5.3125 25.5938 5.3125
C19 5.3125 14.7969 9.32812 14.7969 15.6719
L14.7969 53
L6.5 53
L6.5 12.375
C6.5 3.625 13 -2 23.2031 -2
C30.9062 -2 35.7969 0.703125 40.7031 7.625
L40.7031 0.515625
z
" id="Nimbus_Sans_L_Regular-117"/>
      <path d="
M15.2031 73
L6.79688 73
L6.79688 -0.03125
L15.2031 -0.03125
z
" id="Nimbus_Sans_L_Regular-108"/>
      <path d="
M47.0938 34.9375
C46.7031 40.0312 45.5938 43.3281 43.5938 46.2188
C40 51.1094 33.7031 54 26.4062 54
C12.2969 54 3.09375 42.8438 3.09375 25.5
C3.09375 8.65625 12.0938 -2 26.2969 -2
C38.7969 -2 46.7031 5.46875 47.7031 18.2344
L39.2969 18.2344
C37.9062 9.875 33.5938 5.70312 26.5 5.70312
C17.2969 5.70312 11.7969 13.1719 11.7969 25.5
C11.7969 38.5312 17.2031 46.2812 26.2969 46.2812
C33.2969 46.2812 37.7031 42.2031 38.7031 34.9375
z
" id="Nimbus_Sans_L_Regular-99"/>
      <path d="
M15 52.4844
L6.70312 52.4844
L6.70312 0
L15 0
z

M15 73
L6.59375 73
L6.59375 62.4844
L15 62.4844
z
" id="Nimbus_Sans_L_Regular-105"/>
      <path d="
M27.2031 54
C12.5 54 3.59375 43.5312 3.59375 26
C3.59375 8.45312 12.4062 -2 27.2969 -2
C42 -2 51 8.45312 51 25.5938
C51 43.6406 42.2969 54 27.2031 54
M27.2969 46.2812
C36.7031 46.2812 42.2969 38.625 42.2969 25.7031
C42.2969 13.4531 36.5 5.70312 27.2969 5.70312
C18 5.70312 12.2969 13.3594 12.2969 26
C12.2969 38.5312 18 46.2812 27.2969 46.2812" id="Nimbus_Sans_L_Regular-111"/>
      <path d="
M25.4062 52.8125
L16.7969 52.8125
L16.7969 67
L8.5 67
L8.5 52.8125
L1.40625 52.8125
L1.40625 46
L8.5 46
L8.5 6.3125
C8.5 1 12.0938 -2 18.5938 -2
C20.5938 -2 22.5938 -1.8125 25.4062 -1.29688
L25.4062 5.71875
C24.2969 5.40625 23 5.3125 21.4062 5.3125
C17.7969 5.3125 16.7969 6.3125 16.7969 10.0156
L16.7969 46
L25.4062 46
z
" id="Nimbus_Sans_L_Regular-116"/>
      <path d="
M49.5 73
L41.2031 73
L41.2031 45.8906
C37.7031 51.1875 32.0938 54 25.0938 54
C11.5 54 2.59375 43.1406 2.59375 26.4844
C2.59375 8.84375 11.2969 -2 25.4062 -2
C32.5938 -2 37.5938 0.703125 42.0938 7.20312
L42.0938 -0.03125
L49.5 -0.03125
z

M26.5 46.1875
C35.5 46.1875 41.2031 38.2344 41.2031 25.7969
C41.2031 13.7656 35.4062 5.8125 26.5938 5.8125
C17.4062 5.8125 11.2969 13.8594 11.2969 26
C11.2969 38.125 17.4062 46.1875 26.5 46.1875" id="Nimbus_Sans_L_Regular-100"/>
      <path d="
M6.90625 52.4844
L6.90625 0
L15.2969 0
L15.2969 27.25
C15.2969 34.7656 17.2031 39.6719 21.2031 42.5781
C23.7969 44.4844 26.2969 45.0781 32.0938 45.0781
L32.0938 53.7031
C30.7031 53.8906 30 54 28.9062 54
C23.5 54 19.4062 50.7812 14.5938 42.9688
L14.5938 52.4844
z
" id="Nimbus_Sans_L_Regular-114"/>
      <path d="
M43.7969 37.9219
C43.7031 48.2031 36.9062 54 24.7969 54
C12.5938 54 4.70312 47.7188 4.70312 38.0625
C4.70312 29.8906 8.90625 26.0156 21.2969 23.0312
L29.0938 21.1406
C34.9062 19.7344 37.2031 17.6562 37.2031 13.875
C37.2031 9 32.2969 5.70312 25 5.70312
C20.5 5.70312 16.7031 7 14.5938 9.1875
C13.2969 10.6875 12.7031 12.1719 12.2031 15.8438
L3.40625 15.8438
C3.79688 3.76562 10.5938 -2 24.2969 -2
C37.5 -2 45.9062 4.45312 45.9062 14.5156
C45.9062 22.2812 41.5 26.5781 31.0938 29.0625
L23.0938 30.9531
C16.2969 32.5312 13.4062 34.7344 13.4062 38.4062
C13.4062 43.1875 17.7031 46.2812 24.5 46.2812
C31.2031 46.2812 34.7969 43.3906 35 37.9219
z
" id="Nimbus_Sans_L_Regular-115"/>
     </defs>
     <g transform="translate(209.029946555 424.575686783)scale(0.2 -0.2)">
      <use transform="scale(0.996264009963)" xlink:href="#Nimbus_Sans_L_Regular-100"/>
      <use transform="translate(55.3916769633 0.0)scale(0.996264009963)" xlink:href="#Nimbus_Sans_L_Regular-101"/>
      <use transform="translate(110.783353927 0.0)scale(0.996264009963)" xlink:href="#Nimbus_Sans_L_Regular-108"/>
      <use transform="translate(132.900138275 0.0)scale(0.996264009963)" xlink:href="#Nimbus_Sans_L_Regular-101"/>
      <use transform="translate(188.291815239 0.0)scale(0.996264009963)" xlink:href="#Nimbus_Sans_L_Regular-116"/>
      <use transform="translate(215.986984842 0.0)scale(0.996264009963)" xlink:href="#Nimbus_Sans_L_Regular-101"/>
      <use transform="translate(271.378661805 0.0)scale(0.996264009963)" xlink:href="#Nimbus_Sans_L_Regular-114"/>
      <use transform="translate(306.04726903 0.0)scale(0.996264009963)" xlink:href="#Nimbus_Sans_L_Regular-105"/>
      <use transform="translate(328.164053379 0.0)scale(0.996264009963)" xlink:href="#Nimbus_Sans_L_Regular-111"/>
      <use transform="translate(383.555730342 0.0)scale(0.996264009963)" xlink:href="#Nimbus_Sans_L_Regular-117"/>
      <use transform="translate(438.947407306 0.0)scale(0.996264009963)" xlink:href="#Nimbus_Sans_L_Regular-115"/>
      <use transform="translate(516.455777407 0.0)scale(0.996264009963)" xlink:href="#Nimbus_Sans_L_Regular-101"/>
      <use transform="translate(571.84745437 0.0)scale(0.996264009963)" xlink:href="#Nimbus_Sans_L_Regular-102"/>
      <use transform="translate(599.542623974 0.0)scale(0.996264009963)" xlink:href="#Nimbus_Sans_L_Regular-102"/>
      <use transform="translate(624.251023384 0.0)scale(0.996264009963)" xlink:href="#Nimbus_Sans_L_Regular-101"/>
      <use transform="translate(679.642700347 0.0)scale(0.996264009963)" xlink:href="#Nimbus_Sans_L_Regular-99"/>
      <use transform="translate(729.455900845 0.0)scale(0.996264009963)" xlink:href="#Nimbus_Sans_L_Regular-116"/>
     </g>
    </g>
   </g>
   <g id="matplotlib.axis_2">
    <g id="ytick_1">
     <g id="line2d_35">
      <defs>
       <path d="
M0 0
L4 0" id="m728421d6d4" style="stroke:#000000;stroke-width:0.5;"/>
      </defs>
      <g>
       <use style="stroke:#000000;stroke-width:0.5;" x="80.015013325" xlink:href="#m728421d6d4" y="372.343252242"/>
      </g>
     </g>
     <g id="line2d_36">
      <defs>
       <path d="
M0 0
L-4 0" id="mcb0005524f" style="stroke:#000000;stroke-width:0.5;"/>
      </defs>
      <g>
       <use style="stroke:#000000;stroke-width:0.5;" x="489.475002665" xlink:href="#mcb0005524f" y="372.343252242"/>
      </g>
     </g>
     <g id="text_4">
      <!-- $0.05$ -->
      <defs>
       <path d="
M11.4062 57.6875
C12.4062 57.2812 16.5 56 20.7031 56
C30 56 35.0938 61.0156 38 63.9219
C38 64.7344 38 65.25 37.4062 65.25
C37.2969 65.25 37.0938 65.25 36.2969 64.8281
C32.7969 63.3125 28.7031 62.0781 23.7031 62.0781
C20.7031 62.0781 16.2031 62.5 11.2969 64.7344
C10.2031 65.25 10 65.25 9.90625 65.25
C9.40625 65.25 9.29688 65.1406 9.29688 63.1562
L9.29688 34.2812
C9.29688 32.5 9.29688 32 10.2969 32
C10.7969 32 11 32.2031 11.5 32.9062
C14.7031 37.4844 19.0938 39.4062 24.0938 39.4062
C27.5938 39.4062 35.0938 37.2188 35.0938 20.1406
C35.0938 16.9531 35.0938 11.1719 32.0938 6.57812
C29.5938 2.48438 25.7031 0.390625 21.4062 0.390625
C14.7969 0.390625 8.09375 5 6.29688 12.7188
C6.70312 12.6094 7.5 12.4219 7.90625 12.4219
C9.20312 12.4219 11.7031 13.125 11.7031 16.2188
C11.7031 18.9062 9.79688 20 7.90625 20
C5.59375 20 4.09375 18.5938 4.09375 15.7969
C4.09375 7.09375 11 -2 21.5938 -2
C31.9062 -2 41.7031 6.875 41.7031 19.75
C41.7031 31.7188 33.9062 41 24.2031 41
C19.0938 41 14.7969 39.0938 11.4062 35.4531
z
" id="CMR17-53"/>
       <path d="
M18.4062 4.79688
C18.4062 7.6875 16 9.67188 13.5938 9.67188
C10.7031 9.67188 8.70312 7.28125 8.70312 4.89062
C8.70312 2 11.0938 0 13.5 0
C16.4062 0 18.4062 2.39062 18.4062 4.79688" id="CMMI12-58"/>
      </defs>
      <g transform="translate(43.1812916368 377.319586107)scale(0.2 -0.2)">
       <use transform="scale(0.996264009963)" xlink:href="#CMR17-48"/>
       <use transform="translate(45.6904771171 0.0)scale(0.996264009963)" xlink:href="#CMMI12-58"/>
       <use transform="translate(72.7876542069 0.0)scale(0.996264009963)" xlink:href="#CMR17-48"/>
       <use transform="translate(118.478131324 0.0)scale(0.996264009963)" xlink:href="#CMR17-53"/>
      </g>
     </g>
    </g>
    <g id="ytick_2">
     <g id="line2d_37">
      <g>
       <use style="stroke:#000000;stroke-width:0.5;" x="80.015013325" xlink:href="#m728421d6d4" y="314.713261312"/>
      </g>
     </g>
     <g id="line2d_38">
      <g>
       <use style="stroke:#000000;stroke-width:0.5;" x="489.475002665" xlink:href="#mcb0005524f" y="314.713261312"/>
      </g>
     </g>
     <g id="text_5">
      <!-- $0.16$ -->
      <defs>
       <path d="
M10.5938 34
C10.5938 57.6562 21.7969 63 28.2969 63
C30.4062 63 35.5 62.6406 37.5 59
C35.9062 59 32.9062 59 32.9062 55.5156
C32.9062 52.8281 35.0938 51.9219 36.5 51.9219
C37.4062 51.9219 40.0938 52.3125 40.0938 55.625
C40.0938 61.7812 35.0938 65.2969 28.2031 65.2969
C16.2969 65.2969 3.79688 52.9688 3.79688 31
C3.79688 3.95312 15.0938 -2 23.0938 -2
C32.7969 -2 42 6.67188 42 20.0469
C42 32.5156 33.9062 41.5938 23.7031 41.5938
C17.5938 41.5938 13.0938 37.6094 10.5938 30.625
z

M23.0938 0.390625
C10.7969 0.390625 10.7969 18.75 10.7969 22.4375
C10.7969 29.625 14.2031 40 23.5 40
C25.2031 40 30.0938 40 33.4062 33.125
C35.2031 29.2188 35.2031 25.1406 35.2031 20.1406
C35.2031 14.75 35.2031 10.7812 33.0938 6.78125
C30.9062 2.67188 27.7031 0.390625 23.0938 0.390625" id="CMR17-54"/>
      </defs>
      <g transform="translate(43.1812916368 319.689595177)scale(0.2 -0.2)">
       <use transform="scale(0.996264009963)" xlink:href="#CMR17-48"/>
       <use transform="translate(45.6904771171 0.0)scale(0.996264009963)" xlink:href="#CMMI12-58"/>
       <use transform="translate(72.7876542069 0.0)scale(0.996264009963)" xlink:href="#CMR17-49"/>
       <use transform="translate(118.478131324 0.0)scale(0.996264009963)" xlink:href="#CMR17-54"/>
      </g>
     </g>
    </g>
    <g id="ytick_3">
     <g id="line2d_39">
      <g>
       <use style="stroke:#000000;stroke-width:0.5;" x="80.015013325" xlink:href="#m728421d6d4" y="257.083270382"/>
      </g>
     </g>
     <g id="line2d_40">
      <g>
       <use style="stroke:#000000;stroke-width:0.5;" x="489.475002665" xlink:href="#mcb0005524f" y="257.083270382"/>
      </g>
     </g>
     <g id="text_6">
      <!-- $0.27$ -->
      <defs>
       <path d="
M45.0938 61.5781
L45.0938 63.7656
L21.5938 63.7656
C9.90625 63.7656 9.70312 65.0781 9.29688 67
L7.5 67
L4.59375 48.3438
L6.40625 48.3438
C6.70312 50.2344 7.40625 55.3125 8.59375 57.2031
C9.20312 58 16.5938 58 18.2969 58
L40.2969 58
L29.2031 41.5781
C21.7969 30.5312 16.7031 15.6094 16.7031 2.57812
C16.7031 1.39062 16.7031 -2 20.2969 -2
C23.9062 -2 23.9062 1.39062 23.9062 2.67188
L23.9062 7.26562
C23.9062 23.5625 26.7031 34.3125 31.2969 41.1875
z
" id="CMR17-55"/>
      </defs>
      <g transform="translate(43.1812916368 262.059604247)scale(0.2 -0.2)">
       <use transform="scale(0.996264009963)" xlink:href="#CMR17-48"/>
       <use transform="translate(45.6904771171 0.0)scale(0.996264009963)" xlink:href="#CMMI12-58"/>
       <use transform="translate(72.7876542069 0.0)scale(0.996264009963)" xlink:href="#CMR17-50"/>
       <use transform="translate(118.478131324 0.0)scale(0.996264009963)" xlink:href="#CMR17-55"/>
      </g>
     </g>
    </g>
    <g id="ytick_4">
     <g id="line2d_41">
      <g>
       <use style="stroke:#000000;stroke-width:0.5;" x="80.015013325" xlink:href="#m728421d6d4" y="199.453279452"/>
      </g>
     </g>
     <g id="line2d_42">
      <g>
       <use style="stroke:#000000;stroke-width:0.5;" x="489.475002665" xlink:href="#mcb0005524f" y="199.453279452"/>
      </g>
     </g>
     <g id="text_7">
      <!-- $0.38$ -->
      <defs>
       <path d="
M27.2031 35.375
C33.5 38.5625 39.9062 43.3281 39.9062 50.9844
C39.9062 60.0312 31.0938 65.2969 23 65.2969
C13.9062 65.2969 5.90625 58.7344 5.90625 49.6875
C5.90625 47.2031 6.5 42.9219 10.4062 39.1406
C11.4062 38.1562 15.5938 35.1719 18.2969 33.2812
C13.7969 30.9844 3.29688 25.5312 3.29688 14.5938
C3.29688 4.35938 13.0938 -2 22.7969 -2
C33.5 -2 42.5 5.65625 42.5 15.7969
C42.5 24.8438 36.4062 29.0312 32.4062 31.7031
z

M14.0938 44.125
C13.2969 44.625 9.29688 47.7031 9.29688 52.375
C9.29688 58.4375 15.5938 63 22.7969 63
C30.7031 63 36.5 57.4531 36.5 50.9844
C36.5 41.7344 26.0938 36.4688 25.5938 36.4688
C25.5 36.4688 25.4062 36.4688 24.5938 37.0781
z

M32.5 23.7344
C34 22.6406 38.7969 19.375 38.7969 13.2969
C38.7969 5.95312 31.4062 0.390625 23 0.390625
C13.9062 0.390625 7 6.84375 7 14.6875
C7 22.5469 13.0938 29.0938 20 32.1875
z
" id="CMR17-56"/>
      </defs>
      <g transform="translate(43.1812916368 204.429613317)scale(0.2 -0.2)">
       <use transform="scale(0.996264009963)" xlink:href="#CMR17-48"/>
       <use transform="translate(45.6904771171 0.0)scale(0.996264009963)" xlink:href="#CMMI12-58"/>
       <use transform="translate(72.7876542069 0.0)scale(0.996264009963)" xlink:href="#CMR17-51"/>
       <use transform="translate(118.478131324 0.0)scale(0.996264009963)" xlink:href="#CMR17-56"/>
      </g>
     </g>
    </g>
    <g id="ytick_5">
     <g id="line2d_43">
      <g>
       <use style="stroke:#000000;stroke-width:0.5;" x="80.015013325" xlink:href="#m728421d6d4" y="141.823288522"/>
      </g>
     </g>
     <g id="line2d_44">
      <g>
       <use style="stroke:#000000;stroke-width:0.5;" x="489.475002665" xlink:href="#mcb0005524f" y="141.823288522"/>
      </g>
     </g>
     <g id="text_8">
      <!-- $0.48$ -->
      <defs>
       <path d="
M33.5938 64.3281
C33.5938 66.4062 33.5 66.5 31.7031 66.5
L2 19.5938
L2 17
L27.7969 17
L27.7969 7.14062
C27.7969 3.5 27.5938 2.5 20.5938 2.5
L18.7031 2.5
L18.7031 0
C21.9062 0 27.2969 0 30.7031 0
C34.0938 0 39.5 0 42.7031 0
L42.7031 2.5
L40.7969 2.5
C33.7969 2.5 33.5938 3.5 33.5938 7.14062
L33.5938 17
L43.7969 17
L43.7969 19.5938
L33.5938 19.5938
z

M28.0938 57.7656
L28.0938 19.5938
L4 19.5938
z
" id="CMR17-52"/>
      </defs>
      <g transform="translate(43.1812916368 146.799622387)scale(0.2 -0.2)">
       <use transform="scale(0.996264009963)" xlink:href="#CMR17-48"/>
       <use transform="translate(45.6904771171 0.0)scale(0.996264009963)" xlink:href="#CMMI12-58"/>
       <use transform="translate(72.7876542069 0.0)scale(0.996264009963)" xlink:href="#CMR17-52"/>
       <use transform="translate(118.478131324 0.0)scale(0.996264009963)" xlink:href="#CMR17-56"/>
      </g>
     </g>
    </g>
    <g id="ytick_6">
     <g id="line2d_45">
      <g>
       <use style="stroke:#000000;stroke-width:0.5;" x="80.015013325" xlink:href="#m728421d6d4" y="84.1932975924"/>
      </g>
     </g>
     <g id="line2d_46">
      <g>
       <use style="stroke:#000000;stroke-width:0.5;" x="489.475002665" xlink:href="#mcb0005524f" y="84.1932975924"/>
      </g>
     </g>
     <g id="text_9">
      <!-- $0.59$ -->
      <defs>
       <path d="
M35.2031 29.125
C35.2031 7.25 26.0938 0.484375 18.5938 0.484375
C16.2969 0.484375 10.7031 0.484375 8.40625 4.59375
C11 4.1875 12.9062 5.57812 12.9062 8.09375
C12.9062 10.8125 10.7031 11.7031 9.29688 11.7031
C8.40625 11.7031 5.70312 11.2969 5.70312 7.90625
C5.70312 1.10938 11.5938 -2 18.7969 -2
C30.2969 -2 42 10.5312 42 32.3906
C42 59.6406 30.7969 65.2969 23.2031 65.2969
C13.2969 65.2969 3.79688 56.6875 3.79688 43.4062
C3.79688 31.1094 11.9062 22 22.0938 22
C30.5 22 34.2031 29.7344 35.2031 33
z

M22.2969 23.5938
C19.5938 23.5938 15.7969 24.0938 12.7031 30.0312
C10.5938 33.8906 10.5938 38.4531 10.5938 43.2969
C10.5938 49.1562 10.5938 53.2031 13.4062 57.5625
C14.7969 59.6406 17.4062 63 23.2031 63
C35 63 35 45.0781 35 41.125
C35 34.0938 31.7969 23.5938 22.2969 23.5938" id="CMR17-57"/>
      </defs>
      <g transform="translate(43.1812916368 89.1696314576)scale(0.2 -0.2)">
       <use transform="scale(0.996264009963)" xlink:href="#CMR17-48"/>
       <use transform="translate(45.6904771171 0.0)scale(0.996264009963)" xlink:href="#CMMI12-58"/>
       <use transform="translate(72.7876542069 0.0)scale(0.996264009963)" xlink:href="#CMR17-53"/>
       <use transform="translate(118.478131324 0.0)scale(0.996264009963)" xlink:href="#CMR17-57"/>
      </g>
     </g>
    </g>
    <g id="ytick_7">
     <g id="line2d_47">
      <g>
       <use style="stroke:#000000;stroke-width:0.5;" x="80.015013325" xlink:href="#m728421d6d4" y="26.5633066625"/>
      </g>
     </g>
     <g id="line2d_48">
      <g>
       <use style="stroke:#000000;stroke-width:0.5;" x="489.475002665" xlink:href="#mcb0005524f" y="26.5633066625"/>
      </g>
     </g>
     <g id="text_10">
      <!-- $0.7$ -->
      <g transform="translate(52.3193870602 31.5396405277)scale(0.2 -0.2)">
       <use transform="scale(0.996264009963)" xlink:href="#CMR17-48"/>
       <use transform="translate(45.6904771171 0.0)scale(0.996264009963)" xlink:href="#CMMI12-58"/>
       <use transform="translate(72.7876542069 0.0)scale(0.996264009963)" xlink:href="#CMR17-55"/>
      </g>
     </g>
    </g>
    <g id="text_11">
     <!-- neutral fraction of syn -->
     <defs>
      <path d="
M7 52.4844
L7 0
L15.4062 0
L15.4062 28.9531
C15.4062 39.6719 21 46.6875 29.5938 46.6875
C36.2031 46.6875 40.4062 42.6719 40.4062 36.3594
L40.4062 0
L48.7031 0
L48.7031 39.6719
C48.7031 48.3906 42.2031 54 32.0938 54
C24.2969 54 19.2969 50.9844 14.7031 43.6875
L14.7031 52.4844
z
" id="Nimbus_Sans_L_Regular-110"/>
      <path d="
M38.7969 52.5
L24.2969 11.5312
L10.9062 52.5
L2 52.5
L19.7031 -0.328125
L16.5 -8.65625
C15.2031 -12.375 13.2969 -13.7812 9.79688 -13.7812
C8.59375 -13.7812 7.20312 -13.5781 5.40625 -13.1719
L5.40625 -20.7031
C7.09375 -21.5938 8.79688 -22 11 -22
C13.7031 -22 16.5938 -21.0938 18.7969 -19.4844
C21.4062 -17.5781 22.9062 -15.3594 24.5 -11.1406
L47.7969 52.5
z
" id="Nimbus_Sans_L_Regular-121"/>
      <path d="
M53.5 5.20312
C52.5938 5 52.2031 5 51.7031 5
C48.7969 5 47.2031 6.48438 47.2031 9.07812
L47.2031 39.7656
C47.2031 49.0156 40.4062 54 27.5 54
C19.9062 54 13.5938 51.8125 10.0938 47.9062
C7.70312 45.2031 6.70312 42.2188 6.5 37.0312
L14.9062 37.0312
C15.5938 43.3906 19.4062 46.2812 27.2031 46.2812
C34.7031 46.2812 38.9062 43.4844 38.9062 38.5156
L38.9062 36.3281
C38.9062 32.8281 36.7969 31.3438 30.2031 30.5469
C18.4062 29.0625 16.5938 28.6562 13.4062 27.3594
C7.29688 24.875 4.20312 20.1875 4.20312 13.4219
C4.20312 3.96875 10.7969 -2 21.4062 -2
C28 -2 33.2969 0.296875 39.2031 5.70312
C39.7969 0.390625 42.4062 -2 47.7969 -2
C49.5 -2 50.7969 -1.8125 53.5 -1.09375
z

M38.9062 16.75
C38.9062 13.9531 38.0938 12.2656 35.5938 9.98438
C32.2031 6.89062 28.0938 5.3125 23.2031 5.3125
C16.7031 5.3125 12.9062 8.39062 12.9062 13.6562
C12.9062 19.1406 16.5938 21.9219 25.5 23.2188
C34.2969 24.4062 36.0938 24.8125 38.9062 26.0938
z
" id="Nimbus_Sans_L_Regular-97"/>
     </defs>
     <g transform="translate(26.6358418069 294.495499362)rotate(-90.0)scale(0.2 -0.2)">
      <use transform="scale(0.996264009963)" xlink:href="#Nimbus_Sans_L_Regular-110"/>
      <use transform="translate(55.3916769633 0.0)scale(0.996264009963)" xlink:href="#Nimbus_Sans_L_Regular-101"/>
      <use transform="translate(110.783353927 0.0)scale(0.996264009963)" xlink:href="#Nimbus_Sans_L_Regular-117"/>
      <use transform="translate(166.17503089 0.0)scale(0.996264009963)" xlink:href="#Nimbus_Sans_L_Regular-116"/>
      <use transform="translate(193.870200493 0.0)scale(0.996264009963)" xlink:href="#Nimbus_Sans_L_Regular-114"/>
      <use transform="translate(226.049333432 0.0)scale(0.996264009963)" xlink:href="#Nimbus_Sans_L_Regular-97"/>
      <use transform="translate(281.441010396 0.0)scale(0.996264009963)" xlink:href="#Nimbus_Sans_L_Regular-108"/>
      <use transform="translate(331.252964348 0.0)scale(0.996264009963)" xlink:href="#Nimbus_Sans_L_Regular-102"/>
      <use transform="translate(358.948133951 0.0)scale(0.996264009963)" xlink:href="#Nimbus_Sans_L_Regular-114"/>
      <use transform="translate(391.12726689 0.0)scale(0.996264009963)" xlink:href="#Nimbus_Sans_L_Regular-97"/>
      <use transform="translate(446.518943853 0.0)scale(0.996264009963)" xlink:href="#Nimbus_Sans_L_Regular-99"/>
      <use transform="translate(496.332144351 0.0)scale(0.996264009963)" xlink:href="#Nimbus_Sans_L_Regular-116"/>
      <use transform="translate(524.027313955 0.0)scale(0.996264009963)" xlink:href="#Nimbus_Sans_L_Regular-105"/>
      <use transform="translate(546.144098303 0.0)scale(0.996264009963)" xlink:href="#Nimbus_Sans_L_Regular-111"/>
      <use transform="translate(601.535775267 0.0)scale(0.996264009963)" xlink:href="#Nimbus_Sans_L_Regular-110"/>
      <use transform="translate(684.622621833 0.0)scale(0.996264009963)" xlink:href="#Nimbus_Sans_L_Regular-111"/>
      <use transform="translate(740.014298797 0.0)scale(0.996264009963)" xlink:href="#Nimbus_Sans_L_Regular-102"/>
      <use transform="translate(795.404638003 0.0)scale(0.996264009963)" xlink:href="#Nimbus_Sans_L_Regular-115"/>
      <use transform="translate(845.217838501 0.0)scale(0.996264009963)" xlink:href="#Nimbus_Sans_L_Regular-121"/>
      <use transform="translate(895.031038999 0.0)scale(0.996264009963)" xlink:href="#Nimbus_Sans_L_Regular-110"/>
     </g>
    </g>
   </g>
   <g id="patch_3">
    <path d="
M80.015 26.5633
L489.475 26.5633" style="fill:none;stroke:#000000;"/>
   </g>
   <g id="patch_4">
    <path d="
M489.475 372.343
L489.475 26.5633" style="fill:none;stroke:#000000;"/>
   </g>
   <g id="patch_5">
    <path d="
M80.015 372.343
L489.475 372.343" style="fill:none;stroke:#000000;"/>
   </g>
   <g id="patch_6">
    <path d="
M80.015 372.343
L80.015 26.5633" style="fill:none;stroke:#000000;"/>
   </g>
  </g>
  <g id="axes_2">
   <g id="patch_7">
    <path clip-path="url(#p6be49ed79f)" d="
M515.066 372.343
L515.066 322.946
L515.066 75.9604
L515.066 26.5633
L532.355 26.5633
L532.355 75.9604
L532.355 322.946
L532.355 372.343
z
" style="fill:#ffffff;stroke:#ffffff;stroke-width:0.01;"/>
   </g>
   <g id="QuadMesh_1">
    <defs>
     <path d="
M515.066 -65.9567
L532.355 -65.9567
L532.355 -115.354
L515.066 -115.354
L515.066 -65.9567" id="C7_0_cf951a397b"/>
     <path d="
M515.066 -115.354
L532.355 -115.354
L532.355 -164.751
L515.066 -164.751
L515.066 -115.354" id="C7_1_5bd36d5843"/>
     <path d="
M515.066 -164.751
L532.355 -164.751
L532.355 -214.148
L515.066 -214.148
L515.066 -164.751" id="C7_2_cd49ffe6a1"/>
     <path d="
M515.066 -214.148
L532.355 -214.148
L532.355 -263.545
L515.066 -263.545
L515.066 -214.148" id="C7_3_66e9c958c4"/>
     <path d="
M515.066 -263.545
L532.355 -263.545
L532.355 -312.942
L515.066 -312.942
L515.066 -263.545" id="C7_4_996084777a"/>
     <path d="
M515.066 -312.942
L532.355 -312.942
L532.355 -362.34
L515.066 -362.34
L515.066 -312.942" id="C7_5_e25302b009"/>
     <path d="
M515.066 -362.34
L532.355 -362.34
L532.355 -411.737
L515.066 -411.737
L515.066 -362.34" id="C7_6_53337ef84a"/>
    </defs>
    <g clip-path="url(#p6be49ed79f)">
     <use style="fill:#0000d1;" x="0.0" xlink:href="#C7_0_cf951a397b" y="438.3"/>
    </g>
    <g clip-path="url(#p6be49ed79f)">
     <use style="fill:#0058ff;" x="0.0" xlink:href="#C7_1_5bd36d5843" y="438.3"/>
    </g>
    <g clip-path="url(#p6be49ed79f)">
     <use style="fill:#06ecf1;" x="0.0" xlink:href="#C7_2_cd49ffe6a1" y="438.3"/>
    </g>
    <g clip-path="url(#p6be49ed79f)">
     <use style="fill:#7dff7a;" x="0.0" xlink:href="#C7_3_66e9c958c4" y="438.3"/>
    </g>
    <g clip-path="url(#p6be49ed79f)">
     <use style="fill:#f1fc06;" x="0.0" xlink:href="#C7_4_996084777a" y="438.3"/>
    </g>
    <g clip-path="url(#p6be49ed79f)">
     <use style="fill:#ff7300;" x="0.0" xlink:href="#C7_5_e25302b009" y="438.3"/>
    </g>
    <g clip-path="url(#p6be49ed79f)">
     <use style="fill:#d10000;" x="0.0" xlink:href="#C7_6_53337ef84a" y="438.3"/>
    </g>
   </g>
   <g id="line2d_49">
    <path d="
M515.066 372.343
L515.066 322.946
L515.066 75.9604
L515.066 26.5633
L532.355 26.5633
L532.355 75.9604
L532.355 322.946
L532.355 372.343
L515.066 372.343" style="fill:none;stroke:#000000;stroke-linecap:square;"/>
   </g>
   <g id="matplotlib.axis_3"/>
   <g id="matplotlib.axis_4">
    <g id="ytick_8">
     <g id="line2d_50">
      <g>
       <use style="stroke:#000000;stroke-width:0.5;" x="532.355249278" xlink:href="#mcb0005524f" y="372.343252242"/>
      </g>
     </g>
     <g id="text_12">
      <!-- $0.0$ -->
      <g transform="translate(536.355249278 377.319586107)scale(0.2 -0.2)">
       <use transform="scale(0.996264009963)" xlink:href="#CMR17-48"/>
       <use transform="translate(45.6904771171 0.0)scale(0.996264009963)" xlink:href="#CMMI12-58"/>
       <use transform="translate(72.7876542069 0.0)scale(0.996264009963)" xlink:href="#CMR17-48"/>
      </g>
     </g>
    </g>
    <g id="ytick_9">
     <g id="line2d_51">
      <g>
       <use style="stroke:#000000;stroke-width:0.5;" x="532.355249278" xlink:href="#mcb0005524f" y="322.946117159"/>
      </g>
     </g>
     <g id="text_13">
      <!-- $0.5$ -->
      <g transform="translate(536.355249278 327.922451024)scale(0.2 -0.2)">
       <use transform="scale(0.996264009963)" xlink:href="#CMR17-48"/>
       <use transform="translate(45.6904771171 0.0)scale(0.996264009963)" xlink:href="#CMMI12-58"/>
       <use transform="translate(72.7876542069 0.0)scale(0.996264009963)" xlink:href="#CMR17-53"/>
      </g>
     </g>
    </g>
    <g id="ytick_10">
     <g id="line2d_52">
      <g>
       <use style="stroke:#000000;stroke-width:0.5;" x="532.355249278" xlink:href="#mcb0005524f" y="273.548982076"/>
      </g>
     </g>
     <g id="text_14">
      <!-- $1.0$ -->
      <g transform="translate(536.355249278 278.525315941)scale(0.2 -0.2)">
       <use transform="scale(0.996264009963)" xlink:href="#CMR17-49"/>
       <use transform="translate(45.6904771171 0.0)scale(0.996264009963)" xlink:href="#CMMI12-58"/>
       <use transform="translate(72.7876542069 0.0)scale(0.996264009963)" xlink:href="#CMR17-48"/>
      </g>
     </g>
    </g>
    <g id="ytick_11">
     <g id="line2d_53">
      <g>
       <use style="stroke:#000000;stroke-width:0.5;" x="532.355249278" xlink:href="#mcb0005524f" y="224.151846993"/>
      </g>
     </g>
     <g id="text_15">
      <!-- $1.5$ -->
      <g transform="translate(536.355249278 229.128180859)scale(0.2 -0.2)">
       <use transform="scale(0.996264009963)" xlink:href="#CMR17-49"/>
       <use transform="translate(45.6904771171 0.0)scale(0.996264009963)" xlink:href="#CMMI12-58"/>
       <use transform="translate(72.7876542069 0.0)scale(0.996264009963)" xlink:href="#CMR17-53"/>
      </g>
     </g>
    </g>
    <g id="ytick_12">
     <g id="line2d_54">
      <g>
       <use style="stroke:#000000;stroke-width:0.5;" x="532.355249278" xlink:href="#mcb0005524f" y="174.754711911"/>
      </g>
     </g>
     <g id="text_16">
      <!-- $2.0$ -->
      <g transform="translate(536.355249278 179.731045776)scale(0.2 -0.2)">
       <use transform="scale(0.996264009963)" xlink:href="#CMR17-50"/>
       <use transform="translate(45.6904771171 0.0)scale(0.996264009963)" xlink:href="#CMMI12-58"/>
       <use transform="translate(72.7876542069 0.0)scale(0.996264009963)" xlink:href="#CMR17-48"/>
      </g>
     </g>
    </g>
    <g id="ytick_13">
     <g id="line2d_55">
      <g>
       <use style="stroke:#000000;stroke-width:0.5;" x="532.355249278" xlink:href="#mcb0005524f" y="125.357576828"/>
      </g>
     </g>
     <g id="text_17">
      <!-- $2.5$ -->
      <g transform="translate(536.355249278 130.333910693)scale(0.2 -0.2)">
       <use transform="scale(0.996264009963)" xlink:href="#CMR17-50"/>
       <use transform="translate(45.6904771171 0.0)scale(0.996264009963)" xlink:href="#CMMI12-58"/>
       <use transform="translate(72.7876542069 0.0)scale(0.996264009963)" xlink:href="#CMR17-53"/>
      </g>
     </g>
    </g>
    <g id="ytick_14">
     <g id="line2d_56">
      <g>
       <use style="stroke:#000000;stroke-width:0.5;" x="532.355249278" xlink:href="#mcb0005524f" y="75.9604417452"/>
      </g>
     </g>
     <g id="text_18">
      <!-- $3.0$ -->
      <g transform="translate(536.355249278 80.9367756104)scale(0.2 -0.2)">
       <use transform="scale(0.996264009963)" xlink:href="#CMR17-51"/>
       <use transform="translate(45.6904771171 0.0)scale(0.996264009963)" xlink:href="#CMMI12-58"/>
       <use transform="translate(72.7876542069 0.0)scale(0.996264009963)" xlink:href="#CMR17-48"/>
      </g>
     </g>
    </g>
    <g id="ytick_15">
     <g id="line2d_57">
      <g>
       <use style="stroke:#000000;stroke-width:0.5;" x="532.355249278" xlink:href="#mcb0005524f" y="26.5633066625"/>
      </g>
     </g>
     <g id="text_19">
      <!-- $3.5$ -->
      <g transform="translate(536.355249278 31.5396405277)scale(0.2 -0.2)">
       <use transform="scale(0.996264009963)" xlink:href="#CMR17-51"/>
       <use transform="translate(45.6904771171 0.0)scale(0.996264009963)" xlink:href="#CMMI12-58"/>
       <use transform="translate(72.7876542069 0.0)scale(0.996264009963)" xlink:href="#CMR17-53"/>
      </g>
     </g>
    </g>
   </g>
  </g>
  <g id="text_20">
   <!-- B -->
   <defs>
    <path d="
M7.90625 0
L40.7969 0
C47.7031 0 52.7969 1.89062 56.7031 6.0625
C60.2969 9.82812 62.2969 14.9844 62.2969 20.6562
C62.2969 29.3906 58.2969 34.6406 49 38.2188
C55.5938 41.3594 59.0938 46.8125 59.0938 54.2969
C59.0938 59.6406 57.0938 64.4062 53.2969 67.8438
C49.5 71.375 44.5 73 37.5 73
L7.90625 73
z

M17.2031 41.2188
L17.2031 64.7812
L35.2031 64.7812
C40.4062 64.7812 43.2969 64.0625 45.7969 62.1406
C48.4062 60.1094 49.7969 57.0625 49.7969 52.9844
C49.7969 49.0312 48.4062 45.8906 45.7969 43.8438
C43.2969 41.9219 40.4062 41.2188 35.2031 41.2188
z

M17.2031 8.21875
L17.2031 33
L39.9062 33
C44.4062 33 47.4062 31.9062 49.5938 29.5469
C51.7969 27.2656 53 24.1094 53 20.5625
C53 17.1094 51.7969 13.9531 49.5938 11.6719
C47.4062 9.29688 44.4062 8.21875 39.9062 8.21875
z
" id="Nimbus_Sans_L_Regular-66"/>
   </defs>
   <g transform="translate(11.52 35.064)scale(0.24 -0.24)">
    <use transform="scale(0.996264009963)" xlink:href="#Nimbus_Sans_L_Regular-66"/>
   </g>
  </g>
 </g>
 <defs>
  <clipPath id="p7bb22eff51">
   <rect height="345.779945579" width="409.45998934" x="80.015013325" y="26.5633066625"/>
  </clipPath>
  <clipPath id="p6be49ed79f">
   <rect height="345.779945579" width="17.288997279" x="515.066251999" y="26.5633066625"/>
  </clipPath>
 </defs>
</svg>
