<?xml version="1.0" encoding="utf-8" standalone="no"?>
<!DOCTYPE svg PUBLIC "-//W3C//DTD SVG 1.1//EN"
  "http://www.w3.org/Graphics/SVG/1.1/DTD/svg11.dtd">
<!-- Created with matplotlib (http://matplotlib.org/) -->
<svg height="432pt" version="1.1" viewBox="0 0 576 432" width="576pt" xmlns="http://www.w3.org/2000/svg" xmlns:xlink="http://www.w3.org/1999/xlink">
 <defs>
  <style type="text/css">
*{stroke-linecap:square;stroke-linejoin:round;}
  </style>
 </defs>
 <g id="figure_1">
  <g id="patch_1">
   <path d="
M0 432
L576 432
L576 0
L0 0
z
" style="fill:#ffffff;"/>
  </g>
  <g id="axes_1">
   <g id="patch_2">
    <path d="
M72 388.8
L518.4 388.8
L518.4 43.2
L72 43.2
z
" style="fill:#ffffff;"/>
   </g>
   <g id="line2d_1">
    <path clip-path="url(#p7ff5b81e1d)" d="
M92.2909 378
L153.164 368.882
L193.745 354.475
L234.327 347.455
L274.909 342.33
L315.491 326.571
L366.218 316.992
L427.091 259.548
L498.109 162" style="fill:none;stroke:#0000ff;stroke-dasharray:6.000000,6.000000;stroke-dashoffset:0.0;stroke-linecap:butt;stroke-width:2;"/>
   </g>
   <g id="line2d_2">
    <path clip-path="url(#p7ff5b81e1d)" d="
M92.2909 378
L153.164 206.404
L193.745 186.338
L234.327 186.828
L274.909 174.789
L315.491 171.191
L366.218 166.937
L427.091 164.262
L498.109 162" style="fill:none;stroke:#0000ff;stroke-width:2;"/>
   </g>
   <g id="line2d_3">
    <path clip-path="url(#p7ff5b81e1d)" d="
M92.2909 378
L153.164 370.09
L193.745 354.996
L234.327 350.029
L274.909 337.955
L315.491 325.2
L366.218 309.388
L427.091 273.273
L498.109 162" style="fill:none;stroke:#008000;stroke-dasharray:6.000000,6.000000;stroke-dashoffset:0.0;stroke-linecap:butt;stroke-width:2;"/>
   </g>
   <g id="line2d_4">
    <path clip-path="url(#p7ff5b81e1d)" d="
M92.2909 378
L153.164 266.74
L193.745 241.763
L234.327 228.857
L274.909 214.286
L315.491 208.218
L366.218 195.517
L427.091 181.248
L498.109 162" style="fill:none;stroke:#008000;stroke-width:2;"/>
   </g>
   <g id="line2d_5">
    <path clip-path="url(#p7ff5b81e1d)" d="
M92.2909 378
L153.164 373.488
L193.745 365.104
L234.327 357.639
L274.909 343.44
L315.491 330.312
L366.218 332.308
L427.091 291.6
L498.109 162" style="fill:none;stroke:#ff0000;stroke-dasharray:6.000000,6.000000;stroke-dashoffset:0.0;stroke-linecap:butt;stroke-width:2;"/>
   </g>
   <g id="line2d_6">
    <path clip-path="url(#p7ff5b81e1d)" d="
M92.2909 378
L153.164 303.109
L193.745 280.881
L234.327 262.618
L274.909 244.08
L315.491 227.05
L366.218 210.706
L427.091 188.417
L498.109 162" style="fill:none;stroke:#ff0000;stroke-width:2;"/>
   </g>
   <g id="line2d_7">
    <path clip-path="url(#p7ff5b81e1d)" d="
M92.2909 378
L153.164 370.604
L193.745 358.364
L234.327 348.3
L274.909 347.76
L315.491 335.172
L366.218 323.455
L427.091 272.038
L498.109 162" style="fill:none;stroke:#00ffff;stroke-dasharray:6.000000,6.000000;stroke-dashoffset:0.0;stroke-linecap:butt;stroke-width:2;"/>
   </g>
   <g id="line2d_8">
    <path clip-path="url(#p7ff5b81e1d)" d="
M92.2909 378
L153.164 241.912
L193.745 221.104
L234.327 209.127
L274.909 202
L315.491 196.626
L366.218 182.16
L427.091 171.57
L498.109 162" style="fill:none;stroke:#00ffff;stroke-width:2;"/>
   </g>
   <g id="line2d_9">
    <path clip-path="url(#p7ff5b81e1d)" d="
M92.2909 378
L153.164 370.36
L193.745 357.783
L234.327 344.535
L274.909 340.374
L315.491 330.632
L366.218 308.4
L427.091 267.796
L498.109 162" style="fill:none;stroke:#ff00ff;stroke-dasharray:6.000000,6.000000;stroke-dashoffset:0.0;stroke-linecap:butt;stroke-width:2;"/>
   </g>
   <g id="line2d_10">
    <path clip-path="url(#p7ff5b81e1d)" d="
M92.2909 378
L153.164 254.336
L193.745 238.645
L234.327 240.675
L274.909 226.478
L315.491 223.953
L366.218 202.865
L427.091 181.2
L498.109 162" style="fill:none;stroke:#ff00ff;stroke-width:2;"/>
   </g>
   <g id="line2d_11">
    <path clip-path="url(#p7ff5b81e1d)" d="
M92.2909 378
L96.3901 375.818
L100.489 373.636
L104.588 371.455
L108.688 369.273
L112.787 367.091
L116.886 364.909
L120.985 362.727
L125.084 360.545
L129.183 358.364
L133.283 356.182
L137.382 354
L141.481 351.818
L145.58 349.636
L149.679 347.455
L153.779 345.273
L157.878 343.091
L161.977 340.909
L166.076 338.727
L170.175 336.545
L174.274 334.364
L178.374 332.182
L182.473 330
L186.572 327.818
L190.671 325.636
L194.77 323.455
L198.869 321.273
L202.969 319.091
L207.068 316.909
L211.167 314.727
L215.266 312.545
L219.365 310.364
L223.464 308.182
L227.564 306
L231.663 303.818
L235.762 301.636
L239.861 299.455
L243.96 297.273
L248.06 295.091
L252.159 292.909
L256.258 290.727
L260.357 288.545
L264.456 286.364
L268.555 284.182
L272.655 282
L276.754 279.818
L280.853 277.636
L284.952 275.455
L289.051 273.273
L293.15 271.091
L297.25 268.909
L301.349 266.727
L305.448 264.545
L309.547 262.364
L313.646 260.182
L317.745 258
L321.845 255.818
L325.944 253.636
L330.043 251.455
L334.142 249.273
L338.241 247.091
L342.34 244.909
L346.44 242.727
L350.539 240.545
L354.638 238.364
L358.737 236.182
L362.836 234
L366.936 231.818
L371.035 229.636
L375.134 227.455
L379.233 225.273
L383.332 223.091
L387.431 220.909
L391.531 218.727
L395.63 216.545
L399.729 214.364
L403.828 212.182
L407.927 210
L412.026 207.818
L416.126 205.636
L420.225 203.455
L424.324 201.273
L428.423 199.091
L432.522 196.909
L436.621 194.727
L440.721 192.545
L444.82 190.364
L448.919 188.182
L453.018 186
L457.117 183.818
L461.217 181.636
L465.316 179.455
L469.415 177.273
L473.514 175.091
L477.613 172.909
L481.712 170.727
L485.812 168.545
L489.911 166.364
L494.01 164.182
L498.109 162" style="fill:none;stroke:#000000;stroke-dasharray:6.000000,6.000000;stroke-dashoffset:0.0;stroke-linecap:butt;stroke-width:1.5;"/>
   </g>
   <g id="matplotlib.axis_1">
    <g id="xtick_1">
     <g id="line2d_12">
      <defs>
       <path d="
M0 0
L0 -4" id="mcb557df647" style="stroke:#000000;stroke-linecap:butt;stroke-width:0.5;"/>
      </defs>
      <g>
       <use style="stroke:#000000;stroke-linecap:butt;stroke-width:0.5;" x="92.2909090909" xlink:href="#mcb557df647" y="388.8"/>
      </g>
     </g>
     <g id="line2d_13">
      <defs>
       <path d="
M0 0
L0 4" id="mdad270ee8e" style="stroke:#000000;stroke-linecap:butt;stroke-width:0.5;"/>
      </defs>
      <g>
       <use style="stroke:#000000;stroke-linecap:butt;stroke-width:0.5;" x="92.2909090909" xlink:href="#mdad270ee8e" y="43.2"/>
      </g>
     </g>
     <g id="text_1">
      <!-- $0.0$ -->
      <defs>
       <path d="
M42 31.6406
C42 37.75 41.9062 48.125 37.7031 56.1094
C34 63.1094 28.0938 65.5938 22.9062 65.5938
C18.0938 65.5938 12 63.4062 8.20312 56.2031
C4.20312 48.7188 3.79688 39.4375 3.79688 31.6406
C3.79688 25.9531 3.90625 17.2812 7 9.67188
C11.2969 -0.609375 19 -2 22.9062 -2
C27.5 -2 34.5 -0.109375 38.5938 9.375
C41.5938 16.2812 42 24.3594 42 31.6406
M22.9062 -0.40625
C16.5 -0.40625 12.7031 5.07812 11.2969 12.6875
C10.2031 18.5625 10.2031 27.1562 10.2031 32.75
C10.2031 40.4375 10.2031 46.8281 11.5 52.9219
C13.4062 61.3906 19 64 22.9062 64
C27 64 32.2969 61.2969 34.2031 53.125
C35.5 47.4375 35.5938 40.7344 35.5938 32.75
C35.5938 26.25 35.5938 18.2656 34.4062 12.375
C32.2969 1.48438 26.4062 -0.40625 22.9062 -0.40625" id="CMR17-48"/>
       <path d="
M18.4062 4.79688
C18.4062 7.6875 16 9.67188 13.5938 9.67188
C10.7031 9.67188 8.70312 7.28125 8.70312 4.89062
C8.70312 2 11.0938 0 13.5 0
C16.4062 0 18.4062 2.39062 18.4062 4.79688" id="CMMI12-58"/>
      </defs>
      <g transform="translate(83.565618068 401.788509885)scale(0.14 -0.14)">
       <use transform="scale(0.996264009963)" xlink:href="#CMR17-48"/>
       <use transform="translate(45.6904771171 0.0)scale(0.996264009963)" xlink:href="#CMMI12-58"/>
       <use transform="translate(72.7876542069 0.0)scale(0.996264009963)" xlink:href="#CMR17-48"/>
      </g>
     </g>
    </g>
    <g id="xtick_2">
     <g id="line2d_14">
      <g>
       <use style="stroke:#000000;stroke-linecap:butt;stroke-width:0.5;" x="173.454545455" xlink:href="#mcb557df647" y="388.8"/>
      </g>
     </g>
     <g id="line2d_15">
      <g>
       <use style="stroke:#000000;stroke-linecap:butt;stroke-width:0.5;" x="173.454545455" xlink:href="#mdad270ee8e" y="43.2"/>
      </g>
     </g>
     <g id="text_2">
      <!-- $0.2$ -->
      <defs>
       <path d="
M41.7031 15.4531
L39.9062 15.4531
C38.9062 8.375 38.0938 7.17188 37.7031 6.5625
C37.2031 5.76562 30 5.76562 28.5938 5.76562
L9.40625 5.76562
C13 9.67188 20 16.75 28.5 24.9531
C34.5938 30.7344 41.7031 37.5312 41.7031 47.4219
C41.7031 59.2188 32.2969 66 21.7969 66
C10.7969 66 4.09375 56.3125 4.09375 47.3438
C4.09375 43.4375 7 42.9375 8.20312 42.9375
C9.20312 42.9375 12.2031 43.5469 12.2031 47.0312
C12.2031 50.1094 9.59375 51 8.20312 51
C7.59375 51 7 50.9062 6.59375 50.7031
C8.5 59.2188 14.2969 63.4062 20.4062 63.4062
C29.0938 63.4062 34.7969 56.5156 34.7969 47.4219
C34.7969 38.7344 29.7031 31.25 24 24.75
L4.09375 2.28125
L4.09375 0
L39.2969 0
z
" id="CMR17-50"/>
      </defs>
      <g transform="translate(164.729254432 401.788509885)scale(0.14 -0.14)">
       <use transform="scale(0.996264009963)" xlink:href="#CMR17-48"/>
       <use transform="translate(45.6904771171 0.0)scale(0.996264009963)" xlink:href="#CMMI12-58"/>
       <use transform="translate(72.7876542069 0.0)scale(0.996264009963)" xlink:href="#CMR17-50"/>
      </g>
     </g>
    </g>
    <g id="xtick_3">
     <g id="line2d_16">
      <g>
       <use style="stroke:#000000;stroke-linecap:butt;stroke-width:0.5;" x="254.618181818" xlink:href="#mcb557df647" y="388.8"/>
      </g>
     </g>
     <g id="line2d_17">
      <g>
       <use style="stroke:#000000;stroke-linecap:butt;stroke-width:0.5;" x="254.618181818" xlink:href="#mdad270ee8e" y="43.2"/>
      </g>
     </g>
     <g id="text_3">
      <!-- $0.4$ -->
      <defs>
       <path d="
M33.5938 64.3281
C33.5938 66.4062 33.5 66.5 31.7031 66.5
L2 19.5938
L2 17
L27.7969 17
L27.7969 7.14062
C27.7969 3.5 27.5938 2.5 20.5938 2.5
L18.7031 2.5
L18.7031 0
C21.9062 0 27.2969 0 30.7031 0
C34.0938 0 39.5 0 42.7031 0
L42.7031 2.5
L40.7969 2.5
C33.7969 2.5 33.5938 3.5 33.5938 7.14062
L33.5938 17
L43.7969 17
L43.7969 19.5938
L33.5938 19.5938
z

M28.0938 57.7656
L28.0938 19.5938
L4 19.5938
z
" id="CMR17-52"/>
      </defs>
      <g transform="translate(245.892890795 401.788509885)scale(0.14 -0.14)">
       <use transform="scale(0.996264009963)" xlink:href="#CMR17-48"/>
       <use transform="translate(45.6904771171 0.0)scale(0.996264009963)" xlink:href="#CMMI12-58"/>
       <use transform="translate(72.7876542069 0.0)scale(0.996264009963)" xlink:href="#CMR17-52"/>
      </g>
     </g>
    </g>
    <g id="xtick_4">
     <g id="line2d_18">
      <g>
       <use style="stroke:#000000;stroke-linecap:butt;stroke-width:0.5;" x="335.781818182" xlink:href="#mcb557df647" y="388.8"/>
      </g>
     </g>
     <g id="line2d_19">
      <g>
       <use style="stroke:#000000;stroke-linecap:butt;stroke-width:0.5;" x="335.781818182" xlink:href="#mdad270ee8e" y="43.2"/>
      </g>
     </g>
     <g id="text_4">
      <!-- $0.6$ -->
      <defs>
       <path d="
M10.5938 34
C10.5938 57.6562 21.7969 63 28.2969 63
C30.4062 63 35.5 62.6406 37.5 59
C35.9062 59 32.9062 59 32.9062 55.5156
C32.9062 52.8281 35.0938 51.9219 36.5 51.9219
C37.4062 51.9219 40.0938 52.3125 40.0938 55.625
C40.0938 61.7812 35.0938 65.2969 28.2031 65.2969
C16.2969 65.2969 3.79688 52.9688 3.79688 31
C3.79688 3.95312 15.0938 -2 23.0938 -2
C32.7969 -2 42 6.67188 42 20.0469
C42 32.5156 33.9062 41.5938 23.7031 41.5938
C17.5938 41.5938 13.0938 37.6094 10.5938 30.625
z

M23.0938 0.390625
C10.7969 0.390625 10.7969 18.75 10.7969 22.4375
C10.7969 29.625 14.2031 40 23.5 40
C25.2031 40 30.0938 40 33.4062 33.125
C35.2031 29.2188 35.2031 25.1406 35.2031 20.1406
C35.2031 14.75 35.2031 10.7812 33.0938 6.78125
C30.9062 2.67188 27.7031 0.390625 23.0938 0.390625" id="CMR17-54"/>
      </defs>
      <g transform="translate(327.056527159 401.788509885)scale(0.14 -0.14)">
       <use transform="scale(0.996264009963)" xlink:href="#CMR17-48"/>
       <use transform="translate(45.6904771171 0.0)scale(0.996264009963)" xlink:href="#CMMI12-58"/>
       <use transform="translate(72.7876542069 0.0)scale(0.996264009963)" xlink:href="#CMR17-54"/>
      </g>
     </g>
    </g>
    <g id="xtick_5">
     <g id="line2d_20">
      <g>
       <use style="stroke:#000000;stroke-linecap:butt;stroke-width:0.5;" x="416.945454545" xlink:href="#mcb557df647" y="388.8"/>
      </g>
     </g>
     <g id="line2d_21">
      <g>
       <use style="stroke:#000000;stroke-linecap:butt;stroke-width:0.5;" x="416.945454545" xlink:href="#mdad270ee8e" y="43.2"/>
      </g>
     </g>
     <g id="text_5">
      <!-- $0.8$ -->
      <defs>
       <path d="
M27.2031 35.375
C33.5 38.5625 39.9062 43.3281 39.9062 50.9844
C39.9062 60.0312 31.0938 65.2969 23 65.2969
C13.9062 65.2969 5.90625 58.7344 5.90625 49.6875
C5.90625 47.2031 6.5 42.9219 10.4062 39.1406
C11.4062 38.1562 15.5938 35.1719 18.2969 33.2812
C13.7969 30.9844 3.29688 25.5312 3.29688 14.5938
C3.29688 4.35938 13.0938 -2 22.7969 -2
C33.5 -2 42.5 5.65625 42.5 15.7969
C42.5 24.8438 36.4062 29.0312 32.4062 31.7031
z

M14.0938 44.125
C13.2969 44.625 9.29688 47.7031 9.29688 52.375
C9.29688 58.4375 15.5938 63 22.7969 63
C30.7031 63 36.5 57.4531 36.5 50.9844
C36.5 41.7344 26.0938 36.4688 25.5938 36.4688
C25.5 36.4688 25.4062 36.4688 24.5938 37.0781
z

M32.5 23.7344
C34 22.6406 38.7969 19.375 38.7969 13.2969
C38.7969 5.95312 31.4062 0.390625 23 0.390625
C13.9062 0.390625 7 6.84375 7 14.6875
C7 22.5469 13.0938 29.0938 20 32.1875
z
" id="CMR17-56"/>
      </defs>
      <g transform="translate(408.220163523 401.788509885)scale(0.14 -0.14)">
       <use transform="scale(0.996264009963)" xlink:href="#CMR17-48"/>
       <use transform="translate(45.6904771171 0.0)scale(0.996264009963)" xlink:href="#CMMI12-58"/>
       <use transform="translate(72.7876542069 0.0)scale(0.996264009963)" xlink:href="#CMR17-56"/>
      </g>
     </g>
    </g>
    <g id="xtick_6">
     <g id="line2d_22">
      <g>
       <use style="stroke:#000000;stroke-linecap:butt;stroke-width:0.5;" x="498.109090909" xlink:href="#mcb557df647" y="388.8"/>
      </g>
     </g>
     <g id="line2d_23">
      <g>
       <use style="stroke:#000000;stroke-linecap:butt;stroke-width:0.5;" x="498.109090909" xlink:href="#mdad270ee8e" y="43.2"/>
      </g>
     </g>
     <g id="text_6">
      <!-- $1.0$ -->
      <defs>
       <path d="
M26.5938 63.3125
C26.5938 65.4062 26.5 65.5 25.0938 65.5
C21.2031 61.1875 15.2969 59.7969 9.70312 59.7969
C9.40625 59.7969 8.90625 59.7969 8.79688 59.5
C8.70312 59.2969 8.70312 59.0938 8.70312 57
C11.7969 57 17 57.5938 21 59.9844
L21 7.20312
C21 3.6875 20.7969 2.5 12.2031 2.5
L9.20312 2.5
L9.20312 0
C14 0 19 0 23.7969 0
C28.5938 0 33.5938 0 38.4062 0
L38.4062 2.5
L35.4062 2.5
C26.7969 2.5 26.5938 3.59375 26.5938 7.15625
z
" id="CMR17-49"/>
      </defs>
      <g transform="translate(489.383799886 401.788509885)scale(0.14 -0.14)">
       <use transform="scale(0.996264009963)" xlink:href="#CMR17-49"/>
       <use transform="translate(45.6904771171 0.0)scale(0.996264009963)" xlink:href="#CMMI12-58"/>
       <use transform="translate(72.7876542069 0.0)scale(0.996264009963)" xlink:href="#CMR17-48"/>
      </g>
     </g>
    </g>
    <g id="text_7">
     <!-- $\nu$ -->
     <defs>
      <path d="
M22 43
C22 43.3906 21.7031 44 20.9062 44
C20.2031 44 10.7969 43 9.29688 43
C8.20312 42.8906 7.20312 42.7969 7.20312 41
C7.20312 40 8 40 9.40625 40
C14.0938 40 14.4062 39.2969 14.4062 38.2031
C14.4062 37.7969 14.2031 36.6094 14.0938 36.2031
L5.29688 1
C5.29688 0.59375 5.59375 0 6.29688 0
L8.40625 0
C9.79688 0 25 3.59375 36.7031 15.5625
C49.5938 28.8438 51.4062 41.1094 51.4062 41.5156
C51.4062 43.1094 50.0938 44 48.7969 44
C45.9062 44 45.2031 41.3125 45 40.6094
C39.0938 19.7656 25.4062 7.39062 12.0938 3
z
" id="CMMI12-23"/>
     </defs>
     <g transform="translate(290.862140995 414.509555962)scale(0.18 -0.18)">
      <use transform="scale(0.996264009963)" xlink:href="#CMMI12-23"/>
     </g>
    </g>
   </g>
   <g id="matplotlib.axis_2">
    <g id="ytick_1">
     <g id="line2d_24">
      <defs>
       <path d="
M0 0
L4 0" id="mc8fcea1516" style="stroke:#000000;stroke-linecap:butt;stroke-width:0.5;"/>
      </defs>
      <g>
       <use style="stroke:#000000;stroke-linecap:butt;stroke-width:0.5;" x="72.0" xlink:href="#mc8fcea1516" y="378.0"/>
      </g>
     </g>
     <g id="line2d_25">
      <defs>
       <path d="
M0 0
L-4 0" id="m0d5b0a6425" style="stroke:#000000;stroke-linecap:butt;stroke-width:0.5;"/>
      </defs>
      <g>
       <use style="stroke:#000000;stroke-linecap:butt;stroke-width:0.5;" x="518.4" xlink:href="#m0d5b0a6425" y="378.0"/>
      </g>
     </g>
     <g id="text_8">
      <!-- $0.0$ -->
      <g transform="translate(50.5494179542 382.494254942)scale(0.14 -0.14)">
       <use transform="scale(0.996264009963)" xlink:href="#CMR17-48"/>
       <use transform="translate(45.6904771171 0.0)scale(0.996264009963)" xlink:href="#CMMI12-58"/>
       <use transform="translate(72.7876542069 0.0)scale(0.996264009963)" xlink:href="#CMR17-48"/>
      </g>
     </g>
    </g>
    <g id="ytick_2">
     <g id="line2d_26">
      <g>
       <use style="stroke:#000000;stroke-linecap:butt;stroke-width:0.5;" x="72.0" xlink:href="#mc8fcea1516" y="334.8"/>
      </g>
     </g>
     <g id="line2d_27">
      <g>
       <use style="stroke:#000000;stroke-linecap:butt;stroke-width:0.5;" x="518.4" xlink:href="#m0d5b0a6425" y="334.8"/>
      </g>
     </g>
     <g id="text_9">
      <!-- $0.2$ -->
      <g transform="translate(50.5494179542 339.294254942)scale(0.14 -0.14)">
       <use transform="scale(0.996264009963)" xlink:href="#CMR17-48"/>
       <use transform="translate(45.6904771171 0.0)scale(0.996264009963)" xlink:href="#CMMI12-58"/>
       <use transform="translate(72.7876542069 0.0)scale(0.996264009963)" xlink:href="#CMR17-50"/>
      </g>
     </g>
    </g>
    <g id="ytick_3">
     <g id="line2d_28">
      <g>
       <use style="stroke:#000000;stroke-linecap:butt;stroke-width:0.5;" x="72.0" xlink:href="#mc8fcea1516" y="291.6"/>
      </g>
     </g>
     <g id="line2d_29">
      <g>
       <use style="stroke:#000000;stroke-linecap:butt;stroke-width:0.5;" x="518.4" xlink:href="#m0d5b0a6425" y="291.6"/>
      </g>
     </g>
     <g id="text_10">
      <!-- $0.4$ -->
      <g transform="translate(50.5494179542 296.094254942)scale(0.14 -0.14)">
       <use transform="scale(0.996264009963)" xlink:href="#CMR17-48"/>
       <use transform="translate(45.6904771171 0.0)scale(0.996264009963)" xlink:href="#CMMI12-58"/>
       <use transform="translate(72.7876542069 0.0)scale(0.996264009963)" xlink:href="#CMR17-52"/>
      </g>
     </g>
    </g>
    <g id="ytick_4">
     <g id="line2d_30">
      <g>
       <use style="stroke:#000000;stroke-linecap:butt;stroke-width:0.5;" x="72.0" xlink:href="#mc8fcea1516" y="248.4"/>
      </g>
     </g>
     <g id="line2d_31">
      <g>
       <use style="stroke:#000000;stroke-linecap:butt;stroke-width:0.5;" x="518.4" xlink:href="#m0d5b0a6425" y="248.4"/>
      </g>
     </g>
     <g id="text_11">
      <!-- $0.6$ -->
      <g transform="translate(50.5494179542 252.894254942)scale(0.14 -0.14)">
       <use transform="scale(0.996264009963)" xlink:href="#CMR17-48"/>
       <use transform="translate(45.6904771171 0.0)scale(0.996264009963)" xlink:href="#CMMI12-58"/>
       <use transform="translate(72.7876542069 0.0)scale(0.996264009963)" xlink:href="#CMR17-54"/>
      </g>
     </g>
    </g>
    <g id="ytick_5">
     <g id="line2d_32">
      <g>
       <use style="stroke:#000000;stroke-linecap:butt;stroke-width:0.5;" x="72.0" xlink:href="#mc8fcea1516" y="205.2"/>
      </g>
     </g>
     <g id="line2d_33">
      <g>
       <use style="stroke:#000000;stroke-linecap:butt;stroke-width:0.5;" x="518.4" xlink:href="#m0d5b0a6425" y="205.2"/>
      </g>
     </g>
     <g id="text_12">
      <!-- $0.8$ -->
      <g transform="translate(50.5494179542 209.694254942)scale(0.14 -0.14)">
       <use transform="scale(0.996264009963)" xlink:href="#CMR17-48"/>
       <use transform="translate(45.6904771171 0.0)scale(0.996264009963)" xlink:href="#CMMI12-58"/>
       <use transform="translate(72.7876542069 0.0)scale(0.996264009963)" xlink:href="#CMR17-56"/>
      </g>
     </g>
    </g>
    <g id="ytick_6">
     <g id="line2d_34">
      <g>
       <use style="stroke:#000000;stroke-linecap:butt;stroke-width:0.5;" x="72.0" xlink:href="#mc8fcea1516" y="162.0"/>
      </g>
     </g>
     <g id="line2d_35">
      <g>
       <use style="stroke:#000000;stroke-linecap:butt;stroke-width:0.5;" x="518.4" xlink:href="#m0d5b0a6425" y="162.0"/>
      </g>
     </g>
     <g id="text_13">
      <!-- $1.0$ -->
      <g transform="translate(50.5494179542 166.494254942)scale(0.14 -0.14)">
       <use transform="scale(0.996264009963)" xlink:href="#CMR17-49"/>
       <use transform="translate(45.6904771171 0.0)scale(0.996264009963)" xlink:href="#CMMI12-58"/>
       <use transform="translate(72.7876542069 0.0)scale(0.996264009963)" xlink:href="#CMR17-48"/>
      </g>
     </g>
    </g>
    <g id="ytick_7">
     <g id="line2d_36">
      <g>
       <use style="stroke:#000000;stroke-linecap:butt;stroke-width:0.5;" x="72.0" xlink:href="#mc8fcea1516" y="118.8"/>
      </g>
     </g>
     <g id="line2d_37">
      <g>
       <use style="stroke:#000000;stroke-linecap:butt;stroke-width:0.5;" x="518.4" xlink:href="#m0d5b0a6425" y="118.8"/>
      </g>
     </g>
     <g id="text_14">
      <!-- $1.2$ -->
      <g transform="translate(50.5494179542 123.294254942)scale(0.14 -0.14)">
       <use transform="scale(0.996264009963)" xlink:href="#CMR17-49"/>
       <use transform="translate(45.6904771171 0.0)scale(0.996264009963)" xlink:href="#CMMI12-58"/>
       <use transform="translate(72.7876542069 0.0)scale(0.996264009963)" xlink:href="#CMR17-50"/>
      </g>
     </g>
    </g>
    <g id="ytick_8">
     <g id="line2d_38">
      <g>
       <use style="stroke:#000000;stroke-linecap:butt;stroke-width:0.5;" x="72.0" xlink:href="#mc8fcea1516" y="75.6"/>
      </g>
     </g>
     <g id="line2d_39">
      <g>
       <use style="stroke:#000000;stroke-linecap:butt;stroke-width:0.5;" x="518.4" xlink:href="#m0d5b0a6425" y="75.6"/>
      </g>
     </g>
     <g id="text_15">
      <!-- $1.4$ -->
      <g transform="translate(50.5494179542 80.0942549424)scale(0.14 -0.14)">
       <use transform="scale(0.996264009963)" xlink:href="#CMR17-49"/>
       <use transform="translate(45.6904771171 0.0)scale(0.996264009963)" xlink:href="#CMMI12-58"/>
       <use transform="translate(72.7876542069 0.0)scale(0.996264009963)" xlink:href="#CMR17-52"/>
      </g>
     </g>
    </g>
    <g id="text_16">
     <!-- $P_{\text{fix}}$ -->
     <defs>
      <path d="
M29.5938 31.6094
L46.4062 31.6094
C60.2031 31.6094 74 41.7656 74 53.1406
C74 60.9062 67.4062 68 54.7969 68
L23.9062 68
C22 68 21.0938 68 21.0938 66.1094
C21.0938 65.1094 22 65.1094 23.5 65.1094
C29.5938 65.1094 29.5938 64.3125 29.5938 63.2031
C29.5938 63.0156 29.5938 62.4062 29.2031 60.9219
L15.7031 7.375
C14.7969 3.89062 14.5938 2.89062 7.59375 2.89062
C5.70312 2.89062 4.70312 2.89062 4.70312 1.09375
C4.70312 0 5.59375 0 6.20312 0
C8.09375 0 10.0938 0 12 0
L23.7031 0
C25.5938 0 27.7031 0 29.5938 0
C30.4062 0 31.5 0 31.5 1.89062
C31.5 2.89062 30.5938 2.89062 29.0938 2.89062
C23.0938 2.89062 23 3.59375 23 4.59375
C23 5.07812 23.0938 5.76562 23.2031 6.26562
z

M36.7969 61.2188
C37.7031 64.9062 38.0938 65.1094 42 65.1094
L51.9062 65.1094
C59.4062 65.1094 65.5938 62.7031 65.5938 55.2344
C65.5938 52.6406 64.2969 44.1719 59.7031 39.5938
C58 37.7969 53.2031 34 44.0938 34
L30 34
z
" id="CMMI12-80"/>
      <path d="
M29.2031 27.1406
L46.7969 52.4844
L37.4062 52.4844
L24.7969 33.4531
L12.2031 52.4844
L2.70312 52.4844
L20.2031 26.75
L1.70312 0
L11.2031 0
L24.5 20.125
L37.5938 0
L47.2969 0
z
" id="Nimbus_Sans_L_Regular-120"/>
      <path d="
M25.2031 52.4844
L16.5 52.4844
L16.5 60.4531
C16.5 63.8594 18.5 65.5938 22.2969 65.5938
C23 65.5938 23.2969 65.5938 25.2031 65.5938
L25.2031 72.7969
C23.2969 72.9688 22.2031 73 20.5 73
C12.7969 73 8.20312 68.6562 8.20312 61.2656
L8.20312 52.4844
L1.20312 52.4844
L1.20312 45.6719
L8.20312 45.6719
L8.20312 0
L16.5 0
L16.5 45.6719
L25.2031 45.6719
z

M43.5938 52.4844
L35.2969 52.4844
L35.2969 0
L43.5938 0
z

M43.5938 73
L35.2969 73
L35.2969 62.4844
L43.5938 62.4844
z
" id="Nimbus_Sans_L_Regular-2"/>
     </defs>
     <g transform="translate(45.5494179542 227.935383)rotate(-90.0)scale(0.18 -0.18)">
      <use transform="translate(0.0 16.627481539)scale(0.996264009963)" xlink:href="#CMMI12-80"/>
      <use transform="translate(62.8772322297 0.0)scale(0.697381766617)" xlink:href="#Nimbus_Sans_L_Regular-2"/>
      <use transform="translate(97.7463205606 0.0)scale(0.697381766617)" xlink:href="#Nimbus_Sans_L_Regular-120"/>
     </g>
    </g>
   </g>
   <g id="patch_3">
    <path d="
M72 43.2
L518.4 43.2" style="fill:none;stroke:#000000;"/>
   </g>
   <g id="patch_4">
    <path d="
M518.4 388.8
L518.4 43.2" style="fill:none;stroke:#000000;"/>
   </g>
   <g id="patch_5">
    <path d="
M72 388.8
L518.4 388.8" style="fill:none;stroke:#000000;"/>
   </g>
   <g id="patch_6">
    <path d="
M72 388.8
L72 43.2" style="fill:none;stroke:#000000;"/>
   </g>
   <g id="text_17">
    <!-- Fixation probabilities in complex scenarios -->
    <defs>
     <path d="
M53.5 5.20312
C52.5938 5 52.2031 5 51.7031 5
C48.7969 5 47.2031 6.48438 47.2031 9.07812
L47.2031 39.7656
C47.2031 49.0156 40.4062 54 27.5 54
C19.9062 54 13.5938 51.8125 10.0938 47.9062
C7.70312 45.2031 6.70312 42.2188 6.5 37.0312
L14.9062 37.0312
C15.5938 43.3906 19.4062 46.2812 27.2031 46.2812
C34.7031 46.2812 38.9062 43.4844 38.9062 38.5156
L38.9062 36.3281
C38.9062 32.8281 36.7969 31.3438 30.2031 30.5469
C18.4062 29.0625 16.5938 28.6562 13.4062 27.3594
C7.29688 24.875 4.20312 20.1875 4.20312 13.4219
C4.20312 3.96875 10.7969 -2 21.4062 -2
C28 -2 33.2969 0.296875 39.2031 5.70312
C39.7969 0.390625 42.4062 -2 47.7969 -2
C49.5 -2 50.7969 -1.8125 53.5 -1.09375
z

M38.9062 16.75
C38.9062 13.9531 38.0938 12.2656 35.5938 9.98438
C32.2031 6.89062 28.0938 5.3125 23.2031 5.3125
C16.7031 5.3125 12.9062 8.39062 12.9062 13.6562
C12.9062 19.1406 16.5938 21.9219 25.5 23.2188
C34.2969 24.4062 36.0938 24.8125 38.9062 26.0938
z
" id="Nimbus_Sans_L_Regular-97"/>
     <path d="
M5.40625 73
L5.40625 -0.03125
L12.9062 -0.03125
L12.9062 7
C16.9062 0.890625 22.2031 -2 29.5 -2
C43.2969 -2 52.2969 9.25 52.2969 26.5938
C52.2969 43.5312 43.7031 54 29.9062 54
C22.7031 54 17.5938 51.2812 13.7031 45.3906
L13.7031 73
z

M28.2969 46.1875
C37.5938 46.1875 43.5938 38.125 43.5938 25.7031
C43.5938 13.8594 37.4062 5.8125 28.2969 5.8125
C19.5 5.8125 13.7031 13.7656 13.7031 26
C13.7031 38.2344 19.5 46.1875 28.2969 46.1875" id="Nimbus_Sans_L_Regular-98"/>
     <path d="
M51.2969 24
C51.2969 31.875 50.7031 36.5938 49.2031 40.4219
C45.7969 48.875 37.7969 54 28 54
C13.4062 54 4 42.8438 4 25.7031
C4 8.54688 13.0938 -2 27.7969 -2
C39.7969 -2 48.0938 4.875 50.2031 16.375
L41.7969 16.375
C39.5 9.35938 34.7969 5.70312 28.0938 5.70312
C22.7969 5.70312 18.2969 8.14062 15.5 12.6094
C13.5 15.6562 12.7969 18.7188 12.7031 24
z

M12.9062 30.8125
C13.5938 40.1875 19.5 46.2812 27.9062 46.2812
C36.0938 46.2812 42.4062 39.7031 42.4062 31.4062
C42.4062 31.2031 42.4062 31.0156 42.2969 30.8125
z
" id="Nimbus_Sans_L_Regular-101"/>
     <path d="
M5.40625 -22
L13.7969 -22
L13.7969 5
C18.2031 -0.421875 23.0938 -2.8125 29.9062 -2.8125
C43.4062 -2.8125 52.2969 8.15625 52.2969 24.9844
C52.2969 42.7188 43.7031 53.8125 29.7969 53.8125
C22.7031 53.8125 17 50.5938 13.0938 44.3906
L13.0938 52.3281
L5.40625 52.3281
z

M28.4062 46
C37.5938 46 43.5938 37.8125 43.5938 25.1875
C43.5938 13.1719 37.5 5 28.4062 5
C19.5938 5 13.7969 13.0781 13.7969 25.4844
C13.7969 37.9219 19.5938 46 28.4062 46" id="Nimbus_Sans_L_Regular-112"/>
     <path d="
M18.2969 33
L53.0938 33
L53.0938 41.2188
L18.2969 41.2188
L18.2969 64.7812
L57.9062 64.7812
L57.9062 73
L9 73
L9 -0.21875
L18.2969 -0.21875
z
" id="Nimbus_Sans_L_Regular-70"/>
     <path d="
M7 52.4844
L7 0
L15.4062 0
L15.4062 32.9531
C15.4062 40.5781 20.9062 46.6875 27.7031 46.6875
C33.9062 46.6875 37.4062 42.875 37.4062 36.1562
L37.4062 0
L45.7969 0
L45.7969 32.9531
C45.7969 40.5781 51.2969 46.6875 58.0938 46.6875
C64.2031 46.6875 67.7969 42.7812 67.7969 36.1562
L67.7969 0
L76.2031 0
L76.2031 39.375
C76.2031 48.7812 70.7969 54 61 54
C54 54 49.7969 51.8906 44.9062 45.9844
C41.7969 51.5938 37.5938 54 30.7969 54
C23.7969 54 19.2031 51.3906 14.7031 45.0781
L14.7031 52.4844
z
" id="Nimbus_Sans_L_Regular-109"/>
     <path d="
M15.2031 73
L6.79688 73
L6.79688 -0.03125
L15.2031 -0.03125
z
" id="Nimbus_Sans_L_Regular-108"/>
     <path d="
M47.0938 34.9375
C46.7031 40.0312 45.5938 43.3281 43.5938 46.2188
C40 51.1094 33.7031 54 26.4062 54
C12.2969 54 3.09375 42.8438 3.09375 25.5
C3.09375 8.65625 12.0938 -2 26.2969 -2
C38.7969 -2 46.7031 5.46875 47.7031 18.2344
L39.2969 18.2344
C37.9062 9.875 33.5938 5.70312 26.5 5.70312
C17.2969 5.70312 11.7969 13.1719 11.7969 25.5
C11.7969 38.5312 17.2031 46.2812 26.2969 46.2812
C33.2969 46.2812 37.7031 42.2031 38.7031 34.9375
z
" id="Nimbus_Sans_L_Regular-99"/>
     <path d="
M15 52.4844
L6.70312 52.4844
L6.70312 0
L15 0
z

M15 73
L6.59375 73
L6.59375 62.4844
L15 62.4844
z
" id="Nimbus_Sans_L_Regular-105"/>
     <path d="
M7 52.4844
L7 0
L15.4062 0
L15.4062 28.9531
C15.4062 39.6719 21 46.6875 29.5938 46.6875
C36.2031 46.6875 40.4062 42.6719 40.4062 36.3594
L40.4062 0
L48.7031 0
L48.7031 39.6719
C48.7031 48.3906 42.2031 54 32.0938 54
C24.2969 54 19.2969 50.9844 14.7031 43.6875
L14.7031 52.4844
z
" id="Nimbus_Sans_L_Regular-110"/>
     <path d="
M27.2031 54
C12.5 54 3.59375 43.5312 3.59375 26
C3.59375 8.45312 12.4062 -2 27.2969 -2
C42 -2 51 8.45312 51 25.5938
C51 43.6406 42.2969 54 27.2031 54
M27.2969 46.2812
C36.7031 46.2812 42.2969 38.625 42.2969 25.7031
C42.2969 13.4531 36.5 5.70312 27.2969 5.70312
C18 5.70312 12.2969 13.3594 12.2969 26
C12.2969 38.5312 18 46.2812 27.2969 46.2812" id="Nimbus_Sans_L_Regular-111"/>
     <path d="
M25.4062 52.8125
L16.7969 52.8125
L16.7969 67
L8.5 67
L8.5 52.8125
L1.40625 52.8125
L1.40625 46
L8.5 46
L8.5 6.3125
C8.5 1 12.0938 -2 18.5938 -2
C20.5938 -2 22.5938 -1.8125 25.4062 -1.29688
L25.4062 5.71875
C24.2969 5.40625 23 5.3125 21.4062 5.3125
C17.7969 5.3125 16.7969 6.3125 16.7969 10.0156
L16.7969 46
L25.4062 46
z
" id="Nimbus_Sans_L_Regular-116"/>
     <path d="
M6.90625 52.4844
L6.90625 0
L15.2969 0
L15.2969 27.25
C15.2969 34.7656 17.2031 39.6719 21.2031 42.5781
C23.7969 44.4844 26.2969 45.0781 32.0938 45.0781
L32.0938 53.7031
C30.7031 53.8906 30 54 28.9062 54
C23.5 54 19.4062 50.7812 14.5938 42.9688
L14.5938 52.4844
z
" id="Nimbus_Sans_L_Regular-114"/>
     <path d="
M43.7969 37.9219
C43.7031 48.2031 36.9062 54 24.7969 54
C12.5938 54 4.70312 47.7188 4.70312 38.0625
C4.70312 29.8906 8.90625 26.0156 21.2969 23.0312
L29.0938 21.1406
C34.9062 19.7344 37.2031 17.6562 37.2031 13.875
C37.2031 9 32.2969 5.70312 25 5.70312
C20.5 5.70312 16.7031 7 14.5938 9.1875
C13.2969 10.6875 12.7031 12.1719 12.2031 15.8438
L3.40625 15.8438
C3.79688 3.76562 10.5938 -2 24.2969 -2
C37.5 -2 45.9062 4.45312 45.9062 14.5156
C45.9062 22.2812 41.5 26.5781 31.0938 29.0625
L23.0938 30.9531
C16.2969 32.5312 13.4062 34.7344 13.4062 38.4062
C13.4062 43.1875 17.7031 46.2812 24.5 46.2812
C31.2031 46.2812 34.7969 43.3906 35 37.9219
z
" id="Nimbus_Sans_L_Regular-115"/>
    </defs>
    <g transform="translate(146.056878867 41.5951812782)scale(0.16 -0.16)">
     <use transform="translate(0.0 21.2198791884)scale(0.996264009963)" xlink:href="#Nimbus_Sans_L_Regular-70"/>
     <use transform="translate(60.871630677 21.2198791884)scale(0.996264009963)" xlink:href="#Nimbus_Sans_L_Regular-105"/>
     <use transform="translate(82.9884150257 21.2198791884)scale(0.996264009963)" xlink:href="#Nimbus_Sans_L_Regular-120"/>
     <use transform="translate(132.801615524 21.2198791884)scale(0.996264009963)" xlink:href="#Nimbus_Sans_L_Regular-97"/>
     <use transform="translate(188.193292487 21.2198791884)scale(0.996264009963)" xlink:href="#Nimbus_Sans_L_Regular-116"/>
     <use transform="translate(215.88846209 21.2198791884)scale(0.996264009963)" xlink:href="#Nimbus_Sans_L_Regular-105"/>
     <use transform="translate(238.005246439 21.2198791884)scale(0.996264009963)" xlink:href="#Nimbus_Sans_L_Regular-111"/>
     <use transform="translate(293.396923402 21.2198791884)scale(0.996264009963)" xlink:href="#Nimbus_Sans_L_Regular-110"/>
     <use transform="translate(376.483769969 21.2198791884)scale(0.996264009963)" xlink:href="#Nimbus_Sans_L_Regular-112"/>
     <use transform="translate(431.875446932 21.2198791884)scale(0.996264009963)" xlink:href="#Nimbus_Sans_L_Regular-114"/>
     <use transform="translate(465.050676662 21.2198791884)scale(0.996264009963)" xlink:href="#Nimbus_Sans_L_Regular-111"/>
     <use transform="translate(520.442353625 21.2198791884)scale(0.996264009963)" xlink:href="#Nimbus_Sans_L_Regular-98"/>
     <use transform="translate(575.834030588 21.2198791884)scale(0.996264009963)" xlink:href="#Nimbus_Sans_L_Regular-97"/>
     <use transform="translate(631.225707552 21.2198791884)scale(0.996264009963)" xlink:href="#Nimbus_Sans_L_Regular-98"/>
     <use transform="translate(686.617384515 21.2198791884)scale(0.996264009963)" xlink:href="#Nimbus_Sans_L_Regular-105"/>
     <use transform="translate(708.734168864 21.2198791884)scale(0.996264009963)" xlink:href="#Nimbus_Sans_L_Regular-108"/>
     <use transform="translate(730.850953213 21.2198791884)scale(0.996264009963)" xlink:href="#Nimbus_Sans_L_Regular-105"/>
     <use transform="translate(752.967737561 21.2198791884)scale(0.996264009963)" xlink:href="#Nimbus_Sans_L_Regular-116"/>
     <use transform="translate(780.662907165 21.2198791884)scale(0.996264009963)" xlink:href="#Nimbus_Sans_L_Regular-105"/>
     <use transform="translate(802.779691513 21.2198791884)scale(0.996264009963)" xlink:href="#Nimbus_Sans_L_Regular-101"/>
     <use transform="translate(858.171368477 21.2198791884)scale(0.996264009963)" xlink:href="#Nimbus_Sans_L_Regular-115"/>
     <use transform="translate(935.679738578 21.2198791884)scale(0.996264009963)" xlink:href="#Nimbus_Sans_L_Regular-105"/>
     <use transform="translate(957.796522927 21.2198791884)scale(0.996264009963)" xlink:href="#Nimbus_Sans_L_Regular-110"/>
     <use transform="translate(1040.88336949 21.2198791884)scale(0.996264009963)" xlink:href="#Nimbus_Sans_L_Regular-99"/>
     <use transform="translate(1090.69656999 21.2198791884)scale(0.996264009963)" xlink:href="#Nimbus_Sans_L_Regular-111"/>
     <use transform="translate(1146.08824695 21.2198791884)scale(0.996264009963)" xlink:href="#Nimbus_Sans_L_Regular-109"/>
     <use transform="translate(1229.07667718 21.2198791884)scale(0.996264009963)" xlink:href="#Nimbus_Sans_L_Regular-112"/>
     <use transform="translate(1284.46835415 21.2198791884)scale(0.996264009963)" xlink:href="#Nimbus_Sans_L_Regular-108"/>
     <use transform="translate(1306.58513849 21.2198791884)scale(0.996264009963)" xlink:href="#Nimbus_Sans_L_Regular-101"/>
     <use transform="translate(1358.98870751 21.2198791884)scale(0.996264009963)" xlink:href="#Nimbus_Sans_L_Regular-120"/>
     <use transform="translate(1436.49707761 21.2198791884)scale(0.996264009963)" xlink:href="#Nimbus_Sans_L_Regular-115"/>
     <use transform="translate(1486.31027811 21.2198791884)scale(0.996264009963)" xlink:href="#Nimbus_Sans_L_Regular-99"/>
     <use transform="translate(1536.12347861 21.2198791884)scale(0.996264009963)" xlink:href="#Nimbus_Sans_L_Regular-101"/>
     <use transform="translate(1591.51515557 21.2198791884)scale(0.996264009963)" xlink:href="#Nimbus_Sans_L_Regular-110"/>
     <use transform="translate(1646.90683253 21.2198791884)scale(0.996264009963)" xlink:href="#Nimbus_Sans_L_Regular-97"/>
     <use transform="translate(1702.2985095 21.2198791884)scale(0.996264009963)" xlink:href="#Nimbus_Sans_L_Regular-114"/>
     <use transform="translate(1736.96711672 21.2198791884)scale(0.996264009963)" xlink:href="#Nimbus_Sans_L_Regular-105"/>
     <use transform="translate(1759.08390107 21.2198791884)scale(0.996264009963)" xlink:href="#Nimbus_Sans_L_Regular-111"/>
     <use transform="translate(1814.47557803 21.2198791884)scale(0.996264009963)" xlink:href="#Nimbus_Sans_L_Regular-115"/>
    </g>
   </g>
   <g id="legend_1">
    <g id="patch_7">
     <path d="
M80.4 173.446
L209.736 173.446
L209.736 51.6
L80.4 51.6
L80.4 173.446
z
" style="fill:#ffffff;stroke:#000000;"/>
    </g>
    <g id="line2d_40">
     <path d="
M92.16 64.3652
L115.68 64.3652" style="fill:none;stroke:#0000ff;stroke-width:2;"/>
    </g>
    <g id="line2d_41"/>
    <g id="text_18">
     <!-- naive -->
     <defs>
      <path d="
M28.5 0
L48.5938 52.5
L39.2031 52.5
L24.4062 9.92188
L10.4062 52.5
L1 52.5
L19.4062 0
z
" id="Nimbus_Sans_L_Regular-118"/>
     </defs>
     <g transform="translate(134.16 70.5463375136)scale(0.168 -0.168)">
      <use transform="translate(0.0 1.79267018699)scale(0.996264009963)" xlink:href="#Nimbus_Sans_L_Regular-110"/>
      <use transform="translate(55.3916769633 1.79267018699)scale(0.996264009963)" xlink:href="#Nimbus_Sans_L_Regular-97"/>
      <use transform="translate(110.783353927 1.79267018699)scale(0.996264009963)" xlink:href="#Nimbus_Sans_L_Regular-105"/>
      <use transform="translate(132.900138275 1.79267018699)scale(0.996264009963)" xlink:href="#Nimbus_Sans_L_Regular-118"/>
      <use transform="translate(180.222709152 1.79267018699)scale(0.996264009963)" xlink:href="#Nimbus_Sans_L_Regular-101"/>
     </g>
    </g>
    <g id="line2d_42">
     <path d="
M92.16 88.565
L115.68 88.565" style="fill:none;stroke:#008000;stroke-width:2;"/>
    </g>
    <g id="line2d_43"/>
    <g id="text_19">
     <!-- 3 mut/epi -->
     <defs>
      <path d="
M22.9062 73
L-0.796875 -2
L4.70312 -2
L28.4062 73
z
" id="Nimbus_Sans_L_Regular-47"/>
      <path d="
M22.0938 33
L23.2031 33
L26.9062 33
C36.5938 33 41.5938 28.5938 41.5938 20.0625
C41.5938 11.125 36.0938 5.8125 26.9062 5.8125
C17.2969 5.8125 12.5938 10.6406 12 21.0156
L3.20312 21.0156
C3.59375 15.2812 4.59375 11.5625 6.29688 8.34375
C9.90625 1.51562 16.9062 -2 26.5938 -2
C41.2031 -2 50.5938 6.73438 50.5938 20.2031
C50.5938 29.25 47.0938 34.2812 38.5938 37.2031
C45.2031 39.7812 48.5 44.7188 48.5 51.7344
C48.5 63.7812 40.4062 71 26.9062 71
C12.5938 71 5 63.2812 4.70312 48.3594
L13.5 48.3594
C13.5938 52.5938 14 54.9531 15.0938 57.1094
C17.0938 60.9375 21.5 63.2969 27 63.2969
C34.7969 63.2969 39.5 58.75 39.5 51.3594
C39.5 46.4219 37.7031 43.4531 33.7969 41.8906
C31.4062 40.9062 28.2969 40.5 22.0938 40.5
z
" id="Nimbus_Sans_L_Regular-51"/>
      <path d="
M48.2031 0.515625
L48.2031 53
L39.9062 53
L39.9062 23.1094
C39.9062 12.3438 34.2969 5.3125 25.5938 5.3125
C19 5.3125 14.7969 9.32812 14.7969 15.6719
L14.7969 53
L6.5 53
L6.5 12.375
C6.5 3.625 13 -2 23.2031 -2
C30.9062 -2 35.7969 0.703125 40.7031 7.625
L40.7031 0.515625
z
" id="Nimbus_Sans_L_Regular-117"/>
     </defs>
     <g transform="translate(134.16 98.0099654859)scale(0.168 -0.168)">
      <use transform="translate(0.0 21.2198791884)scale(0.996264009963)" xlink:href="#Nimbus_Sans_L_Regular-51"/>
      <use transform="translate(83.0868465666 21.2198791884)scale(0.996264009963)" xlink:href="#Nimbus_Sans_L_Regular-109"/>
      <use transform="translate(165.079180004 21.2198791884)scale(0.996264009963)" xlink:href="#Nimbus_Sans_L_Regular-117"/>
      <use transform="translate(220.470856967 21.2198791884)scale(0.996264009963)" xlink:href="#Nimbus_Sans_L_Regular-116"/>
      <use transform="translate(248.16602657 21.2198791884)scale(0.996264009963)" xlink:href="#Nimbus_Sans_L_Regular-47"/>
      <use transform="translate(275.861196174 21.2198791884)scale(0.996264009963)" xlink:href="#Nimbus_Sans_L_Regular-101"/>
      <use transform="translate(331.252873137 21.2198791884)scale(0.996264009963)" xlink:href="#Nimbus_Sans_L_Regular-112"/>
      <use transform="translate(386.6445501 21.2198791884)scale(0.996264009963)" xlink:href="#Nimbus_Sans_L_Regular-105"/>
     </g>
    </g>
    <g id="line2d_44">
     <path d="
M92.16 112.765
L115.68 112.765" style="fill:none;stroke:#ff0000;stroke-width:2;"/>
    </g>
    <g id="line2d_45"/>
    <g id="text_20">
     <!-- 6 mut/epi -->
     <defs>
      <path d="
M49.7969 52.8438
C48.0938 64.2344 40.5 71 29.7031 71
C21.9062 71 14.9062 67.2188 10.7031 60.9375
C6.29688 54.0625 4.29688 45.375 4.29688 32.5156
C4.29688 20.6406 6.09375 13.0625 10.2969 6.78125
C14.0938 1.07812 20.2969 -2 28.0938 -2
C41.5938 -2 51.2969 8.09375 51.2969 22.1094
C51.2969 35.4375 42.2969 44.8125 29.5938 44.8125
C22.5938 44.8125 17.0938 42.1094 13.2969 36.9062
C13.4062 53.8125 19 63.1875 29.0938 63.1875
C35.2969 63.1875 39.5938 59.4219 41 52.8438
z

M28.5 37
C37 37 42.2969 31.0312 42.2969 21.4062
C42.2969 12.3906 36.2969 5.8125 28.2031 5.8125
C20 5.8125 13.7969 12.7031 13.7969 21.9062
C13.7969 30.8281 19.7969 37 28.5 37" id="Nimbus_Sans_L_Regular-54"/>
     </defs>
     <g transform="translate(134.16 122.209816387)scale(0.168 -0.168)">
      <use transform="translate(0.0 21.2198791884)scale(0.996264009963)" xlink:href="#Nimbus_Sans_L_Regular-54"/>
      <use transform="translate(83.0868465666 21.2198791884)scale(0.996264009963)" xlink:href="#Nimbus_Sans_L_Regular-109"/>
      <use transform="translate(165.079180004 21.2198791884)scale(0.996264009963)" xlink:href="#Nimbus_Sans_L_Regular-117"/>
      <use transform="translate(220.470856967 21.2198791884)scale(0.996264009963)" xlink:href="#Nimbus_Sans_L_Regular-116"/>
      <use transform="translate(248.16602657 21.2198791884)scale(0.996264009963)" xlink:href="#Nimbus_Sans_L_Regular-47"/>
      <use transform="translate(275.861196174 21.2198791884)scale(0.996264009963)" xlink:href="#Nimbus_Sans_L_Regular-101"/>
      <use transform="translate(331.252873137 21.2198791884)scale(0.996264009963)" xlink:href="#Nimbus_Sans_L_Regular-112"/>
      <use transform="translate(386.6445501 21.2198791884)scale(0.996264009963)" xlink:href="#Nimbus_Sans_L_Regular-105"/>
     </g>
    </g>
    <g id="line2d_46">
     <path d="
M92.16 136.655
L115.68 136.655" style="fill:none;stroke:#00ffff;stroke-width:2;"/>
    </g>
    <g id="line2d_47"/>
    <g id="text_21">
     <!-- tds 0.005 -->
     <defs>
      <path d="
M27.5 71
C20.9062 71 14.9062 68.125 11.2031 63.2188
C6.59375 57.0469 4.29688 47.5625 4.29688 34.5
C4.29688 10.6719 12.2969 -2 27.5 -2
C42.5 -2 50.7031 10.6719 50.7031 33.9062
C50.7031 47.6562 48.5 56.8438 43.7969 63.2188
C40.0938 68.2188 34.2031 71 27.5 71
M27.5 63.1875
C37 63.1875 41.7031 53.625 41.7031 34.7031
C41.7031 14.6719 37.0938 5.3125 27.2969 5.3125
C18 5.3125 13.2969 15.0781 13.2969 34.4062
C13.2969 53.7188 18 63.1875 27.5 63.1875" id="Nimbus_Sans_L_Regular-48"/>
      <path d="
M49.5 73
L41.2031 73
L41.2031 45.8906
C37.7031 51.1875 32.0938 54 25.0938 54
C11.5 54 2.59375 43.1406 2.59375 26.4844
C2.59375 8.84375 11.2969 -2 25.4062 -2
C32.5938 -2 37.5938 0.703125 42.0938 7.20312
L42.0938 -0.03125
L49.5 -0.03125
z

M26.5 46.1875
C35.5 46.1875 41.2031 38.2344 41.2031 25.7969
C41.2031 13.7656 35.4062 5.8125 26.5938 5.8125
C17.4062 5.8125 11.2969 13.8594 11.2969 26
C11.2969 38.125 17.4062 46.1875 26.5 46.1875" id="Nimbus_Sans_L_Regular-100"/>
      <path d="
M47.5938 71
L11 71
L5.70312 32.5938
L13.7969 32.5938
C17.9062 37.4844 21.2969 39.1875 26.7969 39.1875
C36.2969 39.1875 42.2969 32.6875 42.2969 22.2031
C42.2969 12 36.4062 5.8125 26.7969 5.8125
C19.0938 5.8125 14.4062 9.70312 12.2969 17.7031
L3.5 17.7031
C4.70312 11.9062 5.70312 9.09375 7.79688 6.48438
C11.7969 1.09375 19 -2 27 -2
C41.2969 -2 51.2969 8.39062 51.2969 23.3906
C51.2969 37.4062 42 47 28.4062 47
C23.4062 47 19.4062 45.7031 15.2969 42.6875
L18.0938 62.2969
L47.5938 62.2969
z
" id="Nimbus_Sans_L_Regular-53"/>
      <path d="
M19.0938 10.4219
L8.70312 10.4219
L8.70312 0
L19.0938 0
z
" id="Nimbus_Sans_L_Regular-46"/>
     </defs>
     <g transform="translate(134.16 142.8361539)scale(0.168 -0.168)">
      <use transform="translate(0.0 1.79267018699)scale(0.996264009963)" xlink:href="#Nimbus_Sans_L_Regular-116"/>
      <use transform="translate(27.6951696032 1.79267018699)scale(0.996264009963)" xlink:href="#Nimbus_Sans_L_Regular-100"/>
      <use transform="translate(83.0868465666 1.79267018699)scale(0.996264009963)" xlink:href="#Nimbus_Sans_L_Regular-115"/>
      <use transform="translate(160.595216668 1.79267018699)scale(0.996264009963)" xlink:href="#Nimbus_Sans_L_Regular-48"/>
      <use transform="translate(215.986893631 1.79267018699)scale(0.996264009963)" xlink:href="#Nimbus_Sans_L_Regular-46"/>
      <use transform="translate(243.682063235 1.79267018699)scale(0.996264009963)" xlink:href="#Nimbus_Sans_L_Regular-48"/>
      <use transform="translate(299.073740198 1.79267018699)scale(0.996264009963)" xlink:href="#Nimbus_Sans_L_Regular-48"/>
      <use transform="translate(354.465417161 1.79267018699)scale(0.996264009963)" xlink:href="#Nimbus_Sans_L_Regular-53"/>
     </g>
    </g>
    <g id="line2d_48">
     <path d="
M92.16 160.545
L115.68 160.545" style="fill:none;stroke:#ff00ff;stroke-width:2;"/>
    </g>
    <g id="line2d_49"/>
    <g id="text_22">
     <!-- tds 0.01 -->
     <defs>
      <path d="
M25.9062 50.5938
L25.9062 0
L34.7031 0
L34.7031 71.0156
L28.9062 71.0156
C25.7969 60.1094 23.7969 58.6094 10.2031 56.9062
L10.2031 50.5938
z
" id="Nimbus_Sans_L_Regular-49"/>
     </defs>
     <g transform="translate(134.16 166.726268485)scale(0.168 -0.168)">
      <use transform="translate(0.0 1.79267018699)scale(0.996264009963)" xlink:href="#Nimbus_Sans_L_Regular-116"/>
      <use transform="translate(27.6951696032 1.79267018699)scale(0.996264009963)" xlink:href="#Nimbus_Sans_L_Regular-100"/>
      <use transform="translate(83.0868465666 1.79267018699)scale(0.996264009963)" xlink:href="#Nimbus_Sans_L_Regular-115"/>
      <use transform="translate(160.595216668 1.79267018699)scale(0.996264009963)" xlink:href="#Nimbus_Sans_L_Regular-48"/>
      <use transform="translate(215.986893631 1.79267018699)scale(0.996264009963)" xlink:href="#Nimbus_Sans_L_Regular-46"/>
      <use transform="translate(243.682063235 1.79267018699)scale(0.996264009963)" xlink:href="#Nimbus_Sans_L_Regular-48"/>
      <use transform="translate(299.073740198 1.79267018699)scale(0.996264009963)" xlink:href="#Nimbus_Sans_L_Regular-49"/>
     </g>
    </g>
   </g>
  </g>
 </g>
 <defs>
  <clipPath id="p7ff5b81e1d">
   <rect height="345.6" width="446.4" x="72.0" y="43.2"/>
  </clipPath>
 </defs>
</svg>
